<svg width="12" height="12" viewBox="0 0 12 12" fill="none" xmlns="http://www.w3.org/2000/svg">
<g clip-path="url(#clip0)">
<path d="M10.2521 1.74915C7.90432 -0.598675 4.12171 -0.598675 1.77389 1.74915C-0.573941 4.09698 -0.573941 7.87959 1.77389 10.2274C4.12171 12.5752 7.90432 12.5752 10.2521 10.2274C12.5739 7.90567 12.5739 4.09698 10.2521 1.74915ZM6.78258 8.61002C6.78258 9.0535 6.44345 9.39263 5.99997 9.39263C5.55649 9.39263 5.21736 9.0535 5.21736 8.61002V5.47959C5.21736 5.03611 5.55649 4.69698 5.99997 4.69698C6.44345 4.69698 6.78258 5.03611 6.78258 5.47959V8.61002ZM5.97389 4.14915C5.53041 4.14915 5.21736 3.83611 5.24345 3.4448C5.24345 3.02741 5.53041 2.71437 5.99997 2.71437C6.46954 2.71437 6.75649 3.02741 6.75649 3.4448C6.75649 3.81002 6.44345 4.14915 5.97389 4.14915Z" fill="#00A389"/>
</g>
<defs>
<clipPath id="clip0">
<rect width="12" height="12" fill="white"/>
</clipPath>
</defs>
</svg>
