<?xml version="1.0" encoding="utf-8"?>
<!-- Generator: Adobe Illustrator 22.0.0, SVG Export Plug-In . SVG Version: 6.00 Build 0)  -->
<svg version="1.1" id="Capa_1" xmlns="http://www.w3.org/2000/svg" xmlns:xlink="http://www.w3.org/1999/xlink" x="0px" y="0px"
	 viewBox="0 0 475.1 475.1" style="enable-background:new 0 0 475.1 475.1;" xml:space="preserve">
<style type="text/css">
	.st0{fill:#565656;}
</style>
<g>
	<g>
		<path class="st0" d="M438.5,146.2h-402c-5,0-9.2,1.8-12.9,5.4c-3.6,3.6-5.4,7.9-5.4,12.8v274.1c0,4.9,1.8,9.2,5.4,12.8
			c3.6,3.6,7.9,5.4,12.9,5.4h402c4.9,0,9.2-1.8,12.8-5.4c3.6-3.6,5.4-7.9,5.4-12.8V164.4c0-5-1.8-9.2-5.4-12.8
			C447.8,148,443.5,146.2,438.5,146.2z M286.9,232.1c-3.6,3.6-7.9,5.4-12.8,5.4H201c-4.9,0-9.2-1.8-12.8-5.4
			c-3.6-3.6-5.4-7.9-5.4-12.9c0-4.9,1.8-9.2,5.4-12.8c3.6-3.6,7.9-5.4,12.8-5.4h73.1c4.9,0,9.2,1.8,12.8,5.4
			c3.6,3.6,5.4,7.9,5.4,12.8C292.4,224.2,290.5,228.5,286.9,232.1z"/>
		<path class="st0" d="M469.7,23.7c-3.6-3.6-7.9-5.4-12.8-5.4H18.3c-4.9,0-9.2,1.8-12.8,5.4C1.8,27.3,0,31.6,0,36.5v73.1
			c0,4.9,1.8,9.2,5.4,12.8c3.6,3.6,7.9,5.4,12.8,5.4h438.5c4.9,0,9.2-1.8,12.9-5.4c3.6-3.6,5.4-7.9,5.4-12.8V36.5
			C475.1,31.6,473.3,27.3,469.7,23.7z"/>
	</g>
</g>
</svg>
