<svg width="8" height="13" viewBox="0 0 8 13" fill="none" xmlns="http://www.w3.org/2000/svg">
<path d="M0.5 6.5067C0.501345 6.65111 0.562563 6.78938 0.670742 6.89234L6.49811 12.3469C6.60801 12.4462 6.75521 12.5012 6.90801 12.5C7.0608 12.4987 7.20695 12.4414 7.315 12.3402C7.42304 12.2391 7.48433 12.1023 7.48566 11.9593C7.48698 11.8163 7.42825 11.6785 7.3221 11.5756L1.90673 6.5067L7.3221 1.43779C7.37775 1.38748 7.42215 1.32729 7.45269 1.26074C7.48323 1.19419 7.49931 1.12262 7.49998 1.05019C7.50065 0.977769 7.48591 0.905945 7.45661 0.83891C7.42731 0.771875 7.38404 0.710975 7.32932 0.65976C7.27461 0.608546 7.20954 0.568044 7.13793 0.540618C7.06631 0.513192 6.98958 0.499392 6.9122 0.50002C6.83482 0.500649 6.75836 0.515697 6.68726 0.544284C6.61617 0.572871 6.55186 0.614424 6.49811 0.66652L0.670742 6.12107C0.562563 6.22403 0.501345 6.3623 0.5 6.5067Z" fill="#464255" stroke="#AAABB5"/>
</svg>
