<svg width="10" height="6" viewBox="0 0 10 6" fill="none" xmlns="http://www.w3.org/2000/svg">
<path d="M4.99553 5C4.89926 4.99923 4.80708 4.96425 4.73844 4.90243L1.10208 1.57251C1.03584 1.50971 0.999185 1.42559 1.00001 1.33828C1.00084 1.25097 1.03909 1.16745 1.10651 1.10571C1.17393 1.04398 1.26513 1.00895 1.36048 1.0082C1.45582 1.00744 1.54768 1.041 1.61626 1.10166L4.99553 4.19616L8.3748 1.10166C8.40835 1.06985 8.44847 1.04449 8.49284 1.02703C8.5372 1.00958 8.58492 1.0004 8.6332 1.00001C8.68149 0.999628 8.72937 1.00805 8.77406 1.0248C8.81875 1.04154 8.85935 1.06627 8.89349 1.09753C8.92764 1.1288 8.95464 1.16598 8.97292 1.2069C8.99121 1.24782 9.00041 1.29167 8.99999 1.33589C8.99957 1.3801 8.98953 1.4238 8.97048 1.46442C8.95142 1.50505 8.92372 1.54179 8.88899 1.57251L5.25262 4.90243C5.18398 4.96425 5.0918 4.99923 4.99553 5Z" fill="#464255" stroke="#464255"/>
</svg>
