<svg width="28" height="28" viewBox="0 0 28 28" fill="none" xmlns="http://www.w3.org/2000/svg">
<path d="M14 13.9214C14.6444 13.9214 15.1667 13.402 15.1667 12.7612C15.1667 12.1205 14.6444 11.6011 14 11.6011C13.3557 11.6011 12.8334 12.1205 12.8334 12.7612C12.8334 13.402 13.3557 13.9214 14 13.9214Z" fill="#BABDD9"/>
<path d="M9.33329 13.9214C9.97762 13.9214 10.5 13.402 10.5 12.7612C10.5 12.1205 9.97762 11.6011 9.33329 11.6011C8.68896 11.6011 8.16663 12.1205 8.16663 12.7612C8.16663 13.402 8.68896 13.9214 9.33329 13.9214Z" fill="#BABDD9"/>
<path d="M18.6667 13.9214C19.311 13.9214 19.8333 13.402 19.8333 12.7612C19.8333 12.1205 19.311 11.6011 18.6667 11.6011C18.0223 11.6011 17.5 12.1205 17.5 12.7612C17.5 13.402 18.0223 13.9214 18.6667 13.9214Z" fill="#BABDD9"/>
<path d="M3.55822 25.3722C3.8024 25.4724 4.06407 25.5236 4.32822 25.523C4.58872 25.5243 4.84684 25.4736 5.08731 25.374C5.32778 25.2744 5.54571 25.1278 5.72822 24.943L8.64488 22.0426H19.8332C21.3803 22.0426 22.864 21.4315 23.958 20.3436C25.052 19.2558 25.6665 17.7804 25.6665 16.2419V9.2811C25.6665 7.74266 25.052 6.26723 23.958 5.17939C22.864 4.09155 21.3803 3.48041 19.8332 3.48041H8.16655C6.61945 3.48041 5.13572 4.09155 4.04176 5.17939C2.9478 6.26723 2.33322 7.74266 2.33322 9.2811V23.5392C2.32952 23.9315 2.44429 24.316 2.66267 24.6427C2.88106 24.9695 3.19303 25.2236 3.55822 25.3722V25.3722ZM4.66655 9.2811C4.66655 8.35803 5.0353 7.47278 5.69168 6.82007C6.34805 6.16737 7.23829 5.80068 8.16655 5.80068H19.8332C20.7615 5.80068 21.6517 6.16737 22.3081 6.82007C22.9645 7.47278 23.3332 8.35803 23.3332 9.2811V16.2419C23.3332 17.165 22.9645 18.0502 22.3081 18.7029C21.6517 19.3556 20.7615 19.7223 19.8332 19.7223H8.16655C8.01301 19.7215 7.8608 19.7507 7.71866 19.8084C7.57651 19.8662 7.44723 19.9513 7.33822 20.0588L4.66655 22.7271V9.2811Z" fill="#BABDD9"/>
</svg>
