<svg width="19" height="12" viewBox="0 0 19 12" fill="none" xmlns="http://www.w3.org/2000/svg">
<path d="M17.1481 0.266276L6.74308 9.4029L1.8971 4.67458C1.68597 4.47561 1.4032 4.36552 1.1097 4.36801C0.816186 4.3705 0.535421 4.48537 0.327871 4.68788C0.120321 4.89039 0.00259283 5.16434 4.23171e-05 5.45072C-0.0025082 5.73711 0.110323 6.01301 0.314235 6.21901L5.91135 11.6802C6.1141 11.878 6.38689 11.9923 6.67347 11.9996C6.96006 12.0069 7.2386 11.9067 7.45167 11.7196L18.6459 1.88935C18.8598 1.69386 18.9865 1.42432 18.999 1.13864C19.0114 0.85295 18.9086 0.573891 18.7125 0.361392C18.5164 0.148893 18.2427 0.0199006 17.9502 0.0021163C17.6577 -0.015668 17.3697 0.0791745 17.1481 0.266276Z" fill="#00A389"/>
</svg>
