<svg width="14" height="9" viewBox="0 0 14 9" fill="none" xmlns="http://www.w3.org/2000/svg">
<path d="M7.0067 8C7.15111 7.99866 7.28938 7.93744 7.39234 7.82926L12.8469 2.00189C12.9462 1.89199 13.0012 1.74479 13 1.59199C12.9987 1.4392 12.9414 1.29305 12.8402 1.185C12.7391 1.07696 12.6023 1.01567 12.4593 1.01434C12.3163 1.01302 12.1785 1.07175 12.0756 1.1779L7.0067 6.59327L1.93779 1.1779C1.88748 1.12225 1.82729 1.07785 1.76074 1.04731C1.69419 1.01677 1.62262 1.00069 1.55019 1.00002C1.47777 0.99935 1.40594 1.01409 1.33891 1.04339C1.27188 1.07269 1.21097 1.11596 1.15976 1.17068C1.10855 1.22539 1.06804 1.29046 1.04062 1.36207C1.01319 1.43369 0.999391 1.51042 1.00002 1.5878C1.00065 1.66518 1.0157 1.74164 1.04428 1.81274C1.07287 1.88383 1.11442 1.94814 1.16652 2.00189L6.62107 7.82926C6.72403 7.93744 6.8623 7.99866 7.0067 8Z" fill="#3546AB" stroke="#3546AB"/>
</svg>
