<?xml version="1.0" encoding="utf-8"?>
<!-- Generator: Adobe Illustrator 22.0.0, SVG Export Plug-In . SVG Version: 6.00 Build 0)  -->
<svg version="1.1" id="Layer_1" xmlns="http://www.w3.org/2000/svg" xmlns:xlink="http://www.w3.org/1999/xlink" x="0px" y="0px"
	 viewBox="0 0 17 16" style="enable-background:new 0 0 17 16;" xml:space="preserve">
<style type="text/css">
	.st0{fill:#464255;}
</style>
<path class="st0" d="M9.8,3.9H3c-1.7,0-3,1.4-3,3v5.5c0,1.7,1.4,3,3,3h6.7c1.7,0,3-1.4,3-3V6.9C12.8,5.2,11.4,3.9,9.8,3.9z M1.8,6.9
	c0-0.7,0.5-1.2,1.2-1.2h6.7c0.7,0,1.2,0.5,1.2,1.2v5.5c0,0.7-0.5,1.2-1.2,1.2H3c-0.7,0-1.2-0.5-1.2-1.2V6.9z"/>
<path class="st0" d="M13.6,0H5.8c-0.6,0-1,0.4-1,0.9s0.4,0.9,0.9,0.9h7.8c0.7,0,1.2,0.5,1.2,1.2v6.6c0,0.5,0.4,0.9,0.9,0.9
	s0.9-0.4,0.9-0.9V3C16.6,1.4,15.2,0,13.6,0z"/>
</svg>
