<?xml version="1.0" encoding="utf-8"?>
<!-- Generator: Adobe Illustrator 22.0.0, SVG Export Plug-In . SVG Version: 6.00 Build 0)  -->
<svg version="1.1" id="Capa_1" xmlns="http://www.w3.org/2000/svg" xmlns:xlink="http://www.w3.org/1999/xlink" x="0px" y="0px"
	 viewBox="0 0 512 512" style="enable-background:new 0 0 512 512;" xml:space="preserve">
<style type="text/css">
	.st0{fill:#565656;}
</style>
<g>
	<path class="st0" d="M444.6,50.3H137c-37.2,0-67.4,30.2-67.4,67.4v9.1h-2.2C30.2,126.8,0,157,0,194.1v9.1v191.1
		c0,37.2,30.2,67.4,67.4,67.4H375c37.2,0,67.4-30.2,67.4-67.4v-9.1h2.2c37.2,0,67.4-30.2,67.4-67.4V117.6
		C512,80.5,481.8,50.3,444.6,50.3L444.6,50.3z M412.4,394.4c0,20.6-16.8,37.4-37.4,37.4H67.4C46.8,431.8,30,415,30,394.4v-89.1
		h382.4V394.4z M412.4,275.3H30v-42h382.4V275.3z M412.4,203.3H30v-9.1c0-20.6,16.8-37.4,37.4-37.4H375c20.6,0,37.4,16.8,37.4,37.4
		V203.3z M482,317.9c0,20.6-16.8,37.4-37.4,37.4h-2.2V194.1c0-37.2-30.2-67.4-67.4-67.4H99.6v-9.1c0-20.6,16.8-37.4,37.4-37.4h307.6
		c20.6,0,37.4,16.8,37.4,37.4V317.9z"/>
	<path class="st0" d="M72.7,351.3h132v30h-132V351.3z"/>
	<path class="st0" d="M314.7,351.3h55.1v30h-55.1V351.3z"/>
</g>
</svg>
