<svg width="15" height="15" viewBox="0 0 15 15" fill="none" xmlns="http://www.w3.org/2000/svg">
<path fill-rule="evenodd" clip-rule="evenodd" d="M13.8744 2.56066C14.4602 1.97487 14.4602 1.02513 13.8744 0.43934C13.2886 -0.146447 12.3388 -0.146447 11.753 0.43934L7.48534 4.70705L3.21786 0.439566C2.63207 -0.14622 1.68232 -0.14622 1.09654 0.439566C0.51075 1.02535 0.51075 1.9751 1.09654 2.56089L5.36402 6.82837L0.43934 11.753C-0.146447 12.3388 -0.146447 13.2886 0.43934 13.8744C1.02513 14.4602 1.97487 14.4602 2.56066 13.8744L7.48534 8.94969L12.4102 13.8746C12.996 14.4604 13.9458 14.4604 14.5316 13.8746C15.1174 13.2888 15.1174 12.3391 14.5316 11.7533L9.60666 6.82837L13.8744 2.56066Z" fill="#FF5B5B"/>
</svg>
