<?xml version="1.0" encoding="utf-8"?>
<!-- Generator: Adobe Illustrator 22.0.0, SVG Export Plug-In . SVG Version: 6.00 Build 0)  -->
<svg version="1.1" id="Layer_1" xmlns="http://www.w3.org/2000/svg" xmlns:xlink="http://www.w3.org/1999/xlink" x="0px" y="0px"
	 viewBox="0 0 14 14" style="enable-background:new 0 0 14 14;" xml:space="preserve">
<style type="text/css">
	.st0{fill:#64728F;}
</style>
<path class="st0" d="M2.3,4.1v7c0,0.5,0.2,0.9,0.5,1.2s0.8,0.5,1.2,0.5h5.8c0.5,0,0.9-0.2,1.2-0.5s0.5-0.8,0.5-1.2v-7
	c0.2,0,0.3-0.1,0.4-0.2c0.1-0.1,0.2-0.3,0.2-0.4S12,3.2,11.9,3.1C12,3,11.8,2.9,11.7,2.9H9.3V2.3c0-0.5-0.2-0.9-0.5-1.2
	S8,0.6,7.6,0.6H6.4C6,0.6,5.5,0.8,5.2,1.1C4.9,1.4,4.7,1.9,4.7,2.3v0.6H2.3C2.2,2.9,2,3,1.9,3.1C1.8,3.2,1.8,3.3,1.8,3.5
	S1.9,3.8,2,3.9C2,4,2.2,4.1,2.3,4.1z M5.8,2.3C5.8,2.2,5.9,2,6,1.9s0.3-0.2,0.4-0.2h1.2c0.2,0,0.3,0.1,0.4,0.2
	C8.1,2,8.2,2.2,8.2,2.3v0.6H5.8V2.3z M3.5,4.1h7v7c0,0.2-0.1,0.3-0.2,0.4c-0.1,0.1-0.3,0.2-0.4,0.2H4.1c-0.2,0-0.3-0.1-0.4-0.2
	c-0.1-0.1-0.2-0.3-0.2-0.4C3.5,11.1,3.5,4.1,3.5,4.1z"/>
<path class="st0" d="M5.3,10.5c0.2,0,0.3-0.1,0.4-0.2c0.1-0.1,0.2-0.3,0.2-0.4V5.8c0-0.2-0.1-0.3-0.2-0.4C5.6,5.3,5.4,5.3,5.3,5.3
	C5.1,5.3,5,5.4,4.9,5.5c-0.2,0-0.2,0.2-0.2,0.3v4.1c0,0.2,0.1,0.3,0.2,0.4C4.9,10.4,5.1,10.5,5.3,10.5z"/>
<path class="st0" d="M8.8,10.5c0.2,0,0.3-0.1,0.4-0.2c0.1-0.1,0.2-0.3,0.2-0.4V5.8c0-0.2-0.1-0.3-0.2-0.4S8.9,5.3,8.8,5.3
	s-0.4,0-0.5,0.1S8.2,5.7,8.2,5.8v4.1c0,0.2,0.1,0.3,0.2,0.4C8.4,10.4,8.6,10.5,8.8,10.5z"/>
</svg>
