<svg width="28" height="28" viewBox="0 0 28 28" fill="none" xmlns="http://www.w3.org/2000/svg">
<path d="M5.83333 16.3334C7.12199 16.3334 8.16666 15.2887 8.16666 14.0001C8.16666 12.7114 7.12199 11.6667 5.83333 11.6667C4.54467 11.6667 3.5 12.7114 3.5 14.0001C3.5 15.2887 4.54467 16.3334 5.83333 16.3334Z" fill="#BABDD9"/>
<path d="M14.0001 16.3334C15.2888 16.3334 16.3335 15.2887 16.3335 14.0001C16.3335 12.7114 15.2888 11.6667 14.0001 11.6667C12.7115 11.6667 11.6668 12.7114 11.6668 14.0001C11.6668 15.2887 12.7115 16.3334 14.0001 16.3334Z" fill="#BABDD9"/>
<path d="M22.1665 16.3334C23.4551 16.3334 24.4998 15.2887 24.4998 14.0001C24.4998 12.7114 23.4551 11.6667 22.1665 11.6667C20.8778 11.6667 19.8331 12.7114 19.8331 14.0001C19.8331 15.2887 20.8778 16.3334 22.1665 16.3334Z" fill="#BABDD9"/>
</svg>
