<?xml version="1.0" encoding="utf-8"?>
<!-- Generator: Adobe Illustrator 22.0.0, SVG Export Plug-In . SVG Version: 6.00 Build 0)  -->
<svg version="1.1" id="Capa_1" xmlns="http://www.w3.org/2000/svg" xmlns:xlink="http://www.w3.org/1999/xlink" x="0px" y="0px"
	 viewBox="0 0 612 638.1" style="enable-background:new 0 0 612 638.1;" xml:space="preserve">
<style type="text/css">
	.st0{fill:#FFFFFF;}
</style>
<g>
	<g id="_x35__40_">
		<g>
			<path class="st0" d="M290.4,319c0.6-7.5-1.7-15.2-7.5-20.9L45.8,61.3c-10.5-10.4-27.4-10.4-37.9,0c-10.5,10.4-10.5,27.4,0,37.8
				L228.1,319L7.9,538.9c-10.5,10.4-10.5,27.4,0,37.8c10.5,10.4,27.4,10.4,37.9,0l237.1-236.7C288.7,334.2,290.9,326.6,290.4,319z
				 M604.5,298.1L313.7,7.8c-10.5-10.4-27.4-10.4-37.9,0c-10.5,10.4-10.5,27.4,0,37.8L549.7,319L275.8,592.4
				c-10.5,10.4-10.5,27.4,0,37.8c10.5,10.4,27.4,10.4,37.9,0L604.5,340c5.8-5.7,8-13.4,7.4-20.9
				C612.5,311.5,610.2,303.8,604.5,298.1z"/>
		</g>
	</g>
</g>
</svg>
