<svg width="12" height="8" viewBox="0 0 12 8" fill="none" xmlns="http://www.w3.org/2000/svg">
<path d="M5.99386 7C5.86149 6.99885 5.73474 6.94637 5.64036 6.85365L0.640356 1.85876C0.549277 1.76456 0.49888 1.63839 0.500019 1.50742C0.501158 1.37646 0.553743 1.25118 0.646447 1.15857C0.739151 1.06596 0.864557 1.01343 0.995655 1.01229C1.12675 1.01116 1.25305 1.0615 1.34736 1.15249L5.99386 5.79424L10.6404 1.15249C10.6865 1.10478 10.7417 1.06673 10.8027 1.04055C10.8637 1.01437 10.9293 1.0006 10.9957 1.00002C11.062 0.999443 11.1279 1.01208 11.1893 1.0372C11.2508 1.06231 11.3066 1.0994 11.3536 1.1463C11.4005 1.1932 11.4376 1.24896 11.4628 1.31035C11.4879 1.37173 11.5006 1.43751 11.5 1.50383C11.4994 1.57015 11.4856 1.63569 11.4594 1.69663C11.4332 1.75757 11.3951 1.81269 11.3474 1.85876L6.34736 6.85365C6.25297 6.94637 6.12623 6.99885 5.99386 7Z" stroke="#FC6098"/>
</svg>
