<svg width="14" height="14" viewBox="0 0 14 14" fill="none" xmlns="http://www.w3.org/2000/svg">
<path d="M13.3 8.4C13.09 8.4 12.95 8.47 12.81 8.61C12.67 8.75 12.6 8.89 12.6 9.1V11.9C12.6 12.11 12.53 12.25 12.39 12.39C12.25 12.53 12.11 12.6 11.9 12.6H2.1C1.89 12.6 1.75 12.53 1.61 12.39C1.47 12.25 1.4 12.11 1.4 11.9V9.1C1.4 8.89 1.33 8.75 1.19 8.61C1.05 8.47 0.91 8.4 0.7 8.4C0.49 8.4 0.35 8.47 0.21 8.61C0.07 8.75 0 8.89 0 9.1V11.9C0 12.46 0.21 13.02 0.63 13.37C1.05 13.79 1.54 14 2.1 14H11.9C12.46 14 13.02 13.79 13.37 13.37C13.79 12.95 14 12.46 14 11.9V9.1C14 8.89 13.93 8.75 13.79 8.61C13.65 8.47 13.51 8.4 13.3 8.4ZM6.51 9.59C6.58 9.66 6.65 9.73 6.72 9.73C6.79 9.8 6.86 9.8 7 9.8C7.14 9.8 7.21 9.8 7.28 9.73C7.35 9.73 7.42 9.66 7.49 9.59L10.29 6.79C10.43 6.65 10.5 6.51 10.5 6.3C10.5 6.09 10.43 5.95 10.29 5.81C10.15 5.67 10.01 5.6 9.8 5.6C9.59 5.6 9.45 5.67 9.31 5.81L7.7 7.42V0.7C7.7 0.49 7.63 0.35 7.49 0.21C7.35 0.07 7.21 0 7 0C6.79 0 6.65 0.07 6.51 0.21C6.37 0.35 6.3 0.49 6.3 0.7V7.42L4.69 5.81C4.62 5.74 4.55 5.67 4.48 5.67C4.41 5.67 4.27 5.6 4.2 5.6C4.13 5.6 3.99 5.6 3.92 5.67C3.85 5.74 3.78 5.74 3.71 5.81C3.64 5.88 3.57 5.95 3.57 6.02C3.5 6.09 3.5 6.23 3.5 6.3C3.5 6.37 3.5 6.51 3.57 6.58C3.64 6.65 3.64 6.72 3.71 6.79L6.51 9.59Z" fill="white"/>
</svg>
