<svg width="17" height="16" viewBox="0 0 17 16" fill="none" xmlns="http://www.w3.org/2000/svg">
<path fill-rule="evenodd" clip-rule="evenodd" d="M7.97075 0.253742C8.11128 0.0912733 8.30189 0 8.50064 0C8.69939 0 8.89 0.0912733 9.03053 0.253742C9.17107 0.416211 9.25002 0.636566 9.25002 0.866332L9.25002 10.0408L11.7155 7.18189C11.8566 7.01876 12.048 6.92711 12.2476 6.92711C12.4471 6.92711 12.6385 7.01876 12.7796 7.18189C12.9207 7.34502 13 7.56628 13 7.79699C13 8.02769 12.9207 8.24895 12.7796 8.41208L9.0327 12.7437C8.96303 12.8249 8.88015 12.8894 8.78883 12.9334C8.69751 12.9774 8.59957 13 8.50064 13C8.40171 13 8.30376 12.9774 8.21244 12.9334C8.12112 12.8894 8.03824 12.8249 7.96858 12.7437L4.22167 8.41208C4.15143 8.33154 4.09568 8.23573 4.05763 8.13016C4.01959 8.02459 4 7.91135 4 7.79699C4 7.68262 4.01959 7.56939 4.05763 7.46381C4.09568 7.35824 4.15143 7.26243 4.22167 7.18189C4.29133 7.10069 4.37421 7.03624 4.46553 6.99226C4.55685 6.94828 4.6548 6.92563 4.75373 6.92563C4.85265 6.92563 4.9506 6.94828 5.04192 6.99226C5.13324 7.03624 5.21612 7.10069 5.28579 7.18189L7.75126 10.0408L7.75126 0.866332C7.75126 0.636566 7.83021 0.416211 7.97075 0.253742ZM0.248959 14.2923C0.408365 14.1048 0.624566 13.9994 0.85 13.9994H16.15C16.3754 13.9994 16.5916 14.1048 16.751 14.2923C16.9104 14.4798 17 14.7342 17 14.9994C17 15.2646 16.9104 15.519 16.751 15.7065C16.5916 15.8941 16.3754 15.9994 16.15 15.9994H0.85C0.624566 15.9994 0.408365 15.8941 0.248959 15.7065C0.0895533 15.519 0 15.2646 0 14.9994C0 14.7342 0.0895533 14.4798 0.248959 14.2923Z" fill="#464255"/>
</svg>
