<?xml version="1.0" encoding="utf-8"?>
<!-- Generator: Adobe Illustrator 22.0.0, SVG Export Plug-In . SVG Version: 6.00 Build 0)  -->
<svg version="1.1" id="Layer_1" xmlns="http://www.w3.org/2000/svg" xmlns:xlink="http://www.w3.org/1999/xlink" x="0px" y="0px"
	 viewBox="0 0 6 10" style="enable-background:new 0 0 6 10;" xml:space="preserve">
<style type="text/css">
	.st0{fill:#959AC5;}
</style>
<path class="st0" d="M1,2c0.6,0,1-0.4,1-1c0-0.6-0.4-1-1-1C0.4,0,0,0.4,0,1C0,1.6,0.4,2,1,2z M1,6c0.6,0,1-0.4,1-1S1.6,4,1,4
	C0.4,4,0,4.4,0,5S0.4,6,1,6z M2,9c0,0.6-0.4,1-1,1c-0.6,0-1-0.4-1-1s0.4-1,1-1C1.6,8,2,8.4,2,9z M6,1c0,0.6-0.4,1-1,1S4,1.6,4,1
	c0-0.6,0.4-1,1-1S6,0.4,6,1z M5,6c0.6,0,1-0.4,1-1S5.6,4,5,4S4,4.4,4,5S4.4,6,5,6z M6,9c0,0.6-0.4,1-1,1S4,9.6,4,9s0.4-1,1-1
	S6,8.4,6,9z"/>
</svg>
