<svg width="17" height="17" viewBox="0 0 17 17" fill="none" xmlns="http://www.w3.org/2000/svg">
<path d="M2.12485 15.5835H4.95818C5.0514 15.584 5.14381 15.5661 5.23012 15.5309C5.31642 15.4956 5.39491 15.4437 5.4611 15.378L13.9611 6.87804C14.0275 6.81219 14.0802 6.73385 14.1161 6.64753C14.1521 6.56121 14.1706 6.46863 14.1706 6.37512C14.1706 6.28161 14.1521 6.18903 14.1161 6.10271C14.0802 6.01639 14.0275 5.93805 13.9611 5.8722L11.1278 3.03887C11.0619 2.97248 10.9836 2.91978 10.8973 2.88382C10.8109 2.84786 10.7184 2.82935 10.6248 2.82935C10.5313 2.82935 10.4388 2.84786 10.3524 2.88382C10.2661 2.91978 10.1878 2.97248 10.1219 3.03887L1.62193 11.5389C1.55628 11.6051 1.50434 11.6836 1.46909 11.7699C1.43384 11.8562 1.41598 11.9486 1.41652 12.0418V14.8751C1.41652 15.063 1.49114 15.2431 1.62398 15.376C1.75682 15.5088 1.93699 15.5835 2.12485 15.5835ZM2.83318 12.3322L10.6248 4.54054L12.4594 6.37512L4.66777 14.1668H2.83318V12.3322Z" fill="white"/>
<path d="M12.5447 1.62189C12.4787 1.55585 12.4003 1.50346 12.314 1.46771C12.2277 1.43197 12.1352 1.41357 12.0418 1.41357C11.8532 1.41357 11.6723 1.48851 11.5389 1.62189C11.4055 1.75527 11.3306 1.93618 11.3306 2.12481C11.3306 2.31344 11.4055 2.49434 11.5389 2.62772L14.3722 5.46105C14.4381 5.52745 14.5164 5.58014 14.6027 5.6161C14.689 5.65206 14.7816 5.67058 14.8751 5.67058C14.9686 5.67058 15.0612 5.65206 15.1475 5.6161C15.2339 5.58014 15.3122 5.52745 15.378 5.46105C15.4444 5.39521 15.4971 5.31686 15.5331 5.23055C15.5691 5.14423 15.5876 5.05165 15.5876 4.95814C15.5876 4.86463 15.5691 4.77205 15.5331 4.68573C15.4971 4.59941 15.4444 4.52107 15.378 4.45522L12.5447 1.62189Z" fill="white"/>
</svg>
