<svg width="17" height="17" viewBox="0 0 17 17" fill="none" xmlns="http://www.w3.org/2000/svg">
<path d="M2.12509 15.5836H4.95843C5.05165 15.5841 5.14406 15.5662 5.23036 15.531C5.31666 15.4957 5.39516 15.4438 5.46134 15.3782L13.9613 6.87816C14.0277 6.81231 14.0804 6.73397 14.1164 6.64765C14.1524 6.56133 14.1709 6.46875 14.1709 6.37524C14.1709 6.28173 14.1524 6.18915 14.1164 6.10283C14.0804 6.01652 14.0277 5.93817 13.9613 5.87233L11.128 3.03899C11.0622 2.9726 10.9838 2.9199 10.8975 2.88394C10.8112 2.84798 10.7186 2.82947 10.6251 2.82947C10.5316 2.82947 10.439 2.84798 10.3527 2.88394C10.2664 2.9199 10.188 2.9726 10.1222 3.03899L1.62218 11.539C1.55653 11.6052 1.50459 11.6837 1.46934 11.77C1.43409 11.8563 1.41622 11.9487 1.41676 12.0419V14.8752C1.41676 15.0631 1.49139 15.2433 1.62423 15.3761C1.75706 15.5089 1.93723 15.5836 2.12509 15.5836ZM2.83343 12.3323L10.6251 4.54066L12.4597 6.37524L4.66801 14.1669H2.83343V12.3323Z" fill="#464255"/>
<path d="M12.5447 1.6219C12.4787 1.55586 12.4003 1.50347 12.314 1.46773C12.2277 1.43199 12.1352 1.41359 12.0418 1.41359C11.8532 1.41359 11.6723 1.48852 11.5389 1.6219C11.4055 1.75529 11.3306 1.93619 11.3306 2.12482C11.3306 2.31345 11.4055 2.49436 11.5389 2.62774L14.3722 5.46107C14.4381 5.52746 14.5164 5.58016 14.6027 5.61612C14.689 5.65208 14.7816 5.67059 14.8751 5.67059C14.9686 5.67059 15.0612 5.65208 15.1475 5.61612C15.2339 5.58016 15.3122 5.52746 15.378 5.46107C15.4444 5.39522 15.4971 5.31688 15.5331 5.23056C15.5691 5.14424 15.5876 5.05166 15.5876 4.95815C15.5876 4.86465 15.5691 4.77206 15.5331 4.68575C15.4971 4.59943 15.4444 4.52109 15.378 4.45524L12.5447 1.6219Z" fill="#464255"/>
</svg>
