<svg width="18" height="18" viewBox="0 0 18 18" fill="none" xmlns="http://www.w3.org/2000/svg">
<path fill-rule="evenodd" clip-rule="evenodd" d="M14.155 0.0635884C14.2564 0.105569 14.3485 0.167102 14.4261 0.244673L17.7539 3.57252C17.8319 3.64986 17.8938 3.74188 17.936 3.84326C17.9783 3.94464 18 4.05339 18 4.16321C18 4.27304 17.9783 4.38178 17.936 4.48317C17.8938 4.58455 17.8319 4.67657 17.7539 4.75391C17.6766 4.83189 17.5846 4.89378 17.4832 4.93602C17.3818 4.97825 17.273 5 17.1632 5C17.0534 5 16.9446 4.97825 16.8433 4.93602C16.7419 4.89378 16.6499 4.83189 16.5725 4.75391L13.2447 1.42606C13.088 1.2694 13 1.05692 13 0.835366C13 0.613813 13.088 0.401335 13.2447 0.244673C13.4013 0.0880115 13.6138 0 13.8354 0C13.9451 0 14.0537 0.0216073 14.155 0.0635884ZM4.44302 18H0.888617C0.652945 18 0.426925 17.9064 0.26028 17.7397C0.0936351 17.5731 1.48524e-05 17.3471 1.48524e-05 17.1114V13.557C-0.000661279 13.44 0.0217537 13.3241 0.0659747 13.2158C0.110196 13.1076 0.175352 13.0091 0.257709 12.9261L10.9209 2.26285C11.0035 2.17956 11.1018 2.11345 11.2101 2.06834C11.3184 2.02323 11.4345 2 11.5518 2C11.6691 2 11.7853 2.02323 11.8936 2.06834C12.0019 2.11345 12.1001 2.17956 12.1827 2.26285L15.7372 5.81725C15.8204 5.89986 15.8865 5.99814 15.9317 6.10643C15.9768 6.21471 16 6.33086 16 6.44816C16 6.56547 15.9768 6.68161 15.9317 6.7899C15.8865 6.89818 15.8204 6.99646 15.7372 7.07907L5.07393 17.7423C4.9909 17.8246 4.89243 17.8898 4.78416 17.934C4.6759 17.9782 4.55997 18.0007 4.44302 18ZM11.5518 4.14668L1.77722 13.9213V16.2228H4.0787L13.8533 6.44816L11.5518 4.14668Z" fill="#58D7FF"/>
</svg>
