<svg width="12" height="12" viewBox="0 0 12 12" fill="none" xmlns="http://www.w3.org/2000/svg">
<g clip-path="url(#clip0)">
<path d="M11.4101 0H8.32817C8.0003 0 7.73801 0.262295 7.73801 0.590164C7.73801 0.918033 8.0003 1.18033 8.32817 1.18033H10.0331L4.78719 6.16393C4.59047 6.36066 4.59047 6.68853 4.78719 6.95082C4.91834 7.08197 5.04948 7.14754 5.18063 7.14754C5.31178 7.14754 5.44293 7.08197 5.57407 7.01639L10.8856 1.96721V3.7377C10.8856 4.06557 11.1478 4.32787 11.4757 4.32787C11.8036 4.32787 12.0659 4.06557 12.0659 3.7377V0.590164C12.0003 0.262295 11.738 0 11.4101 0Z" fill="#3546AB"/>
<path d="M11.4098 5.70492C11.082 5.70492 10.8197 5.96721 10.8197 6.29508V10.0984C10.8197 10.5574 10.4262 10.8852 10.0328 10.8852H1.96721C1.5082 10.8852 1.18033 10.4918 1.18033 10.0984V1.96721C1.18033 1.5082 1.57377 1.18033 1.96721 1.18033H5.77049C6.09836 1.18033 6.36066 0.918033 6.36066 0.590164C6.29508 0.262295 6.03279 0 5.77049 0H1.96721C0.852459 0 0 0.852459 0 1.96721V10.0984C0 11.1475 0.852459 12.0656 1.96721 12.0656H10.0984C11.1475 12.0656 12.0656 11.2131 12.0656 10.0984V6.22951C12 5.96721 11.7377 5.70492 11.4098 5.70492Z" fill="#3546AB"/>
</g>
<defs>
<clipPath id="clip0">
<rect width="12" height="12" fill="white"/>
</clipPath>
</defs>
</svg>
