<?xml version="1.0" encoding="utf-8"?>
<!-- Generator: Adobe Illustrator 22.0.0, SVG Export Plug-In . SVG Version: 6.00 Build 0)  -->
<svg version="1.1" id="Layer_1" xmlns="http://www.w3.org/2000/svg" xmlns:xlink="http://www.w3.org/1999/xlink" x="0px" y="0px"
	 viewBox="0 0 46 46" style="enable-background:new 0 0 46 46;" xml:space="preserve">
<style type="text/css">
	.st0{clip-path:url(#SVGID_2_);}
	.st1{fill:#FB2B76;}
	.st2{fill:#3546AB;}
	.st3{fill:#48EEF9;}
</style>
<g>
	<defs>
		<rect id="SVGID_1_" width="46" height="46"/>
	</defs>
	<clipPath id="SVGID_2_">
		<use xlink:href="#SVGID_1_"  style="overflow:visible;"/>
	</clipPath>
	<g class="st0">
		<path class="st1" d="M13.1,15.8L28.8,0l-6.2,1.7c-6.5,1.8-12,4.9-16.3,9.2l-4.9,4.9c1.6,1.6,3.7,2.4,5.8,2.4
			C9.3,18.2,11.4,17.4,13.1,15.8z"/>
		<path class="st2" d="M10.9,39.8l4.9,4.9c1.6-1.6,2.4-3.7,2.4-5.8c0-2.1-0.8-4.2-2.4-5.8L0,17.2l1.7,6.3
			C3.5,29.9,6.6,35.4,10.9,39.8z"/>
		<path class="st3" d="M38.8,27.8c-2.1,0-4.2,0.8-5.8,2.4L17.2,46l6.3-1.7c6.5-1.8,12-4.9,16.3-9.2l4.9-4.9
			c-0.8-0.8-1.7-1.4-2.7-1.8C40.9,28,39.8,27.8,38.8,27.8z"/>
		<path class="st2" d="M30.2,13.1L46,28.9l-1.7-6.3c-1.8-6.5-4.9-12-9.2-16.3l-4.9-4.9C27,4.6,27,9.9,30.2,13.1z"/>
	</g>
</g>
</svg>
