<svg width="13" height="16" viewBox="0 0 13 16" fill="none" xmlns="http://www.w3.org/2000/svg">
<path d="M7.02812 0.192C6.88095 0.0680755 6.69366 -1.46652e-05 6.5 2.3692e-09H0.8125C0.597012 2.3692e-09 0.390349 0.0842854 0.237976 0.234315C0.0856026 0.384344 0 0.587827 0 0.8V15.2C0 15.4122 0.0856026 15.6157 0.237976 15.7657C0.390349 15.9157 0.597012 16 0.8125 16H12.1875C12.403 16 12.6097 15.9157 12.762 15.7657C12.9144 15.6157 13 15.4122 13 15.2V5.6C13 5.48445 12.9746 5.37027 12.9255 5.26531C12.8764 5.16035 12.8048 5.06711 12.7156 4.992L7.02812 0.192ZM7.3125 2.536L9.99375 4.8H7.3125V2.536ZM11.375 14.4H1.625V1.6H5.6875V5.6C5.6875 5.81217 5.7731 6.01566 5.92548 6.16569C6.07785 6.31571 6.28451 6.4 6.5 6.4H11.375V14.4Z" fill="#464255"/>
</svg>
