<svg width="20" height="17" viewBox="0 0 20 17" fill="none" xmlns="http://www.w3.org/2000/svg">
<g clip-path="url(#clip0)">
<path d="M18.5 0.5H7.89998C7.49998 0.5 7.09998 0.8 7.09998 1.3C7.09998 1.8 7.49998 2 7.89998 2H18.5C18.9 2 19.3 1.7 19.3 1.2C19.3 0.7 18.9 0.5 18.5 0.5Z" fill="#3546AB"/>
<path d="M16.6 4.7998H7.89998C7.49998 4.7998 7.09998 5.0998 7.09998 5.5998C7.09998 6.0998 7.39998 6.3998 7.89998 6.3998H16.6C17 6.3998 17.4 6.0998 17.4 5.5998C17.4 5.0998 17 4.7998 16.6 4.7998Z" fill="#3546AB"/>
<path d="M13.9 9H7.89998C7.49998 9 7.09998 9.3 7.09998 9.8C7.09998 10.3 7.39998 10.6 7.89998 10.6H13.9C14.3 10.6 14.7 10.3 14.7 9.8C14.7 9.3 14.3 9 13.9 9Z" fill="#3546AB"/>
<path d="M11.6 13.0996H7.89998C7.49998 13.0996 7.09998 13.3996 7.09998 13.8996C7.09998 14.3996 7.39998 14.6996 7.89998 14.6996H11.7C12.1 14.6996 12.5 14.3996 12.5 13.8996C12.5 13.3996 12 13.0996 11.6 13.0996Z" fill="#3546AB"/>
<path d="M5 12.7L3.9 13.8V0.8C3.9 0.3 3.6 0 3.2 0C2.8 0 2.4 0.3 2.4 0.8V13.8L1.2 12.7C0.9 12.4 0.4 12.4 0.1 12.7C-0.2 13 -0.2 13.5 0.1 13.8L2.6 16.2C2.7 16.3 2.9 16.4 3.1 16.4C3.3 16.4 3.5 16.3 3.6 16.2L5.9 13.8C6.2 13.5 6.2 13 5.9 12.7C5.8 12.4 5.3 12.4 5 12.7Z" fill="#3546AB"/>
</g>
<defs>
<clipPath id="clip0">
<rect width="19.3" height="16.4" fill="white"/>
</clipPath>
</defs>
</svg>
