<svg width="22" height="22" viewBox="0 0 22 22" fill="none" xmlns="http://www.w3.org/2000/svg">
<path d="M1.8335 9.16658C1.8335 11.1115 2.60611 12.9768 3.98138 14.352C5.35665 15.7273 7.22191 16.4999 9.16683 16.4999C10.7954 16.5019 12.3774 15.9563 13.6585 14.9507L17.6827 18.9841C17.7679 19.07 17.8693 19.1382 17.981 19.1847C18.0927 19.2313 18.2125 19.2552 18.3335 19.2552C18.4545 19.2552 18.5743 19.2313 18.686 19.1847C18.7977 19.1382 18.8991 19.07 18.9843 18.9841C19.0702 18.8989 19.1384 18.7975 19.185 18.6858C19.2315 18.5741 19.2555 18.4543 19.2555 18.3332C19.2555 18.2122 19.2315 18.0924 19.185 17.9807C19.1384 17.869 19.0702 17.7676 18.9843 17.6824L14.951 13.6582C15.9566 12.3772 16.5022 10.7952 16.5002 9.16658C16.5002 7.22166 15.7275 5.3564 14.3523 3.98113C12.977 2.60587 11.1117 1.83325 9.16683 1.83325C7.22191 1.83325 5.35665 2.60587 3.98138 3.98113C2.60611 5.3564 1.8335 7.22166 1.8335 9.16658ZM9.16683 3.66658C10.2546 3.66658 11.318 3.98915 12.2225 4.5935C13.1269 5.19785 13.8319 6.05683 14.2482 7.06182C14.6644 8.06682 14.7734 9.17268 14.5611 10.2396C14.3489 11.3065 13.8251 12.2865 13.0559 13.0557C12.2867 13.8249 11.3067 14.3487 10.2398 14.5609C9.17293 14.7731 8.06706 14.6642 7.06207 14.2479C6.05708 13.8316 5.19809 13.1267 4.59375 12.2222C3.9894 11.3177 3.66683 10.2544 3.66683 9.16658C3.66683 7.70789 4.24629 6.30895 5.27774 5.2775C6.30919 4.24605 7.70814 3.66658 9.16683 3.66658Z" fill="#BABDD9"/>
</svg>
