<svg width="29" height="38" viewBox="0 0 29 38" fill="none" xmlns="http://www.w3.org/2000/svg">
<path d="M29 8.24086V35.1875C29 36.7572 27.7477 37.9999 26.1659 37.9999H2.83409C1.25227 37.9999 0 36.7572 0 35.1875V8.24086C0 6.67115 1.25227 5.42847 2.83409 5.42847H7.51364V8.69869H21.4864V5.42847H26.1659C27.7477 5.42847 29 6.67115 29 8.24086Z" fill="#CCDAED"/>
<path d="M21.4864 5.42857V8.6988H7.51367V2.81239H11.0069C11.3364 1.17728 12.7864 0 14.4341 0C16.1478 0 17.5978 1.17728 17.9273 2.81239H21.4205L21.4864 5.42857Z" fill="#00A389"/>
<path d="M6.52475 25.377C6.26111 25.377 5.99748 25.3116 5.86566 25.1154L3.88839 23.1533C3.49293 22.7609 3.49293 22.1722 3.88839 21.7798C4.28384 21.4528 4.87702 21.4528 5.20657 21.8452L6.45884 23.1533L9.49066 20.2755C9.88611 19.9485 10.4793 19.9485 10.8088 20.3409C11.2043 20.6679 11.2043 21.2566 10.8748 21.5836L10.8088 21.649L7.11793 25.1154C6.98611 25.2462 6.72248 25.377 6.52475 25.377Z" fill="#464255"/>
<path d="M24.452 24.1997H13.577C13.0498 24.1997 12.6543 23.8073 12.6543 23.2841C12.6543 22.7608 13.0498 22.3684 13.577 22.3684H24.452C24.9793 22.3684 25.3748 22.7608 25.3748 23.2841C25.3748 23.8073 24.9793 24.1997 24.452 24.1997Z" fill="#464255"/>
<path d="M24.452 16.6782H13.577C13.0498 16.6782 12.6543 16.2858 12.6543 15.7626C12.6543 15.2394 13.0498 14.8469 13.577 14.8469H24.452C24.9793 14.8469 25.3748 15.2394 25.3748 15.7626C25.4407 16.2204 24.9793 16.6782 24.452 16.6782Z" fill="#464255"/>
<path d="M6.52475 32.8985C6.26111 32.8985 5.99748 32.8331 5.86566 32.6369L3.88839 30.6748C3.49293 30.2823 3.49293 29.6937 3.88839 29.3013C4.28384 28.9743 4.87702 28.9743 5.20657 29.3667L6.45884 30.6748L9.49066 27.797C9.88611 27.47 10.4793 27.47 10.8088 27.8624C11.2043 28.1894 11.2043 28.778 10.8748 29.1051L10.8088 29.1705L7.11793 32.6369C6.98611 32.7677 6.72248 32.8985 6.52475 32.8985Z" fill="#464255"/>
<path d="M24.452 31.7212H13.577C13.0498 31.7212 12.6543 31.3288 12.6543 30.8056C12.6543 30.2823 13.0498 29.8899 13.577 29.8899H24.452C24.9793 29.8899 25.3748 30.2823 25.3748 30.8056C25.4407 31.3288 24.9793 31.7212 24.452 31.7212Z" fill="#464255"/>
<path d="M10.0188 13.0808H4.35059V18.1824H10.0188V13.0808Z" fill="#00A389"/>
</svg>
