<svg width="38" height="38" viewBox="0 0 38 38" fill="none" xmlns="http://www.w3.org/2000/svg">
<path d="M19 38C29.4934 38 38 29.4934 38 19C38 8.50659 29.4934 0 19 0C8.50659 0 0 8.50659 0 19C0 29.4934 8.50659 38 19 38Z" fill="#58D7FF"/>
<path d="M19 36C28.3888 36 36 28.3888 36 19C36 9.61116 28.3888 2 19 2C9.61116 2 2 9.61116 2 19C2 28.3888 9.61116 36 19 36Z" fill="#F4FBFF"/>
<path d="M18.9997 8.76916C18.6586 8.76916 18.415 8.52557 18.415 8.18455V7.35634C18.415 7.01532 18.6586 6.77173 18.9997 6.77173C19.3407 6.77173 19.5843 7.01532 19.5843 7.35634V8.18455C19.5843 8.47686 19.3407 8.76916 18.9997 8.76916Z" fill="#2B4D66"/>
<path d="M26.5998 11.9358C26.4536 11.9358 26.3075 11.887 26.21 11.7896C25.9664 11.546 25.9664 11.205 26.21 10.9614L26.7947 10.3768C27.0382 10.1332 27.3793 10.1332 27.6229 10.3768C27.8664 10.6204 27.8664 10.9614 27.6229 11.205L27.0382 11.7896C26.8921 11.887 26.7459 11.9358 26.5998 11.9358Z" fill="#2B4D66"/>
<path d="M30.5945 19.5845H29.7663C29.4252 19.5845 29.1816 19.3409 29.1816 18.9999C29.1816 18.6589 29.4252 18.4153 29.7663 18.4153H30.5945C30.9355 18.4153 31.1791 18.6589 31.1791 18.9999C31.1791 19.3409 30.9355 19.5845 30.5945 19.5845Z" fill="#2B4D66"/>
<path d="M27.1844 27.7693C27.0382 27.7693 26.8921 27.7205 26.7947 27.6231L26.21 27.0385C25.9664 26.7949 25.9664 26.4539 26.21 26.2103C26.4536 25.9667 26.7947 25.9667 27.0382 26.2103L27.6229 26.7949C27.8664 27.0385 27.8664 27.3795 27.6229 27.6231C27.4767 27.7205 27.3305 27.7693 27.1844 27.7693Z" fill="#2B4D66"/>
<path d="M18.9508 31.1793C18.6098 31.1793 18.3662 30.9357 18.3662 30.5947V29.7665C18.3662 29.4255 18.6098 29.1819 18.9508 29.1819C19.2919 29.1819 19.5354 29.4255 19.5354 29.7665V30.5947C19.4867 30.9357 19.2431 31.1793 18.9508 31.1793Z" fill="#2B4D66"/>
<path d="M10.7179 27.7693C10.5718 27.7693 10.4256 27.7205 10.3282 27.6231C10.0846 27.3795 10.0846 27.0385 10.3282 26.7949L10.9128 26.2103C11.1564 25.9667 11.4974 25.9667 11.741 26.2103C11.9846 26.4539 11.9846 26.7949 11.741 27.0385L11.1564 27.6231C11.0103 27.6718 10.8641 27.7693 10.7179 27.7693Z" fill="#2B4D66"/>
<path d="M8.1843 19.4871H7.3561C7.01507 19.4871 6.77148 19.2435 6.77148 18.9025C6.77148 18.5615 7.01507 18.3179 7.3561 18.3179H8.1843C8.52533 18.3179 8.76892 18.5615 8.76892 18.9025C8.76892 19.2435 8.47661 19.4871 8.1843 19.4871Z" fill="#2B4D66"/>
<path d="M11.3504 11.8872C11.2043 11.8872 11.0581 11.8385 10.9607 11.741L10.3761 11.1564C10.1325 10.9128 10.1325 10.5718 10.3761 10.3282C10.6196 10.0846 10.9607 10.0846 11.2043 10.3282L11.7889 10.9128C12.0325 11.1564 12.0325 11.4974 11.7889 11.741C11.6427 11.8385 11.4966 11.8872 11.3504 11.8872Z" fill="#2B4D66"/>
<path d="M19.0004 19.5845H14.1286C13.7875 19.5845 13.5439 19.3409 13.5439 18.9999C13.5439 18.6588 13.7875 18.4153 14.1286 18.4153H18.4157V11.1076C18.4157 10.7665 18.6593 10.5229 19.0004 10.5229C19.3414 10.5229 19.585 10.7665 19.585 11.1076V18.9999C19.585 19.3409 19.3414 19.5845 19.0004 19.5845Z" fill="#2B4D66"/>
<path d="M24.8945 22.6051C24.7971 22.6051 24.6996 22.6051 24.6509 22.5564L18.756 19.4872C18.4637 19.341 18.3663 19 18.5125 18.7077C18.6586 18.4154 18.9996 18.318 19.2919 18.4641L25.1868 21.4846C25.4791 21.6308 25.5766 21.9718 25.4304 22.2641C25.2843 22.5077 25.0894 22.6051 24.8945 22.6051Z" fill="#58D7FF"/>
<path d="M18.9995 20.5103C19.8336 20.5103 20.5098 19.8341 20.5098 19C20.5098 18.1659 19.8336 17.4897 18.9995 17.4897C18.1654 17.4897 17.4893 18.1659 17.4893 19C17.4893 19.8341 18.1654 20.5103 18.9995 20.5103Z" fill="#365E7D"/>
</svg>
