<svg width="26" height="39" viewBox="0 0 26 39" fill="none" xmlns="http://www.w3.org/2000/svg">
<path d="M18.1667 23.7321C18.1667 24.396 17.625 24.9353 16.9583 24.9353C16.2917 24.9353 15.75 24.396 15.75 23.7321C15.75 23.0683 16.2917 22.529 16.9583 22.529C17.625 22.4875 18.1667 23.0683 18.1667 23.7321Z" fill="#F8EC7D"/>
<path d="M20.8746 3.9002C20.8746 5.43531 19.7496 6.80445 18.2496 7.09488C16.708 7.38531 15.208 6.55552 14.6246 5.10339C14.0413 3.65126 14.583 2.03318 15.9163 1.1619C17.2496 0.332114 18.958 0.539561 20.0413 1.65977C20.5413 2.24062 20.8746 3.07041 20.8746 3.9002Z" fill="#FFBB54"/>
<path d="M25.2917 9.95752V34.7267L13.5 38.2533V13.4841L25.2917 9.95752ZM18.1667 23.732C18.1667 23.0682 17.625 22.5288 16.9583 22.5288C16.2917 22.5288 15.75 23.0682 15.75 23.732C15.75 24.3958 16.2917 24.9352 16.9583 24.9352C17.625 24.9352 18.1667 24.3958 18.1667 23.732Z" fill="white"/>
<path d="M25.999 9.87432V9.83283C25.999 9.83283 25.999 9.83283 25.999 9.79134V9.74985C25.999 9.74985 25.999 9.74985 25.999 9.70837C25.999 9.70837 25.999 9.66688 25.9574 9.66688C25.9574 9.66688 25.9574 9.62539 25.9157 9.62539C25.9157 9.5839 25.874 9.5839 25.874 9.54241L25.8324 9.50092L25.7907 9.45943L25.749 9.41794C25.7074 9.41794 25.7074 9.37645 25.6657 9.37645C25.624 9.37645 25.624 9.37645 25.5824 9.33496C25.5407 9.33496 25.5407 9.33496 25.499 9.33496C25.499 9.33496 25.499 9.33496 25.4574 9.33496H25.4157C25.4157 9.33496 25.4157 9.33496 25.374 9.33496C25.374 9.33496 25.374 9.33496 25.3324 9.33496H9.12402C8.70736 9.33496 8.37402 9.66688 8.37402 10.0818V16.5956C8.37402 17.0105 8.70736 17.3424 9.12402 17.3424C9.54069 17.3424 9.87402 17.0105 9.87402 16.5956V10.7041H20.2907L13.2907 12.7786C12.999 12.8616 12.749 13.152 12.749 13.4839V34.0211H9.87402V28.3786C9.87402 27.9637 9.54069 27.6318 9.12402 27.6318C8.70736 27.6318 8.37402 27.9637 8.37402 28.3786V34.7265C8.37402 35.1413 8.70736 35.4733 9.12402 35.4733H12.749V38.253C12.749 38.502 12.874 38.7094 13.0407 38.8339C13.2074 38.9584 13.4574 38.9999 13.6657 38.9584L25.4574 35.4318C25.749 35.3488 25.999 35.0584 25.999 34.7265V9.9573C25.999 9.9573 25.999 9.91581 25.999 9.87432ZM24.5407 34.2286L14.2074 37.2988V14.0233L24.5407 10.953V34.2286Z" fill="#FFBB54"/>
<path d="M16.9583 25.6402C18.0417 25.6402 18.9167 24.769 18.9167 23.6902C18.9167 22.6115 18.0417 21.7402 16.9583 21.7402C15.875 21.7402 15 22.6115 15 23.6902C15 24.8104 15.875 25.6402 16.9583 25.6402ZM16.9583 23.2339C17.2083 23.2339 17.4583 23.4413 17.4583 23.7317C17.4583 23.9807 17.25 24.2296 16.9583 24.2296C16.7083 24.2296 16.4583 24.0221 16.4583 23.7317C16.5 23.4413 16.7083 23.2339 16.9583 23.2339Z" fill="#FFBB54"/>
<path d="M17.6247 7.75851C19.7913 7.75851 21.5413 6.01596 21.5413 3.85851C21.5413 1.70106 19.7497 0 17.6247 0C15.458 0 13.708 1.74255 13.708 3.9C13.708 4.93723 14.1247 5.93298 14.833 6.6383C15.583 7.34362 16.583 7.75851 17.6247 7.75851ZM17.6247 1.28617C19.0413 1.28617 20.208 2.44787 20.208 3.85851C20.208 5.26915 19.0413 6.43085 17.6247 6.43085C16.208 6.43085 15.0413 5.26915 15.0413 3.85851C15.0413 2.44787 16.1663 1.28617 17.6247 1.28617Z" fill="#FFBB54"/>
<path d="M16.6663 3.56829L17.2913 3.94169V5.39382C17.2913 5.76722 17.583 6.05765 17.958 6.05765C18.333 6.05765 18.6247 5.76722 18.6247 5.39382V3.60978C18.6247 3.40233 18.4997 3.19488 18.333 3.07041L17.333 2.48956C17.0413 2.28212 16.6247 2.3651 16.4163 2.69701C16.2497 2.98744 16.333 3.36084 16.6663 3.56829Z" fill="white"/>
<path d="M2.49967 23.0683H11.208C11.6247 23.0683 11.958 22.7363 11.958 22.3214C11.958 21.9066 11.6247 21.5746 11.208 21.5746H2.49967L4.58301 19.5002C4.87467 19.2097 4.87467 18.7534 4.58301 18.4629C4.29134 18.1725 3.83301 18.1725 3.54134 18.4629L0.249674 21.7406L0.208008 21.7821C0.166341 21.8236 0.124674 21.9066 0.0830078 21.948C0.0830078 21.948 0.0830078 21.948 0.0830078 21.9895V22.031V22.0725V22.114C0.0830078 22.1555 0.0830078 22.1555 0.0830078 22.197V22.2385V22.28V22.3214V22.3629C0.0830078 22.4044 0.0830078 22.4044 0.0830078 22.4459V22.4874C0.0830078 22.4874 0.0830078 22.5289 0.124674 22.5289V22.5704C0.124674 22.6119 0.166341 22.6119 0.166341 22.6534C0.166341 22.6534 0.166341 22.6949 0.208008 22.6949L0.249674 22.7363L3.58301 26.0555C3.87467 26.3459 4.33301 26.3459 4.62467 26.0555C4.91634 25.7651 4.91634 25.3087 4.62467 25.0183L2.49967 23.0683Z" fill="#FFBB54"/>
</svg>
