<?xml version="1.0" encoding="utf-8"?>
<!-- Generator: Adobe Illustrator 22.0.0, SVG Export Plug-In . SVG Version: 6.00 Build 0)  -->
<svg version="1.1" id="Capa_1" xmlns="http://www.w3.org/2000/svg" xmlns:xlink="http://www.w3.org/1999/xlink" x="0px" y="0px"
	 viewBox="0 0 512 512" style="enable-background:new 0 0 512 512;" xml:space="preserve">
<style type="text/css">
	.st0{fill:#565656;}
</style>
<g>
	<path class="st0" d="M15,496h482c8.3,0,15-6.7,15-15s-6.7-15-15-15h-15V31c0-8.3-6.7-15-15-15H361c-8.3,0-15,6.7-15,15v75h-90
		c-8.3,0-15,6.7-15,15v75h-90c-8.3,0-15,6.7-15,15v75H45c-8.3,0-15,6.7-15,15v165H15c-8.3,0-15,6.7-15,15S6.7,496,15,496z M376,46
		h76v420h-76V46z M271,136h75v330h-75V136z M166,226h75v240h-75V226z M60,316h76v150H60V316z"/>
</g>
</svg>
