<?xml version="1.0" encoding="utf-8"?>
<!-- Generator: Adobe Illustrator 22.0.0, SVG Export Plug-In . SVG Version: 6.00 Build 0)  -->
<svg version="1.1" id="Layer_1" xmlns="http://www.w3.org/2000/svg" xmlns:xlink="http://www.w3.org/1999/xlink" x="0px" y="0px"
	 viewBox="0 0 512 512" style="enable-background:new 0 0 512 512;" xml:space="preserve">
<style type="text/css">
	.st0{fill:#565656;}
</style>
<g>
	<path class="st0" d="M507.3,236.6l-199-199c-28.9-28.9-75.8-28.9-104.7,0l-199,199c-6.3,6.3-6.3,16.4,0,22.6
		c6.2,6.3,16.4,6.3,22.6,0L40,246.6V450c0,25.4,20.6,46,46,46h80c5.5,0,10-4.5,10-10V338c0-27.6,22.4-50,50-50h60
		c27.6,0,50,22.4,50,50v148c0,5.5,4.5,10,10,10h80c25.4,0,46-20.6,46-46V246.6l12.7,12.7c3.1,3.1,7.2,4.7,11.3,4.7s8.2-1.6,11.3-4.7
		C513.6,253,513.6,242.9,507.3,236.6L507.3,236.6z"/>
</g>
</svg>
