<svg width="25" height="27" viewBox="0 0 25 27" fill="none" xmlns="http://www.w3.org/2000/svg">
<g clip-path="url(#clip0)">
<path d="M20.1998 6.30005H14.7998C14.2998 6.30005 13.7998 5.90005 13.7998 5.30005C13.7998 4.80005 14.1998 4.30005 14.7998 4.30005H20.1998C20.6998 4.30005 21.1998 4.70005 21.1998 5.30005C21.1998 5.90005 20.6998 6.30005 20.1998 6.30005Z" fill="#3546AB"/>
<path d="M20.1998 10.8H14.7998C14.2998 10.8 13.7998 10.4 13.7998 9.80005C13.7998 9.30005 14.1998 8.80005 14.7998 8.80005H20.1998C20.6998 8.80005 21.1998 9.20005 21.1998 9.80005C21.1998 10.4 20.6998 10.8 20.1998 10.8Z" fill="#3546AB"/>
<path d="M20.1998 15.4H14.7998C14.2998 15.4 13.7998 15 13.7998 14.4C13.7998 13.9 14.1998 13.4 14.7998 13.4H20.1998C20.6998 13.4 21.1998 13.8 21.1998 14.4C21.1998 14.9 20.6998 15.4 20.1998 15.4Z" fill="#3546AB"/>
<path d="M10.7001 9.8C10.3001 9.5 9.7001 9.3 8.8001 9V6.6C9.1001 6.7 9.3001 6.8 9.4001 7.1C9.5001 7.3 9.6001 7.5 9.6001 7.8C9.6001 8 9.8001 8.1 9.9001 8.1H11.0001C11.1001 8.1 11.2001 8.1 11.2001 8C11.3001 7.9 11.3001 7.8 11.3001 7.8C11.3001 7 11.0001 6.3 10.5001 5.8C10.2001 5.3 9.6001 5 8.8001 4.9V4.4C8.8001 4.2 8.6001 4 8.4001 4H7.8001C7.6001 4 7.5001 4.2 7.5001 4.4V4.9C6.7001 5 6.1001 5.3 5.6001 5.8C5.0001 6.4 4.8001 7 4.8001 7.8C4.8001 8.6 5.1001 9.3 5.6001 9.8C6.0001 10.2 6.7001 10.5 7.5001 10.7V13.5C7.1001 13.4 6.8001 13.2 6.7001 12.9C6.6001 12.7 6.5001 12.4 6.5001 11.8C6.5001 11.6 6.3001 11.5 6.2001 11.5H4.9001C4.7001 11.5 4.6001 11.7 4.6001 11.8C4.6001 12.6 4.7001 13.2 5.0001 13.7C5.5001 14.5 6.3001 15 7.5001 15.2V16C7.5001 16.2 7.7001 16.3 7.8001 16.3H8.4001C8.6001 16.3 8.7001 16.1 8.7001 16V15.2C9.4001 15.1 9.9001 14.9 10.3001 14.7C11.1001 14.2 11.6001 13.2 11.6001 12C11.7001 11 11.3001 10.3 10.7001 9.8ZM6.6001 7.7C6.6001 7.4 6.7001 7.2 6.9001 6.9C7.0001 6.7 7.2001 6.6 7.5001 6.6V8.8C7.3001 8.7 7.1001 8.6 6.9001 8.4C6.7001 8.3 6.6001 8 6.6001 7.7ZM8.8001 11C9.1001 11.1 9.3001 11.2 9.4001 11.3C9.7001 11.5 9.8001 11.8 9.8001 12.2C9.8001 12.5 9.7001 12.7 9.6001 12.9C9.4001 13.2 9.1001 13.4 8.7001 13.5L8.8001 11Z" fill="#3546AB"/>
<path d="M24 0H1C0.4 0 0 0.4 0 1V24.1C0 25 0.5 25.8 1.4 26.1C2.2 26.4 3.2 26.3 3.8 25.6C4.1 25.3 4.4 25.2 4.8 25.2C5.2 25.2 5.6 25.4 5.8 25.6C6.7 26.5 7.8 26.9 8.9 26.9C10 26.9 11.1 26.5 12 25.6C12.4 25.2 12.4 24.6 12 24.2C11.6 23.8 11 23.8 10.6 24.2C9.7 25.1 8.1 25.1 7.2 24.2C5.9 22.9 3.7 22.9 2.4 24.2C2.3 24.3 2.2 24.3 2.2 24.2C2 24.3 2 24.2 2 24.1V13H1.9V13.8H2V2H23V7.8V9.8V24.2C23 24.3 23 24.4 22.9 24.4C22.8 24.4 22.7 24.4 22.7 24.4C21.4 23.1 19.2 23.1 17.9 24.4L17 25C16.6 25.4 16.6 26 17 26.4C17.4 26.8 18 26.8 18.4 26.4L19.2 25.6C19.5 25.3 19.8 25.2 20.2 25.2C20.6 25.2 21 25.4 21.2 25.6C21.8 26.2 22.8 26.4 23.6 26.1C24.4 25.8 25 25 25 24.1V1C25 0.4 24.6 0 24 0Z" fill="#3546AB"/>
</g>
<defs>
<clipPath id="clip0">
<rect width="25" height="26.9" fill="white"/>
</clipPath>
</defs>
</svg>
