<svg width="25" height="25" viewBox="0 0 25 25" fill="none" xmlns="http://www.w3.org/2000/svg">
<path d="M12.5 0C5.5921 0 0 5.5921 0 12.5C0 19.4079 5.5921 25 12.5 25C19.4079 25 25 19.4079 25 12.5C25 5.5921 19.4079 0 12.5 0ZM12.5 22.807C6.79825 22.807 2.19298 18.2018 2.19298 12.5C2.19298 6.79825 6.79825 2.19298 12.5 2.19298C18.2018 2.19298 22.807 6.79825 22.807 12.5C22.807 18.2018 18.2018 22.807 12.5 22.807Z" fill="#6583FE"/>
<path d="M14.9123 13.3772L14.0351 12.5L14.9123 11.6228L16.6667 9.86843C17.1053 9.42983 17.1053 8.77194 16.6667 8.33334C16.4474 8.11404 16.2281 8.00439 15.8991 8.00439C15.5702 8.00439 15.3509 8.11404 15.1316 8.33334L13.2676 10.1974L12.5 10.9649L11.6228 10.0877L9.86843 8.33334C9.64913 8.11404 9.32018 8.00439 9.10089 8.00439C8.88159 8.00439 8.55264 8.11404 8.33334 8.33334C7.89475 8.77194 7.89475 9.42983 8.33334 9.86843L10.1974 11.7325L11.0746 12.6097L10.1974 13.4869L8.33334 15.3509C7.89475 15.7895 7.89475 16.4474 8.33334 16.886C8.55264 17.1053 8.77194 17.2149 9.10089 17.2149C9.42983 17.2149 9.64913 17.1053 9.86843 16.886L11.7325 15.0219L12.6097 14.1447L13.4869 15.0219L15.3509 16.886C15.5702 17.1053 15.7895 17.2149 16.1184 17.2149C16.4474 17.2149 16.6667 17.1053 16.886 16.886C17.3246 16.4474 17.3246 15.7895 16.886 15.3509L14.9123 13.3772Z" fill="#6583FE"/>
</svg>
