<svg width="25" height="25" viewBox="0 0 25 25" fill="none" xmlns="http://www.w3.org/2000/svg">
<path d="M12.5 0C5.5921 0 0 5.5921 0 12.5C0 19.4079 5.5921 25 12.5 25C19.4079 25 25 19.4079 25 12.5C25 5.5921 19.4079 0 12.5 0ZM12.5 22.807C6.79825 22.807 2.19298 18.2018 2.19298 12.5C2.19298 6.79825 6.79825 2.19298 12.5 2.19298C18.2018 2.19298 22.807 6.79825 22.807 12.5C22.807 18.2018 18.2018 22.807 12.5 22.807Z" fill="#FFBB54"/>
<path d="M14.9118 13.3772L14.0346 12.5L14.9118 11.6228L16.6662 9.86843C17.1048 9.42983 17.1048 8.77194 16.6662 8.33334C16.4469 8.11404 16.2276 8.00439 15.8986 8.00439C15.5697 8.00439 15.3504 8.11404 15.1311 8.33334L13.2671 10.1974L12.4995 10.9649L11.6223 10.0877L9.86794 8.33334C9.64864 8.11404 9.3197 8.00439 9.1004 8.00439C8.8811 8.00439 8.55215 8.11404 8.33285 8.33334C7.89426 8.77194 7.89426 9.42983 8.33285 9.86843L10.1969 11.7325L11.0741 12.6097L10.1969 13.4869L8.33285 15.3509C7.89426 15.7895 7.89426 16.4474 8.33285 16.886C8.55215 17.1053 8.77145 17.2149 9.1004 17.2149C9.42935 17.2149 9.64864 17.1053 9.86794 16.886L11.732 15.0219L12.6092 14.1447L13.4864 15.0219L15.3504 16.886C15.5697 17.1053 15.789 17.2149 16.1179 17.2149C16.4469 17.2149 16.6662 17.1053 16.8855 16.886C17.3241 16.4474 17.3241 15.7895 16.8855 15.3509L14.9118 13.3772Z" fill="#FFBB54"/>
</svg>
