<svg width="14" height="14" viewBox="0 0 14 14" fill="none" xmlns="http://www.w3.org/2000/svg">
<g clip-path="url(#clip0)">
<path d="M13.3115 0H9.71588C9.33336 0 9.02735 0.306011 9.02735 0.688525C9.02735 1.07104 9.33336 1.37705 9.71588 1.37705H11.7049L5.58473 7.19126C5.35522 7.42077 5.35522 7.80328 5.58473 8.10929C5.73773 8.2623 5.89074 8.3388 6.04375 8.3388C6.19675 8.3388 6.34976 8.2623 6.50276 8.18579L12.6995 2.29508V4.36066C12.6995 4.74317 13.0055 5.04918 13.388 5.04918C13.7705 5.04918 14.0765 4.74317 14.0765 4.36066V0.688525C14 0.306011 13.694 0 13.3115 0Z" fill="white"/>
<path d="M13.3115 6.65574C12.929 6.65574 12.623 6.96175 12.623 7.34426V11.7814C12.623 12.3169 12.1639 12.6995 11.7049 12.6995H2.29508C1.75956 12.6995 1.37705 12.2404 1.37705 11.7814V2.29508C1.37705 1.75956 1.83607 1.37705 2.29508 1.37705H6.73224C7.11476 1.37705 7.42077 1.07104 7.42077 0.688525C7.34426 0.306011 7.03825 0 6.73224 0H2.29508C0.994536 0 0 0.994536 0 2.29508V11.7814C0 13.0055 0.994536 14.0765 2.29508 14.0765H11.7814C13.0055 14.0765 14.0765 13.082 14.0765 11.7814V7.26776C14 6.96175 13.694 6.65574 13.3115 6.65574Z" fill="white"/>
</g>
<defs>
<clipPath id="clip0">
<rect width="14" height="14" fill="white"/>
</clipPath>
</defs>
</svg>
