<svg width="25" height="25" viewBox="0 0 25 25" fill="none" xmlns="http://www.w3.org/2000/svg">
<path d="M24 3.8H19.2V2.6C19.2 2.3 19.1 2.1 18.9 1.9C16.4 -0.6 12.3 -0.6 9.8 1.9C9.7 2.1 9.6 2.3 9.6 2.6V3.9H5.8V1C5.8 0.5 5.4 0 4.8 0C2.2 0 0 2.2 0 4.8V20.2C0 22.8 2.2 25 4.8 25H24C24.5 25 25 24.6 25 24V4.8C25 4.3 24.6 3.8 24 3.8ZM11.6 3C13.3 1.6 15.7 1.6 17.3 3V14.5C15.5 13.6 13.4 13.6 11.6 14.5V3ZM16.8 16.4L14.4 18.8L12 16.4C13.5 15.5 15.4 15.5 16.8 16.4ZM2 4.8C2 3.6 2.8 2.5 3.9 2.1V15.4C3.2 15.5 2.6 15.8 2 16.2V4.8ZM23 23H4.8C3.2 23 2 21.8 2 20.2C2 18.6 3.3 17.3 4.9 17.3C5.4 17.3 5.9 16.9 5.9 16.3V5.8H9.7C9.7 16.9 9.6 16.6 10 17L13.8 20.8C14.2 21.2 14.8 21.2 15.2 20.8C19.3 16.7 19.1 16.9 19.2 16.8C19.5 16.4 19.3 16.6 19.4 5.7H23V23Z" fill="#FC6098"/>
</svg>
