<svg width="25" height="25" viewBox="0 0 25 25" fill="none" xmlns="http://www.w3.org/2000/svg">
<path d="M18.5 8.29995C18.2 7.99995 17.6 7.99995 17.3 8.29995L10.8 14.8L7.9 11.9C7.5 11.6 7 11.6 6.6 11.9C6.3 12.2 6.3 12.8 6.6 13.1L10.2 16.7C10.5 17 11.1 17 11.5 16.7L18.6 9.59995C18.8 9.19995 18.8 8.59995 18.5 8.29995Z" fill="#48EEF9" stroke="#48EEF9" stroke-width="0.4" stroke-miterlimit="10"/>
<path d="M24.9 11.2C24.9 11 24.8 10.8 24.8 10.6C24.8 10.4 24.7 10.1 24.7 9.9C24.7 9.7 24.6 9.4 24.5 9.2C24.4 9 24.4 8.8 24.3 8.6C24.2 8.4 24.1 8.1 24 7.9C23.9 7.7 23.9 7.5 23.8 7.4C23.7 7.3 23.7 7.2 23.7 7.1C23.7 7.1 23.7 7 23.6 7C22.8 5.4 21.6 3.9 20.2 2.8C20.2 2.8 20.2 2.8 20.2 2.7C19.4 2 18.5 1.5 17.4 1C17.3 0.9 17.2 0.9 17 0.9C16.8 0.8 16.5 0.7 16.3 0.6C16.1 0.5 16 0.5 15.8 0.5C15.6 0.4 15.4 0.4 15.2 0.3C15 0.3 14.9 0.2 14.7 0.2C14.5 0.2 14.2 0.1 14 0.1C13.9 0.1 13.7 0.1 13.6 0C13.3 0 12.9 0 12.5 0C12.1 0 11.7 0 11.3 0.1C11.2 0.1 11 0.1 10.9 0.2C10.7 0.2 10.4 0.3 10.2 0.3C10 0.3 9.9 0.4 9.7 0.4C9.5 0.4 9.3 0.5 9.1 0.6C8.9 0.6 8.8 0.7 8.6 0.7C8.4 0.7 8.1 0.8 7.9 0.9C7.8 0.9 7.7 1 7.6 1C6.6 1.4 5.6 2 4.8 2.7C4.8 2.7 4.8 2.7 4.8 2.8C3.3 3.9 2.1 5.3 1.3 7C1.3 7 1.3 7.1 1.2 7.1C1.2 7.2 1.1 7.3 1.1 7.4C1 7.6 0.9 7.8 0.9 7.9C0.8 8.2 0.7 8.4 0.6 8.6C0.6 8.8 0.5 9 0.5 9.2C0.4 9.4 0.3 9.6 0.3 9.9C0.3 10.1 0.2 10.4 0.2 10.6C0.2 10.8 0.1 11 0.1 11.2C0 11.6 0 12 0 12.5C0 19.4 5.6 25 12.5 25C19.4 25 25 19.4 25 12.5C25 12 25 11.6 24.9 11.2ZM12.5 22.9C6.8 22.9 2.1 18.2 2.1 12.5C2.1 12.1 2.1 11.8 2.2 11.4C2.2 11.2 2.3 11 2.3 10.9C2.3 10.7 2.4 10.5 2.4 10.4C2.4 10.2 2.5 10 2.6 9.8C2.6 9.7 2.7 9.5 2.7 9.4C2.8 9.2 2.8 9 2.9 8.8C2.9 8.5 2.9 8.4 3 8.3C4.2 5.6 6.5 3.5 9.4 2.6C9.4 2.6 9.4 2.6 9.5 2.6C9.8 2.5 10.1 2.4 10.4 2.4C10.5 2.4 10.5 2.4 10.6 2.4C10.9 2.3 11.1 2.3 11.4 2.3C11.5 2.3 11.5 2.3 11.6 2.3C11.9 2.3 12.3 2.2 12.6 2.2C12.9 2.2 13.3 2.2 13.6 2.3C13.7 2.3 13.7 2.3 13.8 2.3C14.1 2.3 14.3 2.4 14.6 2.4C14.7 2.4 14.7 2.4 14.8 2.4C15.1 2.5 15.4 2.5 15.7 2.6C15.7 2.6 15.7 2.6 15.8 2.6C18.7 3.5 21 5.6 22.2 8.3C22.3 8.4 22.3 8.6 22.4 8.7C22.5 8.9 22.6 9.1 22.6 9.3C22.6 9.4 22.7 9.6 22.7 9.7C22.8 9.9 22.8 10.1 22.9 10.3C22.9 10.5 23 10.7 23 10.8C23 11 23.1 11.1 23.1 11.3C23.1 11.7 23.2 12 23.2 12.4C22.9 18.2 18.2 22.9 12.5 22.9Z" fill="#48EEF9"/>
</svg>
