<svg width="26" height="26" viewBox="0 0 26 26" fill="none" xmlns="http://www.w3.org/2000/svg">
<g clip-path="url(#clip0)">
<path d="M22.5 2.7H20V1.1C20 0.5 19.6 0 19 0C18.4 0 17.9 0.5 17.9 1.1V2.7H7.5V1.1C7.5 0.5 7.1 0 6.5 0C5.9 0 5.4 0.5 5.4 1.1V2.7H2.9C1.3 2.7 0 4 0 5.6V22.6C0 24.2 1.3 25.5 2.9 25.5H22.5C24.1 25.5 25.4 24.2 25.4 22.6V5.6C25.4 4 24.1 2.7 22.5 2.7ZM2.2 5.6C2.2 5.2 2.5 4.9 2.9 4.9H5.4V6.5C5.4 7.1 5.9 7.6 6.5 7.6C7.1 7.6 7.6 7.1 7.6 6.5V4.9H17.9V6.5C17.9 7.1 18.4 7.6 19 7.6C19.6 7.6 20 7.1 20 6.5V4.9H22.5C22.9 4.9 23.2 5.2 23.2 5.6V9H2.2V5.6ZM23.2 11.1V22.5C23.2 22.9 22.9 23.2 22.5 23.2H2.9C2.5 23.2 2.2 22.9 2.2 22.5V11.1H23.2Z" fill="#00A389"/>
</g>
<defs>
<clipPath id="clip0">
<rect width="25.4" height="25.4" fill="white"/>
</clipPath>
</defs>
</svg>
