<svg width="25" height="18" viewBox="0 0 25 18" fill="none" xmlns="http://www.w3.org/2000/svg">
<g clip-path="url(#clip0)">
<path d="M24.3999 7.90005C24.3999 7.90005 9.1999 1.40005 5.9999 0.100048C5.3999 -0.199952 4.6999 0.300048 4.6999 1.00005V4.60005L0.399902 8.00005C-0.100098 8.40005 -0.100098 9.10005 0.399902 9.50005L4.6999 13V16.6C4.6999 17.3 5.3999 17.8 6.0999 17.5L24.4999 9.70005C25.1999 9.40005 25.1999 8.20005 24.3999 7.90005ZM4.6999 10.5L2.5999 8.80005L4.6999 7.10005V10.5ZM6.5999 15.1C6.5999 14.6 6.5999 10.2 6.5999 9.70005H19.1999L6.5999 15.1ZM6.5999 7.80005C6.5999 7.30005 6.5999 3.00005 6.5999 2.40005L19.1999 7.80005H6.5999Z" fill="#00A389"/>
</g>
<defs>
<clipPath id="clip0">
<rect width="25" height="17.6" fill="white"/>
</clipPath>
</defs>
</svg>
