<svg width="25" height="25" viewBox="0 0 25 25" fill="none" xmlns="http://www.w3.org/2000/svg">
<path d="M19.4893 3.42732C19.3921 3.33019 19.2768 3.25315 19.1499 3.20059C19.023 3.14803 18.887 3.12097 18.7497 3.12097C18.4723 3.12097 18.2062 3.23117 18.0101 3.42732C17.8139 3.62347 17.7037 3.8895 17.7037 4.1669C17.7037 4.4443 17.8139 4.71033 18.0101 4.90648L19.3643 6.25023H3.12467C2.84841 6.25023 2.58346 6.35998 2.3881 6.55533C2.19275 6.75068 2.08301 7.01563 2.08301 7.2919C2.08301 7.56817 2.19275 7.83312 2.3881 8.02847C2.58346 8.22382 2.84841 8.33357 3.12467 8.33357H19.3643L18.0101 9.67732C17.9125 9.77415 17.835 9.88936 17.7821 10.0163C17.7292 10.1432 17.702 10.2794 17.702 10.4169C17.702 10.5544 17.7292 10.6906 17.7821 10.8175C17.835 10.9444 17.9125 11.0596 18.0101 11.1565C18.1069 11.2541 18.2221 11.3316 18.3491 11.3845C18.476 11.4374 18.6122 11.4646 18.7497 11.4646C18.8872 11.4646 19.0233 11.4374 19.1503 11.3845C19.2772 11.3316 19.3924 11.2541 19.4893 11.1565L22.6143 8.03148C22.7119 7.93465 22.7894 7.81944 22.8423 7.6925C22.8952 7.56557 22.9224 7.42941 22.9224 7.2919C22.9224 7.15439 22.8952 7.01824 22.8423 6.8913C22.7894 6.76436 22.7119 6.64915 22.6143 6.55232L19.4893 3.42732Z" fill="#3546AB"/>
<path d="M21.8749 16.6666H5.63527L6.98944 15.3229C7.18559 15.1267 7.29578 14.8607 7.29578 14.5833C7.29578 14.3059 7.18559 14.0398 6.98944 13.8437C6.79329 13.6475 6.52725 13.5374 6.24986 13.5374C5.97246 13.5374 5.70642 13.6475 5.51027 13.8437L2.38527 16.9687C2.28764 17.0655 2.21014 17.1807 2.15726 17.3077C2.10438 17.4346 2.07715 17.5708 2.07715 17.7083C2.07715 17.8458 2.10438 17.9819 2.15726 18.1089C2.21014 18.2358 2.28764 18.351 2.38527 18.4479L5.51027 21.5729C5.60711 21.6705 5.72232 21.748 5.84925 21.8009C5.97619 21.8538 6.11234 21.881 6.24986 21.881C6.38737 21.881 6.52352 21.8538 6.65046 21.8009C6.77739 21.748 6.8926 21.6705 6.98944 21.5729C7.08707 21.476 7.16457 21.3608 7.21745 21.2339C7.27033 21.107 7.29756 20.9708 7.29756 20.8333C7.29756 20.6958 7.27033 20.5596 7.21745 20.4327C7.16457 20.3057 7.08707 20.1905 6.98944 20.0937L5.63527 18.75H21.8749C22.1511 18.75 22.4161 18.6402 22.6114 18.4449C22.8068 18.2495 22.9165 17.9846 22.9165 17.7083C22.9165 17.432 22.8068 17.1671 22.6114 16.9717C22.4161 16.7764 22.1511 16.6666 21.8749 16.6666Z" fill="#3546AB"/>
</svg>
