<svg width="26" height="26" viewBox="0 0 26 26" fill="none" xmlns="http://www.w3.org/2000/svg">
<path d="M22.5638 10.7438L13.9145 19.3921C12.9596 20.3809 11.6602 20.9635 10.2867 21.0185C8.91314 21.0736 7.57127 20.597 6.54024 19.6878C6.03679 19.2138 5.63368 18.6435 5.35484 18.0107C5.076 17.3779 4.92711 16.6956 4.917 16.0041C4.9069 15.3127 5.03578 14.6263 5.29602 13.9856C5.55625 13.345 5.94252 12.7631 6.43191 12.2746L13.7986 4.90792C14.3794 4.34399 15.1588 4.03121 15.9683 4.03718C16.7778 4.04315 17.5525 4.36739 18.1249 4.93982C18.6974 5.51226 19.0216 6.28693 19.0276 7.09645C19.0335 7.90598 18.7208 8.68535 18.1568 9.26617L10.7902 16.6328C10.6001 16.8133 10.3481 16.9139 10.086 16.9139C9.82393 16.9139 9.57187 16.8133 9.38183 16.6328C9.19658 16.4453 9.09271 16.1923 9.09271 15.9287C9.09271 15.6651 9.19658 15.4121 9.38183 15.2245L15.2719 9.33442C15.4753 9.12985 15.5892 8.85285 15.5883 8.56435C15.5875 8.27586 15.4721 7.9995 15.2676 7.79608C15.063 7.59266 14.786 7.47884 14.4975 7.47965C14.209 7.48046 13.9327 7.59585 13.7292 7.80042L7.83916 13.6883C7.24662 14.2827 6.91388 15.0878 6.91388 15.927C6.91388 16.7663 7.24662 17.5714 7.83916 18.1657C8.44214 18.7414 9.24371 19.0625 10.0773 19.0625C10.9109 19.0625 11.7125 18.7414 12.3155 18.1657L19.6822 10.7991C20.1775 10.3133 20.5717 9.73412 20.8419 9.09504C21.112 8.45596 21.2527 7.76967 21.256 7.07585C21.2592 6.38203 21.1248 5.69445 20.8606 5.05289C20.5964 4.41133 20.2077 3.82852 19.7168 3.33816C19.2259 2.8478 18.6427 2.45963 18.0009 2.19609C17.3591 1.93256 16.6714 1.79889 15.9775 1.80282C15.2837 1.80675 14.5976 1.9482 13.9588 2.21899C13.32 2.48978 12.7412 2.88453 12.2559 3.38042L4.88924 10.7471C4.19503 11.441 3.64727 12.2672 3.27846 13.1768C2.90966 14.0864 2.72732 15.0608 2.74228 16.0422C2.75723 17.0236 2.96917 17.992 3.36552 18.89C3.76186 19.7879 4.33455 20.5971 5.04958 21.2695C6.39133 22.5165 8.1601 23.2016 9.99174 23.1837C12.0378 23.1832 13.9998 22.3699 15.4463 20.9228L24.0957 12.2735C24.1991 12.1736 24.2817 12.054 24.3384 11.9219C24.3952 11.7897 24.4251 11.6475 24.4263 11.5037C24.4276 11.3598 24.4002 11.2172 24.3457 11.084C24.2912 10.9509 24.2108 10.83 24.1091 10.7282C24.0074 10.6265 23.8864 10.5461 23.7533 10.4916C23.6201 10.4371 23.4775 10.4097 23.3336 10.411C23.1898 10.4122 23.0476 10.4421 22.9155 10.4989C22.7833 10.5557 22.6638 10.6382 22.5638 10.7417V10.7438Z" fill="#959AC5"/>
</svg>
