<svg width="25" height="25" viewBox="0 0 25 25" fill="none" xmlns="http://www.w3.org/2000/svg">
<path d="M22.4 6.6C21.9 6.9 21.7 7.5 21.9 8C22.6 9.4 22.9 10.9 22.9 12.5C22.9 18.2 18.2 22.9 12.5 22.9C6.8 22.9 2.1 18.2 2.1 12.5C2.1 6.8 6.8 2.1 12.5 2.1C14.9 2.1 17.1 2.9 19 4.3C19.4 4.7 20.1 4.6 20.5 4.1C20.9 3.6 20.8 3 20.3 2.6C18.1 1 15.3 0 12.5 0C5.6 0 0 5.6 0 12.5C0 19.4 5.6 25 12.5 25C19.4 25 25 19.4 25 12.5C25 10.6 24.6 8.8 23.8 7.1C23.5 6.5 22.9 6.3 22.4 6.6Z" fill="#3546AB"/>
<path d="M12.5 4.19995C11.9 4.19995 11.5 4.69995 11.5 5.19995V12.5C11.5 13.1 12 13.5 12.5 13.5H17.7C18.3 13.5 18.7 13 18.7 12.5C18.7 12 18.2 11.5 17.7 11.5H13.5V5.19995C13.5 4.59995 13.1 4.19995 12.5 4.19995Z" fill="#3546AB"/>
</svg>
