<?xml version="1.0" encoding="utf-8"?>
<!-- Generator: Adobe Illustrator 22.0.0, SVG Export Plug-In . SVG Version: 6.00 Build 0)  -->
<svg version="1.1" id="Capa_1" xmlns="http://www.w3.org/2000/svg" xmlns:xlink="http://www.w3.org/1999/xlink" x="0px" y="0px"
	 viewBox="0 0 423.1 423.1" style="enable-background:new 0 0 423.1 423.1;" xml:space="preserve">
<style type="text/css">
	.st0{fill:#464255;}
</style>
<g>
	<g>
		<path class="st0" d="M362,10.9c-6.4-3-14-1.8-19.3,2.9L315,38.4c-0.8,0.7-1.9,0.7-2.6,0L274.6,4.6c-6.8-6.1-17.2-6.1-24,0
			l-37.7,33.7c-0.8,0.7-1.9,0.7-2.7,0L172.5,4.6c-6.8-6.1-17.2-6.1-24,0l-37.8,33.8c-0.8,0.7-1.9,0.7-2.7,0L80.3,13.8
			C72.9,7.2,61.6,7.9,55,15.3c-2.9,3.3-4.5,7.6-4.5,12v368.5c-0.1,9.9,7.9,17.9,17.8,18c4.4,0,8.7-1.6,12-4.5l27.8-24.6
			c0.8-0.7,1.9-0.7,2.6,0l37.8,33.8c6.8,6.1,17.2,6.1,24,0l37.7-33.7c0.8-0.7,1.9-0.7,2.7,0l37.7,33.7c6.8,6.1,17.2,6.1,24,0
			l37.8-33.8c0.8-0.7,1.9-0.7,2.7,0l27.8,24.6c7.4,6.6,18.7,5.9,25.2-1.5c2.9-3.3,4.5-7.6,4.5-12V27.3
			C372.6,20.2,368.5,13.7,362,10.9z M116.7,143.5h99.6c4.4,0,8,3.6,8,8s-3.6,8-8,8h-99.6c-4.4,0-8-3.6-8-8S112.3,143.5,116.7,143.5z
			 M306.3,279.5H116.7c-4.4,0-8-3.6-8-8s3.6-8,8-8h189.6c4.4,0,8,3.6,8,8S310.7,279.5,306.3,279.5z M306.3,219.5H116.7
			c-4.4,0-8-3.6-8-8s3.6-8,8-8h189.6c4.4,0,8,3.6,8,8S310.7,219.5,306.3,219.5z"/>
	</g>
</g>
</svg>
