<svg id="Layer_1" data-name="Layer 1" xmlns="http://www.w3.org/2000/svg" viewBox="0 0 200 200"><defs><style>.cls-1{fill:#a6a6ac;}</style></defs><title>1</title><path class="cls-1" d="M77.08,0H14.58A14.6,14.6,0,0,0,0,14.58v37.5A14.6,14.6,0,0,0,14.58,66.67h62.5A14.6,14.6,0,0,0,91.67,52.08V14.58A14.6,14.6,0,0,0,77.08,0Zm0,83.33H14.58A14.6,14.6,0,0,0,0,97.92v87.5A14.6,14.6,0,0,0,14.58,200h62.5a14.6,14.6,0,0,0,14.59-14.58V97.92A14.6,14.6,0,0,0,77.08,83.33Zm108.34,50h-62.5a14.6,14.6,0,0,0-14.59,14.59v37.5A14.6,14.6,0,0,0,122.92,200h62.5A14.6,14.6,0,0,0,200,185.42v-37.5A14.6,14.6,0,0,0,185.42,133.33ZM185.42,0h-62.5a14.6,14.6,0,0,0-14.59,14.58v87.5a14.61,14.61,0,0,0,14.59,14.59h62.5A14.6,14.6,0,0,0,200,102.08V14.58A14.6,14.6,0,0,0,185.42,0Z"/></svg>