<?xml version="1.0" encoding="utf-8"?>
<!-- Generator: Adobe Illustrator 22.0.0, SVG Export Plug-In . SVG Version: 6.00 Build 0)  -->
<svg version="1.1" id="bold" xmlns="http://www.w3.org/2000/svg" xmlns:xlink="http://www.w3.org/1999/xlink" x="0px" y="0px"
	 viewBox="0 0 512 512" style="enable-background:new 0 0 512 512;" xml:space="preserve">
<style type="text/css">
	.st0{fill:#BABDD9;}
</style>
<path class="st0" d="M453.3,0h-224c-32.4,0-58.7,26.3-58.7,58.7v51.9c6.9-2.4,14-3.9,21.3-3.9c17.1,0,33.2,6.7,45.2,18.8l85.3,85.3
	c12.1,12.1,18.8,28.2,18.8,45.2s-6.7,33.2-18.8,45.2l-85.3,85.3c-12.1,12.1-28.2,18.8-45.2,18.8c-7.3,0-14.5-1.5-21.3-3.9v51.9
	c0,32.4,26.3,58.7,58.7,58.7h224c32.4,0,58.7-26.3,58.7-58.7V58.7C512,26.3,485.7,0,453.3,0z"/>
<path class="st0" d="M183.8,361c-8-3.3-13.2-11.1-13.2-19.7v-64H21.3C9.6,277.3,0,267.8,0,256s9.6-21.3,21.3-21.3h149.3v-64
	c0-8.6,5.2-16.4,13.2-19.7c8-3.3,17.2-1.5,23.3,4.6l85.3,85.3c8.3,8.3,8.3,21.8,0,30.2l-85.3,85.3C201,362.5,191.8,364.4,183.8,361z
	"/>
</svg>
