<?xml version="1.0" encoding="utf-8"?>
<!-- Generator: Adobe Illustrator 22.0.0, SVG Export Plug-In . SVG Version: 6.00 Build 0)  -->
<svg version="1.1" id="Layer_1" xmlns="http://www.w3.org/2000/svg" xmlns:xlink="http://www.w3.org/1999/xlink" x="0px" y="0px"
	 viewBox="0 0 330 330" style="enable-background:new 0 0 330 330;" xml:space="preserve">
<style type="text/css">
	.st0{fill:#BABDD9;}
</style>
<path class="st0" d="M158,181l-0.1-166c0-6,4.9-11,11-11h0c6,0,11,4.9,11,11l0.1,166c0,6-4.9,11-11,11h0C163,192,158,187.1,158,181z
	"/>
<path id="XMLID_5_" class="st0" d="M291.7,203.2c0-40.9-20.4-79-54.4-101.9c-6.9-4.6-16.2-2.8-20.8,4.1c-4.6,6.9-2.8,16.2,4.1,20.8
	c25.7,17.3,41.1,46,41.1,77c0,51.1-41.5,92.7-92.7,92.8s-92.7-41.5-92.8-92.7c0-30.8,15.3-59.6,40.8-76.9c6.9-4.6,8.7-14,4-20.8
	c-4.6-6.9-14-8.7-20.8-4c-33.9,22.9-54.1,60.9-54,101.8C46.4,271,101.4,326,169.1,326C236.7,326,291.8,270.9,291.7,203.2z"/>
</svg>
