<?xml version="1.0" encoding="utf-8"?>
<!-- Generator: Adobe Illustrator 22.0.0, SVG Export Plug-In . SVG Version: 6.00 Build 0)  -->
<svg version="1.1" id="Layer_1" xmlns="http://www.w3.org/2000/svg" xmlns:xlink="http://www.w3.org/1999/xlink" x="0px" y="0px"
	 viewBox="0 0 330 169" style="enable-background:new 0 0 330 169;" xml:space="preserve">
<style type="text/css">
	.st0{fill:#FFFFFF;}
</style>
<path id="XMLID_226_" class="st0" d="M12,39h240c6.6,0,12-6.7,12-15s-5.4-15-12-15H12C5.4,9,0,15.7,0,24S5.4,39,12,39z"/>
<path id="XMLID_227_" class="st0" d="M295,69H14C6.3,69,0,75.7,0,84s6.3,15,14,15h281c7.8,0,14-6.7,14-15S302.7,69,295,69z"/>
<path id="XMLID_228_" class="st0" d="M315,129H15c-8.3,0-15,6.7-15,15s6.7,15,15,15h300c8.3,0,15-6.7,15-15S323.3,129,315,129z"/>
</svg>
