<?xml version="1.0" encoding="utf-8"?>
<!-- Generator: Adobe Illustrator 22.0.0, SVG Export Plug-In . SVG Version: 6.00 Build 0)  -->
<svg version="1.1" id="Layer_1" xmlns="http://www.w3.org/2000/svg" xmlns:xlink="http://www.w3.org/1999/xlink" x="0px" y="0px"
	 viewBox="0 0 14.8 14.9" style="enable-background:new 0 0 14.8 14.9;" xml:space="preserve">
<style type="text/css">
	.st0{fill:#3546AB;}
</style>
<path class="st0" d="M0.8,8.3h5.8v5.8c0,0.2,0.1,0.4,0.2,0.6c0.2,0.2,0.4,0.2,0.6,0.2c0.2,0,0.4-0.1,0.6-0.2
	c0.2-0.2,0.2-0.4,0.2-0.6V8.3H14c0.2,0,0.4-0.1,0.6-0.2c0.2-0.2,0.2-0.4,0.2-0.6c0-0.2-0.1-0.4-0.2-0.6c-0.2-0.2-0.4-0.2-0.6-0.2
	H8.2V0.8c0-0.2-0.1-0.4-0.2-0.6C7.8,0,7.6,0,7.4,0C7.2,0,7,0.1,6.8,0.2c0,0.2-0.1,0.4-0.1,0.6v5.8H0.8c-0.2,0-0.4,0.1-0.6,0.2
	C0.1,7.1,0,7.3,0,7.5s0.1,0.4,0.2,0.6C0.4,8.2,0.6,8.3,0.8,8.3z"/>
</svg>
