<svg width="23" height="23" viewBox="0 0 23 23" fill="none" xmlns="http://www.w3.org/2000/svg">
<g clip-path="url(#clip0)">
<path d="M17.9 7.29995C19.4 7.29995 20.7 6.09995 20.7 4.49995C20.7 2.89995 19.5 1.69995 17.9 1.69995C16.3 1.69995 15.1 2.99995 15.1 4.49995C15.1 5.99995 16.4 7.29995 17.9 7.29995ZM17.2 4.49995C17.2 4.09995 17.5 3.79995 17.9 3.79995C18.3 3.79995 18.6 4.09995 18.6 4.49995C18.6 4.89995 18.3 5.19995 17.9 5.19995C17.5 5.19995 17.2 4.89995 17.2 4.49995Z" fill="#BABDD9"/>
<path d="M11.2 5.6C12.7 5.6 14 4.4 14 2.8C14 1.2 12.7 0 11.2 0C9.70002 0 8.40002 1.2 8.40002 2.8C8.40002 4.4 9.70002 5.6 11.2 5.6ZM10.5 2.8C10.5 2.4 10.8 2.1 11.2 2.1C11.6 2.1 11.9 2.4 11.9 2.8C11.9 3.2 11.6 3.5 11.2 3.5C10.8 3.5 10.5 3.1 10.5 2.8Z" fill="#BABDD9"/>
<path d="M16.2 17.3C15.6 17.3 15.1 17.8 15.1 18.4V21.4C15.1 22 15.6 22.5 16.2 22.5C16.8 22.5 17.3 22 17.3 21.4V18.4C17.2 17.7 16.8 17.3 16.2 17.3Z" fill="#BABDD9"/>
<path d="M16.1 13.9V10C16.1 8.60002 15.5 7.50002 14.5 6.80002C13.7 6.20002 12.5 5.90002 11.2 5.90002C9.79995 6.00002 8.69995 6.30002 7.79995 6.90002C6.79995 7.60002 6.19995 8.70002 6.19995 10.1V13.9C6.19995 15 6.79995 16.1 7.79995 16.7H7.89995C8.19995 16.9 8.39995 17.3 8.39995 17.6V21.3C8.39995 21.9 8.89995 22.4 9.49995 22.4C10.1 22.4 10.6 21.9 10.6 21.3V17.6C10.6 16.5 9.99995 15.4 8.99995 14.8H8.89995C8.59995 14.6 8.39995 14.2 8.39995 13.9V10C8.39995 8.70002 9.39995 8.10002 11.2 8.10002C13 8.10002 14 8.70002 14 10V13.8C14 14.2 13.8 14.5 13.5 14.7H13.4C12.4 15.3 11.8 16.3 11.8 17.5V21.3C11.8 21.9 12.3 22.4 12.9 22.4C13.5 22.4 14 21.9 14 21.3V17.5C14 17.1 14.2 16.8 14.5 16.6H14.6C15.5 16 16.1 15 16.1 13.9Z" fill="#BABDD9"/>
<path d="M20.9 8.39995C20.2 7.99995 19.2 7.69995 18 7.69995C17.4 7.69995 16.9 8.19995 16.9 8.79995C16.9 9.39995 17.4 9.89995 18 9.89995C20.3 9.89995 20.3 10.9 20.3 11.3V15C20.3 15.3 20.1 15.7 19.9 15.9C19.1 16.5 18.6 17.5 18.6 18.5V21.5C18.6 22.1 19.1 22.6 19.7 22.6C20.3 22.6 20.8 22.1 20.8 21.5V18.5C20.8 18.2 21 17.8 21.2 17.6C22 17 22.5 16 22.5 15V11.3C22.4 9.99995 21.9 8.99995 20.9 8.39995Z" fill="#BABDD9"/>
<path d="M4.4 9.79995C5 9.79995 5.5 9.29995 5.5 8.69995C5.5 8.09995 5 7.69995 4.4 7.69995C3.2 7.69995 2.2 7.99995 1.5 8.39995C0.5 8.99995 0 9.99995 0 11.2V14.9C0 15.9 0.5 16.9 1.3 17.5C1.6 17.7 1.7 18 1.7 18.4V21.4C1.7 22 2.2 22.5 2.8 22.5C3.4 22.5 3.9 22 3.9 21.4V18.4C3.9 17.4 3.4 16.4 2.6 15.8C2.3 15.6 2.2 15.3 2.2 14.9V11.2C2.1 10.8 2.1 9.79995 4.4 9.79995Z" fill="#BABDD9"/>
<path d="M6.19998 17.3C5.59998 17.3 5.09998 17.8 5.09998 18.4V21.4C5.09998 22 5.59998 22.5 6.19998 22.5C6.79998 22.5 7.29998 22 7.29998 21.4V18.4C7.29998 17.7 6.79998 17.3 6.19998 17.3Z" fill="#BABDD9"/>
<path d="M4.49995 7.29995C5.99995 7.29995 7.29995 5.99995 7.29995 4.49995C7.29995 2.99995 5.99995 1.69995 4.49995 1.69995C2.99995 1.69995 1.69995 2.99995 1.69995 4.49995C1.69995 5.99995 2.99995 7.29995 4.49995 7.29995ZM3.79995 4.49995C3.79995 4.09995 4.09995 3.79995 4.49995 3.79995C4.89995 3.79995 5.19995 4.09995 5.19995 4.49995C5.19995 4.89995 4.89995 5.19995 4.49995 5.19995C4.09995 5.19995 3.79995 4.89995 3.79995 4.49995Z" fill="#BABDD9"/>
</g>
<defs>
<clipPath id="clip0">
<rect width="22.4" height="22.4" fill="white"/>
</clipPath>
</defs>
</svg>
