<svg width="23" height="17" viewBox="0 0 23 17" fill="none" xmlns="http://www.w3.org/2000/svg">
<g clip-path="url(#clip0)">
<path d="M6.7002 6.5H5.2002V8H6.7002V6.5Z" fill="#BABDD9"/>
<path d="M14.5 6.5H13V8H14.5V6.5Z" fill="#BABDD9"/>
<path d="M3.99961 11.1V11.8H15.6996V11.1C15.6996 10.8 15.9996 10.5 16.2996 10.5H16.9996V4.59998H16.2996C15.5996 4.59998 15.0996 4.09998 15.0996 3.39998V2.59998H4.59961V3.29998C4.59961 3.99998 3.99961 4.59998 3.29961 4.59998H2.59961V10.5H3.29961C3.69961 10.5 3.99961 10.8 3.99961 11.1ZM5.89961 4.09998H13.6996C13.9996 4.99998 14.6996 5.69998 15.5996 5.99998V9.19998C14.9996 9.39998 14.5996 9.89998 14.3996 10.4H5.39961C5.19961 9.79998 4.69961 9.39998 4.19961 9.19998V5.89998C4.99961 5.69998 5.69961 4.99998 5.89961 4.09998Z" fill="#BABDD9"/>
<path d="M9.7998 9.20001C10.6998 9.20001 11.7998 8.60001 11.7998 7.20001C11.7998 6.10001 10.8998 5.20001 9.7998 5.20001C8.6998 5.20001 7.7998 6.10001 7.7998 7.20001C7.7998 8.60001 8.8998 9.20001 9.7998 9.20001ZM9.2998 7.20001C9.2998 6.80001 9.5998 6.70001 9.7998 6.70001C10.0998 6.70001 10.2998 6.90001 10.2998 7.20001C10.2998 7.50001 10.0998 7.70001 9.7998 7.70001C9.4998 7.70001 9.2998 7.50001 9.2998 7.20001Z" fill="#BABDD9"/>
<path d="M19.7 1.3V0H0V14.4H1.3V17H22.2V1.3H19.7ZM2.8 15.5V14.4H19.7V2.8H20.8V15.5H2.8ZM18.2 1.5V12.9H1.5V1.5H18.2Z" fill="#BABDD9"/>
</g>
<defs>
<clipPath id="clip0">
<rect width="22.2" height="17" fill="white"/>
</clipPath>
</defs>
</svg>
