<svg width="18" height="22" viewBox="0 0 18 22" fill="none" xmlns="http://www.w3.org/2000/svg">
<g clip-path="url(#clip0)">
<path d="M17.6 7.7C17.6 7.59 17.6 7.48 17.49 7.37V7.26C17.49 7.15 17.38 7.04 17.27 6.93L10.67 0.33C10.56 0.22 10.45 0.22 10.34 0.11H10.23C10.12 0 10.01 0 9.9 0H3.3C2.42 0 1.54 0.33 0.99 0.99C0.33 1.65 0 2.42 0 3.3V18.7C0 19.58 0.33 20.46 0.99 21.01C1.65 21.67 2.42 22 3.3 22H14.3C15.18 22 16.06 21.67 16.61 21.01C17.27 20.35 17.6 19.58 17.6 18.7V7.7C17.6 7.81 17.6 7.81 17.6 7.7ZM11 3.85L13.86 6.71H12.1C11.77 6.71 11.55 6.6 11.33 6.38C11.11 6.16 11 5.94 11 5.61V3.85ZM15.4 18.81C15.4 19.14 15.29 19.36 15.07 19.58C14.85 19.8 14.63 19.91 14.3 19.91H3.3C2.97 19.91 2.75 19.8 2.53 19.58C2.31 19.36 2.2 19.14 2.2 18.81V3.41C2.2 3.08 2.31 2.86 2.53 2.64C2.75 2.42 2.97 2.31 3.3 2.31H8.8V5.61C8.8 6.49 9.13 7.37 9.79 7.92C10.45 8.58 11.22 8.91 12.1 8.91H15.4V18.81Z" fill="#BABDD9"/>
</g>
<defs>
<clipPath id="clip0">
<rect width="17.6" height="22" fill="white"/>
</clipPath>
</defs>
</svg>
