<svg width="28" height="28" viewBox="0 0 28 28" fill="none" xmlns="http://www.w3.org/2000/svg">
<path d="M7 24.4997H21C21.9283 24.4997 22.8185 24.1309 23.4749 23.4745C24.1313 22.8182 24.5 21.9279 24.5 20.9997V6.99967C24.5 6.07142 24.1313 5.18118 23.4749 4.5248C22.8185 3.86842 21.9283 3.49967 21 3.49967H19.8333C19.8333 3.19026 19.7104 2.89351 19.4916 2.67472C19.2728 2.45592 18.9761 2.33301 18.6667 2.33301C18.3572 2.33301 18.0605 2.45592 17.8417 2.67472C17.6229 2.89351 17.5 3.19026 17.5 3.49967H10.5C10.5 3.19026 10.3771 2.89351 10.1583 2.67472C9.9395 2.45592 9.64275 2.33301 9.33333 2.33301C9.02391 2.33301 8.72717 2.45592 8.50838 2.67472C8.28958 2.89351 8.16667 3.19026 8.16667 3.49967H7C6.07174 3.49967 5.1815 3.86842 4.52513 4.5248C3.86875 5.18118 3.5 6.07142 3.5 6.99967V20.9997C3.5 21.9279 3.86875 22.8182 4.52513 23.4745C5.1815 24.1309 6.07174 24.4997 7 24.4997ZM5.83333 6.99967C5.83333 6.69026 5.95625 6.39351 6.17504 6.17472C6.39383 5.95592 6.69058 5.83301 7 5.83301H8.16667V6.99967C8.16667 7.30909 8.28958 7.60584 8.50838 7.82463C8.72717 8.04342 9.02391 8.16634 9.33333 8.16634C9.64275 8.16634 9.9395 8.04342 10.1583 7.82463C10.3771 7.60584 10.5 7.30909 10.5 6.99967V5.83301H17.5V6.99967C17.5 7.30909 17.6229 7.60584 17.8417 7.82463C18.0605 8.04342 18.3572 8.16634 18.6667 8.16634C18.9761 8.16634 19.2728 8.04342 19.4916 7.82463C19.7104 7.60584 19.8333 7.30909 19.8333 6.99967V5.83301H21C21.3094 5.83301 21.6062 5.95592 21.825 6.17472C22.0438 6.39351 22.1667 6.69026 22.1667 6.99967V10.4997H5.83333V6.99967ZM5.83333 12.833H22.1667V20.9997C22.1667 21.3091 22.0438 21.6058 21.825 21.8246C21.6062 22.0434 21.3094 22.1663 21 22.1663H7C6.69058 22.1663 6.39383 22.0434 6.17504 21.8246C5.95625 21.6058 5.83333 21.3091 5.83333 20.9997V12.833Z" fill="#BABDD9"/>
</svg>
