<svg width="22" height="22" viewBox="0 0 22 22" fill="none" xmlns="http://www.w3.org/2000/svg">
<path d="M11 0C8.14 0 5.5 1.1 3.41 3.08V1.1C3.41 0.77 3.3 0.55 3.08 0.33C2.86 0.11 2.64 0 2.31 0C1.98 0 1.76 0.11 1.54 0.33C1.32 0.55 1.21 0.77 1.21 1.1V6.05C1.21 6.38 1.32 6.6 1.54 6.82C1.76 7.04 1.98 7.15 2.31 7.15H7.26C7.59 7.15 7.81 7.04 8.03 6.82C8.25 6.6 8.36 6.38 8.36 6.05C8.36 5.72 8.25 5.5 8.03 5.28C7.81 5.06 7.59 4.95 7.26 4.95H4.62C6.05 3.52 7.92 2.53 9.9 2.31C11.88 2.09 13.97 2.53 15.73 3.63C17.49 4.73 18.7 6.38 19.36 8.36C20.02 10.34 19.91 12.43 19.14 14.3C18.37 16.17 16.94 17.82 15.18 18.7C13.42 19.69 11.33 20.02 9.24 19.58C7.26 19.14 5.39 18.15 4.18 16.5C2.86 14.96 2.2 12.98 2.2 10.89C2.2 10.56 2.09 10.34 1.87 10.12C1.65 9.9 1.43 9.79 1.1 9.79C0.77 9.79 0.55 9.9 0.33 10.12C0.11 10.34 0 10.56 0 10.89C0 13.09 0.66 15.18 1.87 17.05C3.08 18.81 4.84 20.24 6.82 21.12C8.8 22 11 22.22 13.2 21.78C15.29 21.34 17.27 20.35 18.81 18.81C20.35 17.27 21.45 15.29 21.78 13.2C22.22 11.11 22 8.8 21.12 6.82C20.24 4.84 18.92 3.08 17.05 1.87C15.29 0.66 13.2 0 11 0ZM11 6.6C10.67 6.6 10.45 6.71 10.23 6.93C10.01 7.15 9.9 7.37 9.9 7.7V11C9.9 11.33 10.01 11.55 10.23 11.77C10.45 11.99 10.67 12.1 11 12.1H13.2C13.53 12.1 13.75 11.99 13.97 11.77C14.19 11.55 14.3 11.33 14.3 11C14.3 10.67 14.19 10.45 13.97 10.23C13.75 10.01 13.53 9.9 13.2 9.9H12.1V7.7C12.1 7.37 11.99 7.15 11.77 6.93C11.55 6.71 11.33 6.6 11 6.6Z" fill="#BABDD9"/>
</svg>
