<svg width="28" height="28" viewBox="0 0 28 28" fill="none" xmlns="http://www.w3.org/2000/svg">
<path d="M3.5 22.1663C3.5 25.4972 12.25 25.6663 14 25.6663C15.75 25.6663 24.5 25.4972 24.5 22.1663V5.83301C24.5 2.50217 15.75 2.33301 14 2.33301C12.25 2.33301 3.5 2.50217 3.5 5.83301V22.1663ZM14 4.66634C16.6676 4.53735 19.3346 4.93375 21.8493 5.83301C19.3346 6.73227 16.6676 7.12866 14 6.99967C11.3324 7.12866 8.66544 6.73227 6.15067 5.83301C8.66544 4.93375 11.3324 4.53735 14 4.66634ZM5.83333 8.21301C8.48274 8.99958 11.2367 9.37726 14 9.33301C16.7633 9.37726 19.5173 8.99958 22.1667 8.21301V13.8002C21.5763 14.2995 18.718 15.1663 14 15.1663C9.282 15.1663 6.42367 14.2995 5.83333 13.8002V8.21301ZM5.83333 16.3797C8.48274 17.1662 11.2367 17.5439 14 17.4997C16.7633 17.5439 19.5173 17.1662 22.1667 16.3797V21.9703C21.5623 22.472 18.7017 23.333 14 23.333C9.29833 23.333 6.43767 22.472 5.83333 21.9703V16.3797Z" fill="#BABDD9"/>
</svg>
