<svg width="23" height="23" viewBox="0 0 23 23" fill="none" xmlns="http://www.w3.org/2000/svg">
<g clip-path="url(#clip0)">
<path d="M14.8 16C14.2 16 13.8 16.5 13.8 17V19.6C13.8 20 13.5 20.3 13.1 20.3H2.7C2.3 20.3 2 20 2 19.6V2.7C2 2.3 2.3 2 2.7 2H13C13.4 2 13.7 2.3 13.7 2.7V5.3C13.7 5.9 14.2 6.3 14.7 6.3C15.2 6.3 15.7 5.8 15.7 5.3V2.7C15.7 1.2 14.5 0 13 0H2.7C1.2 0 0 1.2 0 2.7V19.5C0 21 1.2 22.2 2.7 22.2H13C14.5 22.2 15.7 21 15.7 19.5V17C15.8 16.4 15.4 16 14.8 16Z" fill="#BABDD9"/>
<path d="M19.1001 7.89998L18.1001 6.89998C17.7001 6.49998 17.1001 6.49998 16.7001 6.89998C16.3001 7.29998 16.3001 7.89998 16.7001 8.29998L17.8001 9.39998L18.6001 10.2H8.6001C8.0001 10.2 7.6001 10.7 7.6001 11.2C7.6001 11.8 8.1001 12.2 8.6001 12.2H18.5001L17.7001 13L16.7001 14C16.3001 14.4 16.3001 15 16.7001 15.4C17.1001 15.8 17.7001 15.8 18.1001 15.4L22.3001 11.2L19.1001 7.89998Z" fill="#BABDD9"/>
</g>
<defs>
<clipPath id="clip0">
<rect width="22.4" height="22.3" fill="white"/>
</clipPath>
</defs>
</svg>
