<svg width="21" height="22" viewBox="0 0 21 22" fill="none" xmlns="http://www.w3.org/2000/svg">
<g clip-path="url(#clip0)">
<path fill-rule="evenodd" clip-rule="evenodd" d="M8.50453 22C8.31448 22 8.17195 21.9524 7.9819 21.8571L4.89367 19.9524L1.42534 21.9048C1.14027 22.0476 0.760181 22.0476 0.475113 21.9048C0.190045 21.7143 0 21.4286 0 21.0952V3.95238C0 1.7619 1.75792 0 3.89593 0H17.1041C19.0126 0 20.6183 1.40405 20.941 3.22977C21.009 3.3608 21.0475 3.50941 21.0475 3.66661V6.33328C21 8.04757 19.6697 9.47614 18.0068 9.47614C17.5995 9.47614 17.215 9.39328 16.8665 9.24157V20.7619C16.8665 21.0952 16.6765 21.4286 16.3914 21.5714C16.1063 21.7619 15.7262 21.7619 15.4412 21.5714L12.2579 19.8571L8.93213 21.8095C8.8371 21.9524 8.69457 22 8.50453 22ZM16.8665 5.87173C16.9274 5.99707 16.9615 6.13756 16.9615 6.28566C16.9615 6.99995 17.3891 7.57138 18.0068 7.57138C18.6244 7.57138 19.1471 6.99995 19.1471 6.28566V4.20154C19.1162 4.10804 19.0995 4.00826 19.0995 3.90476C19.0995 3.09524 18.6244 2.38095 17.9118 2.04762H17.8167C16.9615 2.19048 16.8665 3.09524 16.8665 3.2381V5.87173ZM4.94118 17.9048C5.13122 17.9048 5.27376 17.9524 5.4638 18.0476L8.55204 19.9524L11.8778 18C12.1629 17.8095 12.4955 17.8095 12.8281 18L15.0611 19.2381V3.28571C15.0611 2.90476 15.1561 2.42857 15.3937 1.90476H3.99095C2.80317 1.90476 1.90045 2.80952 1.90045 3.90476V19.4286L4.46606 18C4.6086 17.9048 4.79864 17.9048 4.94118 17.9048ZM11.3552 7.80955H4.79868C4.27605 7.80955 3.84845 7.38098 3.84845 6.85717C3.84845 6.33336 4.27605 5.90479 4.79868 5.90479H11.3552C11.8779 5.90479 12.3055 6.33336 12.3055 6.85717C12.3055 7.38098 11.8779 7.80955 11.3552 7.80955ZM4.79868 11.7619H11.3552C11.8779 11.7619 12.3055 11.3334 12.3055 10.8096C12.3055 10.2857 11.8779 9.85718 11.3552 9.85718H4.79868C4.27605 9.85718 3.84845 10.2857 3.84845 10.8096C3.84845 11.3334 4.27605 11.7619 4.79868 11.7619ZM11.3552 15.7619H4.79868C4.27605 15.7619 3.84845 15.3334 3.84845 14.8096C3.84845 14.2857 4.27605 13.8572 4.79868 13.8572H11.3552C11.8779 13.8572 12.3055 14.2857 12.3055 14.8096C12.3055 15.3334 11.8779 15.7619 11.3552 15.7619Z" fill="#BABDD9"/>
</g>
<defs>
<clipPath id="clip0">
<rect width="21" height="22" fill="white"/>
</clipPath>
</defs>
</svg>
