<svg width="22" height="23" viewBox="0 0 22 23" fill="none" xmlns="http://www.w3.org/2000/svg">
<g clip-path="url(#clip0)">
<path d="M19.0526 0.283325H3.05263C1.36842 0.283325 0 1.65175 0 3.33596V22.2833L3.05263 19.8623L5.05263 21.4412L7.05263 19.8623L9.05263 21.4412L11.0526 19.8623L13.0526 21.4412L15.0526 19.8623L18.1053 22.2833V8.59912H21.3684V2.9149C21.6842 1.54648 20.4211 0.283325 19.0526 0.283325ZM19.5789 2.9149V6.59911H18.3158V2.9149C18.3158 2.59911 18.6316 2.28333 18.9474 2.28333C19.3684 2.28333 19.5789 2.59911 19.5789 2.9149ZM2 3.33596C2 2.80964 2.42105 2.38859 2.94737 2.38859H16.4211C16.3158 2.70438 16.3158 3.02017 16.3158 3.23069V18.0728L15.2632 17.2307L13.2632 18.8096L11.2632 17.2307L9.26316 18.8096L7.26316 17.2307L5.26316 18.8096L3.26316 17.2307L2.21053 18.0728V3.33596H2Z" fill="#BABDD9"/>
<path d="M12.3156 4.80963H3.89453V6.80963H12.3156V4.80963Z" fill="#BABDD9"/>
<path d="M10.7369 8.59912H3.78955V10.5991H10.7369V8.59912Z" fill="#BABDD9"/>
<path d="M14.7369 8.59912H11.7896V10.5991H14.7369V8.59912Z" fill="#BABDD9"/>
<path d="M10.7369 12.3886H3.78955V14.3886H10.7369V12.3886Z" fill="#BABDD9"/>
<path d="M14.7369 12.3886H11.7896V14.3886H14.7369V12.3886Z" fill="#BABDD9"/>
</g>
<defs>
<clipPath id="clip0">
<rect width="21.6842" height="22" fill="white" transform="translate(0 0.283325)"/>
</clipPath>
</defs>
</svg>
