<svg width="26" height="21" viewBox="0 0 26 21" fill="none" xmlns="http://www.w3.org/2000/svg">
<g clip-path="url(#clip0)">
<path d="M24.3869 11.9612H24.8613C25.4307 11.9612 25.9051 11.5047 25.9051 10.9568V8.94814C25.9051 7.57858 24.9562 6.39162 23.5328 6.0264L21.8248 1.27857C21.635 0.730749 21.2555 0.365531 20.6861 0.0916183C20.2117 -0.182295 19.5474 -0.182295 19.073 0.000313908L2.84672 6.0264C1.23358 6.11771 0 7.39597 0 8.94814V10.9568C0 11.5047 0.474453 11.9612 1.0438 11.9612H1.51825C2.37226 11.9612 3.0365 12.6003 3.0365 13.4221C3.0365 14.2438 2.37226 14.8829 1.51825 14.8829H1.0438C0.474453 14.8829 0 15.3394 0 15.8873V17.896C0 19.6308 1.42336 21.0003 3.13139 21.0003H22.8686C23.7226 21.0003 24.4818 20.7264 25.0511 20.0873C25.6204 19.4481 26 18.7177 26 17.9873V15.9786C26 15.4307 25.5255 14.9742 24.9562 14.9742H24.4818C24.1022 14.9742 23.7226 14.7916 23.438 14.5177C23.1533 14.2438 22.9635 13.8786 22.9635 13.5134C22.8686 12.6916 23.5328 11.9612 24.3869 11.9612ZM20.781 13.5134C20.781 14.4264 21.1606 15.3394 21.8248 15.9786C22.3942 16.5264 23.0584 16.8916 23.9124 16.9829V17.9873C23.9124 18.5351 23.438 18.9916 22.8686 18.9916H10.438C10.438 18.4438 9.9635 17.9873 9.39416 17.9873C8.82482 17.9873 8.35036 18.4438 8.35036 18.9916H3.13139C2.56204 18.9916 2.08759 18.5351 2.08759 17.9873V16.9829C3.89051 16.709 5.21898 15.2481 5.21898 13.5134C5.21898 11.7786 3.89051 10.3177 2.08759 10.0438V8.94814C2.08759 8.40032 2.56204 7.94379 3.13139 7.94379H8.25547C8.25547 8.49162 8.72993 8.94814 9.29927 8.94814C9.86861 8.94814 10.438 8.58292 10.438 8.0351H22.8686C23.438 8.0351 23.9124 8.49162 23.9124 9.03944V10.0438C22.1095 10.2264 20.781 11.6873 20.781 13.5134ZM8.91971 6.0264L19.927 2.00901L21.3504 5.9351H8.91971V6.0264Z" fill="#BABDD9"/>
<path d="M9.39414 13.6953C8.82479 13.6953 8.35034 14.1518 8.35034 14.6997V16.4344C8.35034 16.9823 8.82479 17.4388 9.39414 17.4388C9.96348 17.4388 10.4379 16.9823 10.4379 16.4344V14.791C10.4379 14.1518 9.96348 13.6953 9.39414 13.6953Z" fill="#BABDD9"/>
<path d="M9.39414 9.49609C8.82479 9.49609 8.35034 9.95262 8.35034 10.5004V12.1439C8.35034 12.6917 8.82479 13.1483 9.39414 13.1483C9.96348 13.1483 10.4379 12.7831 10.4379 12.2352V10.5917C10.4379 9.95262 9.96348 9.49609 9.39414 9.49609Z" fill="#BABDD9"/>
</g>
<defs>
<clipPath id="clip0">
<rect width="26" height="21" fill="white"/>
</clipPath>
</defs>
</svg>
