<?xml version="1.0" encoding="utf-8"?>
<!-- Generator: Adobe Illustrator 22.0.0, SVG Export Plug-In . SVG Version: 6.00 Build 0)  -->
<svg version="1.1" id="Capa_1" xmlns="http://www.w3.org/2000/svg" xmlns:xlink="http://www.w3.org/1999/xlink" x="0px" y="0px"
	 viewBox="0 0 512 512" style="enable-background:new 0 0 512 512;" xml:space="preserve">
<style type="text/css">
	.st0{fill:#565656;}
</style>
<g>
	<path class="st0" d="M103.9,412h-60c-8.3,0-15,6.7-15,15v70c0,8.3,6.7,15,15,15h60c8.3,0,15-6.7,15-15v-70
		C118.9,418.7,112.2,412,103.9,412L103.9,412z"/>
	<path class="st0" d="M223.9,337.8h-60c-8.3,0-15,6.7-15,15V497c0,8.3,6.7,15,15,15h60c8.3,0,15-6.7,15-15V352.8
		C238.9,344.6,232.2,337.8,223.9,337.8L223.9,337.8z"/>
	<path class="st0" d="M343.9,226.7h-60c-8.3,0-15,6.7-15,15V497c0,8.3,6.7,15,15,15h60c8.3,0,15-6.7,15-15V241.7
		C358.9,233.4,352.2,226.7,343.9,226.7L343.9,226.7z"/>
	<path class="st0" d="M463.9,116h-60c-8.3,0-15,6.7-15,15v366c0,8.3,6.7,15,15,15h60c8.3,0,15-6.7,15-15V131
		C478.9,122.8,472.2,116,463.9,116L463.9,116z"/>
	<path class="st0" d="M476.5,2.6c-6.9-4.7-16.2-2.9-20.8,4L422.1,56h-51.2c-5.6,0-10.7,3.1-13.3,8l-53.7,102.6h-49.9
		c-5.5,0-10.5,3-13.2,7.8L184,277.8h-50.1c-4.9,0-9.6,2.4-12.4,6.5L75,352H43.9c-8.3,0-15,6.7-15,15s6.7,15,15,15h39
		c4.9,0,9.6-2.4,12.4-6.5l46.5-67.7h51.1c5.5,0,10.5-3,13.2-7.8l56.7-103.4h50.1c5.6,0,10.7-3.1,13.3-8L379.9,86H430
		c5,0,9.6-2.5,12.4-6.6l38.1-56C485.1,16.6,483.4,7.3,476.5,2.6L476.5,2.6z"/>
</g>
</svg>
