<svg width="52" height="61" viewBox="0 0 52 61" fill="none" xmlns="http://www.w3.org/2000/svg">
<g clip-path="url(#clip0)">
<path d="M3.25 61C1.4625 61 0 59.5281 0 57.7292V3.27078C0 1.47185 1.4625 0 3.25 0C5.0375 0 6.5 1.47185 6.5 3.27078V57.7292C6.5 59.5281 5.0375 61 3.25 61Z" fill="#58D7FF"/>
<path d="M18.3625 61.0001C16.575 61.0001 15.1125 59.5282 15.1125 57.7293V21.7508C15.1125 19.9518 16.575 18.48 18.3625 18.48C20.15 18.48 21.6125 19.9518 21.6125 21.7508V57.8929C21.6125 59.5282 20.15 61.0001 18.3625 61.0001Z" fill="#58D7FF"/>
<path d="M33.6375 61C31.85 61 30.3875 59.5281 30.3875 57.7292V8.17691C30.3875 6.37798 31.85 4.90613 33.6375 4.90613C35.425 4.90613 36.8875 6.37798 36.8875 8.17691V57.7292C36.8875 59.5281 35.425 61 33.6375 61Z" fill="#58D7FF"/>
<path d="M48.75 61C46.9625 61 45.5 59.5282 45.5 57.7292V33.8526C45.5 32.0536 46.9625 30.5818 48.75 30.5818C50.5375 30.5818 52 32.0536 52 33.8526V57.8928C52 59.5282 50.5375 61 48.75 61Z" fill="#58D7FF"/>
</g>
<defs>
<clipPath id="clip0">
<rect width="52" height="61" fill="white"/>
</clipPath>
</defs>
</svg>
