<svg width="24" height="24" viewBox="0 0 24 24" fill="none" xmlns="http://www.w3.org/2000/svg">
<g clip-path="url(#clip0)">
<path d="M22.6 16.3C23.2 16.3 23.7 15.8 23.7 15.2V5.6C23.7 3.5 22 1.8 19.9 1.8H18.9V1.1C18.9 0.5 18.4 0 17.8 0C17.2 0 16.7 0.5 16.7 1.1V1.9H12.9V1.1C12.9 0.5 12.4 0 11.8 0C11.2 0 10.7 0.5 10.7 1.1V1.9H6.9V1.1C6.9 0.5 6.4 0 5.8 0C5.2 0 4.8 0.5 4.8 1.1V1.9H3.8C1.7 1.8 0 3.5 0 5.6V19.8C0 21.9 1.7 23.6 3.8 23.6H19.8C21.9 23.6 23.6 21.9 23.6 19.8C23.6 19.2 23.1 18.7 22.5 18.7C21.9 18.7 21.4 19.2 21.4 19.8C21.4 20.7 20.7 21.5 19.7 21.5H3.7C2.8 21.5 2 20.8 2 19.8V5.6C2 4.7 2.8 3.9 3.7 3.9H4.7V4.7C4.7 5.3 5.2 5.8 5.8 5.8C6.4 5.8 6.9 5.3 6.9 4.7V3.9H10.7V4.7C10.7 5.3 11.2 5.8 11.8 5.8C12.4 5.8 12.9 5.3 12.9 4.7V3.9H16.7V4.7C16.7 5.3 17.2 5.8 17.8 5.8C18.4 5.8 18.9 5.3 18.9 4.7V3.9H19.9C20.8 3.9 21.6 4.6 21.6 5.6V15.3C21.5 15.9 22 16.3 22.6 16.3Z" fill="white"/>
<path d="M15.7 9.60002L11.2 15.9C11.2 16 11 16 11 16C10.9 16 10.8 16 10.7 15.9L7.8 13.1C7.6 12.9 7.3 12.8 7.1 12.8C6.8 12.8 6.6 12.9 6.4 13.1C6.1 13.3 6 13.6 6 13.9C6 14.2 6.1 14.4 6.3 14.6L9.2 17.4C9.7 17.8 10.3 18.1 10.9 18.1C11 18.1 11 18.1 11.1 18.1C11.8 18.1 12.4 17.7 12.9 17.2L17.4 10.9C17.6 10.7 17.6 10.4 17.6 10.1C17.6 9.80002 17.4 9.60002 17.2 9.40002C16.7 9.00002 16.1 9.10002 15.7 9.60002Z" fill="white"/>
</g>
<defs>
<clipPath id="clip0">
<rect width="23.6" height="23.6" fill="white"/>
</clipPath>
</defs>
</svg>
