<svg width="22" height="23" viewBox="0 0 22 23" fill="none" xmlns="http://www.w3.org/2000/svg">
<path d="M15.3825 10.1467C15.3825 9.60283 14.9488 9.11001 14.3487 9.11001H5.372C4.82875 9.11001 4.33828 9.54587 4.33828 10.1467C4.33828 10.6905 4.77198 11.1833 5.372 11.1833H14.3487C14.892 11.1833 15.3825 10.7475 15.3825 10.1467Z" fill="white" stroke="white" stroke-width="0.3"/>
<path d="M5.372 12.61C4.82875 12.61 4.33828 13.0459 4.33828 13.6467C4.33828 14.1905 4.77197 14.6833 5.372 14.6833H10.8139C11.3571 14.6833 11.8476 14.2475 11.8476 13.6467C11.8476 13.1028 11.4139 12.61 10.8139 12.61H5.372Z" fill="white" stroke="white" stroke-width="0.3"/>
<path d="M7.4186 20.0767H4.48837C3.59494 20.0767 2.87093 19.351 2.87093 18.4533V4.45333C2.87093 3.55571 3.59494 2.83 4.48837 2.83H15.2326C16.1208 2.83 16.8035 3.55041 16.8035 4.45333V8.46667C16.8035 9.01051 17.2372 9.50333 17.8372 9.50333C18.3805 9.50333 18.8709 9.06748 18.8709 8.46667V4.5C18.8709 2.50429 17.2228 0.85 15.2326 0.85H4.48837C2.49808 0.85 0.85 2.50429 0.85 4.5V18.5C0.85 20.4957 2.49808 22.15 4.48837 22.15H7.4186C7.96185 22.15 8.45233 21.7141 8.45233 21.1133C8.45233 20.5125 7.96185 20.0767 7.4186 20.0767Z" fill="white" stroke="white" stroke-width="0.3"/>
<path d="M11.3692 17.3794L11.3691 17.3794L11.3677 17.3841L10.3445 20.8374L10.3445 20.8374L10.344 20.8389C10.2355 21.2199 10.3452 21.6022 10.6146 21.8726C10.8211 22.0798 11.0434 22.1967 11.3255 22.1967L11.3311 22.1967C11.3731 22.1967 11.4191 22.1967 11.4665 22.1888C11.5154 22.1806 11.5609 22.1652 11.6116 22.1408L15.133 21.1646L15.1331 21.1648L15.1405 21.1623C15.3047 21.1074 15.4638 21.0004 15.5713 20.8926L20.362 16.0859C21.4436 15.0007 21.4436 13.226 20.362 12.1408C19.2801 11.0553 17.5104 11.0553 16.4286 12.1408L11.6379 16.9475C11.5304 17.0553 11.4239 17.2149 11.3692 17.3794ZM18.901 14.6073L18.9007 14.607L18.8937 14.6141L18.8139 14.6942L17.7698 13.6467L17.8503 13.5659C18.1127 13.3027 18.5777 13.2922 18.8972 13.5695C19.2115 13.8883 19.1997 14.345 18.901 14.6073ZM17.3928 16.1667L14.3177 19.252L12.8474 19.6402L13.2725 18.2057L16.3487 15.1192L17.3928 16.1667Z" fill="white" stroke="white" stroke-width="0.3"/>
<path d="M14.3487 5.61001H5.372C4.82875 5.61001 4.33828 6.04587 4.33828 6.64668C4.33828 7.24238 4.77706 7.68334 5.372 7.68334H14.3487C14.892 7.68334 15.3825 7.24749 15.3825 6.64668C15.3825 6.04587 14.892 5.61001 14.3487 5.61001Z" fill="white" stroke="white" stroke-width="0.3"/>
</svg>
