<svg width="25" height="25" viewBox="0 0 25 25" fill="none" xmlns="http://www.w3.org/2000/svg">
<path d="M24 12.3874V16.3874C24 17.5874 22.3 17.5874 22.2 16.3874V14.5874L19.3 17.4874C19.1 17.6874 18.9 17.7873 18.7 17.7873H14.2L8.2 23.7873C7.8 24.1873 7.3 24.1873 6.9 23.7873C6.5 23.3874 6.5 22.8874 6.9 22.4874L13.1 16.2874C13.3 16.0874 13.5 15.9874 13.7 15.9874H18.2L20.9 13.2874H19C17.8 13.2874 17.8 11.5874 19 11.4874H23C23.6 11.4874 24 11.8874 24 12.3874ZM23.1 19.0874C22.6 19.0874 22.2 19.4874 22.2 19.9874V23.0874C22.2 24.2874 23.9 24.2874 24 23.0874V19.9874C24 19.4874 23.6 19.0874 23.1 19.0874ZM19.5 19.0874C19 19.0874 18.6 19.4874 18.6 19.9874V23.0874C18.6 24.2874 20.3 24.2874 20.4 23.0874V19.9874C20.4 19.4874 20 19.0874 19.5 19.0874ZM15.9 19.0874C15.4 19.0874 15 19.4874 15 19.9874V23.0874C15 24.2874 16.7 24.2874 16.8 23.0874V19.9874C16.8 19.4874 16.4 19.0874 15.9 19.0874ZM12.3 21.7873C11.8 21.7873 11.4 22.1874 11.4 22.6874V23.0874C11.4 24.2874 13.1 24.2874 13.2 23.0874V22.6874C13.2 22.1874 12.8 21.7873 12.3 21.7873ZM10.5 16.1874C11 16.1874 11.4 15.7874 11.4 15.2874V14.6874C14.2 13.6874 13.5 9.48735 10.5 9.48735C9.3 9.48735 9.3 7.78735 10.5 7.68735C10.9 7.68735 11.1 7.88735 11.3 8.18735C11.5 8.68735 12 8.88735 12.5 8.68735C13 8.48735 13.2 7.98735 13 7.48735C12.7 6.78735 12.1 6.28735 11.5 5.98735V5.48735C11.5 4.28735 9.8 4.28735 9.7 5.48735V6.08735C6.9 7.08735 7.6 11.2874 10.6 11.2874C11.8 11.2874 11.8 13.0874 10.6 13.0874C10.3 13.0874 9.9 12.8874 9.8 12.4874C9.6 11.9874 9.1 11.7874 8.6 11.9874C8 12.2874 7.8 12.8874 8 13.2874C8.3 13.9874 8.9 14.4874 9.6 14.7874V15.3874C9.6 15.7873 10 16.1874 10.5 16.1874ZM7.4 19.2873C7.8 19.2873 8.1 19.0874 8.2 18.6874C8.4 18.1874 8.1 17.6874 7.7 17.4874C-0.1 14.3874 2 2.88735 10.4 2.78735C14.1 2.78735 17.3 5.48735 17.9 9.08735C18 9.58735 18.5 9.88735 18.9 9.78735C19.3 9.68735 19.7 9.18735 19.6 8.78735C19.2 6.58735 18.1 4.68735 16.4 3.18735C10.5 -1.91265 1 2.48735 1 10.3874C1 14.1874 3.5 17.8874 7.1 19.1874C7.2 19.2874 7.3 19.2873 7.4 19.2873Z" fill="white" stroke="white" stroke-width="0.5"/>
</svg>
