<svg width="28" height="28" viewBox="0 0 28 28" fill="none" xmlns="http://www.w3.org/2000/svg">
<g clip-path="url(#clip0)">
<path d="M16.5511 25.6356H4.72889C3.36 25.6356 2.36444 24.5156 2.36444 23.2711V7.71556C2.36444 6.34667 3.48444 5.35111 4.72889 5.35111H8.46222V5.97333C8.46222 7.96445 10.08 9.58222 12.0711 9.58222C14.0622 9.58222 15.68 7.96445 15.68 5.97333V5.35111H19.4133C20.7822 5.35111 21.7778 6.47111 21.7778 7.71556V13.9378C21.7778 14.56 22.2756 15.1822 23.0222 15.1822C23.7689 15.1822 24.2667 14.6844 24.2667 13.9378V7.71556C24.2667 5.10222 22.1511 2.98667 19.5378 2.98667H15.8044V1.24444C15.8044 0.622222 15.3067 0 14.56 0H9.70667C9.08444 0 8.46222 0.497778 8.46222 1.24444V2.98667H4.72889C2.11556 2.98667 0 5.10222 0 7.71556V23.2711C0 25.8844 2.11556 28 4.72889 28H16.4267C17.0489 28 17.6711 27.5022 17.6711 26.7556C17.6711 26.0089 17.1733 25.6356 16.5511 25.6356ZM10.9511 2.36444H13.3156V5.97333C13.3156 6.59556 12.8178 7.21778 12.0711 7.21778C11.4489 7.21778 10.8267 6.72 10.8267 5.97333V2.36444H10.9511ZM26.3822 21.9022L19.7867 15.3067C19.6622 15.1822 19.5378 15.0578 19.2889 15.0578L14.56 13.6889C14.1867 13.5644 13.6889 13.6889 13.44 13.9378C13.0667 14.1867 13.0667 14.6844 13.0667 15.0578L14.4356 19.9111C14.4356 20.16 14.56 20.2844 14.6844 20.4089L21.1556 27.0044C21.9022 27.7511 22.7733 28 23.6444 28C24.5156 28 25.5111 27.6267 26.1333 27.0044C27.7511 25.6356 27.7511 23.3956 26.3822 21.9022ZM15.9289 16.5511L18.2933 17.2978L22.6489 21.7778L20.9067 23.52L16.5511 19.1644L15.9289 16.5511ZM24.64 25.2622C24.1422 25.76 23.3956 25.76 22.8978 25.2622L22.6489 25.0133L24.3911 23.2711L24.64 23.52C25.1378 24.1422 25.1378 24.8889 24.64 25.2622Z" fill="white"/>
</g>
<defs>
<clipPath id="clip0">
<rect width="27.3778" height="28" fill="white"/>
</clipPath>
</defs>
</svg>
