<svg width="30" height="30" viewBox="0 0 30 30" fill="none" xmlns="http://www.w3.org/2000/svg">
<g clip-path="url(#clip0)">
<path d="M28.7 20.3C29.5 20 30 19.3 30 18.4V14.6C30 13.5 29.1 12.6 28 12.6H27.8C28.4 11.8 28.4 10.7 27.6 9.90002L24.9 7.20002C24.3 6.60002 23.4 6.50002 22.7 6.80002C22.3 7.00002 21.8 6.90002 21.5 6.60002C21.2 6.30002 21.1 5.80002 21.3 5.40002C21.6 4.70002 21.5 3.80002 20.9 3.20002L18.2 0.500024C17.4 -0.299976 16.1 -0.299976 15.3 0.500024L3.3 12.7H2C0.9 12.7 0 13.6 0 14.7V18.5C0 19.3 0.5 20.1 1.3 20.4C1.7 20.6 2 21 2 21.4C2 21.8 1.7 22.2 1.3 22.4C0.5 22.7 0 23.4 0 24.3V28C0 29.1 0.9 30 2 30H28C29.1 30 30 29.1 30 28V24.2C30 23.4 29.5 22.6 28.7 22.3C28.3 22.1 28 21.7 28 21.3C28 20.9 28.3 20.5 28.7 20.3ZM16.6 1.80002C16.7 1.70002 16.9 1.70002 17 1.80002L19.7 4.50002C19.8 4.60002 19.8 4.70002 19.8 4.70002C19.3 5.80002 19.6 7.00002 20.4 7.80002C21.2 8.60002 22.5 8.90002 23.5 8.40002C23.6 8.40002 23.7 8.40002 23.7 8.50002L26.4 11.2C26.5 11.3 26.5 11.5 26.4 11.6L25.3 12.7H20.7L13.2 5.20002L16.6 1.80002ZM12 6.40002L18.2 12.6H5.8L12 6.40002ZM1.8 28V24.2C1.8 24.1 1.9 24 1.9 24C3 23.6 3.7 22.5 3.7 21.4C3.7 20.3 3 19.1 1.9 18.7C1.8 18.7 1.8 18.6 1.8 18.5V14.7C1.8 14.6 1.9 14.4 2.1 14.4H22.1V28.2H2C1.9 28.2 1.8 28.1 1.8 28ZM28.2 18.5C28.2 18.6 28.1 18.7 28.1 18.7C27 19.1 26.3 20.2 26.3 21.3C26.3 22.4 27 23.5 28.1 23.9C28.2 23.9 28.2 24 28.2 24.1V28C28.2 28.1 28.1 28.3 27.9 28.3H23.8V14.4H28C28.1 14.4 28.3 14.5 28.3 14.7V18.5H28.2Z" fill="white"/>
<path d="M6.2 16.8H19.4V18.6H6.2V16.8Z" fill="white"/>
<path d="M6.2 20.3H19.4V22.1H6.2V20.3Z" fill="white"/>
<path d="M6.2 23.8H19.4V25.6H6.2V23.8Z" fill="white"/>
</g>
<defs>
<clipPath id="clip0">
<rect width="30" height="30" fill="white"/>
</clipPath>
</defs>
</svg>
