<svg width="28" height="28" viewBox="0 0 28 28" fill="none" xmlns="http://www.w3.org/2000/svg">
<path d="M18.1652 13.6148C19.1635 12.763 19.8766 11.6256 20.2084 10.3559C20.5401 9.08623 20.4747 7.74536 20.0207 6.51406C19.5668 5.28276 18.7463 4.22024 17.6698 3.46975C16.5932 2.71926 15.3125 2.31689 14.0002 2.31689C12.6879 2.31689 11.4071 2.71926 10.3306 3.46975C9.25404 4.22024 8.4335 5.28276 7.97958 6.51406C7.52566 7.74536 7.46018 9.08623 7.79197 10.3559C8.12377 11.6256 8.83688 12.763 9.83516 13.6148C7.63047 14.4574 5.73319 15.9489 4.39385 17.8923C3.05451 19.8356 2.3361 22.1396 2.3335 24.4998C2.3335 24.8092 2.45641 25.106 2.6752 25.3247C2.894 25.5435 3.19074 25.6665 3.50016 25.6665C3.80958 25.6665 4.10633 25.5435 4.32512 25.3247C4.54391 25.106 4.66683 24.8092 4.66683 24.4998C4.66683 22.0244 5.65016 19.6505 7.4005 17.9001C9.15084 16.1498 11.5248 15.1665 14.0002 15.1665C16.4755 15.1665 18.8495 16.1498 20.5998 17.9001C22.3502 19.6505 23.3335 22.0244 23.3335 24.4998C23.3335 24.8092 23.4564 25.106 23.6752 25.3247C23.894 25.5435 24.1907 25.6665 24.5002 25.6665C24.8096 25.6665 25.1063 25.5435 25.3251 25.3247C25.5439 25.106 25.6668 24.8092 25.6668 24.4998C25.6642 22.1396 24.9458 19.8356 23.6065 17.8923C22.2671 15.9489 20.3699 14.4574 18.1652 13.6148ZM14.0002 12.8331C13.1926 12.8331 12.4031 12.5936 11.7316 12.145C11.0601 11.6963 10.5367 11.0585 10.2277 10.3124C9.9186 9.56628 9.83773 8.74526 9.99529 7.95317C10.1528 7.16108 10.5417 6.4335 11.1128 5.86244C11.6839 5.29137 12.4115 4.90247 13.2035 4.74492C13.9956 4.58736 14.8167 4.66822 15.5628 4.97728C16.3089 5.28634 16.9467 5.80971 17.3953 6.48121C17.844 7.15271 18.0835 7.94218 18.0835 8.74979C18.0835 9.83276 17.6533 10.8714 16.8875 11.6371C16.1217 12.4029 15.0831 12.8331 14.0002 12.8331Z" fill="white"/>
</svg>
