<svg width="18" height="23" viewBox="0 0 18 23" fill="none" xmlns="http://www.w3.org/2000/svg">
<g clip-path="url(#clip0)">
<path d="M6.4998 16.9C6.5998 17.1 6.7998 17.3 6.9998 17.5C7.0998 17.6 7.2998 17.6 7.3998 17.6C7.7998 17.6 8.0998 17.4 8.2998 17L10.5998 12C10.7998 11.5 10.5998 10.9 10.0998 10.7C9.59981 10.5 8.9998 10.7 8.7998 11.2L6.4998 16.2C6.3998 16.4 6.3998 16.7 6.4998 16.9Z" fill="white"/>
<path d="M5.5 11.8C5.5 12.4 6 13 6.7 13C7.4 13 7.9 12.5 7.9 11.8C7.9 11.1 7.4 10.6 6.7 10.6C6 10.6 5.5 11.1 5.5 11.8Z" fill="white"/>
<path d="M9.2002 16.3C9.2002 17 9.7002 17.5 10.4002 17.5C11.1002 17.5 11.6002 17 11.6002 16.3C11.6002 15.6 11.1002 15.1 10.4002 15.1C9.7002 15.1 9.2002 15.7 9.2002 16.3Z" fill="white"/>
<path d="M13.1 6.1H13.4C13.9 6.1 14.4 5.7 14.4 5.1C14.4 4.5 14 4.1 13.4 4.1H13.1L14 3.4C14.6 2.9 14.9 2.1 14.6 1.3C14.3 0.5 13.6 0 12.8 0H4.3C3.5 0 2.8 0.5 2.5 1.3C2.2 2 2.5 2.9 3.1 3.4L4 4.1H3.7C3.2 4.1 2.7 4.5 2.7 5.1C2.7 5.7 3.1 6.1 3.7 6.1H4C1.6 8.7 0 12.8 0 16.1C0 19.3 1.7 22.6 5.6 22.6H11.8C15.1 22.6 17.1 20.1 17.1 16.1C17.1 12.8 15.4 8.7 13.1 6.1ZM7.2 4.1L4.5 2H12.6L9.9 4.1H7.2ZM10.1 6.1C12.7 7.8 15.1 12.6 15.1 16.1C15.1 17.8 14.7 20.6 11.7 20.6H5.6C2.9 20.6 2 18.2 2 16.1C2 12.5 4.4 7.8 7 6.1H10.1Z" fill="white"/>
</g>
<defs>
<clipPath id="clip0">
<rect width="17.1" height="22.6" fill="white"/>
</clipPath>
</defs>
</svg>
