<svg width="23" height="23" viewBox="0 0 23 23" fill="none" xmlns="http://www.w3.org/2000/svg">
<g clip-path="url(#clip0)">
<path d="M8.82398 9.31715H14.0315C14.4655 9.31715 14.8995 8.95322 14.8995 8.44373C14.8995 8.00702 14.5378 7.57031 14.0315 7.57031H8.82398C8.39002 7.57031 7.95605 7.93424 7.95605 8.44373C7.95605 8.95322 8.31769 9.31715 8.82398 9.31715Z" fill="white"/>
<path d="M17.9372 11.5723H8.82398C8.39002 11.5723 7.95605 11.9362 7.95605 12.4457C7.95605 12.8824 8.31769 13.3191 8.82398 13.3191H18.0095C18.4435 13.3191 18.8774 12.9552 18.8774 12.4457C18.8051 11.9362 18.4435 11.5723 17.9372 11.5723Z" fill="white"/>
<path d="M22.4937 0.0727848C22.2044 -5.42289e-09 21.8428 0 21.5535 0.218354L19.1667 2.32911L16.7799 0.218354C16.4906 -0.0727848 15.9843 -0.0727848 15.6226 0.218354L13.2358 2.32911L10.8491 0.218354C10.5597 -0.0727848 10.0535 -0.0727848 9.69182 0.218354L7.30503 2.32911L5.13522 0.218354C4.84591 0 4.5566 -5.42289e-09 4.19497 0.0727848C3.90566 0.218354 3.68868 0.509494 3.68868 0.873418V16.0127H0.795598C0.361635 16.0127 0 16.3766 0 16.8861V18.9241C0 21.1076 1.73585 22.9272 3.90566 23H18.805C18.8774 23 18.9497 23 19.022 23C21.2642 23 23.0723 21.1804 23.0723 18.9241V0.873418C23 0.509494 22.783 0.218354 22.4937 0.0727848ZM1.66352 18.9241V17.6867H14.8994V18.9241C14.8994 19.7975 15.1887 20.5981 15.6226 21.2532H4.05031C2.74843 21.326 1.66352 20.2342 1.66352 18.9241ZM21.2642 18.9241C21.2642 20.2342 20.1792 21.2532 18.9497 21.2532C17.6478 21.2532 16.6352 20.1614 16.6352 18.9241V16.8861C16.6352 16.4494 16.2736 16.0127 15.7673 16.0127H5.42453V2.76582L6.9434 4.14873C7.23271 4.43987 7.73899 4.43987 8.10063 4.14873L10.4874 2.03797L12.8742 4.14873C13.1635 4.43987 13.6698 4.43987 14.0314 4.14873L16.4182 2.03797L18.805 4.14873C19.0943 4.43987 19.6006 4.43987 19.9623 4.14873L21.4811 2.76582V18.9241H21.2642Z" fill="white"/>
</g>
<defs>
<clipPath id="clip0">
<rect width="23" height="23" fill="white"/>
</clipPath>
</defs>
</svg>
