<svg width="28" height="28" viewBox="0 0 28 28" fill="none" xmlns="http://www.w3.org/2000/svg">
<path d="M4.66667 12.8333H11.6667C11.9761 12.8333 12.2728 12.7104 12.4916 12.4916C12.7104 12.2728 12.8333 11.9761 12.8333 11.6667V4.66667C12.8333 4.35725 12.7104 4.0605 12.4916 3.84171C12.2728 3.62292 11.9761 3.5 11.6667 3.5H4.66667C4.35725 3.5 4.0605 3.62292 3.84171 3.84171C3.62292 4.0605 3.5 4.35725 3.5 4.66667V11.6667C3.5 11.9761 3.62292 12.2728 3.84171 12.4916C4.0605 12.7104 4.35725 12.8333 4.66667 12.8333ZM5.83333 5.83333H10.5V10.5H5.83333V5.83333Z" fill="white"/>
<path d="M16.3334 12.8333H23.3334C23.6428 12.8333 23.9395 12.7104 24.1583 12.4916C24.3771 12.2728 24.5 11.9761 24.5 11.6667V4.66667C24.5 4.35725 24.3771 4.0605 24.1583 3.84171C23.9395 3.62292 23.6428 3.5 23.3334 3.5H16.3334C16.024 3.5 15.7272 3.62292 15.5084 3.84171C15.2896 4.0605 15.1667 4.35725 15.1667 4.66667V11.6667C15.1667 11.9761 15.2896 12.2728 15.5084 12.4916C15.7272 12.7104 16.024 12.8333 16.3334 12.8333ZM17.5001 5.83333H22.1667V10.5H17.5001V5.83333Z" fill="white"/>
<path d="M4.66667 24.5H11.6667C11.9761 24.5 12.2728 24.3771 12.4916 24.1583C12.7104 23.9395 12.8333 23.6428 12.8333 23.3333V16.3334C12.8333 16.0239 12.7104 15.7272 12.4916 15.5084C12.2728 15.2896 11.9761 15.1667 11.6667 15.1667H4.66667C4.35725 15.1667 4.0605 15.2896 3.84171 15.5084C3.62292 15.7272 3.5 16.0239 3.5 16.3334V23.3333C3.5 23.6428 3.62292 23.9395 3.84171 24.1583C4.0605 24.3771 4.35725 24.5 4.66667 24.5ZM5.83333 17.5H10.5V22.1667H5.83333V17.5Z" fill="white"/>
<path d="M16.3334 24.5H23.3334C23.6428 24.5 23.9395 24.3771 24.1583 24.1583C24.3771 23.9395 24.5 23.6428 24.5 23.3333V16.3334C24.5 16.0239 24.3771 15.7272 24.1583 15.5084C23.9395 15.2896 23.6428 15.1667 23.3334 15.1667H16.3334C16.024 15.1667 15.7272 15.2896 15.5084 15.5084C15.2896 15.7272 15.1667 16.0239 15.1667 16.3334V23.3333C15.1667 23.6428 15.2896 23.9395 15.5084 24.1583C15.7272 24.3771 16.024 24.5 16.3334 24.5ZM17.5001 17.5H22.1667V22.1667H17.5001V17.5Z" fill="white"/>
</svg>
