<svg width="30" height="30" viewBox="0 0 30 30" fill="none" xmlns="http://www.w3.org/2000/svg">
<g clip-path="url(#clip0)">
<path d="M4.6 24.1C5.1 23.7 5.3 22.9 4.9 22.4C3.3 20.2 2.5 17.7 2.5 15C2.5 8.09998 8.09999 2.49998 15 2.49998C21.9 2.49998 27.5 8.09998 27.5 15C27.5 17.7 26.7 20.2 25.1 22.4C24.7 22.9 24.8 23.7 25.4 24.1C25.9 24.5 26.7 24.4 27.1 23.8C31.4 18 31 9.69998 25.6 4.39998C19.7 -1.50002 10.3 -1.50002 4.4 4.39998C-1 9.69998 -1.4 18 2.9 23.9C3.3 24.4 4.1 24.5 4.6 24.1Z" fill="white"/>
<path d="M28.8 27.5H1.2C0.5 27.5 0 28.1 0 28.7C0 29.3 0.6 30 1.2 30H28.7C29.4 30 29.9 29.4 29.9 28.8C29.9 28.2 29.4 27.5 28.8 27.5Z" fill="white"/>
<path d="M13.7 10.5C14.9 9.30001 16.9 10.2 16.9 11.8C16.9 12.5 17.5 13 18.1 13C18.7 13 19.3 12.4 19.3 11.8C19.3 9.80001 18 8.20001 16.2 7.60001V6.90001C16.2 6.20001 15.6 5.70001 15 5.70001C14.4 5.70001 13.8 6.30001 13.8 6.90001V7.70001C11.7 8.30001 10.3 10.4 10.8 12.6C11.1 14 12 15.1 13.3 15.6L15.7 16.6C16.8 17.1 17.2 18.5 16.3 19.4C15.1 20.6 13 19.8 13 18.1C13 17.4 12.4 16.9 11.8 16.9C11.1 16.9 10.6 17.5 10.6 18.1C10.6 20 11.9 21.7 13.7 22.3V23.1C13.7 23.8 14.3 24.3 14.9 24.3C15.5 24.3 16.1 23.7 16.1 23.1V22.3C16.8 22.1 17.4 21.7 17.9 21.2C20 19.1 19.3 15.5 16.5 14.3L14.1 13.3C13.1 12.9 12.8 11.4 13.7 10.5Z" fill="white"/>
</g>
<defs>
<clipPath id="clip0">
<rect width="30" height="30" fill="white"/>
</clipPath>
</defs>
</svg>
