<svg width="19" height="23" viewBox="0 0 19 23" fill="none" xmlns="http://www.w3.org/2000/svg">
<g clip-path="url(#clip0)">
<path d="M13.8 9.90002H4.90002C4.40002 9.90002 3.90002 10.3 3.90002 10.9C3.90002 11.4 4.30002 11.9 4.90002 11.9H13.8C14.3 11.9 14.8 11.5 14.8 10.9C14.8 10.3 14.4 9.90002 13.8 9.90002Z" fill="white"/>
<path d="M13.8 14.8H4.90002C4.40002 14.8 3.90002 15.2 3.90002 15.8C3.90002 16.3 4.30002 16.8 4.90002 16.8H13.8C14.3 16.8 14.8 16.4 14.8 15.8C14.8 15.3 14.4 14.8 13.8 14.8Z" fill="white"/>
<path d="M15.8 3H14.8C14.6 1.3 13.1 0 11.4 0H7.4C5.7 0 4.2 1.3 4 3H3C1.4 3 0 4.3 0 6V19.4C0 21 1.3 22.4 3 22.4H15.9C17.5 22.4 18.9 21.1 18.9 19.4V5.9C18.8 4.3 17.5 3 15.8 3ZM7.4 2H11.4C12.2 2 12.9 2.7 12.9 3.5C12.9 4.3 12.2 5 11.4 5H7.4C6.6 5 5.9 4.3 5.9 3.5C5.9 2.6 6.6 2 7.4 2ZM16.8 19.4C16.8 19.9 16.4 20.4 15.8 20.4H3C2.5 20.4 2 20 2 19.4V5.9C2 5.4 2.4 4.9 3 4.9H4.3C4.9 6.1 6 6.9 7.4 6.9H11.4C12.8 6.9 14 6.1 14.5 4.9H15.8C16.3 4.9 16.8 5.3 16.8 5.9V19.4Z" fill="white"/>
</g>
<defs>
<clipPath id="clip0">
<rect width="18.8" height="22.3" fill="white"/>
</clipPath>
</defs>
</svg>
