<svg width="13" height="12" viewBox="0 0 13 12" fill="none" xmlns="http://www.w3.org/2000/svg">
<path fill-rule="evenodd" clip-rule="evenodd" d="M7.02925 9.80481C6.88872 9.92979 6.69811 10 6.49936 10C6.30061 10 6.11 9.92979 5.96947 9.80481C5.82893 9.67984 5.74998 9.51033 5.74998 9.33359V2.27632L3.28451 4.47547C3.1434 4.60096 2.95201 4.67145 2.75245 4.67145C2.55289 4.67145 2.3615 4.60096 2.22039 4.47547C2.07928 4.34998 2 4.17978 2 4.00232C2 3.82485 2.07928 3.65466 2.22039 3.52917L5.9673 0.197123C6.03696 0.134661 6.11985 0.0850842 6.21117 0.0512515C6.30248 0.0174188 6.40043 0 6.49936 0C6.59829 0 6.69624 0.0174188 6.78756 0.0512515C6.87888 0.0850842 6.96176 0.134661 7.03142 0.197123L10.7783 3.52917C10.8486 3.59112 10.9043 3.66482 10.9424 3.74603C10.9804 3.82724 11 3.91434 11 4.00232C11 4.09029 10.9804 4.1774 10.9424 4.2586C10.9043 4.33981 10.8486 4.41352 10.7783 4.47547C10.7087 4.53793 10.6258 4.58751 10.5345 4.62134C10.4431 4.65517 10.3452 4.67259 10.2463 4.67259C10.1473 4.67259 10.0494 4.65517 9.95808 4.62134C9.86676 4.58751 9.78388 4.53793 9.71421 4.47547L7.24874 2.27632V9.33359C7.24874 9.51033 7.16979 9.67984 7.02925 9.80481ZM0.190381 11.1464C0.312279 11.0527 0.477609 11 0.65 11H12.35C12.5224 11 12.6877 11.0527 12.8096 11.1464C12.9315 11.2402 13 11.3674 13 11.5C13 11.6326 12.9315 11.7598 12.8096 11.8536C12.6877 11.9473 12.5224 12 12.35 12H0.65C0.477609 12 0.312279 11.9473 0.190381 11.8536C0.0684819 11.7598 0 11.6326 0 11.5C0 11.3674 0.0684819 11.2402 0.190381 11.1464Z" fill="white"/>
</svg>
