<svg width="768" height="333" viewBox="0 0 768 333" fill="none" xmlns="http://www.w3.org/2000/svg">
<path d="M91.8725 236.358L0.529297 175.903L98.4916 126.921L91.8725 236.358ZM13.3262 176.785L86.136 224.885L91.4312 137.512L13.3262 176.785Z" fill="#48EEF9"/>
<path opacity="0.4" d="M681.524 331L715.003 265.522L754.704 327.445L681.524 331ZM715.596 274.115L688.931 326.26L747.594 323.297L715.596 274.115Z" fill="#58D7FF"/>
<path d="M196.752 70.2806V29.6831L232.054 49.9819L196.752 70.2806ZM199.841 34.9784V64.544L225.435 49.9819L199.841 34.9784Z" fill="#F0C871"/>
<g opacity="0.29">
<path opacity="0.29" d="M416.072 107.064L372.827 86.3236L412.542 58.9644L416.072 107.064ZM385.624 85.441L409.011 96.4729L406.805 70.4376L385.624 85.441Z" fill="#95D7FD"/>
</g>
<path d="M42.7492 313.595L24.6571 331.688C23.7745 332.57 22.0095 332.57 21.1269 331.688L18.4793 329.04C17.5967 328.157 17.5967 326.392 18.4793 325.51L36.5714 307.417C37.454 306.535 39.2191 306.535 40.1016 307.417L42.7492 310.065C43.6318 310.948 43.6318 312.713 42.7492 313.595Z" fill="#D26798"/>
<path d="M568.304 8.06087L550.212 26.1532C549.329 27.0358 547.564 27.0358 546.682 26.1532L544.034 23.0643C543.151 22.1817 543.151 20.4166 544.034 19.5341L562.126 1.4417C563.009 0.559146 564.774 0.559146 565.656 1.4417L568.304 4.08937C569.186 5.4132 569.186 7.17831 568.304 8.06087Z" fill="#FB2B76"/>
<path opacity="0.29" d="M19.5053 36.7442L30.5371 59.6906C30.9784 61.0145 30.5371 62.3383 29.2133 62.7796L25.6831 64.5447C24.3593 64.986 23.0355 64.5447 22.5942 63.2209L11.5624 40.2744C11.1212 38.9506 11.5624 37.6267 12.8863 37.1855L16.4164 35.4204C17.7403 34.9791 19.0641 35.4204 19.5053 36.7442Z" fill="#D3D5E4"/>
<path opacity="0.29" d="M737.571 186.791L760.958 176.642C762.282 176.2 763.606 176.642 764.047 177.965L765.812 181.496C766.253 182.819 765.812 184.143 764.488 184.585L741.101 194.734C739.777 195.175 738.453 194.734 738.012 193.41L736.247 189.88C735.805 188.556 736.688 187.232 737.571 186.791Z" fill="#71C5A5"/>
<path d="M660.754 166.983L640.223 32L767.777 81.7994L660.754 166.983ZM644.154 36.8052L663.375 161.304L761.661 82.673L644.154 36.8052Z" fill="#FB2B76"/>
</svg>
