<svg width="14" height="14" viewBox="0 0 14 14" fill="none" xmlns="http://www.w3.org/2000/svg">
<path d="M1.16669 5.83317C1.16669 7.07085 1.65835 8.25783 2.53352 9.133C3.40869 10.0082 4.59568 10.4998 5.83335 10.4998C6.86974 10.5011 7.87645 10.1539 8.69169 9.514L11.2525 12.0807C11.3067 12.1353 11.3713 12.1787 11.4423 12.2084C11.5134 12.238 11.5897 12.2532 11.6667 12.2532C11.7437 12.2532 11.8199 12.238 11.891 12.2084C11.9621 12.1787 12.0266 12.1353 12.0809 12.0807C12.1355 12.0264 12.1789 11.9619 12.2085 11.8908C12.2382 11.8198 12.2534 11.7435 12.2534 11.6665C12.2534 11.5895 12.2382 11.5133 12.2085 11.4422C12.1789 11.3711 12.1355 11.3066 12.0809 11.2523L9.51419 8.6915C10.1541 7.87627 10.5013 6.86955 10.5 5.83317C10.5 4.59549 10.0084 3.40851 9.13318 2.53334C8.25801 1.65817 7.07103 1.1665 5.83335 1.1665C4.59568 1.1665 3.40869 1.65817 2.53352 2.53334C1.65835 3.40851 1.16669 4.59549 1.16669 5.83317ZM5.83335 2.33317C6.52559 2.33317 7.20228 2.53844 7.77785 2.92303C8.35342 3.30761 8.80202 3.85424 9.06693 4.49378C9.33184 5.13332 9.40115 5.83705 9.2661 6.51599C9.13105 7.19492 8.79771 7.81856 8.30823 8.30804C7.81874 8.79753 7.1951 9.13087 6.51617 9.26592C5.83724 9.40097 5.1335 9.33165 4.49396 9.06675C3.85442 8.80184 3.30779 8.35324 2.92321 7.77767C2.53862 7.20209 2.33335 6.5254 2.33335 5.83317C2.33335 4.90491 2.7021 4.01467 3.35848 3.3583C4.01486 2.70192 4.9051 2.33317 5.83335 2.33317Z" fill="#464255"/>
</svg>
