<svg width="11" height="8" viewBox="0 0 11 8" fill="none" xmlns="http://www.w3.org/2000/svg">
<g clip-path="url(#clip0)">
<path d="M4.7 0.3C4.6 0.2 4.5 0.1 4.4 0.1C4.3 0 4.1 0 4 0C3.9 0 3.7 0 3.6 0.1C3.5 0.2 3.4 0.2 3.3 0.3L0.3 3.3C0.2 3.4 0.1 3.5 0.1 3.6C0 3.7 0 3.9 0 4C0 4.1 0 4.3 0.1 4.4C0.2 4.5 0.2 4.6 0.3 4.7L3.3 7.7C3.4 7.8 3.5 7.9 3.6 7.9C3.7 8 3.9 8 4 8C4.1 8 4.3 8 4.4 7.9C4.5 7.8 4.6 7.8 4.7 7.7C4.8 7.6 4.9 7.5 4.9 7.4C5 7.3 5 7.1 5 7C5 6.9 5 6.7 4.9 6.6C4.8 6.5 4.8 6.4 4.7 6.3L2.4 4L4.7 1.7C4.8 1.6 4.9 1.5 4.9 1.4C5 1.3 5 1.1 5 1C5 0.9 5 0.7 4.9 0.6C4.8 0.5 4.8 0.4 4.7 0.3ZM7.9 4L10.2 1.7C10.4 1.5 10.5 1.3 10.5 1C10.5 0.7 10.4 0.5 10.2 0.3C10 0.1 9.8 0 9.5 0C9.2 0 9 0.1 8.8 0.3L5.8 3.3C5.7 3.4 5.6 3.5 5.6 3.6C5.5 3.7 5.5 3.9 5.5 4C5.5 4.1 5.5 4.3 5.6 4.4C5.7 4.5 5.7 4.6 5.8 4.7L8.8 7.7C8.9 7.8 9 7.9 9.1 7.9C9.2 8 9.4 8 9.5 8C9.6 8 9.8 8 9.9 7.9C10 7.8 10.1 7.8 10.2 7.7C10.3 7.6 10.4 7.5 10.4 7.4C10.5 7.3 10.5 7.1 10.5 7C10.5 6.9 10.5 6.7 10.4 6.6C10.3 6.5 10.3 6.4 10.2 6.3L7.9 4Z" fill="#3546AB"/>
</g>
<defs>
<clipPath id="clip0">
<rect width="10.5" height="8" fill="white"/>
</clipPath>
</defs>
</svg>
