<svg width="16" height="12" viewBox="0 0 16 12" fill="none" xmlns="http://www.w3.org/2000/svg">
<g clip-path="url(#clip0_548_817)">
<path d="M14.9126 4.7767L10.6019 0.466019C10.2524 0.116505 9.90291 0 9.43689 0C8.97087 0 8.62136 0.116505 8.27184 0.466019C7.92233 0.815534 7.68932 1.16505 7.68932 1.74757C7.68932 1.86408 7.68932 2.21359 7.80582 2.4466C7.92233 2.56311 7.92233 2.79612 8.15534 2.91262L9.5534 4.31068H1.74757C1.28155 4.31068 0.932039 4.42718 0.582524 4.7767C0.116505 5.12621 0 5.47573 0 5.94175C0 6.40777 0.116505 6.75728 0.466019 7.1068C0.815534 7.45631 1.16505 7.57282 1.63107 7.57282H9.5534L8.27184 9.08738C8.03883 9.20388 7.92233 9.43689 7.92233 9.5534C7.68932 9.78641 7.68932 10.1359 7.68932 10.2524C7.68932 10.3689 7.68932 10.7184 7.80582 10.9515C7.92233 11.068 7.92233 11.301 8.15534 11.4175C8.27184 11.534 8.50485 11.767 8.62136 11.767C8.73786 11.767 9.08738 11.8835 9.32039 11.8835C9.5534 11.8835 9.78641 11.8835 10.0194 11.767C10.2524 11.6505 10.4854 11.6505 10.6019 11.4175L14.9126 7.1068C15.0291 6.99029 15.2621 6.75728 15.2621 6.64078C15.3786 6.29126 15.3786 5.82524 15.2621 5.24272C15.2621 5.12621 15.0291 5.00971 14.9126 4.7767Z" fill="#48EEF9"/>
</g>
<defs>
<clipPath id="clip0_548_817">
<rect width="15.3786" height="12" fill="white"/>
</clipPath>
</defs>
</svg>
