<svg width="1619" height="1003" viewBox="0 0 1619 1003" fill="none" xmlns="http://www.w3.org/2000/svg">
<g opacity="0.6">
<path d="M53.164 0L0 4.06579L81.9351 86.0072C138.852 142.928 231.107 142.928 287.711 86.0072L334.62 39.0942C344.628 29.0861 360.577 29.0861 370.584 39.0942L370.897 39.4069C381.217 49.7278 381.217 66.3037 370.897 76.6246C355.261 92.2622 246.431 201.1 221.725 225.808C169.812 277.725 169.812 361.856 221.725 413.773C273.638 465.69 357.762 465.69 409.675 413.773L823.729 0H53.164Z" fill="#394BB2"/>
<path d="M937.563 0L799.649 137.924C727.409 210.17 727.409 327.453 799.649 399.699C871.89 471.945 989.163 471.945 1061.4 399.699L1314.71 146.369C1325.66 135.422 1343.49 135.422 1354.43 146.369C1365.38 157.315 1365.38 175.142 1354.43 186.088L979.468 561.392C938.501 602.363 938.501 668.354 979.468 709.325C1020.44 750.295 1086.42 750.295 1127.39 709.325L1387.27 449.427C1399.15 437.542 1418.23 437.542 1429.8 449.427C1441.68 461.311 1441.68 480.389 1429.8 491.961L1425.11 496.652C1338.79 582.972 1338.79 722.773 1425.11 809.093L1619 1003V0H937.563Z" fill="#394BB2"/>
<path d="M1486.72 0C1440.43 52.2298 1377.89 123.225 1377.89 123.225L1392.27 137.299C1415.73 159.817 1452.94 159.191 1475.46 135.735L1605.24 0H1486.72Z" fill="#4356C1"/>
<path d="M1166.17 0L1003.24 162.944C985.41 180.771 985.41 209.232 1003.24 227.059C1021.06 244.886 1049.52 244.886 1067.35 227.059L1168.98 125.101C1174.92 119.159 1184.93 119.159 1190.87 125.101C1196.82 131.044 1196.82 141.052 1190.87 146.994L1156.16 181.71C1146.47 191.405 1146.47 206.73 1156.16 216.425C1165.86 226.121 1181.18 226.121 1190.87 216.425L1284.07 123.225C1305.02 102.27 1336.61 98.2045 1361.31 111.34C1367.25 114.468 1372.57 118.221 1377.57 123.225L1380.07 125.727L1506.1 0H1166.17Z" fill="#4356C1"/>
</g>
</svg>
