<svg width="1910" height="320" viewBox="0 0 1910 320" fill="none" xmlns="http://www.w3.org/2000/svg">
<path d="M1356.91 0L1338 1.44715L1367.15 30.6127C1387.4 50.8728 1420.22 50.8728 1440.36 30.6127L1457.05 13.9149C1460.61 10.3527 1466.28 10.3527 1469.84 13.9149L1469.96 14.0262C1473.63 17.6997 1473.63 23.5996 1469.96 27.2732C1464.39 32.8391 1425.67 71.5781 1416.88 80.3723C1398.41 98.8512 1398.41 128.796 1416.88 147.275C1435.35 165.754 1465.28 165.754 1483.75 147.275L1631.06 0H1356.91Z" fill="#394BB2"/>
<path d="M1866.94 0C1850.47 18.5903 1828.22 43.8597 1828.22 43.8597L1833.33 48.869C1841.68 56.884 1854.92 56.6614 1862.93 48.3124L1909.1 0H1866.94Z" fill="#5266D7"/>
<path d="M1752.89 0L1694.93 57.9972C1688.58 64.3424 1688.58 74.4724 1694.93 80.8176C1701.27 87.1628 1711.39 87.1628 1717.73 80.8176L1753.89 44.5276C1756.01 42.4125 1759.57 42.4125 1761.68 44.5276C1763.8 46.6427 1763.8 50.2049 1761.68 52.3199L1749.33 64.6763C1745.88 68.1272 1745.88 73.5818 1749.33 77.0327C1752.78 80.4836 1758.23 80.4836 1761.68 77.0327L1794.84 43.8597C1802.29 36.4013 1813.53 34.9542 1822.32 39.6296C1824.43 40.7427 1826.33 42.0786 1828.11 43.8597L1829 44.7502L1873.83 0H1752.89Z" fill="#4356C1"/>
<path d="M528.907 0L547 1.38229L519.115 29.2407C499.744 48.5928 468.347 48.5928 449.082 29.2407L433.117 13.2912C429.712 9.88868 424.284 9.88868 420.878 13.2912L420.771 13.3976C417.259 16.9065 417.259 22.5419 420.771 26.0508C426.093 31.3673 463.131 68.3701 471.54 76.7702C489.207 94.4209 489.207 123.024 471.54 140.674C453.872 158.325 425.241 158.325 407.574 140.674L266.657 0H528.907Z" fill="#394BB2"/>
<path d="M41.0202 0C56.7721 17.7571 78.0586 41.894 78.0586 41.894L73.1627 46.6788C65.1803 54.3346 52.5149 54.1219 44.8517 46.1472L0.682312 0H41.0202Z" fill="#4356C1"/>
<path d="M150.114 0L205.565 55.3979C211.632 61.4587 211.632 71.1347 205.565 77.1955C199.499 83.2563 189.813 83.2563 183.747 77.1955L149.156 42.532C147.134 40.5117 143.728 40.5117 141.706 42.532C139.684 44.5522 139.684 47.9548 141.706 49.9751L153.52 61.7777C156.819 65.0739 156.819 70.2841 153.52 73.5803C150.22 76.8765 145.005 76.8765 141.706 73.5803L109.989 41.894C102.858 34.7699 92.1085 33.3876 83.7003 37.8534C81.6781 38.9167 79.8688 40.1927 78.1658 41.894L77.3144 42.7446L34.4222 0H150.114Z" fill="#5266D7"/>
<circle cx="823.5" cy="228.5" r="74.5" fill="#3D4FBA"/>
<circle opacity="0.5" cx="1380.5" cy="192.5" r="127.5" fill="#3D4FBA"/>
</svg>
