<svg width="16" height="12" viewBox="0 0 16 12" fill="none" xmlns="http://www.w3.org/2000/svg">
<path d="M15.6571 0.352941C15.5429 0.235294 15.4286 0.117647 15.3143 0.117647C15.2 0 14.9714 0 14.8571 0C14.7429 0 14.5143 0 14.4 0.117647C14.2857 0.235294 14.1714 0.235294 14.0571 0.352941L5.48571 9.17647L1.94286 5.52941C1.82857 5.41176 1.71429 5.29412 1.6 5.29412C1.48571 5.29412 1.25714 5.17647 1.14286 5.17647C1.02857 5.17647 0.8 5.17647 0.685714 5.29412C0.571429 5.41177 0.457143 5.41176 0.342857 5.52941C0.228571 5.64706 0.114286 5.76471 0.114286 5.88235C0.114286 6 0 6.23529 0 6.35294C0 6.47059 0 6.70588 0.114286 6.82353C0.228571 6.94118 0.228571 7.05882 0.342857 7.17647L4.68571 11.6471C4.8 11.7647 4.91429 11.8824 5.02857 11.8824C5.14286 11.8824 5.37143 12 5.48571 12C5.6 12 5.82857 12 5.94286 11.8824C6.05714 11.7647 6.17143 11.7647 6.28571 11.6471L15.6571 2C15.7714 1.88235 15.8857 1.76471 15.8857 1.64706C16 1.52941 16 1.29412 16 1.17647C16 1.05882 16 0.823529 15.8857 0.705882C15.8857 0.588235 15.7714 0.470588 15.6571 0.352941Z" fill="#48EEF9"/>
</svg>
