<svg width="24" height="24" viewBox="0 0 24 24" fill="none" xmlns="http://www.w3.org/2000/svg">
<path d="M14.8 12L23.4 3.4C23.8 3 24 2.6 24 2C24 1.4 23.8 1 23.4 0.6C23 0.2 22.6 0 22 0C21.4 0 21 0.2 20.6 0.6L12 9.2L3.4 0.6C3 0.2 2.6 0 2 0C1.4 0 1 0.2 0.6 0.6C0.2 1 0 1.4 0 2C0 2.6 0.2 3 0.6 3.4L9.2 12L0.6 20.6C0.4 20.8 0.2 21 0.2 21.2C0 21.4 0 21.8 0 22C0 22.2 0 22.6 0.2 22.8C0.4 23 0.4 23.2 0.6 23.4C0.8 23.6 1 23.8 1.2 23.8C1.4 24 1.8 24 2 24C2.2 24 2.6 24 2.8 23.8C3 23.6 3.2 23.6 3.4 23.4L12 14.8L20.6 23.4C20.8 23.6 21 23.8 21.2 23.8C21.4 24 21.8 24 22 24C22.2 24 22.6 24 22.8 23.8C23 23.6 23.2 23.6 23.4 23.4C23.6 23.2 23.8 23 23.8 22.8C24 22.6 24 22.2 24 22C24 21.8 24 21.4 23.8 21.2C23.6 21 23.6 20.8 23.4 20.6L14.8 12Z" fill="#959AC5"/>
</svg>
