<svg width="212" height="212" viewBox="0 0 212 212" fill="none" xmlns="http://www.w3.org/2000/svg">
<g clip-path="url(#clip0_548_673)">
<path d="M142.954 0C145.219 1.21458 145.937 3.09167 145.882 5.63125C145.771 12.5323 145.827 19.4333 145.827 26.3344C145.827 30.8615 143.396 32.6281 139.088 30.9719C135.994 29.8125 133.012 28.3771 129.973 27.1073C123.4 24.3469 115.998 27.549 113.513 34.174C111.082 40.7438 114.507 47.9208 121.191 50.2396C124.45 51.3438 127.543 51.0125 130.636 49.6323C133.398 48.3625 136.16 47.0927 138.977 45.9885C143.341 44.3323 145.882 46.099 145.882 50.6813C145.882 57.6375 145.882 64.5938 145.882 71.6052C145.882 75.5802 144.501 76.9604 140.524 76.9604C120.307 76.9604 100.09 76.9604 79.8734 76.9604C79.0449 76.9604 78.2163 76.9604 77.2773 76.9604C77.2773 81.7083 77.2773 86.3458 77.2773 91.2594C88.7113 85.4073 98.9854 86.2906 106.829 97.2219C111.8 104.178 111.524 113.784 106.277 120.465C98.2674 130.623 88.2694 131.285 77.1115 125.489C77.1115 130.678 77.1115 135.536 77.1115 140.395C77.1115 144.204 75.6754 145.64 71.864 145.695C67.2241 145.695 62.6394 145.695 57.9995 145.695C54.9615 145.695 53.0834 144.094 53.0834 141.554C53.0834 139.07 54.9615 137.414 57.9443 137.414C61.4794 137.414 64.9594 137.414 68.7707 137.414C68.7707 135.923 68.7707 134.488 68.7707 133.052C68.7707 128.801 68.7707 124.495 68.7707 120.244C68.7707 116.269 71.3116 114.392 75.0678 115.772C78.2715 116.931 81.42 118.477 84.5686 119.802C91.1418 122.563 98.5988 119.416 101.084 112.791C103.57 106.221 100.145 98.9885 93.517 96.6698C90.4237 95.6208 87.4409 95.7865 84.4581 97.0563C81.42 98.3813 78.382 99.7063 75.2887 100.921C71.2564 102.467 68.7707 100.7 68.7707 96.3938C68.7707 90.1 68.7707 83.8615 68.7155 77.5677C68.7155 77.4573 68.6603 77.2917 68.5498 77.0708C64.3518 77.0708 60.0985 77.0708 55.6796 77.0708C61.5347 88.6646 60.6509 98.9885 49.493 106.773C42.2017 111.852 32.5352 111.079 25.5753 105.503C21.3221 102.08 18.8364 97.6083 18.0078 92.1427C17.1793 86.7875 18.8364 81.9292 21.4878 77.0708C16.9583 77.0708 12.7603 77.0708 8.39659 77.0708C8.39659 97.0563 8.39659 117.097 8.39659 137.358C12.1527 137.358 55.1824 137.303 58.9385 137.358C61.369 137.414 63.0813 139.07 63.1918 141.278C63.3023 143.321 61.8109 145.143 59.7119 145.529C59.6566 145.529 59.6014 145.529 59.4909 145.529C53.9672 145.529 9.22515 145.695 3.70144 145.419C2.37574 145.364 1.16053 143.652 -0.0546875 142.658C0.000549603 95.2896 0.000549603 47.7 0.000549603 0C47.6149 0 95.2845 0 142.954 0ZM8.39659 68.7344C14.4727 68.7344 20.383 68.7344 26.3486 68.7344C30.8229 68.7344 32.6457 71.274 31.099 75.4698C30.0495 78.2854 28.7791 81.0458 27.5086 83.8063C26.0725 86.8979 25.741 89.9896 26.7905 93.2469C28.9448 99.9271 36.1809 103.46 42.7541 101.086C49.4378 98.7125 52.752 91.3146 50.0454 84.7448C48.7197 81.4875 47.2283 78.2854 45.9578 75.0281C44.5217 71.274 46.3445 68.7344 50.3768 68.7344C55.8453 68.7344 61.2585 68.7344 66.727 68.7344C67.3898 68.7344 68.0527 68.7344 68.7155 68.7344C68.7155 64.2073 68.7155 60.0667 68.7155 55.5948C57.6128 61.3365 47.6149 60.674 39.6055 50.5156C34.358 43.8354 34.0818 34.174 39.0532 27.2729C46.8968 16.3969 57.1709 15.4583 68.605 21.3104C68.605 16.8385 68.605 12.5875 68.605 8.39167C48.4435 8.39167 28.4477 8.39167 8.39659 8.39167C8.39659 28.4875 8.39659 48.4729 8.39659 68.7344ZM77.0563 8.39167C77.0563 14.4646 77.0563 20.4271 77.0563 26.3344C77.0563 30.8615 74.6259 32.6281 70.3174 30.9719C67.2793 29.8125 64.3518 28.4875 61.369 27.1625C58.3862 25.8927 55.3481 25.6719 52.3101 26.776C45.6816 29.0948 42.2569 36.3271 44.7426 42.8969C47.2283 49.4667 54.5748 52.6135 61.0928 49.9635C64.3518 48.6385 67.5003 47.0375 70.8145 45.8229C74.5706 44.4427 77.0563 46.3198 77.1115 50.2948C77.1115 55.65 77.1115 61.0604 77.1115 66.4156C77.1115 67.1333 77.1115 67.851 77.1115 68.5688C97.4388 68.5688 117.435 68.5688 137.486 68.5688C137.486 64.2073 137.486 60.0115 137.486 55.5396C126.991 61.1708 117.324 60.6188 109.26 51.5646C103.681 45.2708 102.631 35.7198 107.105 28.5979C114.673 16.5073 125.334 15.2375 137.541 21.2552C137.541 16.7833 137.541 12.6427 137.541 8.33646C117.324 8.39167 97.3283 8.39167 77.0563 8.39167Z" fill="white"/>
<path d="M117.877 170.483C114.231 166.839 110.807 163.472 107.437 160.049C104.51 157.123 104.51 155.246 107.382 152.32C112.077 147.627 116.717 142.934 121.412 138.242C124.45 135.205 127.433 135.757 129.201 139.677C130.526 142.548 131.631 145.529 132.791 148.455C134.945 153.921 140.027 157.344 145.496 156.792C151.461 156.24 155.935 151.933 156.874 145.971C157.703 140.56 154.444 135.039 149.141 132.886C146.048 131.672 142.955 130.568 139.917 129.187C135.719 127.31 135.277 124.329 138.48 121.127C143.176 116.434 147.816 111.742 152.566 107.104C155.273 104.399 157.261 104.399 160.023 107.159C175.103 122.231 190.182 137.303 205.262 152.375C207.969 155.08 207.969 157.123 205.317 159.828C201.837 163.306 198.357 166.729 194.712 170.373C207.251 174.458 213.934 182.463 211.504 195.879C209.957 204.602 202.39 210.951 193.386 211.889C188.028 212.442 183.167 210.951 178.804 207.694C174.44 204.436 172.175 199.854 170.573 194.444C167.369 197.646 164.331 200.517 161.514 203.553C157.095 208.356 155.217 208.246 150.798 203.498C148.036 200.517 145.109 197.701 141.96 194.554C137.376 207.804 128.814 214.705 114.728 210.841C106.001 208.467 100.974 201.786 100.477 192.732C99.925 180.807 106.553 173.851 117.877 170.483ZM156.212 197.204C160.465 192.953 164.497 188.923 168.529 184.893C171.181 182.298 174.329 182.795 175.876 186.162C177.257 189.254 178.472 192.401 179.743 195.493C181.897 201.013 187.144 204.326 192.723 203.663C198.523 203.001 203.053 198.474 203.771 192.732C204.434 187.156 201.175 181.856 195.651 179.703C192.834 178.599 189.961 177.605 187.2 176.391C182.504 174.348 182.007 171.422 185.598 167.833C189.409 163.969 193.276 160.159 196.866 156.571C183.112 142.824 169.524 129.298 156.101 115.882C153.56 118.422 150.854 121.127 148.202 123.777C156.543 127.366 158.2 128.415 160.741 131.727C164 135.923 165.547 140.726 165.105 146.026C164.331 155.411 157.758 162.864 148.755 164.742C144.391 165.68 140.138 165.183 135.995 163.361C129.256 160.38 125.665 154.804 123.787 148.234C120.97 151.05 118.264 153.755 115.447 156.626C119.368 160.491 123.456 164.466 127.433 168.551C130.084 171.256 129.532 174.348 126.107 175.894C122.959 177.329 119.755 178.544 116.551 179.813C111.249 181.911 107.934 187.211 108.597 192.567C109.371 198.584 113.734 203.056 119.589 203.774C125.279 204.436 130.526 201.069 132.681 195.437C133.785 192.567 134.835 189.641 136.105 186.825C137.983 182.684 140.966 182.187 144.17 185.389C148.257 189.144 152.124 193.063 156.212 197.204Z" fill="#48EEF9"/>
<path d="M8.39453 68.7343C8.39453 48.4729 8.39453 28.4874 8.39453 8.3916C28.5008 8.3916 48.4967 8.3916 68.603 8.3916C68.603 12.6426 68.603 16.8937 68.603 21.3103C57.1689 15.4583 46.8948 16.3416 39.0511 27.2729C34.0798 34.1739 34.356 43.8354 39.6035 50.5156C47.6129 60.6739 57.6108 61.3364 68.7135 55.5947C68.7135 60.0114 68.7135 64.2072 68.7135 68.7343C68.0506 68.7343 67.3878 68.7343 66.7249 68.7343C61.2564 68.7343 55.8432 68.7343 50.3747 68.7343C46.3424 68.7343 44.5196 71.2187 45.9558 75.0281C47.171 78.2853 48.6624 81.4874 50.0433 84.7447C52.7499 91.3145 49.4357 98.7124 42.752 101.086C36.1788 103.46 28.9427 99.8718 26.7885 93.2468C25.739 89.9895 26.1256 86.8979 27.5066 83.8062C28.777 81.0458 30.0475 78.2853 31.097 75.4697C32.6989 71.2739 30.876 68.7343 26.3466 68.7343C20.381 68.7343 14.4706 68.7343 8.39453 68.7343Z" fill="#142173"/>
<path d="M77.0571 8.3916C97.3291 8.3916 117.325 8.3916 137.431 8.3916C137.431 12.6426 137.431 16.8385 137.431 21.3103C125.224 15.2926 114.563 16.5624 106.996 28.6531C102.521 35.7749 103.571 45.3812 109.15 51.6197C117.27 60.6739 126.881 61.226 137.376 55.5947C137.376 60.0666 137.376 64.2624 137.376 68.6239C117.325 68.6239 97.3291 68.6239 77.0018 68.6239C77.0018 67.9062 77.0018 67.1885 77.0018 66.4708C77.0018 61.1156 77.0018 55.7051 77.0018 50.3499C77.0018 46.3749 74.4609 44.4978 70.7048 45.8781C67.3906 47.0926 64.2421 48.6385 60.9831 50.0187C54.5756 52.6135 47.229 49.4666 44.7434 42.8968C42.2577 36.3822 45.6272 29.0947 52.3108 26.776C55.4041 25.727 58.3869 25.8926 61.3697 27.1624C64.3525 28.4322 67.2801 29.8124 70.3181 30.9718C74.6266 32.6281 77.0571 30.8614 77.0571 26.3343C77.0571 20.3718 77.0571 14.4645 77.0571 8.3916Z" fill="#142173"/>
<path d="M156.212 197.204C152.125 193.064 148.258 189.144 144.336 185.279C141.133 182.077 138.15 182.574 136.272 186.715C135.001 189.53 133.952 192.456 132.847 195.327C130.693 200.958 125.39 204.326 119.756 203.664C113.901 203.001 109.537 198.474 108.764 192.456C108.101 187.156 111.415 181.801 116.718 179.703C119.922 178.433 123.125 177.219 126.274 175.783C129.699 174.238 130.251 171.146 127.6 168.441C123.567 164.355 119.48 160.38 115.613 156.516C118.485 153.645 121.192 150.94 123.954 148.124C125.777 154.694 129.422 160.27 136.161 163.251C140.249 165.073 144.502 165.57 148.921 164.631C157.925 162.754 164.498 155.301 165.271 145.916C165.713 140.616 164.167 135.813 160.908 131.617C158.367 128.304 156.71 127.255 148.369 123.667C151.02 121.017 153.727 118.312 156.268 115.772C169.69 129.188 183.279 142.769 197.033 156.461C193.332 160.104 189.465 163.969 185.654 167.778C182.063 171.367 182.561 174.238 187.256 176.336C190.018 177.55 192.89 178.544 195.707 179.648C201.175 181.801 204.49 187.101 203.827 192.677C203.109 198.419 198.579 202.946 192.779 203.608C187.2 204.271 181.953 200.958 179.799 195.438C178.583 192.291 177.368 189.144 175.932 186.107C174.385 182.74 171.237 182.243 168.586 184.838C164.498 188.923 160.466 192.953 156.212 197.204Z" fill="#142173"/>
</g>
<defs>
<clipPath id="clip0_548_673">
<rect width="212" height="212" fill="white"/>
</clipPath>
</defs>
</svg>
