<svg width="268" height="268" viewBox="0 0 268 268" fill="none" xmlns="http://www.w3.org/2000/svg">
<g opacity="0.3" clip-path="url(#clip0)">
<path d="M159.714 14.4634C148.681 14.4634 143.25 15.9948 137.479 17.6964C131.369 19.398 125.089 21.2697 112.529 21.2697C99.9696 21.2697 93.6897 19.398 87.5795 17.6964C83.3363 16.5053 79.0931 15.3142 72.6434 14.8037C68.7397 16.8456 65.1754 18.8875 61.4414 21.2697C62.6295 21.2697 63.9873 21.2697 65.3451 21.2697C77.905 21.2697 84.1849 23.1415 90.2951 24.8431C96.0659 26.5447 101.327 28.0761 112.529 28.0761C123.562 28.0761 128.993 26.5447 134.594 24.8431C140.704 23.1415 146.984 21.2697 159.544 21.2697C172.104 21.2697 178.384 23.1415 184.494 24.8431C190.265 26.5447 195.526 28.0761 206.728 28.0761C209.953 28.0761 212.839 27.9059 215.215 27.7358C212.329 25.5237 209.444 23.4818 206.389 21.4399C194.168 21.4399 187.889 19.5681 181.778 17.8666C176.177 15.9948 170.746 14.4634 159.714 14.4634Z" fill="#BABDD9"/>
<path d="M206.898 71.8068C194.338 71.8068 188.058 69.9351 181.948 68.2335C176.177 66.5319 170.916 65.0005 159.714 65.0005C148.512 65.0005 143.25 66.5319 137.479 68.2335C131.369 69.9351 125.089 71.8068 112.529 71.8068C99.9696 71.8068 93.6897 69.9351 87.5795 68.2335C81.8087 66.5319 76.5472 65.0005 65.3452 65.0005C54.3129 65.0005 48.8816 66.5319 43.2806 68.2335C37.1704 69.9351 30.8904 71.8068 18.3306 71.8068C17.3122 71.8068 16.2939 71.8068 15.2755 71.8068C14.0874 73.8487 13.069 76.0608 12.0507 78.2729C13.9177 78.443 15.9544 78.443 18.3306 78.443C29.3629 78.443 34.7942 76.9116 40.5649 75.21C46.6751 73.5084 52.955 71.6367 65.5149 71.6367C78.0747 71.6367 84.3547 73.5084 90.4649 75.21C96.2356 76.9116 101.497 78.443 112.699 78.443C123.731 78.443 129.163 76.9116 134.764 75.21C140.874 73.5084 147.154 71.6367 159.714 71.6367C172.274 71.6367 178.554 73.5084 184.664 75.21C190.434 76.9116 195.696 78.443 206.898 78.443C217.93 78.443 223.362 76.9116 229.132 75.21C235.073 73.5084 241.183 71.8068 252.555 71.6367C251.367 69.4246 250.179 67.2125 248.991 65.1706C241.183 65.511 236.77 66.8722 232.018 68.2335C225.738 69.9351 219.458 71.8068 206.898 71.8068Z" fill="#BABDD9"/>
<path d="M181.948 34.5421C176.177 32.8405 170.916 31.3091 159.714 31.3091C148.512 31.3091 143.25 32.8405 137.479 34.5421C131.369 36.2437 125.089 38.1154 112.53 38.1154C99.9697 38.1154 93.6897 36.2437 87.5795 34.5421C81.8088 32.8405 76.5472 31.3091 65.3452 31.3091C54.9918 31.3091 49.5605 32.6704 44.299 34.2018C41.2439 36.9243 38.3585 39.817 35.4731 42.8799C37.1704 42.5396 38.698 42.0291 40.2255 41.5186C46.3357 39.817 52.6156 37.9453 65.1755 37.9453C77.7353 37.9453 84.0153 39.817 90.1254 41.5186C95.8962 43.2202 101.158 44.7516 112.36 44.7516C123.392 44.7516 128.823 43.2202 134.424 41.5186C140.535 39.817 146.814 37.9453 159.374 37.9453C171.934 37.9453 178.214 39.817 184.324 41.5186C190.095 43.2202 195.357 44.7516 206.559 44.7516C217.591 44.7516 223.022 43.2202 228.793 41.5186C229.302 41.3484 229.811 41.1783 230.32 41.0081C228.793 39.3065 227.096 37.7751 225.398 36.0735C220.816 37.0945 215.215 37.9453 206.728 37.9453C194.338 38.1154 188.058 36.2437 181.948 34.5421Z" fill="#BABDD9"/>
<path d="M152.925 267.149C150.548 267.32 148.512 267.66 146.814 267.83C148.851 267.83 150.888 267.49 152.925 267.149Z" fill="#BABDD9"/>
<path d="M231.848 84.9093C225.738 86.6109 219.458 88.4826 206.898 88.4826C194.338 88.4826 188.058 86.6109 181.948 84.9093C176.177 83.2077 170.916 81.6763 159.714 81.6763C148.512 81.6763 143.25 83.2077 137.479 84.9093C131.369 86.6109 125.089 88.4826 112.53 88.4826C99.9697 88.4826 93.8595 86.781 87.7493 84.9093C81.9785 83.2077 76.717 81.6763 65.5149 81.6763C54.4826 81.6763 49.0513 83.2077 43.4503 84.9093C37.3401 86.6109 31.0602 88.4826 18.5004 88.4826C14.4269 88.4826 11.0323 88.3125 8.14696 87.9721C7.46805 90.0141 6.61941 92.056 6.11023 94.268C9.50478 94.7785 13.4085 95.1188 18.6701 95.1188C29.7024 95.1188 35.1337 93.5874 40.9044 91.8858C47.0146 90.1842 53.2945 88.3125 65.8544 88.3125C78.4142 88.3125 84.6942 90.1842 90.8044 91.8858C96.5751 93.5874 101.837 95.1188 113.039 95.1188C124.071 95.1188 129.502 93.5874 135.103 91.8858C140.874 90.1842 147.324 88.4826 159.714 88.4826C172.104 88.4826 178.554 90.3544 184.664 92.056C190.435 93.7575 195.696 95.289 206.898 95.289C217.93 95.289 223.362 93.7575 229.132 92.056C235.243 90.3544 241.523 88.4826 254.082 88.4826C256.289 88.4826 258.326 88.4826 260.193 88.6528C259.344 86.4407 258.495 84.0585 257.647 81.8464C256.628 81.8464 255.44 81.8464 254.252 81.8464C242.88 81.8464 237.619 83.3779 231.848 84.9093Z" fill="#BABDD9"/>
<path d="M206.898 54.9611C194.338 54.9611 188.058 53.0894 181.948 51.3878C176.177 49.6862 170.916 48.1548 159.714 48.1548C148.512 48.1548 143.25 49.6862 137.479 51.3878C131.369 53.0894 125.089 54.9611 112.529 54.9611C99.9696 54.9611 93.6897 53.0894 87.5795 51.3878C81.8088 49.6862 76.5472 48.1548 65.3452 48.1548C54.3129 48.1548 48.8816 49.6862 43.2806 51.3878C38.5282 52.7491 33.6061 54.1103 25.7986 54.791C24.1014 57.003 22.5738 59.3853 21.0463 61.5973C30.2116 61.4272 35.1337 59.8957 40.3952 58.3643C46.5054 56.6627 52.7853 54.791 65.3452 54.791C77.905 54.791 84.185 56.6627 90.2952 58.3643C96.0659 60.0659 101.327 61.5973 112.529 61.5973C123.562 61.5973 128.993 60.0659 134.594 58.3643C140.704 56.6627 146.984 54.791 159.544 54.791C172.104 54.791 178.384 56.6627 184.494 58.3643C190.265 60.0659 195.526 61.5973 206.728 61.5973C217.761 61.5973 223.192 60.0659 228.963 58.3643C232.866 57.1732 236.77 56.1522 242.371 55.4716C241.013 53.5999 239.486 51.558 237.958 49.6862C235.752 50.1967 233.715 50.7072 231.678 51.3878C225.738 53.0894 219.458 54.9611 206.898 54.9611Z" fill="#BABDD9"/>
<path d="M231.848 169.138C225.738 170.839 219.458 172.711 206.898 172.711C194.338 172.711 188.058 170.839 181.948 169.138C176.177 167.436 170.916 165.905 159.714 165.905C148.512 165.905 143.25 167.436 137.479 169.138C131.369 170.839 125.089 172.711 112.53 172.711C99.9697 172.711 93.6897 170.839 87.5795 169.138C81.8088 167.436 76.5472 165.905 65.3452 165.905C54.3129 165.905 48.8816 167.436 43.2806 169.138C37.1704 170.839 30.8905 172.711 18.3306 172.711C13.0691 172.711 8.82588 172.371 5.2616 171.86C5.94051 174.243 6.61942 176.455 7.46806 178.667C10.5232 179.007 13.9177 179.347 18.3306 179.347C29.3629 179.347 34.7942 177.816 40.565 176.114C46.6751 174.413 52.9551 172.541 65.5149 172.541C78.0748 172.541 84.3547 174.413 90.4649 176.114C96.2356 177.816 101.497 179.347 112.699 179.347C123.732 179.347 129.163 177.816 134.764 176.114C140.874 174.413 147.154 172.541 159.714 172.541C172.274 172.541 178.554 174.413 184.664 176.114C190.435 177.816 195.696 179.347 206.898 179.347C217.93 179.347 223.362 177.816 229.132 176.114C235.243 174.413 241.523 172.541 254.082 172.541C257.137 172.541 259.853 172.711 262.399 172.881C263.078 170.839 263.587 168.627 264.096 166.415C261.381 166.075 257.986 165.905 254.082 165.905C242.88 165.905 237.619 167.436 231.848 169.138Z" fill="#BABDD9"/>
<path d="M159.714 250.133C148.681 250.133 143.25 251.665 137.479 253.366C131.369 255.068 125.089 256.94 112.53 256.94C99.9697 256.94 93.6897 255.068 87.5795 253.366C81.9785 251.835 76.717 250.303 66.1938 250.133C71.4554 253.196 76.8867 255.919 82.4877 258.301C85.3731 258.982 87.919 259.662 90.4649 260.343C96.2356 262.044 101.497 263.576 112.699 263.576C123.732 263.576 129.163 262.044 134.764 260.343C140.874 258.641 147.154 256.769 159.714 256.769C170.407 256.769 176.687 258.131 181.948 259.662C185.003 258.471 188.228 257.11 191.113 255.749C187.549 255.068 184.664 254.217 181.778 253.366C176.177 251.665 170.746 250.133 159.714 250.133Z" fill="#BABDD9"/>
<path d="M206.898 206.403C194.338 206.403 188.058 204.531 181.948 202.829C176.177 201.128 170.916 199.596 159.714 199.596C148.512 199.596 143.25 201.128 137.479 202.829C131.369 204.531 125.089 206.403 112.529 206.403C99.9696 206.403 93.6896 204.531 87.5794 202.829C81.8087 201.128 76.5471 199.596 65.3451 199.596C54.3128 199.596 48.8815 201.128 43.2805 202.829C37.5098 204.531 31.739 206.232 20.8765 206.403C22.2343 208.615 23.7618 210.657 25.2894 212.869C31.9088 212.358 36.152 211.167 40.5649 209.976C46.6751 208.274 52.955 206.403 65.5148 206.403C78.0747 206.403 84.3546 208.274 90.4648 209.976C96.2355 211.677 101.497 213.209 112.699 213.209C123.731 213.209 129.163 211.677 134.764 209.976C140.874 208.274 147.154 206.403 159.714 206.403C172.274 206.403 178.553 208.274 184.664 209.976C190.434 211.677 195.696 213.209 206.898 213.209C217.93 213.209 223.362 211.677 229.132 209.976C234.054 208.615 238.977 207.083 246.954 206.573C248.312 204.361 249.669 202.149 251.027 199.766C242.032 200.107 237.11 201.468 231.848 202.999C225.738 204.531 219.458 206.403 206.898 206.403Z" fill="#BABDD9"/>
<path d="M206.898 223.248C194.338 223.248 188.058 221.377 181.948 219.675C176.177 217.973 170.916 216.442 159.714 216.442C148.512 216.442 143.25 217.973 137.479 219.675C131.369 221.377 125.089 223.248 112.53 223.248C99.9697 223.248 93.6897 221.377 87.5795 219.675C81.8088 217.973 76.5472 216.442 65.3452 216.442C54.3129 216.442 48.8816 217.973 43.2806 219.675C40.0558 220.526 36.831 221.547 32.5878 222.227C34.1153 224.099 35.8126 225.801 37.5099 227.502C38.5282 227.162 39.5466 226.992 40.565 226.651C46.6752 224.95 52.9551 223.078 65.5149 223.078C78.0748 223.078 84.3547 224.95 90.4649 226.651C96.2356 228.353 101.497 229.884 112.699 229.884C123.732 229.884 129.163 228.353 134.764 226.651C140.874 224.95 147.154 223.078 159.714 223.078C172.274 223.078 178.554 224.95 184.664 226.651C190.435 228.353 195.696 229.884 206.898 229.884C217.93 229.884 223.362 228.353 229.132 226.651C230.151 226.311 230.999 226.141 232.018 225.801C234.394 223.248 236.77 220.526 238.977 217.803C236.431 218.314 234.224 218.994 232.018 219.675C225.738 221.377 219.458 223.248 206.898 223.248Z" fill="#BABDD9"/>
<path d="M231.848 135.446C225.738 137.148 219.458 139.02 206.898 139.02C194.338 139.02 188.058 137.148 181.948 135.446C176.177 133.745 170.916 132.213 159.714 132.213C148.512 132.213 143.25 133.745 137.479 135.446C131.369 137.148 125.089 139.02 112.529 139.02C99.9696 139.02 93.6897 137.148 87.5795 135.446C81.8087 133.745 76.5472 132.213 65.3452 132.213C54.3129 132.213 48.8816 133.745 43.2806 135.446C37.1704 137.148 30.8904 139.02 18.3306 139.02C10.1837 139.02 4.58265 138.339 0 137.318C0 139.53 0.169728 141.572 0.339455 143.784C4.9221 144.975 10.0139 145.826 18.5003 145.826C29.5326 145.826 34.9639 144.295 40.7346 142.593C46.8448 140.891 53.1248 139.02 65.6846 139.02C78.2445 139.02 84.5244 140.891 90.6346 142.593C96.4053 144.295 101.667 145.826 112.869 145.826C123.901 145.826 129.332 144.295 134.934 142.593C141.044 140.891 147.324 139.02 159.883 139.02C172.443 139.02 178.723 140.891 184.833 142.593C190.604 144.295 195.866 145.826 207.068 145.826C218.1 145.826 223.531 144.295 229.302 142.593C235.412 140.891 241.692 139.02 254.252 139.02C260.023 139.02 264.436 139.36 268 140.041C268 138.169 268.17 136.297 268.17 134.425C268.17 134.085 268.17 133.915 268.17 133.575C264.605 132.894 260.193 132.384 254.252 132.384C242.88 132.213 237.619 133.915 231.848 135.446Z" fill="#BABDD9"/>
<path d="M181.948 236.521C176.177 234.819 170.916 233.288 159.714 233.288C148.512 233.288 143.25 234.819 137.479 236.521C131.369 238.222 125.089 240.094 112.529 240.094C99.9696 240.094 93.8594 238.222 87.7492 236.521C81.9784 234.819 76.7169 233.288 65.5148 233.288C56.3496 233.288 50.9183 234.309 46.1659 235.67C48.2026 237.371 50.2394 239.073 52.2761 240.775C55.8404 240.264 60.0836 239.924 65.3451 239.924C77.905 239.924 84.1849 241.796 90.2951 243.497C96.0658 245.199 101.327 246.73 112.529 246.73C123.562 246.73 128.993 245.199 134.594 243.497C140.704 241.796 146.984 239.924 159.544 239.924C172.104 239.924 178.384 241.796 184.494 243.497C190.265 245.199 195.526 246.73 206.728 246.73C206.898 246.73 206.898 246.73 207.068 246.73C210.462 244.518 213.687 242.136 216.912 239.583C214.027 239.924 210.632 240.094 206.728 240.094C194.338 240.094 188.058 238.222 181.948 236.521Z" fill="#BABDD9"/>
<path d="M112.699 4.42413C108.286 4.42413 104.722 4.25397 101.667 3.74349C97.5935 4.76444 93.52 5.95556 89.4465 7.48698C89.786 7.65714 90.2952 7.65714 90.6346 7.8273C96.4054 9.52889 101.667 11.0603 112.869 11.0603C123.901 11.0603 129.333 9.52889 134.934 7.8273C141.044 6.12571 147.324 4.25397 159.884 4.25397C163.618 4.25397 167.012 4.42413 169.728 4.76444C160.223 2.0419 150.549 0.510476 140.535 0C139.516 0.340317 138.668 0.510476 137.649 0.850794C131.539 2.55238 125.089 4.42413 112.699 4.42413Z" fill="#BABDD9"/>
<path d="M231.848 152.292C225.738 153.994 219.458 155.865 206.898 155.865C194.338 155.865 188.058 153.994 181.948 152.292C176.177 150.591 170.916 149.059 159.714 149.059C148.512 149.059 143.25 150.591 137.479 152.292C131.369 153.994 125.089 155.865 112.529 155.865C99.9696 155.865 93.6896 153.994 87.5794 152.292C81.8087 150.591 76.5471 149.059 65.3451 149.059C54.3128 149.059 48.8815 150.591 43.2805 152.292C37.1703 153.994 30.8904 155.865 18.3306 155.865C10.8625 155.865 5.60098 155.185 1.35779 154.334C1.69724 156.546 2.20643 158.758 2.54588 160.97C6.61935 161.821 11.202 162.502 18.3306 162.502C29.3629 162.502 34.7941 160.97 40.5649 159.269C46.6751 157.567 52.955 155.695 65.5148 155.695C78.0747 155.695 84.3546 157.567 90.4648 159.269C96.2356 160.97 101.497 162.502 112.699 162.502C123.731 162.502 129.163 160.97 134.764 159.269C140.874 157.567 147.154 155.695 159.714 155.695C172.274 155.695 178.553 157.567 184.664 159.269C190.434 160.97 195.696 162.502 206.898 162.502C217.93 162.502 223.362 160.97 229.132 159.269C235.243 157.567 241.522 155.695 254.082 155.695C259.004 155.695 262.908 156.036 266.133 156.376C266.472 154.334 266.812 152.122 266.982 150.08C263.587 149.57 259.514 149.059 253.913 149.059C242.88 149.059 237.619 150.761 231.848 152.292Z" fill="#BABDD9"/>
<path d="M231.848 101.755C225.738 103.456 219.458 105.328 206.898 105.328C194.338 105.328 188.058 103.456 181.948 101.755C176.177 100.053 170.916 98.5217 159.714 98.5217C148.512 98.5217 143.25 100.053 137.479 101.755C131.369 103.456 125.089 105.328 112.529 105.328C99.9696 105.328 93.6897 103.456 87.5795 101.755C81.8087 100.053 76.5472 98.5217 65.3452 98.5217C54.3129 98.5217 48.8816 100.053 43.2806 101.755C37.1704 103.456 30.8904 105.328 18.3306 105.328C11.8809 105.328 7.12857 104.818 3.22484 104.137C2.71565 106.179 2.3762 108.221 2.03674 110.263C6.11021 111.284 11.0323 111.964 18.3306 111.964C29.3629 111.964 34.7942 110.433 40.5649 108.731C46.6751 107.03 52.955 105.158 65.5149 105.158C78.0747 105.158 84.3547 107.03 90.4649 108.731C96.2356 110.433 101.497 111.964 112.699 111.964C123.731 111.964 129.163 110.433 134.764 108.731C140.874 107.03 147.154 105.158 159.714 105.158C172.274 105.158 178.554 107.03 184.664 108.731C190.434 110.433 195.696 111.964 206.898 111.964C217.93 111.964 223.362 110.433 229.132 108.731C235.243 107.03 241.522 105.158 254.082 105.158C258.326 105.158 261.89 105.328 264.945 105.668C264.436 103.456 263.927 101.074 263.248 98.862C260.532 98.5217 257.647 98.3516 253.913 98.3516C242.88 98.6919 237.619 100.223 231.848 101.755Z" fill="#BABDD9"/>
<path d="M231.848 118.601C225.738 120.302 219.458 122.174 206.898 122.174C194.338 122.174 188.058 120.302 181.948 118.601C176.177 116.899 170.916 115.368 159.714 115.368C148.512 115.368 143.25 116.899 137.479 118.601C131.369 120.302 125.089 122.174 112.529 122.174C99.9696 122.174 93.6897 120.302 87.5795 118.601C81.8087 116.899 76.5472 115.368 65.3452 115.368C54.3129 115.368 48.8816 116.899 43.2806 118.601C37.1704 120.302 30.8904 122.174 18.3306 122.174C10.5231 122.174 5.09183 121.493 0.509183 120.472C0.339455 122.514 0.169728 124.556 0 126.768C4.58265 127.959 9.67448 128.81 18.3306 128.81C29.3629 128.81 34.7942 127.279 40.5649 125.577C46.6751 123.876 52.955 122.004 65.5149 122.004C78.0747 122.004 84.3547 123.876 90.4649 125.577C96.2356 127.279 101.497 128.81 112.699 128.81C123.731 128.81 129.163 127.279 134.764 125.577C140.874 123.876 147.154 122.004 159.714 122.004C172.274 122.004 178.554 123.876 184.664 125.577C190.434 127.279 195.696 128.81 206.898 128.81C217.93 128.81 223.362 127.279 229.132 125.577C235.243 123.876 241.522 122.004 254.082 122.004C259.683 122.004 263.927 122.344 267.491 122.855C267.321 120.643 267.151 118.431 266.812 116.218C263.417 115.708 259.344 115.368 254.082 115.368C242.88 115.538 237.619 117.069 231.848 118.601Z" fill="#BABDD9"/>
<path d="M231.848 185.983C225.738 187.685 219.458 189.557 206.898 189.557C194.338 189.557 188.058 187.685 181.948 185.983C176.177 184.282 170.916 182.75 159.714 182.75C148.512 182.75 143.25 184.282 137.479 185.983C131.369 187.685 125.089 189.557 112.529 189.557C99.9696 189.557 93.6896 187.685 87.5794 185.983C81.8087 184.282 76.5471 182.75 65.3451 182.75C54.3128 182.75 48.8815 184.282 43.2805 185.983C37.1703 187.685 30.8904 189.557 18.3306 189.557C15.9544 189.557 13.7479 189.557 11.7112 189.387C12.7295 191.599 13.7479 193.981 14.936 196.193C15.9544 196.193 17.1425 196.193 18.3306 196.193C29.3629 196.193 34.7941 194.662 40.5649 192.96C46.6751 191.258 52.955 189.387 65.5148 189.387C78.0747 189.387 84.3546 191.258 90.4648 192.96C96.2355 194.662 101.497 196.193 112.699 196.193C123.731 196.193 129.163 194.662 134.764 192.96C140.874 191.258 147.154 189.387 159.714 189.387C172.274 189.387 178.553 191.258 184.664 192.96C190.434 194.662 195.696 196.193 206.898 196.193C217.93 196.193 223.362 194.662 229.132 192.96C235.243 191.258 241.522 189.387 254.082 189.387C254.761 189.387 255.44 189.387 256.119 189.387C257.137 187.175 257.986 185.133 258.835 182.921C257.307 182.921 255.78 182.75 253.913 182.75C242.88 182.75 237.619 184.282 231.848 185.983Z" fill="#BABDD9"/>
</g>
<defs>
<clipPath id="clip0">
<rect width="268" height="268" fill="white"/>
</clipPath>
</defs>
</svg>
