<svg width="401" height="206" viewBox="0 0 401 206" fill="none" xmlns="http://www.w3.org/2000/svg">
<path d="M127 21H372V87" stroke="white" stroke-width="4"/>
<g clip-path="url(#clip0_583_31)">
<path d="M173.296 175.267C177.085 171.988 179.822 171.605 184.067 173.628C184.348 173.767 184.875 173.698 185.12 173.523C189.19 170.209 193.225 166.86 196.91 163.791C196.839 161.628 196.524 159.744 196.804 157.965C197.366 154.616 200.138 152.139 203.436 151.546C206.769 150.953 210.138 152.419 211.997 155.244C213.822 158.035 213.857 161.732 211.892 164.488C211.331 165.291 211.401 165.744 211.892 166.512C216.875 173.872 221.822 181.232 226.734 188.628C227.225 189.395 227.682 189.639 228.629 189.36C229.471 189.151 230.418 189.186 231.331 189.291C232.138 189.395 232.489 189.116 232.839 188.453C238.278 178.512 243.717 168.57 249.19 158.663C249.646 157.86 249.576 157.372 248.98 156.674C246.383 153.535 246.489 149 249.12 145.965C251.822 142.826 256.278 142.093 259.857 144.151C263.331 146.174 264.91 150.43 263.541 154.232C262.138 158.07 258.278 160.407 254.243 159.744C253.471 159.605 253.225 159.884 252.945 160.442C247.436 170.488 241.962 180.535 236.418 190.546C236.032 191.244 236.103 191.628 236.629 192.221C238.91 194.872 239.26 198.57 237.611 201.605C235.997 204.57 232.699 206.279 229.366 205.93C225.927 205.581 223.015 203.139 222.103 199.826C221.296 196.93 222.032 194.349 223.927 191.977C223.26 191 222.629 190.058 221.997 189.116C217.436 182.314 212.875 175.512 208.348 168.709C207.892 168.046 207.506 167.802 206.664 168.012C204.313 168.605 202.103 168.081 200.032 166.686C197.015 169.163 194.032 171.639 191.05 174.116C190.103 174.884 189.19 175.721 188.208 176.453C187.506 176.977 187.366 177.43 187.646 178.302C189.155 182.872 186.559 187.616 181.962 188.942C177.436 190.232 172.699 187.546 171.541 182.942C171.331 182.035 171.26 181.058 171.331 180.151C171.401 179.314 171.225 178.93 170.489 178.546C167.576 177.151 164.664 175.721 161.787 174.221C161.05 173.837 160.629 173.872 159.997 174.43C157.155 177.012 153.05 177.291 149.857 175.232C146.699 173.174 145.296 169.267 146.418 165.674C147.541 162.116 150.945 159.744 154.769 159.884C159.436 160.058 163.015 163.93 162.769 168.674C162.699 169.756 163.05 170.244 163.997 170.663C167.085 172.163 170.138 173.732 173.296 175.267ZM255.436 147.326C253.085 147.326 251.26 149.174 251.296 151.546C251.331 153.814 253.155 155.663 255.436 155.663C257.752 155.663 259.682 153.779 259.682 151.477C259.682 149.209 257.787 147.326 255.436 147.326ZM230.243 193.407C227.892 193.372 225.997 195.221 225.962 197.558C225.962 199.826 227.892 201.779 230.173 201.779C232.453 201.779 234.313 199.93 234.348 197.663C234.453 195.291 232.629 193.407 230.243 193.407ZM158.594 168.221C158.594 165.884 156.664 164.035 154.348 164.07C152.067 164.105 150.208 165.953 150.208 168.221C150.208 170.523 152.067 172.407 154.418 172.407C156.769 172.407 158.594 170.558 158.594 168.221ZM179.682 184.965C182.032 184.965 183.927 183.081 183.892 180.779C183.892 178.477 181.892 176.558 179.611 176.593C177.331 176.628 175.506 178.477 175.471 180.744C175.471 183.116 177.331 184.965 179.682 184.965ZM209.155 159.884C209.155 157.546 207.26 155.698 204.945 155.698C202.664 155.698 200.804 157.546 200.769 159.814C200.734 162.151 202.594 164.035 204.91 164.07C207.26 164.07 209.12 162.221 209.155 159.884Z" fill="#48EEF9"/>
<path d="M255.442 147.326C257.793 147.326 259.687 149.175 259.687 151.477C259.687 153.779 257.757 155.663 255.442 155.663C253.161 155.663 251.301 153.814 251.301 151.547C251.266 149.175 253.091 147.326 255.442 147.326Z" fill="#142173"/>
<path d="M230.242 193.407C232.593 193.442 234.418 195.291 234.383 197.663C234.347 199.93 232.488 201.779 230.207 201.779C227.926 201.779 225.961 199.826 225.997 197.558C225.997 195.221 227.926 193.372 230.242 193.407Z" fill="#142173"/>
<path d="M158.593 168.221C158.593 170.593 156.769 172.407 154.418 172.407C152.067 172.407 150.172 170.523 150.208 168.221C150.208 165.988 152.102 164.105 154.348 164.07C156.664 164 158.593 165.884 158.593 168.221Z" fill="#142173"/>
<path d="M179.688 184.965C177.337 184.965 175.477 183.116 175.512 180.744C175.547 178.477 177.372 176.628 179.653 176.593C181.933 176.558 183.898 178.477 183.933 180.779C183.933 183.081 182.003 184.965 179.688 184.965Z" fill="#142173"/>
<path d="M209.156 159.884C209.156 162.221 207.261 164.07 204.91 164.035C202.559 164.035 200.735 162.116 200.77 159.779C200.805 157.512 202.665 155.698 204.945 155.663C207.261 155.663 209.156 157.547 209.156 159.884Z" fill="#142173"/>
</g>
<g clip-path="url(#clip1_583_31)">
<path d="M340.633 203C338.835 202.732 337.064 202.544 335.267 202.222C325.098 200.345 316.539 195.517 309.644 187.845C303.098 180.576 299.18 172.046 298.241 162.31C296.846 147.825 301.407 135.353 311.791 125.133C319.222 117.784 328.291 113.68 338.647 112.526C341.196 112.231 343.772 112.285 346.428 112.178C346.428 126.367 346.428 140.369 346.428 154.477C360.54 154.477 374.546 154.477 388.658 154.477C388.658 156.301 388.739 158.045 388.631 159.762C388.068 169.525 384.875 178.296 378.731 185.914C371.058 195.409 361.158 201.015 349.004 202.625C348.091 202.759 347.152 202.866 346.24 203C344.389 203 342.511 203 340.633 203ZM317.881 187.416C327.674 196.241 344.013 200.291 359.038 193.719C374.385 187.014 381.951 172.315 382.46 160.566C382.058 160.566 381.682 160.566 381.28 160.566C369.448 160.566 357.616 160.566 345.784 160.539C345.006 160.539 344.496 160.754 343.96 161.29C335.508 169.767 327.03 178.216 318.578 186.692C318.31 186.933 318.096 187.175 317.881 187.416ZM313.373 182.856C321.879 174.353 330.384 165.85 338.835 157.401C330.464 149.032 321.986 140.556 313.508 132.08C300.093 147.289 301.595 169.901 313.373 182.856ZM340.391 118.427C331.859 119.152 324.427 122.236 318.122 127.494C325.581 134.977 333.04 142.407 340.391 149.757C340.391 139.483 340.391 129.049 340.391 118.427Z" fill="white"/>
<path d="M401.002 148.469C384.877 148.469 368.753 148.469 352.574 148.469C352.574 132.322 352.574 116.228 352.574 100.027C354.291 100.027 356.062 99.9465 357.806 100.054C366.633 100.537 374.709 103.246 381.846 108.449C392.524 116.255 398.883 126.689 400.627 139.859C400.761 140.771 400.868 141.71 401.002 142.622C401.002 144.58 401.002 146.538 401.002 148.469ZM358.584 142.38C370.684 142.38 382.704 142.38 394.751 142.38C393.731 122.505 376.077 106.786 358.584 106.304C358.584 118.32 358.584 130.31 358.584 142.38Z" fill="white"/>
<path d="M317.879 187.416C318.094 187.175 318.335 186.933 318.55 186.692C327.001 178.216 335.479 169.766 343.931 161.29C344.467 160.754 345.004 160.513 345.755 160.539C357.587 160.566 369.419 160.566 381.251 160.566C381.654 160.566 382.029 160.566 382.432 160.566C381.922 172.315 374.356 187.014 359.009 193.719C344.011 200.264 327.672 196.241 317.879 187.416Z" fill="#142173"/>
<path d="M313.372 182.856C301.593 169.9 300.091 147.289 313.506 132.08C321.984 140.556 330.462 149.032 338.833 157.401C330.382 165.85 321.877 174.353 313.372 182.856Z" fill="#142173"/>
<path d="M340.39 118.427C340.39 129.049 340.39 139.51 340.39 149.757C333.039 142.407 325.58 134.95 318.121 127.494C324.426 122.236 331.858 119.152 340.39 118.427Z" fill="#142173"/>
<path d="M358.582 142.38C358.582 130.31 358.582 118.32 358.582 106.303C376.075 106.759 393.702 122.478 394.749 142.38C382.702 142.38 370.682 142.38 358.582 142.38Z" fill="#48EEF9"/>
</g>
<path d="M0 99.4599C0 73.699 0.039666 47.9381 0 22.1772C0 12.8204 3.88726 5.85264 12.4154 1.9905C15.2714 0.716389 18.6827 0.119151 21.8163 0.119151C45.2985 -0.0401132 68.7411 -0.000297232 92.2234 0.0395187C105.115 0.0793346 113.96 9.03792 113.96 22.0179C114 73.699 114 125.34 113.96 177.021C113.96 188.21 107.177 196.69 96.7453 198.641C95.1983 198.92 93.6117 198.96 92.025 198.96C68.6221 198.96 45.2192 199 21.8559 198.96C8.88518 198.96 0.0793319 190.161 0.039666 177.141C0 151.26 0 125.34 0 99.4599ZM103.925 36.5507C72.5491 36.5507 41.2923 36.5507 10.0355 36.5507C10.0355 75.1722 10.0355 113.595 10.0355 152.097C41.4113 152.097 72.6681 152.097 103.925 152.097C103.925 113.475 103.925 75.0129 103.925 36.5507ZM103.965 162.369C72.5491 162.369 41.3716 162.369 10.2338 162.369C10.1148 162.608 9.99582 162.727 9.99582 162.847C9.95616 167.625 9.91649 172.363 9.91649 177.141C9.91649 184.785 14.2004 189.046 21.8163 189.046C35.6994 189.046 49.6221 189.046 63.5052 189.046C73.4217 189.046 83.3382 189.086 93.215 189.006C99.0063 188.966 103.528 185.064 103.885 179.331C104.242 173.756 103.965 168.182 103.965 162.369ZM104.044 26.3578C104.044 24.5263 104.084 22.8939 104.044 21.2614C103.766 14.4927 99.3236 9.9935 92.5804 9.9935C68.8601 9.95368 45.1002 9.95368 21.38 9.9935C16.7787 9.9935 13.2881 11.9445 11.1065 16.0455C9.40084 19.3104 9.91649 22.8142 9.99582 26.3578C41.4113 26.3578 72.5491 26.3578 104.044 26.3578Z" fill="#FFF9F9"/>
<path d="M103.962 162.369C103.962 168.182 104.24 173.796 103.883 179.331C103.526 185.104 99.0038 189.006 93.2126 189.006C83.2961 189.086 73.4193 189.006 63.5028 189.046C49.6197 189.046 35.6969 189.046 21.8139 189.046C14.198 189.046 9.91406 184.786 9.91406 177.141C9.91406 172.363 9.95373 167.625 9.99339 162.847C9.99339 162.727 10.1124 162.608 10.2314 162.369C41.3692 162.369 72.5466 162.369 103.962 162.369ZM56.8786 180.645C59.8932 180.645 62.9078 180.645 65.9224 180.645C69.3337 180.605 71.555 178.654 71.555 175.707C71.5946 172.721 69.3733 170.73 65.9621 170.73C59.9328 170.691 53.8639 170.691 47.8347 170.73C44.5028 170.73 42.2022 172.841 42.2418 175.747C42.2815 178.614 44.5424 180.605 47.7554 180.645C50.8493 180.645 53.8639 180.645 56.8786 180.645Z" fill="#142173"/>
<path d="M104.042 26.3579C72.5471 26.3579 41.4094 26.3579 9.99392 26.3579C9.91459 22.8143 9.35926 19.3105 11.1046 16.0455C13.2862 11.9445 16.7768 9.99353 21.3781 9.99353C45.0983 9.99353 68.8582 9.95371 92.5785 9.99353C99.3217 9.99353 103.804 14.4927 104.042 21.2614C104.121 22.8939 104.042 24.5662 104.042 26.3579Z" fill="#142173"/>
<path d="M56.8821 180.645C53.8675 180.645 50.8529 180.685 47.8383 180.645C44.6254 180.605 42.3644 178.614 42.3247 175.747C42.2851 172.841 44.546 170.731 47.9176 170.731C53.9469 170.691 60.0158 170.691 66.045 170.731C69.4563 170.731 71.6379 172.761 71.6379 175.708C71.5982 178.654 69.4166 180.645 66.0053 180.645C62.9114 180.645 59.8968 180.645 56.8821 180.645Z" fill="#48EEF9"/>
<defs>
<clipPath id="clip0_583_31">
<rect width="118" height="63" fill="white" transform="translate(146 143)"/>
</clipPath>
<clipPath id="clip1_583_31">
<rect width="103" height="103" fill="white" transform="translate(298 100)"/>
</clipPath>
</defs>
</svg>
