<svg width="430" height="98" viewBox="0 0 430 98" fill="none" xmlns="http://www.w3.org/2000/svg">
<g clip-path="url(#clip0)">
<path d="M314.4 7C312.5 7 310.9 5.4 310.9 3.5C310.9 1.6 312.5 -2.36042e-07 314.4 -1.5299e-07C316.3 -6.99382e-08 317.9 1.6 317.9 3.5C317.9 5.5 316.3 7 314.4 7Z" fill="#3546AB"/>
<path d="M314.4 37.2C312.5 37.2 310.9 35.6 310.9 33.7C310.9 31.8 312.5 30.2 314.4 30.2C316.3 30.2 317.9 31.8 317.9 33.7C317.9 35.6 316.3 37.2 314.4 37.2Z" fill="#3546AB"/>
<path d="M314.4 67.3999C312.5 67.3999 310.9 65.7999 310.9 63.8999C310.9 61.9999 312.5 60.3999 314.4 60.3999C316.3 60.3999 317.9 61.9999 317.9 63.8999C317.9 65.7999 316.3 67.3999 314.4 67.3999Z" fill="#3546AB"/>
<path d="M314.4 97.6001C312.5 97.6001 310.9 96.0001 310.9 94.1001C310.9 92.2001 312.5 90.6001 314.4 90.6001C316.3 90.6001 317.9 92.2001 317.9 94.1001C317.9 96.0001 316.3 97.6001 314.4 97.6001Z" fill="#3546AB"/>
<path d="M285.7 7C283.8 7 282.2 5.4 282.2 3.5C282.2 1.6 283.8 -2.36042e-07 285.7 -1.5299e-07C287.6 -6.99382e-08 289.2 1.6 289.2 3.5C289.2 5.5 287.7 7 285.7 7Z" fill="#3546AB"/>
<path d="M285.7 37.2C283.8 37.2 282.2 35.6 282.2 33.7C282.2 31.8 283.8 30.2 285.7 30.2C287.6 30.2 289.2 31.8 289.2 33.7C289.2 35.6 287.7 37.2 285.7 37.2Z" fill="#3546AB"/>
<path d="M285.7 67.3999C283.8 67.3999 282.2 65.7999 282.2 63.8999C282.2 61.9999 283.8 60.3999 285.7 60.3999C287.6 60.3999 289.2 61.9999 289.2 63.8999C289.2 65.7999 287.7 67.3999 285.7 67.3999Z" fill="#3546AB"/>
<path d="M285.7 97.6001C283.8 97.6001 282.2 96.0001 282.2 94.1001C282.2 92.2001 283.8 90.6001 285.7 90.6001C287.6 90.6001 289.2 92.2001 289.2 94.1001C289.2 96.0001 287.7 97.6001 285.7 97.6001Z" fill="#3546AB"/>
<path d="M257.1 7C255.2 7 253.6 5.4 253.6 3.5C253.6 1.6 255.2 -2.36042e-07 257.1 -1.5299e-07C259 -6.99382e-08 260.6 1.6 260.6 3.5C260.6 5.5 259 7 257.1 7Z" fill="#3546AB"/>
<path d="M257.1 37.2C255.2 37.2 253.6 35.6 253.6 33.7C253.6 31.8 255.2 30.2 257.1 30.2C259 30.2 260.6 31.8 260.6 33.7C260.6 35.6 259 37.2 257.1 37.2Z" fill="#3546AB"/>
<path d="M257.1 67.3999C255.2 67.3999 253.6 65.7999 253.6 63.8999C253.6 61.9999 255.2 60.3999 257.1 60.3999C259 60.3999 260.6 61.9999 260.6 63.8999C260.6 65.7999 259 67.3999 257.1 67.3999Z" fill="#3546AB"/>
<path d="M257.1 97.6001C255.2 97.6001 253.6 96.0001 253.6 94.1001C253.6 92.2001 255.2 90.6001 257.1 90.6001C259 90.6001 260.6 92.2001 260.6 94.1001C260.6 96.0001 259 97.6001 257.1 97.6001Z" fill="#3546AB"/>
<path d="M228.5 7C226.6 7 225 5.4 225 3.5C225 1.6 226.6 -2.36042e-07 228.5 -1.5299e-07C230.4 -6.99382e-08 232 1.6 232 3.5C232 5.5 230.4 7 228.5 7Z" fill="#3546AB"/>
<path d="M228.5 37.2C226.6 37.2 225 35.6 225 33.7C225 31.8 226.6 30.2 228.5 30.2C230.4 30.2 232 31.8 232 33.7C232 35.6 230.4 37.2 228.5 37.2Z" fill="#3546AB"/>
<path d="M228.5 67.3999C226.6 67.3999 225 65.7999 225 63.8999C225 61.9999 226.6 60.3999 228.5 60.3999C230.4 60.3999 232 61.9999 232 63.8999C232 65.7999 230.4 67.3999 228.5 67.3999Z" fill="#3546AB"/>
<path d="M228.5 97.6001C226.6 97.6001 225 96.0001 225 94.1001C225 92.2001 226.6 90.6001 228.5 90.6001C230.4 90.6001 232 92.2001 232 94.1001C232 96.0001 230.4 97.6001 228.5 97.6001Z" fill="#3546AB"/>
<path d="M425.8 7C423.8 7 422.3 5.5 422.3 3.5C422.3 1.6 423.8 -2.40413e-07 425.8 -1.5299e-07C427.7 -6.99382e-08 429.3 1.6 429.3 3.5C429.3 5.5 427.7 7 425.8 7Z" fill="#3546AB"/>
<path d="M425.8 37.2C423.9 37.2 422.3 35.6 422.3 33.7C422.3 31.8 423.9 30.2 425.8 30.2C427.7 30.2 429.3 31.8 429.3 33.7C429.3 35.6 427.7 37.2 425.8 37.2Z" fill="#3546AB"/>
<path d="M425.8 67.3999C423.9 67.3999 422.3 65.7999 422.3 63.8999C422.3 61.9999 423.9 60.3999 425.8 60.3999C427.7 60.3999 429.3 61.9999 429.3 63.8999C429.3 65.7999 427.7 67.3999 425.8 67.3999Z" fill="#3546AB"/>
<path d="M425.8 97.6001C423.8 97.6001 422.3 96.0001 422.3 94.1001C422.3 92.2001 423.9 90.6001 425.8 90.6001C427.7 90.6001 429.3 92.2001 429.3 94.1001C429.3 96.0001 427.7 97.6001 425.8 97.6001Z" fill="#3546AB"/>
<path d="M397.2 7C395.3 7 393.7 5.4 393.7 3.5C393.7 1.6 395.3 -2.36041e-07 397.2 -1.5299e-07C399.1 -6.99381e-08 400.7 1.6 400.7 3.5C400.7 5.5 399.1 7 397.2 7Z" fill="#3546AB"/>
<path d="M397.2 37.2C395.3 37.2 393.7 35.6 393.7 33.7C393.7 31.8 395.3 30.2 397.2 30.2C399.1 30.2 400.7 31.8 400.7 33.7C400.7 35.6 399.1 37.2 397.2 37.2Z" fill="#3546AB"/>
<path d="M397.2 67.3999C395.3 67.3999 393.7 65.7999 393.7 63.8999C393.7 61.9999 395.3 60.3999 397.2 60.3999C399.1 60.3999 400.7 61.9999 400.7 63.8999C400.7 65.7999 399.1 67.3999 397.2 67.3999Z" fill="#3546AB"/>
<path d="M397.2 97.6001C395.3 97.6001 393.7 96.0001 393.7 94.1001C393.7 92.2001 395.3 90.6001 397.2 90.6001C399.1 90.6001 400.7 92.2001 400.7 94.1001C400.7 96.0001 399.1 97.6001 397.2 97.6001Z" fill="#3546AB"/>
<path d="M368.5 7C366.6 7 365 5.4 365 3.5C365 1.6 366.6 -2.36042e-07 368.5 -1.5299e-07C370.4 -6.99382e-08 372 1.6 372 3.5C372 5.5 370.5 7 368.5 7Z" fill="#3546AB"/>
<path d="M368.5 37.2C366.6 37.2 365 35.6 365 33.7C365 31.8 366.6 30.2 368.5 30.2C370.4 30.2 372 31.8 372 33.7C372 35.6 370.5 37.2 368.5 37.2Z" fill="#3546AB"/>
<path d="M368.5 67.3999C366.6 67.3999 365 65.7999 365 63.8999C365 61.9999 366.6 60.3999 368.5 60.3999C370.4 60.3999 372 61.9999 372 63.8999C372 65.7999 370.5 67.3999 368.5 67.3999Z" fill="#3546AB"/>
<path d="M368.5 97.6001C366.6 97.6001 365 96.0001 365 94.1001C365 92.2001 366.6 90.6001 368.5 90.6001C370.4 90.6001 372 92.2001 372 94.1001C372 96.0001 370.5 97.6001 368.5 97.6001Z" fill="#3546AB"/>
<path d="M339.9 7C338 7 336.4 5.4 336.4 3.5C336.4 1.6 338 -2.36042e-07 339.9 -1.5299e-07C341.8 -6.99382e-08 343.4 1.6 343.4 3.5C343.4 5.5 341.8 7 339.9 7Z" fill="#3546AB"/>
<path d="M339.9 37.2C338 37.2 336.4 35.6 336.4 33.7C336.4 31.8 338 30.2 339.9 30.2C341.8 30.2 343.4 31.8 343.4 33.7C343.4 35.6 341.8 37.2 339.9 37.2Z" fill="#3546AB"/>
<path d="M339.9 67.3999C338 67.3999 336.4 65.7999 336.4 63.8999C336.4 61.9999 338 60.3999 339.9 60.3999C341.8 60.3999 343.4 61.9999 343.4 63.8999C343.4 65.7999 341.8 67.3999 339.9 67.3999Z" fill="#3546AB"/>
<path d="M339.9 97.6001C338 97.6001 336.4 96.0001 336.4 94.1001C336.4 92.2001 338 90.6001 339.9 90.6001C341.8 90.6001 343.4 92.2001 343.4 94.1001C343.4 96.0001 341.8 97.6001 339.9 97.6001Z" fill="#3546AB"/>
</g>
<g clip-path="url(#clip1)">
<path d="M89.4 7C87.5 7 85.9 5.4 85.9 3.5C85.9 1.6 87.5 -2.36042e-07 89.4 -1.5299e-07C91.3 -6.99382e-08 92.9 1.6 92.9 3.5C92.9 5.5 91.3 7 89.4 7Z" fill="#3546AB"/>
<path d="M89.4 37.2C87.5 37.2 85.9 35.6 85.9 33.7C85.9 31.8 87.5 30.2 89.4 30.2C91.3 30.2 92.9 31.8 92.9 33.7C92.9 35.6 91.3 37.2 89.4 37.2Z" fill="#3546AB"/>
<path d="M89.4 67.3999C87.5 67.3999 85.9 65.7999 85.9 63.8999C85.9 61.9999 87.5 60.3999 89.4 60.3999C91.3 60.3999 92.9 61.9999 92.9 63.8999C92.9 65.7999 91.3 67.3999 89.4 67.3999Z" fill="#3546AB"/>
<path d="M89.4 97.6001C87.5 97.6001 85.9 96.0001 85.9 94.1001C85.9 92.2001 87.5 90.6001 89.4 90.6001C91.3 90.6001 92.9 92.2001 92.9 94.1001C92.9 96.0001 91.3 97.6001 89.4 97.6001Z" fill="#3546AB"/>
<path d="M60.7001 7C58.8001 7 57.2001 5.4 57.2001 3.5C57.2001 1.6 58.8001 -2.36042e-07 60.7001 -1.5299e-07C62.6001 -6.99382e-08 64.2001 1.6 64.2001 3.5C64.2001 5.5 62.7001 7 60.7001 7Z" fill="#3546AB"/>
<path d="M60.7001 37.2C58.8001 37.2 57.2001 35.6 57.2001 33.7C57.2001 31.8 58.8001 30.2 60.7001 30.2C62.6001 30.2 64.2001 31.8 64.2001 33.7C64.2001 35.6 62.7001 37.2 60.7001 37.2Z" fill="#3546AB"/>
<path d="M60.7001 67.3999C58.8001 67.3999 57.2001 65.7999 57.2001 63.8999C57.2001 61.9999 58.8001 60.3999 60.7001 60.3999C62.6001 60.3999 64.2001 61.9999 64.2001 63.8999C64.2001 65.7999 62.7001 67.3999 60.7001 67.3999Z" fill="#3546AB"/>
<path d="M60.7001 97.6001C58.8001 97.6001 57.2001 96.0001 57.2001 94.1001C57.2001 92.2001 58.8001 90.6001 60.7001 90.6001C62.6001 90.6001 64.2001 92.2001 64.2001 94.1001C64.2001 96.0001 62.7001 97.6001 60.7001 97.6001Z" fill="#3546AB"/>
<path d="M32.1 7C30.2 7 28.6 5.4 28.6 3.5C28.6 1.6 30.2 -2.36042e-07 32.1 -1.5299e-07C34 -6.99382e-08 35.6 1.6 35.6 3.5C35.6 5.5 34 7 32.1 7Z" fill="#3546AB"/>
<path d="M32.1 37.2C30.2 37.2 28.6 35.6 28.6 33.7C28.6 31.8 30.2 30.2 32.1 30.2C34 30.2 35.6 31.8 35.6 33.7C35.6 35.6 34 37.2 32.1 37.2Z" fill="#3546AB"/>
<path d="M32.1 67.3999C30.2 67.3999 28.6 65.7999 28.6 63.8999C28.6 61.9999 30.2 60.3999 32.1 60.3999C34 60.3999 35.6 61.9999 35.6 63.8999C35.6 65.7999 34 67.3999 32.1 67.3999Z" fill="#3546AB"/>
<path d="M32.1 97.6001C30.2 97.6001 28.6 96.0001 28.6 94.1001C28.6 92.2001 30.2 90.6001 32.1 90.6001C34 90.6001 35.6 92.2001 35.6 94.1001C35.6 96.0001 34 97.6001 32.1 97.6001Z" fill="#3546AB"/>
<path d="M3.5 7C1.6 7 -2.36042e-07 5.4 -1.5299e-07 3.5C-6.99382e-08 1.6 1.6 -2.36042e-07 3.5 -1.5299e-07C5.4 -6.99382e-08 7 1.6 7 3.5C7 5.5 5.4 7 3.5 7Z" fill="#3546AB"/>
<path d="M3.5 37.2C1.6 37.2 -2.36042e-07 35.6 -1.5299e-07 33.7C-6.99382e-08 31.8 1.6 30.2 3.5 30.2C5.4 30.2 7 31.8 7 33.7C7 35.6 5.4 37.2 3.5 37.2Z" fill="#3546AB"/>
<path d="M3.5 67.3999C1.6 67.3999 -2.36042e-07 65.7999 -1.5299e-07 63.8999C-6.99382e-08 61.9999 1.6 60.3999 3.5 60.3999C5.4 60.3999 7 61.9999 7 63.8999C7 65.7999 5.4 67.3999 3.5 67.3999Z" fill="#3546AB"/>
<path d="M3.5 97.6001C1.6 97.6001 -2.36042e-07 96.0001 -1.5299e-07 94.1001C-6.99382e-08 92.2001 1.6 90.6001 3.5 90.6001C5.4 90.6001 7 92.2001 7 94.1001C7 96.0001 5.4 97.6001 3.5 97.6001Z" fill="#3546AB"/>
<path d="M200.8 7C198.8 7 197.3 5.5 197.3 3.5C197.3 1.6 198.8 -2.40413e-07 200.8 -1.5299e-07C202.7 -6.99382e-08 204.3 1.6 204.3 3.5C204.3 5.5 202.7 7 200.8 7Z" fill="#3546AB"/>
<path d="M200.8 37.2C198.9 37.2 197.3 35.6 197.3 33.7C197.3 31.8 198.9 30.2 200.8 30.2C202.7 30.2 204.3 31.8 204.3 33.7C204.3 35.6 202.7 37.2 200.8 37.2Z" fill="#3546AB"/>
<path d="M200.8 67.3999C198.9 67.3999 197.3 65.7999 197.3 63.8999C197.3 61.9999 198.9 60.3999 200.8 60.3999C202.7 60.3999 204.3 61.9999 204.3 63.8999C204.3 65.7999 202.7 67.3999 200.8 67.3999Z" fill="#3546AB"/>
<path d="M200.8 97.6001C198.8 97.6001 197.3 96.0001 197.3 94.1001C197.3 92.2001 198.9 90.6001 200.8 90.6001C202.7 90.6001 204.3 92.2001 204.3 94.1001C204.3 96.0001 202.7 97.6001 200.8 97.6001Z" fill="#3546AB"/>
<path d="M172.2 7C170.3 7 168.7 5.4 168.7 3.5C168.7 1.6 170.3 -2.36041e-07 172.2 -1.5299e-07C174.1 -6.99381e-08 175.7 1.6 175.7 3.5C175.7 5.5 174.1 7 172.2 7Z" fill="#3546AB"/>
<path d="M172.2 37.2C170.3 37.2 168.7 35.6 168.7 33.7C168.7 31.8 170.3 30.2 172.2 30.2C174.1 30.2 175.7 31.8 175.7 33.7C175.7 35.6 174.1 37.2 172.2 37.2Z" fill="#3546AB"/>
<path d="M172.2 67.3999C170.3 67.3999 168.7 65.7999 168.7 63.8999C168.7 61.9999 170.3 60.3999 172.2 60.3999C174.1 60.3999 175.7 61.9999 175.7 63.8999C175.7 65.7999 174.1 67.3999 172.2 67.3999Z" fill="#3546AB"/>
<path d="M172.2 97.6001C170.3 97.6001 168.7 96.0001 168.7 94.1001C168.7 92.2001 170.3 90.6001 172.2 90.6001C174.1 90.6001 175.7 92.2001 175.7 94.1001C175.7 96.0001 174.1 97.6001 172.2 97.6001Z" fill="#3546AB"/>
<path d="M143.5 7C141.6 7 140 5.4 140 3.5C140 1.6 141.6 -2.36042e-07 143.5 -1.5299e-07C145.4 -6.99382e-08 147 1.6 147 3.5C147 5.5 145.5 7 143.5 7Z" fill="#3546AB"/>
<path d="M143.5 37.2C141.6 37.2 140 35.6 140 33.7C140 31.8 141.6 30.2 143.5 30.2C145.4 30.2 147 31.8 147 33.7C147 35.6 145.5 37.2 143.5 37.2Z" fill="#3546AB"/>
<path d="M143.5 67.3999C141.6 67.3999 140 65.7999 140 63.8999C140 61.9999 141.6 60.3999 143.5 60.3999C145.4 60.3999 147 61.9999 147 63.8999C147 65.7999 145.5 67.3999 143.5 67.3999Z" fill="#3546AB"/>
<path d="M143.5 97.6001C141.6 97.6001 140 96.0001 140 94.1001C140 92.2001 141.6 90.6001 143.5 90.6001C145.4 90.6001 147 92.2001 147 94.1001C147 96.0001 145.5 97.6001 143.5 97.6001Z" fill="#3546AB"/>
<path d="M114.9 7C113 7 111.4 5.4 111.4 3.5C111.4 1.6 113 -2.36042e-07 114.9 -1.5299e-07C116.8 -6.99382e-08 118.4 1.6 118.4 3.5C118.4 5.5 116.8 7 114.9 7Z" fill="#3546AB"/>
<path d="M114.9 37.2C113 37.2 111.4 35.6 111.4 33.7C111.4 31.8 113 30.2 114.9 30.2C116.8 30.2 118.4 31.8 118.4 33.7C118.4 35.6 116.8 37.2 114.9 37.2Z" fill="#3546AB"/>
<path d="M114.9 67.3999C113 67.3999 111.4 65.7999 111.4 63.8999C111.4 61.9999 113 60.3999 114.9 60.3999C116.8 60.3999 118.4 61.9999 118.4 63.8999C118.4 65.7999 116.8 67.3999 114.9 67.3999Z" fill="#3546AB"/>
<path d="M114.9 97.6001C113 97.6001 111.4 96.0001 111.4 94.1001C111.4 92.2001 113 90.6001 114.9 90.6001C116.8 90.6001 118.4 92.2001 118.4 94.1001C118.4 96.0001 116.8 97.6001 114.9 97.6001Z" fill="#3546AB"/>
</g>
<defs>
<clipPath id="clip0">
<rect width="97.6" height="204.3" fill="white" transform="translate(429.3) rotate(90)"/>
</clipPath>
<clipPath id="clip1">
<rect width="97.6" height="204.3" fill="white" transform="translate(204.3) rotate(90)"/>
</clipPath>
</defs>
</svg>
