<svg width="182" height="182" viewBox="0 0 182 182" fill="none" xmlns="http://www.w3.org/2000/svg">
<path d="M146.69 165.62H34.942C24.386 165.62 15.832 157.066 15.832 146.51V34.58C15.832 24.024 24.386 15.47 34.942 15.47H146.69C157.064 15.652 165.618 24.024 165.618 34.58V146.692C165.618 157.248 157.064 165.62 146.69 165.62Z" fill="#142173"/>
<path d="M32.5786 178.178H58.2406C61.6986 178.178 64.4286 175.448 64.4286 171.99C64.4286 168.532 61.6986 165.802 58.2406 165.802H32.5786C23.4786 165.802 16.0166 158.158 16.0166 148.694V61.152H165.075V64.792C165.075 68.25 167.805 70.98 171.263 70.98C174.721 70.98 177.451 68.25 177.451 64.792V32.942C177.451 16.926 163.983 3.27599 148.149 3.27599H32.5786C16.5626 3.09399 3.64062 16.562 3.64062 32.942V148.876C3.64062 164.892 16.5626 178.178 32.5786 178.178ZM16.0166 32.942C16.0166 23.478 23.6606 15.47 32.5786 15.47H148.149C157.249 15.47 165.075 23.66 165.075 32.942V48.776H16.0166V32.942Z" fill="white"/>
<path d="M144.142 27.8461H141.594C138.136 27.8461 135.406 30.5761 135.406 34.0341C135.406 37.4921 138.136 40.2221 141.594 40.2221H144.142C147.6 40.2221 150.33 37.4921 150.33 34.0341C150.33 30.5761 147.418 27.8461 144.142 27.8461Z" fill="#48EEF9"/>
<path d="M123.213 27.8461H120.665C117.207 27.8461 114.477 30.5761 114.477 34.0341C114.477 37.4921 117.207 40.2221 120.665 40.2221H123.213C126.671 40.2221 129.401 37.4921 129.401 34.0341C129.401 30.5761 126.489 27.8461 123.213 27.8461Z" fill="#48EEF9"/>
<path d="M101.009 27.8461H98.4614C95.0034 27.8461 92.2734 30.5761 92.2734 34.0341C92.2734 37.4921 95.0034 40.2221 98.4614 40.2221H101.009C104.467 40.2221 107.197 37.4921 107.197 34.0341C107.197 30.5761 104.467 27.8461 101.009 27.8461Z" fill="#48EEF9"/>
<path d="M81.5383 89.908H37.6763C34.2183 89.908 31.4883 87.178 31.4883 83.72C31.4883 80.262 34.2183 77.532 37.6763 77.532H81.5383C84.9963 77.532 87.7263 80.262 87.7263 83.72C87.7263 87.178 84.9963 89.908 81.5383 89.908Z" fill="white"/>
<path d="M81.5383 117.39H37.6763C34.2183 117.39 31.4883 114.66 31.4883 111.202C31.4883 107.744 34.2183 105.014 37.6763 105.014H81.5383C84.9963 105.014 87.7263 107.744 87.7263 111.202C87.7263 114.66 84.9963 117.39 81.5383 117.39Z" fill="white"/>
<path d="M81.5383 145.054H37.6763C34.2183 145.054 31.4883 142.324 31.4883 138.866C31.4883 135.408 34.2183 132.678 37.6763 132.678H81.5383C84.9963 132.678 87.7263 135.408 87.7263 138.866C87.7263 142.324 84.9963 145.054 81.5383 145.054Z" fill="white"/>
<path d="M177.085 158.886L135.589 117.39H143.597C144.689 117.39 145.599 117.39 146.145 116.844C147.237 116.844 148.147 115.752 148.693 115.388C149.239 114.842 150.149 113.932 150.149 112.84C150.149 111.748 150.695 111.384 150.695 110.292C150.695 109.2 150.695 108.29 150.149 107.744C149.603 107.198 149.057 105.742 148.693 105.196C148.147 104.65 147.237 103.74 146.145 103.74C145.053 103.74 144.689 103.194 143.597 103.194H118.481C117.389 103.194 116.479 103.194 115.933 103.74C114.477 104.286 112.839 105.742 111.929 107.744C111.383 108.29 111.383 109.2 111.383 110.292V135.59C111.383 136.682 111.383 137.592 111.929 138.138C112.475 138.684 113.021 140.14 113.385 140.686C113.931 141.232 114.841 142.142 115.933 142.142C117.025 142.142 117.389 142.688 118.481 142.688C119.573 142.688 120.483 142.688 121.029 142.142C122.121 142.142 123.031 141.05 123.577 140.686C124.123 140.14 125.033 139.23 125.033 138.138C125.033 137.046 125.579 136.682 125.579 135.59V127.582L167.075 169.078C168.531 170.534 170.169 171.08 172.171 171.08C174.173 171.08 175.629 170.534 177.267 169.078C178.905 167.622 179.269 165.984 179.269 163.982C179.087 161.798 178.541 160.342 177.085 158.886Z" fill="#48EEF9"/>
</svg>
