<svg width="228" height="225" viewBox="0 0 228 225" fill="none" xmlns="http://www.w3.org/2000/svg">
<path d="M225.023 172.217L216.666 168.767C216.248 167.565 215.778 166.416 215.204 165.318L218.651 157.009C219.382 155.232 218.964 153.194 217.606 151.835L212.122 146.243C210.764 144.884 208.727 144.518 206.951 145.198L198.647 148.647C197.498 148.124 196.349 147.654 195.2 147.236L191.752 138.874C191.021 137.15 189.298 136 187.417 136H179.583C177.65 136 175.927 137.15 175.195 138.927L171.748 147.288C170.599 147.706 169.398 148.177 168.301 148.699L159.996 145.25C158.221 144.518 156.184 144.937 154.826 146.295L149.237 151.783C147.879 153.142 147.461 155.18 148.192 156.904L151.64 165.266C151.117 166.363 150.647 167.513 150.229 168.663L141.873 172.164C140.149 172.948 139 174.673 139 176.554V184.393C139 186.327 140.149 187.999 141.925 188.783L150.282 192.285C150.7 193.435 151.17 194.584 151.692 195.682L148.245 204.043C147.513 205.82 147.931 207.858 149.289 209.165L154.826 214.705C156.184 216.063 158.221 216.429 159.996 215.75L168.249 212.301C169.398 212.823 170.547 213.294 171.696 213.712L175.143 222.073C175.874 223.85 177.598 225 179.531 225H187.365C189.298 225 191.021 223.85 191.752 222.073L195.2 213.712C196.349 213.294 197.55 212.823 198.647 212.301L206.951 215.75C208.727 216.482 210.764 216.063 212.122 214.705L217.658 209.165C219.016 207.806 219.434 205.768 218.703 203.991L215.256 195.682C215.778 194.532 216.3 193.382 216.718 192.233L225.075 188.783C226.851 188.052 228 186.327 228 184.393V176.554C227.948 174.673 226.799 172.948 225.023 172.217Z" fill="#142173"/>
<path d="M111.691 30.1708C109.764 30.2228 108.098 31.4195 107.421 33.1884L103.307 43.8541C102.63 45.6231 103.099 47.6522 104.453 48.9529L114.711 58.6821C114.607 61.1274 114.659 63.5207 114.92 65.8619L105.13 76.1635C103.828 77.5162 103.463 79.5973 104.244 81.3142L108.931 91.7718C109.66 93.4887 111.379 94.5813 113.253 94.5813C113.305 94.5813 113.357 94.5813 113.357 94.5813L127.522 94.2171C129.136 95.9861 130.855 97.5989 132.729 99.1598L133.094 113.311C133.146 115.236 134.344 116.901 136.114 117.578L146.789 121.688C147.362 121.896 147.935 122 148.456 122C149.706 122 150.955 121.48 151.893 120.543L161.631 110.294C164.026 110.398 166.421 110.346 168.817 110.138L179.128 119.867C180.482 121.168 182.565 121.532 184.283 120.751L194.75 116.069C196.468 115.288 197.562 113.571 197.562 111.646L197.198 97.4949C198.968 95.882 200.634 94.1131 202.145 92.2921L216.309 91.9279C218.236 91.8759 219.902 90.6792 220.579 88.9103L224.693 78.2446C225.37 76.4756 224.901 74.4465 223.547 73.1458L213.289 63.4166C213.393 60.9713 213.341 58.578 213.08 56.2368L222.87 45.8312C224.172 44.4785 224.537 42.3974 223.756 40.6805L219.069 30.2228C218.288 28.5059 216.621 27.4133 214.747 27.4133C214.695 27.4133 214.643 27.4133 214.643 27.4133L200.478 27.7775C198.864 26.0086 197.145 24.3957 195.271 22.8349L194.906 8.68331C194.854 6.75828 193.656 5.09339 191.886 4.41702L181.211 0.306823C179.44 -0.369539 177.409 0.0987119 176.107 1.45144L166.317 11.753C163.974 11.6489 161.579 11.753 159.235 11.9611L148.872 2.23185C147.466 0.931158 145.435 0.566963 143.717 1.34738L133.25 6.02989C131.532 6.81031 130.438 8.52723 130.438 10.4523L130.802 24.7079C129.032 26.3208 127.418 28.0377 125.907 29.8066L111.691 30.1708Z" fill="#142173"/>
<path d="M2.91043 143.314C1.14338 144.037 0 145.74 0 147.65V160.556C0 162.466 1.14338 164.118 2.91043 164.892L18.0343 171.087C18.9178 173.771 20.0092 176.404 21.2565 178.882L15.0199 193.904C14.2923 195.659 14.7081 197.673 16.0593 198.963L25.2064 208.049C26.5577 209.391 28.5846 209.804 30.3516 209.081L45.4235 202.886C48.0221 204.177 50.6727 205.261 53.3752 206.139L59.6119 221.109C60.3395 222.864 62.0546 224 63.9775 224H76.9705C78.8935 224 80.6086 222.864 81.3362 221.109L87.5728 206.139C90.2753 205.261 92.9259 204.177 95.5245 202.886L110.596 209.081C112.363 209.804 114.39 209.391 115.742 208.049L124.889 198.963C126.24 197.621 126.656 195.608 125.928 193.853L119.691 178.882C120.991 176.353 122.082 173.668 123.018 170.984L138.09 164.789C139.857 164.066 141 162.363 141 160.453V147.547C141 145.637 139.857 143.985 138.09 143.211L123.018 137.016C122.134 134.332 120.991 131.647 119.691 129.118L125.928 114.147C126.656 112.392 126.24 110.379 124.889 109.037L115.742 99.9513C114.39 98.6091 112.363 98.2478 110.596 98.9189L95.5245 105.114C92.9259 103.823 90.2753 102.739 87.5728 101.861L81.3362 86.8909C80.6086 85.1357 78.8935 84 76.9705 84H63.9775C62.0546 84 60.3395 85.1357 59.6119 86.8909L53.3752 101.861C50.6727 102.739 48.0221 103.823 45.4235 105.114L30.3516 98.9189C28.5846 98.1962 26.5577 98.6091 25.2064 99.9513L16.0593 109.14C14.7081 110.482 14.2923 112.496 15.0199 114.199L21.2565 129.221C20.0092 131.699 18.9178 134.332 18.0343 137.016L2.91043 143.314Z" fill="#142173"/>
<path d="M111.774 30.0278C109.849 30.0795 108.184 31.2705 107.507 33.0311L103.396 43.6462C102.72 45.4068 103.188 47.4262 104.541 48.7208L114.792 58.4038C114.688 60.8376 114.74 63.2195 115 65.5496L105.218 75.8023C103.917 77.1486 103.552 79.2199 104.333 80.9286L109.016 91.3367C109.745 93.0454 111.462 94.1328 113.335 94.1328C113.387 94.1328 113.439 94.1328 113.439 94.1328L127.593 93.7704C129.206 95.5309 130.924 97.1361 132.797 98.6896L133.161 112.774C133.213 114.69 134.41 116.347 136.179 117.02L146.847 121.111C147.419 121.318 147.991 121.422 148.512 121.422C149.761 121.422 151.01 120.904 151.946 119.972L161.677 109.771C164.071 109.874 166.464 109.823 168.858 109.615L179.161 119.298C180.514 120.593 182.596 120.955 184.313 120.179L194.772 115.518C196.489 114.742 197.582 113.033 197.582 111.117L197.218 97.0326C198.987 95.4274 200.652 93.6668 202.161 91.8545L216.315 91.492C218.241 91.4402 219.906 90.2493 220.582 88.4887L224.693 77.8736C225.37 76.113 224.901 74.0935 223.548 72.799L213.297 63.1159C213.401 60.6822 213.349 58.3003 213.089 55.9701L222.872 45.6139C224.173 44.2676 224.537 42.1963 223.756 40.4876L219.073 30.0795C218.293 28.3708 216.628 27.2834 214.754 27.2834C214.702 27.2834 214.65 27.2834 214.65 27.2834L200.496 27.6458C198.883 25.8853 197.166 24.28 195.293 22.7266L194.928 8.64214C194.876 6.72623 193.679 5.06924 191.91 4.39608L181.243 0.305368C179.474 -0.367787 177.444 0.0982438 176.143 1.44455L166.36 11.6972C164.019 11.5937 161.625 11.6972 159.283 11.9044L148.928 2.22127C147.523 0.926742 145.494 0.564274 143.777 1.34099L133.317 6.0013C131.6 6.77801 130.507 8.48679 130.507 10.4027L130.872 24.5907C129.102 26.196 127.489 27.9047 125.98 29.6653L111.774 30.0278ZM132.068 37.07C133.942 34.5845 136.127 32.3061 138.625 30.2867C139.718 29.3546 140.394 28.0083 140.342 26.5584L139.978 13.2507L144.713 11.1276L154.392 20.2411C155.433 21.225 156.942 21.691 158.347 21.4839C161.521 21.0178 164.695 20.9143 167.817 21.1732C169.222 21.3285 170.679 20.7589 171.668 19.7233L180.774 10.1438L185.562 11.9561L185.926 25.1085C185.978 26.5584 186.655 27.853 187.799 28.7332C190.401 30.7009 192.743 32.9275 194.772 35.3612C195.709 36.4486 197.114 37.1218 198.519 37.07L211.788 36.7075L213.87 41.4714L204.763 51.0509C203.775 52.0865 203.306 53.5364 203.514 54.9863C203.983 58.0414 204.087 61.3036 203.775 64.5658C203.67 65.9639 204.191 67.362 205.232 68.3458L214.806 77.4075L212.985 82.1714L199.768 82.5339C198.363 82.5856 197.01 83.2588 196.125 84.398C194.148 86.987 191.91 89.3172 189.464 91.4402C188.372 92.3723 187.747 93.7186 187.799 95.1167L188.164 108.269L183.428 110.34L173.854 101.279C172.813 100.295 171.408 99.8288 170.003 100.036C166.777 100.45 163.55 100.554 160.324 100.295C158.919 100.139 157.514 100.709 156.525 101.745L147.419 111.272L142.632 109.46L142.267 96.3076C142.215 94.8578 141.539 93.5632 140.394 92.683C137.74 90.7153 135.399 88.4887 133.421 86.1068C132.485 85.0194 131.132 84.4498 129.675 84.398L116.405 84.7605L114.324 80.0484L123.43 70.4688C124.419 69.4332 124.887 67.9833 124.679 66.5335C124.211 63.4784 124.107 60.2162 124.419 56.954C124.523 55.5559 124.003 54.1578 122.962 53.1739L113.387 44.164L115.209 39.4002L128.478 39.0377C129.883 38.9341 131.236 38.2092 132.068 37.07ZM2.91404 143.066C1.1448 143.791 0 145.5 0 147.416V160.361C0 162.277 1.1448 163.934 2.91404 164.711L18.0566 170.924C18.9412 173.617 20.034 176.258 21.2829 178.743L15.0385 193.812C14.31 195.572 14.7263 197.592 16.0792 198.886L25.2376 208C26.5906 209.346 28.62 209.76 30.3893 209.035L45.4798 202.822C48.0816 204.116 50.7355 205.203 53.4414 206.084L59.6857 221.1C60.4142 222.861 62.1315 224 64.0568 224H77.0659C78.9912 224 80.7084 222.861 81.437 221.1L87.6813 206.084C90.3872 205.203 93.0411 204.116 95.6429 202.822L110.733 209.035C112.503 209.76 114.532 209.346 115.885 208L125.043 198.886C126.396 197.54 126.813 195.52 126.084 193.76L119.84 178.743C121.141 176.206 122.233 173.513 123.17 170.821L138.261 164.607C140.03 163.882 141.175 162.173 141.175 160.257V147.312C141.175 145.396 140.03 143.739 138.261 142.962L123.17 136.749C122.286 134.056 121.141 131.363 119.84 128.826L126.084 113.81C126.813 112.049 126.396 110.03 125.043 108.683L115.885 99.5699C114.532 98.2235 112.503 97.8611 110.733 98.5342L95.6429 104.748C93.0411 103.453 90.3872 102.366 87.6813 101.486L81.437 86.4692C80.7084 84.7087 78.9912 83.5695 77.0659 83.5695H64.0568C62.1315 83.5695 60.4142 84.7087 59.6857 86.4692L53.4414 101.486C50.7355 102.366 48.0816 103.453 45.4798 104.748L30.3893 98.5342C28.62 97.8093 26.5906 98.2235 25.2376 99.5699L16.0792 108.787C14.7263 110.133 14.31 112.153 15.0385 113.861L21.2829 128.93C20.034 131.415 18.9412 134.056 18.0566 136.749L2.91404 143.066ZM23.7286 144.568C25.0815 143.998 26.0702 142.859 26.4345 141.513C27.4232 137.94 28.8282 134.574 30.5454 131.519C31.2739 130.276 31.3259 128.774 30.8055 127.428L24.9254 113.24L29.6607 108.528L43.8667 114.379C45.1676 114.949 46.6766 114.845 47.9255 114.172C51.2558 112.36 54.6902 110.962 58.1246 109.978C59.5296 109.615 60.6744 108.58 61.1948 107.233L67.0749 93.0454H73.7876L79.6677 107.233C80.2401 108.58 81.3329 109.564 82.7379 109.978C86.1723 110.91 89.6587 112.36 92.937 114.172C94.1859 114.845 95.6949 114.949 96.9958 114.379L111.202 108.528L115.937 113.24L110.057 127.376C109.485 128.671 109.589 130.173 110.265 131.415C112.034 134.626 113.491 138.095 114.532 141.616C114.948 142.962 115.937 144.102 117.238 144.619L131.444 150.471V157.151L117.238 163.002C115.937 163.571 114.896 164.659 114.532 166.005C113.491 169.578 112.034 172.996 110.265 176.206C109.589 177.449 109.485 178.95 110.057 180.245L115.937 194.381L111.202 199.093L96.9958 193.242C95.6949 192.672 94.1859 192.776 92.937 193.449C89.6587 195.261 86.1723 196.66 82.7379 197.643C81.3329 198.058 80.1881 199.041 79.6677 200.388L73.7876 214.576H67.0749L61.2468 200.44C60.6744 199.093 59.5296 198.109 58.1767 197.695C54.6902 196.763 51.2558 195.313 47.9776 193.501C46.7287 192.828 45.2196 192.724 43.9187 193.294L29.6607 199.197L24.9254 194.485L30.8055 180.297C31.3779 178.95 31.2739 177.449 30.5454 176.206C28.7761 173.099 27.4232 169.733 26.4345 166.212C26.0702 164.814 25.0295 163.675 23.7286 163.157L9.36655 157.254V150.574L23.7286 144.568Z" fill="white"/>
<path d="M164.104 85.7928C177.825 85.7928 189 74.618 189 60.8964C189 47.1748 177.825 36 164.104 36C150.382 36 139.207 47.1748 139.207 60.8964C139.207 74.618 150.382 85.7928 164.104 85.7928ZM164.104 45.3556C172.628 45.3556 179.592 52.3204 179.592 60.8444C179.592 69.3685 172.68 76.3852 164.104 76.3852C155.528 76.3852 148.615 69.4204 148.615 60.8964C148.615 52.3724 155.58 45.3556 164.104 45.3556ZM70.6511 182C85.88 182 98.2503 169.63 98.2503 154.349C98.2503 139.12 85.88 126.75 70.6511 126.75C55.4222 126.75 43 139.12 43 154.349C43 169.578 55.4222 182 70.6511 182ZM70.6511 136.157C80.6824 136.157 88.8426 144.318 88.8426 154.349C88.8426 164.38 80.6824 172.592 70.6511 172.592C60.6198 172.592 52.4076 164.432 52.4076 154.349C52.4076 144.318 60.6198 136.157 70.6511 136.157Z" fill="white"/>
<g clip-path="url(#clip0_582_30)">
<path d="M225.073 172.217L216.712 168.767C216.294 167.565 215.823 166.416 215.248 165.318L218.698 157.009C219.429 155.232 219.011 153.194 217.652 151.835L212.165 146.243C210.806 144.884 208.768 144.518 206.991 145.198L198.682 148.647C197.532 148.124 196.382 147.654 195.233 147.236L191.783 138.874C191.052 137.15 189.327 136 187.446 136H179.607C177.673 136 175.948 137.15 175.217 138.927L171.767 147.288C170.618 147.706 169.416 148.177 168.318 148.699L160.009 145.25C158.232 144.518 156.194 144.937 154.835 146.295L149.243 151.783C147.884 153.142 147.466 155.18 148.198 156.904L151.647 165.266C151.124 166.363 150.654 167.513 150.236 168.663L141.874 172.164C140.15 172.948 139 174.673 139 176.554V184.393C139 186.327 140.15 187.999 141.927 188.783L150.288 192.285C150.706 193.435 151.177 194.584 151.699 195.682L148.25 204.043C147.518 205.82 147.937 207.858 149.295 209.165L154.835 214.705C156.194 216.063 158.232 216.429 160.009 215.75L168.266 212.301C169.416 212.823 170.565 213.294 171.715 213.712L175.164 222.073C175.896 223.85 177.621 225 179.554 225H187.393C189.327 225 191.052 223.85 191.783 222.073L195.233 213.712C196.382 213.294 197.584 212.823 198.682 212.301L206.991 215.75C208.768 216.482 210.806 216.063 212.165 214.705L217.705 209.165C219.063 207.806 219.482 205.768 218.75 203.991L215.301 195.682C215.823 194.532 216.346 193.382 216.764 192.233L225.126 188.783C226.903 188.052 228.052 186.327 228.052 184.393V176.554C228 174.673 226.85 172.948 225.073 172.217ZM218.541 181.258L211.12 184.341C209.813 184.916 208.768 186.014 208.402 187.372C207.827 189.41 206.991 191.344 205.998 193.225C205.319 194.48 205.214 195.995 205.789 197.302L208.873 204.723L207.775 205.768L200.354 202.685C199.048 202.11 197.532 202.214 196.278 202.894C194.449 203.939 192.463 204.723 190.529 205.245C189.118 205.611 187.968 206.656 187.446 208.015L184.362 215.489H182.847L179.763 208.015C179.188 206.656 178.039 205.664 176.68 205.245C174.694 204.723 172.76 203.887 170.931 202.894C169.677 202.214 168.161 202.11 166.855 202.685L159.434 205.768L158.336 204.671L161.42 197.197C161.995 195.839 161.89 194.323 161.159 193.069C160.166 191.292 159.382 189.41 158.859 187.425C158.493 186.014 157.448 184.864 156.142 184.341L148.616 181.206V179.638L156.142 176.502C157.5 175.927 158.493 174.777 158.859 173.419C159.434 171.433 160.218 169.499 161.159 167.775C161.89 166.52 161.942 165.005 161.42 163.646L158.336 156.173L159.434 155.075L166.698 158.263C168.005 158.786 169.52 158.733 170.775 158.054C172.656 157.009 174.59 156.225 176.523 155.702C177.934 155.336 179.084 154.291 179.607 152.932L182.69 145.459H184.206L187.289 152.932C187.864 154.291 189.014 155.284 190.372 155.702C192.306 156.225 194.24 157.061 196.121 158.054C197.375 158.733 198.891 158.838 200.197 158.263L207.618 155.18L208.716 156.277L205.737 163.698C205.162 165.005 205.267 166.52 205.946 167.775C206.991 169.604 207.775 171.59 208.35 173.628C208.768 174.986 209.761 176.136 211.068 176.659L218.489 179.742V181.258H218.541Z" fill="#48EEF9"/>
<path d="M183.525 165.161C175.059 165.161 168.16 172.06 168.16 180.474C168.16 188.94 175.059 195.786 183.525 195.786C191.939 195.786 198.837 188.94 198.837 180.474C198.837 172.06 191.939 165.161 183.525 165.161ZM183.525 186.379C180.285 186.379 177.619 183.766 177.619 180.526C177.619 177.286 180.285 174.673 183.525 174.673C186.713 174.673 189.378 177.338 189.378 180.526C189.378 183.662 186.66 186.379 183.525 186.379Z" fill="#48EEF9"/>
</g>
<defs>
<clipPath id="clip0_582_30">
<rect width="89" height="89" fill="white" transform="translate(139 136)"/>
</clipPath>
</defs>
</svg>
