<svg width="64" height="48" viewBox="0 0 64 48" fill="none" xmlns="http://www.w3.org/2000/svg">
<path d="M1 41.3C1.3 40.4 1.5 39.5 1.9 38.7C3.3 36.3 5.4 35.1 8.2 35C8.8 35 9.3 35 9.9 35C10.4 35 10.6 34.9 10.9 34.5C16.2 26.4 21.6 18.3 26.9 10.2C29.5 6.3 32.9 3.5 37.3 2C39.4 1.3 41.5 1 43.7 1C47.6 1 51.4 1 55.3 1C59.7 1 63.2 4.5 63.1 8.9C63 12.9 59.8 16.1 55.8 16.3C53.3 16.4 51.6 17.6 51.1 19.9C50.9 20.6 51 21.4 51 22.2C51 23 51 23.8 51 24.6C51.8 24.7 52.5 24.8 53.2 24.9C56.3 25.7 58.4 28.4 58.4 31.9C58.4 33.4 58.4 34.9 58.4 36.4C58.4 36.6 58.5 36.9 58.6 37.1C60.2 39 60.5 41.1 59.6 43.3C58.7 45.5 56.8 46.7 54.4 46.8C53.9 46.8 53.3 46.8 52.8 46.8C44.7 46.8 36.5 46.8 28.4 46.8C26.6 46.8 25.9 46.1 25.9 44.3C25.9 42 25.8 39.7 26 37.3C26.2 33.2 28.3 30.3 31.9 28.4C32.1 28.3 32.3 28.2 32.5 28.1C32.5 28 32.5 27.8 32.5 27.7C32.5 26.6 33 25.8 34.2 25.6C37.4 25 40.5 24.3 43.7 23.7C44.8 23.5 45.6 24 46.1 25.5C46.4 25.4 46.7 25.4 47.1 25.3C47.1 24.5 47.1 23.7 47.1 23C47.2 21.6 47.1 20.1 47.4 18.7C48.2 15.1 51.5 12.6 55.2 12.4C57.2 12.3 58.5 11.4 59 9.9C59.7 7.4 58 5 55.3 4.9C51.1 4.9 47 4.8 42.8 5C37.5 5.2 33.3 7.7 30.4 12.1C25.4 19.6 20.5 27.2 15.5 34.7C15.4 34.8 15.4 34.9 15.3 35C15.4 35 15.5 35.1 15.6 35.1C16.8 35.4 17.4 36 17.4 37.3C17.4 38.9 17.4 40.5 17.4 42.1C17.4 43.5 16.6 44.2 15.3 44.2C11.3 44.2 7.2 44.2 3.2 44.2C2.1 44.2 1.5 43.6 1.1 42.7C1 42.2 1 41.8 1 41.3ZM29.7 42.8C36.1 42.8 42.4 42.8 48.7 42.8C48.7 42.7 48.7 42.6 48.7 42.5C47.6 38.9 50.2 35.3 53.9 35.1C54.3 35.1 54.3 34.9 54.3 34.6C54.3 33.7 54.3 32.8 54.3 31.9C54.3 29.5 52.6 28.2 50.3 28.6C45.6 29.4 40.9 30.3 36.2 31.1C34.6 31.4 33.1 31.7 31.9 32.8C30.9 33.7 30.2 34.8 29.9 36.1C30.7 36.1 31.4 36.1 32 36.1C33.3 36.1 34.1 36.9 34.1 38.1C34.1 39.2 33.2 40 32 40C31.2 40 30.4 40 29.6 40C29.6 40.2 29.6 40.3 29.6 40.5C29.7 41.3 29.7 42 29.7 42.8ZM54.2 39C53.2 39 52.3 39.8 52.3 40.9C52.3 42 53.1 42.8 54.2 42.8C55.3 42.8 56.1 42 56.1 40.9C56.1 39.9 55.3 39 54.2 39ZM13.3 40.2C13.3 39.8 13.3 39.4 13.3 39C11.3 39 9.4 39 7.5 39C6.7 39 6.1 39.5 5.6 40.2C8.3 40.2 10.8 40.2 13.3 40.2Z" fill="#3546AB" stroke="#3546AB" stroke-width="1.5"/>
</svg>
