<svg width="55" height="63" viewBox="0 0 55 63" fill="none" xmlns="http://www.w3.org/2000/svg">
<g clip-path="url(#clip0_534_558)">
<path d="M49.3977 44.4C48.7977 44.1 48.1977 43.9 47.5977 43.7C47.3977 43.6 47.1977 43.6 46.9977 43.5V2.2C46.9977 0.8 46.2977 0 45.0977 0C43.0977 0 41.1977 0 39.1977 0C38.1977 0 37.3977 0.7 37.2977 1.7C36.9977 4.8 36.6977 7.9 36.3977 11L35.4977 19.6H33.3977C32.0977 19.6 30.7977 19.6 29.4977 19.6C28.3977 19.6 27.6977 20.3 27.4977 21.3C26.8977 25.9 26.3977 30.4 25.7977 35L25.3977 38.5C24.8977 42.6 24.3977 46.6 23.8977 50.7L23.7977 51.3C23.6977 52.1 23.5977 52.9 23.6977 53.7C24.0977 56.7 26.3977 58.7 29.5977 58.8C32.0977 58.8 34.5977 58.8 37.0977 58.8C37.2977 58.8 37.3977 58.8 37.5977 59C39.3977 61.3 41.7977 62.5 44.6977 62.7C44.8977 62.7 45.0977 62.7 45.2977 62.7C49.6977 62.7 53.5977 59.7 54.6977 55.4C55.6977 51.1 53.5977 46.4 49.3977 44.4ZM51.1977 53.1C51.1977 56.4 48.4977 59.1 45.1977 59.1C43.5977 59.1 42.0977 58.5 40.8977 57.3C39.7977 56.2 39.0977 54.7 39.0977 53.1C39.0977 51.5 39.6977 50 40.8977 48.8C41.9977 47.7 43.4977 47 45.0977 47C46.6977 47 48.1977 47.6 49.2977 48.8C50.4977 50 51.1977 51.5 51.1977 53.1ZM43.1977 3.8V19.7H39.2977L40.8977 3.8H43.1977ZM36.9977 47.8C35.4977 50.1 35.0977 52.5 35.6977 55.1H32.6977C31.5977 55.1 30.4977 55.1 29.3977 55.1C28.7977 55.1 28.1977 54.8 27.8977 54.4C27.4977 54 27.2977 53.3 27.3977 52.7C27.7977 49.6 28.1977 46.6 28.5977 43.5L29.5977 35.7H30.5977C31.6977 35.7 32.6977 35.7 33.7977 35.7C34.6977 35.7 35.3977 35.2 35.6977 34.4C35.8977 33.6 35.5977 32.8 34.9977 32.4C34.6977 32.2 34.1977 32.1 33.7977 32.1C32.9977 32.1 32.0977 32.1 31.2977 32.1L29.9977 32L30.0977 30.8H32.5977C32.9977 30.8 33.3977 30.8 33.6977 30.8C34.7977 30.8 35.5977 30 35.5977 28.9C35.5977 27.9 34.7977 27.1 33.6977 27C32.9977 27 32.2977 27 31.5977 27H30.4977L30.5977 26.5C30.6977 25.4 30.8977 24.4 30.9977 23.4V23.3C34.9977 23.3 38.9977 23.3 42.9977 23.3H43.1977V43.4C40.4977 44.1 38.3977 45.6 36.9977 47.8Z" fill="#3546AB"/>
<path d="M19.4984 2.20006C19.4984 1.40006 19.2984 0.800057 18.7984 0.400057C18.3984 5.72503e-05 17.6984 -0.0999428 16.8984 5.72354e-05C15.4984 0.200057 14.2984 0.800057 13.0984 1.80006C12.0984 2.80006 11.1984 3.90006 10.4984 5.30006C8.69844 8.70006 7.89844 12.7001 7.89844 17.4001C7.89844 20.9001 7.89844 24.4001 7.89844 27.8001V48.4001V48.5001C7.89844 48.7001 7.89844 48.9001 7.89844 49.1001C7.99844 50.3001 8.79844 51.0001 9.69844 51.0001C10.5984 51.0001 11.3984 50.3001 11.4984 49.4001C11.4984 49.1001 11.4984 48.9001 11.4984 48.6001V43.4001C11.4984 35.2001 11.4984 27.0001 11.4984 18.8001C11.4984 18.6001 11.5984 18.3001 11.7984 18.1001C14.0984 15.8001 16.2984 13.5001 18.5984 11.3001C19.0984 10.8001 19.3984 10.2001 19.3984 9.40006C19.3984 7.80006 19.3984 6.20006 19.3984 4.60006L19.4984 2.20006ZM15.6984 6.60006C15.6984 7.30006 15.6984 8.00006 15.6984 8.70006C15.6984 9.00006 15.6984 9.00006 15.6984 9.00006C14.4984 10.2001 13.3984 11.4001 12.1984 12.5001C12.6984 9.60006 13.4984 6.70006 15.7984 4.50006L15.6984 6.60006Z" fill="#3546AB"/>
<path d="M5.59822 53.3001C4.59822 52.8001 3.59822 53.2001 3.09822 54.2001C2.79822 54.7001 2.59822 55.3001 2.29822 55.8001L1.39822 57.5001C0.998219 58.3001 0.598219 59.1001 0.198219 59.9001C-0.101781 60.5001 -0.101781 61.2001 0.298219 61.7001C0.598219 62.3001 1.29822 62.6001 1.99822 62.6001C2.69822 62.6001 3.19822 62.2001 3.59822 61.5001L4.49822 59.7001C5.19822 58.4001 5.79822 57.1001 6.49822 55.8001C6.79822 55.3001 6.79822 54.7001 6.59822 54.2001C6.39822 53.9001 6.09822 53.6001 5.59822 53.3001Z" fill="#3546AB"/>
<path d="M16.2975 54.2001C15.9975 53.6001 15.3975 53.2001 14.7975 53.2001C14.0975 53.2001 13.4975 53.5001 13.0975 54.1001C12.7975 54.6001 12.6975 55.3001 12.9975 55.9001C13.7975 57.6001 14.7975 59.5001 15.9975 61.9001C16.1975 62.3001 16.5975 62.7001 17.0975 62.8001C17.2975 62.9001 17.4975 62.9001 17.5975 62.9001C17.8975 62.9001 18.1975 62.8001 18.4975 62.7001C19.3975 62.2001 19.7975 61.2001 19.2975 60.2001C18.2975 58.1001 17.2975 56.2001 16.2975 54.2001Z" fill="#3546AB"/>
<path d="M10.9984 53.7001C10.6984 53.4001 10.1984 53.2001 9.69844 53.2001C8.69844 53.2001 7.89844 54.1001 7.89844 55.2001C7.89844 55.9001 7.89844 56.5001 7.89844 57.2001V58.0001V58.8001C7.89844 59.5001 7.89844 60.1001 7.89844 60.8001C7.89844 61.9001 8.69844 62.8001 9.69844 62.8001C10.1984 62.8001 10.5984 62.6001 10.9984 62.3001C11.3984 61.9001 11.5984 61.4001 11.5984 60.8001C11.5984 58.9001 11.5984 57.0001 11.5984 55.1001C11.5984 54.6001 11.3984 54.0001 10.9984 53.7001Z" fill="#3546AB"/>
<path d="M45.0969 51.2001C44.0969 51.2001 43.2969 52.1001 43.2969 53.1001C43.2969 53.6001 43.4969 54.1001 43.8969 54.4001C44.2969 54.7001 44.6969 54.9001 45.1969 54.9001C46.1969 54.9001 46.9969 54.0001 46.9969 53.0001C46.9969 52.5001 46.7969 52.0001 46.3969 51.7001C46.0969 51.4001 45.5969 51.2001 45.0969 51.2001Z" fill="#3546AB"/>
</g>
<defs>
<clipPath id="clip0_534_558">
<rect width="54.9" height="62.8" fill="white"/>
</clipPath>
</defs>
</svg>
