<svg width="51" height="63" viewBox="0 0 51 63" fill="none" xmlns="http://www.w3.org/2000/svg">
<g clip-path="url(#clip0_534_527)">
<path d="M48.6 39.5C49.8 38.4 50.3 36.9 50.3 34.8C50.2 31.6 48 29.3 44.8 29.3C43.1 29.3 41.3 29.3 39.6 29.3H36.9C36.6 27.9 35.8 26.8 34.7 26C34.7 26 34.6 25.8 34.6 25.7C34.6 25.2 34.6 24.6 34.6 24.1C34.6 23.4 34.6 22.8 34.6 22.1C34.6 21.8 34.7 21.6 35 21.5C38.6 19.3 40.7 15.5 40.7 11.3C40.7 7.1 38.4 3.3 34.8 1.2C34.3 0.9 33.8 0.7 33.3 0.4C33.1 0.3 32.8 0.2 32.6 0.1H31.5H31.4C30.3 0.6 29.8 1.4 29.8 2.8C29.8 4.6 29.8 6.5 29.8 8.3C29.8 9 29.8 9.8 29.8 10.5V10.9H28.1V10.3C28.1 9.6 28.1 8.9 28.1 8.1C28.1 6.4 28.1 4.6 28.1 2.8C28.1 1.9 28 0.7 26.6 0H25.5L25 0.1C24.9 0.2 24.8 0.2 24.7 0.3C20 2 16.9 6.5 16.9 11.4C17 15.7 18.9 19.1 22.7 21.5C22.9 21.6 23 21.7 23 21.7C23 22.6 23 23.6 23 24.5V25.1L22.7 25.2C20.6 25.5 19 26.2 17.7 27.5C16.5 28.6 15.2 29.7 14 30.7C13.8 30.9 13.5 31 13.3 31C10.6 31 8 31 5.3 31H2.6C0.8 31 0 31.8 0 33.5V55.4C0 57.2 0.8 58 2.7 58C3.5 58 4.3 58 5.1 58C7 58 9 58 10.9 58C12 58 13 58.2 13.7 58.5C15.3 59.1 16.9 59.9 18.5 60.7L19 61C20.5 61.8 22.6 62.6 24.9 62.6C27.8 62.6 30.7 62.6 33.7 62.6C36.3 62.6 38.9 62.6 41.5 62.6C44 62.6 46.2 60.7 46.5 58.2C46.8 56.5 46.6 55.2 46.1 54C48.5 51.5 48 48.7 47.3 46.7C47.4 46.6 47.4 46.5 47.5 46.4C47.8 46.1 48 45.8 48.2 45.4C49.1 43.7 49.2 41.8 48.5 39.6C48.6 39.7 48.6 39.6 48.6 39.5ZM39.1 58.4H38.1H37.1C36.4 58.4 35.6 58.4 34.9 58.4C34 58.4 33.3 57.8 33.3 56.9C33.3 56.5 33.4 56.1 33.7 55.9C34 55.6 34.4 55.5 34.8 55.5C36.9 55.5 39 55.5 41.1 55.5C41.9 55.5 42.2 55.9 42.2 56.7C42.2 56.9 42.2 57.1 42.2 57.4C42.2 58.2 41.8 58.5 41.1 58.5C40.5 58.4 39.8 58.4 39.1 58.4ZM39.9 51.1H38.8H37.8C36.9 51.1 36 51.1 35 51.1C34.5 51.1 34.1 50.9 33.8 50.6C33.5 50.3 33.4 50 33.4 49.6C33.4 48.7 34.1 48.2 35 48.2C37.5 48.2 40 48.2 42.4 48.2C43.2 48.2 43.5 48.6 43.6 49.3C43.6 49.6 43.6 49.8 43.6 50.1C43.6 50.8 43.2 51.1 42.6 51.1C41.6 51.1 40.8 51.1 39.9 51.1ZM23.6 11V11.1C23.6 11.4 23.6 11.7 23.7 12.1C24 13.8 25.4 15 27.1 15.2C28.2 15.3 29.3 15.3 30.4 15.2C32.5 15.1 34 13.5 34 11.4C34 10.2 34 9 34 7.8V6C35.1 7 35.8 8.2 36.1 9.6C37 13.2 35.2 16.7 31.9 18.2C30.8 18.7 30.3 19.5 30.3 20.7C30.3 21.8 30.3 22.9 30.3 24V25.1H27.4C27.4 25 27.4 24.9 27.4 24.9V23.8C27.4 22.9 27.4 21.9 27.4 20.9C27.4 19.6 26.9 18.8 25.7 18.3C23.5 17.3 22 15.4 21.5 13C21 10.7 21.6 8.3 23.2 6.5C23.3 6.3 23.5 6.2 23.6 6V7C23.6 8.2 23.6 9.6 23.6 11ZM31.2 29.4H31.6C32.4 29.4 32.7 29.8 32.7 30.5C32.7 34.7 32.7 38.9 32.7 43.1C32.7 43.6 32.5 44 32.3 44.2C32 44.5 31.6 44.6 31.3 44.6C30.5 44.6 29.9 43.9 29.9 43.1C29.9 42.2 29.9 41.2 29.9 40.3C29.9 39.2 29.9 38.1 29.9 37C29.9 36.3 29.7 35.7 29.2 35.3C28.8 34.9 28.3 34.7 27.7 34.7C27.7 34.7 27.7 34.7 27.6 34.7C26.7 34.7 25.9 35.3 25.7 36.1C25.2 37.7 24.1 38.6 22 39C21.6 39.1 21.2 39.1 20.8 39.1H20.5C19.2 39.2 18.3 40.1 18.3 41.3C18.3 42.5 19.3 43.4 20.5 43.4C22.4 43.4 24 43.1 25.5 42.3C25.4 45.3 26.6 47.4 29.2 48.6C29 50.3 29.4 51.8 30.4 53.2C29.2 54.7 28.9 56.5 29.3 58.3C29 58.3 28.6 58.3 28.3 58.3C27.2 58.3 26 58.3 24.9 58.3C23.6 58.2 22.3 57.7 21 57.1L20.2 56.7C18.4 55.8 16.5 54.9 14.6 54.2C13.5 53.8 12.3 53.7 11.1 53.7C10.2 53.7 9.4 53.7 8.5 53.7C7.9 53.7 7.3 53.7 6.7 53.7C6.1 53.7 5.5 53.7 4.8 53.7H4.4V35.3H7.3C9.6 35.3 11.8 35.3 14.1 35.3C15 35.3 15.7 35 16.4 34.4C17 33.8 17.7 33.2 18.4 32.6C19.1 32 19.9 31.3 20.6 30.7C21.5 29.8 22.6 29.4 23.9 29.4C26.3 29.4 28.7 29.4 31.2 29.4ZM38.3 43.8H37V40.9C37.1 40.9 37.1 40.9 37.2 40.9H37.9C39.8 40.9 41.7 40.9 43.6 40.9C44.5 40.9 44.8 41.2 44.8 42.1V42.3C44.8 42.5 44.8 42.7 44.8 42.9C44.7 43.4 44.4 43.8 43.9 43.8C42 43.8 40.2 43.8 38.3 43.8ZM37 36.6V33.7H44.7C45.7 33.7 46 34 46 35V35.2C46 35.4 46 35.7 46 35.9C45.9 36.2 45.8 36.6 45.2 36.6C43.1 36.6 41.1 36.6 39 36.6H37Z" fill="#3546AB"/>
</g>
<defs>
<clipPath id="clip0_534_527">
<rect width="50.3" height="62.7" fill="white"/>
</clipPath>
</defs>
</svg>
