<svg width="64" height="50" viewBox="0 0 64 50" fill="none" xmlns="http://www.w3.org/2000/svg">
<g clip-path="url(#clip0_534_540)">
<path d="M62.6 45.5C62.4 45.3 62.2 45.2 62.1 45C61.6 44.5 61.1 44 60.4 43.6C59.1 42.8 58.7 41.6 58.6 40C58.4 36.7 58 33.3 57.6 30L57.4 28.4C57.3 27.8 57.2 27 56.5 26.6C55.8 26.2 55 26.6 54.5 26.9C53.7 27.4 52.7 27.9 51.7 28.5C51.6 28.6 51.5 28.6 51.5 28.6C51.5 28.6 51.5 28.5 51.4 28.4C51 27.4 50.6 26.4 50.2 25.4C49.9 24.6 49.5 23.7 49.2 22.9C48.2 20.3 46.5 19.1 43.7 19.1C42.1 19.1 40.6 19.1 39 19.1H37C36.2 19.1 35.4 19.1 35.3 19C35.2 18.9 35.1 18 35.1 17.3C35.1 16.6 34.9 16.1 34.5 15.7C34.1 15.4 33.6 15.2 33 15.3C32.9 15.3 32.8 15.3 32.7 15.3C32.5 15.3 32.3 15.3 32.2 15.3C31.7 15.4 31.5 15.4 31.4 14.6C31 12.3 30.5 9.9 30 7.6C29.8 6.5 29.6 5.5 29.3 4.4C28.7 1.3 27.1 0 23.9 0H22.9C19.6 0 16.4 0 13.1 0C9.8 0 8 1.8 7.9 5.1C7.9 5.9 7.8 6.8 7.8 7.6C7.7 10.1 7.6 12.6 7.6 15.1C7.6 15.8 7.5 16.3 7.1 16.7V15.4C7.1 13.1 7.1 10.8 7.1 8.6C7.1 8 7.1 7 6.2 6.3C5.5 5.8 4.8 5.2 4.2 4.6C3.8 4.3 3.4 3.9 3 3.6C1.9 2.7 0.9 3 0.4 3.7C0 4.1 0 4.5 0 4.8C0 5.3 0.3 5.7 0.8 6.1C1.1 6.3 1.4 6.6 1.7 6.8C2.2 7.2 2.7 7.7 3.3 8.1C3.7 8.4 3.9 8.7 3.9 9.2C3.9 12.8 3.9 16.3 3.9 19.2C3.9 19.8 3.8 20 3.6 20.1C0.8 21.9 -0.3 24.5 0.3 28.1C0.3 28.3 0.3 28.6 0.3 28.8C0 30.6 0.6 32.1 2.1 33.2C2.6 33.6 2.7 33.7 2.3 34.7C0.5 38.7 1 42.4 3.7 45.6C5.6 47.9 8.4 49.1 11.2 49.1C12.3 49.1 13.4 48.9 14.5 48.5C18.5 47 20.8 44.1 21.2 39.8V39.7C21.2 39.5 21.2 39.3 21.3 39.3C21.3 39.3 21.4 39.3 21.6 39.3C21.7 39.3 21.8 39.3 21.8 39.3C21.8 39.4 21.8 39.6 21.9 39.7V39.8C22.3 44.4 25.7 48.1 30 48.9C34.6 49.7 39 47.4 40.9 43.3C42.8 39.2 41.8 34.4 38.3 31.4C37.5 30.7 36.5 30.1 35.4 29.7C35.3 29.6 35.2 29.6 35.2 29.6H35.3H35.5C36.3 29.6 37.1 29.6 38 29.6H39C42.1 29.6 42.1 29.6 43.2 32.5C43.2 32.6 43.3 32.7 43.3 32.8C43.6 33.5 43.6 33.6 43.1 33.9C42.5 34.2 42.5 35 42.5 35.4V35.6C42.5 36 42.5 36.3 42.5 36.7C42.5 37.6 42.5 38.5 42.5 39.4C42.7 44.2 46.2 48.1 50.7 48.5C53.3 48.7 55.9 48.7 58.4 48.6C59.5 48.6 60.5 48.6 61.6 48.5C62.4 48.5 63.1 48 63.3 47.3C63.5 46.4 62.8 45.7 62.6 45.5ZM31.9 28.7C31.9 28.9 31.9 29 31.9 29C31.9 29 31.8 29 31.5 29.1C27.2 29.4 24.1 31.6 22.5 35.5C22.3 36 22.1 36.1 21.5 36.1C20.9 36.1 20.7 36 20.4 35.4C19.2 32.5 16.9 30.3 14 29.5C13.1 29.2 12.1 29.1 11.2 29.1C9.2 29.1 7.2 29.7 5.5 30.9C5.3 31 5.2 31.2 5 31.3C4.9 31.4 4.9 31.4 4.8 31.5C4.7 31.4 4.5 31.3 4.4 31.2C3.8 30.7 3.4 30.4 3.4 29.8V29.3C3.4 28 3.4 26.7 3.4 25.3C3.4 25 3.5 24.8 3.9 24.4C4.6 23.7 5.4 23 6.1 22.3C7.3 21.1 8.6 19.9 9.8 18.8C10.5 18.1 10.9 17.4 10.9 16.4C10.9 13.9 11 11.4 11.1 8.9L11.2 5.5C11.2 3.7 11.6 3.4 13.4 3.4H16.8H18.5H20.1C21.4 3.4 22.6 3.4 23.9 3.4C25.4 3.4 25.7 3.6 26 5.1C26.2 6.1 26.4 7.1 26.6 8.2C27.2 11 27.8 13.8 28.3 16.6C28.4 17.2 28.8 19.2 31.1 18.8C31.5 18.7 31.7 18.8 31.8 18.8C31.8 18.8 31.9 19 31.8 19.5C31.8 19.7 31.8 19.9 31.8 20.2C31.8 20.3 31.8 20.4 31.8 20.5C31.8 21.2 31.9 21.7 32.3 22.1C32.7 22.5 33.2 22.7 33.9 22.7C37.5 22.7 41.2 22.7 43.9 22.7C45.1 22.7 45.9 23.3 46 24.4C46 24.9 45.9 25.4 45.6 25.8C45.2 26.2 44.6 26.4 43.8 26.5C41.7 26.5 39.7 26.5 37.6 26.5C36.5 26.5 35.4 26.5 34.3 26.5C32.3 26.3 32 26.6 31.9 28.7ZM11.3 45.8C7.6 45.8 4.6 42.8 4.5 39.1C4.5 35.4 7.5 32.3 11.2 32.3C13 32.3 14.6 33 15.9 34.2C17.2 35.5 17.9 37.2 17.9 38.9C17.9 40.7 17.2 42.4 15.9 43.7C14.7 45.1 13.1 45.8 11.3 45.8ZM31.9 32.3C33.7 32.3 35.4 33 36.6 34.4C37.9 35.7 38.6 37.4 38.5 39.1C38.4 42.7 35.4 45.8 31.8 45.8H31.7C28 45.7 25 42.7 25 39C25 37.2 25.7 35.5 27 34.3C28.4 33 30.1 32.3 31.9 32.3ZM57 45.3C55.3 45.3 53.7 45.3 52 45.3C48.5 45.3 45.8 42.6 45.7 39.1C45.6 36.1 45.6 36.1 48.2 34.5C49.7 33.6 51.3 32.7 52.9 31.7L54.3 30.9L54.5 33.1C54.8 35.4 55 37.7 55.2 39.9L55.3 40.5C55.5 42.2 55.6 44.1 57 45.3ZM48.4 30.7C48.2 31.1 47.5 31.5 46.4 31.9C46.4 31.8 46.4 31.8 46.3 31.7V31.6C46.2 31.3 46.1 31.1 45.9 30.8C45.7 30.3 45.4 29.8 45.4 29.4C45.5 29.4 45.7 29.3 45.9 29.3C46.3 29.2 46.8 29.1 47.2 28.8C47.3 28.7 47.5 28.5 47.7 28.4C47.8 28.5 47.8 28.6 47.8 28.7C48.4 29.7 48.5 30.3 48.4 30.7Z" fill="#3546AB"/>
<path d="M26.4016 10.6C26.1016 9.1 25.8016 7.6 25.5016 6.2C25.2016 4.7 24.1016 4.5 23.4016 4.5C23.4016 4.5 23.4016 4.5 23.3016 4.5C20.6016 4.5 18.1016 4.5 15.7016 4.5C15.0016 4.5 14.5016 4.7 14.1016 5C13.7016 5.4 13.6016 5.9 13.6016 6.5C13.6016 9.3 13.6016 12.1 13.6016 14.9C13.6016 15.6 13.8016 16.1 14.1016 16.4C14.5016 16.8 15.0016 16.9 15.6016 16.9C15.6016 16.9 15.6016 16.9 15.7016 16.9C16.8016 16.9 18.0016 16.9 19.1016 16.9H22.0016C23.1016 16.9 24.1016 16.9 25.2016 16.9C25.9016 16.9 26.6016 16.8 27.1016 16.3C27.5016 15.8 27.4016 15 27.3016 14.4C26.9016 13.1 26.7016 11.8 26.4016 10.6ZM16.8016 8.1C16.8016 7.9 16.8016 7.8 16.8016 7.8C16.8016 7.8 16.9016 7.8 17.2016 7.8C18.7016 7.8 20.3016 7.8 22.0016 7.8C22.4016 7.8 22.5016 7.9 22.5016 8.2C22.8016 9.9 23.2016 11.6 23.6016 13.5C23.6016 13.6 23.6016 13.7 23.6016 13.8C23.5016 13.8 23.5016 13.8 23.3016 13.8C22.9016 13.8 22.4016 13.8 22.0016 13.8C21.7016 13.8 21.4016 13.8 21.0016 13.8C20.4016 13.8 19.8016 13.8 19.1016 13.8C18.4016 13.8 17.7016 13.8 16.9016 13.8H16.8016C16.6016 13.8 16.6016 13.8 16.6016 13.8C16.6016 13.8 16.5016 13.7 16.6016 13.4C16.8016 11.3 16.8016 9.6 16.8016 8.1Z" fill="#3546AB"/>
<path d="M18.7016 19.8001C17.6016 19.8001 16.4016 19.7001 15.1016 19.8001C14.2016 19.8001 13.6016 20.5001 13.6016 21.4001C13.6016 22.4001 14.2016 23.0001 15.2016 23.1001C15.4016 23.1001 15.6016 23.1001 15.8016 23.1001C16.0016 23.1001 16.1016 23.1001 16.3016 23.1001H17.2016C17.3016 23.1001 17.3016 23.1001 17.4016 23.1001C17.8016 23.1001 18.3016 23.1001 18.7016 23.1001C19.6016 23.0001 20.2016 22.4001 20.2016 21.5001C20.1016 20.5001 19.5016 19.8001 18.7016 19.8001Z" fill="#3546AB"/>
<path d="M11.1992 34C9.89922 34 8.59922 34.5 7.69922 35.5C6.69922 36.5 6.19922 37.8 6.19922 39.2C6.29922 41.9 8.49922 44.1 11.1992 44.1H11.2992C13.9992 44.1 16.1992 41.8 16.1992 39C16.1992 36.2 13.9992 34 11.1992 34ZM12.9992 39.1C12.9992 40 12.1992 40.8 11.2992 40.8C10.3992 40.8 9.59922 40 9.59922 39.1C9.59922 38.6 9.79922 38.2 10.0992 37.8C10.3992 37.5 10.7992 37.3 11.2992 37.3C12.1992 37.4 12.9992 38.1 12.9992 39.1Z" fill="#3546AB"/>
<path d="M28.1 42.6999C29.1 43.6999 30.4 44.2999 31.8 44.2999C34.7 44.2999 37 41.9999 37 39.1999C37 36.2999 34.8 33.9999 31.9 33.8999C30.5 33.8999 29.1 34.3999 28.1 35.3999C27.1 36.3999 26.5 37.6999 26.5 38.9999C26.6 40.3999 27.1 41.6999 28.1 42.6999ZM29.9 39.0999C29.9 38.5999 30.1 38.0999 30.4 37.6999C30.8 37.2999 31.2 37.0999 31.7 37.0999C32.2 37.0999 32.7 37.2999 33 37.5999C33.4 37.9999 33.6 38.4999 33.6 38.9999C33.6 39.4999 33.4 39.9999 33.1 40.3999C32.7 40.7999 32.3 40.9999 31.7 40.9999C30.9 40.9999 30 40.0999 29.9 39.0999Z" fill="#3546AB"/>
</g>
<defs>
<clipPath id="clip0_534_540">
<rect width="63.3" height="49.1" fill="white"/>
</clipPath>
</defs>
</svg>
