<svg width="63" height="57" viewBox="0 0 63 57" fill="none" xmlns="http://www.w3.org/2000/svg">
<g clip-path="url(#clip0_534_606)">
<path d="M60.7 27.3C58.6 26.8 56.6 26.3 54.5 25.8C54.4 25.8 54.2 25.6 54.1 25.4C51.9 22 50 18.9 48 15.7C46.1 12.6 43.2 11 39.6 11C39.6 11 39.6 11 39.5 11C37.3 11 35.1 11 32.9 11H29.1V25.5H26.2L22.7 15.7C20.9 10.7 19.2 5.8 17.4 0.8C17.3 0.2 17 0 16.4 0C12.1 0 7.8 0 3.5 0H0V22.2H7.6V18.2H4.1V4H4.6C5.4 4 6.2 4 6.9 4C7 4 7.1 4.2 7.1 4.4C8.6 8.6 10.1 12.8 11.6 17L14.6 25.4H0V49.4H7.5C8.2 52 9.6 54.1 11.9 55.4C13.3 56.2 14.9 56.7 16.5 56.7C16.8 56.7 17 56.7 17.3 56.7C21.4 56.4 24.7 53.5 25.7 49.5H36.9C37.5 51.9 38.8 53.8 40.8 55.1C42.4 56.2 44.3 56.8 46.3 56.7C49.5 56.6 53.7 54.7 55.1 49.4H62.6V27.7L60.7 27.3ZM49.5 25.4H33.2V15C33.3 15 33.4 15 33.5 15H35.3C36.8 15 38.4 15 40 15C41.9 15 43.4 15.8 44.4 17.4C45.6 19.3 46.8 21.3 48 23.1C48.5 23.8 49 24.6 49.5 25.4ZM42.1 51.1C41.1 50.1 40.6 48.8 40.6 47.4C40.6 44.5 43 42.2 45.8 42.2C47.2 42.2 48.5 42.8 49.5 43.8C50.5 44.8 51 46.1 51 47.5C51 50.4 48.6 52.7 45.7 52.7C44.4 52.7 43.1 52.1 42.1 51.1ZM33.3 29.5H33.7C35.3 29.5 36.9 29.5 38.5 29.5C43.1 29.5 47.8 29.5 52.4 29.5C53.2 29.5 54 29.7 54.8 29.9C55.1 30 55.5 30.1 55.8 30.2C56.6 30.4 57.4 30.6 58.2 30.8C58.3 30.8 58.4 30.9 58.4 31C58.4 33 58.4 35.1 58.4 37.2V38.2H57.9C56.7 38.2 55.6 38.2 54.4 38.2C51.8 38.2 49.1 38.2 46.5 38.2C41.9 38.1 37.9 41.1 36.8 45.5H33.3V29.5ZM58.3 42.2V45.4H55L53.6 42.2H58.3ZM19 25.4L11.4 4.1H14.4L22 25.4H19ZM8.8 42.2L7.4 45.4H4.1V42.2H8.8ZM29.2 29.5V45.4H25.7C25.6 45.2 25.6 45 25.5 44.8C25.3 44.3 25.1 43.7 24.8 43.2C23 39.9 20.2 38.2 16.5 38.2C13.7 38.2 10.9 38.2 8.2 38.2C7 38.2 5.8 38.2 4.6 38.2H4.1V29.6H29.2V29.5ZM21.8 47.5C21.8 50.4 19.4 52.7 16.6 52.7C15.2 52.7 13.9 52.2 12.9 51.2C11.9 50.2 11.4 48.9 11.4 47.5C11.4 44.6 13.8 42.3 16.6 42.3C18 42.3 19.3 42.8 20.3 43.8C21.3 44.7 21.8 46.1 21.8 47.5Z" fill="#3546AB"/>
<path d="M16.6016 45.3999C16.6016 45.3999 16.5016 45.3999 16.6016 45.3999C15.5016 45.3999 14.6016 46.2999 14.6016 47.3999C14.6016 47.8999 14.8016 48.4999 15.2016 48.7999C15.6016 49.1999 16.1016 49.3999 16.6016 49.3999C17.7016 49.3999 18.6016 48.4999 18.6016 47.3999C18.6016 46.2999 17.6016 45.3999 16.6016 45.3999Z" fill="#3546AB"/>
<path d="M45.8984 49.5C46.9984 49.5 47.8984 48.6 47.8984 47.5C47.8984 46.4 46.9984 45.5 45.8984 45.5C44.7984 45.5 43.8984 46.4 43.8984 47.5C43.8984 48 44.0984 48.6 44.4984 48.9C44.7984 49.2 45.2984 49.5 45.8984 49.5Z" fill="#3546AB"/>
</g>
<defs>
<clipPath id="clip0_534_606">
<rect width="62.4" height="56.7" fill="white"/>
</clipPath>
</defs>
</svg>
