<svg width="63" height="63" viewBox="0 0 63 63" fill="none" xmlns="http://www.w3.org/2000/svg">
<path d="M60.7 29.3C59.8 29.3 58.9 29.3 57.9 29.3H56L57 28.3C57.6 27.7 57.9 27 57.7 26.2C57.5 25.4 57 24.8 56.2 24.5C55.4 24.2 54.6 24.4 53.9 25.1C53.4 25.6 52.9 26.1 52.4 26.6C51.6 27.4 50.8 28.2 49.9 29.1C49.8 29.2 49.5 29.3 49.3 29.3C47 29.3 44.7 29.3 42.4 29.3H40.3L39.3 26.8L40.4 25.7C42.2 23.9 44.1 22 45.9 20.2C45.9 20.2 46.1 20.1 46.2 20.1C48 20.1 49.8 20.1 51.6 20.1C52 20.1 52.3 20.1 52.6 20C53.6 19.7 54.3 18.8 54.2 17.7C54.1 16.7 53.3 15.8 52.2 15.7C51.8 15.7 51.5 15.7 51.1 15.7H50.7C50.6 15.7 50.5 15.7 50.4 15.7L50.8 15.3C51.8 14.3 52.7 13.4 53.6 12.5C54.6 11.5 54.6 10.2 53.7 9.3C53.3 8.9 52.7 8.6 52.2 8.6C51.6 8.6 51 8.9 50.5 9.3C49.4 10.4 48.4 11.4 47.3 12.5C47.3 12.1 47.3 11.6 47.3 11.2C47.3 9.8 46.4 8.7 45.1 8.7C43.8 8.7 42.9 9.7 42.9 11.2V13.1C42.9 14.3 42.9 15.5 42.9 16.7C42.9 16.9 42.8 17.1 42.7 17.2C40.9 19 39.1 20.8 37.3 22.6L36.3 23.6L35.8 23.4C35.2 23.1 34.6 22.9 33.9 22.7C33.8 22.7 33.8 22.6 33.8 22.6V22.5C33.8 21.2 33.8 19.9 33.8 18.6C33.8 16.9 33.8 15.2 33.8 13.4C33.8 13.2 33.9 13 34 12.9C34.8 12.1 35.6 11.3 36.4 10.5C36.9 10 37.3 9.6 37.8 9.1C38.8 8.1 38.9 6.7 38 5.8C37 4.9 35.7 5 34.6 6C34.3 6.3 34 6.6 33.7 6.9V5.5C33.7 4.5 33.7 3.5 33.7 2.4C33.7 1.2 33.1 0.4 32.2 0.1C31.5 -0.1 30.8 0 30.2 0.4C29.6 0.8 29.2 1.6 29.2 2.4C29.2 3.5 29.2 4.7 29.2 5.8V6.9C29.1 6.8 29.1 6.8 29 6.7L28.8 6.5C28.6 6.2 28.3 6 28 5.8C27.4 5.3 26.6 5.1 25.9 5.3C25.2 5.5 24.7 6 24.4 6.7C24.1 7.6 24.3 8.4 25 9.2C26.3 10.5 27.6 11.8 28.9 13.1C29 13.2 29.1 13.3 29.1 13.4C29.1 16.6 29.1 19.7 29.1 22.8C28.4 23.1 27.8 23.3 27 23.6L26.6 23.8C26.6 23.8 26.6 23.8 26.5 23.7L24.8 22C23.2 20.4 21.7 18.9 20.1 17.3C19.9 17.1 19.8 16.9 19.8 16.6C19.8 14.8 19.8 12.9 19.8 11.1C19.8 10.1 19.3 9.3 18.4 9C17.7 8.7 17 8.8 16.4 9.2C15.8 9.6 15.4 10.3 15.4 11.1C15.4 11.6 15.4 12.1 15.4 12.6L14.5 11.7C13.8 11 13 10.2 12.3 9.5C11.3 8.5 9.9 8.4 9 9.3C8.1 10.2 8.2 11.6 9.2 12.6C9.9 13.3 10.6 14 11.3 14.7L12.3 15.7C12.2 15.7 12.1 15.7 12 15.7C11.5 15.7 11.1 15.7 10.6 15.7C9.3 15.8 8.5 16.8 8.5 18C8.6 19.2 9.5 20.1 10.9 20.1C11.6 20.1 12.3 20.1 13.1 20.1C14.2 20.1 15.3 20.1 16.4 20.1C16.6 20.1 16.8 20.2 16.9 20.3C18.6 22 20.4 23.7 22.1 25.5L23.3 26.7L23.4 26.8C23.3 27 23.3 27.1 23.2 27.3C22.9 27.9 22.7 28.5 22.5 29.2C22.5 29.3 22.4 29.3 22.5 29.3C22.5 29.3 22.5 29.3 22.4 29.3H20.7C18.7 29.3 16.6 29.3 14.5 29.3C13.3 29.3 12.6 29 11.9 28.2C11 27.1 9.9 26.1 8.9 25.1L8.8 25C8.2 24.4 7.3 24.2 6.6 24.5C5.8 24.7 5.3 25.4 5.1 26.2C5 27 5.3 27.7 5.9 28.3L6.9 29.3H5.7C4.6 29.3 3.4 29.3 2.3 29.3C1 29.3 0 30.2 0 31.5C0 32.8 1 33.7 2.3 33.7C3.4 33.7 4.6 33.7 5.7 33.7H6.9C6.5 34 6.2 34.4 5.9 34.7C5.3 35.3 5.1 36 5.2 36.8C5.4 37.6 5.9 38.2 6.7 38.5C7.5 38.7 8.3 38.5 9 37.9C9.7 37.3 10.3 36.6 10.9 36C11.6 35.3 12.2 34.7 12.9 34C13 33.9 13.3 33.8 13.4 33.8C15.9 33.8 18.4 33.8 20.9 33.8H22.5C22.5 33.8 22.5 33.8 22.6 33.8L23.6 36.3L22.7 37.2C20.9 39 19 40.9 17 42.8C17 42.8 16.8 42.9 16.7 42.9C15.6 42.9 14.4 42.9 13.3 42.9H11.4C11.1 42.9 10.8 42.9 10.5 43C9.4 43.2 8.7 44.2 8.8 45.3C8.9 46.4 9.7 47.2 10.8 47.3C11.2 47.3 11.6 47.3 12 47.3H12.4H12.5C11.8 47.9 11.2 48.6 10.5 49.3L9.3 50.5C8.6 51.2 8.4 51.9 8.6 52.7C8.8 53.5 9.4 54.1 10.1 54.3C10.9 54.5 11.7 54.3 12.3 53.7C13.1 52.9 13.9 52.1 14.8 51.3L15.6 50.5C15.6 50.9 15.6 51.4 15.6 51.8C15.6 53.2 16.5 54.2 17.8 54.2C19.1 54.2 20 53.2 20 51.7V49.8C20 48.6 20 47.4 20 46.3C20 46.1 20.1 45.9 20.2 45.8C21.5 44.5 22.8 43.1 24.2 41.8L26.4 39.5C26.5 39.4 26.6 39.3 26.6 39.2C26.8 39.3 26.9 39.3 27.1 39.4C27.7 39.7 28.3 39.9 28.9 40.1C29.2 40.2 29.1 40.2 29.1 40.2C29.1 40.2 29.1 40.2 29.1 40.4V42.1C29.1 44.1 29.1 46.1 29.1 48.1C29.2 49.3 28.8 50.2 27.9 50.9C27 51.7 26.2 52.5 25.4 53.4L25 54.1C24.1 55 24.1 56.3 25 57.2C25.8 58.1 27.2 58.1 28.1 57.2C28.3 57 28.4 56.9 28.6 56.7L29.2 56.1V57.1C29.2 58.2 29.2 59.4 29.2 60.5C29.2 61.6 29.7 62.5 30.6 62.8C31 63 31.3 63 31.5 63C31.9 63 32.3 62.9 32.7 62.6C33.3 62.2 33.7 61.4 33.7 60.6C33.7 59.5 33.7 58.4 33.7 57.3V56.1C33.8 56.2 33.8 56.2 33.9 56.3C34.2 56.6 34.6 57 34.9 57.3C35.5 57.8 36.3 58 37 57.7C37.7 57.5 38.2 56.9 38.4 56.2C38.7 55.3 38.4 54.5 37.7 53.8C36.4 52.5 35.1 51.2 33.9 50C33.7 49.8 33.7 49.7 33.7 49.7C33.7 46.5 33.7 43.4 33.7 40.3C34.4 40 35 39.8 35.7 39.5L36.2 39.3C36.2 39.3 36.2 39.3 36.3 39.4L37.9 41C39.5 42.6 41 44.1 42.6 45.7C42.8 45.9 42.9 46.1 42.9 46.4C42.9 48.2 42.9 50 42.9 51.8C42.9 53.1 43.9 54.1 45.1 54.1C46.3 54.1 47.3 53.1 47.3 51.8C47.3 51.5 47.3 51.2 47.3 51V50.4L50.4 53.5C51.5 54.6 52.8 54.7 53.7 53.7C54.1 53.3 54.4 52.7 54.4 52.2C54.4 51.6 54.1 50.9 53.5 50.3L50.4 47.2C50.9 47.2 51.3 47.2 51.8 47.2C52.7 47.2 53.3 46.9 53.7 46.3C54.2 45.6 54.2 44.8 53.9 44.1C53.5 43.3 52.8 42.8 51.8 42.8C51.2 42.8 50.5 42.8 49.9 42.8C48.7 42.8 47.5 42.8 46.3 42.8C46.1 42.8 45.9 42.7 45.8 42.6C44.1 40.9 42.4 39.2 40.7 37.5L39.5 36.3L39.4 36.2C39.5 36 39.5 35.9 39.6 35.7C39.9 35.1 40.1 34.5 40.3 33.8C40.3 33.7 40.4 33.7 40.3 33.7H40.4C43.4 33.7 46.4 33.7 49.4 33.7C49.6 33.7 49.8 33.8 49.9 33.9C50.6 34.6 51.3 35.3 52 36C52.6 36.6 53.3 37.3 53.9 37.9C54.8 38.8 56.1 38.8 57 37.9C57.9 37 57.9 35.7 57 34.7C56.7 34.4 56.5 34.2 56.2 33.9L55.9 33.6H56.5C57.9 33.6 59.2 33.6 60.5 33.6C61.8 33.6 62.8 32.7 62.8 31.4C63 30.2 62.1 29.3 60.7 29.3ZM36.2 31.5C36.2 32.7 35.7 33.9 34.8 34.8C33.9 35.7 32.7 36.2 31.5 36.2C30.3 36.2 29.1 35.7 28.2 34.8C27.3 33.9 26.8 32.8 26.8 31.5C26.8 28.9 28.9 26.8 31.5 26.8C32.7 26.8 33.9 27.3 34.8 28.2C35.7 29.1 36.2 30.3 36.2 31.5Z" fill="#3546AB"/>
</svg>
