<svg width="64" height="56" viewBox="0 0 64 56" fill="none" xmlns="http://www.w3.org/2000/svg">
<path d="M1.00078 5.1C1.00078 5 1.10078 5 1.10078 4.9C1.70078 2.5 3.50078 1 6.00078 1C14.6008 1 23.3008 1 31.9008 1C32.5008 1 33.2008 1 33.8008 1C35.0008 1 35.9008 1.8 35.9008 2.9C35.9008 4 35.0008 4.9 33.8008 4.9C24.7008 4.9 15.5008 4.9 6.40078 4.9C5.20078 4.9 4.90078 5.1 4.90078 6.4C4.90078 15.4 4.90078 24.5 4.90078 33.5C4.90078 34.7 5.20078 34.9 6.30078 34.9C18.5008 34.9 30.7008 34.9 42.9008 34.9C43.1008 34.9 43.3008 34.9 43.6008 34.9C43.6008 34.6 43.6008 34.4 43.6008 34.2C43.6008 31.9 43.6008 29.6 43.6008 27.4C43.6008 26.4 44.0008 25.8 44.8008 25.4C45.5008 25 46.3008 24.7 47.0008 24.3C47.3008 24.2 47.4008 24 47.4008 23.7C47.4008 17.8 47.4008 12 47.4008 6.1C47.4008 5.4 47.0008 5 46.3008 5C44.8008 5 33.1008 5 31.6008 5C30.3008 5 29.4008 4.2 29.5008 3C29.5008 1.9 30.4008 1.1 31.6008 1.1C33.1008 1.1 44.8008 1.1 46.3008 1.1C49.2008 1.1 51.3008 3.2 51.3008 6.1C51.3008 11.2 51.3008 16.3 51.3008 21.4C51.3008 21.6 51.3008 21.8 51.3008 22.2C51.7008 22 52.0008 21.9 52.3008 21.7C52.9008 21.4 53.6008 21.4 54.2008 21.7C56.7008 23 59.3008 24.2 61.8008 25.5C62.3008 25.7 62.6008 26.3 62.9008 26.8C62.9008 31 62.9008 35.2 62.9008 39.4C62.5008 39.9 62.1008 40.4 61.6008 40.8C60.9008 41.4 60.1008 41.9 59.4008 42.5C59.1008 42.7 59.0008 42.9 59.0008 43.3C59.0008 45.4 59.0008 47.5 59.0008 49.7C59.0008 52 57.3008 54 55.0008 54.4C54.2008 54.5 53.3008 54.5 52.4008 54.5C49.4008 54.5 47.4008 52.4 47.3008 49.4C47.3008 47.4 47.3008 45.4 47.3008 43.3C47.3008 42.9 47.2008 42.7 46.9008 42.5C46.2008 42 45.6008 41.5 44.9008 41C44.2008 40.5 43.4008 40 43.4008 38.9C39.5008 38.9 35.7008 38.9 31.8008 38.9C31.8008 40.2 31.8008 41.4 31.8008 42.7C32.8008 42.7 33.8008 42.7 34.7008 42.7C37.0008 42.7 39.0008 44.4 39.4008 46.7C39.6008 47.7 39.5008 48.7 39.5008 49.7C39.4008 52.3 37.4008 54.4 34.8008 54.4C28.9008 54.4 23.0008 54.4 17.1008 54.4C14.8008 54.4 12.9008 52.7 12.5008 50.5C12.4008 49.6 12.4008 48.7 12.4008 47.8C12.4008 44.9 14.5008 42.8 17.4008 42.8C18.3008 42.8 19.2008 42.8 20.1008 42.8C20.1008 41.5 20.1008 40.2 20.1008 38.9C19.8008 38.9 19.6008 38.9 19.4008 38.9C14.8008 38.9 10.3008 38.9 5.70078 38.9C3.80078 38.9 2.30078 38.1 1.40078 36.4C1.10078 35.9 1.00078 35.3 0.800781 34.8C1.00078 24.8 1.00078 15 1.00078 5.1ZM51.4008 26.4C50.1008 27 48.9008 27.6 47.7008 28.2C47.6008 28.3 47.5008 28.6 47.5008 28.8C47.5008 31.6 47.5008 34.5 47.5008 37.3C47.5008 37.5 47.7008 37.9 47.9008 38C48.7008 38.6 49.5008 39.3 50.4008 39.9C51.1008 40.4 51.4008 41.1 51.4008 42C51.4008 44.4 51.4008 46.8 51.4008 49.2C51.4008 50.1 51.7008 50.4 52.6008 50.4C53.1008 50.4 53.5008 50.4 54.0008 50.4C54.9008 50.4 55.3008 50.1 55.3008 49.1C55.3008 46.8 55.3008 44.4 55.3008 42.1C55.3008 41.1 55.6008 40.4 56.4008 39.9C57.2008 39.3 58.0008 38.7 58.8008 38.1C59.1008 37.9 59.2008 37.6 59.2008 37.2C59.2008 34.8 59.1008 32.4 59.2008 30.1C59.3008 28.7 58.8008 27.9 57.5008 27.5C56.7008 27.2 56.0008 26.8 55.2008 26.4C55.2008 28.2 55.2008 29.9 55.2008 31.6C55.2008 31.8 55.2008 32.1 55.2008 32.3C55.0008 33.3 54.1008 33.9 53.1008 33.8C52.1008 33.7 51.4008 32.9 51.4008 31.9C51.4008 30.2 51.4008 28.4 51.4008 26.4ZM26.2008 46.5C23.4008 46.5 20.5008 46.5 17.7008 46.5C16.8008 46.5 16.5008 46.8 16.5008 47.7C16.5008 48.2 16.5008 48.6 16.5008 49.1C16.5008 50 16.8008 50.4 17.8008 50.4C20.5008 50.4 23.2008 50.4 25.9008 50.4C28.8008 50.4 31.8008 50.4 34.7008 50.4C35.6008 50.4 35.9008 50.1 35.9008 49.2C35.9008 48.7 35.9008 48.3 35.9008 47.8C35.9008 46.9 35.6008 46.5 34.6008 46.5C31.8008 46.5 29.0008 46.5 26.2008 46.5ZM28.1008 42.6C28.1008 41.3 28.1008 40 28.1008 38.8C26.8008 38.8 25.5008 38.8 24.3008 38.8C24.3008 40.1 24.3008 41.3 24.3008 42.6C25.6008 42.6 26.8008 42.6 28.1008 42.6Z" fill="#3546AB" stroke="#3546AB" stroke-width="1.5"/>
<path d="M27.1992 31C26.0992 31 25.2992 30.1 25.1992 29.1C25.1992 28 26.0992 27.1 27.0992 27.1C28.1992 27.1 28.9992 28 28.9992 29C29.0992 30.1 28.1992 31 27.1992 31Z" fill="#3546AB" stroke="#3546AB" stroke-width="1.5"/>
</svg>
