<svg width="75" height="83" viewBox="0 0 75 83" fill="none" xmlns="http://www.w3.org/2000/svg">
<g clip-path="url(#clip0)">
<path d="M65.8 27.3H55V23H63.7V14.3H68V25.1C68 26.4 67 27.3 65.8 27.3Z" fill="#3546AB"/>
<path d="M37.5 82.3C16.8 82.3 0 65.5 0 44.8C0 24.1 16.8 7.3 37.5 7.3C49.4 7.3 60.7 13 67.7 22.6L64 25.3C57.8 16.9 48 11.9 37.5 11.9C19.4 11.9 4.6 26.7 4.6 44.8C4.6 62.9 19.4 77.7 37.5 77.7C55.6 77.7 70.4 63 70.4 44.8C70.4 43.3 70.3 41.9 70.1 40.5L74.6 39.9C74.8 41.5 74.9 43.1 74.9 44.8C75 65.5 58.2 82.3 37.5 82.3Z" fill="#3546AB"/>
<path d="M50.3994 63.3C50.2994 63.3 50.1994 63.3 49.9994 63.3C32.3994 61.9 18.1994 47.7 16.9994 30.3C16.8994 29 17.2994 27.8 18.1994 26.8C19.0994 25.9 20.1994 25.4 21.4994 25.4L28.4994 25.3C30.5994 25.3 32.3994 26.7 32.8994 28.7L34.3994 34.5C34.7994 36.3 34.1994 38.1 32.6994 39.2L30.6994 40.7C32.7994 44.3 35.8994 47.3 39.4994 49.5L40.9994 47.5C42.0994 46 43.9994 45.4 45.6994 45.8L51.4994 47.3C53.4994 47.8 54.8994 49.6 54.8994 51.7V58.9C54.8994 60.2 54.3994 61.3 53.4994 62.2C52.6994 62.9 51.5994 63.3 50.3994 63.3ZM28.4994 29.8L21.5994 29.9C22.6994 45.2 35.0994 57.5 50.4994 58.7V51.6L44.6994 50.2L41.9994 53.8C41.2994 54.7 40.0994 55 39.0994 54.5C33.2994 51.6 28.5994 46.8 25.6994 41.1C25.1994 40.1 25.4994 38.9 26.3994 38.3L29.9994 35.6L28.4994 29.8Z" fill="#48EEF9"/>
<path d="M13.5 4.8L17.8 0.5L20 2.7L15.7 7L13.5 4.8Z" fill="#3546AB"/>
<path d="M1.19922 17.1L5.49922 12.8L7.59922 15L3.29922 19.3L1.19922 17.1Z" fill="#3546AB"/>
<path d="M1.19922 2.1L3.29922 0L7.59922 4.3L5.49922 6.4L1.19922 2.1Z" fill="#3546AB"/>
</g>
<defs>
<clipPath id="clip0">
<rect width="75" height="82.3" fill="white"/>
</clipPath>
</defs>
</svg>
