<svg width="57" height="62" viewBox="0 0 57 62" fill="none" xmlns="http://www.w3.org/2000/svg">
<g clip-path="url(#clip0_534_507)">
<path d="M56.7 0C56.7 7 56.7 14 56.7 21C53.1 21 49.5 21 45.8 21C45.8 19.8 45.8 18.7 45.8 17.5C45.6 17.5 45.5 17.5 45.3 17.5C43.6 17.5 42 17.5 40.3 17.5C39.1 17.5 38.5 18.1 38.5 19.2C38.5 21 38.5 22.8 38.5 24.7C39.7 24.7 40.9 24.7 42.1 24.7C42.1 28.3 42.1 31.9 42.1 35.6C40.9 35.6 39.8 35.6 38.5 35.6C38.5 35.9 38.5 36.1 38.5 36.3C38.5 39 38.5 41.7 38.5 44.4C38.5 52.7 33 59.7 24.9 61.6C15.3 63.9 5.4 57.2 3.9 47.4C3.7 46.4 3.7 45.3 3.7 44.3C3.7 33.4 3.7 22.6 3.7 11.7C3.7 11.5 3.7 11.2 3.7 10.9C2.5 10.9 1.3 10.9 0.1 10.9C0 7.2 0 3.6 0 0C7 0 14 0 21.1 0C21.1 3.6 21.1 7.2 21.1 10.9C19.8 10.9 18.7 10.9 17.5 10.9C17.5 11 17.5 11.1 17.5 11.1C17.5 22.2 17.5 33.4 17.5 44.5C17.5 44.9 17.6 45.3 17.7 45.6C18.2 47.3 19.9 48.3 21.6 48.1C23.4 47.8 24.7 46.4 24.7 44.6C24.7 41.7 24.7 38.8 24.7 35.9C24.7 35.8 24.7 35.7 24.7 35.6C23.5 35.6 22.3 35.6 21.2 35.6C21.2 32 21.2 28.4 21.2 24.7C22.4 24.7 23.6 24.7 24.8 24.7C24.8 24.4 24.8 24.2 24.8 24C24.8 21.6 24.8 19.2 24.8 16.8C24.8 16.1 24.8 15.3 25 14.6C26.1 8.1 31.4 3.7 38 3.7C40.4 3.7 42.8 3.7 45.2 3.7C45.4 3.7 45.6 3.7 45.9 3.7C45.9 2.4 45.9 1.3 45.9 0.1C49.4 0 53 0 56.7 0ZM7.3 42.7C8.4 42.5 9.5 42.3 10.6 42.3C11.7 42.3 12.8 42.6 13.8 42.7C13.8 32.2 13.8 21.6 13.8 10.9C11.6 10.9 9.5 10.9 7.3 10.9C7.3 21.6 7.3 32.2 7.3 42.7ZM34.6 46.6C34.3 46.5 33.9 46.4 33.6 46.2C32.3 45.7 31 45.6 29.7 46.1C29.3 46.2 28.9 46.4 28.5 46.5C28.1 46.6 27.9 46.8 27.7 47.1C26.5 49.8 24.4 51.4 21.4 51.6C18.4 51.8 16.1 50.5 14.6 47.9C14.1 47 13.5 46.5 12.5 46.1C10.7 45.4 9 45.7 7.3 46.5C8.1 52.5 13.6 58.4 21.3 58.1C29.2 58.1 34.1 51.9 34.6 46.6ZM45.7 7.3C45.5 7.3 45.3 7.3 45.1 7.3C42.6 7.3 40.2 7.3 37.7 7.3C32.4 7.3 28.3 11.4 28.3 16.7C28.3 19.2 28.3 21.6 28.3 24.1C28.3 24.3 28.3 24.5 28.3 24.7C30.5 24.7 32.6 24.7 34.8 24.7C34.8 24.5 34.8 24.3 34.8 24.1C34.8 22.5 34.8 20.8 34.8 19.2C34.8 16.1 37 13.9 40.1 13.9C41.7 13.9 43.4 13.9 45 13.9C45.2 13.9 45.4 13.9 45.6 13.9C45.7 11.6 45.7 9.5 45.7 7.3ZM17.4 3.7C12.8 3.7 8.2 3.7 3.7 3.7C3.7 4.9 3.7 6.1 3.7 7.2C8.3 7.2 12.9 7.2 17.4 7.2C17.4 6 17.4 4.9 17.4 3.7ZM53 17.4C53 12.8 53 8.2 53 3.7C51.8 3.7 50.6 3.7 49.4 3.7C49.4 8.3 49.4 12.8 49.4 17.4C50.6 17.4 51.8 17.4 53 17.4ZM38.5 31.9C38.5 30.7 38.5 29.5 38.5 28.3C33.9 28.3 29.3 28.3 24.8 28.3C24.8 29.5 24.8 30.7 24.8 31.9C29.3 31.9 33.9 31.9 38.5 31.9ZM34.8 35.6C32.6 35.6 30.5 35.6 28.3 35.6C28.3 38 28.3 40.4 28.3 42.8C30.9 42.1 30.9 42.1 34.8 42.8C34.8 40.4 34.8 38 34.8 35.6Z" fill="#3546AB"/>
</g>
<defs>
<clipPath id="clip0_534_507">
<rect width="56.7" height="62" fill="white"/>
</clipPath>
</defs>
</svg>
