<svg width="55" height="64" viewBox="0 0 55 64" fill="none" xmlns="http://www.w3.org/2000/svg">
<path d="M3 36.6087V35.9623C3.16279 34.1849 3.65117 32.246 4.79071 30.7917C6.5814 29.0144 7.72095 26.5907 8.20932 24.167C8.20932 22.228 8.20928 20.2891 8.37207 18.5117C9.18603 9.30167 18.3023 3 27.4186 3H27.5814C36.5349 3 45.6511 9.30167 46.6279 18.5117C46.7907 20.4507 46.6279 22.3896 46.7907 24.167C47.2791 26.5907 48.5814 28.8528 50.2093 30.7917C51.186 32.246 51.8372 34.1849 52 35.9623V36.6087C52 39.0324 51.186 41.456 49.5581 43.3949C47.4419 45.6571 44.5116 46.9497 41.4186 47.2729C32.3023 48.2424 23.0233 48.2424 13.7442 47.2729C10.6512 46.9497 7.72094 45.6571 5.60466 43.3949C3.81396 41.456 3 39.0324 3 36.6087Z" stroke="#3546AB" stroke-width="6" stroke-miterlimit="10" stroke-linecap="round" stroke-linejoin="round"/>
<path d="M21 57C22.4824 59.1458 24.6235 60.5114 26.9294 60.9015C29.2353 61.2917 31.5411 60.5113 33.5176 58.7556C34.0117 58.1704 34.6706 57.5852 35 57" stroke="#3546AB" stroke-width="6" stroke-miterlimit="10" stroke-linecap="round" stroke-linejoin="round"/>
</svg>
