<svg width="61" height="61" viewBox="0 0 61 61" fill="none" xmlns="http://www.w3.org/2000/svg">
<g clip-path="url(#clip0_534_577)">
<path d="M60.4 4.9C59 2.8 56.9 1.6 55.2 0.9C54.6 0.6 53.9 0.4 53.2 0.3C52.9 0.2 52.6 0.1 52.3 0.1H50.4C48.5 0.5 46.9 1.1 45.6 2C44.9 2.5 44.3 3 43.6 3.5C43 4 42.4 4.6 42.2 5.7C42.2 5.9 42 6.2 41.8 6.5C41.5 6.8 41.2 7 40.7 7C40.3 7 39.9 6.8 39.6 6.4C39.5 6.2 39.4 6 39.3 5.8C39.2 5.6 39.2 5.5 39.1 5.3C39 5.2 39 5.1 38.9 4.9C38.7 4.5 38.6 4.1 38.3 3.8C36.1 1.6 33.8 0.4 31.2 0C31.2 0 31.2 0 31.1 0H29.1C27.2 0.4 25.6 1 24.3 1.9C23.6 2.4 23 2.9 22.3 3.4C21.7 3.9 21.1 4.5 20.9 5.6C20.9 5.8 20.7 6.1 20.5 6.4C20.5 6.8 20.1 7 19.6 7C19.2 7 18.8 6.8 18.5 6.4C18.4 6.2 18.3 6 18.2 5.8C18.1 5.6 18.1 5.5 18 5.3C18 5.2 18 5.1 17.9 4.9C17.7 4.5 17.6 4.1 17.3 3.8C15.1 1.6 12.8 0.4 10.2 0C10.2 0 10.2 0 10.1 0H8.1C6.1 0.4 4.6 1 3.3 1.9C2.6 2.4 1.8 3 0.8 3.9C0.6 4.1 0.4 4.3 0.3 4.6C0.2 4.7 0.1 4.8 0 4.9V5V55.5V55.6C0.1 55.7 0.1 55.8 0.2 55.9C0.4 56.1 0.5 56.4 0.7 56.6C1.5 57.3 2.5 57.2 3.3 56.4C4.4 55.4 5.4 54.6 6.6 54.1C8.6 53.2 10.6 53.4 12.7 54.9C13.4 55.4 14.2 56 14.6 57.1C15.3 59 16.6 60.2 18.6 60.5C18.6 60.5 18.6 60.5 18.7 60.5H18.8H20.5H20.6C20.8 60.4 20.9 60.4 21.1 60.3C21.5 60.2 21.8 60.1 22.2 59.9C23.5 59.2 24.4 58.1 25 56.4C25.1 56.1 25.3 55.8 25.5 55.7C26.8 54.5 28.1 53.9 29.4 53.6C30.6 53.3 31.8 53.6 33.2 54.3C33.6 54.5 34 54.8 34.5 55.1C35.3 55.6 35.7 56.2 36 56.9C36.7 58.8 38.1 60.1 40 60.4C40 60.4 40 60.4 40.1 60.4H40.2H41.9C42.1 60.3 42.2 60.3 42.4 60.2C42.8 60.1 43.1 60 43.5 59.8C44.8 59.1 45.7 58 46.3 56.3C46.4 56 46.6 55.7 46.8 55.6C48.1 54.5 49.3 53.8 50.6 53.5C51.9 53.2 53.2 53.4 54.5 54.1C55.4 54.6 56.3 55.2 57.1 55.9C57.9 56.6 58.6 56.8 59.2 56.7C59.8 56.6 60.3 56.2 60.8 55.3L60.4 4.9ZM46.2 31.5C46.2 31.1 46.3 30.8 46.6 30.7C46.9 30.5 47.2 30.3 47.5 30.2C48.1 29.8 48.7 29.4 49.4 29.1C50 28.8 50.7 28.7 51.3 28.7C51.9 28.7 52.5 28.8 53.2 29.1C53.7 29.3 54.1 29.5 54.5 29.7C56.6 30.9 56.6 30.9 56.6 33.3V51.1C53.1 49.1 49.7 49.1 46.3 51.1V47C46.2 41.7 46.2 36.6 46.2 31.5ZM56.5 25.3V26.3C54.8 25.3 53 24.8 51.3 24.8C49.6 24.8 47.9 25.3 46.2 26.3C46.2 26.2 46.2 26.2 46.2 26.1C46.2 19.7 46.2 13.2 46.2 6.8C46.2 6.6 46.3 6.4 46.3 6.3C47.6 5.2 48.8 4.5 50.1 4.1C51.3 3.8 52.6 4 53.8 4.6C54.5 5 55.2 5.5 55.9 5.9L56.3 6.2C56.4 6.3 56.5 6.4 56.5 6.6C56.5 12.8 56.5 19 56.5 25.3ZM42.3 54.4C42.3 54.8 42.1 55.4 41.8 55.9C41.6 56.3 41.2 56.5 40.8 56.5C40.4 56.5 40 56.3 39.7 55.9C39.4 55.4 39.2 54.9 39.2 54.6C39.2 49.3 39.2 43.9 39.2 38.7V35.6H42.3C42.3 35.6 42.3 35.7 42.3 35.8V39.5C42.3 44.3 42.3 49.4 42.3 54.4ZM42.3 29.7C42.3 30.2 42.1 30.7 41.8 31.2C41.6 31.6 41.2 31.8 40.7 31.8C40.3 31.8 39.9 31.6 39.6 31.2C39.3 30.7 39.1 30.3 39.1 29.9C39.1 24.7 39.1 19.4 39.1 14.3V10.9H42.2C42.2 11 42.2 11 42.2 11.1V14.4C42.3 19.4 42.3 24.6 42.3 29.7ZM25.1 31.5C25.1 31.1 25.2 30.9 25.4 30.8C25.6 30.7 25.8 30.5 26.1 30.3C26.5 30 26.9 29.8 27.3 29.5C29.2 28.4 31.3 28.4 33.3 29.5C35.3 30.7 35.3 30.7 35.3 33V50.9C33.5 49.9 31.9 49.4 30.2 49.4C28.6 49.4 26.9 49.9 25.1 50.9C25.1 50.8 25.1 50.7 25.1 50.6V46.3C25.1 41.4 25.1 36.4 25.1 31.5ZM25.1 26.2C25.1 26.1 25.1 26.1 25.1 26V24.5C25.1 18.6 25.1 12.6 25.1 6.7C25.1 6.5 25.2 6.3 25.2 6.2C26.5 5 27.8 4.3 29.2 4C30.5 3.7 31.7 4 33.2 4.8C35.3 6 35.3 6 35.3 8.4V26.3C33.6 25.3 31.9 24.8 30.2 24.8C28.5 24.7 26.8 25.2 25.1 26.2ZM21.2 54.3C21.2 54.8 21 55.4 20.7 55.8C20.5 56.2 20.1 56.4 19.6 56.4C19.2 56.4 18.8 56.2 18.5 55.8C18.2 55.4 18.1 54.9 18.1 54.5C18.1 49.2 18.1 43.8 18.1 38.6V35.5H21.2V39.8C21.2 44.6 21.2 49.5 21.2 54.3ZM21.2 29.6C21.2 30.1 21 30.7 20.7 31.2C20.5 31.6 20.1 31.8 19.7 31.8C19.3 31.8 18.9 31.6 18.7 31.2C18.4 30.7 18.2 30.2 18.2 29.8C18.2 24.7 18.2 19.5 18.2 14.5V10.8H21.3V15.1C21.2 19.9 21.2 24.8 21.2 29.6ZM14.2 45.6C14.2 47.2 14.2 48.9 14.2 50.5V50.9C10.8 48.9 7.4 48.9 3.9 50.9V46.9C3.9 41.7 3.9 36.6 3.9 31.4C3.9 31 4 30.8 4.2 30.6C4.5 30.4 4.8 30.2 5.1 30C5.8 29.6 6.5 29.1 7.2 28.8C7.7 28.5 8.3 28.4 8.9 28.4C9.5 28.4 10.2 28.5 10.9 28.8C11.1 28.9 11.4 29 11.6 29.1L11.8 29.2C13.5 30 14.1 31 14.1 32.8C14.1 37.2 14.1 41.5 14.2 45.6ZM14.2 26.2C10.6 24.3 7.6 24.3 3.9 26.2C3.9 26.1 3.9 26.1 3.9 26C3.9 19.6 3.9 13.1 3.9 6.7C3.9 6.5 4 6.3 4 6.2C5.4 5 6.7 4.3 8.1 4C8.4 3.9 8.8 3.9 9.1 3.9C9.6 3.9 10.1 4 10.7 4.2C11.3 4.4 11.8 4.6 12.2 4.9C14.2 6 14.2 6 14.2 8.4V26.2Z" fill="#3546AB"/>
</g>
<defs>
<clipPath id="clip0_534_577">
<rect width="60.4" height="60.4" fill="white"/>
</clipPath>
</defs>
</svg>
