<svg width="64" height="64" viewBox="0 0 64 64" fill="none" xmlns="http://www.w3.org/2000/svg">
<path d="M52.1 22C53.1 23 54.4 22.8 55.1 21.6C57.6 17.4 60.1 13.2 62.6 9.1C62.7 8.9 62.8 8.6 63 8.4C63 8.1 63 7.8 63 7.6C62.6 7.1 62.3 6.6 61.9 6.2C60.6 4.8 59.3 3.5 57.9 2.2C57.5 1.8 56.9 1.4 56.5 1.1C56.2 1.1 55.9 1.1 55.7 1.1C51.3 3.7 47 6.3 42.6 8.9C41.1 9.6 41 10.9 42.1 12C42.4 12.3 42.8 12.7 43.1 12.9C39.8 16.2 36.5 19.5 33.1 22.9C32.4 22.2 31.7 21.3 30.9 20.7C29.8 19.8 29.6 18.8 29.8 17.4C31 9.6 25.6 2.5 18.1 1.2C17.6 1.1 17.2 1 16.7 1C15.9 1 15.1 1 14.3 1C13.4 1.2 12.4 1.3 11.5 1.6C10.6 1.9 9.7 2.2 8.9 2.6C7.5 3.2 7.3 4.6 8.4 5.7C10.5 7.9 12.7 10 14.8 12.2C15.2 12.6 15.4 13.1 15.5 13.6C15.6 14.3 15.3 14.9 14.6 15.3C13.9 15.7 13.3 15.6 12.7 15.2C12.5 15.1 12.3 14.9 12.1 14.7C10 12.6 8 10.5 5.9 8.5C4.6 7.2 3.4 7.4 2.6 9C1.8 10.5 1.3 12.2 1.1 13.9C1.1 14 1 14.2 1 14.3C1 15.1 1 15.9 1 16.7C1.3 17.9 1.5 19.2 1.9 20.4C3.9 26.4 10.2 30.5 16.6 29.9C17.3 29.8 18 29.8 18.7 29.6C19.2 29.5 19.5 29.5 19.8 29.9C20 30.1 20.3 30.3 20.7 30.7C20.4 30.9 20.2 31 20 31.1C14.6 36.5 9.4 41.8 4.1 47C2.5 48.6 1.4 50.4 1.1 52.7C1.1 52.8 1 52.8 1 52.9C1 53.5 1 54.2 1 54.8C1.3 55.8 1.5 56.8 1.9 57.8C4.4 63.2 11.7 64.6 16.1 60.6C17.6 59.3 19 57.8 20.4 56.4C24.5 52.3 28.6 48.2 32.8 44C33 43.8 33.1 43.6 33.4 43.3C33.8 43.8 34.1 44.1 34.4 44.5C34.5 44.7 34.5 44.9 34.5 45.1C33.4 50.7 34.9 55.5 39.1 59.4C43.4 63.3 50.4 64.1 55.4 61.2C56.6 60.5 56.8 59.2 55.7 58.2C53.6 56.1 51.5 54 49.4 51.9C48.4 50.9 48.3 49.8 49.1 49C49.9 48.2 51 48.3 52 49.3C54.1 51.4 56.1 53.4 58.2 55.5C59.5 56.8 60.7 56.5 61.5 55C62.3 53.5 62.7 51.9 62.9 50.2C62.9 50 63 49.9 63 49.7C63 48.9 63 48.1 63 47.3C62.7 46.1 62.5 44.8 62.1 43.6C60.1 37.6 53.9 33.5 47.6 34C46.8 34.1 46 34.2 45.2 34.4C45 34.4 44.7 34.4 44.6 34.3C43.4 33.2 42.3 32 41 30.7C44.3 27.4 47.6 24.1 51 20.8C51.4 21.2 51.7 21.6 52.1 22ZM55.7 5.1C56.8 6.2 57.8 7.2 58.9 8.3C57 11.4 55.1 14.6 53.2 17.8C50.9 15.5 48.6 13.2 46.3 10.9C49.4 8.9 52.6 7 55.7 5.1ZM30.4 41.3C25 46.7 19.6 52.1 14.2 57.5C12.5 59.2 10.6 59.7 8.3 59C4.9 57.9 3.6 53.4 5.8 50.7C6.1 50.3 6.4 50 6.7 49.7C12 44.4 17.3 39.1 22.5 33.9C22.7 33.7 22.8 33.6 22.9 33.4C25.5 36 28.1 38.6 30.6 41.1C30.6 41.1 30.5 41.2 30.4 41.3ZM42.5 37.4C43.3 38.2 44.1 38.4 45.2 38.1C49.3 36.9 52.9 37.7 56 40.7C59 43.6 59.9 47.1 59 51.1C58.9 51.2 58.8 51.2 58.7 51.3C58.6 51.1 58.5 50.9 58.4 50.7C56.8 49.1 55.2 47.4 53.5 45.9C51.5 44.1 48.3 44.4 46.3 46.3C44.4 48.2 44.2 51.4 45.9 53.5C46.8 54.5 47.7 55.4 48.7 56.4C49.5 57.2 50.3 58 51.2 58.9C49.6 59.4 48 59.5 46.5 59.1C42 58.2 39.1 55.4 37.9 51C37.4 49.1 37.4 47.2 38.1 45.3C38.5 44.1 38.2 43.3 37.4 42.4C32 37.2 26.7 31.9 21.4 26.6C20.6 25.8 19.8 25.6 18.7 25.9C15.3 26.9 12.1 26.4 9.2 24.5C5.7 22.1 3.8 17.1 4.9 13C5 13 5 12.9 5.1 12.7C5.4 13 5.7 13.3 6 13.6C7.5 15.1 8.9 16.6 10.5 17.9C12.5 19.7 15.7 19.4 17.7 17.5C19.7 15.6 19.9 12.4 18.1 10.3C16.6 8.6 15 7.1 13.4 5.4C13.2 5.2 13.1 5.1 12.9 4.9C14.9 4.4 16.8 4.4 18.7 5C22.6 6.2 25.1 8.9 26.2 12.9C26.7 14.8 26.7 16.7 26 18.6C25.6 19.8 25.9 20.6 26.8 21.5C32 26.8 37.3 32.1 42.5 37.4ZM38.4 28C37.6 27.2 36.8 26.4 36 25.6C39.2 22.4 42.5 19.1 45.8 15.8C46.6 16.6 47.4 17.4 48.2 18.2C44.9 21.4 41.6 24.7 38.4 28Z" fill="#3546AB" stroke="#3546AB" stroke-width="1.5"/>
<path d="M11.1984 50.6C10.9984 50.8 10.7984 51 10.6984 51.2C10.2984 51.8 10.2984 52.4 10.6984 53C10.9984 53.6 11.5984 53.9 12.1984 53.9C12.8984 53.9 13.2984 53.6 13.7984 53.1C17.2984 49.6 20.7984 46.1 24.3984 42.5C24.5984 42.3 24.6984 42.2 24.7984 42C25.1984 41.4 25.2984 40.8 24.9984 40.1C24.6984 39.4 24.0984 39 23.2984 39.1C22.7984 39.2 22.1984 39.4 21.8984 39.8C18.2984 43.5 14.6984 47.1 11.1984 50.6Z" fill="#3546AB" stroke="#3546AB" stroke-width="1.5"/>
</svg>
