<svg width="58" height="61" viewBox="0 0 58 61" fill="none" xmlns="http://www.w3.org/2000/svg">
<path d="M52.6 14.6C52.7 14.6 52.8 14.6 52.8 14.6C53.1 14.6 53.5 14.6 53.9 14.6C54.4 14.6 54.9 14.6 55.4 14.6C56.1 14.6 56.8 14 57.1 13.3C57.3 12.7 57.2 12 56.9 11.5C56.5 11 55.9 10.7 55.3 10.7C53.4 10.7 51.6 10.7 49.7 10.7C47.5 10.7 45.2 10.7 43 10.7C42.5 10.7 41.9 10.6 41.4 10.2C40.9 9.7 40.9 8.9 40.9 8.7C40.9 6.7 40.9 4.7 40.9 2.8C40.9 1.8 40.1 1 39.3 1C37.9 1 36.6 1 35.2 1C33.7 1 32.2 1 30.7 1H30.6C29.5 1 28.3 1 27.2 1C26.4 1 25.6 1 24.8 1C23.8 1 22.8 1 21.9 1C21 1 20 1 19.1 1C18.3 1 17.5 1.8 17.5 2.6C17.5 4 17.5 5.5 17.5 7C17.5 7.6 17.5 8.3 17.5 8.9C17.5 9.4 17.3 9.9 17 10.2C16.5 10.7 15.8 10.7 15.4 10.7H15.3C12.5 10.7 9.7 10.7 6.9 10.7H4.4C4.2 10.7 4.1 10.7 3.9 10.7C3.7 10.7 3.5 10.7 3.2 10.7C3.1 10.7 3.1 10.7 3 10.7C1.9 10.7 1 11.6 1 12.7C1 13.8 1.8 14.6 2.9 14.6C3.4 14.6 3.8 14.6 4.3 14.6C4.7 14.6 5.2 14.6 5.6 14.6H5.7C6.3 14.6 6.7 14.8 7.1 15.1C7.4 15.4 7.6 15.9 7.6 16.5C7.6 17.1 7.6 17.8 7.6 18.4C7.6 18.7 7.6 18.9 7.6 19.2V20.9C7.6 22.2 7.6 23.4 7.6 24.7C7.6 26.7 7.6 28.7 7.6 30.7V33.2V35.9C7.5 41.4 7.5 47.1 7.7 52.7C7.8 55.2 9.1 57.2 11.5 58.9C12.9 59.8 14.6 60.2 16.8 60.2H17C21.4 60.2 25.8 60.2 30.1 60.2H30.2C31.9 60.2 33.6 60.2 35.2 60.2H37.2C38.8 60.2 40.3 60.2 41.9 60.2H42C43.7 60.2 45 59.9 46.1 59.2C47.5 58.4 48.9 57.4 49.6 55.9V55.8V55.7C50.1 55 50.3 54.3 50.4 53.5C50.7 51.3 50.6 49 50.6 46.7C50.6 45.8 50.6 44.8 50.6 43.9V41.8C50.6 40.3 50.6 38.7 50.6 37.2C50.6 34.9 50.6 32.5 50.6 30.2V27.3V27C50.6 26.8 50.6 26.7 50.6 26.5V24.2C50.6 21.8 50.6 19.2 50.6 16.7C50.6 16.3 50.6 15.6 51.1 15.1C51.5 14.7 52 14.6 52.6 14.6ZM21.7 5.3C22.2 4.7 22.9 4.7 23.2 4.7C24.6 4.7 26 4.7 27.4 4.7H30.2H32C32.2 4.7 32.3 4.7 32.5 4.7H32.8C33.1 4.7 33.3 4.7 33.5 4.7C33.9 4.7 34.3 4.7 34.6 4.7C34.7 4.7 34.9 4.7 35 4.7H35.1C35.6 4.7 36.1 4.9 36.4 5.2C36.7 5.5 36.9 6 36.9 6.5C36.9 7 36.9 7.5 36.9 8C36.9 8.2 36.9 8.4 36.9 8.7C36.9 9.3 36.7 9.7 36.4 10.1C36.1 10.4 35.6 10.6 35 10.6C33 10.6 30.9 10.6 28.9 10.6C27 10.6 25.1 10.6 23.1 10.6C22.9 10.6 22.1 10.6 21.6 10C21.3 9.6 21.1 9.1 21.1 8.5C21.1 7.9 21.1 7.3 21.1 6.7C21.2 6.6 21.2 5.9 21.7 5.3ZM46.7 51.8C46.6 52.6 46.5 53.6 45.8 54.5C44.9 55.8 43.5 56.4 41.9 56.4C40.1 56.4 38.3 56.4 36.5 56.4H32.5H30C29.9 56.4 29.8 56.4 29.7 56.4H29.2H28.7H26.1H17.9H17.7H17.2H16.7C16.5 56.4 16.3 56.4 16.1 56.4C13.3 56.4 11.3 54.4 11.3 51.6C11.3 49.1 11.3 46.6 11.3 44V39.9C11.3 39.7 11.3 39.6 11.3 39.4V39.1V36.5C11.3 34.5 11.3 32.5 11.3 30.5C11.3 29.2 11.3 28 11.3 26.7V25C11.4 22.6 11.4 20.2 11.3 17.8C11.3 17.6 11.3 17.4 11.3 17.3C11.3 17 11.3 16.8 11.3 16.6C11.2 16 11.4 15.5 11.7 15.1C12.2 14.6 12.8 14.5 13.2 14.5C14.7 14.5 16.2 14.5 17.7 14.5H20.6H22.5H22.6H22.8H22.9H23.8C24.4 14.5 25 14.5 25.7 14.5H31.9H41.7C41.9 14.5 42 14.5 42.2 14.5H42.5C42.7 14.5 42.8 14.5 42.9 14.5L43.3 14.3L43.5 14.6C43.7 14.6 44 14.6 44.2 14.6C44.4 14.6 44.5 14.6 44.7 14.6H44.8C45.4 14.6 45.8 14.8 46.1 15.1C46.6 15.6 46.6 16.3 46.6 16.5C46.6 17.7 46.6 18.9 46.6 20.1V21.5V24.5C46.6 26.8 46.6 29.2 46.6 31.5C46.6 33 46.6 34.6 46.6 36.1V38.2V41.2C46.6 44.1 46.6 47 46.6 49.9C46.6 50.3 46.6 50.7 46.6 51.1V51.7L46.7 51.8Z" fill="#3546AB" stroke="#3546AB"/>
<path d="M33.5992 45.3001C33.5992 46.3001 34.2992 47.1001 35.3992 47.2001C35.4992 47.2001 35.4992 47.2001 35.5992 47.2001C36.2992 47.2001 36.9992 46.7001 37.2992 46.0001V45.9001V45.8001L37.3992 45.7001C37.3992 45.6001 37.4992 45.5001 37.4992 45.4001C37.4992 44.2001 37.4992 43.0001 37.4992 41.8001V40.5001V40.0001V34.0001C37.4992 33.2001 37.4992 32.3001 37.4992 31.5001C37.4992 29.6001 37.4992 27.5001 37.4992 25.6001C37.4992 24.7001 36.6992 23.9001 35.6992 23.7001C35.5992 23.7001 35.5992 23.7001 35.4992 23.7001C34.5992 23.7001 33.7992 24.3001 33.5992 25.2001C33.3992 26.0001 33.3992 26.9001 33.5992 28.0001V28.1001V28.2001C33.4992 30.3001 33.4992 32.5001 33.5992 34.5001V34.6001C33.4992 36.6001 33.4992 38.6001 33.5992 40.5001C33.5992 41.1001 33.5992 41.5001 33.5992 42.0001C33.5992 43.2001 33.5992 44.2001 33.5992 45.3001Z" fill="#3546AB" stroke="#3546AB"/>
<path d="M24.4992 27.4001C24.4992 27.1001 24.4992 26.9001 24.4992 26.7001C24.4992 26.3001 24.4992 26.0001 24.4992 25.7001C24.3992 24.8001 24.0992 24.2001 23.3992 23.9001C22.9992 23.7001 22.6992 23.7001 22.4992 23.7001C22.1992 23.7001 21.8992 23.8001 21.5992 24.0001L21.4992 24.1001H21.3992C21.1992 24.2001 20.8992 24.4001 20.6992 25.0001C20.4992 25.5001 20.5992 26.0001 20.5992 26.6001C20.5992 26.8001 20.5992 27.1001 20.5992 27.3001V32.7001V33.1001V39.4001V41.1001C20.5992 42.4001 20.5992 43.7001 20.5992 45.0001C20.5992 46.2001 21.3992 47.1001 22.4992 47.1001C22.9992 47.1001 23.4992 46.9001 23.8992 46.5001C24.1992 46.1001 24.3992 45.7001 24.3992 45.3001V45.2001C24.4992 43.2001 24.4992 41.1001 24.3992 39.1001V39.0001C24.4992 37.2001 24.4992 35.4001 24.3992 33.3001V33.2001C24.5992 31.5001 24.5992 29.6001 24.4992 27.4001Z" fill="#3546AB" stroke="#3546AB"/>
</svg>
