<svg width="73" height="73" viewBox="0 0 73 73" fill="none" xmlns="http://www.w3.org/2000/svg">
<g clip-path="url(#clip0)">
<path d="M0.6 0.6C0.9 0.2 1.3 0 1.8 0H30.9C31.5 0 31.8 0.2 32.2 0.6C32.6 1 32.8 1.3 32.8 1.9V32C32.8 32.6 32.6 32.9 32.2 33.3C31.8 33.7 31.5 33.9 30.9 33.9H1.8C1.2 33.9 0.9 33.7 0.5 33.3C0.2 32.8 0 32.4 0 31.9V1.8C0 1.3 0.2 0.9 0.6 0.6ZM3.7 30.1H29.1V3.7H3.7V30.1Z" fill="#3546AB"/>
<path d="M10.3 36.4V69.1H68.7V19.7H36.2V16H70.6C71.2 16 71.5 16.2 71.9 16.6C72.3 17 72.5 17.3 72.5 17.9V71C72.5 71.6 72.3 71.9 71.9 72.3C71.5 72.7 71.2 72.9 70.6 72.9H8.49998C7.89998 72.9 7.59998 72.7 7.19998 72.3C6.79998 71.9 6.59998 71.6 6.59998 71V36.4H10.3Z" fill="#3546AB"/>
<path d="M9 14.7H14.4V9.30005H18V14.7H23.5V18.3H18V23.7H14.4V18.3H9V14.7Z" fill="#FB2B76"/>
<path d="M16.2665 46.3256H32.7665V42.7256H16.2665V46.3256Z" fill="#3546AB"/>
<path d="M21.1173 54.8256H32.7173V51.2256H21.1173V54.8256Z" fill="#3546AB"/>
<path d="M45.2 49.6C43.8 48.5 42.8 47.1001 42.3 45.4001C41.9 43.7001 41.9 41.9001 42.4 40.4001C43 38.7001 44.1 37.3 45.5 36.3C46.9 35.3 48.6 34.8 50.4 34.8C52.2 34.8 53.9 35.4 55.3 36.3C56.7 37.3 57.8 38.7001 58.4 40.4001C59 42.1001 59 43.9001 58.5 45.4001C58.1 47.1001 57 48.6 55.6 49.6C58 50.6 60.1 52.1 61.5 54.1C63 56.1 64 58.6001 64.3 60.9001C64.3 61.0001 64.3 61.3 64.3 61.5C64.3 61.6 64.2 61.9001 64 61.9001C63.7 62.2001 63.4 62.3 63 62.5C62.6 62.6 62.3 62.4001 62 62.2001C61.7 61.9001 61.6 61.6 61.4 61.2001C61.1 58.4001 59.7 55.9 57.8 54.1C55.7 52.3 53 51.3 50.4 51.3C47.8 51.3 45 52.3 43 54.1C40.9 55.9 39.6 58.4001 39.4 61.2001C39.4 61.6 39.3 61.9 39 62C38.7 62.3 38.4 62.4001 38 62.4001H37.9C37.5 62.4001 37.2 62.1 36.9 61.8C36.6 61.5 36.6 61.1 36.6 60.8C36.9 58.3 37.9 55.9 39.4 53.8C40.8 51.8 42.8 50.6 45.2 49.6ZM50.3 48.6C51.4 48.6 52.5 48.3 53.4 47.6C54.4 47 55.1 46.1 55.5 45.1C55.9 44.1 56.1 43.0001 55.8 41.9001C55.5 40.8001 55.1 39.8 54.3 39C53.5 38.2 52.5 37.7 51.5 37.5C50.4 37.2 49.3 37.4 48.3 37.8C47.3 38.2 46.3 38.9001 45.8 39.9001C45.2 40.9001 44.8 41.9 44.8 43C44.8 44.5 45.4 45.9001 46.5 46.9001C47.5 47.8001 48.8 48.6 50.3 48.6Z" fill="#58D7FF"/>
</g>
<defs>
<clipPath id="clip0">
<rect width="72.4" height="72.7" fill="white"/>
</clipPath>
</defs>
</svg>
