<svg width="58" height="62" viewBox="0 0 58 62" fill="none" xmlns="http://www.w3.org/2000/svg">
<g clip-path="url(#clip0_534_530)">
<path d="M48.8 0C49.8 0.5 50.2 1.3 50.1 2.4C50 4.3 50.1 6.2 50.1 8.1C50.1 8.3 50.1 8.5 50.1 8.8C50.4 8.8 50.5 8.8 50.7 8.8C52.4 8.8 54.2 8.8 55.9 8.8C57 8.8 57.8 9.5 57.8 10.6C57.8 15.5 57.8 20.3 57.8 25.2C57.8 26.1 57.2 26.7 56.2 27C53.5 27.7 50.7 28.4 48 29.1C42.4 30.5 36.8 31.9 31.2 33.3C30.7 33.4 30.6 33.6 30.6 34C30.6 35.3 30.6 36.6 30.6 37.9C31.3 37.9 31.9 37.9 32.5 37.9C33.7 37.9 34.4 38.6 34.5 39.8C34.8 44.7 35.1 49.6 35.4 54.5C35.6 58.2 33.4 61.2 29.8 61.9C29.7 61.9 29.7 62 29.6 62C29 62 28.5 62 27.9 62C26.8 61.7 25.7 61.4 24.8 60.6C23 59.1 22 57.2 22.1 54.9C22.3 50.8 22.6 46.7 22.9 42.6C23 41.6 23 40.7 23.1 39.7C23.2 38.5 23.9 37.8 25.1 37.8C25.7 37.8 26.3 37.8 27 37.8C27 37.6 27 37.3 27 37.1C27 35.4 27 33.7 27 32C27 30.9 27.5 30.3 28.6 30C37 28.1 45.2 26 53.5 24C54.1 23.9 54.3 23.7 54.3 23C54.3 19.7 54.3 16.5 54.3 13.2C54.3 13 54.3 12.8 54.3 12.5C52.9 12.5 51.6 12.5 50.2 12.5C50.2 12.7 50.2 12.9 50.2 13.2C50.2 15.2 50.2 17.2 50.2 19.3C50.2 20.5 49.4 21.3 48.2 21.3C35.4 21.3 22.6 21.3 9.8 21.3C8.6 21.3 7.8 20.6 7.8 19.3C7.8 17.1 7.8 14.9 7.8 12.6C6.4 12.6 5.1 12.6 3.7 12.6C3.7 13.6 3.7 14.6 3.7 15.6C3.7 16.4 3.3 16.9 2.6 17.3C1.9 17.6 1.2 17.5 0.7 17C0.3 16.5 0 15.9 0 15.5C0 12.6 0 9.7 0 6.8C0 5.7 0.8 5 1.8 5C2.8 5 3.6 5.8 3.6 6.8C3.6 7.5 3.6 8.1 3.6 8.8C5 8.8 6.3 8.8 7.7 8.8C7.7 7.7 7.7 6.5 7.7 5.4C7.7 4.4 7.7 3.4 7.7 2.4C7.7 1.3 8 0.5 9.1 0C22.3 0 35.6 0 48.8 0ZM11.4 3.7C11.4 8.4 11.4 13 11.4 17.6C23.1 17.6 34.8 17.6 46.4 17.6C46.4 13 46.4 8.4 46.4 3.7C34.8 3.7 23.1 3.7 11.4 3.7ZM26.8 41.6C26.8 41.7 26.8 41.9 26.8 42C26.6 44.3 26.5 46.6 26.4 48.9C26.2 51 26 53 25.9 55.1C25.8 57.4 28.2 59.1 30.2 58.1C31.5 57.5 32.1 56.4 32 55C31.8 51.6 31.6 48.3 31.4 44.9C31.3 43.8 31.2 42.7 31.2 41.6C29.6 41.6 28.2 41.6 26.8 41.6Z" fill="#3546AB"/>
</g>
<defs>
<clipPath id="clip0_534_530">
<rect width="57.9" height="62" fill="white"/>
</clipPath>
</defs>
</svg>
