<svg width="63" height="42" viewBox="0 0 63 42" fill="none" xmlns="http://www.w3.org/2000/svg">
<g clip-path="url(#clip0_534_550)">
<path d="M62.3 7.1C62.3 6.8 62.3 6.5 62.2 6.2C61.5 2.4 58.6 0 54.7 0H28C21.2 0 14.2 0 7.3 0C5 0 3 1 1.5 2.8C0.7 3.9 0.3 5 0 6.2V35.6C0 35.6 0 35.6 0 35.7C0.5 38.7 3.2 41.7 7.5 41.7C18 41.7 28.7 41.7 39.1 41.7C44.2 41.7 49.3 41.7 54.4 41.7C54.9 41.7 55.5 41.7 56.1 41.6C59.5 41.2 62.2 38 62.2 34.6C62.3 25.4 62.3 16.3 62.3 7.1ZM58.1 29.9C58.1 31.3 58.1 32.7 58.1 34.1C58.1 36.1 56.8 37.4 54.9 37.4C44.4 37.4 33.8 37.4 23.3 37.4H14.9C14.8 37.4 14.7 37.4 14.6 37.4V28.7H58.2C58.2 28.8 58.2 28.9 58.2 29L58.1 29.9ZM4.2 25.8V22.6V18.5C4.2 14.9 4.2 11.2 4.2 7.6C4.2 6 5.2 4.7 6.6 4.4C7 4.3 7.4 4.3 7.9 4.3C8 4.3 8.2 4.3 8.3 4.3C8.5 4.3 8.8 4.3 9 4.3C9.3 4.3 9.7 4.3 10 4.3H10.4V37.5C10 37.5 9.7 37.5 9.3 37.5C8.4 37.5 7.5 37.5 6.7 37.4C5.3 37.2 4.3 35.9 4.3 34.2C4.2 31.4 4.2 28.6 4.2 25.8ZM58.1 19.5C58.1 21 58.1 22.6 58.1 24.1V24.5H14.5V4.3H14.6C14.7 4.3 14.9 4.3 15 4.3C18.6 4.3 22.2 4.3 25.8 4.3C35.3 4.3 45.1 4.3 54.7 4.3C55.7 4.3 56.5 4.6 57.1 5.2C57.7 5.8 58.1 6.7 58 7.7C58.1 11.6 58.1 15.6 58.1 19.5Z" fill="#3546AB"/>
<path d="M41.5008 31C40.0008 31 38.8008 32.2 38.8008 33.7C38.8008 35.2 40.0008 36.4 41.5008 36.4C43.0008 36.4 44.2008 35.2 44.2008 33.7C44.2008 33 43.9008 32.3 43.4008 31.7C42.9008 31.3 42.2008 31 41.5008 31Z" fill="#3546AB"/>
<path d="M20.8 31C19.3 31 18.1 32.2 18 33.7C18 34.4 18.3 35.1 18.8 35.6C19.3 36.1 20 36.4 20.7 36.4C22.2 36.4 23.4 35.2 23.4 33.7C23.5 32.3 22.3 31 20.8 31Z" fill="#3546AB"/>
<path d="M51.8016 31C50.3016 31 49.1016 32.2 49.1016 33.7C49.1016 34.4 49.4016 35.1 49.9016 35.6C50.4016 36.1 51.1016 36.4 51.8016 36.4C53.3016 36.4 54.5016 35.2 54.5016 33.7C54.5016 32.3 53.3016 31 51.8016 31Z" fill="#3546AB"/>
<path d="M31.2 31C31.1 31 31.1 31 31.2 31C29.7 31 28.5 32.2 28.5 33.8C28.5 34.5 28.8 35.2 29.3 35.7C29.8 36.2 30.5 36.5 31.2 36.5C32.7 36.5 33.9 35.3 33.9 33.8C33.9 33.1 33.6 32.4 33.1 31.9C32.5 31.3 31.9 31 31.2 31Z" fill="#3546AB"/>
</g>
<defs>
<clipPath id="clip0_534_550">
<rect width="62.3" height="41.7" fill="white"/>
</clipPath>
</defs>
</svg>
