<svg width="72" height="72" viewBox="0 0 72 72" fill="none" xmlns="http://www.w3.org/2000/svg">
<g clip-path="url(#clip0)">
<path d="M71.2 39.1C70.5 32.4 67.5 26 62.7 21.2C58.8 17.3 53.9 14.6 48.6 13.4V10.2C50.8 9.5 52.3 7.5 52.3 5.2C52.3 2.3 50 0 47.1 0H36.8C33.9 0 31.6 2.3 31.6 5.2C31.6 7.5 33.1 9.5 35.3 10.2V13.4C30 14.6 25.1 17.3 21.2 21.2C20.4 22 19.6 22.9 18.8 23.9H11.6C10.6 23.9 9.9 24.7 9.9 25.6C9.9 26.5 10.7 27.3 11.6 27.3H16.5C15.6 28.9 14.8 30.5 14.3 32.2H1.7C0.7 32.2 0 33 0 33.9C0 34.8 0.8 35.6 1.7 35.6H13.2C12.9 37.2 12.6 38.9 12.6 40.5H6.5C5.5 40.5 4.8 41.3 4.8 42.2C4.8 43.1 5.6 43.9 6.5 43.9H12.6C12.7 45.6 13 47.2 13.4 48.8H7.5C6.5 48.8 5.8 49.6 5.8 50.5C5.8 51.4 6.6 52.2 7.5 52.2H14.5C16 56 18.2 59.4 21.1 62.4C25.9 67.2 32.2 70.2 39 70.9C40 71 40.9 71 41.9 71C47.6 71 53.2 69.4 57.9 66.3C58.7 65.8 58.9 64.7 58.4 63.9C57.9 63.1 56.8 62.9 56 63.4C45.8 70 32.2 68.6 23.5 60C18.6 55.1 15.9 48.6 15.9 41.7C15.9 34.8 18.6 28.3 23.5 23.4C28.4 18.5 34.9 15.8 41.8 15.8C48.7 15.8 55.2 18.5 60.1 23.4C68.7 32 70.1 45.6 63.5 55.8C63.2 56.2 63.2 56.7 63.3 57.1C63.4 57.5 63.7 57.9 64.1 58.2C64.9 58.7 66 58.5 66.5 57.7C70.3 52.4 71.9 45.7 71.2 39.1ZM45.1 10.4V12.8C43 12.6 40.8 12.6 38.7 12.8V10.4H45.1ZM48.8 5.2C48.8 6.1 48 6.9 47.1 6.9H36.8C35.9 6.9 35.1 6.1 35.1 5.2C35.1 4.3 35.9 3.5 36.8 3.5H47.2C48.1 3.5 48.8 4.3 48.8 5.2Z" fill="#3546AB"/>
<path d="M42 19.4C29.5 19.4 19.4 29.6 19.4 42.1C19.4 54.6 29.5 64.7 42 64.7C54.5 64.7 64.6 54.5 64.6 42C64.6 29.5 54.5 19.4 42 19.4ZM61.1 42C61.1 52.6 52.5 61.2 41.9 61.2C31.3 61.2 22.8 52.6 22.8 42C22.8 31.4 31.4 22.8 42 22.8C52.6 22.8 61.1 31.4 61.1 42Z" fill="#FB2B76"/>
<path d="M50.9 30.6L43.9 37.6C42.7 37.1 41.3 37.1 40.1 37.6L37.1 34.6C36.4 33.9 35.3 33.9 34.6 34.6C33.9 35.3 33.9 36.4 34.6 37.1L37.6 40.1C37.3 40.7 37.2 41.3 37.2 42C37.2 44.6 39.3 46.8 42 46.8C44.7 46.8 46.8 44.7 46.8 42C46.8 41.3 46.7 40.7 46.4 40.1L53.4 33.1C54.1 32.4 54.1 31.3 53.4 30.6C52.6 30 51.5 30 50.9 30.6ZM43.3 42C43.3 42.7 42.7 43.3 42 43.3C41.3 43.3 40.7 42.7 40.7 42C40.7 41.3 41.3 40.7 42 40.7C42.7 40.7 43.3 41.3 43.3 42Z" fill="#48EEF9"/>
<path d="M54.3 42C54.3 43 55.1 43.7001 56 43.7001H57.3C58.3 43.7001 59 42.9 59 42C59 41.1 58.2 40.3 57.3 40.3H56C55.1 40.3 54.3 41.1 54.3 42Z" fill="#3546AB"/>
<path d="M27.9 40.2H26.6C25.6 40.2 24.9 41 24.9 41.9C24.9 42.8 25.7 43.5999 26.6 43.5999H27.9C28.9 43.5999 29.6 42.8 29.6 41.9C29.6 41 28.9 40.2 27.9 40.2Z" fill="#3546AB"/>
<path d="M42 29.7C43 29.7 43.7 28.9 43.7 28V26.7C43.7 25.7 42.9 25 42 25C41.1 25 40.3 25.8 40.3 26.7V28C40.2 28.9 41 29.7 42 29.7Z" fill="#3546AB"/>
<path d="M41.9 54.3C40.9 54.3 40.2 55.1 40.2 56V57.3C40.2 58.3 41 59 41.9 59C42.8 59 43.5999 58.2 43.5999 57.3V56C43.6999 55.1 42.9 54.3 41.9 54.3Z" fill="#3546AB"/>
</g>
<defs>
<clipPath id="clip0">
<rect width="71.4" height="71.4" fill="white"/>
</clipPath>
</defs>
</svg>
