<svg width="21" height="20" viewBox="0 0 21 20" fill="none" xmlns="http://www.w3.org/2000/svg">
<path d="M15.7714 6.28516C13.7714 6.28516 12.4143 7.35658 11.8428 8.42801H11.7714V6.6423H7.77142V19.9994H11.9143V13.3566C11.9143 11.6423 12.2714 9.92801 14.4143 9.92801C16.5571 9.92801 16.5571 11.928 16.5571 13.4994V19.9994H20.7V12.6423C20.7714 9.07087 19.9857 6.28516 15.7714 6.28516Z" fill="#757AA5"/>
<path d="M5.19993 6.64258H1.05707V19.9997H5.19993V6.64258Z" fill="#757AA5"/>
<path d="M3.12852 0C1.77138 0 0.699951 1.07143 0.699951 2.42857C0.699951 3.78571 1.77138 4.85714 3.12852 4.85714C4.48567 4.85714 5.5571 3.78571 5.5571 2.42857C5.5571 1.07143 4.48567 0 3.12852 0Z" fill="#757AA5"/>
</svg>
