<svg width="30" height="30" viewBox="0 0 30 30" fill="none" xmlns="http://www.w3.org/2000/svg">
<path d="M15 0C6.75 0 0 6.75 0 15C0 23.25 6.75 30 15 30C23.25 30 30 23.25 30 15C30 6.75 23.25 0 15 0ZM16.2 24.6C15.75 24.9 15.3 25.2 14.85 25.2C14.25 25.2 13.8 25.05 13.5 24.75C13.05 24.45 12.9 23.85 12.9 23.25C12.9 22.65 13.05 22.2 13.5 21.9C13.95 21.45 14.4 21.3 15 21.3C15.6 21.3 16.05 21.45 16.35 21.9C16.8 22.35 16.95 22.8 16.95 23.25C16.8 23.7 16.65 24.15 16.2 24.6ZM21.15 12.15C20.85 12.75 20.55 13.2 20.1 13.65C19.65 14.1 18.9 14.7 17.85 15.75C17.55 16.05 17.25 16.2 17.1 16.5C16.95 16.65 16.8 16.95 16.65 17.1C16.5 17.25 16.5 17.4 16.5 17.55C16.5 17.7 16.35 18 16.35 18.45C16.2 19.35 15.6 19.8 14.7 19.8C14.25 19.8 13.8 19.65 13.5 19.35C13.2 19.05 13.05 18.6 13.05 18C13.05 17.25 13.2 16.65 13.35 16.05C13.65 15.45 13.95 15 14.25 14.55C14.7 14.1 15.15 13.65 15.75 13.05C16.35 12.6 16.8 12.15 16.95 12C17.25 11.7 17.4 11.4 17.55 11.1C17.85 10.95 18 10.65 18 10.2C18 9.45 17.7 8.85 17.25 8.4C16.65 7.95 16.05 7.65 15.15 7.65C14.25 7.8 13.5 7.95 13.05 8.55C12.6 9 12.15 9.75 11.85 10.65C11.55 11.7 10.95 12.15 10.2 12.15C9.6 12.15 9.15 12 8.85 11.7C8.55 11.25 8.4 10.95 8.4 10.5C8.4 9.6 8.7 8.85 9.15 7.95C9.75 7.05 10.5 6.3 11.55 5.85C12.6 5.25 13.8 4.95 15.15 4.95C16.5 4.95 17.55 5.25 18.6 5.7C19.65 6.15 20.4 6.75 20.85 7.65C21.45 8.4 21.6 9.3 21.6 10.35C21.6 10.95 21.45 11.7 21.15 12.15Z" fill="#D2D5EB"/>
</svg>
