<svg width="986" height="793" viewBox="0 0 986 793" fill="none" xmlns="http://www.w3.org/2000/svg">
<g filter="url(#filter0_d)">
<path d="M78 80C78 70.0589 86.0589 62 96 62H908V681C908 690.941 899.941 699 890 699H78V80Z" fill="white"/>
<rect x="251.5" y="165.5" width="419" height="59" rx="17.5" fill="white" fill-opacity="0.5" stroke="#3546AB"/>
<rect x="113.5" y="363.5" width="707" height="59" rx="17.5" fill="#F9FBFD" fill-opacity="0.3" stroke="#D7D9E5"/>
<rect x="113.5" y="614.5" width="343" height="59" rx="17.5" fill="#F9FBFD" fill-opacity="0.3" stroke="#D7D9E5"/>
<path d="M114 633C114 623.059 122.059 615 132 615H259V673H132C122.059 673 114 664.941 114 655V633Z" fill="#EDF1F5"/>
<path d="M233.007 648C233.151 647.999 233.289 647.937 233.392 647.829L238.847 642.002C238.946 641.892 239.001 641.745 239 641.592C238.999 641.439 238.941 641.293 238.84 641.185C238.739 641.077 238.602 641.016 238.459 641.014C238.316 641.013 238.178 641.072 238.076 641.178L233.007 646.593L227.938 641.178C227.887 641.122 227.827 641.078 227.761 641.047C227.694 641.017 227.623 641.001 227.55 641C227.478 640.999 227.406 641.014 227.339 641.043C227.272 641.073 227.211 641.116 227.16 641.171C227.109 641.225 227.068 641.29 227.041 641.362C227.013 641.434 226.999 641.51 227 641.588C227.001 641.665 227.016 641.742 227.044 641.813C227.073 641.884 227.114 641.948 227.167 642.002L232.621 647.829C232.724 647.937 232.862 647.999 233.007 648Z" fill="#464255" stroke="#AAABB5"/>
<path d="M843.5 632C843.5 622.335 851.335 614.5 861 614.5H907.5V673.5H861C851.335 673.5 843.5 665.665 843.5 656V632Z" fill="#F9FBFD" fill-opacity="0.3" stroke="#D7D9E5"/>
<rect x="477.5" y="614.5" width="343" height="59" rx="17.5" fill="#F9FBFD" fill-opacity="0.3" stroke="#D7D9E5"/>
<path d="M691.5 183C691.5 173.335 699.335 165.5 709 165.5H907.5V224.5H709C699.335 224.5 691.5 216.665 691.5 207V183Z" fill="#F9FBFD" fill-opacity="0.3" stroke="#D7D9E6"/>
<rect x="113.5" y="165.5" width="117" height="59" rx="17.5" fill="#F9FBFD" fill-opacity="0.3" stroke="#D7D9E6"/>
<path d="M204.007 201C204.151 200.999 204.289 200.937 204.392 200.829L209.847 195.002C209.946 194.892 210.001 194.745 210 194.592C209.999 194.439 209.941 194.293 209.84 194.185C209.739 194.077 209.602 194.016 209.459 194.014C209.316 194.013 209.178 194.072 209.076 194.178L204.007 199.593L198.938 194.178C198.887 194.122 198.827 194.078 198.761 194.047C198.694 194.017 198.623 194.001 198.55 194C198.478 193.999 198.406 194.014 198.339 194.043C198.272 194.073 198.211 194.116 198.16 194.171C198.109 194.225 198.068 194.29 198.041 194.362C198.013 194.434 197.999 194.51 198 194.588C198.001 194.665 198.016 194.742 198.044 194.813C198.073 194.884 198.114 194.948 198.167 195.002L203.621 200.829C203.724 200.937 203.862 200.999 204.007 201Z" fill="#464255" stroke="#AAABB5"/>
<path d="M842.5 381C842.5 371.335 850.335 363.5 860 363.5H907.5V422.5H860C850.335 422.5 842.5 414.665 842.5 405V381Z" fill="#F9FBFD" fill-opacity="0.3" stroke="#D7D9E6"/>
<path d="M113.5 494C113.5 484.335 121.335 476.5 131 476.5H907.5V566.5H131C121.335 566.5 113.5 558.665 113.5 549V494Z" fill="#F9FBFD" fill-opacity="0.3" stroke="#D7D9E6"/>
<path d="M256.018 153.164C254.655 153.164 253.573 152.706 252.771 151.79C251.973 150.869 251.574 149.628 251.574 148.064C251.574 146.515 251.978 145.28 252.784 144.359C253.591 143.434 254.669 142.972 256.018 142.972C257.093 142.972 258.005 143.272 258.752 143.874C259.504 144.471 259.957 145.262 260.112 146.246H258.868C258.709 145.599 258.369 145.082 257.85 144.694C257.33 144.302 256.719 144.106 256.018 144.106C255.056 144.106 254.286 144.466 253.707 145.187C253.128 145.907 252.839 146.866 252.839 148.064C252.839 149.277 253.126 150.241 253.7 150.956C254.274 151.672 255.049 152.029 256.024 152.029C256.749 152.029 257.36 151.863 257.856 151.53C258.353 151.198 258.69 150.73 258.868 150.129H260.112C259.884 151.104 259.417 151.854 258.711 152.378C258.005 152.902 257.107 153.164 256.018 153.164ZM261.445 153V143.136H262.635V153H261.445ZM264.303 153V145.891H265.492V153H264.303ZM264.897 144.694C264.697 144.694 264.524 144.621 264.378 144.476C264.232 144.33 264.159 144.157 264.159 143.956C264.159 143.751 264.232 143.578 264.378 143.437C264.524 143.291 264.697 143.218 264.897 143.218C265.103 143.218 265.278 143.291 265.424 143.437C265.57 143.578 265.643 143.751 265.643 143.956C265.643 144.157 265.57 144.33 265.424 144.476C265.278 144.621 265.103 144.694 264.897 144.694ZM269.949 146.8C269.398 146.8 268.94 146.991 268.575 147.374C268.215 147.752 268.017 148.24 267.98 148.837H271.843C271.829 148.235 271.649 147.745 271.303 147.367C270.956 146.989 270.505 146.8 269.949 146.8ZM271.815 150.963H272.984C272.88 151.592 272.551 152.109 272 152.515C271.453 152.92 270.795 153.123 270.024 153.123C269.008 153.123 268.208 152.795 267.625 152.139C267.042 151.482 266.75 150.594 266.75 149.473C266.75 148.361 267.042 147.465 267.625 146.786C268.213 146.107 268.994 145.768 269.97 145.768C270.927 145.768 271.683 146.089 272.239 146.731C272.795 147.374 273.073 148.235 273.073 149.315V149.767H267.974V149.835C267.974 150.519 268.16 151.065 268.534 151.476C268.908 151.886 269.414 152.091 270.052 152.091C270.498 152.091 270.879 151.988 271.193 151.783C271.508 151.578 271.715 151.305 271.815 150.963ZM274.276 153V145.891H275.397V147.025H275.425C275.63 146.629 275.924 146.321 276.307 146.103C276.689 145.879 277.147 145.768 277.681 145.768C278.455 145.768 279.059 146.002 279.492 146.472C279.925 146.937 280.142 147.575 280.142 148.386V153H278.952V148.598C278.952 148.019 278.815 147.579 278.542 147.278C278.269 146.973 277.861 146.82 277.318 146.82C276.758 146.82 276.309 147.003 275.972 147.367C275.634 147.732 275.466 148.215 275.466 148.816V153H274.276ZM282.042 144.175H283.231V145.891H284.612V146.868H283.231V151.093C283.231 151.416 283.302 151.656 283.443 151.811C283.585 151.961 283.808 152.036 284.113 152.036C284.305 152.036 284.469 152.025 284.605 152.002V153C284.451 153.036 284.2 153.055 283.854 153.055C283.202 153.055 282.737 152.909 282.459 152.617C282.181 152.326 282.042 151.838 282.042 151.154V146.868H280.982V145.891H282.042V144.175ZM290.156 153H288.939V143.136H290.136L295.536 150.881H295.598V143.136H296.814V153H295.618L290.218 145.282H290.156V153ZM300.684 152.111C301.244 152.111 301.714 151.938 302.092 151.592C302.475 151.241 302.666 150.81 302.666 150.3V149.719L300.766 149.835C300.287 149.867 299.916 149.983 299.651 150.184C299.392 150.384 299.262 150.653 299.262 150.99C299.262 151.327 299.392 151.599 299.651 151.804C299.911 152.009 300.255 152.111 300.684 152.111ZM300.417 153.123C299.711 153.123 299.139 152.927 298.701 152.535C298.268 152.143 298.052 151.628 298.052 150.99C298.052 150.38 298.275 149.892 298.722 149.527C299.173 149.163 299.809 148.958 300.629 148.912L302.666 148.796V148.201C302.666 147.768 302.529 147.429 302.256 147.183C301.982 146.937 301.6 146.813 301.107 146.813C300.656 146.813 300.289 146.914 300.007 147.114C299.724 147.31 299.544 147.586 299.467 147.941H298.318C298.359 147.308 298.633 146.788 299.139 146.383C299.649 145.973 300.314 145.768 301.135 145.768C301.969 145.768 302.63 145.977 303.117 146.396C303.609 146.816 303.855 147.379 303.855 148.085V153H302.728V151.776H302.7C302.486 152.182 302.172 152.508 301.757 152.754C301.342 153 300.896 153.123 300.417 153.123ZM305.366 153V145.891H306.487V147.025H306.515C306.688 146.638 306.95 146.333 307.301 146.109C307.652 145.882 308.062 145.768 308.531 145.768C309.014 145.768 309.429 145.886 309.775 146.123C310.122 146.355 310.372 146.688 310.527 147.121H310.555C310.751 146.697 311.045 146.367 311.437 146.13C311.833 145.888 312.282 145.768 312.783 145.768C313.485 145.768 314.046 145.979 314.465 146.403C314.889 146.823 315.101 147.385 315.101 148.092V153H313.911V148.365C313.911 147.878 313.781 147.499 313.521 147.23C313.266 146.957 312.904 146.82 312.435 146.82C311.965 146.82 311.58 146.978 311.279 147.292C310.979 147.602 310.828 147.998 310.828 148.481V153H309.639V148.235C309.639 147.807 309.507 147.465 309.242 147.21C308.978 146.95 308.625 146.82 308.183 146.82C307.713 146.82 307.324 146.984 307.014 147.312C306.708 147.641 306.556 148.051 306.556 148.543V153H305.366ZM319.469 146.8C318.917 146.8 318.459 146.991 318.095 147.374C317.735 147.752 317.536 148.24 317.5 148.837H321.362C321.349 148.235 321.169 147.745 320.822 147.367C320.476 146.989 320.025 146.8 319.469 146.8ZM321.335 150.963H322.504C322.399 151.592 322.071 152.109 321.52 152.515C320.973 152.92 320.314 153.123 319.544 153.123C318.528 153.123 317.728 152.795 317.145 152.139C316.561 151.482 316.27 150.594 316.27 149.473C316.27 148.361 316.561 147.465 317.145 146.786C317.732 146.107 318.514 145.768 319.489 145.768C320.446 145.768 321.203 146.089 321.759 146.731C322.315 147.374 322.593 148.235 322.593 149.315V149.767H317.493V149.835C317.493 150.519 317.68 151.065 318.054 151.476C318.427 151.886 318.933 152.091 319.571 152.091C320.018 152.091 320.398 151.988 320.713 151.783C321.027 151.578 321.235 151.305 321.335 150.963Z" fill="#464255"/>
<path d="M118.018 351.164C116.655 351.164 115.573 350.706 114.771 349.79C113.973 348.869 113.574 347.628 113.574 346.064C113.574 344.515 113.978 343.28 114.784 342.359C115.591 341.434 116.669 340.972 118.018 340.972C119.093 340.972 120.005 341.272 120.752 341.874C121.504 342.471 121.957 343.262 122.112 344.246H120.868C120.709 343.599 120.369 343.082 119.85 342.694C119.33 342.302 118.719 342.106 118.018 342.106C117.056 342.106 116.286 342.466 115.707 343.187C115.128 343.907 114.839 344.866 114.839 346.064C114.839 347.277 115.126 348.241 115.7 348.956C116.274 349.672 117.049 350.029 118.024 350.029C118.749 350.029 119.36 349.863 119.856 349.53C120.353 349.198 120.69 348.73 120.868 348.129H122.112C121.884 349.104 121.417 349.854 120.711 350.378C120.005 350.902 119.107 351.164 118.018 351.164ZM126.33 351.123C125.337 351.123 124.539 350.793 123.938 350.132C123.336 349.466 123.035 348.571 123.035 347.445C123.035 346.32 123.336 345.426 123.938 344.766C124.539 344.1 125.337 343.768 126.33 343.768C127.319 343.768 128.114 344.1 128.716 344.766C129.317 345.426 129.618 346.32 129.618 347.445C129.618 348.566 129.317 349.46 128.716 350.125C128.114 350.79 127.319 351.123 126.33 351.123ZM124.806 349.38C125.184 349.845 125.692 350.077 126.33 350.077C126.968 350.077 127.474 349.847 127.848 349.387C128.221 348.922 128.408 348.275 128.408 347.445C128.408 346.616 128.221 345.971 127.848 345.511C127.474 345.046 126.968 344.813 126.33 344.813C125.692 344.813 125.184 345.046 124.806 345.511C124.432 345.976 124.245 346.62 124.245 347.445C124.245 348.27 124.432 348.915 124.806 349.38ZM130.821 351V343.891H131.942V345.025H131.97C132.143 344.638 132.405 344.333 132.756 344.109C133.107 343.882 133.517 343.768 133.986 343.768C134.469 343.768 134.884 343.886 135.23 344.123C135.577 344.355 135.827 344.688 135.982 345.121H136.01C136.206 344.697 136.5 344.367 136.892 344.13C137.288 343.888 137.737 343.768 138.238 343.768C138.94 343.768 139.501 343.979 139.92 344.403C140.344 344.823 140.556 345.385 140.556 346.092V351H139.366V346.365C139.366 345.878 139.236 345.499 138.977 345.23C138.721 344.957 138.359 344.82 137.89 344.82C137.42 344.82 137.035 344.978 136.734 345.292C136.434 345.602 136.283 345.998 136.283 346.481V351H135.094V346.235C135.094 345.807 134.962 345.465 134.697 345.21C134.433 344.95 134.08 344.82 133.638 344.82C133.168 344.82 132.779 344.984 132.469 345.312C132.163 345.641 132.011 346.051 132.011 346.543V351H130.821ZM145.525 343.768C146.437 343.768 147.171 344.103 147.727 344.772C148.287 345.442 148.567 346.333 148.567 347.445C148.567 348.553 148.289 349.444 147.733 350.118C147.177 350.788 146.451 351.123 145.553 351.123C145.051 351.123 144.603 351.009 144.206 350.781C143.81 350.553 143.504 350.241 143.29 349.845H143.263V353.372H142.073V343.891H143.201V345.094H143.229C143.452 344.684 143.764 344.36 144.165 344.123C144.566 343.886 145.02 343.768 145.525 343.768ZM145.293 350.077C145.926 350.077 146.428 349.84 146.797 349.366C147.166 348.892 147.351 348.252 147.351 347.445C147.351 346.639 147.166 345.998 146.797 345.524C146.428 345.05 145.926 344.813 145.293 344.813C144.682 344.813 144.19 345.055 143.816 345.538C143.443 346.021 143.256 346.657 143.256 347.445C143.256 348.238 143.443 348.876 143.816 349.359C144.19 349.838 144.682 350.077 145.293 350.077ZM152.115 350.111C152.676 350.111 153.145 349.938 153.523 349.592C153.906 349.241 154.098 348.81 154.098 348.3V347.719L152.197 347.835C151.719 347.867 151.347 347.983 151.083 348.184C150.823 348.384 150.693 348.653 150.693 348.99C150.693 349.327 150.823 349.599 151.083 349.804C151.343 350.009 151.687 350.111 152.115 350.111ZM151.849 351.123C151.142 351.123 150.57 350.927 150.133 350.535C149.7 350.143 149.483 349.628 149.483 348.99C149.483 348.38 149.707 347.892 150.153 347.527C150.604 347.163 151.24 346.958 152.061 346.912L154.098 346.796V346.201C154.098 345.768 153.961 345.429 153.688 345.183C153.414 344.937 153.031 344.813 152.539 344.813C152.088 344.813 151.721 344.914 151.438 345.114C151.156 345.31 150.976 345.586 150.898 345.941H149.75C149.791 345.308 150.064 344.788 150.57 344.383C151.081 343.973 151.746 343.768 152.566 343.768C153.4 343.768 154.061 343.977 154.549 344.396C155.041 344.816 155.287 345.379 155.287 346.085V351H154.159V349.776H154.132C153.918 350.182 153.603 350.508 153.188 350.754C152.774 351 152.327 351.123 151.849 351.123ZM156.798 351V343.891H157.919V345.025H157.946C158.151 344.629 158.445 344.321 158.828 344.103C159.211 343.879 159.669 343.768 160.202 343.768C160.977 343.768 161.581 344.002 162.014 344.472C162.447 344.937 162.663 345.575 162.663 346.386V351H161.474V346.598C161.474 346.019 161.337 345.579 161.063 345.278C160.79 344.973 160.382 344.82 159.84 344.82C159.279 344.82 158.83 345.003 158.493 345.367C158.156 345.732 157.987 346.215 157.987 346.816V351H156.798ZM164.769 353.659C164.559 353.659 164.388 353.646 164.256 353.618V352.62C164.365 352.643 164.52 352.654 164.721 352.654C165.053 352.654 165.32 352.565 165.521 352.388C165.721 352.215 165.89 351.921 166.026 351.506L166.19 351.007L163.565 343.891H164.837L166.806 349.811H166.826L168.795 343.891H170.046L167.25 351.499C166.945 352.328 166.614 352.896 166.259 353.201C165.908 353.507 165.411 353.659 164.769 353.659ZM175.262 351H174.045V341.136H175.241L180.642 348.881H180.703V341.136H181.92V351H180.724L175.323 343.282H175.262V351ZM185.789 350.111C186.35 350.111 186.819 349.938 187.197 349.592C187.58 349.241 187.771 348.81 187.771 348.3V347.719L185.871 347.835C185.393 347.867 185.021 347.983 184.757 348.184C184.497 348.384 184.367 348.653 184.367 348.99C184.367 349.327 184.497 349.599 184.757 349.804C185.017 350.009 185.361 350.111 185.789 350.111ZM185.522 351.123C184.816 351.123 184.244 350.927 183.807 350.535C183.374 350.143 183.157 349.628 183.157 348.99C183.157 348.38 183.381 347.892 183.827 347.527C184.278 347.163 184.914 346.958 185.734 346.912L187.771 346.796V346.201C187.771 345.768 187.635 345.429 187.361 345.183C187.088 344.937 186.705 344.813 186.213 344.813C185.762 344.813 185.395 344.914 185.112 345.114C184.83 345.31 184.65 345.586 184.572 345.941H183.424C183.465 345.308 183.738 344.788 184.244 344.383C184.755 343.973 185.42 343.768 186.24 343.768C187.074 343.768 187.735 343.977 188.223 344.396C188.715 344.816 188.961 345.379 188.961 346.085V351H187.833V349.776H187.806C187.591 350.182 187.277 350.508 186.862 350.754C186.448 351 186.001 351.123 185.522 351.123ZM190.472 351V343.891H191.593V345.025H191.62C191.793 344.638 192.055 344.333 192.406 344.109C192.757 343.882 193.167 343.768 193.637 343.768C194.12 343.768 194.535 343.886 194.881 344.123C195.227 344.355 195.478 344.688 195.633 345.121H195.66C195.856 344.697 196.15 344.367 196.542 344.13C196.938 343.888 197.387 343.768 197.889 343.768C198.59 343.768 199.151 343.979 199.57 344.403C199.994 344.823 200.206 345.385 200.206 346.092V351H199.017V346.365C199.017 345.878 198.887 345.499 198.627 345.23C198.372 344.957 198.009 344.82 197.54 344.82C197.071 344.82 196.686 344.978 196.385 345.292C196.084 345.602 195.934 345.998 195.934 346.481V351H194.744V346.235C194.744 345.807 194.612 345.465 194.348 345.21C194.083 344.95 193.73 344.82 193.288 344.82C192.819 344.82 192.429 344.984 192.119 345.312C191.814 345.641 191.661 346.051 191.661 346.543V351H190.472ZM204.574 344.8C204.023 344.8 203.565 344.991 203.2 345.374C202.84 345.752 202.642 346.24 202.605 346.837H206.468C206.454 346.235 206.274 345.745 205.928 345.367C205.581 344.989 205.13 344.8 204.574 344.8ZM206.44 348.963H207.609C207.505 349.592 207.176 350.109 206.625 350.515C206.078 350.92 205.42 351.123 204.649 351.123C203.633 351.123 202.833 350.795 202.25 350.139C201.667 349.482 201.375 348.594 201.375 347.473C201.375 346.361 201.667 345.465 202.25 344.786C202.838 344.107 203.619 343.768 204.595 343.768C205.552 343.768 206.308 344.089 206.864 344.731C207.42 345.374 207.698 346.235 207.698 347.315V347.767H202.599V347.835C202.599 348.519 202.785 349.065 203.159 349.476C203.533 349.886 204.039 350.091 204.677 350.091C205.123 350.091 205.504 349.988 205.818 349.783C206.133 349.578 206.34 349.305 206.44 348.963Z" fill="#464255"/>
<path d="M123.678 602H122.529V594.398H122.481L119.337 601.932H118.298L115.153 594.398H115.105V602H113.957V592.136H115.386L118.79 600.366H118.845L122.249 592.136H123.678V602ZM128.354 602.123C127.36 602.123 126.562 601.793 125.961 601.132C125.359 600.466 125.059 599.571 125.059 598.445C125.059 597.32 125.359 596.426 125.961 595.766C126.562 595.1 127.36 594.768 128.354 594.768C129.342 594.768 130.138 595.1 130.739 595.766C131.341 596.426 131.642 597.32 131.642 598.445C131.642 599.566 131.341 600.46 130.739 601.125C130.138 601.79 129.342 602.123 128.354 602.123ZM126.829 600.38C127.207 600.845 127.715 601.077 128.354 601.077C128.992 601.077 129.497 600.847 129.871 600.387C130.245 599.922 130.432 599.275 130.432 598.445C130.432 597.616 130.245 596.971 129.871 596.511C129.497 596.046 128.992 595.813 128.354 595.813C127.715 595.813 127.207 596.046 126.829 596.511C126.455 596.976 126.269 597.62 126.269 598.445C126.269 599.27 126.455 599.915 126.829 600.38ZM136.379 602.123C135.868 602.123 135.413 602.007 135.012 601.774C134.615 601.542 134.301 601.216 134.068 600.797H134.041V602H132.906V592.136H134.096V596.08H134.123C134.346 595.67 134.656 595.349 135.053 595.116C135.454 594.884 135.903 594.768 136.399 594.768C137.297 594.768 138.022 595.103 138.573 595.772C139.125 596.442 139.4 597.333 139.4 598.445C139.4 599.562 139.125 600.455 138.573 601.125C138.022 601.79 137.29 602.123 136.379 602.123ZM136.146 595.813C135.54 595.813 135.046 596.057 134.663 596.545C134.28 597.028 134.089 597.661 134.089 598.445C134.089 599.234 134.28 599.869 134.663 600.353C135.046 600.836 135.54 601.077 136.146 601.077C136.775 601.077 137.272 600.842 137.637 600.373C138.001 599.899 138.184 599.257 138.184 598.445C138.184 597.639 138.001 596.998 137.637 596.524C137.272 596.05 136.775 595.813 136.146 595.813ZM140.672 602V594.891H141.861V602H140.672ZM141.267 593.694C141.066 593.694 140.893 593.621 140.747 593.476C140.601 593.33 140.528 593.157 140.528 592.956C140.528 592.751 140.601 592.578 140.747 592.437C140.893 592.291 141.066 592.218 141.267 592.218C141.472 592.218 141.647 592.291 141.793 592.437C141.939 592.578 142.012 592.751 142.012 592.956C142.012 593.157 141.939 593.33 141.793 593.476C141.647 593.621 141.472 593.694 141.267 593.694ZM143.529 602V592.136H144.719V602H143.529ZM149.176 595.8C148.624 595.8 148.166 595.991 147.802 596.374C147.442 596.752 147.243 597.24 147.207 597.837H151.069C151.056 597.235 150.876 596.745 150.529 596.367C150.183 595.989 149.732 595.8 149.176 595.8ZM151.042 599.963H152.211C152.106 600.592 151.778 601.109 151.227 601.515C150.68 601.92 150.021 602.123 149.251 602.123C148.235 602.123 147.435 601.795 146.852 601.139C146.268 600.482 145.977 599.594 145.977 598.473C145.977 597.361 146.268 596.465 146.852 595.786C147.439 595.107 148.221 594.768 149.196 594.768C150.153 594.768 150.91 595.089 151.466 595.731C152.022 596.374 152.3 597.235 152.3 598.315V598.767H147.2V598.835C147.2 599.519 147.387 600.065 147.761 600.476C148.134 600.886 148.64 601.091 149.278 601.091C149.725 601.091 150.105 600.988 150.42 600.783C150.734 600.578 150.942 600.305 151.042 599.963Z" fill="#464255"/>
<path d="M848.018 602.164C846.655 602.164 845.573 601.706 844.771 600.79C843.973 599.869 843.574 598.628 843.574 597.064C843.574 595.515 843.978 594.28 844.784 593.359C845.591 592.434 846.669 591.972 848.018 591.972C849.093 591.972 850.005 592.272 850.752 592.874C851.504 593.471 851.957 594.262 852.112 595.246H850.868C850.709 594.599 850.369 594.082 849.85 593.694C849.33 593.302 848.719 593.106 848.018 593.106C847.056 593.106 846.286 593.466 845.707 594.187C845.128 594.907 844.839 595.866 844.839 597.064C844.839 598.277 845.126 599.241 845.7 599.956C846.274 600.672 847.049 601.029 848.024 601.029C848.749 601.029 849.36 600.863 849.856 600.53C850.353 600.198 850.69 599.73 850.868 599.129H852.112C851.884 600.104 851.417 600.854 850.711 601.378C850.005 601.902 849.107 602.164 848.018 602.164ZM853.445 602V594.891H854.635V602H853.445ZM854.04 593.694C853.84 593.694 853.666 593.621 853.521 593.476C853.375 593.33 853.302 593.157 853.302 592.956C853.302 592.751 853.375 592.578 853.521 592.437C853.666 592.291 853.84 592.218 854.04 592.218C854.245 592.218 854.421 592.291 854.566 592.437C854.712 592.578 854.785 592.751 854.785 592.956C854.785 593.157 854.712 593.33 854.566 593.476C854.421 593.621 854.245 593.694 854.04 593.694ZM856.624 593.175H857.813V594.891H859.194V595.868H857.813V600.093C857.813 600.416 857.884 600.656 858.025 600.811C858.167 600.961 858.39 601.036 858.695 601.036C858.887 601.036 859.051 601.025 859.188 601.002V602C859.033 602.036 858.782 602.055 858.436 602.055C857.784 602.055 857.319 601.909 857.041 601.617C856.763 601.326 856.624 600.838 856.624 600.154V595.868H855.564V594.891H856.624V593.175ZM861.054 604.659C860.844 604.659 860.673 604.646 860.541 604.618V603.62C860.65 603.643 860.805 603.654 861.006 603.654C861.339 603.654 861.605 603.565 861.806 603.388C862.006 603.215 862.175 602.921 862.312 602.506L862.476 602.007L859.851 594.891H861.122L863.091 600.811H863.111L865.08 594.891H866.331L863.535 602.499C863.23 603.328 862.899 603.896 862.544 604.201C862.193 604.507 861.696 604.659 861.054 604.659Z" fill="#464255"/>
<path d="M478.798 593.346C479.614 592.43 480.721 591.972 482.12 591.972C483.519 591.972 484.627 592.43 485.442 593.346C486.258 594.262 486.666 595.504 486.666 597.071C486.666 598.639 486.258 599.881 485.442 600.797C484.627 601.708 483.519 602.164 482.12 602.164C480.721 602.164 479.614 601.708 478.798 600.797C477.982 599.881 477.574 598.639 477.574 597.071C477.574 595.504 477.982 594.262 478.798 593.346ZM484.513 594.18C483.925 593.464 483.127 593.106 482.12 593.106C481.113 593.106 480.313 593.464 479.721 594.18C479.133 594.891 478.839 595.854 478.839 597.071C478.839 598.284 479.133 599.247 479.721 599.963C480.313 600.674 481.113 601.029 482.12 601.029C483.127 601.029 483.925 600.674 484.513 599.963C485.105 599.247 485.401 598.284 485.401 597.071C485.401 595.854 485.105 594.891 484.513 594.18ZM488.396 602V595.868H487.404V594.891H488.396V594.098C488.396 593.414 488.555 592.908 488.874 592.58C489.198 592.247 489.688 592.081 490.344 592.081C490.599 592.081 490.84 592.099 491.068 592.136V593.1C490.877 593.072 490.697 593.059 490.528 593.059C489.895 593.059 489.578 593.407 489.578 594.104V594.891H491.034V595.868H489.585V602H488.396ZM492.647 602V595.868H491.656V594.891H492.647V594.098C492.647 593.414 492.807 592.908 493.126 592.58C493.45 592.247 493.939 592.081 494.596 592.081C494.851 592.081 495.092 592.099 495.32 592.136V593.1C495.129 593.072 494.949 593.059 494.78 593.059C494.147 593.059 493.83 593.407 493.83 594.104V594.891H495.286V595.868H493.837V602H492.647ZM496.578 602V594.891H497.768V602H496.578ZM497.173 593.694C496.972 593.694 496.799 593.621 496.653 593.476C496.507 593.33 496.435 593.157 496.435 592.956C496.435 592.751 496.507 592.578 496.653 592.437C496.799 592.291 496.972 592.218 497.173 592.218C497.378 592.218 497.553 592.291 497.699 592.437C497.845 592.578 497.918 592.751 497.918 592.956C497.918 593.157 497.845 593.33 497.699 593.476C497.553 593.621 497.378 593.694 497.173 593.694ZM505.28 597.222H504.118C504.027 596.812 503.824 596.474 503.51 596.21C503.2 595.946 502.797 595.813 502.3 595.813C501.68 595.813 501.181 596.053 500.803 596.531C500.424 597.005 500.235 597.643 500.235 598.445C500.235 599.261 500.424 599.904 500.803 600.373C501.186 600.842 501.689 601.077 502.313 601.077C502.792 601.077 503.186 600.959 503.496 600.722C503.811 600.48 504.02 600.143 504.125 599.71H505.294C505.203 600.421 504.882 601.002 504.33 601.453C503.783 601.9 503.109 602.123 502.307 602.123C501.313 602.123 500.518 601.795 499.921 601.139C499.324 600.478 499.025 599.58 499.025 598.445C499.025 597.329 499.324 596.438 499.921 595.772C500.518 595.103 501.309 594.768 502.293 594.768C503.141 594.768 503.829 595.007 504.357 595.485C504.891 595.964 505.198 596.543 505.28 597.222ZM509.238 595.8C508.687 595.8 508.229 595.991 507.864 596.374C507.504 596.752 507.306 597.24 507.27 597.837H511.132C511.118 597.235 510.938 596.745 510.592 596.367C510.245 595.989 509.794 595.8 509.238 595.8ZM511.104 599.963H512.273C512.169 600.592 511.84 601.109 511.289 601.515C510.742 601.92 510.084 602.123 509.313 602.123C508.297 602.123 507.497 601.795 506.914 601.139C506.331 600.482 506.039 599.594 506.039 598.473C506.039 597.361 506.331 596.465 506.914 595.786C507.502 595.107 508.284 594.768 509.259 594.768C510.216 594.768 510.972 595.089 511.528 595.731C512.084 596.374 512.362 597.235 512.362 598.315V598.767H507.263V598.835C507.263 599.519 507.45 600.065 507.823 600.476C508.197 600.886 508.703 601.091 509.341 601.091C509.787 601.091 510.168 600.988 510.482 600.783C510.797 600.578 511.004 600.305 511.104 599.963ZM516.621 592.136H520.142C521.067 592.136 521.823 592.432 522.411 593.024C523.004 593.612 523.3 594.371 523.3 595.301C523.3 596.235 523.004 596.998 522.411 597.591C521.819 598.183 521.058 598.479 520.128 598.479H517.852V602H516.621V592.136ZM517.852 593.229V597.386H519.82C520.522 597.386 521.067 597.203 521.454 596.839C521.841 596.47 522.035 595.957 522.035 595.301C522.035 594.645 521.841 594.136 521.454 593.776C521.071 593.412 520.527 593.229 519.82 593.229H517.852ZM524.592 602V592.136H525.781V596.025H525.809C526.009 595.624 526.301 595.314 526.684 595.096C527.071 594.877 527.531 594.768 528.064 594.768C528.839 594.768 529.45 595.007 529.896 595.485C530.343 595.964 530.566 596.604 530.566 597.406V602H529.377V597.625C529.377 597.051 529.233 596.606 528.946 596.292C528.664 595.978 528.247 595.82 527.695 595.82C527.107 595.82 526.64 596.005 526.294 596.374C525.952 596.743 525.781 597.238 525.781 597.857V602H524.592ZM535.023 602.123C534.03 602.123 533.232 601.793 532.631 601.132C532.029 600.466 531.729 599.571 531.729 598.445C531.729 597.32 532.029 596.426 532.631 595.766C533.232 595.1 534.03 594.768 535.023 594.768C536.012 594.768 536.808 595.1 537.409 595.766C538.011 596.426 538.312 597.32 538.312 598.445C538.312 599.566 538.011 600.46 537.409 601.125C536.808 601.79 536.012 602.123 535.023 602.123ZM533.499 600.38C533.877 600.845 534.385 601.077 535.023 601.077C535.661 601.077 536.167 600.847 536.541 600.387C536.915 599.922 537.102 599.275 537.102 598.445C537.102 597.616 536.915 596.971 536.541 596.511C536.167 596.046 535.661 595.813 535.023 595.813C534.385 595.813 533.877 596.046 533.499 596.511C533.125 596.976 532.938 597.62 532.938 598.445C532.938 599.27 533.125 599.915 533.499 600.38ZM539.515 602V594.891H540.636V596.025H540.663C540.868 595.629 541.162 595.321 541.545 595.103C541.928 594.879 542.386 594.768 542.919 594.768C543.694 594.768 544.298 595.002 544.73 595.472C545.163 595.937 545.38 596.575 545.38 597.386V602H544.19V597.598C544.19 597.019 544.054 596.579 543.78 596.278C543.507 595.973 543.099 595.82 542.557 595.82C541.996 595.82 541.547 596.003 541.21 596.367C540.873 596.732 540.704 597.215 540.704 597.816V602H539.515ZM549.748 595.8C549.197 595.8 548.739 595.991 548.374 596.374C548.014 596.752 547.816 597.24 547.779 597.837H551.642C551.628 597.235 551.448 596.745 551.102 596.367C550.755 595.989 550.304 595.8 549.748 595.8ZM551.614 599.963H552.783C552.678 600.592 552.35 601.109 551.799 601.515C551.252 601.92 550.593 602.123 549.823 602.123C548.807 602.123 548.007 601.795 547.424 601.139C546.84 600.482 546.549 599.594 546.549 598.473C546.549 597.361 546.84 596.465 547.424 595.786C548.012 595.107 548.793 594.768 549.769 594.768C550.726 594.768 551.482 595.089 552.038 595.731C552.594 596.374 552.872 597.235 552.872 598.315V598.767H547.772V598.835C547.772 599.519 547.959 600.065 548.333 600.476C548.707 600.886 549.213 601.091 549.851 601.091C550.297 601.091 550.678 600.988 550.992 600.783C551.307 600.578 551.514 600.305 551.614 599.963ZM558.348 602H557.131V592.136H558.327L563.728 599.881H563.789V592.136H565.006V602H563.81L558.409 594.282H558.348V602ZM572.573 594.891V602H571.445V600.845H571.418C570.976 601.697 570.224 602.123 569.162 602.123C568.392 602.123 567.788 601.891 567.351 601.426C566.918 600.956 566.701 600.316 566.701 599.505V594.891H567.891V599.293C567.891 600.478 568.438 601.07 569.531 601.07C570.105 601.07 570.557 600.89 570.885 600.53C571.217 600.166 571.384 599.678 571.384 599.067V594.891H572.573ZM574.118 602V594.891H575.239V596.025H575.267C575.44 595.638 575.702 595.333 576.053 595.109C576.404 594.882 576.814 594.768 577.283 594.768C577.766 594.768 578.181 594.886 578.527 595.123C578.874 595.355 579.124 595.688 579.279 596.121H579.307C579.503 595.697 579.797 595.367 580.188 595.13C580.585 594.888 581.034 594.768 581.535 594.768C582.237 594.768 582.798 594.979 583.217 595.403C583.641 595.823 583.853 596.385 583.853 597.092V602H582.663V597.365C582.663 596.878 582.533 596.499 582.273 596.23C582.018 595.957 581.656 595.82 581.187 595.82C580.717 595.82 580.332 595.978 580.031 596.292C579.73 596.602 579.58 596.998 579.58 597.481V602H578.391V597.235C578.391 596.807 578.258 596.465 577.994 596.21C577.73 595.95 577.377 595.82 576.935 595.82C576.465 595.82 576.076 595.984 575.766 596.312C575.46 596.641 575.308 597.051 575.308 597.543V602H574.118ZM588.904 602.123C588.394 602.123 587.938 602.007 587.537 601.774C587.141 601.542 586.826 601.216 586.594 600.797H586.566V602H585.432V592.136H586.621V596.08H586.648C586.872 595.67 587.182 595.349 587.578 595.116C587.979 594.884 588.428 594.768 588.925 594.768C589.823 594.768 590.547 595.103 591.099 595.772C591.65 596.442 591.926 597.333 591.926 598.445C591.926 599.562 591.65 600.455 591.099 601.125C590.547 601.79 589.816 602.123 588.904 602.123ZM588.672 595.813C588.066 595.813 587.571 596.057 587.188 596.545C586.806 597.028 586.614 597.661 586.614 598.445C586.614 599.234 586.806 599.869 587.188 600.353C587.571 600.836 588.066 601.077 588.672 601.077C589.301 601.077 589.798 600.842 590.162 600.373C590.527 599.899 590.709 599.257 590.709 598.445C590.709 597.639 590.527 596.998 590.162 596.524C589.798 596.05 589.301 595.813 588.672 595.813ZM595.986 595.8C595.435 595.8 594.977 595.991 594.612 596.374C594.252 596.752 594.054 597.24 594.018 597.837H597.88C597.866 597.235 597.686 596.745 597.34 596.367C596.993 595.989 596.542 595.8 595.986 595.8ZM597.853 599.963H599.021C598.917 600.592 598.589 601.109 598.037 601.515C597.49 601.92 596.832 602.123 596.062 602.123C595.045 602.123 594.245 601.795 593.662 601.139C593.079 600.482 592.787 599.594 592.787 598.473C592.787 597.361 593.079 596.465 593.662 595.786C594.25 595.107 595.032 594.768 596.007 594.768C596.964 594.768 597.72 595.089 598.276 595.731C598.832 596.374 599.11 597.235 599.11 598.315V598.767H594.011V598.835C594.011 599.519 594.198 600.065 594.571 600.476C594.945 600.886 595.451 601.091 596.089 601.091C596.535 601.091 596.916 600.988 597.23 600.783C597.545 600.578 597.752 600.305 597.853 599.963ZM600.313 602V594.891H601.435V596.053H601.462C601.58 595.656 601.792 595.344 602.098 595.116C602.408 594.884 602.77 594.768 603.185 594.768C603.28 594.768 603.44 594.784 603.663 594.815V595.971C603.535 595.925 603.324 595.902 603.027 595.902C602.567 595.902 602.198 596.055 601.92 596.36C601.642 596.666 601.503 597.069 601.503 597.57V602H600.313Z" fill="#464255"/>
<path d="M696.018 153.164C694.655 153.164 693.573 152.706 692.771 151.79C691.973 150.869 691.574 149.628 691.574 148.064C691.574 146.515 691.978 145.28 692.784 144.359C693.591 143.434 694.669 142.972 696.018 142.972C697.093 142.972 698.005 143.272 698.752 143.874C699.504 144.471 699.957 145.262 700.112 146.246H698.868C698.709 145.599 698.369 145.082 697.85 144.694C697.33 144.302 696.719 144.106 696.018 144.106C695.056 144.106 694.286 144.466 693.707 145.187C693.128 145.907 692.839 146.866 692.839 148.064C692.839 149.277 693.126 150.241 693.7 150.956C694.274 151.672 695.049 152.029 696.024 152.029C696.749 152.029 697.36 151.863 697.856 151.53C698.353 151.198 698.69 150.73 698.868 150.129H700.112C699.884 151.104 699.417 151.854 698.711 152.378C698.005 152.902 697.107 153.164 696.018 153.164ZM701.445 153V143.136H702.635V153H701.445ZM704.303 153V145.891H705.492V153H704.303ZM704.897 144.694C704.697 144.694 704.524 144.621 704.378 144.476C704.232 144.33 704.159 144.157 704.159 143.956C704.159 143.751 704.232 143.578 704.378 143.437C704.524 143.291 704.697 143.218 704.897 143.218C705.103 143.218 705.278 143.291 705.424 143.437C705.57 143.578 705.643 143.751 705.643 143.956C705.643 144.157 705.57 144.33 705.424 144.476C705.278 144.621 705.103 144.694 704.897 144.694ZM709.949 146.8C709.398 146.8 708.94 146.991 708.575 147.374C708.215 147.752 708.017 148.24 707.98 148.837H711.843C711.829 148.235 711.649 147.745 711.303 147.367C710.956 146.989 710.505 146.8 709.949 146.8ZM711.815 150.963H712.984C712.88 151.592 712.551 152.109 712 152.515C711.453 152.92 710.795 153.123 710.024 153.123C709.008 153.123 708.208 152.795 707.625 152.139C707.042 151.482 706.75 150.594 706.75 149.473C706.75 148.361 707.042 147.465 707.625 146.786C708.213 146.107 708.994 145.768 709.97 145.768C710.927 145.768 711.683 146.089 712.239 146.731C712.795 147.374 713.073 148.235 713.073 149.315V149.767H707.974V149.835C707.974 150.519 708.16 151.065 708.534 151.476C708.908 151.886 709.414 152.091 710.052 152.091C710.498 152.091 710.879 151.988 711.193 151.783C711.508 151.578 711.715 151.305 711.815 150.963ZM714.276 153V145.891H715.397V147.025H715.425C715.63 146.629 715.924 146.321 716.307 146.103C716.689 145.879 717.147 145.768 717.681 145.768C718.455 145.768 719.059 146.002 719.492 146.472C719.925 146.937 720.142 147.575 720.142 148.386V153H718.952V148.598C718.952 148.019 718.815 147.579 718.542 147.278C718.269 146.973 717.861 146.82 717.318 146.82C716.758 146.82 716.309 147.003 715.972 147.367C715.634 147.732 715.466 148.215 715.466 148.816V153H714.276ZM722.042 144.175H723.231V145.891H724.612V146.868H723.231V151.093C723.231 151.416 723.302 151.656 723.443 151.811C723.585 151.961 723.808 152.036 724.113 152.036C724.305 152.036 724.469 152.025 724.605 152.002V153C724.451 153.036 724.2 153.055 723.854 153.055C723.202 153.055 722.737 152.909 722.459 152.617C722.181 152.326 722.042 151.838 722.042 151.154V146.868H720.982V145.891H722.042V144.175ZM735.051 151.893V153H728.939V143.136H735.051V144.243H730.17V147.408H734.798V148.502H730.17V151.893H735.051ZM736.493 153V145.891H737.614V147.025H737.642C737.815 146.638 738.077 146.333 738.428 146.109C738.779 145.882 739.189 145.768 739.658 145.768C740.141 145.768 740.556 145.886 740.902 146.123C741.249 146.355 741.499 146.688 741.654 147.121H741.682C741.878 146.697 742.172 146.367 742.563 146.13C742.96 145.888 743.409 145.768 743.91 145.768C744.612 145.768 745.173 145.979 745.592 146.403C746.016 146.823 746.228 147.385 746.228 148.092V153H745.038V148.365C745.038 147.878 744.908 147.499 744.648 147.23C744.393 146.957 744.031 146.82 743.562 146.82C743.092 146.82 742.707 146.978 742.406 147.292C742.105 147.602 741.955 147.998 741.955 148.481V153H740.766V148.235C740.766 147.807 740.633 147.465 740.369 147.21C740.105 146.95 739.752 146.82 739.31 146.82C738.84 146.82 738.451 146.984 738.141 147.312C737.835 147.641 737.683 148.051 737.683 148.543V153H736.493ZM750.09 152.111C750.65 152.111 751.12 151.938 751.498 151.592C751.881 151.241 752.072 150.81 752.072 150.3V149.719L750.172 149.835C749.693 149.867 749.322 149.983 749.058 150.184C748.798 150.384 748.668 150.653 748.668 150.99C748.668 151.327 748.798 151.599 749.058 151.804C749.317 152.009 749.661 152.111 750.09 152.111ZM749.823 153.123C749.117 153.123 748.545 152.927 748.107 152.535C747.674 152.143 747.458 151.628 747.458 150.99C747.458 150.38 747.681 149.892 748.128 149.527C748.579 149.163 749.215 148.958 750.035 148.912L752.072 148.796V148.201C752.072 147.768 751.936 147.429 751.662 147.183C751.389 146.937 751.006 146.813 750.514 146.813C750.062 146.813 749.696 146.914 749.413 147.114C749.131 147.31 748.951 147.586 748.873 147.941H747.725C747.766 147.308 748.039 146.788 748.545 146.383C749.055 145.973 749.721 145.768 750.541 145.768C751.375 145.768 752.036 145.977 752.523 146.396C753.016 146.816 753.262 147.379 753.262 148.085V153H752.134V151.776H752.106C751.892 152.182 751.578 152.508 751.163 152.754C750.748 153 750.302 153.123 749.823 153.123ZM754.834 153V145.891H756.023V153H754.834ZM755.429 144.694C755.228 144.694 755.055 144.621 754.909 144.476C754.763 144.33 754.69 144.157 754.69 143.956C754.69 143.751 754.763 143.578 754.909 143.437C755.055 143.291 755.228 143.218 755.429 143.218C755.634 143.218 755.809 143.291 755.955 143.437C756.101 143.578 756.174 143.751 756.174 143.956C756.174 144.157 756.101 144.33 755.955 144.476C755.809 144.621 755.634 144.694 755.429 144.694ZM757.691 153V143.136H758.881V153H757.691Z" fill="#464255"/>
<path d="M118.018 153.164C116.655 153.164 115.573 152.706 114.771 151.79C113.973 150.869 113.574 149.628 113.574 148.064C113.574 146.515 113.978 145.28 114.784 144.359C115.591 143.434 116.669 142.972 118.018 142.972C119.093 142.972 120.005 143.272 120.752 143.874C121.504 144.471 121.957 145.262 122.112 146.246H120.868C120.709 145.599 120.369 145.082 119.85 144.694C119.33 144.302 118.719 144.106 118.018 144.106C117.056 144.106 116.286 144.466 115.707 145.187C115.128 145.907 114.839 146.866 114.839 148.064C114.839 149.277 115.126 150.241 115.7 150.956C116.274 151.672 117.049 152.029 118.024 152.029C118.749 152.029 119.36 151.863 119.856 151.53C120.353 151.198 120.69 150.73 120.868 150.129H122.112C121.884 151.104 121.417 151.854 120.711 152.378C120.005 152.902 119.107 153.164 118.018 153.164ZM123.445 153V143.136H124.635V153H123.445ZM126.303 153V145.891H127.492V153H126.303ZM126.897 144.694C126.697 144.694 126.524 144.621 126.378 144.476C126.232 144.33 126.159 144.157 126.159 143.956C126.159 143.751 126.232 143.578 126.378 143.437C126.524 143.291 126.697 143.218 126.897 143.218C127.103 143.218 127.278 143.291 127.424 143.437C127.57 143.578 127.643 143.751 127.643 143.956C127.643 144.157 127.57 144.33 127.424 144.476C127.278 144.621 127.103 144.694 126.897 144.694ZM131.949 146.8C131.398 146.8 130.94 146.991 130.575 147.374C130.215 147.752 130.017 148.24 129.98 148.837H133.843C133.829 148.235 133.649 147.745 133.303 147.367C132.956 146.989 132.505 146.8 131.949 146.8ZM133.815 150.963H134.984C134.88 151.592 134.551 152.109 134 152.515C133.453 152.92 132.795 153.123 132.024 153.123C131.008 153.123 130.208 152.795 129.625 152.139C129.042 151.482 128.75 150.594 128.75 149.473C128.75 148.361 129.042 147.465 129.625 146.786C130.213 146.107 130.994 145.768 131.97 145.768C132.927 145.768 133.683 146.089 134.239 146.731C134.795 147.374 135.073 148.235 135.073 149.315V149.767H129.974V149.835C129.974 150.519 130.16 151.065 130.534 151.476C130.908 151.886 131.414 152.091 132.052 152.091C132.498 152.091 132.879 151.988 133.193 151.783C133.508 151.578 133.715 151.305 133.815 150.963ZM136.276 153V145.891H137.397V147.025H137.425C137.63 146.629 137.924 146.321 138.307 146.103C138.689 145.879 139.147 145.768 139.681 145.768C140.455 145.768 141.059 146.002 141.492 146.472C141.925 146.937 142.142 147.575 142.142 148.386V153H140.952V148.598C140.952 148.019 140.815 147.579 140.542 147.278C140.269 146.973 139.861 146.82 139.318 146.82C138.758 146.82 138.309 147.003 137.972 147.367C137.634 147.732 137.466 148.215 137.466 148.816V153H136.276ZM144.042 144.175H145.231V145.891H146.612V146.868H145.231V151.093C145.231 151.416 145.302 151.656 145.443 151.811C145.585 151.961 145.808 152.036 146.113 152.036C146.305 152.036 146.469 152.025 146.605 152.002V153C146.451 153.036 146.2 153.055 145.854 153.055C145.202 153.055 144.737 152.909 144.459 152.617C144.181 152.326 144.042 151.838 144.042 151.154V146.868H142.982V145.891H144.042V144.175ZM157.051 151.893V153H150.939V143.136H157.051V144.243H152.17V147.408H156.798V148.502H152.17V151.893H157.051ZM158.493 153V145.891H159.614V147.025H159.642C159.815 146.638 160.077 146.333 160.428 146.109C160.779 145.882 161.189 145.768 161.658 145.768C162.141 145.768 162.556 145.886 162.902 146.123C163.249 146.355 163.499 146.688 163.654 147.121H163.682C163.878 146.697 164.172 146.367 164.563 146.13C164.96 145.888 165.409 145.768 165.91 145.768C166.612 145.768 167.173 145.979 167.592 146.403C168.016 146.823 168.228 147.385 168.228 148.092V153H167.038V148.365C167.038 147.878 166.908 147.499 166.648 147.23C166.393 146.957 166.031 146.82 165.562 146.82C165.092 146.82 164.707 146.978 164.406 147.292C164.105 147.602 163.955 147.998 163.955 148.481V153H162.766V148.235C162.766 147.807 162.633 147.465 162.369 147.21C162.105 146.95 161.752 146.82 161.31 146.82C160.84 146.82 160.451 146.984 160.141 147.312C159.835 147.641 159.683 148.051 159.683 148.543V153H158.493ZM172.09 152.111C172.65 152.111 173.12 151.938 173.498 151.592C173.881 151.241 174.072 150.81 174.072 150.3V149.719L172.172 149.835C171.693 149.867 171.322 149.983 171.058 150.184C170.798 150.384 170.668 150.653 170.668 150.99C170.668 151.327 170.798 151.599 171.058 151.804C171.317 152.009 171.661 152.111 172.09 152.111ZM171.823 153.123C171.117 153.123 170.545 152.927 170.107 152.535C169.674 152.143 169.458 151.628 169.458 150.99C169.458 150.38 169.681 149.892 170.128 149.527C170.579 149.163 171.215 148.958 172.035 148.912L174.072 148.796V148.201C174.072 147.768 173.936 147.429 173.662 147.183C173.389 146.937 173.006 146.813 172.514 146.813C172.062 146.813 171.696 146.914 171.413 147.114C171.131 147.31 170.951 147.586 170.873 147.941H169.725C169.766 147.308 170.039 146.788 170.545 146.383C171.055 145.973 171.721 145.768 172.541 145.768C173.375 145.768 174.036 145.977 174.523 146.396C175.016 146.816 175.262 147.379 175.262 148.085V153H174.134V151.776H174.106C173.892 152.182 173.578 152.508 173.163 152.754C172.748 153 172.302 153.123 171.823 153.123ZM176.834 153V145.891H178.023V153H176.834ZM177.429 144.694C177.228 144.694 177.055 144.621 176.909 144.476C176.763 144.33 176.69 144.157 176.69 143.956C176.69 143.751 176.763 143.578 176.909 143.437C177.055 143.291 177.228 143.218 177.429 143.218C177.634 143.218 177.809 143.291 177.955 143.437C178.101 143.578 178.174 143.751 178.174 143.956C178.174 144.157 178.101 144.33 177.955 144.476C177.809 144.621 177.634 144.694 177.429 144.694ZM179.691 153V143.136H180.881V153H179.691Z" fill="#464255"/>
<path d="M848.433 343.173L846.156 351H844.994L842.308 341.136H843.593L845.568 349.188H845.623L847.845 341.136H849.089L851.311 349.188H851.365L853.341 341.136H854.626L851.939 351H850.777L848.501 343.173H848.433ZM857.805 344.8C857.253 344.8 856.795 344.991 856.431 345.374C856.071 345.752 855.872 346.24 855.836 346.837H859.698C859.685 346.235 859.505 345.745 859.158 345.367C858.812 344.989 858.361 344.8 857.805 344.8ZM859.671 348.963H860.84C860.735 349.592 860.407 350.109 859.855 350.515C859.309 350.92 858.65 351.123 857.88 351.123C856.864 351.123 856.064 350.795 855.48 350.139C854.897 349.482 854.605 348.594 854.605 347.473C854.605 346.361 854.897 345.465 855.48 344.786C856.068 344.107 856.85 343.768 857.825 343.768C858.782 343.768 859.539 344.089 860.095 344.731C860.651 345.374 860.929 346.235 860.929 347.315V347.767H855.829V347.835C855.829 348.519 856.016 349.065 856.39 349.476C856.763 349.886 857.269 350.091 857.907 350.091C858.354 350.091 858.734 349.988 859.049 349.783C859.363 349.578 859.571 349.305 859.671 348.963ZM865.666 351.123C865.156 351.123 864.7 351.007 864.299 350.774C863.902 350.542 863.588 350.216 863.355 349.797H863.328V351H862.193V341.136H863.383V345.08H863.41C863.633 344.67 863.943 344.349 864.34 344.116C864.741 343.884 865.19 343.768 865.687 343.768C866.584 343.768 867.309 344.103 867.86 344.772C868.412 345.442 868.688 346.333 868.688 347.445C868.688 348.562 868.412 349.455 867.86 350.125C867.309 350.79 866.577 351.123 865.666 351.123ZM865.434 344.813C864.827 344.813 864.333 345.057 863.95 345.545C863.567 346.028 863.376 346.661 863.376 347.445C863.376 348.234 863.567 348.869 863.95 349.353C864.333 349.836 864.827 350.077 865.434 350.077C866.062 350.077 866.559 349.842 866.924 349.373C867.288 348.899 867.471 348.257 867.471 347.445C867.471 346.639 867.288 345.998 866.924 345.524C866.559 345.05 866.062 344.813 865.434 344.813ZM869.774 345.853C869.774 345.242 870.021 344.743 870.513 344.355C871.009 343.964 871.647 343.768 872.427 343.768C873.16 343.768 873.771 343.964 874.259 344.355C874.746 344.747 875.004 345.244 875.031 345.846H873.896C873.855 345.499 873.701 345.228 873.432 345.032C873.167 344.836 872.819 344.738 872.386 344.738C871.953 344.738 871.604 344.836 871.34 345.032C871.076 345.224 870.943 345.477 870.943 345.791C870.943 346.274 871.338 346.616 872.126 346.816L873.227 347.083C873.942 347.265 874.446 347.502 874.737 347.794C875.034 348.081 875.182 348.487 875.182 349.011C875.182 349.631 874.917 350.139 874.389 350.535C873.86 350.927 873.181 351.123 872.352 351.123C871.577 351.123 870.937 350.932 870.431 350.549C869.929 350.161 869.647 349.651 869.583 349.018H870.772C870.905 349.774 871.456 350.152 872.427 350.152C872.905 350.152 873.284 350.059 873.562 349.872C873.844 349.681 873.985 349.423 873.985 349.1C873.985 348.844 873.901 348.642 873.732 348.491C873.568 348.341 873.288 348.213 872.892 348.108L871.641 347.787C870.396 347.468 869.774 346.823 869.774 345.853ZM876.48 351V343.891H877.67V351H876.48ZM877.075 342.694C876.875 342.694 876.701 342.621 876.556 342.476C876.41 342.33 876.337 342.157 876.337 341.956C876.337 341.751 876.41 341.578 876.556 341.437C876.701 341.291 876.875 341.218 877.075 341.218C877.28 341.218 877.456 341.291 877.602 341.437C877.747 341.578 877.82 341.751 877.82 341.956C877.82 342.157 877.747 342.33 877.602 342.476C877.456 342.621 877.28 342.694 877.075 342.694ZM879.659 342.175H880.849V343.891H882.229V344.868H880.849V349.093C880.849 349.416 880.919 349.656 881.061 349.811C881.202 349.961 881.425 350.036 881.73 350.036C881.922 350.036 882.086 350.025 882.223 350.002V351C882.068 351.036 881.817 351.055 881.471 351.055C880.819 351.055 880.354 350.909 880.076 350.617C879.798 350.326 879.659 349.838 879.659 349.154V344.868H878.6V343.891H879.659V342.175ZM886.146 344.8C885.595 344.8 885.137 344.991 884.772 345.374C884.412 345.752 884.214 346.24 884.178 346.837H888.04C888.026 346.235 887.846 345.745 887.5 345.367C887.154 344.989 886.702 344.8 886.146 344.8ZM888.013 348.963H889.182C889.077 349.592 888.749 350.109 888.197 350.515C887.65 350.92 886.992 351.123 886.222 351.123C885.205 351.123 884.406 350.795 883.822 350.139C883.239 349.482 882.947 348.594 882.947 347.473C882.947 346.361 883.239 345.465 883.822 344.786C884.41 344.107 885.192 343.768 886.167 343.768C887.124 343.768 887.881 344.089 888.437 344.731C888.993 345.374 889.271 346.235 889.271 347.315V347.767H884.171V347.835C884.171 348.519 884.358 349.065 884.731 349.476C885.105 349.886 885.611 350.091 886.249 350.091C886.696 350.091 887.076 349.988 887.391 349.783C887.705 349.578 887.912 349.305 888.013 348.963Z" fill="#464255"/>
<path d="M120.369 464L119.378 461.177H115.454L114.463 464H113.171L116.808 454.136H118.024L121.661 464H120.369ZM117.396 455.633L115.816 460.131H119.016L117.437 455.633H117.396ZM125.161 464.123C124.25 464.123 123.514 463.788 122.953 463.118C122.397 462.448 122.119 461.557 122.119 460.445C122.119 459.338 122.397 458.449 122.953 457.779C123.509 457.105 124.236 456.768 125.134 456.768C125.635 456.768 126.084 456.882 126.48 457.109C126.877 457.337 127.182 457.649 127.396 458.046H127.424V454.136H128.613V464H127.479V462.797H127.458C127.226 463.212 126.911 463.537 126.515 463.774C126.118 464.007 125.667 464.123 125.161 464.123ZM125.387 457.813C124.758 457.813 124.259 458.053 123.89 458.531C123.521 459.005 123.336 459.643 123.336 460.445C123.336 461.252 123.521 461.892 123.89 462.366C124.259 462.84 124.758 463.077 125.387 463.077C126.002 463.077 126.496 462.838 126.87 462.359C127.244 461.876 127.431 461.238 127.431 460.445C127.431 459.652 127.242 459.017 126.863 458.538C126.49 458.055 125.997 457.813 125.387 457.813ZM132.913 464.123C132.002 464.123 131.266 463.788 130.705 463.118C130.149 462.448 129.871 461.557 129.871 460.445C129.871 459.338 130.149 458.449 130.705 457.779C131.261 457.105 131.988 456.768 132.886 456.768C133.387 456.768 133.836 456.882 134.232 457.109C134.629 457.337 134.934 457.649 135.148 458.046H135.176V454.136H136.365V464H135.23V462.797H135.21C134.978 463.212 134.663 463.537 134.267 463.774C133.87 464.007 133.419 464.123 132.913 464.123ZM133.139 457.813C132.51 457.813 132.011 458.053 131.642 458.531C131.272 459.005 131.088 459.643 131.088 460.445C131.088 461.252 131.272 461.892 131.642 462.366C132.011 462.84 132.51 463.077 133.139 463.077C133.754 463.077 134.248 462.838 134.622 462.359C134.996 461.876 135.183 461.238 135.183 460.445C135.183 459.652 134.993 459.017 134.615 458.538C134.242 458.055 133.749 457.813 133.139 457.813ZM137.972 464V456.891H139.093V458.053H139.12C139.239 457.656 139.451 457.344 139.756 457.116C140.066 456.884 140.428 456.768 140.843 456.768C140.938 456.768 141.098 456.784 141.321 456.815V457.971C141.194 457.925 140.982 457.902 140.686 457.902C140.225 457.902 139.856 458.055 139.578 458.36C139.3 458.666 139.161 459.069 139.161 459.57V464H137.972ZM144.801 457.8C144.249 457.8 143.791 457.991 143.427 458.374C143.067 458.752 142.868 459.24 142.832 459.837H146.694C146.681 459.235 146.501 458.745 146.154 458.367C145.808 457.989 145.357 457.8 144.801 457.8ZM146.667 461.963H147.836C147.731 462.592 147.403 463.109 146.852 463.515C146.305 463.92 145.646 464.123 144.876 464.123C143.86 464.123 143.06 463.795 142.477 463.139C141.893 462.482 141.602 461.594 141.602 460.473C141.602 459.361 141.893 458.465 142.477 457.786C143.064 457.107 143.846 456.768 144.821 456.768C145.778 456.768 146.535 457.089 147.091 457.731C147.647 458.374 147.925 459.235 147.925 460.315V460.767H142.825V460.835C142.825 461.519 143.012 462.065 143.386 462.476C143.759 462.886 144.265 463.091 144.903 463.091C145.35 463.091 145.73 462.988 146.045 462.783C146.359 462.578 146.567 462.305 146.667 461.963ZM149.005 458.853C149.005 458.242 149.251 457.743 149.743 457.355C150.24 456.964 150.878 456.768 151.657 456.768C152.391 456.768 153.002 456.964 153.489 457.355C153.977 457.747 154.234 458.244 154.262 458.846H153.127C153.086 458.499 152.931 458.228 152.662 458.032C152.398 457.836 152.049 457.738 151.616 457.738C151.183 457.738 150.835 457.836 150.57 458.032C150.306 458.224 150.174 458.477 150.174 458.791C150.174 459.274 150.568 459.616 151.356 459.816L152.457 460.083C153.173 460.265 153.676 460.502 153.968 460.794C154.264 461.081 154.412 461.487 154.412 462.011C154.412 462.631 154.148 463.139 153.619 463.535C153.09 463.927 152.411 464.123 151.582 464.123C150.807 464.123 150.167 463.932 149.661 463.549C149.16 463.161 148.877 462.651 148.813 462.018H150.003C150.135 462.774 150.687 463.152 151.657 463.152C152.136 463.152 152.514 463.059 152.792 462.872C153.075 462.681 153.216 462.423 153.216 462.1C153.216 461.844 153.132 461.642 152.963 461.491C152.799 461.341 152.519 461.213 152.122 461.108L150.871 460.787C149.627 460.468 149.005 459.823 149.005 458.853ZM155.526 458.853C155.526 458.242 155.772 457.743 156.265 457.355C156.761 456.964 157.399 456.768 158.179 456.768C158.912 456.768 159.523 456.964 160.011 457.355C160.498 457.747 160.756 458.244 160.783 458.846H159.648C159.607 458.499 159.452 458.228 159.184 458.032C158.919 457.836 158.571 457.738 158.138 457.738C157.705 457.738 157.356 457.836 157.092 458.032C156.827 458.224 156.695 458.477 156.695 458.791C156.695 459.274 157.09 459.616 157.878 459.816L158.979 460.083C159.694 460.265 160.198 460.502 160.489 460.794C160.785 461.081 160.934 461.487 160.934 462.011C160.934 462.631 160.669 463.139 160.141 463.535C159.612 463.927 158.933 464.123 158.104 464.123C157.329 464.123 156.688 463.932 156.183 463.549C155.681 463.161 155.399 462.651 155.335 462.018H156.524C156.657 462.774 157.208 463.152 158.179 463.152C158.657 463.152 159.035 463.059 159.313 462.872C159.596 462.681 159.737 462.423 159.737 462.1C159.737 461.844 159.653 461.642 159.484 461.491C159.32 461.341 159.04 461.213 158.644 461.108L157.393 460.787C156.148 460.468 155.526 459.823 155.526 458.853Z" fill="#464255"/>
<path opacity="0.4" d="M275.734 201.188C274.177 201.188 272.94 200.664 272.023 199.617C271.112 198.565 270.656 197.146 270.656 195.359C270.656 193.589 271.117 192.177 272.039 191.125C272.961 190.068 274.193 189.539 275.734 189.539C276.964 189.539 278.005 189.883 278.859 190.57C279.719 191.253 280.237 192.156 280.414 193.281H278.992C278.81 192.542 278.422 191.951 277.828 191.508C277.234 191.06 276.536 190.836 275.734 190.836C274.635 190.836 273.755 191.247 273.094 192.07C272.432 192.893 272.102 193.99 272.102 195.359C272.102 196.745 272.43 197.846 273.086 198.664C273.742 199.482 274.628 199.891 275.742 199.891C276.57 199.891 277.268 199.701 277.836 199.32C278.404 198.94 278.789 198.406 278.992 197.719H280.414C280.154 198.833 279.62 199.69 278.812 200.289C278.005 200.888 276.979 201.188 275.734 201.188ZM281.938 201V189.727H283.297V194.172H283.328C283.557 193.714 283.891 193.359 284.328 193.109C284.771 192.859 285.297 192.734 285.906 192.734C286.792 192.734 287.49 193.008 288 193.555C288.51 194.102 288.766 194.833 288.766 195.75V201H287.406V196C287.406 195.344 287.242 194.836 286.914 194.477C286.591 194.117 286.115 193.938 285.484 193.938C284.812 193.938 284.279 194.148 283.883 194.57C283.492 194.992 283.297 195.557 283.297 196.266V201H281.938ZM290.492 201V192.875H291.773V194.203H291.805C291.94 193.75 292.182 193.393 292.531 193.133C292.885 192.867 293.299 192.734 293.773 192.734C293.883 192.734 294.065 192.753 294.32 192.789V194.109C294.174 194.057 293.932 194.031 293.594 194.031C293.068 194.031 292.646 194.206 292.328 194.555C292.01 194.904 291.852 195.365 291.852 195.938V201H290.492ZM295.5 201V192.875H296.859V201H295.5ZM296.18 191.508C295.951 191.508 295.753 191.424 295.586 191.258C295.419 191.091 295.336 190.893 295.336 190.664C295.336 190.43 295.419 190.232 295.586 190.07C295.753 189.904 295.951 189.82 296.18 189.82C296.414 189.82 296.615 189.904 296.781 190.07C296.948 190.232 297.031 190.43 297.031 190.664C297.031 190.893 296.948 191.091 296.781 191.258C296.615 191.424 296.414 191.508 296.18 191.508ZM298.555 195.117C298.555 194.419 298.836 193.849 299.398 193.406C299.966 192.958 300.695 192.734 301.586 192.734C302.424 192.734 303.122 192.958 303.68 193.406C304.237 193.854 304.531 194.422 304.562 195.109H303.266C303.219 194.714 303.042 194.404 302.734 194.18C302.432 193.956 302.034 193.844 301.539 193.844C301.044 193.844 300.646 193.956 300.344 194.18C300.042 194.398 299.891 194.688 299.891 195.047C299.891 195.599 300.341 195.99 301.242 196.219L302.5 196.523C303.318 196.732 303.893 197.003 304.227 197.336C304.565 197.664 304.734 198.128 304.734 198.727C304.734 199.435 304.432 200.016 303.828 200.469C303.224 200.917 302.448 201.141 301.5 201.141C300.615 201.141 299.883 200.922 299.305 200.484C298.732 200.042 298.409 199.458 298.336 198.734H299.695C299.846 199.599 300.477 200.031 301.586 200.031C302.133 200.031 302.565 199.924 302.883 199.711C303.206 199.492 303.367 199.198 303.367 198.828C303.367 198.536 303.271 198.305 303.078 198.133C302.891 197.961 302.57 197.815 302.117 197.695L300.688 197.328C299.266 196.964 298.555 196.227 298.555 195.117ZM315.898 192.055L313.297 201H311.969L308.898 189.727H310.367L312.625 198.93H312.688L315.227 189.727H316.648L319.188 198.93H319.25L321.508 189.727H322.977L319.906 201H318.578L315.977 192.055H315.898ZM324.281 201V192.875H325.641V201H324.281ZM324.961 191.508C324.732 191.508 324.534 191.424 324.367 191.258C324.201 191.091 324.117 190.893 324.117 190.664C324.117 190.43 324.201 190.232 324.367 190.07C324.534 189.904 324.732 189.82 324.961 189.82C325.195 189.82 325.396 189.904 325.562 190.07C325.729 190.232 325.812 190.43 325.812 190.664C325.812 190.893 325.729 191.091 325.562 191.258C325.396 191.424 325.195 191.508 324.961 191.508ZM327.547 201V189.727H328.906V201H327.547ZM332.172 196.484L335.766 192.875H337.414L333.891 196.383L337.523 201H335.945L332.93 197.219L332.172 197.938V201H330.812V189.727H332.172V196.484ZM338.578 201V192.875H339.938V201H338.578ZM339.258 191.508C339.029 191.508 338.831 191.424 338.664 191.258C338.497 191.091 338.414 190.893 338.414 190.664C338.414 190.43 338.497 190.232 338.664 190.07C338.831 189.904 339.029 189.82 339.258 189.82C339.492 189.82 339.693 189.904 339.859 190.07C340.026 190.232 340.109 190.43 340.109 190.664C340.109 190.893 340.026 191.091 339.859 191.258C339.693 191.424 339.492 191.508 339.258 191.508ZM341.773 201V192.875H343.055V194.172H343.086C343.32 193.719 343.656 193.367 344.094 193.117C344.531 192.862 345.055 192.734 345.664 192.734C346.549 192.734 347.24 193.003 347.734 193.539C348.229 194.07 348.477 194.799 348.477 195.727V201H347.117V195.969C347.117 195.307 346.961 194.805 346.648 194.461C346.336 194.112 345.87 193.938 345.25 193.938C344.609 193.938 344.096 194.146 343.711 194.562C343.326 194.979 343.133 195.531 343.133 196.219V201H341.773ZM350.07 195.117C350.07 194.419 350.352 193.849 350.914 193.406C351.482 192.958 352.211 192.734 353.102 192.734C353.94 192.734 354.638 192.958 355.195 193.406C355.753 193.854 356.047 194.422 356.078 195.109H354.781C354.734 194.714 354.557 194.404 354.25 194.18C353.948 193.956 353.549 193.844 353.055 193.844C352.56 193.844 352.161 193.956 351.859 194.18C351.557 194.398 351.406 194.688 351.406 195.047C351.406 195.599 351.857 195.99 352.758 196.219L354.016 196.523C354.833 196.732 355.409 197.003 355.742 197.336C356.081 197.664 356.25 198.128 356.25 198.727C356.25 199.435 355.948 200.016 355.344 200.469C354.74 200.917 353.964 201.141 353.016 201.141C352.13 201.141 351.398 200.922 350.82 200.484C350.247 200.042 349.924 199.458 349.852 198.734H351.211C351.362 199.599 351.992 200.031 353.102 200.031C353.648 200.031 354.081 199.924 354.398 199.711C354.721 199.492 354.883 199.198 354.883 198.828C354.883 198.536 354.786 198.305 354.594 198.133C354.406 197.961 354.086 197.815 353.633 197.695L352.203 197.328C350.781 196.964 350.07 196.227 350.07 195.117ZM361.031 201.141C359.896 201.141 358.984 200.763 358.297 200.008C357.609 199.247 357.266 198.224 357.266 196.938C357.266 195.651 357.609 194.63 358.297 193.875C358.984 193.115 359.896 192.734 361.031 192.734C362.161 192.734 363.07 193.115 363.758 193.875C364.445 194.63 364.789 195.651 364.789 196.938C364.789 198.219 364.445 199.24 363.758 200C363.07 200.76 362.161 201.141 361.031 201.141ZM359.289 199.148C359.721 199.68 360.302 199.945 361.031 199.945C361.76 199.945 362.339 199.682 362.766 199.156C363.193 198.625 363.406 197.885 363.406 196.938C363.406 195.99 363.193 195.253 362.766 194.727C362.339 194.195 361.76 193.93 361.031 193.93C360.302 193.93 359.721 194.195 359.289 194.727C358.862 195.258 358.648 195.995 358.648 196.938C358.648 197.88 358.862 198.617 359.289 199.148ZM366.164 201V192.875H367.445V194.172H367.477C367.711 193.719 368.047 193.367 368.484 193.117C368.922 192.862 369.445 192.734 370.055 192.734C370.94 192.734 371.63 193.003 372.125 193.539C372.62 194.07 372.867 194.799 372.867 195.727V201H371.508V195.969C371.508 195.307 371.352 194.805 371.039 194.461C370.727 194.112 370.26 193.938 369.641 193.938C369 193.938 368.487 194.146 368.102 194.562C367.716 194.979 367.523 195.531 367.523 196.219V201H366.164ZM377.328 198.352H378.727C378.742 198.831 378.914 199.221 379.242 199.523C379.576 199.82 379.997 199.969 380.508 199.969C381.128 199.969 381.602 199.789 381.93 199.43C382.258 199.065 382.422 198.539 382.422 197.852V189.727H383.828V197.859C383.828 198.927 383.536 199.763 382.953 200.367C382.37 200.966 381.557 201.266 380.516 201.266C379.578 201.266 378.812 200.995 378.219 200.453C377.625 199.906 377.328 199.206 377.328 198.352ZM385.805 201V192.875H387.086V194.203H387.117C387.253 193.75 387.495 193.393 387.844 193.133C388.198 192.867 388.612 192.734 389.086 192.734C389.195 192.734 389.378 192.753 389.633 192.789V194.109C389.487 194.057 389.245 194.031 388.906 194.031C388.38 194.031 387.958 194.206 387.641 194.555C387.323 194.904 387.164 195.365 387.164 195.938V201H385.805ZM391.742 200.82C391.57 200.992 391.359 201.078 391.109 201.078C390.859 201.078 390.648 200.992 390.477 200.82C390.305 200.648 390.219 200.438 390.219 200.188C390.219 199.938 390.305 199.727 390.477 199.555C390.648 199.383 390.859 199.297 391.109 199.297C391.359 199.297 391.57 199.383 391.742 199.555C391.914 199.727 392 199.938 392 200.188C392 200.438 391.914 200.648 391.742 200.82Z" fill="#464255"/>
<path opacity="0.4" d="M142.203 201H140.891V192.312H140.836L137.242 200.922H136.055L132.461 192.312H132.406V201H131.094V189.727H132.727L136.617 199.133H136.68L140.57 189.727H142.203V201ZM144.18 201V192.875H145.461V194.203H145.492C145.628 193.75 145.87 193.393 146.219 193.133C146.573 192.867 146.987 192.734 147.461 192.734C147.57 192.734 147.753 192.753 148.008 192.789V194.109C147.862 194.057 147.62 194.031 147.281 194.031C146.755 194.031 146.333 194.206 146.016 194.555C145.698 194.904 145.539 195.365 145.539 195.938V201H144.18Z" fill="#464255"/>
<path opacity="0.4" d="M142.203 650H140.891V641.312H140.836L137.242 649.922H136.055L132.461 641.312H132.406V650H131.094V638.727H132.727L136.617 648.133H136.68L140.57 638.727H142.203V650ZM147.547 650.141C146.411 650.141 145.5 649.763 144.812 649.008C144.125 648.247 143.781 647.224 143.781 645.938C143.781 644.651 144.125 643.63 144.812 642.875C145.5 642.115 146.411 641.734 147.547 641.734C148.677 641.734 149.586 642.115 150.273 642.875C150.961 643.63 151.305 644.651 151.305 645.938C151.305 647.219 150.961 648.24 150.273 649C149.586 649.76 148.677 650.141 147.547 650.141ZM145.805 648.148C146.237 648.68 146.818 648.945 147.547 648.945C148.276 648.945 148.854 648.682 149.281 648.156C149.708 647.625 149.922 646.885 149.922 645.938C149.922 644.99 149.708 644.253 149.281 643.727C148.854 643.195 148.276 642.93 147.547 642.93C146.818 642.93 146.237 643.195 145.805 643.727C145.378 644.258 145.164 644.995 145.164 645.938C145.164 646.88 145.378 647.617 145.805 648.148ZM156.719 650.141C156.135 650.141 155.615 650.008 155.156 649.742C154.703 649.477 154.344 649.104 154.078 648.625H154.047V650H152.75V638.727H154.109V643.234H154.141C154.396 642.766 154.75 642.398 155.203 642.133C155.661 641.867 156.174 641.734 156.742 641.734C157.768 641.734 158.596 642.117 159.227 642.883C159.857 643.648 160.172 644.667 160.172 645.938C160.172 647.214 159.857 648.234 159.227 649C158.596 649.76 157.76 650.141 156.719 650.141ZM156.453 642.93C155.76 642.93 155.195 643.208 154.758 643.766C154.32 644.318 154.102 645.042 154.102 645.938C154.102 646.839 154.32 647.565 154.758 648.117C155.195 648.669 155.76 648.945 156.453 648.945C157.172 648.945 157.74 648.677 158.156 648.141C158.573 647.599 158.781 646.865 158.781 645.938C158.781 645.016 158.573 644.284 158.156 643.742C157.74 643.201 157.172 642.93 156.453 642.93ZM161.625 650V641.875H162.984V650H161.625ZM162.305 640.508C162.076 640.508 161.878 640.424 161.711 640.258C161.544 640.091 161.461 639.893 161.461 639.664C161.461 639.43 161.544 639.232 161.711 639.07C161.878 638.904 162.076 638.82 162.305 638.82C162.539 638.82 162.74 638.904 162.906 639.07C163.073 639.232 163.156 639.43 163.156 639.664C163.156 639.893 163.073 640.091 162.906 640.258C162.74 640.424 162.539 640.508 162.305 640.508ZM164.891 650V638.727H166.25V650H164.891ZM171.344 642.914C170.714 642.914 170.19 643.133 169.773 643.57C169.362 644.003 169.135 644.56 169.094 645.242H173.508C173.492 644.555 173.286 643.995 172.891 643.562C172.495 643.13 171.979 642.914 171.344 642.914ZM173.477 647.672H174.812C174.693 648.391 174.318 648.982 173.688 649.445C173.062 649.909 172.31 650.141 171.43 650.141C170.268 650.141 169.354 649.766 168.688 649.016C168.021 648.266 167.688 647.25 167.688 645.969C167.688 644.698 168.021 643.674 168.688 642.898C169.359 642.122 170.253 641.734 171.367 641.734C172.461 641.734 173.326 642.102 173.961 642.836C174.596 643.57 174.914 644.555 174.914 645.789V646.305H169.086V646.383C169.086 647.164 169.299 647.789 169.727 648.258C170.154 648.727 170.732 648.961 171.461 648.961C171.971 648.961 172.406 648.844 172.766 648.609C173.125 648.375 173.362 648.062 173.477 647.672Z" fill="#464255"/>
<path d="M696.018 246.164C694.655 246.164 693.573 245.706 692.771 244.79C691.973 243.869 691.574 242.628 691.574 241.064C691.574 239.515 691.978 238.28 692.784 237.359C693.591 236.434 694.669 235.972 696.018 235.972C697.093 235.972 698.005 236.272 698.752 236.874C699.504 237.471 699.957 238.262 700.112 239.246H698.868C698.709 238.599 698.369 238.082 697.85 237.694C697.33 237.302 696.719 237.106 696.018 237.106C695.056 237.106 694.286 237.466 693.707 238.187C693.128 238.907 692.839 239.866 692.839 241.064C692.839 242.277 693.126 243.241 693.7 243.956C694.274 244.672 695.049 245.029 696.024 245.029C696.749 245.029 697.36 244.863 697.856 244.53C698.353 244.198 698.69 243.73 698.868 243.129H700.112C699.884 244.104 699.417 244.854 698.711 245.378C698.005 245.902 697.107 246.164 696.018 246.164ZM701.445 246V236.136H702.635V246H701.445ZM704.303 246V238.891H705.492V246H704.303ZM704.897 237.694C704.697 237.694 704.524 237.621 704.378 237.476C704.232 237.33 704.159 237.157 704.159 236.956C704.159 236.751 704.232 236.578 704.378 236.437C704.524 236.291 704.697 236.218 704.897 236.218C705.103 236.218 705.278 236.291 705.424 236.437C705.57 236.578 705.643 236.751 705.643 236.956C705.643 237.157 705.57 237.33 705.424 237.476C705.278 237.621 705.103 237.694 704.897 237.694ZM709.949 239.8C709.398 239.8 708.94 239.991 708.575 240.374C708.215 240.752 708.017 241.24 707.98 241.837H711.843C711.829 241.235 711.649 240.745 711.303 240.367C710.956 239.989 710.505 239.8 709.949 239.8ZM711.815 243.963H712.984C712.88 244.592 712.551 245.109 712 245.515C711.453 245.92 710.795 246.123 710.024 246.123C709.008 246.123 708.208 245.795 707.625 245.139C707.042 244.482 706.75 243.594 706.75 242.473C706.75 241.361 707.042 240.465 707.625 239.786C708.213 239.107 708.994 238.768 709.97 238.768C710.927 238.768 711.683 239.089 712.239 239.731C712.795 240.374 713.073 241.235 713.073 242.315V242.767H707.974V242.835C707.974 243.519 708.16 244.065 708.534 244.476C708.908 244.886 709.414 245.091 710.052 245.091C710.498 245.091 710.879 244.988 711.193 244.783C711.508 244.578 711.715 244.305 711.815 243.963ZM714.276 246V238.891H715.397V240.025H715.425C715.63 239.629 715.924 239.321 716.307 239.103C716.689 238.879 717.147 238.768 717.681 238.768C718.455 238.768 719.059 239.002 719.492 239.472C719.925 239.937 720.142 240.575 720.142 241.386V246H718.952V241.598C718.952 241.019 718.815 240.579 718.542 240.278C718.269 239.973 717.861 239.82 717.318 239.82C716.758 239.82 716.309 240.003 715.972 240.367C715.634 240.732 715.466 241.215 715.466 241.816V246H714.276ZM722.042 237.175H723.231V238.891H724.612V239.868H723.231V244.093C723.231 244.416 723.302 244.656 723.443 244.811C723.585 244.961 723.808 245.036 724.113 245.036C724.305 245.036 724.469 245.025 724.605 245.002V246C724.451 246.036 724.2 246.055 723.854 246.055C723.202 246.055 722.737 245.909 722.459 245.617C722.181 245.326 722.042 244.838 722.042 244.154V239.868H720.982V238.891H722.042V237.175ZM737.799 238.891L735.816 246H734.606L733 240.497H732.973L731.373 246H730.163L728.174 238.891H729.356L730.778 244.674H730.806L732.412 238.891H733.561L735.174 244.674H735.201L736.623 238.891H737.799ZM738.838 246V238.891H740.027V246H738.838ZM739.433 237.694C739.232 237.694 739.059 237.621 738.913 237.476C738.767 237.33 738.694 237.157 738.694 236.956C738.694 236.751 738.767 236.578 738.913 236.437C739.059 236.291 739.232 236.218 739.433 236.218C739.638 236.218 739.813 236.291 739.959 236.437C740.105 236.578 740.178 236.751 740.178 236.956C740.178 237.157 740.105 237.33 739.959 237.476C739.813 237.621 739.638 237.694 739.433 237.694ZM741.695 246V236.136H742.885V246H741.695ZM744.553 246V236.136H745.742V246H744.553ZM750.281 246V236.136H751.471V246H750.281ZM756.023 246.123C755.03 246.123 754.232 245.793 753.631 245.132C753.029 244.466 752.729 243.571 752.729 242.445C752.729 241.32 753.029 240.426 753.631 239.766C754.232 239.1 755.03 238.768 756.023 238.768C757.012 238.768 757.808 239.1 758.409 239.766C759.011 240.426 759.312 241.32 759.312 242.445C759.312 243.566 759.011 244.46 758.409 245.125C757.808 245.79 757.012 246.123 756.023 246.123ZM754.499 244.38C754.877 244.845 755.385 245.077 756.023 245.077C756.661 245.077 757.167 244.847 757.541 244.387C757.915 243.922 758.102 243.275 758.102 242.445C758.102 241.616 757.915 240.971 757.541 240.511C757.167 240.046 756.661 239.813 756.023 239.813C755.385 239.813 754.877 240.046 754.499 240.511C754.125 240.976 753.938 241.62 753.938 242.445C753.938 243.27 754.125 243.915 754.499 244.38ZM763.406 245.009C764.026 245.009 764.525 244.772 764.903 244.298C765.282 243.824 765.471 243.197 765.471 242.418C765.471 241.634 765.282 241.005 764.903 240.531C764.525 240.053 764.026 239.813 763.406 239.813C762.791 239.813 762.299 240.05 761.93 240.524C761.565 240.994 761.383 241.625 761.383 242.418C761.383 243.211 761.565 243.842 761.93 244.312C762.299 244.776 762.791 245.009 763.406 245.009ZM763.447 248.68C762.668 248.68 761.998 248.481 761.438 248.085C760.877 247.693 760.547 247.194 760.446 246.588H761.67C761.788 246.916 762.012 247.178 762.34 247.374C762.668 247.57 763.053 247.668 763.495 247.668C764.106 247.668 764.587 247.506 764.938 247.183C765.293 246.859 765.471 246.431 765.471 245.897V244.776H765.443C765.22 245.168 764.908 245.48 764.507 245.713C764.106 245.941 763.659 246.055 763.167 246.055C762.26 246.055 761.533 245.724 760.986 245.063C760.439 244.403 760.166 243.521 760.166 242.418C760.166 241.306 760.439 240.42 760.986 239.759C761.538 239.098 762.274 238.768 763.194 238.768C763.696 238.768 764.147 238.884 764.548 239.116C764.949 239.349 765.268 239.672 765.505 240.087H765.525V238.891H766.66V245.856C766.66 246.709 766.368 247.392 765.785 247.907C765.202 248.422 764.423 248.68 763.447 248.68ZM768.273 246V238.891H769.463V246H768.273ZM768.868 237.694C768.668 237.694 768.494 237.621 768.349 237.476C768.203 237.33 768.13 237.157 768.13 236.956C768.13 236.751 768.203 236.578 768.349 236.437C768.494 236.291 768.668 236.218 768.868 236.218C769.073 236.218 769.249 236.291 769.395 236.437C769.54 236.578 769.613 236.751 769.613 236.956C769.613 237.157 769.54 237.33 769.395 237.476C769.249 237.621 769.073 237.694 768.868 237.694ZM771.069 246V238.891H772.19V240.025H772.218C772.423 239.629 772.717 239.321 773.1 239.103C773.482 238.879 773.94 238.768 774.474 238.768C775.248 238.768 775.852 239.002 776.285 239.472C776.718 239.937 776.935 240.575 776.935 241.386V246H775.745V241.598C775.745 241.019 775.608 240.579 775.335 240.278C775.062 239.973 774.654 239.82 774.111 239.82C773.551 239.82 773.102 240.003 772.765 240.367C772.427 240.732 772.259 241.215 772.259 241.816V246H771.069ZM787.161 238.891V246H786.033V244.845H786.006C785.564 245.697 784.812 246.123 783.75 246.123C782.98 246.123 782.376 245.891 781.938 245.426C781.506 244.956 781.289 244.316 781.289 243.505V238.891H782.479V243.293C782.479 244.478 783.025 245.07 784.119 245.07C784.693 245.07 785.145 244.89 785.473 244.53C785.805 244.166 785.972 243.678 785.972 243.067V238.891H787.161ZM788.583 240.853C788.583 240.242 788.829 239.743 789.321 239.355C789.818 238.964 790.456 238.768 791.235 238.768C791.969 238.768 792.58 238.964 793.067 239.355C793.555 239.747 793.812 240.244 793.84 240.846H792.705C792.664 240.499 792.509 240.228 792.24 240.032C791.976 239.836 791.627 239.738 791.194 239.738C790.761 239.738 790.413 239.836 790.148 240.032C789.884 240.224 789.752 240.477 789.752 240.791C789.752 241.274 790.146 241.616 790.935 241.816L792.035 242.083C792.751 242.265 793.254 242.502 793.546 242.794C793.842 243.081 793.99 243.487 793.99 244.011C793.99 244.631 793.726 245.139 793.197 245.535C792.669 245.927 791.99 246.123 791.16 246.123C790.385 246.123 789.745 245.932 789.239 245.549C788.738 245.161 788.455 244.651 788.392 244.018H789.581C789.713 244.774 790.265 245.152 791.235 245.152C791.714 245.152 792.092 245.059 792.37 244.872C792.653 244.681 792.794 244.423 792.794 244.1C792.794 243.844 792.71 243.642 792.541 243.491C792.377 243.341 792.097 243.213 791.7 243.108L790.449 242.787C789.205 242.468 788.583 241.823 788.583 240.853ZM795.289 246V238.891H796.479V246H795.289ZM795.884 237.694C795.683 237.694 795.51 237.621 795.364 237.476C795.218 237.33 795.146 237.157 795.146 236.956C795.146 236.751 795.218 236.578 795.364 236.437C795.51 236.291 795.683 236.218 795.884 236.218C796.089 236.218 796.264 236.291 796.41 236.437C796.556 236.578 796.629 236.751 796.629 236.956C796.629 237.157 796.556 237.33 796.41 237.476C796.264 237.621 796.089 237.694 795.884 237.694ZM798.085 246V238.891H799.206V240.025H799.233C799.438 239.629 799.732 239.321 800.115 239.103C800.498 238.879 800.956 238.768 801.489 238.768C802.264 238.768 802.868 239.002 803.301 239.472C803.734 239.937 803.95 240.575 803.95 241.386V246H802.761V241.598C802.761 241.019 802.624 240.579 802.351 240.278C802.077 239.973 801.669 239.82 801.127 239.82C800.566 239.82 800.118 240.003 799.78 240.367C799.443 240.732 799.274 241.215 799.274 241.816V246H798.085ZM808.359 245.009C808.979 245.009 809.478 244.772 809.856 244.298C810.235 243.824 810.424 243.197 810.424 242.418C810.424 241.634 810.235 241.005 809.856 240.531C809.478 240.053 808.979 239.813 808.359 239.813C807.744 239.813 807.252 240.05 806.883 240.524C806.518 240.994 806.336 241.625 806.336 242.418C806.336 243.211 806.518 243.842 806.883 244.312C807.252 244.776 807.744 245.009 808.359 245.009ZM808.4 248.68C807.621 248.68 806.951 248.481 806.391 248.085C805.83 247.693 805.5 247.194 805.399 246.588H806.623C806.742 246.916 806.965 247.178 807.293 247.374C807.621 247.57 808.006 247.668 808.448 247.668C809.059 247.668 809.54 247.506 809.891 247.183C810.246 246.859 810.424 246.431 810.424 245.897V244.776H810.396C810.173 245.168 809.861 245.48 809.46 245.713C809.059 245.941 808.612 246.055 808.12 246.055C807.213 246.055 806.486 245.724 805.939 245.063C805.393 244.403 805.119 243.521 805.119 242.418C805.119 241.306 805.393 240.42 805.939 239.759C806.491 239.098 807.227 238.768 808.147 238.768C808.649 238.768 809.1 238.884 809.501 239.116C809.902 239.349 810.221 239.672 810.458 240.087H810.479V238.891H811.613V245.856C811.613 246.709 811.322 247.392 810.738 247.907C810.155 248.422 809.376 248.68 808.4 248.68ZM816.419 237.175H817.608V238.891H818.989V239.868H817.608V244.093C817.608 244.416 817.679 244.656 817.82 244.811C817.962 244.961 818.185 245.036 818.49 245.036C818.682 245.036 818.846 245.025 818.982 245.002V246C818.827 246.036 818.577 246.055 818.23 246.055C817.579 246.055 817.114 245.909 816.836 245.617C816.558 245.326 816.419 244.838 816.419 244.154V239.868H815.359V238.891H816.419V237.175ZM820.322 246V236.136H821.512V240.025H821.539C821.74 239.624 822.031 239.314 822.414 239.096C822.801 238.877 823.262 238.768 823.795 238.768C824.57 238.768 825.18 239.007 825.627 239.485C826.074 239.964 826.297 240.604 826.297 241.406V246H825.107V241.625C825.107 241.051 824.964 240.606 824.677 240.292C824.394 239.978 823.977 239.82 823.426 239.82C822.838 239.82 822.371 240.005 822.024 240.374C821.683 240.743 821.512 241.238 821.512 241.857V246H820.322ZM827.869 246V238.891H829.059V246H827.869ZM828.464 237.694C828.263 237.694 828.09 237.621 827.944 237.476C827.799 237.33 827.726 237.157 827.726 236.956C827.726 236.751 827.799 236.578 827.944 236.437C828.09 236.291 828.263 236.218 828.464 236.218C828.669 236.218 828.844 236.291 828.99 236.437C829.136 236.578 829.209 236.751 829.209 236.956C829.209 237.157 829.136 237.33 828.99 237.476C828.844 237.621 828.669 237.694 828.464 237.694ZM830.542 240.853C830.542 240.242 830.788 239.743 831.28 239.355C831.777 238.964 832.415 238.768 833.194 238.768C833.928 238.768 834.539 238.964 835.026 239.355C835.514 239.747 835.771 240.244 835.799 240.846H834.664C834.623 240.499 834.468 240.228 834.199 240.032C833.935 239.836 833.586 239.738 833.153 239.738C832.72 239.738 832.372 239.836 832.107 240.032C831.843 240.224 831.711 240.477 831.711 240.791C831.711 241.274 832.105 241.616 832.894 241.816L833.994 242.083C834.71 242.265 835.213 242.502 835.505 242.794C835.801 243.081 835.949 243.487 835.949 244.011C835.949 244.631 835.685 245.139 835.156 245.535C834.628 245.927 833.949 246.123 833.119 246.123C832.344 246.123 831.704 245.932 831.198 245.549C830.697 245.161 830.414 244.651 830.351 244.018H831.54C831.672 244.774 832.224 245.152 833.194 245.152C833.673 245.152 834.051 245.059 834.329 244.872C834.612 244.681 834.753 244.423 834.753 244.1C834.753 243.844 834.669 243.642 834.5 243.491C834.336 243.341 834.056 243.213 833.659 243.108L832.408 242.787C831.164 242.468 830.542 241.823 830.542 240.853ZM842.908 239.8C842.357 239.8 841.899 239.991 841.534 240.374C841.174 240.752 840.976 241.24 840.939 241.837H844.802C844.788 241.235 844.608 240.745 844.262 240.367C843.915 239.989 843.464 239.8 842.908 239.8ZM844.774 243.963H845.943C845.839 244.592 845.51 245.109 844.959 245.515C844.412 245.92 843.754 246.123 842.983 246.123C841.967 246.123 841.167 245.795 840.584 245.139C840.001 244.482 839.709 243.594 839.709 242.473C839.709 241.361 840.001 240.465 840.584 239.786C841.172 239.107 841.953 238.768 842.929 238.768C843.886 238.768 844.642 239.089 845.198 239.731C845.754 240.374 846.032 241.235 846.032 242.315V242.767H840.933V242.835C840.933 243.519 841.119 244.065 841.493 244.476C841.867 244.886 842.373 245.091 843.011 245.091C843.457 245.091 843.838 244.988 844.152 244.783C844.467 244.578 844.674 244.305 844.774 243.963ZM847.235 246V238.891H848.356V240.025H848.384C848.557 239.638 848.819 239.333 849.17 239.109C849.521 238.882 849.931 238.768 850.4 238.768C850.883 238.768 851.298 238.886 851.645 239.123C851.991 239.355 852.242 239.688 852.396 240.121H852.424C852.62 239.697 852.914 239.367 853.306 239.13C853.702 238.888 854.151 238.768 854.652 238.768C855.354 238.768 855.915 238.979 856.334 239.403C856.758 239.823 856.97 240.385 856.97 241.092V246H855.78V241.365C855.78 240.878 855.65 240.499 855.391 240.23C855.135 239.957 854.773 239.82 854.304 239.82C853.834 239.82 853.449 239.978 853.148 240.292C852.848 240.602 852.697 240.998 852.697 241.481V246H851.508V241.235C851.508 240.807 851.376 240.465 851.111 240.21C850.847 239.95 850.494 239.82 850.052 239.82C849.582 239.82 849.193 239.984 848.883 240.312C848.577 240.641 848.425 241.051 848.425 241.543V246H847.235ZM860.832 245.111C861.393 245.111 861.862 244.938 862.24 244.592C862.623 244.241 862.814 243.81 862.814 243.3V242.719L860.914 242.835C860.436 242.867 860.064 242.983 859.8 243.184C859.54 243.384 859.41 243.653 859.41 243.99C859.41 244.327 859.54 244.599 859.8 244.804C860.06 245.009 860.404 245.111 860.832 245.111ZM860.565 246.123C859.859 246.123 859.287 245.927 858.85 245.535C858.417 245.143 858.2 244.628 858.2 243.99C858.2 243.38 858.424 242.892 858.87 242.527C859.321 242.163 859.957 241.958 860.777 241.912L862.814 241.796V241.201C862.814 240.768 862.678 240.429 862.404 240.183C862.131 239.937 861.748 239.813 861.256 239.813C860.805 239.813 860.438 239.914 860.155 240.114C859.873 240.31 859.693 240.586 859.615 240.941H858.467C858.508 240.308 858.781 239.788 859.287 239.383C859.798 238.973 860.463 238.768 861.283 238.768C862.117 238.768 862.778 238.977 863.266 239.396C863.758 239.816 864.004 240.379 864.004 241.085V246H862.876V244.776H862.849C862.634 245.182 862.32 245.508 861.905 245.754C861.491 246 861.044 246.123 860.565 246.123ZM865.576 246V238.891H866.766V246H865.576ZM866.171 237.694C865.97 237.694 865.797 237.621 865.651 237.476C865.506 237.33 865.433 237.157 865.433 236.956C865.433 236.751 865.506 236.578 865.651 236.437C865.797 236.291 865.97 236.218 866.171 236.218C866.376 236.218 866.551 236.291 866.697 236.437C866.843 236.578 866.916 236.751 866.916 236.956C866.916 237.157 866.843 237.33 866.697 237.476C866.551 237.621 866.376 237.694 866.171 237.694ZM868.434 246V236.136H869.623V246H868.434ZM872.788 245.843C872.638 245.993 872.453 246.068 872.234 246.068C872.016 246.068 871.831 245.993 871.681 245.843C871.53 245.692 871.455 245.508 871.455 245.289C871.455 245.07 871.53 244.886 871.681 244.735C871.831 244.585 872.016 244.51 872.234 244.51C872.453 244.51 872.638 244.585 872.788 244.735C872.938 244.886 873.014 245.07 873.014 245.289C873.014 245.508 872.938 245.692 872.788 245.843Z" fill="#B1B0B9"/>
<path d="M119.521 101.211C117.74 101.211 116.325 100.622 115.276 99.4443C114.233 98.2666 113.712 96.6699 113.712 94.6543C113.712 92.6504 114.236 91.0596 115.285 89.8818C116.334 88.6982 117.746 88.1064 119.521 88.1064C120.963 88.1064 122.179 88.5137 123.169 89.3281C124.159 90.1367 124.736 91.2002 124.9 92.5186H122.949C122.773 91.7041 122.372 91.0537 121.745 90.5674C121.124 90.0752 120.383 89.8291 119.521 89.8291C118.367 89.8291 117.444 90.2686 116.753 91.1475C116.067 92.0205 115.725 93.1895 115.725 94.6543C115.725 96.1367 116.067 97.3145 116.753 98.1875C117.438 99.0547 118.364 99.4883 119.53 99.4883C120.409 99.4883 121.147 99.2744 121.745 98.8467C122.349 98.4189 122.75 97.8213 122.949 97.0537H124.909C124.669 98.3662 124.074 99.3887 123.125 100.121C122.182 100.848 120.98 101.211 119.521 101.211ZM126.926 101V88.3174H128.825V101H126.926ZM131.237 101V91.7539H133.136V101H131.237ZM132.969 90.084C132.752 90.2949 132.491 90.4004 132.187 90.4004C131.882 90.4004 131.621 90.2949 131.404 90.084C131.194 89.873 131.088 89.6182 131.088 89.3193C131.088 89.0146 131.194 88.7568 131.404 88.5459C131.621 88.335 131.882 88.2295 132.187 88.2295C132.497 88.2295 132.758 88.335 132.969 88.5459C133.186 88.7568 133.294 89.0146 133.294 89.3193C133.294 89.6182 133.186 89.873 132.969 90.084ZM140.954 93.7842C140.538 93.3389 140.002 93.1162 139.346 93.1162C138.689 93.1162 138.144 93.3418 137.711 93.793C137.277 94.2383 137.037 94.8154 136.99 95.5244H141.613C141.59 94.8096 141.37 94.2295 140.954 93.7842ZM141.604 98.2842H143.406C143.271 99.1338 142.838 99.8281 142.105 100.367C141.373 100.906 140.479 101.176 139.425 101.176C138.071 101.176 137.005 100.751 136.225 99.9014C135.452 99.0459 135.065 97.8857 135.065 96.4209C135.065 94.9678 135.452 93.7988 136.225 92.9141C137.005 92.0293 138.045 91.5869 139.346 91.5869C140.623 91.5869 141.637 92.0059 142.387 92.8438C143.137 93.6758 143.512 94.7949 143.512 96.2012V96.8516H136.981V96.9658C136.981 97.7744 137.207 98.4219 137.658 98.9082C138.109 99.3945 138.713 99.6377 139.469 99.6377C140.002 99.6377 140.459 99.5146 140.84 99.2686C141.221 99.0225 141.475 98.6943 141.604 98.2842ZM145.388 101V91.7539H147.199V93.3008H147.243C147.5 92.7617 147.875 92.3428 148.368 92.0439C148.86 91.7451 149.454 91.5957 150.152 91.5957C151.165 91.5957 151.954 91.9004 152.516 92.5098C153.079 93.1133 153.36 93.9482 153.36 95.0146V101H151.453V95.3838C151.453 94.6807 151.286 94.1475 150.952 93.7842C150.623 93.415 150.134 93.2305 149.484 93.2305C148.816 93.2305 148.283 93.4473 147.884 93.8809C147.486 94.3145 147.287 94.8916 147.287 95.6123V101H145.388ZM156.15 89.5654H158.058V91.7539H159.815V93.2568H158.058V98.3545C158.058 98.7529 158.148 99.0459 158.33 99.2334C158.512 99.4209 158.796 99.5146 159.183 99.5146C159.464 99.5146 159.672 99.5 159.807 99.4707V100.974C159.572 101.032 159.221 101.062 158.752 101.062C157.82 101.062 157.152 100.871 156.748 100.49C156.35 100.104 156.15 99.4619 156.15 98.5654V93.2568H154.806V91.7539H156.15V89.5654ZM166.065 88.3174H170.538C172.425 88.3174 173.896 88.8711 174.95 89.9785C176.011 91.0859 176.541 92.6387 176.541 94.6367C176.541 96.6406 176.014 98.2021 174.959 99.3213C173.904 100.44 172.431 101 170.538 101H166.065V88.3174ZM168.033 90.0137V99.2949H170.354C171.701 99.2949 172.733 98.8965 173.447 98.0996C174.168 97.3027 174.529 96.1543 174.529 94.6543C174.529 93.1602 174.168 92.0146 173.447 91.2178C172.727 90.415 171.696 90.0137 170.354 90.0137H168.033ZM184.069 93.7842C183.653 93.3389 183.117 93.1162 182.461 93.1162C181.804 93.1162 181.26 93.3418 180.826 93.793C180.392 94.2383 180.152 94.8154 180.105 95.5244H184.728C184.705 94.8096 184.485 94.2295 184.069 93.7842ZM184.72 98.2842H186.521C186.387 99.1338 185.953 99.8281 185.221 100.367C184.488 100.906 183.595 101.176 182.54 101.176C181.186 101.176 180.12 100.751 179.341 99.9014C178.567 99.0459 178.18 97.8857 178.18 96.4209C178.18 94.9678 178.567 93.7988 179.341 92.9141C180.12 92.0293 181.16 91.5869 182.461 91.5869C183.738 91.5869 184.752 92.0059 185.502 92.8438C186.252 93.6758 186.627 94.7949 186.627 96.2012V96.8516H180.096V96.9658C180.096 97.7744 180.322 98.4219 180.773 98.9082C181.224 99.3945 181.828 99.6377 182.584 99.6377C183.117 99.6377 183.574 99.5146 183.955 99.2686C184.336 99.0225 184.591 98.6943 184.72 98.2842ZM189.057 89.5654H190.964V91.7539H192.722V93.2568H190.964V98.3545C190.964 98.7529 191.055 99.0459 191.237 99.2334C191.418 99.4209 191.703 99.5146 192.089 99.5146C192.371 99.5146 192.579 99.5 192.713 99.4707V100.974C192.479 101.032 192.127 101.062 191.659 101.062C190.727 101.062 190.059 100.871 189.655 100.49C189.256 100.104 189.057 99.4619 189.057 98.5654V93.2568H187.712V91.7539H189.057V89.5654ZM197.78 99.6553C198.448 99.6553 199.008 99.4531 199.459 99.0488C199.916 98.6387 200.145 98.1348 200.145 97.5371V96.8076L197.868 96.9482C197.3 96.9893 196.86 97.1299 196.55 97.3701C196.245 97.6045 196.093 97.9209 196.093 98.3193C196.093 98.7236 196.245 99.0488 196.55 99.2949C196.86 99.5352 197.271 99.6553 197.78 99.6553ZM197.253 101.158C196.345 101.158 195.604 100.9 195.029 100.385C194.461 99.8691 194.177 99.1982 194.177 98.3721C194.177 97.5635 194.476 96.9219 195.073 96.4473C195.671 95.9668 196.518 95.6973 197.613 95.6387L200.145 95.4893V94.7773C200.145 94.2617 199.98 93.8604 199.652 93.5732C199.324 93.2803 198.87 93.1338 198.29 93.1338C197.751 93.1338 197.312 93.2539 196.972 93.4941C196.638 93.7344 196.427 94.0654 196.339 94.4873H194.546C194.599 93.6318 194.968 92.9346 195.653 92.3955C196.339 91.8564 197.241 91.5869 198.36 91.5869C199.479 91.5869 200.37 91.8623 201.032 92.4131C201.7 92.9639 202.034 93.7021 202.034 94.6279V101H200.215V99.4795H200.171C199.907 99.9893 199.506 100.396 198.967 100.701C198.434 101.006 197.862 101.158 197.253 101.158ZM204.341 101V91.7539H206.24V101H204.341ZM206.073 90.084C205.856 90.2949 205.595 90.4004 205.291 90.4004C204.986 90.4004 204.725 90.2949 204.508 90.084C204.297 89.873 204.192 89.6182 204.192 89.3193C204.192 89.0146 204.297 88.7568 204.508 88.5459C204.725 88.335 204.986 88.2295 205.291 88.2295C205.601 88.2295 205.862 88.335 206.073 88.5459C206.29 88.7568 206.398 89.0146 206.398 89.3193C206.398 89.6182 206.29 89.873 206.073 90.084ZM208.653 101V88.3174H210.551V101H208.653ZM212.735 94.373C212.735 93.5469 213.069 92.876 213.737 92.3604C214.405 91.8447 215.278 91.5869 216.356 91.5869C217.382 91.5869 218.222 91.8477 218.879 92.3691C219.541 92.8848 219.887 93.5557 219.916 94.3818H218.132C218.085 93.96 217.9 93.6289 217.578 93.3887C217.256 93.1484 216.831 93.0283 216.304 93.0283C215.788 93.0283 215.372 93.1426 215.055 93.3711C214.745 93.5996 214.59 93.8955 214.59 94.2588C214.59 94.8213 215.061 95.2197 216.005 95.4541L217.56 95.8145C218.492 96.0371 219.151 96.3418 219.538 96.7285C219.93 97.1094 220.127 97.6426 220.127 98.3281C220.127 99.1719 219.769 99.8574 219.054 100.385C218.346 100.912 217.423 101.176 216.286 101.176C215.202 101.176 214.317 100.918 213.632 100.402C212.952 99.8867 212.574 99.2012 212.498 98.3457H214.379C214.455 98.791 214.663 99.1338 215.003 99.374C215.343 99.6084 215.8 99.7256 216.374 99.7256C216.942 99.7256 217.39 99.6172 217.719 99.4004C218.053 99.1777 218.22 98.8789 218.22 98.5039C218.22 98.2051 218.12 97.9678 217.921 97.792C217.721 97.6162 217.382 97.4668 216.901 97.3438L215.249 96.9395C213.573 96.5352 212.735 95.6797 212.735 94.373Z" fill="#464255"/>
<path d="M119.521 294.211C117.74 294.211 116.325 293.622 115.276 292.444C114.233 291.267 113.712 289.67 113.712 287.654C113.712 285.65 114.236 284.06 115.285 282.882C116.334 281.698 117.746 281.106 119.521 281.106C120.963 281.106 122.179 281.514 123.169 282.328C124.159 283.137 124.736 284.2 124.9 285.519H122.949C122.773 284.704 122.372 284.054 121.745 283.567C121.124 283.075 120.383 282.829 119.521 282.829C118.367 282.829 117.444 283.269 116.753 284.147C116.067 285.021 115.725 286.189 115.725 287.654C115.725 289.137 116.067 290.314 116.753 291.188C117.438 292.055 118.364 292.488 119.53 292.488C120.409 292.488 121.147 292.274 121.745 291.847C122.349 291.419 122.75 290.821 122.949 290.054H124.909C124.669 291.366 124.074 292.389 123.125 293.121C122.182 293.848 120.98 294.211 119.521 294.211ZM134.019 292.893C133.222 293.748 132.159 294.176 130.829 294.176C129.499 294.176 128.435 293.748 127.638 292.893C126.841 292.031 126.443 290.859 126.443 289.377C126.443 287.9 126.841 286.734 127.638 285.879C128.435 285.018 129.499 284.587 130.829 284.587C132.159 284.587 133.222 285.018 134.019 285.879C134.816 286.734 135.214 287.9 135.214 289.377C135.214 290.859 134.816 292.031 134.019 292.893ZM130.829 292.611C131.585 292.611 132.182 292.327 132.622 291.759C133.061 291.19 133.281 290.396 133.281 289.377C133.281 288.363 133.058 287.572 132.613 287.004C132.173 286.436 131.579 286.151 130.829 286.151C130.079 286.151 129.481 286.436 129.036 287.004C128.596 287.572 128.377 288.363 128.377 289.377C128.377 290.396 128.596 291.19 129.036 291.759C129.481 292.327 130.079 292.611 130.829 292.611ZM137.082 294V284.754H138.893V286.31H138.937C139.148 285.788 139.485 285.372 139.947 285.062C140.41 284.751 140.949 284.596 141.565 284.596C142.203 284.596 142.745 284.754 143.191 285.07C143.642 285.387 143.961 285.832 144.149 286.406H144.193C144.433 285.844 144.808 285.401 145.318 285.079C145.833 284.757 146.419 284.596 147.075 284.596C147.989 284.596 148.722 284.874 149.273 285.431C149.823 285.987 150.099 286.726 150.099 287.646V294H148.192V288.103C148.192 287.505 148.036 287.042 147.726 286.714C147.421 286.386 146.987 286.222 146.425 286.222C145.862 286.222 145.403 286.409 145.045 286.784C144.694 287.159 144.518 287.64 144.518 288.226V294H142.654V287.962C142.654 287.429 142.496 287.007 142.18 286.696C141.863 286.38 141.439 286.222 140.905 286.222C140.343 286.222 139.88 286.418 139.517 286.811C139.159 287.197 138.981 287.689 138.981 288.287V294H137.082ZM157.152 284.604C158.33 284.604 159.273 285.035 159.982 285.896C160.691 286.758 161.046 287.918 161.046 289.377C161.046 290.836 160.694 291.999 159.991 292.866C159.288 293.728 158.353 294.158 157.187 294.158C156.531 294.158 155.948 294.009 155.438 293.71C154.934 293.411 154.548 293.001 154.278 292.479H154.234V297.059H152.336V284.754H154.173V286.345H154.208C154.483 285.806 154.879 285.381 155.394 285.07C155.91 284.76 156.496 284.604 157.152 284.604ZM156.651 292.55C157.401 292.55 157.996 292.266 158.435 291.697C158.875 291.123 159.095 290.35 159.095 289.377C159.095 288.41 158.875 287.64 158.435 287.065C157.996 286.491 157.401 286.204 156.651 286.204C155.925 286.204 155.339 286.494 154.893 287.074C154.448 287.654 154.225 288.422 154.225 289.377C154.225 290.338 154.445 291.108 154.885 291.688C155.33 292.263 155.919 292.55 156.651 292.55ZM166.148 292.655C166.816 292.655 167.375 292.453 167.827 292.049C168.284 291.639 168.512 291.135 168.512 290.537V289.808L166.236 289.948C165.667 289.989 165.228 290.13 164.917 290.37C164.613 290.604 164.46 290.921 164.46 291.319C164.46 291.724 164.613 292.049 164.917 292.295C165.228 292.535 165.638 292.655 166.148 292.655ZM165.621 294.158C164.712 294.158 163.971 293.9 163.397 293.385C162.829 292.869 162.544 292.198 162.544 291.372C162.544 290.563 162.843 289.922 163.441 289.447C164.038 288.967 164.885 288.697 165.981 288.639L168.512 288.489V287.777C168.512 287.262 168.348 286.86 168.02 286.573C167.692 286.28 167.238 286.134 166.658 286.134C166.119 286.134 165.679 286.254 165.339 286.494C165.005 286.734 164.794 287.065 164.706 287.487H162.913C162.966 286.632 163.335 285.935 164.021 285.396C164.706 284.856 165.609 284.587 166.728 284.587C167.847 284.587 168.738 284.862 169.4 285.413C170.068 285.964 170.402 286.702 170.402 287.628V294H168.582V292.479H168.538C168.275 292.989 167.873 293.396 167.334 293.701C166.801 294.006 166.23 294.158 165.621 294.158ZM172.647 294V284.754H174.458V286.301H174.502C174.76 285.762 175.135 285.343 175.627 285.044C176.119 284.745 176.714 284.596 177.411 284.596C178.425 284.596 179.213 284.9 179.775 285.51C180.338 286.113 180.619 286.948 180.619 288.015V294H178.712V288.384C178.712 287.681 178.545 287.147 178.211 286.784C177.883 286.415 177.394 286.23 176.743 286.23C176.075 286.23 175.542 286.447 175.144 286.881C174.745 287.314 174.546 287.892 174.546 288.612V294H172.647ZM183.77 297.445C183.413 297.445 183.155 297.431 182.997 297.401V295.863C183.09 295.887 183.296 295.898 183.612 295.898C184.057 295.898 184.406 295.796 184.658 295.591C184.91 295.392 185.109 295.055 185.255 294.58C185.255 294.574 185.285 294.478 185.343 294.29L185.422 294.009L182.083 284.754H184.139L186.486 292.277H186.512L188.859 284.754H190.863L187.391 294.483C186.999 295.603 186.539 296.376 186.011 296.804C185.484 297.231 184.737 297.445 183.77 297.445ZM196.664 281.317H201.137C203.024 281.317 204.495 281.871 205.55 282.979C206.61 284.086 207.14 285.639 207.14 287.637C207.14 289.641 206.613 291.202 205.558 292.321C204.504 293.44 203.03 294 201.137 294H196.664V281.317ZM198.633 283.014V292.295H200.953C202.301 292.295 203.332 291.896 204.047 291.1C204.767 290.303 205.128 289.154 205.128 287.654C205.128 286.16 204.767 285.015 204.047 284.218C203.326 283.415 202.295 283.014 200.953 283.014H198.633ZM214.668 286.784C214.252 286.339 213.716 286.116 213.06 286.116C212.404 286.116 211.859 286.342 211.425 286.793C210.992 287.238 210.751 287.815 210.704 288.524H215.328C215.304 287.81 215.084 287.229 214.668 286.784ZM215.319 291.284H217.121C216.986 292.134 216.552 292.828 215.82 293.367C215.087 293.906 214.194 294.176 213.139 294.176C211.786 294.176 210.719 293.751 209.94 292.901C209.166 292.046 208.78 290.886 208.78 289.421C208.78 287.968 209.166 286.799 209.94 285.914C210.719 285.029 211.759 284.587 213.06 284.587C214.337 284.587 215.351 285.006 216.101 285.844C216.851 286.676 217.226 287.795 217.226 289.201V289.852H210.696V289.966C210.696 290.774 210.921 291.422 211.372 291.908C211.824 292.395 212.427 292.638 213.183 292.638C213.716 292.638 214.173 292.515 214.554 292.269C214.935 292.022 215.19 291.694 215.319 291.284ZM219.656 282.565H221.563V284.754H223.321V286.257H221.563V291.354C221.563 291.753 221.654 292.046 221.836 292.233C222.018 292.421 222.302 292.515 222.688 292.515C222.97 292.515 223.178 292.5 223.312 292.471V293.974C223.078 294.032 222.727 294.062 222.258 294.062C221.326 294.062 220.658 293.871 220.254 293.49C219.855 293.104 219.656 292.462 219.656 291.565V286.257H218.312V284.754H219.656V282.565ZM228.379 292.655C229.047 292.655 229.607 292.453 230.058 292.049C230.515 291.639 230.744 291.135 230.744 290.537V289.808L228.467 289.948C227.899 289.989 227.46 290.13 227.149 290.37C226.844 290.604 226.692 290.921 226.692 291.319C226.692 291.724 226.844 292.049 227.149 292.295C227.46 292.535 227.87 292.655 228.379 292.655ZM227.852 294.158C226.944 294.158 226.203 293.9 225.629 293.385C225.06 292.869 224.776 292.198 224.776 291.372C224.776 290.563 225.075 289.922 225.672 289.447C226.27 288.967 227.117 288.697 228.213 288.639L230.744 288.489V287.777C230.744 287.262 230.58 286.86 230.252 286.573C229.923 286.28 229.469 286.134 228.889 286.134C228.35 286.134 227.911 286.254 227.571 286.494C227.237 286.734 227.026 287.065 226.938 287.487H225.145C225.198 286.632 225.567 285.935 226.253 285.396C226.938 284.856 227.84 284.587 228.96 284.587C230.079 284.587 230.969 284.862 231.631 285.413C232.299 285.964 232.633 286.702 232.633 287.628V294H230.814V292.479H230.77C230.506 292.989 230.105 293.396 229.566 293.701C229.033 294.006 228.462 294.158 227.852 294.158ZM234.941 294V284.754H236.839V294H234.941ZM236.672 283.084C236.455 283.295 236.195 283.4 235.89 283.4C235.585 283.4 235.324 283.295 235.108 283.084C234.897 282.873 234.791 282.618 234.791 282.319C234.791 282.015 234.897 281.757 235.108 281.546C235.324 281.335 235.585 281.229 235.89 281.229C236.2 281.229 236.461 281.335 236.672 281.546C236.889 281.757 236.997 282.015 236.997 282.319C236.997 282.618 236.889 282.873 236.672 283.084ZM239.252 294V281.317H241.15V294H239.252ZM243.334 287.373C243.334 286.547 243.668 285.876 244.336 285.36C245.004 284.845 245.877 284.587 246.955 284.587C247.981 284.587 248.822 284.848 249.478 285.369C250.14 285.885 250.486 286.556 250.515 287.382H248.731C248.684 286.96 248.499 286.629 248.177 286.389C247.855 286.148 247.43 286.028 246.903 286.028C246.387 286.028 245.971 286.143 245.655 286.371C245.344 286.6 245.189 286.896 245.189 287.259C245.189 287.821 245.661 288.22 246.604 288.454L248.16 288.814C249.091 289.037 249.75 289.342 250.137 289.729C250.53 290.109 250.726 290.643 250.726 291.328C250.726 292.172 250.369 292.857 249.654 293.385C248.945 293.912 248.022 294.176 246.885 294.176C245.801 294.176 244.916 293.918 244.231 293.402C243.551 292.887 243.173 292.201 243.097 291.346H244.978C245.054 291.791 245.262 292.134 245.602 292.374C245.942 292.608 246.399 292.726 246.973 292.726C247.541 292.726 247.99 292.617 248.318 292.4C248.652 292.178 248.819 291.879 248.819 291.504C248.819 291.205 248.719 290.968 248.52 290.792C248.321 290.616 247.981 290.467 247.5 290.344L245.848 289.939C244.172 289.535 243.334 288.68 243.334 287.373Z" fill="#464255"/>
<rect x="78" y="121" width="830" height="1" fill="#E0E2F0"/>
<rect x="78" y="318" width="830" height="1" fill="#E0E2F0"/>
<rect x="395" y="182" width="2" height="27" fill="#3546AB"/>
</g>
<defs>
<filter id="filter0_d" x="0" y="0" width="986" height="793" filterUnits="userSpaceOnUse" color-interpolation-filters="sRGB">
<feFlood flood-opacity="0" result="BackgroundImageFix"/>
<feColorMatrix in="SourceAlpha" type="matrix" values="0 0 0 0 0 0 0 0 0 0 0 0 0 0 0 0 0 0 127 0" result="hardAlpha"/>
<feOffset dy="16"/>
<feGaussianBlur stdDeviation="39"/>
<feColorMatrix type="matrix" values="0 0 0 0 0 0 0 0 0 0 0 0 0 0 0 0 0 0 0.15 0"/>
<feBlend mode="normal" in2="BackgroundImageFix" result="effect1_dropShadow"/>
<feBlend mode="normal" in="SourceGraphic" in2="effect1_dropShadow" result="shape"/>
</filter>
</defs>
</svg>
