<svg width="732" height="836" viewBox="0 0 732 836" fill="none" xmlns="http://www.w3.org/2000/svg">
<g filter="url(#filter0_d)">
<rect x="78" y="62" width="576" height="680" rx="18" fill="white"/>
<path d="M138.898 104L139.516 100.969H137.289L136.68 104H135.18L135.781 100.969H134L134.281 99.4844H136.086L136.562 97.1094H134.711L135 95.6406H136.852L137.453 92.7266H138.953L138.375 95.6406H140.586L141.18 92.7266H142.688L142.102 95.6406H143.977L143.695 97.1094H141.797L141.312 99.4844H143.25L142.969 100.969H141.023L140.406 104H138.898ZM137.492 99.5859H139.859L140.383 97.0156H138.016L137.492 99.5859Z" fill="#464255"/>
<path d="M236.008 104H233.992V92.7266H241.18V94.4297H236.008V97.7578H240.734V99.3984H236.008V104ZM242.5 104V95.7188H244.445V104H242.5ZM244.234 94.3281C244.026 94.5312 243.771 94.6328 243.469 94.6328C243.167 94.6328 242.911 94.5312 242.703 94.3281C242.495 94.1198 242.391 93.8698 242.391 93.5781C242.391 93.2812 242.495 93.0312 242.703 92.8281C242.911 92.6198 243.167 92.5156 243.469 92.5156C243.771 92.5156 244.026 92.6198 244.234 92.8281C244.448 93.0312 244.555 93.2812 244.555 93.5781C244.555 93.8698 244.448 94.1198 244.234 94.3281ZM249.648 97.0547C249.107 97.0547 248.654 97.2422 248.289 97.6172C247.93 97.987 247.729 98.4635 247.688 99.0469H251.555C251.534 98.4583 251.349 97.9792 251 97.6094C250.651 97.2396 250.201 97.0547 249.648 97.0547ZM251.562 101.523H253.383C253.258 102.31 252.859 102.948 252.188 103.438C251.516 103.922 250.693 104.164 249.719 104.164C248.479 104.164 247.505 103.784 246.797 103.023C246.089 102.258 245.734 101.214 245.734 99.8906C245.734 98.5781 246.086 97.526 246.789 96.7344C247.497 95.9427 248.448 95.5469 249.641 95.5469C250.812 95.5469 251.742 95.9245 252.43 96.6797C253.117 97.4297 253.461 98.4349 253.461 99.6953V100.328H247.672V100.445C247.672 101.112 247.859 101.648 248.234 102.055C248.615 102.461 249.122 102.664 249.758 102.664C250.206 102.664 250.591 102.562 250.914 102.359C251.242 102.151 251.458 101.872 251.562 101.523ZM254.773 104V92.7266H256.719V104H254.773ZM261.469 104.133C260.422 104.133 259.586 103.747 258.961 102.977C258.341 102.206 258.031 101.164 258.031 99.8516C258.031 98.5443 258.341 97.5052 258.961 96.7344C259.586 95.9635 260.422 95.5781 261.469 95.5781C262.052 95.5781 262.568 95.7161 263.016 95.9922C263.469 96.2682 263.807 96.6406 264.031 97.1094H264.078V92.7266H266.023V104H264.117V102.586H264.086C263.857 103.06 263.51 103.438 263.047 103.719C262.589 103.995 262.062 104.133 261.469 104.133ZM262.055 97.1797C261.43 97.1797 260.935 97.4219 260.57 97.9062C260.206 98.3854 260.023 99.0365 260.023 99.8594C260.023 100.688 260.203 101.341 260.562 101.82C260.927 102.299 261.424 102.539 262.055 102.539C262.669 102.539 263.161 102.297 263.531 101.812C263.901 101.328 264.086 100.677 264.086 99.8594C264.086 99.0469 263.901 98.3984 263.531 97.9141C263.161 97.4245 262.669 97.1797 262.055 97.1797Z" fill="#464255"/>
<path d="M529.531 100.828H531.484C531.547 101.344 531.812 101.76 532.281 102.078C532.75 102.391 533.331 102.547 534.023 102.547C534.701 102.547 535.253 102.396 535.68 102.094C536.112 101.792 536.328 101.406 536.328 100.938C536.328 100.531 536.172 100.203 535.859 99.9531C535.547 99.6979 535.036 99.487 534.328 99.3203L532.867 98.9766C531.831 98.737 531.06 98.3646 530.555 97.8594C530.055 97.3542 529.805 96.6979 529.805 95.8906C529.805 94.8958 530.195 94.0885 530.977 93.4688C531.758 92.849 532.766 92.5391 534 92.5391C535.24 92.5391 536.237 92.8464 536.992 93.4609C537.753 94.0703 538.146 94.8724 538.172 95.8672H536.25C536.203 95.3411 535.977 94.9297 535.57 94.6328C535.164 94.3307 534.635 94.1797 533.984 94.1797C533.349 94.1797 532.833 94.3229 532.438 94.6094C532.047 94.8958 531.852 95.2734 531.852 95.7422C531.852 96.1172 532.003 96.4219 532.305 96.6562C532.612 96.8906 533.112 97.0911 533.805 97.2578L535.102 97.5547C536.242 97.8151 537.07 98.1953 537.586 98.6953C538.102 99.1953 538.359 99.8646 538.359 100.703C538.359 101.771 537.958 102.62 537.156 103.25C536.359 103.875 535.279 104.188 533.914 104.188C532.612 104.188 531.565 103.888 530.773 103.289C529.987 102.685 529.573 101.865 529.531 100.828ZM540.227 93.7812H542.172V95.7188H543.734V97.2188H542.172V101.523C542.172 101.862 542.253 102.112 542.414 102.273C542.576 102.435 542.828 102.516 543.172 102.516C543.401 102.516 543.586 102.503 543.727 102.477V103.961C543.492 104.013 543.156 104.039 542.719 104.039C541.823 104.039 541.182 103.867 540.797 103.523C540.417 103.18 540.227 102.604 540.227 101.797V97.2188H539.039V95.7188H540.227V93.7812ZM547.977 102.664C548.534 102.664 549.003 102.5 549.383 102.172C549.768 101.839 549.961 101.424 549.961 100.93V100.297L548.047 100.414C547.578 100.445 547.214 100.562 546.953 100.766C546.698 100.964 546.57 101.227 546.57 101.555C546.57 101.893 546.698 102.164 546.953 102.367C547.214 102.565 547.555 102.664 547.977 102.664ZM547.391 104.133C546.583 104.133 545.919 103.901 545.398 103.438C544.883 102.974 544.625 102.372 544.625 101.633C544.625 100.898 544.896 100.318 545.438 99.8906C545.984 99.4635 546.763 99.2188 547.773 99.1562L549.961 99.0312V98.4375C549.961 98.0052 549.823 97.6693 549.547 97.4297C549.276 97.1901 548.898 97.0703 548.414 97.0703C547.961 97.0703 547.591 97.1719 547.305 97.375C547.018 97.5781 546.844 97.8542 546.781 98.2031H544.977C545.018 97.4167 545.354 96.7786 545.984 96.2891C546.62 95.7943 547.456 95.5469 548.492 95.5469C549.518 95.5469 550.339 95.7969 550.953 96.2969C551.573 96.7969 551.883 97.4635 551.883 98.2969V104H550.008V102.68H549.969C549.734 103.122 549.38 103.477 548.906 103.742C548.432 104.003 547.927 104.133 547.391 104.133ZM553.992 93.7812H555.938V95.7188H557.5V97.2188H555.938V101.523C555.938 101.862 556.018 102.112 556.18 102.273C556.341 102.435 556.594 102.516 556.938 102.516C557.167 102.516 557.352 102.503 557.492 102.477V103.961C557.258 104.013 556.922 104.039 556.484 104.039C555.589 104.039 554.948 103.867 554.562 103.523C554.182 103.18 553.992 102.604 553.992 101.797V97.2188H552.805V95.7188H553.992V93.7812ZM566.172 95.7188V104H564.297V102.562H564.258C563.799 103.62 562.956 104.148 561.727 104.148C560.826 104.148 560.109 103.875 559.578 103.328C559.052 102.776 558.789 102.023 558.789 101.07V95.7188H560.734V100.68C560.734 101.273 560.875 101.727 561.156 102.039C561.443 102.352 561.859 102.508 562.406 102.508C562.964 102.508 563.406 102.326 563.734 101.961C564.062 101.596 564.227 101.112 564.227 100.508V95.7188H566.172ZM567.617 98.0938C567.617 97.3333 567.924 96.7188 568.539 96.25C569.154 95.7812 569.964 95.5469 570.969 95.5469C571.938 95.5469 572.724 95.7865 573.328 96.2656C573.938 96.7396 574.255 97.3594 574.281 98.125H572.469C572.438 97.7656 572.286 97.4844 572.016 97.2812C571.745 97.0781 571.383 96.9766 570.93 96.9766C570.503 96.9766 570.159 97.0703 569.898 97.2578C569.638 97.4401 569.508 97.6823 569.508 97.9844C569.508 98.4427 569.904 98.7682 570.695 98.9609L572.172 99.2891C573 99.4818 573.591 99.7526 573.945 100.102C574.299 100.451 574.477 100.932 574.477 101.547C574.477 102.328 574.148 102.961 573.492 103.445C572.836 103.924 571.984 104.164 570.938 104.164C569.906 104.164 569.076 103.93 568.445 103.461C567.82 102.987 567.474 102.354 567.406 101.562H569.32C569.378 101.943 569.549 102.234 569.836 102.438C570.128 102.641 570.518 102.742 571.008 102.742C571.482 102.742 571.854 102.654 572.125 102.477C572.401 102.294 572.539 102.049 572.539 101.742C572.539 101.503 572.453 101.312 572.281 101.172C572.115 101.026 571.831 100.901 571.43 100.797L569.922 100.445C568.385 100.086 567.617 99.3021 567.617 98.0938Z" fill="#464255"/>
<rect x="78" y="129" width="576" height="1" fill="#E3E5F0"/>
<rect x="108" y="154" width="516" height="70" rx="14" fill="#F7F7F7"/>
<rect x="108" y="234" width="516" height="70" rx="14" fill="#F7F7F7"/>
<rect x="108" y="314" width="516" height="70" rx="14" fill="#F7F7F7"/>
<rect x="108" y="394" width="516" height="70" rx="14" fill="#F7F7F7"/>
<rect x="108" y="474" width="516" height="70" rx="14" fill="#F7F7F7"/>
<rect x="108" y="554" width="516" height="70" rx="14" fill="#F7F7F7"/>
<rect x="108" y="634" width="516" height="70" rx="14" fill="#F7F7F7"/>
<rect x="529" y="335" width="58" height="29" rx="14.5" fill="#00A389"/>
<rect x="529" y="415" width="58" height="29" rx="14.5" fill="#00A389"/>
<rect x="529" y="495" width="58" height="29" rx="14.5" fill="#00A389"/>
<rect x="529" y="575" width="58" height="29" rx="14.5" fill="#00A389"/>
<rect x="529" y="655" width="58" height="29" rx="14.5" fill="#00A389"/>
<circle cx="572.5" cy="349.5" r="11.5" fill="white"/>
<circle cx="572.5" cy="429.5" r="11.5" fill="white"/>
<circle cx="572.5" cy="509.5" r="11.5" fill="white"/>
<circle cx="572.5" cy="589.5" r="11.5" fill="white"/>
<circle cx="572.5" cy="669.5" r="11.5" fill="white"/>
<path d="M235.484 195H234.094V183.727H235.461L241.633 192.578H241.703V183.727H243.094V195H241.727L235.555 186.18H235.484V195ZM247.516 193.984C248.156 193.984 248.693 193.786 249.125 193.391C249.562 192.99 249.781 192.497 249.781 191.914V191.25L247.609 191.383C247.062 191.419 246.638 191.552 246.336 191.781C246.039 192.01 245.891 192.318 245.891 192.703C245.891 193.089 246.039 193.398 246.336 193.633C246.633 193.867 247.026 193.984 247.516 193.984ZM247.211 195.141C246.404 195.141 245.75 194.917 245.25 194.469C244.755 194.021 244.508 193.432 244.508 192.703C244.508 192.005 244.763 191.448 245.273 191.031C245.789 190.615 246.516 190.38 247.453 190.328L249.781 190.195V189.516C249.781 189.021 249.625 188.633 249.312 188.352C249 188.07 248.562 187.93 248 187.93C247.484 187.93 247.065 188.044 246.742 188.273C246.419 188.497 246.214 188.812 246.125 189.219H244.812C244.859 188.495 245.172 187.901 245.75 187.438C246.333 186.969 247.094 186.734 248.031 186.734C248.984 186.734 249.74 186.974 250.297 187.453C250.859 187.932 251.141 188.576 251.141 189.383V195H249.852V193.602H249.82C249.576 194.065 249.216 194.438 248.742 194.719C248.268 195 247.758 195.141 247.211 195.141ZM252.867 195V186.875H254.148V188.172H254.18C254.378 187.729 254.677 187.38 255.078 187.125C255.479 186.865 255.948 186.734 256.484 186.734C257.036 186.734 257.51 186.87 257.906 187.141C258.302 187.406 258.589 187.786 258.766 188.281H258.797C259.021 187.797 259.357 187.419 259.805 187.148C260.258 186.872 260.771 186.734 261.344 186.734C262.146 186.734 262.786 186.977 263.266 187.461C263.75 187.94 263.992 188.583 263.992 189.391V195H262.633V189.703C262.633 189.146 262.484 188.714 262.188 188.406C261.896 188.094 261.482 187.938 260.945 187.938C260.409 187.938 259.969 188.117 259.625 188.477C259.281 188.831 259.109 189.284 259.109 189.836V195H257.75V189.555C257.75 189.065 257.599 188.674 257.297 188.383C256.995 188.086 256.591 187.938 256.086 187.938C255.549 187.938 255.104 188.125 254.75 188.5C254.401 188.875 254.227 189.344 254.227 189.906V195H252.867ZM268.984 187.914C268.354 187.914 267.831 188.133 267.414 188.57C267.003 189.003 266.776 189.56 266.734 190.242H271.148C271.133 189.555 270.927 188.995 270.531 188.562C270.135 188.13 269.62 187.914 268.984 187.914ZM271.117 192.672H272.453C272.333 193.391 271.958 193.982 271.328 194.445C270.703 194.909 269.951 195.141 269.07 195.141C267.909 195.141 266.995 194.766 266.328 194.016C265.661 193.266 265.328 192.25 265.328 190.969C265.328 189.698 265.661 188.674 266.328 187.898C267 187.122 267.893 186.734 269.008 186.734C270.102 186.734 270.966 187.102 271.602 187.836C272.237 188.57 272.555 189.555 272.555 190.789V191.305H266.727V191.383C266.727 192.164 266.94 192.789 267.367 193.258C267.794 193.727 268.372 193.961 269.102 193.961C269.612 193.961 270.047 193.844 270.406 193.609C270.766 193.375 271.003 193.062 271.117 192.672Z" fill="#464255"/>
<path d="M241.078 273.734V275H234.094V263.727H241.078V264.992H235.5V268.609H240.789V269.859H235.5V273.734H241.078ZM242.727 275V266.875H244.008V268.172H244.039C244.237 267.729 244.536 267.38 244.938 267.125C245.339 266.865 245.807 266.734 246.344 266.734C246.896 266.734 247.37 266.87 247.766 267.141C248.161 267.406 248.448 267.786 248.625 268.281H248.656C248.88 267.797 249.216 267.419 249.664 267.148C250.117 266.872 250.63 266.734 251.203 266.734C252.005 266.734 252.646 266.977 253.125 267.461C253.609 267.94 253.852 268.583 253.852 269.391V275H252.492V269.703C252.492 269.146 252.344 268.714 252.047 268.406C251.755 268.094 251.341 267.938 250.805 267.938C250.268 267.938 249.828 268.117 249.484 268.477C249.141 268.831 248.969 269.284 248.969 269.836V275H247.609V269.555C247.609 269.065 247.458 268.674 247.156 268.383C246.854 268.086 246.451 267.938 245.945 267.938C245.409 267.938 244.964 268.125 244.609 268.5C244.26 268.875 244.086 269.344 244.086 269.906V275H242.727ZM258.266 273.984C258.906 273.984 259.443 273.786 259.875 273.391C260.312 272.99 260.531 272.497 260.531 271.914V271.25L258.359 271.383C257.812 271.419 257.388 271.552 257.086 271.781C256.789 272.01 256.641 272.318 256.641 272.703C256.641 273.089 256.789 273.398 257.086 273.633C257.383 273.867 257.776 273.984 258.266 273.984ZM257.961 275.141C257.154 275.141 256.5 274.917 256 274.469C255.505 274.021 255.258 273.432 255.258 272.703C255.258 272.005 255.513 271.448 256.023 271.031C256.539 270.615 257.266 270.38 258.203 270.328L260.531 270.195V269.516C260.531 269.021 260.375 268.633 260.062 268.352C259.75 268.07 259.312 267.93 258.75 267.93C258.234 267.93 257.815 268.044 257.492 268.273C257.169 268.497 256.964 268.812 256.875 269.219H255.562C255.609 268.495 255.922 267.901 256.5 267.438C257.083 266.969 257.844 266.734 258.781 266.734C259.734 266.734 260.49 266.974 261.047 267.453C261.609 267.932 261.891 268.576 261.891 269.383V275H260.602V273.602H260.57C260.326 274.065 259.966 274.438 259.492 274.719C259.018 275 258.508 275.141 257.961 275.141ZM263.688 275V266.875H265.047V275H263.688ZM264.367 265.508C264.138 265.508 263.94 265.424 263.773 265.258C263.607 265.091 263.523 264.893 263.523 264.664C263.523 264.43 263.607 264.232 263.773 264.07C263.94 263.904 264.138 263.82 264.367 263.82C264.602 263.82 264.802 263.904 264.969 264.07C265.135 264.232 265.219 264.43 265.219 264.664C265.219 264.893 265.135 265.091 264.969 265.258C264.802 265.424 264.602 265.508 264.367 265.508ZM266.953 275V263.727H268.312V275H266.953Z" fill="#464255"/>
<path d="M238.734 355.188C237.177 355.188 235.94 354.664 235.023 353.617C234.112 352.565 233.656 351.146 233.656 349.359C233.656 347.589 234.117 346.177 235.039 345.125C235.961 344.068 237.193 343.539 238.734 343.539C239.964 343.539 241.005 343.883 241.859 344.57C242.719 345.253 243.237 346.156 243.414 347.281H241.992C241.81 346.542 241.422 345.951 240.828 345.508C240.234 345.06 239.536 344.836 238.734 344.836C237.635 344.836 236.755 345.247 236.094 346.07C235.432 346.893 235.102 347.99 235.102 349.359C235.102 350.745 235.43 351.846 236.086 352.664C236.742 353.482 237.628 353.891 238.742 353.891C239.57 353.891 240.268 353.701 240.836 353.32C241.404 352.94 241.789 352.406 241.992 351.719H243.414C243.154 352.833 242.62 353.69 241.812 354.289C241.005 354.888 239.979 355.188 238.734 355.188ZM248.234 355.141C247.099 355.141 246.188 354.763 245.5 354.008C244.812 353.247 244.469 352.224 244.469 350.938C244.469 349.651 244.812 348.63 245.5 347.875C246.188 347.115 247.099 346.734 248.234 346.734C249.365 346.734 250.273 347.115 250.961 347.875C251.648 348.63 251.992 349.651 251.992 350.938C251.992 352.219 251.648 353.24 250.961 354C250.273 354.76 249.365 355.141 248.234 355.141ZM246.492 353.148C246.924 353.68 247.505 353.945 248.234 353.945C248.964 353.945 249.542 353.682 249.969 353.156C250.396 352.625 250.609 351.885 250.609 350.938C250.609 349.99 250.396 349.253 249.969 348.727C249.542 348.195 248.964 347.93 248.234 347.93C247.505 347.93 246.924 348.195 246.492 348.727C246.065 349.258 245.852 349.995 245.852 350.938C245.852 351.88 246.065 352.617 246.492 353.148ZM253.367 355V346.875H254.648V348.172H254.68C254.878 347.729 255.177 347.38 255.578 347.125C255.979 346.865 256.448 346.734 256.984 346.734C257.536 346.734 258.01 346.87 258.406 347.141C258.802 347.406 259.089 347.786 259.266 348.281H259.297C259.521 347.797 259.857 347.419 260.305 347.148C260.758 346.872 261.271 346.734 261.844 346.734C262.646 346.734 263.286 346.977 263.766 347.461C264.25 347.94 264.492 348.583 264.492 349.391V355H263.133V349.703C263.133 349.146 262.984 348.714 262.688 348.406C262.396 348.094 261.982 347.938 261.445 347.938C260.909 347.938 260.469 348.117 260.125 348.477C259.781 348.831 259.609 349.284 259.609 349.836V355H258.25V349.555C258.25 349.065 258.099 348.674 257.797 348.383C257.495 348.086 257.091 347.938 256.586 347.938C256.049 347.938 255.604 348.125 255.25 348.5C254.901 348.875 254.727 349.344 254.727 349.906V355H253.367ZM270.172 346.734C271.214 346.734 272.052 347.117 272.688 347.883C273.328 348.648 273.648 349.667 273.648 350.938C273.648 352.203 273.331 353.221 272.695 353.992C272.06 354.758 271.229 355.141 270.203 355.141C269.63 355.141 269.117 355.01 268.664 354.75C268.211 354.49 267.862 354.133 267.617 353.68H267.586V357.711H266.227V346.875H267.516V348.25H267.547C267.802 347.781 268.159 347.411 268.617 347.141C269.076 346.87 269.594 346.734 270.172 346.734ZM269.906 353.945C270.63 353.945 271.203 353.674 271.625 353.133C272.047 352.591 272.258 351.859 272.258 350.938C272.258 350.016 272.047 349.284 271.625 348.742C271.203 348.201 270.63 347.93 269.906 347.93C269.208 347.93 268.646 348.206 268.219 348.758C267.792 349.31 267.578 350.036 267.578 350.938C267.578 351.844 267.792 352.573 268.219 353.125C268.646 353.672 269.208 353.945 269.906 353.945ZM277.703 353.984C278.344 353.984 278.88 353.786 279.312 353.391C279.75 352.99 279.969 352.497 279.969 351.914V351.25L277.797 351.383C277.25 351.419 276.826 351.552 276.523 351.781C276.227 352.01 276.078 352.318 276.078 352.703C276.078 353.089 276.227 353.398 276.523 353.633C276.82 353.867 277.214 353.984 277.703 353.984ZM277.398 355.141C276.591 355.141 275.938 354.917 275.438 354.469C274.943 354.021 274.695 353.432 274.695 352.703C274.695 352.005 274.951 351.448 275.461 351.031C275.977 350.615 276.703 350.38 277.641 350.328L279.969 350.195V349.516C279.969 349.021 279.812 348.633 279.5 348.352C279.188 348.07 278.75 347.93 278.188 347.93C277.672 347.93 277.253 348.044 276.93 348.273C276.607 348.497 276.401 348.812 276.312 349.219H275C275.047 348.495 275.359 347.901 275.938 347.438C276.521 346.969 277.281 346.734 278.219 346.734C279.172 346.734 279.927 346.974 280.484 347.453C281.047 347.932 281.328 348.576 281.328 349.383V355H280.039V353.602H280.008C279.763 354.065 279.404 354.438 278.93 354.719C278.456 355 277.945 355.141 277.398 355.141ZM283.055 355V346.875H284.336V348.172H284.367C284.602 347.719 284.938 347.367 285.375 347.117C285.812 346.862 286.336 346.734 286.945 346.734C287.831 346.734 288.521 347.003 289.016 347.539C289.51 348.07 289.758 348.799 289.758 349.727V355H288.398V349.969C288.398 349.307 288.242 348.805 287.93 348.461C287.617 348.112 287.151 347.938 286.531 347.938C285.891 347.938 285.378 348.146 284.992 348.562C284.607 348.979 284.414 349.531 284.414 350.219V355H283.055ZM292.164 358.039C291.924 358.039 291.729 358.023 291.578 357.992V356.852C291.703 356.878 291.88 356.891 292.109 356.891C292.49 356.891 292.794 356.789 293.023 356.586C293.253 356.388 293.445 356.052 293.602 355.578L293.789 355.008L290.789 346.875H292.242L294.492 353.641H294.516L296.766 346.875H298.195L295 355.57C294.651 356.518 294.273 357.167 293.867 357.516C293.466 357.865 292.898 358.039 292.164 358.039ZM304.156 355H302.766V343.727H304.133L310.305 352.578H310.375V343.727H311.766V355H310.398L304.227 346.18H304.156V355ZM316.188 353.984C316.828 353.984 317.365 353.786 317.797 353.391C318.234 352.99 318.453 352.497 318.453 351.914V351.25L316.281 351.383C315.734 351.419 315.31 351.552 315.008 351.781C314.711 352.01 314.562 352.318 314.562 352.703C314.562 353.089 314.711 353.398 315.008 353.633C315.305 353.867 315.698 353.984 316.188 353.984ZM315.883 355.141C315.076 355.141 314.422 354.917 313.922 354.469C313.427 354.021 313.18 353.432 313.18 352.703C313.18 352.005 313.435 351.448 313.945 351.031C314.461 350.615 315.188 350.38 316.125 350.328L318.453 350.195V349.516C318.453 349.021 318.297 348.633 317.984 348.352C317.672 348.07 317.234 347.93 316.672 347.93C316.156 347.93 315.737 348.044 315.414 348.273C315.091 348.497 314.885 348.812 314.797 349.219H313.484C313.531 348.495 313.844 347.901 314.422 347.438C315.005 346.969 315.766 346.734 316.703 346.734C317.656 346.734 318.411 346.974 318.969 347.453C319.531 347.932 319.812 348.576 319.812 349.383V355H318.523V353.602H318.492C318.247 354.065 317.888 354.438 317.414 354.719C316.94 355 316.43 355.141 315.883 355.141ZM321.539 355V346.875H322.82V348.172H322.852C323.049 347.729 323.349 347.38 323.75 347.125C324.151 346.865 324.62 346.734 325.156 346.734C325.708 346.734 326.182 346.87 326.578 347.141C326.974 347.406 327.26 347.786 327.438 348.281H327.469C327.693 347.797 328.029 347.419 328.477 347.148C328.93 346.872 329.443 346.734 330.016 346.734C330.818 346.734 331.458 346.977 331.938 347.461C332.422 347.94 332.664 348.583 332.664 349.391V355H331.305V349.703C331.305 349.146 331.156 348.714 330.859 348.406C330.568 348.094 330.154 347.938 329.617 347.938C329.081 347.938 328.641 348.117 328.297 348.477C327.953 348.831 327.781 349.284 327.781 349.836V355H326.422V349.555C326.422 349.065 326.271 348.674 325.969 348.383C325.667 348.086 325.263 347.938 324.758 347.938C324.221 347.938 323.776 348.125 323.422 348.5C323.073 348.875 322.898 349.344 322.898 349.906V355H321.539ZM337.656 347.914C337.026 347.914 336.503 348.133 336.086 348.57C335.674 349.003 335.448 349.56 335.406 350.242H339.82C339.805 349.555 339.599 348.995 339.203 348.562C338.807 348.13 338.292 347.914 337.656 347.914ZM339.789 352.672H341.125C341.005 353.391 340.63 353.982 340 354.445C339.375 354.909 338.622 355.141 337.742 355.141C336.581 355.141 335.667 354.766 335 354.016C334.333 353.266 334 352.25 334 350.969C334 349.698 334.333 348.674 335 347.898C335.672 347.122 336.565 346.734 337.68 346.734C338.773 346.734 339.638 347.102 340.273 347.836C340.909 348.57 341.227 349.555 341.227 350.789V351.305H335.398V351.383C335.398 352.164 335.612 352.789 336.039 353.258C336.466 353.727 337.044 353.961 337.773 353.961C338.284 353.961 338.719 353.844 339.078 353.609C339.438 353.375 339.674 353.062 339.789 352.672Z" fill="#464255"/>
<path d="M240.352 426.055L237.75 435H236.422L233.352 423.727H234.82L237.078 432.93H237.141L239.68 423.727H241.102L243.641 432.93H243.703L245.961 423.727H247.43L244.359 435H243.031L240.43 426.055H240.352ZM251.062 427.914C250.432 427.914 249.909 428.133 249.492 428.57C249.081 429.003 248.854 429.56 248.812 430.242H253.227C253.211 429.555 253.005 428.995 252.609 428.562C252.214 428.13 251.698 427.914 251.062 427.914ZM253.195 432.672H254.531C254.411 433.391 254.036 433.982 253.406 434.445C252.781 434.909 252.029 435.141 251.148 435.141C249.987 435.141 249.073 434.766 248.406 434.016C247.74 433.266 247.406 432.25 247.406 430.969C247.406 429.698 247.74 428.674 248.406 427.898C249.078 427.122 249.971 426.734 251.086 426.734C252.18 426.734 253.044 427.102 253.68 427.836C254.315 428.57 254.633 429.555 254.633 430.789V431.305H248.805V431.383C248.805 432.164 249.018 432.789 249.445 433.258C249.872 433.727 250.451 433.961 251.18 433.961C251.69 433.961 252.125 433.844 252.484 433.609C252.844 433.375 253.081 433.062 253.195 432.672ZM260.047 435.141C259.464 435.141 258.943 435.008 258.484 434.742C258.031 434.477 257.672 434.104 257.406 433.625H257.375V435H256.078V423.727H257.438V428.234H257.469C257.724 427.766 258.078 427.398 258.531 427.133C258.99 426.867 259.503 426.734 260.07 426.734C261.096 426.734 261.924 427.117 262.555 427.883C263.185 428.648 263.5 429.667 263.5 430.938C263.5 432.214 263.185 433.234 262.555 434C261.924 434.76 261.089 435.141 260.047 435.141ZM259.781 427.93C259.089 427.93 258.523 428.208 258.086 428.766C257.648 429.318 257.43 430.042 257.43 430.938C257.43 431.839 257.648 432.565 258.086 433.117C258.523 433.669 259.089 433.945 259.781 433.945C260.5 433.945 261.068 433.677 261.484 433.141C261.901 432.599 262.109 431.865 262.109 430.938C262.109 430.016 261.901 429.284 261.484 428.742C261.068 428.201 260.5 427.93 259.781 427.93ZM264.742 429.117C264.742 428.419 265.023 427.849 265.586 427.406C266.154 426.958 266.883 426.734 267.773 426.734C268.612 426.734 269.31 426.958 269.867 427.406C270.424 427.854 270.719 428.422 270.75 429.109H269.453C269.406 428.714 269.229 428.404 268.922 428.18C268.62 427.956 268.221 427.844 267.727 427.844C267.232 427.844 266.833 427.956 266.531 428.18C266.229 428.398 266.078 428.688 266.078 429.047C266.078 429.599 266.529 429.99 267.43 430.219L268.688 430.523C269.505 430.732 270.081 431.003 270.414 431.336C270.753 431.664 270.922 432.128 270.922 432.727C270.922 433.435 270.62 434.016 270.016 434.469C269.411 434.917 268.635 435.141 267.688 435.141C266.802 435.141 266.07 434.922 265.492 434.484C264.919 434.042 264.596 433.458 264.523 432.734H265.883C266.034 433.599 266.664 434.031 267.773 434.031C268.32 434.031 268.753 433.924 269.07 433.711C269.393 433.492 269.555 433.198 269.555 432.828C269.555 432.536 269.458 432.305 269.266 432.133C269.078 431.961 268.758 431.815 268.305 431.695L266.875 431.328C265.453 430.964 264.742 430.227 264.742 429.117ZM272.406 435V426.875H273.766V435H272.406ZM273.086 425.508C272.857 425.508 272.659 425.424 272.492 425.258C272.326 425.091 272.242 424.893 272.242 424.664C272.242 424.43 272.326 424.232 272.492 424.07C272.659 423.904 272.857 423.82 273.086 423.82C273.32 423.82 273.521 423.904 273.688 424.07C273.854 424.232 273.938 424.43 273.938 424.664C273.938 424.893 273.854 425.091 273.688 425.258C273.521 425.424 273.32 425.508 273.086 425.508ZM276.039 424.914H277.398V426.875H278.977V427.992H277.398V432.82C277.398 433.19 277.479 433.464 277.641 433.641C277.802 433.812 278.057 433.898 278.406 433.898C278.625 433.898 278.812 433.885 278.969 433.859V435C278.792 435.042 278.505 435.062 278.109 435.062C277.365 435.062 276.833 434.896 276.516 434.562C276.198 434.229 276.039 433.672 276.039 432.891V427.992H274.828V426.875H276.039V424.914ZM283.453 427.914C282.823 427.914 282.299 428.133 281.883 428.57C281.471 429.003 281.245 429.56 281.203 430.242H285.617C285.602 429.555 285.396 428.995 285 428.562C284.604 428.13 284.089 427.914 283.453 427.914ZM285.586 432.672H286.922C286.802 433.391 286.427 433.982 285.797 434.445C285.172 434.909 284.419 435.141 283.539 435.141C282.378 435.141 281.464 434.766 280.797 434.016C280.13 433.266 279.797 432.25 279.797 430.969C279.797 429.698 280.13 428.674 280.797 427.898C281.469 427.122 282.362 426.734 283.477 426.734C284.57 426.734 285.435 427.102 286.07 427.836C286.706 428.57 287.023 429.555 287.023 430.789V431.305H281.195V431.383C281.195 432.164 281.409 432.789 281.836 433.258C282.263 433.727 282.841 433.961 283.57 433.961C284.081 433.961 284.516 433.844 284.875 433.609C285.234 433.375 285.471 433.062 285.586 432.672Z" fill="#464255"/>
<path d="M241.422 515L240.289 511.773H235.805L234.672 515H233.195L237.352 503.727H238.742L242.898 515H241.422ZM238.023 505.438L236.219 510.578H239.875L238.07 505.438H238.023ZM246.898 515.141C245.857 515.141 245.016 514.758 244.375 513.992C243.74 513.227 243.422 512.208 243.422 510.938C243.422 509.672 243.74 508.656 244.375 507.891C245.01 507.12 245.841 506.734 246.867 506.734C247.44 506.734 247.953 506.865 248.406 507.125C248.859 507.385 249.208 507.742 249.453 508.195H249.484V503.727H250.844V515H249.547V513.625H249.523C249.258 514.099 248.898 514.471 248.445 514.742C247.992 515.008 247.477 515.141 246.898 515.141ZM247.156 507.93C246.438 507.93 245.867 508.203 245.445 508.75C245.023 509.292 244.812 510.021 244.812 510.938C244.812 511.859 245.023 512.591 245.445 513.133C245.867 513.674 246.438 513.945 247.156 513.945C247.859 513.945 248.424 513.672 248.852 513.125C249.279 512.573 249.492 511.844 249.492 510.938C249.492 510.031 249.276 509.305 248.844 508.758C248.417 508.206 247.854 507.93 247.156 507.93ZM255.758 515.141C254.716 515.141 253.875 514.758 253.234 513.992C252.599 513.227 252.281 512.208 252.281 510.938C252.281 509.672 252.599 508.656 253.234 507.891C253.87 507.12 254.701 506.734 255.727 506.734C256.299 506.734 256.812 506.865 257.266 507.125C257.719 507.385 258.068 507.742 258.312 508.195H258.344V503.727H259.703V515H258.406V513.625H258.383C258.117 514.099 257.758 514.471 257.305 514.742C256.852 515.008 256.336 515.141 255.758 515.141ZM256.016 507.93C255.297 507.93 254.727 508.203 254.305 508.75C253.883 509.292 253.672 510.021 253.672 510.938C253.672 511.859 253.883 512.591 254.305 513.133C254.727 513.674 255.297 513.945 256.016 513.945C256.719 513.945 257.284 513.672 257.711 513.125C258.138 512.573 258.352 511.844 258.352 510.938C258.352 510.031 258.135 509.305 257.703 508.758C257.276 508.206 256.714 507.93 256.016 507.93ZM261.539 515V506.875H262.82V508.203H262.852C262.987 507.75 263.229 507.393 263.578 507.133C263.932 506.867 264.346 506.734 264.82 506.734C264.93 506.734 265.112 506.753 265.367 506.789V508.109C265.221 508.057 264.979 508.031 264.641 508.031C264.115 508.031 263.693 508.206 263.375 508.555C263.057 508.904 262.898 509.365 262.898 509.938V515H261.539ZM269.344 507.914C268.714 507.914 268.19 508.133 267.773 508.57C267.362 509.003 267.135 509.56 267.094 510.242H271.508C271.492 509.555 271.286 508.995 270.891 508.562C270.495 508.13 269.979 507.914 269.344 507.914ZM271.477 512.672H272.812C272.693 513.391 272.318 513.982 271.688 514.445C271.062 514.909 270.31 515.141 269.43 515.141C268.268 515.141 267.354 514.766 266.688 514.016C266.021 513.266 265.688 512.25 265.688 510.969C265.688 509.698 266.021 508.674 266.688 507.898C267.359 507.122 268.253 506.734 269.367 506.734C270.461 506.734 271.326 507.102 271.961 507.836C272.596 508.57 272.914 509.555 272.914 510.789V511.305H267.086V511.383C267.086 512.164 267.299 512.789 267.727 513.258C268.154 513.727 268.732 513.961 269.461 513.961C269.971 513.961 270.406 513.844 270.766 513.609C271.125 513.375 271.362 513.062 271.477 512.672ZM274.148 509.117C274.148 508.419 274.43 507.849 274.992 507.406C275.56 506.958 276.289 506.734 277.18 506.734C278.018 506.734 278.716 506.958 279.273 507.406C279.831 507.854 280.125 508.422 280.156 509.109H278.859C278.812 508.714 278.635 508.404 278.328 508.18C278.026 507.956 277.628 507.844 277.133 507.844C276.638 507.844 276.24 507.956 275.938 508.18C275.635 508.398 275.484 508.688 275.484 509.047C275.484 509.599 275.935 509.99 276.836 510.219L278.094 510.523C278.911 510.732 279.487 511.003 279.82 511.336C280.159 511.664 280.328 512.128 280.328 512.727C280.328 513.435 280.026 514.016 279.422 514.469C278.818 514.917 278.042 515.141 277.094 515.141C276.208 515.141 275.477 514.922 274.898 514.484C274.326 514.042 274.003 513.458 273.93 512.734H275.289C275.44 513.599 276.07 514.031 277.18 514.031C277.727 514.031 278.159 513.924 278.477 513.711C278.799 513.492 278.961 513.198 278.961 512.828C278.961 512.536 278.865 512.305 278.672 512.133C278.484 511.961 278.164 511.815 277.711 511.695L276.281 511.328C274.859 510.964 274.148 510.227 274.148 509.117ZM281.602 509.117C281.602 508.419 281.883 507.849 282.445 507.406C283.013 506.958 283.742 506.734 284.633 506.734C285.471 506.734 286.169 506.958 286.727 507.406C287.284 507.854 287.578 508.422 287.609 509.109H286.312C286.266 508.714 286.089 508.404 285.781 508.18C285.479 507.956 285.081 507.844 284.586 507.844C284.091 507.844 283.693 507.956 283.391 508.18C283.089 508.398 282.938 508.688 282.938 509.047C282.938 509.599 283.388 509.99 284.289 510.219L285.547 510.523C286.365 510.732 286.94 511.003 287.273 511.336C287.612 511.664 287.781 512.128 287.781 512.727C287.781 513.435 287.479 514.016 286.875 514.469C286.271 514.917 285.495 515.141 284.547 515.141C283.661 515.141 282.93 514.922 282.352 514.484C281.779 514.042 281.456 513.458 281.383 512.734H282.742C282.893 513.599 283.523 514.031 284.633 514.031C285.18 514.031 285.612 513.924 285.93 513.711C286.253 513.492 286.414 513.198 286.414 512.828C286.414 512.536 286.318 512.305 286.125 512.133C285.938 511.961 285.617 511.815 285.164 511.695L283.734 511.328C282.312 510.964 281.602 510.227 281.602 509.117Z" fill="#464255"/>
<path d="M245.203 595H243.891V586.312H243.836L240.242 594.922H239.055L235.461 586.312H235.406V595H234.094V583.727H235.727L239.617 593.133H239.68L243.57 583.727H245.203V595ZM250.547 595.141C249.411 595.141 248.5 594.763 247.812 594.008C247.125 593.247 246.781 592.224 246.781 590.938C246.781 589.651 247.125 588.63 247.812 587.875C248.5 587.115 249.411 586.734 250.547 586.734C251.677 586.734 252.586 587.115 253.273 587.875C253.961 588.63 254.305 589.651 254.305 590.938C254.305 592.219 253.961 593.24 253.273 594C252.586 594.76 251.677 595.141 250.547 595.141ZM248.805 593.148C249.237 593.68 249.818 593.945 250.547 593.945C251.276 593.945 251.854 593.682 252.281 593.156C252.708 592.625 252.922 591.885 252.922 590.938C252.922 589.99 252.708 589.253 252.281 588.727C251.854 588.195 251.276 587.93 250.547 587.93C249.818 587.93 249.237 588.195 248.805 588.727C248.378 589.258 248.164 589.995 248.164 590.938C248.164 591.88 248.378 592.617 248.805 593.148ZM259.719 595.141C259.135 595.141 258.615 595.008 258.156 594.742C257.703 594.477 257.344 594.104 257.078 593.625H257.047V595H255.75V583.727H257.109V588.234H257.141C257.396 587.766 257.75 587.398 258.203 587.133C258.661 586.867 259.174 586.734 259.742 586.734C260.768 586.734 261.596 587.117 262.227 587.883C262.857 588.648 263.172 589.667 263.172 590.938C263.172 592.214 262.857 593.234 262.227 594C261.596 594.76 260.76 595.141 259.719 595.141ZM259.453 587.93C258.76 587.93 258.195 588.208 257.758 588.766C257.32 589.318 257.102 590.042 257.102 590.938C257.102 591.839 257.32 592.565 257.758 593.117C258.195 593.669 258.76 593.945 259.453 593.945C260.172 593.945 260.74 593.677 261.156 593.141C261.573 592.599 261.781 591.865 261.781 590.938C261.781 590.016 261.573 589.284 261.156 588.742C260.74 588.201 260.172 587.93 259.453 587.93ZM264.625 595V586.875H265.984V595H264.625ZM265.305 585.508C265.076 585.508 264.878 585.424 264.711 585.258C264.544 585.091 264.461 584.893 264.461 584.664C264.461 584.43 264.544 584.232 264.711 584.07C264.878 583.904 265.076 583.82 265.305 583.82C265.539 583.82 265.74 583.904 265.906 584.07C266.073 584.232 266.156 584.43 266.156 584.664C266.156 584.893 266.073 585.091 265.906 585.258C265.74 585.424 265.539 585.508 265.305 585.508ZM267.891 595V583.727H269.25V595H267.891ZM274.344 587.914C273.714 587.914 273.19 588.133 272.773 588.57C272.362 589.003 272.135 589.56 272.094 590.242H276.508C276.492 589.555 276.286 588.995 275.891 588.562C275.495 588.13 274.979 587.914 274.344 587.914ZM276.477 592.672H277.812C277.693 593.391 277.318 593.982 276.688 594.445C276.062 594.909 275.31 595.141 274.43 595.141C273.268 595.141 272.354 594.766 271.688 594.016C271.021 593.266 270.688 592.25 270.688 590.969C270.688 589.698 271.021 588.674 271.688 587.898C272.359 587.122 273.253 586.734 274.367 586.734C275.461 586.734 276.326 587.102 276.961 587.836C277.596 588.57 277.914 589.555 277.914 590.789V591.305H272.086V591.383C272.086 592.164 272.299 592.789 272.727 593.258C273.154 593.727 273.732 593.961 274.461 593.961C274.971 593.961 275.406 593.844 275.766 593.609C276.125 593.375 276.362 593.062 276.477 592.672Z" fill="#464255"/>
<path d="M245.203 675H243.891V666.312H243.836L240.242 674.922H239.055L235.461 666.312H235.406V675H234.094V663.727H235.727L239.617 673.133H239.68L243.57 663.727H245.203V675ZM250.438 667.914C249.807 667.914 249.284 668.133 248.867 668.57C248.456 669.003 248.229 669.56 248.188 670.242H252.602C252.586 669.555 252.38 668.995 251.984 668.562C251.589 668.13 251.073 667.914 250.438 667.914ZM252.57 672.672H253.906C253.786 673.391 253.411 673.982 252.781 674.445C252.156 674.909 251.404 675.141 250.523 675.141C249.362 675.141 248.448 674.766 247.781 674.016C247.115 673.266 246.781 672.25 246.781 670.969C246.781 669.698 247.115 668.674 247.781 667.898C248.453 667.122 249.346 666.734 250.461 666.734C251.555 666.734 252.419 667.102 253.055 667.836C253.69 668.57 254.008 669.555 254.008 670.789V671.305H248.18V671.383C248.18 672.164 248.393 672.789 248.82 673.258C249.247 673.727 249.826 673.961 250.555 673.961C251.065 673.961 251.5 673.844 251.859 673.609C252.219 673.375 252.456 673.062 252.57 672.672ZM255.242 669.117C255.242 668.419 255.523 667.849 256.086 667.406C256.654 666.958 257.383 666.734 258.273 666.734C259.112 666.734 259.81 666.958 260.367 667.406C260.924 667.854 261.219 668.422 261.25 669.109H259.953C259.906 668.714 259.729 668.404 259.422 668.18C259.12 667.956 258.721 667.844 258.227 667.844C257.732 667.844 257.333 667.956 257.031 668.18C256.729 668.398 256.578 668.688 256.578 669.047C256.578 669.599 257.029 669.99 257.93 670.219L259.188 670.523C260.005 670.732 260.581 671.003 260.914 671.336C261.253 671.664 261.422 672.128 261.422 672.727C261.422 673.435 261.12 674.016 260.516 674.469C259.911 674.917 259.135 675.141 258.188 675.141C257.302 675.141 256.57 674.922 255.992 674.484C255.419 674.042 255.096 673.458 255.023 672.734H256.383C256.534 673.599 257.164 674.031 258.273 674.031C258.82 674.031 259.253 673.924 259.57 673.711C259.893 673.492 260.055 673.198 260.055 672.828C260.055 672.536 259.958 672.305 259.766 672.133C259.578 671.961 259.258 671.815 258.805 671.695L257.375 671.328C255.953 670.964 255.242 670.227 255.242 669.117ZM262.695 669.117C262.695 668.419 262.977 667.849 263.539 667.406C264.107 666.958 264.836 666.734 265.727 666.734C266.565 666.734 267.263 666.958 267.82 667.406C268.378 667.854 268.672 668.422 268.703 669.109H267.406C267.359 668.714 267.182 668.404 266.875 668.18C266.573 667.956 266.174 667.844 265.68 667.844C265.185 667.844 264.786 667.956 264.484 668.18C264.182 668.398 264.031 668.688 264.031 669.047C264.031 669.599 264.482 669.99 265.383 670.219L266.641 670.523C267.458 670.732 268.034 671.003 268.367 671.336C268.706 671.664 268.875 672.128 268.875 672.727C268.875 673.435 268.573 674.016 267.969 674.469C267.365 674.917 266.589 675.141 265.641 675.141C264.755 675.141 264.023 674.922 263.445 674.484C262.872 674.042 262.549 673.458 262.477 672.734H263.836C263.987 673.599 264.617 674.031 265.727 674.031C266.273 674.031 266.706 673.924 267.023 673.711C267.346 673.492 267.508 673.198 267.508 672.828C267.508 672.536 267.411 672.305 267.219 672.133C267.031 671.961 266.711 671.815 266.258 671.695L264.828 671.328C263.406 670.964 262.695 670.227 262.695 669.117ZM272.969 673.984C273.609 673.984 274.146 673.786 274.578 673.391C275.016 672.99 275.234 672.497 275.234 671.914V671.25L273.062 671.383C272.516 671.419 272.091 671.552 271.789 671.781C271.492 672.01 271.344 672.318 271.344 672.703C271.344 673.089 271.492 673.398 271.789 673.633C272.086 673.867 272.479 673.984 272.969 673.984ZM272.664 675.141C271.857 675.141 271.203 674.917 270.703 674.469C270.208 674.021 269.961 673.432 269.961 672.703C269.961 672.005 270.216 671.448 270.727 671.031C271.242 670.615 271.969 670.38 272.906 670.328L275.234 670.195V669.516C275.234 669.021 275.078 668.633 274.766 668.352C274.453 668.07 274.016 667.93 273.453 667.93C272.938 667.93 272.518 668.044 272.195 668.273C271.872 668.497 271.667 668.812 271.578 669.219H270.266C270.312 668.495 270.625 667.901 271.203 667.438C271.786 666.969 272.547 666.734 273.484 666.734C274.438 666.734 275.193 666.974 275.75 667.453C276.312 667.932 276.594 668.576 276.594 669.383V675H275.305V673.602H275.273C275.029 674.065 274.669 674.438 274.195 674.719C273.721 675 273.211 675.141 272.664 675.141ZM281.625 673.867C282.333 673.867 282.904 673.596 283.336 673.055C283.768 672.513 283.984 671.797 283.984 670.906C283.984 670.01 283.768 669.292 283.336 668.75C282.904 668.203 282.333 667.93 281.625 667.93C280.922 667.93 280.359 668.201 279.938 668.742C279.521 669.279 279.312 670 279.312 670.906C279.312 671.812 279.521 672.534 279.938 673.07C280.359 673.602 280.922 673.867 281.625 673.867ZM281.672 678.062C280.781 678.062 280.016 677.836 279.375 677.383C278.734 676.935 278.357 676.365 278.242 675.672H279.641C279.776 676.047 280.031 676.346 280.406 676.57C280.781 676.794 281.221 676.906 281.727 676.906C282.424 676.906 282.974 676.721 283.375 676.352C283.781 675.982 283.984 675.492 283.984 674.883V673.602H283.953C283.698 674.049 283.341 674.406 282.883 674.672C282.424 674.932 281.914 675.062 281.352 675.062C280.315 675.062 279.484 674.685 278.859 673.93C278.234 673.174 277.922 672.167 277.922 670.906C277.922 669.635 278.234 668.622 278.859 667.867C279.49 667.112 280.331 666.734 281.383 666.734C281.956 666.734 282.471 666.867 282.93 667.133C283.388 667.398 283.753 667.768 284.023 668.242H284.047V666.875H285.344V674.836C285.344 675.81 285.01 676.591 284.344 677.18C283.677 677.768 282.786 678.062 281.672 678.062ZM290.375 667.914C289.745 667.914 289.221 668.133 288.805 668.57C288.393 669.003 288.167 669.56 288.125 670.242H292.539C292.523 669.555 292.318 668.995 291.922 668.562C291.526 668.13 291.01 667.914 290.375 667.914ZM292.508 672.672H293.844C293.724 673.391 293.349 673.982 292.719 674.445C292.094 674.909 291.341 675.141 290.461 675.141C289.299 675.141 288.385 674.766 287.719 674.016C287.052 673.266 286.719 672.25 286.719 670.969C286.719 669.698 287.052 668.674 287.719 667.898C288.391 667.122 289.284 666.734 290.398 666.734C291.492 666.734 292.357 667.102 292.992 667.836C293.628 668.57 293.945 669.555 293.945 670.789V671.305H288.117V671.383C288.117 672.164 288.331 672.789 288.758 673.258C289.185 673.727 289.763 673.961 290.492 673.961C291.003 673.961 291.438 673.844 291.797 673.609C292.156 673.375 292.393 673.062 292.508 672.672Z" fill="#464255"/>
<path d="M137.789 195V185.219H137.758L134.773 187.367V185.883L137.773 183.727H139.148V195H137.789Z" fill="#464255"/>
<path d="M134.844 266.977C134.844 265.992 135.198 265.174 135.906 264.523C136.615 263.867 137.5 263.539 138.562 263.539C139.568 263.539 140.419 263.839 141.117 264.438C141.815 265.036 142.164 265.768 142.164 266.633C142.164 267.258 141.992 267.859 141.648 268.438C141.305 269.016 140.659 269.794 139.711 270.773L136.859 273.719V273.75H142.352V275H134.914V274.031L138.883 269.852C139.638 269.055 140.138 268.451 140.383 268.039C140.633 267.628 140.758 267.188 140.758 266.719C140.758 266.177 140.539 265.716 140.102 265.336C139.669 264.956 139.143 264.766 138.523 264.766C137.862 264.766 137.31 264.977 136.867 265.398C136.424 265.82 136.203 266.346 136.203 266.977V266.984H134.844V266.977Z" fill="#464255"/>
<path d="M137.211 349.797V348.609H138.562C139.208 348.609 139.737 348.424 140.148 348.055C140.56 347.68 140.766 347.206 140.766 346.633C140.766 346.06 140.576 345.604 140.195 345.266C139.815 344.927 139.276 344.758 138.578 344.758C137.932 344.758 137.406 344.93 137 345.273C136.594 345.617 136.359 346.086 136.297 346.68H134.945C135.023 345.721 135.393 344.958 136.055 344.391C136.721 343.823 137.583 343.539 138.641 343.539C139.656 343.539 140.5 343.812 141.172 344.359C141.844 344.906 142.18 345.602 142.18 346.445C142.18 347.148 141.971 347.74 141.555 348.219C141.138 348.698 140.576 349 139.867 349.125V349.156C140.721 349.208 141.401 349.482 141.906 349.977C142.411 350.466 142.664 351.107 142.664 351.898C142.664 352.529 142.487 353.096 142.133 353.602C141.779 354.107 141.299 354.497 140.695 354.773C140.091 355.049 139.422 355.188 138.688 355.188C137.521 355.188 136.581 354.896 135.867 354.312C135.154 353.729 134.771 352.964 134.719 352.016H136.07C136.133 352.604 136.396 353.078 136.859 353.438C137.323 353.792 137.927 353.969 138.672 353.969C139.417 353.969 140.029 353.779 140.508 353.398C140.992 353.018 141.234 352.534 141.234 351.945C141.234 351.284 141 350.76 140.531 350.375C140.068 349.99 139.432 349.797 138.625 349.797H137.211Z" fill="#464255"/>
<path d="M140.273 435V432.656H134.609V431.383C135.094 430.482 135.708 429.453 136.453 428.297C137.203 427.141 138.237 425.617 139.555 423.727H141.633V431.422H143.227V432.656H141.633V435H140.273ZM136 431.391V431.422H140.273V424.898H140.25C138.276 427.716 136.859 429.88 136 431.391Z" fill="#464255"/>
<path d="M138.789 515.188C137.711 515.188 136.81 514.883 136.086 514.273C135.367 513.664 134.979 512.88 134.922 511.922H136.305C136.367 512.521 136.63 513.01 137.094 513.391C137.557 513.766 138.128 513.953 138.805 513.953C139.57 513.953 140.193 513.714 140.672 513.234C141.156 512.755 141.398 512.135 141.398 511.375C141.398 510.615 141.156 509.992 140.672 509.508C140.193 509.018 139.578 508.773 138.828 508.773C138.302 508.773 137.826 508.885 137.398 509.109C136.971 509.333 136.643 509.643 136.414 510.039H135.094L135.711 503.727H142.164V504.977H136.867L136.523 508.648H136.555C136.81 508.31 137.159 508.044 137.602 507.852C138.049 507.659 138.542 507.562 139.078 507.562C140.161 507.562 141.052 507.919 141.75 508.633C142.453 509.341 142.805 510.242 142.805 511.336C142.805 512.466 142.43 513.391 141.68 514.109C140.93 514.828 139.966 515.188 138.789 515.188Z" fill="#464255"/>
<path d="M138.992 595.195C138.148 595.195 137.404 594.977 136.758 594.539C136.112 594.096 135.615 593.469 135.266 592.656C134.896 591.802 134.711 590.768 134.711 589.555C134.711 587.654 135.094 586.174 135.859 585.117C136.63 584.06 137.706 583.531 139.086 583.531C140.044 583.531 140.862 583.797 141.539 584.328C142.216 584.859 142.646 585.568 142.828 586.453H141.398C141.247 585.943 140.961 585.536 140.539 585.234C140.117 584.927 139.628 584.773 139.07 584.773C138.128 584.773 137.398 585.177 136.883 585.984C136.367 586.792 136.096 587.945 136.07 589.445H136.094C136.349 588.893 136.763 588.451 137.336 588.117C137.909 587.784 138.544 587.617 139.242 587.617C140.315 587.617 141.206 587.971 141.914 588.68C142.628 589.388 142.984 590.276 142.984 591.344C142.984 592.458 142.607 593.38 141.852 594.109C141.102 594.833 140.148 595.195 138.992 595.195ZM137.148 593.195C137.648 593.695 138.258 593.945 138.977 593.945C139.695 593.945 140.305 593.698 140.805 593.203C141.305 592.708 141.555 592.104 141.555 591.391C141.555 590.651 141.315 590.044 140.836 589.57C140.357 589.091 139.745 588.852 139 588.852C138.255 588.852 137.635 589.089 137.141 589.562C136.651 590.036 136.406 590.633 136.406 591.352C136.406 592.076 136.654 592.69 137.148 593.195Z" fill="#464255"/>
<path d="M135.562 675L140.664 665.008V664.977H134.594V663.727H142.055V665.031L137.039 675H135.562Z" fill="#464255"/>
</g>
<defs>
<filter id="filter0_d" x="0" y="0" width="732" height="836" filterUnits="userSpaceOnUse" color-interpolation-filters="sRGB">
<feFlood flood-opacity="0" result="BackgroundImageFix"/>
<feColorMatrix in="SourceAlpha" type="matrix" values="0 0 0 0 0 0 0 0 0 0 0 0 0 0 0 0 0 0 127 0" result="hardAlpha"/>
<feOffset dy="16"/>
<feGaussianBlur stdDeviation="39"/>
<feComposite in2="hardAlpha" operator="out"/>
<feColorMatrix type="matrix" values="0 0 0 0 0 0 0 0 0 0 0 0 0 0 0 0 0 0 0.15 0"/>
<feBlend mode="normal" in2="BackgroundImageFix" result="effect1_dropShadow"/>
<feBlend mode="normal" in="SourceGraphic" in2="effect1_dropShadow" result="shape"/>
</filter>
</defs>
</svg>
