<svg width="1076" height="677" viewBox="0 0 1076 677" fill="none" xmlns="http://www.w3.org/2000/svg">
<g filter="url(#filter0_d)">
<path d="M80 80C80 71.1634 87.1634 64 96 64H980C988.837 64 996 71.1634 996 80V565C996 573.837 988.837 581 980 581H96C87.1635 581 80 573.837 80 565V80Z" fill="white" stroke="#58D7FF" stroke-width="4"/>
<rect x="112" y="214" width="849" height="1" fill="#D7D9E5"/>
<rect x="112" y="314" width="849" height="1" fill="#D7D9E5"/>
<rect x="117" y="502" width="93" height="38" rx="6" fill="#3546AB"/>
<rect x="220" y="502" width="93" height="38" rx="6" fill="#D7D9E6"/>
<path d="M164.798 523.172C164.798 519.728 159.786 520.82 159.786 518.86C159.786 518.062 160.36 517.684 161.13 517.712C161.97 517.726 162.488 518.23 162.53 518.874H164.686C164.56 517.11 163.188 516.088 161.186 516.088C159.17 516.088 157.742 517.152 157.742 518.916C157.728 522.458 162.768 521.184 162.768 523.298C162.768 523.998 162.222 524.488 161.298 524.488C160.388 524.488 159.87 523.97 159.814 523.186H157.714C157.742 525.034 159.31 526.098 161.34 526.098C163.566 526.098 164.798 524.712 164.798 523.172ZM165.993 522.094C165.993 524.516 167.561 526.126 169.521 526.126C170.753 526.126 171.635 525.538 172.097 524.866V526H174.071V518.244H172.097V519.35C171.635 518.706 170.781 518.118 169.535 518.118C167.561 518.118 165.993 519.672 165.993 522.094ZM172.097 522.122C172.097 523.592 171.117 524.404 170.039 524.404C168.989 524.404 167.995 523.564 167.995 522.094C167.995 520.624 168.989 519.84 170.039 519.84C171.117 519.84 172.097 520.652 172.097 522.122ZM175.16 518.244L178.016 526H180.396L183.266 518.244H181.18L179.22 524.194L177.26 518.244H175.16ZM187.698 519.728C188.706 519.728 189.518 520.372 189.546 521.394H185.864C186.018 520.33 186.76 519.728 187.698 519.728ZM191.38 523.564H189.266C189.014 524.082 188.552 524.502 187.712 524.502C186.732 524.502 185.948 523.858 185.85 522.71H191.52C191.562 522.458 191.576 522.206 191.576 521.954C191.576 519.644 189.994 518.118 187.754 518.118C185.458 518.118 183.862 519.672 183.862 522.122C183.862 524.558 185.5 526.126 187.754 526.126C189.672 526.126 190.96 524.992 191.38 523.564Z" fill="white"/>
<path d="M247.57 521.1C247.57 524.026 249.712 526.084 252.526 526.084C254.696 526.084 256.46 524.936 257.118 522.92H254.864C254.402 523.872 253.562 524.334 252.512 524.334C250.804 524.334 249.586 523.074 249.586 521.1C249.586 519.112 250.804 517.866 252.512 517.866C253.562 517.866 254.402 518.328 254.864 519.266H257.118C256.46 517.264 254.696 516.102 252.526 516.102C249.712 516.102 247.57 518.174 247.57 521.1ZM258.792 526H260.752V515.64H258.792V526ZM270.179 522.122C270.179 519.672 268.429 518.118 266.189 518.118C263.949 518.118 262.199 519.672 262.199 522.122C262.199 524.558 263.893 526.126 266.133 526.126C268.387 526.126 270.179 524.558 270.179 522.122ZM264.187 522.122C264.187 520.568 265.125 519.826 266.161 519.826C267.197 519.826 268.163 520.568 268.163 522.122C268.163 523.662 267.169 524.418 266.133 524.418C265.083 524.418 264.187 523.662 264.187 522.122ZM277.636 523.788C277.58 520.946 273.282 521.828 273.282 520.414C273.282 519.966 273.66 519.672 274.388 519.672C275.158 519.672 275.634 520.078 275.69 520.68H277.566C277.454 519.14 276.32 518.118 274.444 518.118C272.526 518.118 271.378 519.154 271.378 520.442C271.378 523.284 275.76 522.402 275.76 523.788C275.76 524.236 275.34 524.586 274.57 524.586C273.786 524.586 273.24 524.138 273.17 523.55H271.196C271.28 524.992 272.638 526.126 274.584 526.126C276.474 526.126 277.636 525.118 277.636 523.788ZM282.577 519.728C283.585 519.728 284.397 520.372 284.425 521.394H280.743C280.897 520.33 281.639 519.728 282.577 519.728ZM286.259 523.564H284.145C283.893 524.082 283.431 524.502 282.591 524.502C281.611 524.502 280.827 523.858 280.729 522.71H286.399C286.441 522.458 286.455 522.206 286.455 521.954C286.455 519.644 284.873 518.118 282.633 518.118C280.337 518.118 278.741 519.672 278.741 522.122C278.741 524.558 280.379 526.126 282.633 526.126C284.551 526.126 285.839 524.992 286.259 523.564Z" fill="#464255"/>
<path d="M146.608 515.511C146.336 515.207 145.957 515.024 145.552 515.002C145.147 514.981 144.751 515.123 144.45 515.397L137.244 524.325L134.628 521.635C134.487 521.487 134.318 521.369 134.132 521.288C133.945 521.207 133.745 521.165 133.542 521.163C133.339 521.161 133.137 521.2 132.95 521.278C132.762 521.355 132.591 521.47 132.448 521.615C132.304 521.76 132.191 521.933 132.114 522.123C132.037 522.313 131.998 522.516 132 522.722C132.002 522.927 132.044 523.13 132.124 523.318C132.204 523.507 132.321 523.677 132.467 523.82L136.108 527.548C136.385 527.827 136.757 527.989 137.149 527.999C137.54 528.01 137.92 527.868 138.211 527.603L146.495 517.693C146.796 517.419 146.977 517.035 146.998 516.626C147.019 516.217 146.879 515.816 146.608 515.511Z" fill="white"/>
<rect x="118.5" y="411.5" width="595" height="59" rx="17.5" fill="#F9FBFD" fill-opacity="0.3" stroke="#D7D9E6"/>
<path d="M142.867 197L143.508 193.852H140.945L140.305 197H139.195L139.828 193.852H138L138.219 192.727H140.07L140.641 189.883H138.711L138.938 188.766H140.867L141.5 185.727H142.609L142 188.766H144.547L145.18 185.727H146.297L145.672 188.766H147.617L147.398 189.883H145.438L144.852 192.727H146.891L146.672 193.852H144.625L143.984 197H142.867ZM141.164 192.75H143.742L144.328 189.867H141.75L141.164 192.75Z" fill="#464255"/>
<path d="M424.734 197.188C423.177 197.188 421.94 196.664 421.023 195.617C420.112 194.565 419.656 193.146 419.656 191.359C419.656 189.589 420.117 188.177 421.039 187.125C421.961 186.068 423.193 185.539 424.734 185.539C425.964 185.539 427.005 185.883 427.859 186.57C428.719 187.253 429.237 188.156 429.414 189.281H427.992C427.81 188.542 427.422 187.951 426.828 187.508C426.234 187.06 425.536 186.836 424.734 186.836C423.635 186.836 422.755 187.247 422.094 188.07C421.432 188.893 421.102 189.99 421.102 191.359C421.102 192.745 421.43 193.846 422.086 194.664C422.742 195.482 423.628 195.891 424.742 195.891C425.57 195.891 426.268 195.701 426.836 195.32C427.404 194.94 427.789 194.406 427.992 193.719H429.414C429.154 194.833 428.62 195.69 427.812 196.289C427.005 196.888 425.979 197.188 424.734 197.188ZM433.547 195.984C434.188 195.984 434.724 195.786 435.156 195.391C435.594 194.99 435.812 194.497 435.812 193.914V193.25L433.641 193.383C433.094 193.419 432.669 193.552 432.367 193.781C432.07 194.01 431.922 194.318 431.922 194.703C431.922 195.089 432.07 195.398 432.367 195.633C432.664 195.867 433.057 195.984 433.547 195.984ZM433.242 197.141C432.435 197.141 431.781 196.917 431.281 196.469C430.786 196.021 430.539 195.432 430.539 194.703C430.539 194.005 430.794 193.448 431.305 193.031C431.82 192.615 432.547 192.38 433.484 192.328L435.812 192.195V191.516C435.812 191.021 435.656 190.633 435.344 190.352C435.031 190.07 434.594 189.93 434.031 189.93C433.516 189.93 433.096 190.044 432.773 190.273C432.451 190.497 432.245 190.812 432.156 191.219H430.844C430.891 190.495 431.203 189.901 431.781 189.438C432.365 188.969 433.125 188.734 434.062 188.734C435.016 188.734 435.771 188.974 436.328 189.453C436.891 189.932 437.172 190.576 437.172 191.383V197H435.883V195.602H435.852C435.607 196.065 435.247 196.438 434.773 196.719C434.299 197 433.789 197.141 433.242 197.141ZM439.336 186.914H440.695V188.875H442.273V189.992H440.695V194.82C440.695 195.19 440.776 195.464 440.938 195.641C441.099 195.812 441.354 195.898 441.703 195.898C441.922 195.898 442.109 195.885 442.266 195.859V197C442.089 197.042 441.802 197.062 441.406 197.062C440.661 197.062 440.13 196.896 439.812 196.562C439.495 196.229 439.336 195.672 439.336 194.891V189.992H438.125V188.875H439.336V186.914ZM446.75 189.914C446.12 189.914 445.596 190.133 445.18 190.57C444.768 191.003 444.542 191.56 444.5 192.242H448.914C448.898 191.555 448.693 190.995 448.297 190.562C447.901 190.13 447.385 189.914 446.75 189.914ZM448.883 194.672H450.219C450.099 195.391 449.724 195.982 449.094 196.445C448.469 196.909 447.716 197.141 446.836 197.141C445.674 197.141 444.76 196.766 444.094 196.016C443.427 195.266 443.094 194.25 443.094 192.969C443.094 191.698 443.427 190.674 444.094 189.898C444.766 189.122 445.659 188.734 446.773 188.734C447.867 188.734 448.732 189.102 449.367 189.836C450.003 190.57 450.32 191.555 450.32 192.789V193.305H444.492V193.383C444.492 194.164 444.706 194.789 445.133 195.258C445.56 195.727 446.138 195.961 446.867 195.961C447.378 195.961 447.812 195.844 448.172 195.609C448.531 195.375 448.768 195.062 448.883 194.672ZM455 195.867C455.708 195.867 456.279 195.596 456.711 195.055C457.143 194.513 457.359 193.797 457.359 192.906C457.359 192.01 457.143 191.292 456.711 190.75C456.279 190.203 455.708 189.93 455 189.93C454.297 189.93 453.734 190.201 453.312 190.742C452.896 191.279 452.688 192 452.688 192.906C452.688 193.812 452.896 194.534 453.312 195.07C453.734 195.602 454.297 195.867 455 195.867ZM455.047 200.062C454.156 200.062 453.391 199.836 452.75 199.383C452.109 198.935 451.732 198.365 451.617 197.672H453.016C453.151 198.047 453.406 198.346 453.781 198.57C454.156 198.794 454.596 198.906 455.102 198.906C455.799 198.906 456.349 198.721 456.75 198.352C457.156 197.982 457.359 197.492 457.359 196.883V195.602H457.328C457.073 196.049 456.716 196.406 456.258 196.672C455.799 196.932 455.289 197.062 454.727 197.062C453.69 197.062 452.859 196.685 452.234 195.93C451.609 195.174 451.297 194.167 451.297 192.906C451.297 191.635 451.609 190.622 452.234 189.867C452.865 189.112 453.706 188.734 454.758 188.734C455.331 188.734 455.846 188.867 456.305 189.133C456.763 189.398 457.128 189.768 457.398 190.242H457.422V188.875H458.719V196.836C458.719 197.81 458.385 198.591 457.719 199.18C457.052 199.768 456.161 200.062 455.047 200.062ZM463.859 197.141C462.724 197.141 461.812 196.763 461.125 196.008C460.438 195.247 460.094 194.224 460.094 192.938C460.094 191.651 460.438 190.63 461.125 189.875C461.812 189.115 462.724 188.734 463.859 188.734C464.99 188.734 465.898 189.115 466.586 189.875C467.273 190.63 467.617 191.651 467.617 192.938C467.617 194.219 467.273 195.24 466.586 196C465.898 196.76 464.99 197.141 463.859 197.141ZM462.117 195.148C462.549 195.68 463.13 195.945 463.859 195.945C464.589 195.945 465.167 195.682 465.594 195.156C466.021 194.625 466.234 193.885 466.234 192.938C466.234 191.99 466.021 191.253 465.594 190.727C465.167 190.195 464.589 189.93 463.859 189.93C463.13 189.93 462.549 190.195 462.117 190.727C461.69 191.258 461.477 191.995 461.477 192.938C461.477 193.88 461.69 194.617 462.117 195.148ZM468.992 197V188.875H470.273V190.203H470.305C470.44 189.75 470.682 189.393 471.031 189.133C471.385 188.867 471.799 188.734 472.273 188.734C472.383 188.734 472.565 188.753 472.82 188.789V190.109C472.674 190.057 472.432 190.031 472.094 190.031C471.568 190.031 471.146 190.206 470.828 190.555C470.51 190.904 470.352 191.365 470.352 191.938V197H468.992ZM474.602 200.039C474.362 200.039 474.167 200.023 474.016 199.992V198.852C474.141 198.878 474.318 198.891 474.547 198.891C474.927 198.891 475.232 198.789 475.461 198.586C475.69 198.388 475.883 198.052 476.039 197.578L476.227 197.008L473.227 188.875H474.68L476.93 195.641H476.953L479.203 188.875H480.633L477.438 197.57C477.089 198.518 476.711 199.167 476.305 199.516C475.904 199.865 475.336 200.039 474.602 200.039Z" fill="#464255"/>
<path d="M780.422 197L779.289 193.773H774.805L773.672 197H772.195L776.352 185.727H777.742L781.898 197H780.422ZM777.023 187.438L775.219 192.578H778.875L777.07 187.438H777.023ZM789.57 191.539H788.242C788.138 191.07 787.906 190.685 787.547 190.383C787.193 190.081 786.732 189.93 786.164 189.93C785.456 189.93 784.885 190.203 784.453 190.75C784.021 191.292 783.805 192.021 783.805 192.938C783.805 193.87 784.021 194.604 784.453 195.141C784.891 195.677 785.466 195.945 786.18 195.945C786.727 195.945 787.177 195.81 787.531 195.539C787.891 195.263 788.13 194.878 788.25 194.383H789.586C789.482 195.195 789.115 195.859 788.484 196.375C787.859 196.885 787.089 197.141 786.172 197.141C785.036 197.141 784.128 196.766 783.445 196.016C782.763 195.26 782.422 194.234 782.422 192.938C782.422 191.661 782.763 190.643 783.445 189.883C784.128 189.117 785.031 188.734 786.156 188.734C787.125 188.734 787.911 189.008 788.516 189.555C789.125 190.102 789.477 190.763 789.57 191.539ZM791.273 186.914H792.633V188.875H794.211V189.992H792.633V194.82C792.633 195.19 792.714 195.464 792.875 195.641C793.036 195.812 793.292 195.898 793.641 195.898C793.859 195.898 794.047 195.885 794.203 195.859V197C794.026 197.042 793.74 197.062 793.344 197.062C792.599 197.062 792.068 196.896 791.75 196.562C791.432 196.229 791.273 195.672 791.273 194.891V189.992H790.062V188.875H791.273V186.914ZM795.734 197V188.875H797.094V197H795.734ZM796.414 187.508C796.185 187.508 795.987 187.424 795.82 187.258C795.654 187.091 795.57 186.893 795.57 186.664C795.57 186.43 795.654 186.232 795.82 186.07C795.987 185.904 796.185 185.82 796.414 185.82C796.648 185.82 796.849 185.904 797.016 186.07C797.182 186.232 797.266 186.43 797.266 186.664C797.266 186.893 797.182 187.091 797.016 187.258C796.849 187.424 796.648 187.508 796.414 187.508ZM802.297 197.141C801.161 197.141 800.25 196.763 799.562 196.008C798.875 195.247 798.531 194.224 798.531 192.938C798.531 191.651 798.875 190.63 799.562 189.875C800.25 189.115 801.161 188.734 802.297 188.734C803.427 188.734 804.336 189.115 805.023 189.875C805.711 190.63 806.055 191.651 806.055 192.938C806.055 194.219 805.711 195.24 805.023 196C804.336 196.76 803.427 197.141 802.297 197.141ZM800.555 195.148C800.987 195.68 801.568 195.945 802.297 195.945C803.026 195.945 803.604 195.682 804.031 195.156C804.458 194.625 804.672 193.885 804.672 192.938C804.672 191.99 804.458 191.253 804.031 190.727C803.604 190.195 803.026 189.93 802.297 189.93C801.568 189.93 800.987 190.195 800.555 190.727C800.128 191.258 799.914 191.995 799.914 192.938C799.914 193.88 800.128 194.617 800.555 195.148ZM807.43 197V188.875H808.711V190.172H808.742C808.977 189.719 809.312 189.367 809.75 189.117C810.188 188.862 810.711 188.734 811.32 188.734C812.206 188.734 812.896 189.003 813.391 189.539C813.885 190.07 814.133 190.799 814.133 191.727V197H812.773V191.969C812.773 191.307 812.617 190.805 812.305 190.461C811.992 190.112 811.526 189.938 810.906 189.938C810.266 189.938 809.753 190.146 809.367 190.562C808.982 190.979 808.789 191.531 808.789 192.219V197H807.43Z" fill="#464255"/>
<path d="M126.422 400L125.289 396.773H120.805L119.672 400H118.195L122.352 388.727H123.742L127.898 400H126.422ZM123.023 390.438L121.219 395.578H124.875L123.07 390.438H123.023ZM131.898 400.141C130.857 400.141 130.016 399.758 129.375 398.992C128.74 398.227 128.422 397.208 128.422 395.938C128.422 394.672 128.74 393.656 129.375 392.891C130.01 392.12 130.841 391.734 131.867 391.734C132.44 391.734 132.953 391.865 133.406 392.125C133.859 392.385 134.208 392.742 134.453 393.195H134.484V388.727H135.844V400H134.547V398.625H134.523C134.258 399.099 133.898 399.471 133.445 399.742C132.992 400.008 132.477 400.141 131.898 400.141ZM132.156 392.93C131.438 392.93 130.867 393.203 130.445 393.75C130.023 394.292 129.812 395.021 129.812 395.938C129.812 396.859 130.023 397.591 130.445 398.133C130.867 398.674 131.438 398.945 132.156 398.945C132.859 398.945 133.424 398.672 133.852 398.125C134.279 397.573 134.492 396.844 134.492 395.938C134.492 395.031 134.276 394.305 133.844 393.758C133.417 393.206 132.854 392.93 132.156 392.93ZM140.758 400.141C139.716 400.141 138.875 399.758 138.234 398.992C137.599 398.227 137.281 397.208 137.281 395.938C137.281 394.672 137.599 393.656 138.234 392.891C138.87 392.12 139.701 391.734 140.727 391.734C141.299 391.734 141.812 391.865 142.266 392.125C142.719 392.385 143.068 392.742 143.312 393.195H143.344V388.727H144.703V400H143.406V398.625H143.383C143.117 399.099 142.758 399.471 142.305 399.742C141.852 400.008 141.336 400.141 140.758 400.141ZM141.016 392.93C140.297 392.93 139.727 393.203 139.305 393.75C138.883 394.292 138.672 395.021 138.672 395.938C138.672 396.859 138.883 397.591 139.305 398.133C139.727 398.674 140.297 398.945 141.016 398.945C141.719 398.945 142.284 398.672 142.711 398.125C143.138 397.573 143.352 396.844 143.352 395.938C143.352 395.031 143.135 394.305 142.703 393.758C142.276 393.206 141.714 392.93 141.016 392.93ZM154.672 400.188C153.115 400.188 151.878 399.664 150.961 398.617C150.049 397.565 149.594 396.146 149.594 394.359C149.594 392.589 150.055 391.177 150.977 390.125C151.898 389.068 153.13 388.539 154.672 388.539C155.901 388.539 156.943 388.883 157.797 389.57C158.656 390.253 159.174 391.156 159.352 392.281H157.93C157.747 391.542 157.359 390.951 156.766 390.508C156.172 390.06 155.474 389.836 154.672 389.836C153.573 389.836 152.693 390.247 152.031 391.07C151.37 391.893 151.039 392.99 151.039 394.359C151.039 395.745 151.367 396.846 152.023 397.664C152.68 398.482 153.565 398.891 154.68 398.891C155.508 398.891 156.206 398.701 156.773 398.32C157.341 397.94 157.727 397.406 157.93 396.719H159.352C159.091 397.833 158.557 398.69 157.75 399.289C156.943 399.888 155.917 400.188 154.672 400.188ZM163.484 398.984C164.125 398.984 164.661 398.786 165.094 398.391C165.531 397.99 165.75 397.497 165.75 396.914V396.25L163.578 396.383C163.031 396.419 162.607 396.552 162.305 396.781C162.008 397.01 161.859 397.318 161.859 397.703C161.859 398.089 162.008 398.398 162.305 398.633C162.602 398.867 162.995 398.984 163.484 398.984ZM163.18 400.141C162.372 400.141 161.719 399.917 161.219 399.469C160.724 399.021 160.477 398.432 160.477 397.703C160.477 397.005 160.732 396.448 161.242 396.031C161.758 395.615 162.484 395.38 163.422 395.328L165.75 395.195V394.516C165.75 394.021 165.594 393.633 165.281 393.352C164.969 393.07 164.531 392.93 163.969 392.93C163.453 392.93 163.034 393.044 162.711 393.273C162.388 393.497 162.182 393.812 162.094 394.219H160.781C160.828 393.495 161.141 392.901 161.719 392.438C162.302 391.969 163.062 391.734 164 391.734C164.953 391.734 165.708 391.974 166.266 392.453C166.828 392.932 167.109 393.576 167.109 394.383V400H165.82V398.602H165.789C165.544 399.065 165.185 399.438 164.711 399.719C164.237 400 163.727 400.141 163.18 400.141ZM169.273 389.914H170.633V391.875H172.211V392.992H170.633V397.82C170.633 398.19 170.714 398.464 170.875 398.641C171.036 398.812 171.292 398.898 171.641 398.898C171.859 398.898 172.047 398.885 172.203 398.859V400C172.026 400.042 171.74 400.062 171.344 400.062C170.599 400.062 170.068 399.896 169.75 399.562C169.432 399.229 169.273 398.672 169.273 397.891V392.992H168.062V391.875H169.273V389.914ZM176.688 392.914C176.057 392.914 175.534 393.133 175.117 393.57C174.706 394.003 174.479 394.56 174.438 395.242H178.852C178.836 394.555 178.63 393.995 178.234 393.562C177.839 393.13 177.323 392.914 176.688 392.914ZM178.82 397.672H180.156C180.036 398.391 179.661 398.982 179.031 399.445C178.406 399.909 177.654 400.141 176.773 400.141C175.612 400.141 174.698 399.766 174.031 399.016C173.365 398.266 173.031 397.25 173.031 395.969C173.031 394.698 173.365 393.674 174.031 392.898C174.703 392.122 175.596 391.734 176.711 391.734C177.805 391.734 178.669 392.102 179.305 392.836C179.94 393.57 180.258 394.555 180.258 395.789V396.305H174.43V396.383C174.43 397.164 174.643 397.789 175.07 398.258C175.497 398.727 176.076 398.961 176.805 398.961C177.315 398.961 177.75 398.844 178.109 398.609C178.469 398.375 178.706 398.062 178.82 397.672ZM184.938 398.867C185.646 398.867 186.216 398.596 186.648 398.055C187.081 397.513 187.297 396.797 187.297 395.906C187.297 395.01 187.081 394.292 186.648 393.75C186.216 393.203 185.646 392.93 184.938 392.93C184.234 392.93 183.672 393.201 183.25 393.742C182.833 394.279 182.625 395 182.625 395.906C182.625 396.812 182.833 397.534 183.25 398.07C183.672 398.602 184.234 398.867 184.938 398.867ZM184.984 403.062C184.094 403.062 183.328 402.836 182.688 402.383C182.047 401.935 181.669 401.365 181.555 400.672H182.953C183.089 401.047 183.344 401.346 183.719 401.57C184.094 401.794 184.534 401.906 185.039 401.906C185.737 401.906 186.286 401.721 186.688 401.352C187.094 400.982 187.297 400.492 187.297 399.883V398.602H187.266C187.01 399.049 186.654 399.406 186.195 399.672C185.737 399.932 185.227 400.062 184.664 400.062C183.628 400.062 182.797 399.685 182.172 398.93C181.547 398.174 181.234 397.167 181.234 395.906C181.234 394.635 181.547 393.622 182.172 392.867C182.802 392.112 183.643 391.734 184.695 391.734C185.268 391.734 185.784 391.867 186.242 392.133C186.701 392.398 187.065 392.768 187.336 393.242H187.359V391.875H188.656V399.836C188.656 400.81 188.323 401.591 187.656 402.18C186.99 402.768 186.099 403.062 184.984 403.062ZM193.797 400.141C192.661 400.141 191.75 399.763 191.062 399.008C190.375 398.247 190.031 397.224 190.031 395.938C190.031 394.651 190.375 393.63 191.062 392.875C191.75 392.115 192.661 391.734 193.797 391.734C194.927 391.734 195.836 392.115 196.523 392.875C197.211 393.63 197.555 394.651 197.555 395.938C197.555 397.219 197.211 398.24 196.523 399C195.836 399.76 194.927 400.141 193.797 400.141ZM192.055 398.148C192.487 398.68 193.068 398.945 193.797 398.945C194.526 398.945 195.104 398.682 195.531 398.156C195.958 397.625 196.172 396.885 196.172 395.938C196.172 394.99 195.958 394.253 195.531 393.727C195.104 393.195 194.526 392.93 193.797 392.93C193.068 392.93 192.487 393.195 192.055 393.727C191.628 394.258 191.414 394.995 191.414 395.938C191.414 396.88 191.628 397.617 192.055 398.148ZM198.93 400V391.875H200.211V393.203H200.242C200.378 392.75 200.62 392.393 200.969 392.133C201.323 391.867 201.737 391.734 202.211 391.734C202.32 391.734 202.503 391.753 202.758 391.789V393.109C202.612 393.057 202.37 393.031 202.031 393.031C201.505 393.031 201.083 393.206 200.766 393.555C200.448 393.904 200.289 394.365 200.289 394.938V400H198.93ZM204.539 403.039C204.299 403.039 204.104 403.023 203.953 402.992V401.852C204.078 401.878 204.255 401.891 204.484 401.891C204.865 401.891 205.169 401.789 205.398 401.586C205.628 401.388 205.82 401.052 205.977 400.578L206.164 400.008L203.164 391.875H204.617L206.867 398.641H206.891L209.141 391.875H210.57L207.375 400.57C207.026 401.518 206.648 402.167 206.242 402.516C205.841 402.865 205.273 403.039 204.539 403.039ZM216.531 400H215.141V388.727H216.508L222.68 397.578H222.75V388.727H224.141V400H222.773L216.602 391.18H216.531V400ZM228.562 398.984C229.203 398.984 229.74 398.786 230.172 398.391C230.609 397.99 230.828 397.497 230.828 396.914V396.25L228.656 396.383C228.109 396.419 227.685 396.552 227.383 396.781C227.086 397.01 226.938 397.318 226.938 397.703C226.938 398.089 227.086 398.398 227.383 398.633C227.68 398.867 228.073 398.984 228.562 398.984ZM228.258 400.141C227.451 400.141 226.797 399.917 226.297 399.469C225.802 399.021 225.555 398.432 225.555 397.703C225.555 397.005 225.81 396.448 226.32 396.031C226.836 395.615 227.562 395.38 228.5 395.328L230.828 395.195V394.516C230.828 394.021 230.672 393.633 230.359 393.352C230.047 393.07 229.609 392.93 229.047 392.93C228.531 392.93 228.112 393.044 227.789 393.273C227.466 393.497 227.26 393.812 227.172 394.219H225.859C225.906 393.495 226.219 392.901 226.797 392.438C227.38 391.969 228.141 391.734 229.078 391.734C230.031 391.734 230.786 391.974 231.344 392.453C231.906 392.932 232.188 393.576 232.188 394.383V400H230.898V398.602H230.867C230.622 399.065 230.263 399.438 229.789 399.719C229.315 400 228.805 400.141 228.258 400.141ZM233.914 400V391.875H235.195V393.172H235.227C235.424 392.729 235.724 392.38 236.125 392.125C236.526 391.865 236.995 391.734 237.531 391.734C238.083 391.734 238.557 391.87 238.953 392.141C239.349 392.406 239.635 392.786 239.812 393.281H239.844C240.068 392.797 240.404 392.419 240.852 392.148C241.305 391.872 241.818 391.734 242.391 391.734C243.193 391.734 243.833 391.977 244.312 392.461C244.797 392.94 245.039 393.583 245.039 394.391V400H243.68V394.703C243.68 394.146 243.531 393.714 243.234 393.406C242.943 393.094 242.529 392.938 241.992 392.938C241.456 392.938 241.016 393.117 240.672 393.477C240.328 393.831 240.156 394.284 240.156 394.836V400H238.797V394.555C238.797 394.065 238.646 393.674 238.344 393.383C238.042 393.086 237.638 392.938 237.133 392.938C236.596 392.938 236.151 393.125 235.797 393.5C235.448 393.875 235.273 394.344 235.273 394.906V400H233.914ZM250.031 392.914C249.401 392.914 248.878 393.133 248.461 393.57C248.049 394.003 247.823 394.56 247.781 395.242H252.195C252.18 394.555 251.974 393.995 251.578 393.562C251.182 393.13 250.667 392.914 250.031 392.914ZM252.164 397.672H253.5C253.38 398.391 253.005 398.982 252.375 399.445C251.75 399.909 250.997 400.141 250.117 400.141C248.956 400.141 248.042 399.766 247.375 399.016C246.708 398.266 246.375 397.25 246.375 395.969C246.375 394.698 246.708 393.674 247.375 392.898C248.047 392.122 248.94 391.734 250.055 391.734C251.148 391.734 252.013 392.102 252.648 392.836C253.284 393.57 253.602 394.555 253.602 395.789V396.305H247.773V396.383C247.773 397.164 247.987 397.789 248.414 398.258C248.841 398.727 249.419 398.961 250.148 398.961C250.659 398.961 251.094 398.844 251.453 398.609C251.812 398.375 252.049 398.062 252.164 397.672ZM260.297 393.102L258.398 391.906L258.477 394.148H257.453L257.539 391.906L255.617 393.109L255.133 392.172L257.102 391.172L255.141 390.164L255.625 389.258L257.539 390.438L257.461 388.211H258.477L258.398 390.445L260.305 389.258L260.805 390.164L258.82 391.18L260.805 392.18L260.297 393.102Z" fill="#464255"/>
<path opacity="0.4" d="M499.672 264H498.281V252.727H499.648L505.82 261.578H505.891V252.727H507.281V264H505.914L499.742 255.18H499.672V264ZM512.625 264.141C511.49 264.141 510.578 263.763 509.891 263.008C509.203 262.247 508.859 261.224 508.859 259.938C508.859 258.651 509.203 257.63 509.891 256.875C510.578 256.115 511.49 255.734 512.625 255.734C513.755 255.734 514.664 256.115 515.352 256.875C516.039 257.63 516.383 258.651 516.383 259.938C516.383 261.219 516.039 262.24 515.352 263C514.664 263.76 513.755 264.141 512.625 264.141ZM510.883 262.148C511.315 262.68 511.896 262.945 512.625 262.945C513.354 262.945 513.932 262.682 514.359 262.156C514.786 261.625 515 260.885 515 259.938C515 258.99 514.786 258.253 514.359 257.727C513.932 257.195 513.354 256.93 512.625 256.93C511.896 256.93 511.315 257.195 510.883 257.727C510.456 258.258 510.242 258.995 510.242 259.938C510.242 260.88 510.456 261.617 510.883 262.148ZM521.039 264V255.875H522.32V257.203H522.352C522.487 256.75 522.729 256.393 523.078 256.133C523.432 255.867 523.846 255.734 524.32 255.734C524.43 255.734 524.612 255.753 524.867 255.789V257.109C524.721 257.057 524.479 257.031 524.141 257.031C523.615 257.031 523.193 257.206 522.875 257.555C522.557 257.904 522.398 258.365 522.398 258.938V264H521.039ZM528.844 256.914C528.214 256.914 527.69 257.133 527.273 257.57C526.862 258.003 526.635 258.56 526.594 259.242H531.008C530.992 258.555 530.786 257.995 530.391 257.562C529.995 257.13 529.479 256.914 528.844 256.914ZM530.977 261.672H532.312C532.193 262.391 531.818 262.982 531.188 263.445C530.562 263.909 529.81 264.141 528.93 264.141C527.768 264.141 526.854 263.766 526.188 263.016C525.521 262.266 525.188 261.25 525.188 259.969C525.188 258.698 525.521 257.674 526.188 256.898C526.859 256.122 527.753 255.734 528.867 255.734C529.961 255.734 530.826 256.102 531.461 256.836C532.096 257.57 532.414 258.555 532.414 259.789V260.305H526.586V260.383C526.586 261.164 526.799 261.789 527.227 262.258C527.654 262.727 528.232 262.961 528.961 262.961C529.471 262.961 529.906 262.844 530.266 262.609C530.625 262.375 530.862 262.062 530.977 261.672ZM540.539 258.539H539.211C539.107 258.07 538.875 257.685 538.516 257.383C538.161 257.081 537.701 256.93 537.133 256.93C536.424 256.93 535.854 257.203 535.422 257.75C534.99 258.292 534.773 259.021 534.773 259.938C534.773 260.87 534.99 261.604 535.422 262.141C535.859 262.677 536.435 262.945 537.148 262.945C537.695 262.945 538.146 262.81 538.5 262.539C538.859 262.263 539.099 261.878 539.219 261.383H540.555C540.451 262.195 540.083 262.859 539.453 263.375C538.828 263.885 538.057 264.141 537.141 264.141C536.005 264.141 535.096 263.766 534.414 263.016C533.732 262.26 533.391 261.234 533.391 259.938C533.391 258.661 533.732 257.643 534.414 256.883C535.096 256.117 536 255.734 537.125 255.734C538.094 255.734 538.88 256.008 539.484 256.555C540.094 257.102 540.445 257.763 540.539 258.539ZM545.172 264.141C544.036 264.141 543.125 263.763 542.438 263.008C541.75 262.247 541.406 261.224 541.406 259.938C541.406 258.651 541.75 257.63 542.438 256.875C543.125 256.115 544.036 255.734 545.172 255.734C546.302 255.734 547.211 256.115 547.898 256.875C548.586 257.63 548.93 258.651 548.93 259.938C548.93 261.219 548.586 262.24 547.898 263C547.211 263.76 546.302 264.141 545.172 264.141ZM543.43 262.148C543.862 262.68 544.443 262.945 545.172 262.945C545.901 262.945 546.479 262.682 546.906 262.156C547.333 261.625 547.547 260.885 547.547 259.938C547.547 258.99 547.333 258.253 546.906 257.727C546.479 257.195 545.901 256.93 545.172 256.93C544.443 256.93 543.862 257.195 543.43 257.727C543.003 258.258 542.789 258.995 542.789 259.938C542.789 260.88 543.003 261.617 543.43 262.148ZM550.305 264V255.875H551.586V257.203H551.617C551.753 256.75 551.995 256.393 552.344 256.133C552.698 255.867 553.112 255.734 553.586 255.734C553.695 255.734 553.878 255.753 554.133 255.789V257.109C553.987 257.057 553.745 257.031 553.406 257.031C552.88 257.031 552.458 257.206 552.141 257.555C551.823 257.904 551.664 258.365 551.664 258.938V264H550.305ZM557.93 264.141C556.888 264.141 556.047 263.758 555.406 262.992C554.771 262.227 554.453 261.208 554.453 259.938C554.453 258.672 554.771 257.656 555.406 256.891C556.042 256.12 556.872 255.734 557.898 255.734C558.471 255.734 558.984 255.865 559.438 256.125C559.891 256.385 560.24 256.742 560.484 257.195H560.516V252.727H561.875V264H560.578V262.625H560.555C560.289 263.099 559.93 263.471 559.477 263.742C559.023 264.008 558.508 264.141 557.93 264.141ZM558.188 256.93C557.469 256.93 556.898 257.203 556.477 257.75C556.055 258.292 555.844 259.021 555.844 259.938C555.844 260.859 556.055 261.591 556.477 262.133C556.898 262.674 557.469 262.945 558.188 262.945C558.891 262.945 559.456 262.672 559.883 262.125C560.31 261.573 560.523 260.844 560.523 259.938C560.523 259.031 560.307 258.305 559.875 257.758C559.448 257.206 558.885 256.93 558.188 256.93ZM567.43 264V256.992H566.297V255.875H567.43V254.969C567.43 254.188 567.612 253.609 567.977 253.234C568.346 252.854 568.906 252.664 569.656 252.664C569.948 252.664 570.224 252.685 570.484 252.727V253.828C570.266 253.797 570.06 253.781 569.867 253.781C569.143 253.781 568.781 254.18 568.781 254.977V255.875H570.445V256.992H568.789V264H567.43ZM574.828 264.141C573.693 264.141 572.781 263.763 572.094 263.008C571.406 262.247 571.062 261.224 571.062 259.938C571.062 258.651 571.406 257.63 572.094 256.875C572.781 256.115 573.693 255.734 574.828 255.734C575.958 255.734 576.867 256.115 577.555 256.875C578.242 257.63 578.586 258.651 578.586 259.938C578.586 261.219 578.242 262.24 577.555 263C576.867 263.76 575.958 264.141 574.828 264.141ZM573.086 262.148C573.518 262.68 574.099 262.945 574.828 262.945C575.557 262.945 576.135 262.682 576.562 262.156C576.99 261.625 577.203 260.885 577.203 259.938C577.203 258.99 576.99 258.253 576.562 257.727C576.135 257.195 575.557 256.93 574.828 256.93C574.099 256.93 573.518 257.195 573.086 257.727C572.659 258.258 572.445 258.995 572.445 259.938C572.445 260.88 572.659 261.617 573.086 262.148ZM586.633 255.875V264H585.344V262.68H585.312C584.807 263.654 583.948 264.141 582.734 264.141C581.854 264.141 581.164 263.875 580.664 263.344C580.169 262.807 579.922 262.076 579.922 261.148V255.875H581.281V260.906C581.281 262.26 581.906 262.938 583.156 262.938C583.812 262.938 584.328 262.732 584.703 262.32C585.083 261.904 585.273 261.346 585.273 260.648V255.875H586.633ZM588.398 264V255.875H589.68V257.172H589.711C589.945 256.719 590.281 256.367 590.719 256.117C591.156 255.862 591.68 255.734 592.289 255.734C593.174 255.734 593.865 256.003 594.359 256.539C594.854 257.07 595.102 257.799 595.102 258.727V264H593.742V258.969C593.742 258.307 593.586 257.805 593.273 257.461C592.961 257.112 592.495 256.938 591.875 256.938C591.234 256.938 590.721 257.146 590.336 257.562C589.951 257.979 589.758 258.531 589.758 259.219V264H588.398ZM599.914 264.141C598.872 264.141 598.031 263.758 597.391 262.992C596.755 262.227 596.438 261.208 596.438 259.938C596.438 258.672 596.755 257.656 597.391 256.891C598.026 256.12 598.857 255.734 599.883 255.734C600.456 255.734 600.969 255.865 601.422 256.125C601.875 256.385 602.224 256.742 602.469 257.195H602.5V252.727H603.859V264H602.562V262.625H602.539C602.273 263.099 601.914 263.471 601.461 263.742C601.008 264.008 600.492 264.141 599.914 264.141ZM600.172 256.93C599.453 256.93 598.883 257.203 598.461 257.75C598.039 258.292 597.828 259.021 597.828 259.938C597.828 260.859 598.039 261.591 598.461 262.133C598.883 262.674 599.453 262.945 600.172 262.945C600.875 262.945 601.44 262.672 601.867 262.125C602.294 261.573 602.508 260.844 602.508 259.938C602.508 259.031 602.292 258.305 601.859 257.758C601.432 257.206 600.87 256.93 600.172 256.93Z" fill="#464255"/>
<rect x="958.656" y="100.152" width="19" height="3" rx="1.5" transform="rotate(-45 958.656 100.152)" fill="black"/>
<rect x="960.777" y="86.7188" width="19" height="3" rx="1.5" transform="rotate(45 960.777 86.7188)" fill="black"/>
<path fill-rule="evenodd" clip-rule="evenodd" d="M661 438C660.448 438 660 438.448 660 439V441H658C657.448 441 657 441.448 657 442C657 442.552 657.448 443 658 443H660V445C660 445.552 660.448 446 661 446C661.552 446 662 445.552 662 445V443H664C664.552 443 665 442.552 665 442C665 441.448 664.552 441 664 441H662V439C662 438.448 661.552 438 661 438Z" fill="white"/>
<path d="M133.718 133L131.784 127.287H123.728L121.794 133H118.381L126.013 111.862H129.558L137.189 133H133.718ZM127.712 115.378L124.562 124.65H130.949L127.8 115.378H127.712ZM144.514 133.264C142.561 133.264 140.993 132.541 139.812 131.096C138.63 129.65 138.039 127.717 138.039 125.295C138.039 122.873 138.625 120.944 139.797 119.509C140.979 118.063 142.541 117.341 144.484 117.341C145.568 117.341 146.535 117.595 147.385 118.103C148.234 118.601 148.879 119.284 149.318 120.153H149.377V111.862H152.556V133H149.479V130.378H149.421C148.962 131.276 148.303 131.984 147.443 132.502C146.594 133.01 145.617 133.264 144.514 133.264ZM145.349 120.007C144.099 120.007 143.107 120.485 142.375 121.442C141.643 122.39 141.276 123.674 141.276 125.295C141.276 126.926 141.643 128.215 142.375 129.162C143.107 130.109 144.099 130.583 145.349 130.583C146.569 130.583 147.551 130.104 148.293 129.147C149.035 128.181 149.406 126.896 149.406 125.295C149.406 123.703 149.035 122.424 148.293 121.457C147.551 120.49 146.569 120.007 145.349 120.007ZM161.594 133.264C159.641 133.264 158.073 132.541 156.892 131.096C155.71 129.65 155.119 127.717 155.119 125.295C155.119 122.873 155.705 120.944 156.877 119.509C158.059 118.063 159.621 117.341 161.564 117.341C162.648 117.341 163.615 117.595 164.465 118.103C165.314 118.601 165.959 119.284 166.398 120.153H166.457V111.862H169.636V133H166.56V130.378H166.501C166.042 131.276 165.383 131.984 164.523 132.502C163.674 133.01 162.697 133.264 161.594 133.264ZM162.429 120.007C161.179 120.007 160.188 120.485 159.455 121.442C158.723 122.39 158.356 123.674 158.356 125.295C158.356 126.926 158.723 128.215 159.455 129.162C160.188 130.109 161.179 130.583 162.429 130.583C163.649 130.583 164.631 130.104 165.373 129.147C166.115 128.181 166.486 126.896 166.486 125.295C166.486 123.703 166.115 122.424 165.373 121.457C164.631 120.49 163.649 120.007 162.429 120.007ZM192.78 130.158V133H179.362V111.862H192.78V114.689H182.644V120.871H192.238V123.596H182.644V130.158H192.78ZM201.54 127.331H201.467L198.054 133H194.626L199.709 125.31L194.699 117.59H198.244L201.613 123.171H201.672L204.997 117.59H208.483L203.43 125.207L208.425 133H204.938L201.54 127.331ZM218.503 117.341C220.466 117.341 222.038 118.059 223.22 119.494C224.401 120.93 224.992 122.863 224.992 125.295C224.992 127.727 224.406 129.665 223.234 131.11C222.062 132.546 220.505 133.264 218.562 133.264C217.468 133.264 216.496 133.015 215.646 132.517C214.807 132.019 214.162 131.335 213.713 130.466H213.64V138.098H210.476V117.59H213.537V120.241H213.596C214.055 119.343 214.714 118.635 215.573 118.117C216.433 117.6 217.409 117.341 218.503 117.341ZM217.668 130.583C218.918 130.583 219.909 130.109 220.642 129.162C221.374 128.205 221.74 126.916 221.74 125.295C221.74 123.684 221.374 122.399 220.642 121.442C219.909 120.485 218.918 120.007 217.668 120.007C216.457 120.007 215.48 120.49 214.738 121.457C213.996 122.424 213.625 123.703 213.625 125.295C213.625 126.896 213.991 128.181 214.724 129.147C215.466 130.104 216.447 130.583 217.668 130.583ZM236.564 120.974C235.871 120.231 234.978 119.86 233.884 119.86C232.79 119.86 231.882 120.236 231.159 120.988C230.437 121.73 230.036 122.692 229.958 123.874H237.663C237.624 122.683 237.258 121.716 236.564 120.974ZM237.648 128.474H240.651C240.427 129.89 239.704 131.047 238.483 131.945C237.263 132.844 235.773 133.293 234.016 133.293C231.76 133.293 229.982 132.585 228.684 131.169C227.395 129.743 226.75 127.81 226.75 125.368C226.75 122.946 227.395 120.998 228.684 119.523C229.982 118.049 231.716 117.312 233.884 117.312C236.013 117.312 237.702 118.01 238.952 119.406C240.202 120.793 240.827 122.658 240.827 125.002V126.086H229.943V126.276C229.943 127.624 230.319 128.703 231.071 129.514C231.823 130.324 232.829 130.729 234.089 130.729C234.978 130.729 235.739 130.524 236.374 130.114C237.009 129.704 237.434 129.157 237.648 128.474ZM243.288 133V117.59H246.306V120.168H246.379C246.809 119.27 247.434 118.571 248.254 118.073C249.074 117.575 250.065 117.326 251.228 117.326C252.917 117.326 254.23 117.834 255.168 118.85C256.105 119.855 256.574 121.247 256.574 123.024V133H253.396V123.64C253.396 122.468 253.117 121.579 252.561 120.974C252.014 120.358 251.198 120.051 250.114 120.051C249.001 120.051 248.112 120.412 247.448 121.135C246.784 121.857 246.452 122.819 246.452 124.021V133H243.288ZM259.357 121.955C259.357 120.578 259.914 119.46 261.027 118.601C262.141 117.741 263.596 117.312 265.393 117.312C267.102 117.312 268.503 117.746 269.597 118.615C270.7 119.475 271.276 120.593 271.325 121.97H268.352C268.273 121.267 267.966 120.715 267.429 120.314C266.892 119.914 266.184 119.714 265.305 119.714C264.445 119.714 263.752 119.904 263.225 120.285C262.707 120.666 262.448 121.159 262.448 121.765C262.448 122.702 263.234 123.366 264.807 123.757L267.399 124.357C268.952 124.729 270.051 125.236 270.695 125.881C271.35 126.516 271.677 127.404 271.677 128.547C271.677 129.953 271.081 131.096 269.89 131.975C268.708 132.854 267.17 133.293 265.275 133.293C263.469 133.293 261.994 132.863 260.852 132.004C259.719 131.145 259.089 130.002 258.962 128.576H262.097C262.224 129.318 262.57 129.89 263.137 130.29C263.703 130.681 264.465 130.876 265.422 130.876C266.369 130.876 267.116 130.695 267.663 130.334C268.22 129.963 268.498 129.465 268.498 128.84C268.498 128.342 268.332 127.946 268 127.653C267.668 127.36 267.102 127.111 266.301 126.906L263.547 126.232C260.754 125.559 259.357 124.133 259.357 121.955ZM283.264 120.974C282.57 120.231 281.677 119.86 280.583 119.86C279.489 119.86 278.581 120.236 277.858 120.988C277.136 121.73 276.735 122.692 276.657 123.874H284.362C284.323 122.683 283.957 121.716 283.264 120.974ZM284.348 128.474H287.351C287.126 129.89 286.403 131.047 285.183 131.945C283.962 132.844 282.473 133.293 280.715 133.293C278.459 133.293 276.682 132.585 275.383 131.169C274.094 129.743 273.449 127.81 273.449 125.368C273.449 122.946 274.094 120.998 275.383 119.523C276.682 118.049 278.415 117.312 280.583 117.312C282.712 117.312 284.401 118.01 285.651 119.406C286.901 120.793 287.526 122.658 287.526 125.002V126.086H276.643V126.276C276.643 127.624 277.019 128.703 277.771 129.514C278.522 130.324 279.528 130.729 280.788 130.729C281.677 130.729 282.438 130.524 283.073 130.114C283.708 129.704 284.133 129.157 284.348 128.474ZM305.383 133.352C302.414 133.352 300.056 132.37 298.308 130.407C296.569 128.444 295.7 125.783 295.7 122.424C295.7 119.084 296.574 116.433 298.322 114.47C300.07 112.497 302.424 111.511 305.383 111.511C307.785 111.511 309.812 112.189 311.462 113.547C313.112 114.895 314.074 116.667 314.348 118.864H311.096C310.803 117.507 310.134 116.423 309.089 115.612C308.054 114.792 306.818 114.382 305.383 114.382C303.459 114.382 301.921 115.114 300.769 116.579C299.626 118.034 299.055 119.982 299.055 122.424C299.055 124.895 299.626 126.857 300.769 128.312C301.911 129.758 303.454 130.48 305.397 130.48C306.862 130.48 308.093 130.124 309.089 129.411C310.095 128.698 310.764 127.702 311.096 126.423H314.362C313.962 128.61 312.971 130.314 311.389 131.535C309.816 132.746 307.814 133.352 305.383 133.352ZM322.331 130.759C323.444 130.759 324.377 130.422 325.129 129.748C325.891 129.064 326.271 128.225 326.271 127.229V126.013L322.478 126.247C321.53 126.315 320.798 126.55 320.28 126.95C319.772 127.341 319.519 127.868 319.519 128.532C319.519 129.206 319.772 129.748 320.28 130.158C320.798 130.559 321.481 130.759 322.331 130.759ZM321.452 133.264C319.938 133.264 318.703 132.834 317.746 131.975C316.799 131.115 316.325 129.997 316.325 128.62C316.325 127.272 316.823 126.203 317.819 125.412C318.815 124.611 320.227 124.162 322.053 124.064L326.271 123.815V122.629C326.271 121.77 325.998 121.101 325.451 120.622C324.904 120.134 324.147 119.89 323.181 119.89C322.282 119.89 321.55 120.09 320.983 120.49C320.427 120.891 320.075 121.442 319.929 122.146H316.94C317.028 120.72 317.644 119.558 318.786 118.659C319.929 117.761 321.433 117.312 323.298 117.312C325.163 117.312 326.647 117.771 327.751 118.688C328.864 119.606 329.421 120.837 329.421 122.38V133H326.389V130.466H326.315C325.876 131.315 325.207 131.994 324.309 132.502C323.42 133.01 322.468 133.264 321.452 133.264ZM333.42 113.942H336.599V117.59H339.528V120.095H336.599V128.591C336.599 129.255 336.75 129.743 337.053 130.056C337.355 130.368 337.829 130.524 338.474 130.524C338.942 130.524 339.289 130.5 339.514 130.451V132.956C339.123 133.054 338.537 133.103 337.756 133.103C336.203 133.103 335.09 132.785 334.416 132.15C333.752 131.506 333.42 130.437 333.42 128.942V120.095H331.179V117.59H333.42V113.942ZM350.881 120.974C350.188 120.231 349.294 119.86 348.2 119.86C347.106 119.86 346.198 120.236 345.476 120.988C344.753 121.73 344.353 122.692 344.274 123.874H351.979C351.94 122.683 351.574 121.716 350.881 120.974ZM351.965 128.474H354.968C354.743 129.89 354.021 131.047 352.8 131.945C351.579 132.844 350.09 133.293 348.332 133.293C346.076 133.293 344.299 132.585 343 131.169C341.711 129.743 341.066 127.81 341.066 125.368C341.066 122.946 341.711 120.998 343 119.523C344.299 118.049 346.032 117.312 348.2 117.312C350.329 117.312 352.019 118.01 353.269 119.406C354.519 120.793 355.144 122.658 355.144 125.002V126.086H344.26V126.276C344.26 127.624 344.636 128.703 345.388 129.514C346.14 130.324 347.146 130.729 348.405 130.729C349.294 130.729 350.056 130.524 350.69 130.114C351.325 129.704 351.75 129.157 351.965 128.474ZM364.167 130.437C365.407 130.437 366.398 129.968 367.141 129.03C367.893 128.093 368.269 126.833 368.269 125.251C368.269 123.669 367.893 122.399 367.141 121.442C366.398 120.485 365.407 120.007 364.167 120.007C362.946 120.007 361.97 120.48 361.237 121.428C360.515 122.375 360.153 123.649 360.153 125.251C360.153 126.853 360.515 128.117 361.237 129.045C361.97 129.973 362.946 130.437 364.167 130.437ZM364.196 138.801C362.399 138.801 360.876 138.371 359.626 137.512C358.386 136.652 357.668 135.549 357.473 134.201H360.651C360.876 134.846 361.315 135.363 361.97 135.754C362.634 136.145 363.415 136.34 364.313 136.34C365.534 136.34 366.496 136.018 367.199 135.373C367.902 134.738 368.254 133.889 368.254 132.824V130.29H368.195C367.756 131.14 367.102 131.813 366.232 132.312C365.373 132.81 364.401 133.059 363.317 133.059C361.374 133.059 359.821 132.355 358.659 130.949C357.497 129.533 356.916 127.629 356.916 125.236C356.916 122.814 357.497 120.896 358.659 119.479C359.831 118.054 361.408 117.341 363.391 117.341C364.475 117.341 365.446 117.6 366.306 118.117C367.165 118.625 367.829 119.328 368.298 120.227H368.356V117.59H371.433V132.722C371.433 134.558 370.773 136.027 369.455 137.131C368.146 138.244 366.394 138.801 364.196 138.801ZM386.506 131.154C385.178 132.58 383.405 133.293 381.188 133.293C378.972 133.293 377.199 132.58 375.871 131.154C374.543 129.719 373.879 127.766 373.879 125.295C373.879 122.834 374.543 120.891 375.871 119.465C377.199 118.029 378.972 117.312 381.188 117.312C383.405 117.312 385.178 118.029 386.506 119.465C387.834 120.891 388.498 122.834 388.498 125.295C388.498 127.766 387.834 129.719 386.506 131.154ZM381.188 130.686C382.448 130.686 383.444 130.212 384.177 129.265C384.909 128.317 385.275 126.994 385.275 125.295C385.275 123.605 384.904 122.287 384.162 121.34C383.43 120.393 382.438 119.919 381.188 119.919C379.938 119.919 378.942 120.393 378.2 121.34C377.468 122.287 377.102 123.605 377.102 125.295C377.102 126.994 377.468 128.317 378.2 129.265C378.942 130.212 379.938 130.686 381.188 130.686ZM390.944 133V117.59H393.962V120.212H394.035C394.289 119.313 394.743 118.61 395.397 118.103C396.052 117.595 396.833 117.341 397.741 117.341C398.044 117.341 398.405 117.38 398.825 117.458V120.402C398.542 120.285 398.068 120.227 397.404 120.227C396.389 120.227 395.583 120.544 394.987 121.179C394.401 121.813 394.108 122.678 394.108 123.771V133H390.944ZM402.312 138.742C401.716 138.742 401.286 138.718 401.022 138.669V136.105C401.179 136.145 401.521 136.164 402.048 136.164C402.79 136.164 403.371 135.993 403.791 135.651C404.211 135.319 404.543 134.758 404.787 133.967C404.787 133.957 404.836 133.796 404.934 133.483L405.065 133.015L399.499 117.59H402.927L406.838 130.129H406.882L410.793 117.59H414.133L408.347 133.806C407.692 135.671 406.926 136.96 406.047 137.673C405.168 138.386 403.923 138.742 402.312 138.742Z" fill="#464255"/>
</g>
<defs>
<filter id="filter0_d" x="0" y="0" width="1076" height="677" filterUnits="userSpaceOnUse" color-interpolation-filters="sRGB">
<feFlood flood-opacity="0" result="BackgroundImageFix"/>
<feColorMatrix in="SourceAlpha" type="matrix" values="0 0 0 0 0 0 0 0 0 0 0 0 0 0 0 0 0 0 127 0" result="hardAlpha"/>
<feOffset dy="16"/>
<feGaussianBlur stdDeviation="39"/>
<feComposite in2="hardAlpha" operator="out"/>
<feColorMatrix type="matrix" values="0 0 0 0 0 0 0 0 0 0 0 0 0 0 0 0 0 0 0.15 0"/>
<feBlend mode="normal" in2="BackgroundImageFix" result="effect1_dropShadow"/>
<feBlend mode="normal" in="SourceGraphic" in2="effect1_dropShadow" result="shape"/>
</filter>
</defs>
</svg>
