<svg width="901" height="714" viewBox="0 0 901 714" fill="none" xmlns="http://www.w3.org/2000/svg">
<g filter="url(#filter0_d)">
<path d="M80 80C80 71.1635 87.1634 64 96 64H805C813.837 64 821 71.1634 821 80V602C821 610.837 813.837 618 805 618H96C87.1635 618 80 610.837 80 602V80Z" fill="white" stroke="#58D7FF" stroke-width="4"/>
<circle cx="136.5" cy="215.5" r="15" fill="white" stroke="#58D7FF"/>
<circle cx="136.5" cy="215.5" r="7.5" fill="#58D7FF"/>
<circle cx="285.5" cy="215.5" r="15" fill="white" stroke="#CED1E0"/>
<rect x="121.5" y="304.5" width="666" height="59" rx="17.5" fill="#F9FBFD" fill-opacity="0.3" stroke="#D7D9E6"/>
<rect x="121.5" y="421.5" width="666" height="98" rx="17.5" fill="#F9FBFD" fill-opacity="0.3" stroke="#D7D9E6"/>
<path d="M756.007 338C756.151 337.999 756.289 337.937 756.392 337.829L761.847 332.002C761.946 331.892 762.001 331.745 762 331.592C761.999 331.439 761.941 331.293 761.84 331.185C761.739 331.077 761.602 331.016 761.459 331.014C761.316 331.013 761.178 331.072 761.076 331.178L756.007 336.593L750.938 331.178C750.887 331.122 750.827 331.078 750.761 331.047C750.694 331.017 750.623 331.001 750.55 331C750.478 330.999 750.406 331.014 750.339 331.043C750.272 331.073 750.211 331.116 750.16 331.171C750.109 331.225 750.068 331.29 750.041 331.362C750.013 331.434 749.999 331.51 750 331.588C750.001 331.665 750.016 331.742 750.044 331.813C750.073 331.884 750.114 331.948 750.167 332.002L755.621 337.829C755.724 337.937 755.862 337.999 756.007 338Z" fill="#464255" stroke="#AAABB5"/>
<path d="M151.369 339L150.378 336.177H146.454L145.463 339H144.171L147.808 329.136H149.024L152.661 339H151.369ZM148.396 330.633L146.816 335.131H150.016L148.437 330.633H148.396ZM156.161 339.123C155.25 339.123 154.514 338.788 153.953 338.118C153.397 337.448 153.119 336.557 153.119 335.445C153.119 334.338 153.397 333.449 153.953 332.779C154.509 332.105 155.236 331.768 156.134 331.768C156.635 331.768 157.084 331.882 157.48 332.109C157.877 332.337 158.182 332.649 158.396 333.046H158.424V329.136H159.613V339H158.479V337.797H158.458C158.226 338.212 157.911 338.537 157.515 338.774C157.118 339.007 156.667 339.123 156.161 339.123ZM156.387 332.813C155.758 332.813 155.259 333.053 154.89 333.531C154.521 334.005 154.336 334.643 154.336 335.445C154.336 336.252 154.521 336.892 154.89 337.366C155.259 337.84 155.758 338.077 156.387 338.077C157.002 338.077 157.496 337.838 157.87 337.359C158.244 336.876 158.431 336.238 158.431 335.445C158.431 334.652 158.242 334.017 157.863 333.538C157.49 333.055 156.997 332.813 156.387 332.813ZM164.07 332.8C163.519 332.8 163.061 332.991 162.696 333.374C162.336 333.752 162.138 334.24 162.102 334.837H165.964C165.95 334.235 165.77 333.745 165.424 333.367C165.077 332.989 164.626 332.8 164.07 332.8ZM165.937 336.963H167.105C167.001 337.592 166.673 338.109 166.121 338.515C165.574 338.92 164.916 339.123 164.146 339.123C163.129 339.123 162.329 338.795 161.746 338.139C161.163 337.482 160.871 336.594 160.871 335.473C160.871 334.361 161.163 333.465 161.746 332.786C162.334 332.107 163.116 331.768 164.091 331.768C165.048 331.768 165.804 332.089 166.36 332.731C166.916 333.374 167.194 334.235 167.194 335.315V335.767H162.095V335.835C162.095 336.519 162.282 337.065 162.655 337.476C163.029 337.886 163.535 338.091 164.173 338.091C164.619 338.091 165 337.988 165.314 337.783C165.629 337.578 165.836 337.305 165.937 336.963ZM168.459 339V329.136H169.648V339H168.459ZM171.316 339V329.136H172.506V339H171.316ZM178.398 339H177.168V329.136H183.156V330.243H178.398V333.634H182.767V334.728H178.398V339ZM184.38 339V331.891H185.501V333.053H185.528C185.647 332.656 185.859 332.344 186.164 332.116C186.474 331.884 186.836 331.768 187.251 331.768C187.347 331.768 187.506 331.784 187.729 331.815V332.971C187.602 332.925 187.39 332.902 187.094 332.902C186.633 332.902 186.264 333.055 185.986 333.36C185.708 333.666 185.569 334.069 185.569 334.57V339H184.38ZM190.908 338.111C191.469 338.111 191.938 337.938 192.316 337.592C192.699 337.241 192.891 336.81 192.891 336.3V335.719L190.99 335.835C190.512 335.867 190.14 335.983 189.876 336.184C189.616 336.384 189.486 336.653 189.486 336.99C189.486 337.327 189.616 337.599 189.876 337.804C190.136 338.009 190.48 338.111 190.908 338.111ZM190.642 339.123C189.935 339.123 189.363 338.927 188.926 338.535C188.493 338.143 188.276 337.628 188.276 336.99C188.276 336.38 188.5 335.892 188.946 335.527C189.397 335.163 190.033 334.958 190.854 334.912L192.891 334.796V334.201C192.891 333.768 192.754 333.429 192.48 333.183C192.207 332.937 191.824 332.813 191.332 332.813C190.881 332.813 190.514 332.914 190.231 333.114C189.949 333.31 189.769 333.586 189.691 333.941H188.543C188.584 333.308 188.857 332.788 189.363 332.383C189.874 331.973 190.539 331.768 191.359 331.768C192.193 331.768 192.854 331.977 193.342 332.396C193.834 332.816 194.08 333.379 194.08 334.085V339H192.952V337.776H192.925C192.711 338.182 192.396 338.508 191.981 338.754C191.567 339 191.12 339.123 190.642 339.123ZM195.591 339V331.891H196.712V333.025H196.739C196.944 332.629 197.238 332.321 197.621 332.103C198.004 331.879 198.462 331.768 198.995 331.768C199.77 331.768 200.374 332.002 200.807 332.472C201.24 332.937 201.456 333.575 201.456 334.386V339H200.267V334.598C200.267 334.019 200.13 333.579 199.856 333.278C199.583 332.973 199.175 332.82 198.633 332.82C198.072 332.82 197.623 333.003 197.286 333.367C196.949 333.732 196.78 334.215 196.78 334.816V339H195.591ZM208.88 334.222H207.718C207.627 333.812 207.424 333.474 207.109 333.21C206.799 332.946 206.396 332.813 205.899 332.813C205.28 332.813 204.781 333.053 204.402 333.531C204.024 334.005 203.835 334.643 203.835 335.445C203.835 336.261 204.024 336.904 204.402 337.373C204.785 337.842 205.289 338.077 205.913 338.077C206.392 338.077 206.786 337.959 207.096 337.722C207.41 337.48 207.62 337.143 207.725 336.71H208.894C208.802 337.421 208.481 338.002 207.93 338.453C207.383 338.9 206.708 339.123 205.906 339.123C204.913 339.123 204.118 338.795 203.521 338.139C202.924 337.478 202.625 336.58 202.625 335.445C202.625 334.329 202.924 333.438 203.521 332.772C204.118 332.103 204.908 331.768 205.893 331.768C206.74 331.768 207.428 332.007 207.957 332.485C208.49 332.964 208.798 333.543 208.88 334.222ZM211.238 335.049L214.383 331.891H215.825L212.742 334.96L215.921 339H214.54L211.901 335.691L211.238 336.32V339H210.049V329.136H211.238V335.049Z" fill="#959AC5"/>
<rect x="83" y="166" width="734" height="1" fill="#DADCF0"/>
<rect x="224" y="548" width="93" height="38" rx="6" fill="#D7D9E6"/>
<path d="M251.57 567.1C251.57 570.026 253.712 572.084 256.526 572.084C258.696 572.084 260.46 570.936 261.118 568.92H258.864C258.402 569.872 257.562 570.334 256.512 570.334C254.804 570.334 253.586 569.074 253.586 567.1C253.586 565.112 254.804 563.866 256.512 563.866C257.562 563.866 258.402 564.328 258.864 565.266H261.118C260.46 563.264 258.696 562.102 256.526 562.102C253.712 562.102 251.57 564.174 251.57 567.1ZM262.792 572H264.752V561.64H262.792V572ZM274.179 568.122C274.179 565.672 272.429 564.118 270.189 564.118C267.949 564.118 266.199 565.672 266.199 568.122C266.199 570.558 267.893 572.126 270.133 572.126C272.387 572.126 274.179 570.558 274.179 568.122ZM268.187 568.122C268.187 566.568 269.125 565.826 270.161 565.826C271.197 565.826 272.163 566.568 272.163 568.122C272.163 569.662 271.169 570.418 270.133 570.418C269.083 570.418 268.187 569.662 268.187 568.122ZM281.636 569.788C281.58 566.946 277.282 567.828 277.282 566.414C277.282 565.966 277.66 565.672 278.388 565.672C279.158 565.672 279.634 566.078 279.69 566.68H281.566C281.454 565.14 280.32 564.118 278.444 564.118C276.526 564.118 275.378 565.154 275.378 566.442C275.378 569.284 279.76 568.402 279.76 569.788C279.76 570.236 279.34 570.586 278.57 570.586C277.786 570.586 277.24 570.138 277.17 569.55H275.196C275.28 570.992 276.638 572.126 278.584 572.126C280.474 572.126 281.636 571.118 281.636 569.788ZM286.577 565.728C287.585 565.728 288.397 566.372 288.425 567.394H284.743C284.897 566.33 285.639 565.728 286.577 565.728ZM290.259 569.564H288.145C287.893 570.082 287.431 570.502 286.591 570.502C285.611 570.502 284.827 569.858 284.729 568.71H290.399C290.441 568.458 290.455 568.206 290.455 567.954C290.455 565.644 288.873 564.118 286.633 564.118C284.337 564.118 282.741 565.672 282.741 568.122C282.741 570.558 284.379 572.126 286.633 572.126C288.551 572.126 289.839 570.992 290.259 569.564Z" fill="#464255"/>
<rect x="121" y="548" width="93" height="38" rx="6" fill="#3546AB"/>
<path d="M168.798 569.172C168.798 565.728 163.786 566.82 163.786 564.86C163.786 564.062 164.36 563.684 165.13 563.712C165.97 563.726 166.488 564.23 166.53 564.874H168.686C168.56 563.11 167.188 562.088 165.186 562.088C163.17 562.088 161.742 563.152 161.742 564.916C161.728 568.458 166.768 567.184 166.768 569.298C166.768 569.998 166.222 570.488 165.298 570.488C164.388 570.488 163.87 569.97 163.814 569.186H161.714C161.742 571.034 163.31 572.098 165.34 572.098C167.566 572.098 168.798 570.712 168.798 569.172ZM173.829 565.728C174.837 565.728 175.649 566.372 175.677 567.394H171.995C172.149 566.33 172.891 565.728 173.829 565.728ZM177.511 569.564H175.397C175.145 570.082 174.683 570.502 173.843 570.502C172.863 570.502 172.079 569.858 171.981 568.71H177.651C177.693 568.458 177.707 568.206 177.707 567.954C177.707 565.644 176.125 564.118 173.885 564.118C171.589 564.118 169.993 565.672 169.993 568.122C169.993 570.558 171.631 572.126 173.885 572.126C175.803 572.126 177.091 570.992 177.511 569.564ZM184.57 572H186.53V567.45C186.53 565.308 185.242 564.132 183.436 564.132C182.442 564.132 181.602 564.552 181.098 565.21V564.244H179.138V572H181.098V567.716C181.098 566.47 181.784 565.798 182.848 565.798C183.884 565.798 184.57 566.47 184.57 567.716V572ZM187.89 568.094C187.89 570.516 189.458 572.126 191.432 572.126C192.65 572.126 193.518 571.566 193.98 570.852V572H195.968V561.64H193.98V565.322C193.448 564.594 192.468 564.118 191.446 564.118C189.458 564.118 187.89 565.672 187.89 568.094ZM193.994 568.122C193.994 569.592 193.014 570.404 191.936 570.404C190.886 570.404 189.892 569.564 189.892 568.094C189.892 566.624 190.886 565.84 191.936 565.84C193.014 565.84 193.994 566.652 193.994 568.122Z" fill="white"/>
<path d="M150.608 561.511C150.336 561.207 149.957 561.024 149.552 561.002C149.147 560.981 148.751 561.123 148.45 561.397L141.244 570.325L138.628 567.635C138.487 567.487 138.318 567.369 138.132 567.288C137.945 567.207 137.745 567.165 137.542 567.163C137.339 567.161 137.137 567.2 136.95 567.278C136.762 567.355 136.591 567.47 136.448 567.615C136.304 567.76 136.191 567.933 136.114 568.123C136.037 568.313 135.998 568.516 136 568.722C136.002 568.927 136.044 569.13 136.124 569.318C136.204 569.507 136.321 569.677 136.467 569.82L140.108 573.548C140.385 573.827 140.757 573.989 141.149 573.999C141.54 574.01 141.92 573.868 142.211 573.603L150.495 563.693C150.796 563.419 150.977 563.035 150.998 562.626C151.019 562.217 150.879 561.816 150.608 561.511Z" fill="white"/>
<path d="M128.852 286.188C127.237 286.188 125.958 285.667 125.016 284.625C124.078 283.583 123.609 282.161 123.609 280.359C123.609 278.568 124.081 277.151 125.023 276.109C125.971 275.062 127.247 274.539 128.852 274.539C130.164 274.539 131.271 274.914 132.172 275.664C133.073 276.409 133.586 277.385 133.711 278.594H131.727C131.596 277.885 131.266 277.318 130.734 276.891C130.208 276.464 129.581 276.25 128.852 276.25C127.883 276.25 127.109 276.622 126.531 277.367C125.958 278.107 125.672 279.104 125.672 280.359C125.672 281.625 125.958 282.628 126.531 283.367C127.104 284.107 127.88 284.477 128.859 284.477C129.604 284.477 130.229 284.286 130.734 283.906C131.245 283.521 131.578 282.99 131.734 282.312H133.711C133.534 283.521 133.013 284.469 132.148 285.156C131.284 285.844 130.185 286.188 128.852 286.188ZM135.102 286V274.727H137.023V279.141H137.062C137.286 278.635 137.622 278.247 138.07 277.977C138.518 277.701 139.055 277.562 139.68 277.562C140.586 277.562 141.294 277.841 141.805 278.398C142.32 278.951 142.578 279.706 142.578 280.664V286H140.633V281.062C140.633 280.474 140.487 280.018 140.195 279.695C139.909 279.372 139.487 279.211 138.93 279.211C138.346 279.211 137.885 279.396 137.547 279.766C137.214 280.135 137.047 280.628 137.047 281.242V286H135.102ZM150.727 285.016C150.003 285.781 149.029 286.164 147.805 286.164C146.581 286.164 145.607 285.781 144.883 285.016C144.159 284.245 143.797 283.193 143.797 281.859C143.797 280.531 144.161 279.482 144.891 278.711C145.62 277.935 146.591 277.547 147.805 277.547C149.023 277.547 149.995 277.935 150.719 278.711C151.448 279.482 151.812 280.531 151.812 281.859C151.812 283.193 151.451 284.245 150.727 285.016ZM146.32 283.898C146.685 284.383 147.18 284.625 147.805 284.625C148.43 284.625 148.924 284.383 149.289 283.898C149.654 283.414 149.836 282.734 149.836 281.859C149.836 280.99 149.654 280.312 149.289 279.828C148.924 279.339 148.43 279.094 147.805 279.094C147.185 279.094 146.69 279.339 146.32 279.828C145.956 280.312 145.773 280.99 145.773 281.859C145.773 282.734 145.956 283.414 146.32 283.898ZM159.648 285.016C158.924 285.781 157.951 286.164 156.727 286.164C155.503 286.164 154.529 285.781 153.805 285.016C153.081 284.245 152.719 283.193 152.719 281.859C152.719 280.531 153.083 279.482 153.812 278.711C154.542 277.935 155.513 277.547 156.727 277.547C157.945 277.547 158.917 277.935 159.641 278.711C160.37 279.482 160.734 280.531 160.734 281.859C160.734 283.193 160.372 284.245 159.648 285.016ZM155.242 283.898C155.607 284.383 156.102 284.625 156.727 284.625C157.352 284.625 157.846 284.383 158.211 283.898C158.576 283.414 158.758 282.734 158.758 281.859C158.758 280.99 158.576 280.312 158.211 279.828C157.846 279.339 157.352 279.094 156.727 279.094C156.107 279.094 155.612 279.339 155.242 279.828C154.878 280.312 154.695 280.99 154.695 281.859C154.695 282.734 154.878 283.414 155.242 283.898ZM161.836 280.094C161.836 279.333 162.143 278.719 162.758 278.25C163.372 277.781 164.182 277.547 165.188 277.547C166.156 277.547 166.943 277.786 167.547 278.266C168.156 278.74 168.474 279.359 168.5 280.125H166.688C166.656 279.766 166.505 279.484 166.234 279.281C165.964 279.078 165.602 278.977 165.148 278.977C164.721 278.977 164.378 279.07 164.117 279.258C163.857 279.44 163.727 279.682 163.727 279.984C163.727 280.443 164.122 280.768 164.914 280.961L166.391 281.289C167.219 281.482 167.81 281.753 168.164 282.102C168.518 282.451 168.695 282.932 168.695 283.547C168.695 284.328 168.367 284.961 167.711 285.445C167.055 285.924 166.203 286.164 165.156 286.164C164.125 286.164 163.294 285.93 162.664 285.461C162.039 284.987 161.693 284.354 161.625 283.562H163.539C163.596 283.943 163.768 284.234 164.055 284.438C164.346 284.641 164.737 284.742 165.227 284.742C165.701 284.742 166.073 284.654 166.344 284.477C166.62 284.294 166.758 284.049 166.758 283.742C166.758 283.503 166.672 283.312 166.5 283.172C166.333 283.026 166.049 282.901 165.648 282.797L164.141 282.445C162.604 282.086 161.836 281.302 161.836 280.094ZM173.508 279.055C172.966 279.055 172.513 279.242 172.148 279.617C171.789 279.987 171.589 280.464 171.547 281.047H175.414C175.393 280.458 175.208 279.979 174.859 279.609C174.51 279.24 174.06 279.055 173.508 279.055ZM175.422 283.523H177.242C177.117 284.31 176.719 284.948 176.047 285.438C175.375 285.922 174.552 286.164 173.578 286.164C172.339 286.164 171.365 285.784 170.656 285.023C169.948 284.258 169.594 283.214 169.594 281.891C169.594 280.578 169.945 279.526 170.648 278.734C171.357 277.943 172.307 277.547 173.5 277.547C174.672 277.547 175.602 277.924 176.289 278.68C176.977 279.43 177.32 280.435 177.32 281.695V282.328H171.531V282.445C171.531 283.112 171.719 283.648 172.094 284.055C172.474 284.461 172.982 284.664 173.617 284.664C174.065 284.664 174.451 284.562 174.773 284.359C175.102 284.151 175.318 283.872 175.422 283.523ZM193.609 286H191.797V278H191.742L188.484 285.906H187.109L183.852 278H183.797V286H181.977V274.727H184.312L187.766 283.234H187.828L191.281 274.727H193.609V286ZM198.977 279.055C198.435 279.055 197.982 279.242 197.617 279.617C197.258 279.987 197.057 280.464 197.016 281.047H200.883C200.862 280.458 200.677 279.979 200.328 279.609C199.979 279.24 199.529 279.055 198.977 279.055ZM200.891 283.523H202.711C202.586 284.31 202.188 284.948 201.516 285.438C200.844 285.922 200.021 286.164 199.047 286.164C197.807 286.164 196.833 285.784 196.125 285.023C195.417 284.258 195.062 283.214 195.062 281.891C195.062 280.578 195.414 279.526 196.117 278.734C196.826 277.943 197.776 277.547 198.969 277.547C200.141 277.547 201.07 277.924 201.758 278.68C202.445 279.43 202.789 280.435 202.789 281.695V282.328H197V282.445C197 283.112 197.188 283.648 197.562 284.055C197.943 284.461 198.451 284.664 199.086 284.664C199.534 284.664 199.919 284.562 200.242 284.359C200.57 284.151 200.786 283.872 200.891 283.523ZM204.047 286V277.719H205.914V279.156H205.953C206.135 278.667 206.435 278.279 206.852 277.992C207.268 277.706 207.755 277.562 208.312 277.562C208.896 277.562 209.388 277.708 209.789 278C210.195 278.286 210.474 278.695 210.625 279.227H210.672C210.87 278.716 211.198 278.312 211.656 278.016C212.12 277.714 212.651 277.562 213.25 277.562C214.068 277.562 214.721 277.815 215.211 278.32C215.706 278.826 215.953 279.492 215.953 280.32V286H214.008V280.797C214.008 280.286 213.878 279.893 213.617 279.617C213.362 279.341 212.997 279.203 212.523 279.203C212.055 279.203 211.674 279.359 211.383 279.672C211.091 279.984 210.945 280.388 210.945 280.883V286H209.055V280.695C209.055 280.237 208.922 279.875 208.656 279.609C208.396 279.339 208.039 279.203 207.586 279.203C207.117 279.203 206.734 279.367 206.438 279.695C206.141 280.018 205.992 280.43 205.992 280.93V286H204.047ZM222.148 286.133C221.549 286.133 221.021 285.997 220.562 285.727C220.109 285.456 219.76 285.076 219.516 284.586H219.477V286H217.57V274.727H219.516V279.141H219.562C219.797 278.651 220.141 278.268 220.594 277.992C221.047 277.716 221.565 277.578 222.148 277.578C223.195 277.578 224.026 277.964 224.641 278.734C225.255 279.5 225.562 280.542 225.562 281.859C225.562 283.182 225.255 284.227 224.641 284.992C224.031 285.753 223.201 286.133 222.148 286.133ZM221.547 279.18C220.943 279.18 220.451 279.427 220.07 279.922C219.695 280.411 219.508 281.057 219.508 281.859C219.508 282.667 219.695 283.315 220.07 283.805C220.451 284.294 220.943 284.539 221.547 284.539C222.172 284.539 222.664 284.299 223.023 283.82C223.388 283.336 223.57 282.682 223.57 281.859C223.57 281.036 223.388 280.385 223.023 279.906C222.659 279.422 222.167 279.18 221.547 279.18ZM230.398 279.055C229.857 279.055 229.404 279.242 229.039 279.617C228.68 279.987 228.479 280.464 228.438 281.047H232.305C232.284 280.458 232.099 279.979 231.75 279.609C231.401 279.24 230.951 279.055 230.398 279.055ZM232.312 283.523H234.133C234.008 284.31 233.609 284.948 232.938 285.438C232.266 285.922 231.443 286.164 230.469 286.164C229.229 286.164 228.255 285.784 227.547 285.023C226.839 284.258 226.484 283.214 226.484 281.891C226.484 280.578 226.836 279.526 227.539 278.734C228.247 277.943 229.198 277.547 230.391 277.547C231.562 277.547 232.492 277.924 233.18 278.68C233.867 279.43 234.211 280.435 234.211 281.695V282.328H228.422V282.445C228.422 283.112 228.609 283.648 228.984 284.055C229.365 284.461 229.872 284.664 230.508 284.664C230.956 284.664 231.341 284.562 231.664 284.359C231.992 284.151 232.208 283.872 232.312 283.523ZM235.469 286V277.719H237.336V279.164H237.375C237.516 278.659 237.758 278.268 238.102 277.992C238.451 277.716 238.87 277.578 239.359 277.578C239.531 277.578 239.734 277.604 239.969 277.656V279.414C239.776 279.341 239.513 279.305 239.18 279.305C238.628 279.305 238.195 279.471 237.883 279.805C237.57 280.138 237.414 280.596 237.414 281.18V286H235.469Z" fill="#464255"/>
<path d="M175.078 217.734V219H168.094V207.727H175.078V208.992H169.5V212.609H174.789V213.859H169.5V217.734H175.078ZM176.727 219V210.875H178.008V212.172H178.039C178.237 211.729 178.536 211.38 178.938 211.125C179.339 210.865 179.807 210.734 180.344 210.734C180.896 210.734 181.37 210.87 181.766 211.141C182.161 211.406 182.448 211.786 182.625 212.281H182.656C182.88 211.797 183.216 211.419 183.664 211.148C184.117 210.872 184.63 210.734 185.203 210.734C186.005 210.734 186.646 210.977 187.125 211.461C187.609 211.94 187.852 212.583 187.852 213.391V219H186.492V213.703C186.492 213.146 186.344 212.714 186.047 212.406C185.755 212.094 185.341 211.938 184.805 211.938C184.268 211.938 183.828 212.117 183.484 212.477C183.141 212.831 182.969 213.284 182.969 213.836V219H181.609V213.555C181.609 213.065 181.458 212.674 181.156 212.383C180.854 212.086 180.451 211.938 179.945 211.938C179.409 211.938 178.964 212.125 178.609 212.5C178.26 212.875 178.086 213.344 178.086 213.906V219H176.727ZM193.531 210.734C194.573 210.734 195.411 211.117 196.047 211.883C196.688 212.648 197.008 213.667 197.008 214.938C197.008 216.203 196.69 217.221 196.055 217.992C195.419 218.758 194.589 219.141 193.562 219.141C192.99 219.141 192.477 219.01 192.023 218.75C191.57 218.49 191.221 218.133 190.977 217.68H190.945V221.711H189.586V210.875H190.875V212.25H190.906C191.161 211.781 191.518 211.411 191.977 211.141C192.435 210.87 192.953 210.734 193.531 210.734ZM193.266 217.945C193.99 217.945 194.562 217.674 194.984 217.133C195.406 216.591 195.617 215.859 195.617 214.938C195.617 214.016 195.406 213.284 194.984 212.742C194.562 212.201 193.99 211.93 193.266 211.93C192.568 211.93 192.005 212.206 191.578 212.758C191.151 213.31 190.938 214.036 190.938 214.938C190.938 215.844 191.151 216.573 191.578 217.125C192.005 217.672 192.568 217.945 193.266 217.945ZM198.453 219V207.727H199.812V219H198.453ZM205.016 219.141C203.88 219.141 202.969 218.763 202.281 218.008C201.594 217.247 201.25 216.224 201.25 214.938C201.25 213.651 201.594 212.63 202.281 211.875C202.969 211.115 203.88 210.734 205.016 210.734C206.146 210.734 207.055 211.115 207.742 211.875C208.43 212.63 208.773 213.651 208.773 214.938C208.773 216.219 208.43 217.24 207.742 218C207.055 218.76 206.146 219.141 205.016 219.141ZM203.273 217.148C203.706 217.68 204.286 217.945 205.016 217.945C205.745 217.945 206.323 217.682 206.75 217.156C207.177 216.625 207.391 215.885 207.391 214.938C207.391 213.99 207.177 213.253 206.75 212.727C206.323 212.195 205.745 211.93 205.016 211.93C204.286 211.93 203.706 212.195 203.273 212.727C202.846 213.258 202.633 213.995 202.633 214.938C202.633 215.88 202.846 216.617 203.273 217.148ZM210.586 222.039C210.346 222.039 210.151 222.023 210 221.992V220.852C210.125 220.878 210.302 220.891 210.531 220.891C210.911 220.891 211.216 220.789 211.445 220.586C211.674 220.388 211.867 220.052 212.023 219.578L212.211 219.008L209.211 210.875H210.664L212.914 217.641H212.938L215.188 210.875H216.617L213.422 219.57C213.073 220.518 212.695 221.167 212.289 221.516C211.888 221.865 211.32 222.039 210.586 222.039ZM220.719 211.914C220.089 211.914 219.565 212.133 219.148 212.57C218.737 213.003 218.51 213.56 218.469 214.242H222.883C222.867 213.555 222.661 212.995 222.266 212.562C221.87 212.13 221.354 211.914 220.719 211.914ZM222.852 216.672H224.188C224.068 217.391 223.693 217.982 223.062 218.445C222.438 218.909 221.685 219.141 220.805 219.141C219.643 219.141 218.729 218.766 218.062 218.016C217.396 217.266 217.062 216.25 217.062 214.969C217.062 213.698 217.396 212.674 218.062 211.898C218.734 211.122 219.628 210.734 220.742 210.734C221.836 210.734 222.701 211.102 223.336 211.836C223.971 212.57 224.289 213.555 224.289 214.789V215.305H218.461V215.383C218.461 216.164 218.674 216.789 219.102 217.258C219.529 217.727 220.107 217.961 220.836 217.961C221.346 217.961 221.781 217.844 222.141 217.609C222.5 217.375 222.737 217.062 222.852 216.672ZM228.922 211.914C228.292 211.914 227.768 212.133 227.352 212.57C226.94 213.003 226.714 213.56 226.672 214.242H231.086C231.07 213.555 230.865 212.995 230.469 212.562C230.073 212.13 229.557 211.914 228.922 211.914ZM231.055 216.672H232.391C232.271 217.391 231.896 217.982 231.266 218.445C230.641 218.909 229.888 219.141 229.008 219.141C227.846 219.141 226.932 218.766 226.266 218.016C225.599 217.266 225.266 216.25 225.266 214.969C225.266 213.698 225.599 212.674 226.266 211.898C226.938 211.122 227.831 210.734 228.945 210.734C230.039 210.734 230.904 211.102 231.539 211.836C232.174 212.57 232.492 213.555 232.492 214.789V215.305H226.664V215.383C226.664 216.164 226.878 216.789 227.305 217.258C227.732 217.727 228.31 217.961 229.039 217.961C229.549 217.961 229.984 217.844 230.344 217.609C230.703 217.375 230.94 217.062 231.055 216.672ZM233.727 213.117C233.727 212.419 234.008 211.849 234.57 211.406C235.138 210.958 235.867 210.734 236.758 210.734C237.596 210.734 238.294 210.958 238.852 211.406C239.409 211.854 239.703 212.422 239.734 213.109H238.438C238.391 212.714 238.214 212.404 237.906 212.18C237.604 211.956 237.206 211.844 236.711 211.844C236.216 211.844 235.818 211.956 235.516 212.18C235.214 212.398 235.062 212.688 235.062 213.047C235.062 213.599 235.513 213.99 236.414 214.219L237.672 214.523C238.49 214.732 239.065 215.003 239.398 215.336C239.737 215.664 239.906 216.128 239.906 216.727C239.906 217.435 239.604 218.016 239 218.469C238.396 218.917 237.62 219.141 236.672 219.141C235.786 219.141 235.055 218.922 234.477 218.484C233.904 218.042 233.581 217.458 233.508 216.734H234.867C235.018 217.599 235.648 218.031 236.758 218.031C237.305 218.031 237.737 217.924 238.055 217.711C238.378 217.492 238.539 217.198 238.539 216.828C238.539 216.536 238.443 216.305 238.25 216.133C238.062 215.961 237.742 215.815 237.289 215.695L235.859 215.328C234.438 214.964 233.727 214.227 233.727 213.117Z" fill="#464255"/>
<path d="M321.734 219.188C320.177 219.188 318.94 218.664 318.023 217.617C317.112 216.565 316.656 215.146 316.656 213.359C316.656 211.589 317.117 210.177 318.039 209.125C318.961 208.068 320.193 207.539 321.734 207.539C322.964 207.539 324.005 207.883 324.859 208.57C325.719 209.253 326.237 210.156 326.414 211.281H324.992C324.81 210.542 324.422 209.951 323.828 209.508C323.234 209.06 322.536 208.836 321.734 208.836C320.635 208.836 319.755 209.247 319.094 210.07C318.432 210.893 318.102 211.99 318.102 213.359C318.102 214.745 318.43 215.846 319.086 216.664C319.742 217.482 320.628 217.891 321.742 217.891C322.57 217.891 323.268 217.701 323.836 217.32C324.404 216.94 324.789 216.406 324.992 215.719H326.414C326.154 216.833 325.62 217.69 324.812 218.289C324.005 218.888 322.979 219.188 321.734 219.188ZM327.938 219V207.727H329.297V219H327.938ZM331.203 219V210.875H332.562V219H331.203ZM331.883 209.508C331.654 209.508 331.456 209.424 331.289 209.258C331.122 209.091 331.039 208.893 331.039 208.664C331.039 208.43 331.122 208.232 331.289 208.07C331.456 207.904 331.654 207.82 331.883 207.82C332.117 207.82 332.318 207.904 332.484 208.07C332.651 208.232 332.734 208.43 332.734 208.664C332.734 208.893 332.651 209.091 332.484 209.258C332.318 209.424 332.117 209.508 331.883 209.508ZM337.656 211.914C337.026 211.914 336.503 212.133 336.086 212.57C335.674 213.003 335.448 213.56 335.406 214.242H339.82C339.805 213.555 339.599 212.995 339.203 212.562C338.807 212.13 338.292 211.914 337.656 211.914ZM339.789 216.672H341.125C341.005 217.391 340.63 217.982 340 218.445C339.375 218.909 338.622 219.141 337.742 219.141C336.581 219.141 335.667 218.766 335 218.016C334.333 217.266 334 216.25 334 214.969C334 213.698 334.333 212.674 335 211.898C335.672 211.122 336.565 210.734 337.68 210.734C338.773 210.734 339.638 211.102 340.273 211.836C340.909 212.57 341.227 213.555 341.227 214.789V215.305H335.398V215.383C335.398 216.164 335.612 216.789 336.039 217.258C336.466 217.727 337.044 217.961 337.773 217.961C338.284 217.961 338.719 217.844 339.078 217.609C339.438 217.375 339.674 217.062 339.789 216.672ZM342.602 219V210.875H343.883V212.172H343.914C344.148 211.719 344.484 211.367 344.922 211.117C345.359 210.862 345.883 210.734 346.492 210.734C347.378 210.734 348.068 211.003 348.562 211.539C349.057 212.07 349.305 212.799 349.305 213.727V219H347.945V213.969C347.945 213.307 347.789 212.805 347.477 212.461C347.164 212.112 346.698 211.938 346.078 211.938C345.438 211.938 344.924 212.146 344.539 212.562C344.154 212.979 343.961 213.531 343.961 214.219V219H342.602ZM351.477 208.914H352.836V210.875H354.414V211.992H352.836V216.82C352.836 217.19 352.917 217.464 353.078 217.641C353.24 217.812 353.495 217.898 353.844 217.898C354.062 217.898 354.25 217.885 354.406 217.859V219C354.229 219.042 353.943 219.062 353.547 219.062C352.802 219.062 352.271 218.896 351.953 218.562C351.635 218.229 351.477 217.672 351.477 216.891V211.992H350.266V210.875H351.477V208.914Z" fill="#464255"/>
<path d="M135.625 403H133.812V395H133.758L130.5 402.906H129.125L125.867 395H125.812V403H123.992V391.727H126.328L129.781 400.234H129.844L133.297 391.727H135.625V403ZM140.992 396.055C140.451 396.055 139.997 396.242 139.633 396.617C139.273 396.987 139.073 397.464 139.031 398.047H142.898C142.878 397.458 142.693 396.979 142.344 396.609C141.995 396.24 141.544 396.055 140.992 396.055ZM142.906 400.523H144.727C144.602 401.31 144.203 401.948 143.531 402.438C142.859 402.922 142.036 403.164 141.062 403.164C139.823 403.164 138.849 402.784 138.141 402.023C137.432 401.258 137.078 400.214 137.078 398.891C137.078 397.578 137.43 396.526 138.133 395.734C138.841 394.943 139.792 394.547 140.984 394.547C142.156 394.547 143.086 394.924 143.773 395.68C144.461 396.43 144.805 397.435 144.805 398.695V399.328H139.016V399.445C139.016 400.112 139.203 400.648 139.578 401.055C139.958 401.461 140.466 401.664 141.102 401.664C141.549 401.664 141.935 401.562 142.258 401.359C142.586 401.151 142.802 400.872 142.906 400.523ZM145.914 397.094C145.914 396.333 146.221 395.719 146.836 395.25C147.451 394.781 148.26 394.547 149.266 394.547C150.234 394.547 151.021 394.786 151.625 395.266C152.234 395.74 152.552 396.359 152.578 397.125H150.766C150.734 396.766 150.583 396.484 150.312 396.281C150.042 396.078 149.68 395.977 149.227 395.977C148.799 395.977 148.456 396.07 148.195 396.258C147.935 396.44 147.805 396.682 147.805 396.984C147.805 397.443 148.201 397.768 148.992 397.961L150.469 398.289C151.297 398.482 151.888 398.753 152.242 399.102C152.596 399.451 152.773 399.932 152.773 400.547C152.773 401.328 152.445 401.961 151.789 402.445C151.133 402.924 150.281 403.164 149.234 403.164C148.203 403.164 147.372 402.93 146.742 402.461C146.117 401.987 145.771 401.354 145.703 400.562H147.617C147.674 400.943 147.846 401.234 148.133 401.438C148.424 401.641 148.815 401.742 149.305 401.742C149.779 401.742 150.151 401.654 150.422 401.477C150.698 401.294 150.836 401.049 150.836 400.742C150.836 400.503 150.75 400.312 150.578 400.172C150.411 400.026 150.128 399.901 149.727 399.797L148.219 399.445C146.682 399.086 145.914 398.302 145.914 397.094ZM153.867 397.094C153.867 396.333 154.174 395.719 154.789 395.25C155.404 394.781 156.214 394.547 157.219 394.547C158.188 394.547 158.974 394.786 159.578 395.266C160.188 395.74 160.505 396.359 160.531 397.125H158.719C158.688 396.766 158.536 396.484 158.266 396.281C157.995 396.078 157.633 395.977 157.18 395.977C156.753 395.977 156.409 396.07 156.148 396.258C155.888 396.44 155.758 396.682 155.758 396.984C155.758 397.443 156.154 397.768 156.945 397.961L158.422 398.289C159.25 398.482 159.841 398.753 160.195 399.102C160.549 399.451 160.727 399.932 160.727 400.547C160.727 401.328 160.398 401.961 159.742 402.445C159.086 402.924 158.234 403.164 157.188 403.164C156.156 403.164 155.326 402.93 154.695 402.461C154.07 401.987 153.724 401.354 153.656 400.562H155.57C155.628 400.943 155.799 401.234 156.086 401.438C156.378 401.641 156.768 401.742 157.258 401.742C157.732 401.742 158.104 401.654 158.375 401.477C158.651 401.294 158.789 401.049 158.789 400.742C158.789 400.503 158.703 400.312 158.531 400.172C158.365 400.026 158.081 399.901 157.68 399.797L156.172 399.445C154.635 399.086 153.867 398.302 153.867 397.094ZM164.992 401.664C165.549 401.664 166.018 401.5 166.398 401.172C166.784 400.839 166.977 400.424 166.977 399.93V399.297L165.062 399.414C164.594 399.445 164.229 399.562 163.969 399.766C163.714 399.964 163.586 400.227 163.586 400.555C163.586 400.893 163.714 401.164 163.969 401.367C164.229 401.565 164.57 401.664 164.992 401.664ZM164.406 403.133C163.599 403.133 162.935 402.901 162.414 402.438C161.898 401.974 161.641 401.372 161.641 400.633C161.641 399.898 161.911 399.318 162.453 398.891C163 398.464 163.779 398.219 164.789 398.156L166.977 398.031V397.438C166.977 397.005 166.839 396.669 166.562 396.43C166.292 396.19 165.914 396.07 165.43 396.07C164.977 396.07 164.607 396.172 164.32 396.375C164.034 396.578 163.859 396.854 163.797 397.203H161.992C162.034 396.417 162.37 395.779 163 395.289C163.635 394.794 164.471 394.547 165.508 394.547C166.534 394.547 167.354 394.797 167.969 395.297C168.589 395.797 168.898 396.464 168.898 397.297V403H167.023V401.68H166.984C166.75 402.122 166.396 402.477 165.922 402.742C165.448 403.003 164.943 403.133 164.406 403.133ZM174.125 401.461C174.75 401.461 175.247 401.227 175.617 400.758C175.987 400.284 176.172 399.643 176.172 398.836C176.172 398.029 175.984 397.385 175.609 396.906C175.24 396.422 174.745 396.18 174.125 396.18C173.51 396.18 173.021 396.419 172.656 396.898C172.297 397.378 172.117 398.023 172.117 398.836C172.117 399.654 172.297 400.297 172.656 400.766C173.021 401.229 173.51 401.461 174.125 401.461ZM174.117 406.125C173.102 406.125 172.253 405.891 171.57 405.422C170.893 404.958 170.505 404.359 170.406 403.625H172.336C172.44 403.943 172.659 404.198 172.992 404.391C173.326 404.589 173.721 404.688 174.18 404.688C174.805 404.688 175.292 404.526 175.641 404.203C175.995 403.885 176.172 403.458 176.172 402.922V401.523H176.125C175.906 401.977 175.565 402.339 175.102 402.609C174.643 402.875 174.12 403.008 173.531 403.008C172.5 403.008 171.674 402.633 171.055 401.883C170.435 401.128 170.125 400.109 170.125 398.828C170.125 397.521 170.435 396.487 171.055 395.727C171.674 394.961 172.513 394.578 173.57 394.578C174.154 394.578 174.674 394.719 175.133 395C175.591 395.276 175.94 395.656 176.18 396.141H176.211V394.719H178.117V402.867C178.117 403.857 177.753 404.646 177.023 405.234C176.294 405.828 175.326 406.125 174.117 406.125ZM183.273 396.055C182.732 396.055 182.279 396.242 181.914 396.617C181.555 396.987 181.354 397.464 181.312 398.047H185.18C185.159 397.458 184.974 396.979 184.625 396.609C184.276 396.24 183.826 396.055 183.273 396.055ZM185.188 400.523H187.008C186.883 401.31 186.484 401.948 185.812 402.438C185.141 402.922 184.318 403.164 183.344 403.164C182.104 403.164 181.13 402.784 180.422 402.023C179.714 401.258 179.359 400.214 179.359 398.891C179.359 397.578 179.711 396.526 180.414 395.734C181.122 394.943 182.073 394.547 183.266 394.547C184.438 394.547 185.367 394.924 186.055 395.68C186.742 396.43 187.086 397.435 187.086 398.695V399.328H181.297V399.445C181.297 400.112 181.484 400.648 181.859 401.055C182.24 401.461 182.747 401.664 183.383 401.664C183.831 401.664 184.216 401.562 184.539 401.359C184.867 401.151 185.083 400.872 185.188 400.523Z" fill="#464255"/>
<rect x="782" y="101.152" width="19" height="3" rx="1.5" transform="rotate(-45 782 101.152)" fill="black"/>
<rect x="784.121" y="87.7188" width="19" height="3" rx="1.5" transform="rotate(45 784.121 87.7188)" fill="black"/>
<path fill-rule="evenodd" clip-rule="evenodd" d="M685 438C684.448 438 684 438.448 684 439V441H682C681.448 441 681 441.448 681 442C681 442.552 681.448 443 682 443H684V445C684 445.552 684.448 446 685 446C685.552 446 686 445.552 686 445V443H688C688.552 443 689 442.552 689 442C689 441.448 688.552 441 688 441H686V439C686 438.448 685.552 438 685 438Z" fill="white"/>
<path d="M123.011 127.111H126.248C126.365 128.156 126.888 128.996 127.815 129.631C128.743 130.266 129.905 130.583 131.302 130.583C132.63 130.583 133.724 130.275 134.583 129.66C135.452 129.045 135.887 128.264 135.887 127.316C135.887 126.496 135.579 125.827 134.964 125.31C134.349 124.782 133.357 124.353 131.99 124.021L129.251 123.361C127.308 122.893 125.872 122.194 124.944 121.267C124.026 120.339 123.567 119.138 123.567 117.663C123.567 115.847 124.28 114.367 125.706 113.225C127.142 112.082 128.992 111.511 131.258 111.511C133.484 111.511 135.301 112.082 136.707 113.225C138.113 114.357 138.841 115.837 138.89 117.663H135.696C135.599 116.618 135.145 115.793 134.334 115.188C133.533 114.582 132.493 114.279 131.214 114.279C129.944 114.279 128.909 114.572 128.108 115.158C127.317 115.744 126.922 116.506 126.922 117.443C126.922 118.186 127.22 118.796 127.815 119.274C128.411 119.743 129.393 120.148 130.76 120.49L133.089 121.062C135.257 121.569 136.819 122.287 137.776 123.215C138.743 124.133 139.227 125.368 139.227 126.921C139.227 128.894 138.494 130.461 137.029 131.623C135.564 132.775 133.577 133.352 131.067 133.352C128.714 133.352 126.805 132.79 125.34 131.667C123.885 130.534 123.108 129.016 123.011 127.111ZM142.713 113.942H145.892V117.59H148.821V120.095H145.892V128.591C145.892 129.255 146.043 129.743 146.346 130.056C146.648 130.368 147.122 130.524 147.767 130.524C148.235 130.524 148.582 130.5 148.807 130.451V132.956C148.416 133.054 147.83 133.103 147.049 133.103C145.496 133.103 144.383 132.785 143.709 132.15C143.045 131.506 142.713 130.437 142.713 128.942V120.095H140.472V117.59H142.713V113.942ZM156.585 130.759C157.698 130.759 158.631 130.422 159.383 129.748C160.145 129.064 160.525 128.225 160.525 127.229V126.013L156.731 126.247C155.784 126.315 155.052 126.55 154.534 126.95C154.026 127.341 153.772 127.868 153.772 128.532C153.772 129.206 154.026 129.748 154.534 130.158C155.052 130.559 155.735 130.759 156.585 130.759ZM155.706 133.264C154.192 133.264 152.957 132.834 152 131.975C151.053 131.115 150.579 129.997 150.579 128.62C150.579 127.272 151.077 126.203 152.073 125.412C153.069 124.611 154.48 124.162 156.307 124.064L160.525 123.815V122.629C160.525 121.77 160.252 121.101 159.705 120.622C159.158 120.134 158.401 119.89 157.435 119.89C156.536 119.89 155.804 120.09 155.237 120.49C154.681 120.891 154.329 121.442 154.183 122.146H151.194C151.282 120.72 151.897 119.558 153.04 118.659C154.183 117.761 155.687 117.312 157.552 117.312C159.417 117.312 160.901 117.771 162.005 118.688C163.118 119.606 163.675 120.837 163.675 122.38V133H160.643V130.466H160.569C160.13 131.315 159.461 131.994 158.562 132.502C157.674 133.01 156.722 133.264 155.706 133.264ZM166.751 133V117.59H169.769V120.212H169.842C170.096 119.313 170.55 118.61 171.204 118.103C171.858 117.595 172.64 117.341 173.548 117.341C173.851 117.341 174.212 117.38 174.632 117.458V120.402C174.349 120.285 173.875 120.227 173.211 120.227C172.195 120.227 171.39 120.544 170.794 121.179C170.208 121.813 169.915 122.678 169.915 123.771V133H166.751ZM177.518 113.942H180.696V117.59H183.626V120.095H180.696V128.591C180.696 129.255 180.848 129.743 181.15 130.056C181.453 130.368 181.927 130.524 182.571 130.524C183.04 130.524 183.387 130.5 183.611 130.451V132.956C183.221 133.054 182.635 133.103 181.854 133.103C180.301 133.103 179.188 132.785 178.514 132.15C177.85 131.506 177.518 130.437 177.518 128.942V120.095H175.276V117.59H177.518V113.942ZM201.629 133.352C198.66 133.352 196.302 132.37 194.554 130.407C192.815 128.444 191.946 125.783 191.946 122.424C191.946 119.084 192.82 116.433 194.568 114.47C196.316 112.497 198.67 111.511 201.629 111.511C204.031 111.511 206.058 112.189 207.708 113.547C209.358 114.895 210.32 116.667 210.594 118.864H207.342C207.049 117.507 206.38 116.423 205.335 115.612C204.3 114.792 203.064 114.382 201.629 114.382C199.705 114.382 198.167 115.114 197.015 116.579C195.872 118.034 195.301 119.982 195.301 122.424C195.301 124.895 195.872 126.857 197.015 128.312C198.157 129.758 199.7 130.48 201.644 130.48C203.108 130.48 204.339 130.124 205.335 129.411C206.341 128.698 207.01 127.702 207.342 126.423H210.608C210.208 128.61 209.217 130.314 207.635 131.535C206.062 132.746 204.061 133.352 201.629 133.352ZM225.125 131.154C223.797 132.58 222.024 133.293 219.808 133.293C217.591 133.293 215.818 132.58 214.49 131.154C213.162 129.719 212.498 127.766 212.498 125.295C212.498 122.834 213.162 120.891 214.49 119.465C215.818 118.029 217.591 117.312 219.808 117.312C222.024 117.312 223.797 118.029 225.125 119.465C226.453 120.891 227.117 122.834 227.117 125.295C227.117 127.766 226.453 129.719 225.125 131.154ZM219.808 130.686C221.067 130.686 222.063 130.212 222.796 129.265C223.528 128.317 223.895 126.994 223.895 125.295C223.895 123.605 223.523 122.287 222.781 121.34C222.049 120.393 221.058 119.919 219.808 119.919C218.558 119.919 217.562 120.393 216.819 121.34C216.087 122.287 215.721 123.605 215.721 125.295C215.721 126.994 216.087 128.317 216.819 129.265C217.562 130.212 218.558 130.686 219.808 130.686ZM229.563 133V117.59H232.581V120.168H232.654C233.084 119.27 233.709 118.571 234.529 118.073C235.35 117.575 236.341 117.326 237.503 117.326C239.192 117.326 240.506 117.834 241.443 118.85C242.381 119.855 242.85 121.247 242.85 123.024V133H239.671V123.64C239.671 122.468 239.393 121.579 238.836 120.974C238.289 120.358 237.474 120.051 236.39 120.051C235.276 120.051 234.388 120.412 233.724 121.135C233.06 121.857 232.728 122.819 232.728 124.021V133H229.563ZM259.065 117.59L253.543 133H250.145L244.593 117.59H247.962L251.829 129.909H251.888L255.755 117.59H259.065ZM269.568 120.974C268.875 120.231 267.981 119.86 266.888 119.86C265.794 119.86 264.886 120.236 264.163 120.988C263.44 121.73 263.04 122.692 262.962 123.874H270.667C270.628 122.683 270.262 121.716 269.568 120.974ZM270.652 128.474H273.655C273.431 129.89 272.708 131.047 271.487 131.945C270.267 132.844 268.777 133.293 267.02 133.293C264.764 133.293 262.986 132.585 261.688 131.169C260.398 129.743 259.754 127.81 259.754 125.368C259.754 122.946 260.398 120.998 261.688 119.523C262.986 118.049 264.72 117.312 266.888 117.312C269.017 117.312 270.706 118.01 271.956 119.406C273.206 120.793 273.831 122.658 273.831 125.002V126.086H262.947V126.276C262.947 127.624 263.323 128.703 264.075 129.514C264.827 130.324 265.833 130.729 267.093 130.729C267.981 130.729 268.743 130.524 269.378 130.114C270.013 129.704 270.438 129.157 270.652 128.474ZM276.292 133V117.59H279.31V120.212H279.383C279.637 119.313 280.091 118.61 280.745 118.103C281.399 117.595 282.181 117.341 283.089 117.341C283.392 117.341 283.753 117.38 284.173 117.458V120.402C283.89 120.285 283.416 120.227 282.752 120.227C281.736 120.227 280.931 120.544 280.335 121.179C279.749 121.813 279.456 122.678 279.456 123.771V133H276.292ZM285.857 121.955C285.857 120.578 286.414 119.46 287.527 118.601C288.641 117.741 290.096 117.312 291.893 117.312C293.602 117.312 295.003 117.746 296.097 118.615C297.2 119.475 297.776 120.593 297.825 121.97H294.852C294.773 121.267 294.466 120.715 293.929 120.314C293.392 119.914 292.684 119.714 291.805 119.714C290.945 119.714 290.252 119.904 289.725 120.285C289.207 120.666 288.948 121.159 288.948 121.765C288.948 122.702 289.734 123.366 291.307 123.757L293.899 124.357C295.452 124.729 296.551 125.236 297.195 125.881C297.85 126.516 298.177 127.404 298.177 128.547C298.177 129.953 297.581 131.096 296.39 131.975C295.208 132.854 293.67 133.293 291.775 133.293C289.969 133.293 288.494 132.863 287.352 132.004C286.219 131.145 285.589 130.002 285.462 128.576H288.597C288.724 129.318 289.07 129.89 289.637 130.29C290.203 130.681 290.965 130.876 291.922 130.876C292.869 130.876 293.616 130.695 294.163 130.334C294.72 129.963 294.998 129.465 294.998 128.84C294.998 128.342 294.832 127.946 294.5 127.653C294.168 127.36 293.602 127.111 292.801 126.906L290.047 126.232C287.254 125.559 285.857 124.133 285.857 121.955ZM306.028 130.759C307.142 130.759 308.074 130.422 308.826 129.748C309.588 129.064 309.969 128.225 309.969 127.229V126.013L306.175 126.247C305.228 126.315 304.495 126.55 303.978 126.95C303.47 127.341 303.216 127.868 303.216 128.532C303.216 129.206 303.47 129.748 303.978 130.158C304.495 130.559 305.179 130.759 306.028 130.759ZM305.149 133.264C303.636 133.264 302.4 132.834 301.443 131.975C300.496 131.115 300.022 129.997 300.022 128.62C300.022 127.272 300.521 126.203 301.517 125.412C302.513 124.611 303.924 124.162 305.75 124.064L309.969 123.815V122.629C309.969 121.77 309.695 121.101 309.148 120.622C308.602 120.134 307.845 119.89 306.878 119.89C305.979 119.89 305.247 120.09 304.681 120.49C304.124 120.891 303.772 121.442 303.626 122.146H300.638C300.726 120.72 301.341 119.558 302.483 118.659C303.626 117.761 305.13 117.312 306.995 117.312C308.86 117.312 310.345 117.771 311.448 118.688C312.562 119.606 313.118 120.837 313.118 122.38V133H310.086V130.466H310.013C309.573 131.315 308.904 131.994 308.006 132.502C307.117 133.01 306.165 133.264 305.149 133.264ZM317.117 113.942H320.296V117.59H323.226V120.095H320.296V128.591C320.296 129.255 320.447 129.743 320.75 130.056C321.053 130.368 321.526 130.524 322.171 130.524C322.64 130.524 322.986 130.5 323.211 130.451V132.956C322.82 133.054 322.234 133.103 321.453 133.103C319.9 133.103 318.787 132.785 318.113 132.15C317.449 131.506 317.117 130.437 317.117 128.942V120.095H314.876V117.59H317.117V113.942ZM325.936 133V117.59H329.1V133H325.936ZM328.821 114.807C328.46 115.158 328.025 115.334 327.518 115.334C327.01 115.334 326.575 115.158 326.214 114.807C325.862 114.455 325.687 114.03 325.687 113.532C325.687 113.024 325.862 112.595 326.214 112.243C326.575 111.892 327.01 111.716 327.518 111.716C328.035 111.716 328.47 111.892 328.821 112.243C329.183 112.595 329.363 113.024 329.363 113.532C329.363 114.03 329.183 114.455 328.821 114.807ZM344.275 131.154C342.947 132.58 341.175 133.293 338.958 133.293C336.741 133.293 334.969 132.58 333.641 131.154C332.312 129.719 331.648 127.766 331.648 125.295C331.648 122.834 332.312 120.891 333.641 119.465C334.969 118.029 336.741 117.312 338.958 117.312C341.175 117.312 342.947 118.029 344.275 119.465C345.604 120.891 346.268 122.834 346.268 125.295C346.268 127.766 345.604 129.719 344.275 131.154ZM338.958 130.686C340.218 130.686 341.214 130.212 341.946 129.265C342.679 128.317 343.045 126.994 343.045 125.295C343.045 123.605 342.674 122.287 341.932 121.34C341.199 120.393 340.208 119.919 338.958 119.919C337.708 119.919 336.712 120.393 335.97 121.34C335.237 122.287 334.871 123.605 334.871 125.295C334.871 126.994 335.237 128.317 335.97 129.265C336.712 130.212 337.708 130.686 338.958 130.686ZM348.714 133V117.59H351.731V120.168H351.805C352.234 119.27 352.859 118.571 353.68 118.073C354.5 117.575 355.491 117.326 356.653 117.326C358.343 117.326 359.656 117.834 360.594 118.85C361.531 119.855 362 121.247 362 123.024V133H358.821V123.64C358.821 122.468 358.543 121.579 357.986 120.974C357.439 120.358 356.624 120.051 355.54 120.051C354.427 120.051 353.538 120.412 352.874 121.135C352.21 121.857 351.878 122.819 351.878 124.021V133H348.714Z" fill="#464255"/>
</g>
<defs>
<filter id="filter0_d" x="0" y="0" width="901" height="714" filterUnits="userSpaceOnUse" color-interpolation-filters="sRGB">
<feFlood flood-opacity="0" result="BackgroundImageFix"/>
<feColorMatrix in="SourceAlpha" type="matrix" values="0 0 0 0 0 0 0 0 0 0 0 0 0 0 0 0 0 0 127 0" result="hardAlpha"/>
<feOffset dy="16"/>
<feGaussianBlur stdDeviation="39"/>
<feComposite in2="hardAlpha" operator="out"/>
<feColorMatrix type="matrix" values="0 0 0 0 0 0 0 0 0 0 0 0 0 0 0 0 0 0 0.15 0"/>
<feBlend mode="normal" in2="BackgroundImageFix" result="effect1_dropShadow"/>
<feBlend mode="normal" in="SourceGraphic" in2="effect1_dropShadow" result="shape"/>
</filter>
</defs>
</svg>
