<svg width="845" height="762" viewBox="0 0 845 762" fill="none" xmlns="http://www.w3.org/2000/svg">
<g filter="url(#filter0_d)">
<rect x="116" y="62" width="651" height="606" fill="white"/>
<path d="M78 220C78 216.686 80.6863 214 84 214H116V252H84C80.6863 252 78 249.314 78 246V220Z" fill="white"/>
<path d="M89.0283 234L102.488 234L97.0378 239.287C96.8441 239.475 96.7354 239.73 96.7354 239.997C96.7354 240.263 96.8441 240.518 97.0378 240.706C97.2314 240.894 97.494 241 97.7679 241C98.0417 241 98.3043 240.894 98.4979 240.706L105.696 233.71C105.792 233.618 105.869 233.507 105.921 233.385C105.973 233.263 106 233.133 106 233.001C106 232.869 105.973 232.738 105.921 232.617C105.869 232.495 105.792 232.384 105.696 232.291L98.4979 225.296C98.4023 225.202 98.2886 225.128 98.1633 225.077C98.038 225.026 97.9036 225 97.7679 225C97.6321 225 97.4977 225.026 97.3724 225.077C97.2471 225.128 97.1334 225.202 97.0378 225.296C96.9414 225.389 96.8649 225.499 96.8127 225.621C96.7605 225.743 96.7336 225.873 96.7336 226.005C96.7336 226.137 96.7605 226.268 96.8127 226.39C96.8649 226.511 96.9414 226.622 97.0378 226.715L102.488 232.001L89.0283 232.001C88.7556 232.001 88.494 232.107 88.3012 232.294C88.1083 232.482 88 232.736 88 233.001C88 233.266 88.1083 233.52 88.3012 233.708C88.494 233.895 88.7556 234 89.0283 234Z" fill="#3546AB"/>
<rect x="273" y="590" width="105" height="38" rx="6" fill="#D7D9E6"/>
<path d="M312.493 607.266C312.493 608.148 312.003 608.722 310.911 608.722H309.273V605.852H310.911C312.003 605.852 312.493 606.398 312.493 607.266ZM307.313 604.228V614H309.273V610.192H310.197L312.353 614H314.621L312.283 610.038C313.851 609.618 314.509 608.414 314.509 607.224C314.509 605.586 313.333 604.228 310.981 604.228H307.313ZM319.613 607.728C320.621 607.728 321.433 608.372 321.461 609.394H317.779C317.933 608.33 318.675 607.728 319.613 607.728ZM323.295 611.564H321.181C320.929 612.082 320.467 612.502 319.627 612.502C318.647 612.502 317.863 611.858 317.765 610.71H323.435C323.477 610.458 323.491 610.206 323.491 609.954C323.491 607.644 321.909 606.118 319.669 606.118C317.373 606.118 315.777 607.672 315.777 610.122C315.777 612.558 317.415 614.126 319.669 614.126C321.587 614.126 322.875 612.992 323.295 611.564ZM330.942 611.788C330.886 608.946 326.588 609.828 326.588 608.414C326.588 607.966 326.966 607.672 327.694 607.672C328.464 607.672 328.94 608.078 328.996 608.68H330.872C330.76 607.14 329.626 606.118 327.75 606.118C325.832 606.118 324.684 607.154 324.684 608.442C324.684 611.284 329.066 610.402 329.066 611.788C329.066 612.236 328.646 612.586 327.876 612.586C327.092 612.586 326.546 612.138 326.476 611.55H324.502C324.586 612.992 325.944 614.126 327.89 614.126C329.78 614.126 330.942 613.118 330.942 611.788ZM335.883 607.728C336.891 607.728 337.703 608.372 337.731 609.394H334.049C334.203 608.33 334.945 607.728 335.883 607.728ZM339.565 611.564H337.451C337.199 612.082 336.737 612.502 335.897 612.502C334.917 612.502 334.133 611.858 334.035 610.71H339.705C339.747 610.458 339.761 610.206 339.761 609.954C339.761 607.644 338.179 606.118 335.939 606.118C333.643 606.118 332.047 607.672 332.047 610.122C332.047 612.558 333.685 614.126 335.939 614.126C337.857 614.126 339.145 612.992 339.565 611.564ZM341.5 611.592C341.5 613.37 342.494 614 343.978 614H345.21V612.348H344.3C343.684 612.348 343.474 612.124 343.474 611.606V607.854H345.21V606.244H343.474V604.326H341.5V606.244H340.576V607.854H341.5V611.592Z" fill="#464255"/>
<rect x="157" y="590" width="106" height="38" rx="6" fill="#3546AB"/>
<path d="M208.602 614H210.674L207.16 604.214H204.878L201.364 614H203.422L204.066 612.138H207.958L208.602 614ZM207.426 610.57H204.598L206.012 606.482L207.426 610.57ZM213.947 607.364V606.244H211.987V617.696H213.947V612.894C214.423 613.524 215.291 614.126 216.509 614.126C218.497 614.126 220.051 612.516 220.051 610.094C220.051 607.672 218.497 606.118 216.509 606.118C215.305 606.118 214.409 606.706 213.947 607.364ZM218.049 610.094C218.049 611.564 217.055 612.404 215.991 612.404C214.941 612.404 213.947 611.592 213.947 610.122C213.947 608.652 214.941 607.84 215.991 607.84C217.055 607.84 218.049 608.624 218.049 610.094ZM223.436 607.364V606.244H221.476V617.696H223.436V612.894C223.912 613.524 224.78 614.126 225.998 614.126C227.986 614.126 229.54 612.516 229.54 610.094C229.54 607.672 227.986 606.118 225.998 606.118C224.794 606.118 223.898 606.706 223.436 607.364ZM227.538 610.094C227.538 611.564 226.544 612.404 225.48 612.404C224.43 612.404 223.436 611.592 223.436 610.122C223.436 608.652 224.43 607.84 225.48 607.84C226.544 607.84 227.538 608.624 227.538 610.094ZM230.964 614H232.924V603.64H230.964V614ZM238.165 611.662L236.163 606.244H233.965L237.073 613.804L235.393 617.668H237.479L242.281 606.244H240.195L238.165 611.662Z" fill="white"/>
<path d="M190.608 603.511C190.336 603.207 189.957 603.024 189.552 603.002C189.147 602.981 188.751 603.123 188.45 603.397L181.244 612.325L178.628 609.635C178.487 609.487 178.318 609.369 178.132 609.288C177.945 609.207 177.745 609.165 177.542 609.163C177.339 609.161 177.137 609.2 176.95 609.278C176.762 609.355 176.591 609.47 176.448 609.615C176.304 609.76 176.191 609.933 176.114 610.123C176.037 610.313 175.998 610.516 176 610.722C176.002 610.927 176.044 611.13 176.124 611.318C176.204 611.507 176.321 611.677 176.467 611.82L180.108 615.548C180.385 615.827 180.757 615.989 181.149 615.999C181.54 616.01 181.92 615.868 182.211 615.603L190.495 605.693C190.796 605.419 190.977 605.035 190.998 604.626C191.019 604.217 190.879 603.816 190.608 603.511Z" fill="white"/>
<rect x="116" y="169" width="651" height="1" fill="#E6E7F4"/>
<rect x="157.5" y="353.5" width="575" height="59" rx="17.5" fill="#F9FBFD" fill-opacity="0.3" stroke="#D7D9E5"/>
<rect x="157.5" y="478.5" width="575" height="59" rx="17.5" fill="#F9FBFD" fill-opacity="0.3" stroke="#D7D9E5"/>
<path d="M703.007 387C703.151 386.999 703.289 386.937 703.392 386.829L708.847 381.002C708.946 380.892 709.001 380.745 709 380.592C708.999 380.439 708.941 380.293 708.84 380.185C708.739 380.077 708.602 380.016 708.459 380.014C708.316 380.013 708.178 380.072 708.076 380.178L703.007 385.593L697.938 380.178C697.887 380.122 697.827 380.078 697.761 380.047C697.694 380.017 697.623 380.001 697.55 380C697.478 379.999 697.406 380.014 697.339 380.043C697.272 380.073 697.211 380.116 697.16 380.171C697.109 380.225 697.068 380.29 697.041 380.362C697.013 380.434 696.999 380.51 697 380.588C697.001 380.665 697.016 380.742 697.044 380.813C697.073 380.884 697.114 380.948 697.167 381.002L702.621 386.829C702.724 386.937 702.862 386.999 703.007 387Z" fill="#464255" stroke="#AAABB5"/>
<path d="M703.007 512C703.151 511.999 703.289 511.937 703.392 511.829L708.847 506.002C708.946 505.892 709.001 505.745 709 505.592C708.999 505.439 708.941 505.293 708.84 505.185C708.739 505.077 708.602 505.016 708.459 505.014C708.316 505.013 708.178 505.072 708.076 505.178L703.007 510.593L697.938 505.178C697.887 505.122 697.827 505.078 697.761 505.047C697.694 505.017 697.623 505.001 697.55 505C697.478 504.999 697.406 505.014 697.339 505.043C697.272 505.073 697.211 505.116 697.16 505.171C697.109 505.225 697.068 505.29 697.041 505.362C697.013 505.434 696.999 505.51 697 505.588C697.001 505.665 697.016 505.742 697.044 505.813C697.073 505.884 697.114 505.948 697.167 506.002L702.621 511.829C702.724 511.937 702.862 511.999 703.007 512Z" fill="#464255" stroke="#AAABB5"/>
<rect x="156.5" y="233.5" width="576" height="59" rx="17.5" fill="#F9FBFD" fill-opacity="0.3" stroke="#D7D9E5"/>
<path d="M163.42 212.34C163.42 208.728 158.156 210.296 158.156 207.776C158.156 206.726 158.982 206.18 160.032 206.208C161.222 206.222 161.838 206.964 161.922 207.622H163.322C163.168 206.138 161.95 205.116 160.088 205.116C158.156 205.116 156.854 206.208 156.854 207.818C156.854 211.444 162.132 209.764 162.132 212.396C162.132 213.32 161.404 214.02 160.172 214.02C158.814 214.02 158.24 213.208 158.156 212.396H156.798C156.826 214.006 158.212 215.098 160.172 215.098C162.286 215.098 163.42 213.726 163.42 212.34ZM168.557 208.28C169.873 208.28 170.993 209.106 170.979 210.604H166.135C166.275 209.106 167.311 208.28 168.557 208.28ZM172.141 212.634H170.769C170.489 213.46 169.761 214.048 168.613 214.048C167.311 214.048 166.219 213.194 166.121 211.64H172.253C172.281 211.374 172.295 211.15 172.295 210.87C172.295 208.77 170.839 207.202 168.613 207.202C166.373 207.202 164.819 208.728 164.819 211.15C164.819 213.586 166.429 215.126 168.613 215.126C170.517 215.126 171.749 214.034 172.141 212.634ZM173.976 215H175.25V204.64H173.976V215ZM180.684 208.28C182 208.28 183.12 209.106 183.106 210.604H178.262C178.402 209.106 179.438 208.28 180.684 208.28ZM184.268 212.634H182.896C182.616 213.46 181.888 214.048 180.74 214.048C179.438 214.048 178.346 213.194 178.248 211.64H184.38C184.408 211.374 184.422 211.15 184.422 210.87C184.422 208.77 182.966 207.202 180.74 207.202C178.5 207.202 176.946 208.728 176.946 211.15C176.946 213.586 178.556 215.126 180.74 215.126C182.644 215.126 183.876 214.034 184.268 212.634ZM185.627 211.15C185.627 213.586 187.181 215.126 189.365 215.126C191.269 215.126 192.515 214.062 192.907 212.536H191.535C191.255 213.502 190.499 214.048 189.365 214.048C187.965 214.048 186.929 213.054 186.929 211.15C186.929 209.274 187.965 208.28 189.365 208.28C190.499 208.28 191.269 208.868 191.535 209.792H192.907C192.515 208.182 191.269 207.202 189.365 207.202C187.181 207.202 185.627 208.742 185.627 211.15ZM194.887 212.9C194.887 214.44 195.657 215 197.015 215H198.163V213.922H197.225C196.441 213.922 196.161 213.656 196.161 212.9V208.378H198.163V207.328H196.161V205.396H194.887V207.328H193.893V208.378H194.887V212.9ZM206.477 205.242H203.439V215H206.477C209.683 215 211.657 213.166 211.657 210.142C211.657 207.118 209.683 205.242 206.477 205.242ZM204.713 213.95V206.278H206.477C209.025 206.278 210.355 207.762 210.355 210.142C210.355 212.522 209.025 213.95 206.477 213.95H204.713ZM212.862 211.136C212.862 213.516 214.444 215.126 216.488 215.126C217.902 215.126 218.896 214.398 219.358 213.572V215H220.646V207.328H219.358V208.728C218.91 207.93 217.93 207.202 216.502 207.202C214.444 207.202 212.862 208.742 212.862 211.136ZM219.358 211.15C219.358 212.956 218.154 214.006 216.754 214.006C215.354 214.006 214.164 212.942 214.164 211.136C214.164 209.33 215.354 208.308 216.754 208.308C218.154 208.308 219.358 209.372 219.358 211.15ZM223.079 212.9C223.079 214.44 223.849 215 225.207 215H226.355V213.922H225.417C224.633 213.922 224.353 213.656 224.353 212.9V208.378H226.355V207.328H224.353V205.396H223.079V207.328H222.085V208.378H223.079V212.9ZM231.16 208.28C232.476 208.28 233.596 209.106 233.582 210.604H228.738C228.878 209.106 229.914 208.28 231.16 208.28ZM234.744 212.634H233.372C233.092 213.46 232.364 214.048 231.216 214.048C229.914 214.048 228.822 213.194 228.724 211.64H234.856C234.884 211.374 234.898 211.15 234.898 210.87C234.898 208.77 233.442 207.202 231.216 207.202C228.976 207.202 227.422 208.728 227.422 211.15C227.422 213.586 229.032 215.126 231.216 215.126C233.12 215.126 234.352 214.034 234.744 212.634ZM245.534 208.112C245.534 209.204 244.904 209.988 243.462 209.988H241.586V206.292H243.462C244.918 206.292 245.534 207.006 245.534 208.112ZM240.312 205.242V215H241.586V211.01H243.126L245.45 215H246.976L244.526 210.912C246.164 210.548 246.85 209.358 246.85 208.112C246.85 206.516 245.758 205.242 243.462 205.242H240.312ZM248.354 211.136C248.354 213.516 249.936 215.126 251.98 215.126C253.394 215.126 254.388 214.398 254.85 213.572V215H256.138V207.328H254.85V208.728C254.402 207.93 253.422 207.202 251.994 207.202C249.936 207.202 248.354 208.742 248.354 211.136ZM254.85 211.15C254.85 212.956 253.646 214.006 252.246 214.006C250.846 214.006 249.656 212.942 249.656 211.136C249.656 209.33 250.846 208.308 252.246 208.308C253.646 208.308 254.85 209.372 254.85 211.15ZM263.905 215H265.165V210.478C265.165 208.28 263.807 207.188 262.029 207.188C260.993 207.188 260.069 207.622 259.565 208.42V207.328H258.291V215H259.565V210.758C259.565 209.106 260.461 208.294 261.763 208.294C263.051 208.294 263.905 209.092 263.905 210.66V215ZM266.77 211.136C266.77 213.516 268.352 215.126 270.41 215.126C271.81 215.126 272.804 214.384 273.266 213.558V215.168C273.266 216.806 272.244 217.674 270.886 217.674C269.626 217.674 268.716 217.044 268.436 216.12H267.176C267.428 217.758 268.87 218.78 270.886 218.78C273.14 218.78 274.554 217.282 274.554 215.168V207.328H273.266V208.728C272.818 207.902 271.81 207.202 270.41 207.202C268.352 207.202 266.77 208.742 266.77 211.136ZM273.266 211.15C273.266 212.956 272.062 214.006 270.662 214.006C269.262 214.006 268.072 212.942 268.072 211.136C268.072 209.33 269.262 208.308 270.662 208.308C272.062 208.308 273.266 209.372 273.266 211.15ZM279.969 208.28C281.285 208.28 282.405 209.106 282.391 210.604H277.547C277.687 209.106 278.723 208.28 279.969 208.28ZM283.553 212.634H282.181C281.901 213.46 281.173 214.048 280.025 214.048C278.723 214.048 277.631 213.194 277.533 211.64H283.665C283.693 211.374 283.707 211.15 283.707 210.87C283.707 208.77 282.251 207.202 280.025 207.202C277.785 207.202 276.231 208.728 276.231 211.15C276.231 213.586 277.841 215.126 280.025 215.126C281.929 215.126 283.161 214.034 283.553 212.634Z" fill="#464255"/>
<path d="M157.602 330.114C157.602 333.04 159.744 335.084 162.474 335.084C164.588 335.084 166.268 334.034 166.996 332.158H165.47C164.938 333.32 163.902 333.978 162.474 333.978C160.43 333.978 158.904 332.494 158.904 330.114C158.904 327.72 160.43 326.236 162.474 326.236C163.902 326.236 164.938 326.894 165.47 328.07H166.996C166.268 326.18 164.588 325.116 162.474 325.116C159.744 325.116 157.602 327.188 157.602 330.114ZM168.416 331.136C168.416 333.516 169.998 335.126 172.042 335.126C173.456 335.126 174.45 334.398 174.912 333.572V335H176.2V327.328H174.912V328.728C174.464 327.93 173.484 327.202 172.056 327.202C169.998 327.202 168.416 328.742 168.416 331.136ZM174.912 331.15C174.912 332.956 173.708 334.006 172.308 334.006C170.908 334.006 169.718 332.942 169.718 331.136C169.718 329.33 170.908 328.308 172.308 328.308C173.708 328.308 174.912 329.372 174.912 331.15ZM178.633 332.9C178.633 334.44 179.403 335 180.761 335H181.909V333.922H180.971C180.187 333.922 179.907 333.656 179.907 332.9V328.378H181.909V327.328H179.907V325.396H178.633V327.328H177.639V328.378H178.633V332.9ZM186.715 328.28C188.031 328.28 189.151 329.106 189.137 330.604H184.293C184.433 329.106 185.469 328.28 186.715 328.28ZM190.299 332.634H188.927C188.647 333.46 187.919 334.048 186.771 334.048C185.469 334.048 184.377 333.194 184.279 331.64H190.411C190.439 331.374 190.453 331.15 190.453 330.87C190.453 328.77 188.997 327.202 186.771 327.202C184.531 327.202 182.977 328.728 182.977 331.15C182.977 333.586 184.587 335.126 186.771 335.126C188.675 335.126 189.907 334.034 190.299 332.634ZM191.659 331.136C191.659 333.516 193.241 335.126 195.299 335.126C196.699 335.126 197.693 334.384 198.155 333.558V335.168C198.155 336.806 197.133 337.674 195.775 337.674C194.515 337.674 193.605 337.044 193.325 336.12H192.065C192.317 337.758 193.759 338.78 195.775 338.78C198.029 338.78 199.443 337.282 199.443 335.168V327.328H198.155V328.728C197.707 327.902 196.699 327.202 195.299 327.202C193.241 327.202 191.659 328.742 191.659 331.136ZM198.155 331.15C198.155 332.956 196.951 334.006 195.551 334.006C194.151 334.006 192.961 332.942 192.961 331.136C192.961 329.33 194.151 328.308 195.551 328.308C196.951 328.308 198.155 329.372 198.155 331.15ZM208.876 331.15C208.876 328.728 207.182 327.202 204.998 327.202C202.828 327.202 201.12 328.728 201.12 331.15C201.12 333.586 202.772 335.126 204.942 335.126C207.126 335.126 208.876 333.586 208.876 331.15ZM202.422 331.15C202.422 329.218 203.64 328.308 204.984 328.308C206.3 328.308 207.574 329.218 207.574 331.15C207.574 333.096 206.272 334.006 204.942 334.006C203.612 334.006 202.422 333.096 202.422 331.15ZM211.825 330.828C211.825 329.05 212.749 328.504 213.967 328.504H214.303V327.188C213.085 327.188 212.259 327.72 211.825 328.574V327.328H210.551V335H211.825V330.828ZM218.685 333.544L216.277 327.328H214.863L217.957 334.916L216.445 338.612H217.761L222.381 327.328H221.065L218.685 333.544Z" fill="#464255"/>
<path d="M164.42 457.34C164.42 453.728 159.156 455.296 159.156 452.776C159.156 451.726 159.982 451.18 161.032 451.208C162.222 451.222 162.838 451.964 162.922 452.622H164.322C164.168 451.138 162.95 450.116 161.088 450.116C159.156 450.116 157.854 451.208 157.854 452.818C157.854 456.444 163.132 454.764 163.132 457.396C163.132 458.32 162.404 459.02 161.172 459.02C159.814 459.02 159.24 458.208 159.156 457.396H157.798C157.826 459.006 159.212 460.098 161.172 460.098C163.286 460.098 164.42 458.726 164.42 457.34ZM173.099 452.328H171.825V456.542C171.825 458.194 170.943 459.006 169.627 459.006C168.339 459.006 167.485 458.208 167.485 456.654V452.328H166.225V456.822C166.225 459.02 167.611 460.112 169.375 460.112C170.397 460.112 171.335 459.664 171.825 458.866V460H173.099V452.328ZM176.524 453.756V449.64H175.25V460H176.524V458.586C177 459.426 177.994 460.126 179.394 460.126C181.452 460.126 183.034 458.516 183.034 456.136C183.034 453.742 181.466 452.202 179.394 452.202C178.036 452.202 177.014 452.902 176.524 453.756ZM181.732 456.136C181.732 457.942 180.542 459.006 179.128 459.006C177.742 459.006 176.524 457.956 176.524 456.15C176.524 454.372 177.742 453.308 179.128 453.308C180.542 453.308 181.732 454.33 181.732 456.136ZM187.967 455.114C187.967 458.04 190.109 460.084 192.839 460.084C194.953 460.084 196.633 459.034 197.361 457.158H195.835C195.303 458.32 194.267 458.978 192.839 458.978C190.795 458.978 189.269 457.494 189.269 455.114C189.269 452.72 190.795 451.236 192.839 451.236C194.267 451.236 195.303 451.894 195.835 453.07H197.361C196.633 451.18 194.953 450.116 192.839 450.116C190.109 450.116 187.967 452.188 187.967 455.114ZM198.782 456.136C198.782 458.516 200.364 460.126 202.408 460.126C203.822 460.126 204.816 459.398 205.278 458.572V460H206.566V452.328H205.278V453.728C204.83 452.93 203.85 452.202 202.422 452.202C200.364 452.202 198.782 453.742 198.782 456.136ZM205.278 456.15C205.278 457.956 204.074 459.006 202.674 459.006C201.274 459.006 200.084 457.942 200.084 456.136C200.084 454.33 201.274 453.308 202.674 453.308C204.074 453.308 205.278 454.372 205.278 456.15ZM208.999 457.9C208.999 459.44 209.769 460 211.127 460H212.275V458.922H211.337C210.553 458.922 210.273 458.656 210.273 457.9V453.378H212.275V452.328H210.273V450.396H208.999V452.328H208.005V453.378H208.999V457.9ZM217.08 453.28C218.396 453.28 219.516 454.106 219.502 455.604H214.658C214.798 454.106 215.834 453.28 217.08 453.28ZM220.664 457.634H219.292C219.012 458.46 218.284 459.048 217.136 459.048C215.834 459.048 214.742 458.194 214.644 456.64H220.776C220.804 456.374 220.818 456.15 220.818 455.87C220.818 453.77 219.362 452.202 217.136 452.202C214.896 452.202 213.342 453.728 213.342 456.15C213.342 458.586 214.952 460.126 217.136 460.126C219.04 460.126 220.272 459.034 220.664 457.634ZM222.024 456.136C222.024 458.516 223.606 460.126 225.664 460.126C227.064 460.126 228.058 459.384 228.52 458.558V460.168C228.52 461.806 227.498 462.674 226.14 462.674C224.88 462.674 223.97 462.044 223.69 461.12H222.43C222.682 462.758 224.124 463.78 226.14 463.78C228.394 463.78 229.808 462.282 229.808 460.168V452.328H228.52V453.728C228.072 452.902 227.064 452.202 225.664 452.202C223.606 452.202 222.024 453.742 222.024 456.136ZM228.52 456.15C228.52 457.956 227.316 459.006 225.916 459.006C224.516 459.006 223.326 457.942 223.326 456.136C223.326 454.33 224.516 453.308 225.916 453.308C227.316 453.308 228.52 454.372 228.52 456.15ZM239.241 456.15C239.241 453.728 237.547 452.202 235.363 452.202C233.193 452.202 231.485 453.728 231.485 456.15C231.485 458.586 233.137 460.126 235.307 460.126C237.491 460.126 239.241 458.586 239.241 456.15ZM232.787 456.15C232.787 454.218 234.005 453.308 235.349 453.308C236.665 453.308 237.939 454.218 237.939 456.15C237.939 458.096 236.637 459.006 235.307 459.006C233.977 459.006 232.787 458.096 232.787 456.15ZM242.19 455.828C242.19 454.05 243.114 453.504 244.332 453.504H244.668V452.188C243.45 452.188 242.624 452.72 242.19 453.574V452.328H240.916V460H242.19V455.828ZM249.051 458.544L246.643 452.328H245.229L248.323 459.916L246.811 463.612H248.127L252.747 452.328H251.431L249.051 458.544Z" fill="#464255"/>
<path d="M174.868 262.834C174.868 265.774 175.596 268 178.396 268C181.182 268 181.91 265.774 181.91 262.834C181.91 259.936 181.182 257.724 178.396 257.724C175.596 257.724 174.868 259.936 174.868 262.834ZM180.65 262.834C180.65 265.018 180.384 266.838 178.396 266.838C176.394 266.838 176.128 265.018 176.128 262.834C176.128 260.734 176.394 258.886 178.396 258.886C180.384 258.886 180.65 260.734 180.65 262.834ZM183.253 257.906V258.998H188.657L184.709 268H185.997L189.889 258.872V257.906H183.253ZM191.246 263.408H196.832V262.33H191.246V263.408ZM199.013 262.834C199.013 265.774 199.741 268 202.541 268C205.327 268 206.055 265.774 206.055 262.834C206.055 259.936 205.327 257.724 202.541 257.724C199.741 257.724 199.013 259.936 199.013 262.834ZM204.795 262.834C204.795 265.018 204.529 266.838 202.541 266.838C200.539 266.838 200.273 265.018 200.273 262.834C200.273 260.734 200.539 258.886 202.541 258.886C204.529 258.886 204.795 260.734 204.795 262.834ZM207.65 267.888H214.384V266.824H209.568C211.374 265.354 214.09 263.212 214.09 260.692C214.09 258.816 212.858 257.696 210.954 257.696C209.134 257.696 207.776 258.816 207.692 260.972H208.924C208.98 259.698 209.652 258.788 210.968 258.788C212.34 258.788 212.83 259.628 212.83 260.748C212.83 262.82 210.31 264.836 207.65 266.978V267.888ZM215.8 263.408H221.386V262.33H215.8V263.408ZM223.413 267.888H230.147V266.824H225.331C227.137 265.354 229.853 263.212 229.853 260.692C229.853 258.816 228.621 257.696 226.717 257.696C224.897 257.696 223.539 258.816 223.455 260.972H224.687C224.743 259.698 225.415 258.788 226.731 258.788C228.103 258.788 228.593 259.628 228.593 260.748C228.593 262.82 226.073 264.836 223.413 266.978V267.888ZM231.62 262.834C231.62 265.774 232.348 268 235.148 268C237.934 268 238.662 265.774 238.662 262.834C238.662 259.936 237.934 257.724 235.148 257.724C232.348 257.724 231.62 259.936 231.62 262.834ZM237.402 262.834C237.402 265.018 237.136 266.838 235.148 266.838C233.146 266.838 232.88 265.018 232.88 262.834C232.88 260.734 233.146 258.886 235.148 258.886C237.136 258.886 237.402 260.734 237.402 262.834ZM240.257 267.888H246.991V266.824H242.175C243.981 265.354 246.697 263.212 246.697 260.692C246.697 258.816 245.465 257.696 243.561 257.696C241.741 257.696 240.383 258.816 240.299 260.972H241.531C241.587 259.698 242.259 258.788 243.575 258.788C244.947 258.788 245.437 259.628 245.437 260.748C245.437 262.82 242.917 264.836 240.257 266.978V267.888ZM249.472 268H250.76V257.878H248.128V259.04H249.472V268Z" fill="#959AC5"/>
<path d="M182.63 388H183.974L180.46 378.298H178.99L175.462 388H176.806L177.59 385.83H181.846L182.63 388ZM181.482 384.794H177.954L179.718 379.866L181.482 384.794ZM185.512 388H186.786V377.64H185.512V388ZM188.957 388H190.231V377.64H188.957V388Z" fill="#959AC5"/>
<path d="M185.402 508.114C185.402 505.188 183.26 503.13 180.502 503.13C177.758 503.13 175.602 505.188 175.602 508.114C175.602 511.04 177.758 513.098 180.502 513.098C183.26 513.098 185.402 511.04 185.402 508.114ZM176.904 508.114C176.904 505.72 178.444 504.236 180.502 504.236C182.56 504.236 184.1 505.72 184.1 508.114C184.1 510.494 182.56 511.992 180.502 511.992C178.444 511.992 176.904 510.494 176.904 508.114ZM188.358 506.742V505.328H187.084V516.64H188.358V511.586C188.834 512.37 189.828 513.126 191.228 513.126C193.286 513.126 194.868 511.516 194.868 509.136C194.868 506.742 193.286 505.202 191.228 505.202C189.828 505.202 188.82 505.93 188.358 506.742ZM193.566 509.136C193.566 510.942 192.376 512.006 190.962 512.006C189.576 512.006 188.358 510.956 188.358 509.15C188.358 507.372 189.576 506.308 190.962 506.308C192.376 506.308 193.566 507.33 193.566 509.136ZM199.807 506.28C201.123 506.28 202.243 507.106 202.229 508.604H197.385C197.525 507.106 198.561 506.28 199.807 506.28ZM203.391 510.634H202.019C201.739 511.46 201.011 512.048 199.863 512.048C198.561 512.048 197.469 511.194 197.371 509.64H203.503C203.531 509.374 203.545 509.15 203.545 508.87C203.545 506.77 202.089 505.202 199.863 505.202C197.623 505.202 196.069 506.728 196.069 509.15C196.069 511.586 197.679 513.126 199.863 513.126C201.767 513.126 202.999 512.034 203.391 510.634ZM210.84 513H212.1V508.478C212.1 506.28 210.742 505.188 208.964 505.188C207.928 505.188 207.004 505.622 206.5 506.42V505.328H205.226V513H206.5V508.758C206.5 507.106 207.396 506.294 208.698 506.294C209.986 506.294 210.84 507.092 210.84 508.66V513ZM217.312 504.278H219.986V513H221.26V504.278H223.92V503.242H217.312V504.278ZM225.488 513H226.762V505.328H225.488V513ZM226.146 504.082C226.608 504.082 226.986 503.704 226.986 503.214C226.986 502.724 226.608 502.346 226.146 502.346C225.656 502.346 225.278 502.724 225.278 503.214C225.278 503.704 225.656 504.082 226.146 504.082ZM228.457 509.15C228.457 511.586 230.011 513.126 232.195 513.126C234.099 513.126 235.345 512.062 235.737 510.536H234.365C234.085 511.502 233.329 512.048 232.195 512.048C230.795 512.048 229.759 511.054 229.759 509.15C229.759 507.274 230.795 506.28 232.195 506.28C233.329 506.28 234.099 506.868 234.365 507.792H235.737C235.345 506.182 234.099 505.202 232.195 505.202C230.011 505.202 228.457 506.742 228.457 509.15ZM237.437 513H238.711V509.612L241.721 513H243.457L239.831 509.15L243.443 505.328H241.665L238.711 508.73V502.64H237.437V513ZM247.904 506.28C249.22 506.28 250.34 507.106 250.326 508.604H245.482C245.622 507.106 246.658 506.28 247.904 506.28ZM251.488 510.634H250.116C249.836 511.46 249.108 512.048 247.96 512.048C246.658 512.048 245.566 511.194 245.468 509.64H251.6C251.628 509.374 251.642 509.15 251.642 508.87C251.642 506.77 250.186 505.202 247.96 505.202C245.72 505.202 244.166 506.728 244.166 509.15C244.166 511.586 245.776 513.126 247.96 513.126C249.864 513.126 251.096 512.034 251.488 510.634ZM253.604 510.9C253.604 512.44 254.374 513 255.732 513H256.88V511.922H255.942C255.158 511.922 254.878 511.656 254.878 510.9V506.378H256.88V505.328H254.878V503.396H253.604V505.328H252.61V506.378H253.604V510.9ZM263.94 510.914C263.884 508.17 259.432 509.164 259.432 507.344C259.432 506.728 259.992 506.28 260.93 506.28C261.952 506.28 262.54 506.84 262.596 507.61H263.87C263.786 506.112 262.666 505.202 260.972 505.202C259.264 505.202 258.158 506.168 258.158 507.344C258.158 510.2 262.694 509.206 262.694 510.914C262.694 511.544 262.134 512.048 261.126 512.048C260.048 512.048 259.39 511.488 259.32 510.746H258.004C258.088 512.146 259.348 513.126 261.14 513.126C262.834 513.126 263.94 512.174 263.94 510.914Z" fill="#959AC5"/>
<path d="M496.868 262.834C496.868 265.774 497.596 268 500.396 268C503.182 268 503.91 265.774 503.91 262.834C503.91 259.936 503.182 257.724 500.396 257.724C497.596 257.724 496.868 259.936 496.868 262.834ZM502.65 262.834C502.65 265.018 502.384 266.838 500.396 266.838C498.394 266.838 498.128 265.018 498.128 262.834C498.128 260.734 498.394 258.886 500.396 258.886C502.384 258.886 502.65 260.734 502.65 262.834ZM506.121 265.284C506.261 266.768 507.241 268.014 509.257 268.014C511.917 268.014 512.687 266.124 512.687 262.75C512.687 259.614 511.889 257.682 509.145 257.682C506.961 257.682 505.813 259.082 505.813 261.014C505.813 263.156 507.199 264.318 509.061 264.318C510.153 264.318 511.161 263.828 511.567 262.974C511.609 265.942 510.811 266.95 509.327 266.95C508.151 266.95 507.479 266.334 507.297 265.284H506.121ZM509.271 263.24C507.759 263.24 507.031 262.288 507.031 260.986C507.031 259.642 507.857 258.746 509.173 258.746C510.629 258.746 511.413 259.712 511.413 261.084C511.413 262.442 510.489 263.24 509.271 263.24ZM514.421 263.408H520.007V262.33H514.421V263.408ZM522.188 262.834C522.188 265.774 522.916 268 525.716 268C528.502 268 529.23 265.774 529.23 262.834C529.23 259.936 528.502 257.724 525.716 257.724C522.916 257.724 522.188 259.936 522.188 262.834ZM527.97 262.834C527.97 265.018 527.704 266.838 525.716 266.838C523.714 266.838 523.448 265.018 523.448 262.834C523.448 260.734 523.714 258.886 525.716 258.886C527.704 258.886 527.97 260.734 527.97 262.834ZM530.951 260.426H532.197C532.323 259.446 533.037 258.774 534.227 258.774C535.445 258.774 536.089 259.446 536.089 260.412C536.089 261.588 535.179 262.106 533.485 262.12H533.149V263.184H533.471C535.291 263.184 536.285 263.73 536.285 265.158C536.285 266.194 535.641 266.992 534.283 266.992C532.939 266.992 532.155 266.166 532.029 265.088H530.797C530.951 267.048 532.379 268.07 534.297 268.07C536.411 268.07 537.503 266.838 537.503 265.27C537.503 263.814 536.705 262.946 535.529 262.666V262.596C536.593 262.358 537.321 261.448 537.321 260.286C537.321 258.83 536.243 257.682 534.269 257.682C532.393 257.682 531.077 258.69 530.951 260.426ZM539.167 263.408H544.753V262.33H539.167V263.408ZM546.78 267.888H553.514V266.824H548.698C550.504 265.354 553.22 263.212 553.22 260.692C553.22 258.816 551.988 257.696 550.084 257.696C548.264 257.696 546.906 258.816 546.822 260.972H548.054C548.11 259.698 548.782 258.788 550.098 258.788C551.47 258.788 551.96 259.628 551.96 260.748C551.96 262.82 549.44 264.836 546.78 266.978V267.888ZM554.987 262.834C554.987 265.774 555.715 268 558.515 268C561.301 268 562.029 265.774 562.029 262.834C562.029 259.936 561.301 257.724 558.515 257.724C555.715 257.724 554.987 259.936 554.987 262.834ZM560.769 262.834C560.769 265.018 560.503 266.838 558.515 266.838C556.513 266.838 556.247 265.018 556.247 262.834C556.247 260.734 556.513 258.886 558.515 258.886C560.503 258.886 560.769 260.734 560.769 262.834ZM563.624 267.888H570.358V266.824H565.542C567.348 265.354 570.064 263.212 570.064 260.692C570.064 258.816 568.832 257.696 566.928 257.696C565.108 257.696 563.75 258.816 563.666 260.972H564.898C564.954 259.698 565.626 258.788 566.942 258.788C568.314 258.788 568.804 259.628 568.804 260.748C568.804 262.82 566.284 264.836 563.624 266.978V267.888ZM572.839 268H574.127V257.878H571.495V259.04H572.839V268Z" fill="#959AC5"/>
<rect x="415" y="233" width="60" height="60" fill="#58D7FF"/>
<path d="M436.546 259.572H439.15V268H440.746V259.572H443.336V258.27H436.546V259.572ZM452.302 264.136C452.302 261.714 450.566 260.16 448.368 260.16C446.17 260.16 444.434 261.714 444.434 264.136C444.434 266.558 446.1 268.126 448.298 268.126C450.51 268.126 452.302 266.558 452.302 264.136ZM446.058 264.136C446.058 262.386 447.136 261.546 448.34 261.546C449.53 261.546 450.664 262.386 450.664 264.136C450.664 265.886 449.488 266.74 448.298 266.74C447.094 266.74 446.058 265.886 446.058 264.136Z" fill="white"/>
<path d="M161.881 122H158.818V102.271H171.137V104.91H161.881V111.158H170.357V113.742H161.881V122ZM173.943 122V107.617H176.896V122H173.943ZM176.636 105.02C176.299 105.348 175.893 105.512 175.42 105.512C174.946 105.512 174.54 105.348 174.203 105.02C173.875 104.691 173.711 104.295 173.711 103.83C173.711 103.356 173.875 102.955 174.203 102.627C174.54 102.299 174.946 102.135 175.42 102.135C175.903 102.135 176.308 102.299 176.636 102.627C176.974 102.955 177.142 103.356 177.142 103.83C177.142 104.295 176.974 104.691 176.636 105.02ZM180.427 122V102.271H183.38V122H180.427ZM187.677 104.213H190.643V107.617H193.378V109.955H190.643V117.885C190.643 118.505 190.785 118.96 191.067 119.252C191.35 119.544 191.792 119.689 192.393 119.689C192.831 119.689 193.154 119.667 193.364 119.621V121.959C192.999 122.05 192.453 122.096 191.723 122.096C190.274 122.096 189.235 121.799 188.606 121.207C187.986 120.605 187.677 119.607 187.677 118.213V109.955H185.585V107.617H187.677V104.213ZM204.373 110.775C203.726 110.083 202.892 109.736 201.871 109.736C200.851 109.736 200.003 110.087 199.329 110.789C198.654 111.482 198.28 112.38 198.207 113.482H205.399C205.362 112.37 205.021 111.468 204.373 110.775ZM205.385 117.775H208.188C207.978 119.097 207.304 120.177 206.164 121.016C205.025 121.854 203.635 122.273 201.995 122.273C199.889 122.273 198.23 121.613 197.018 120.291C195.815 118.96 195.213 117.156 195.213 114.877C195.213 112.617 195.815 110.798 197.018 109.422C198.23 108.046 199.848 107.357 201.871 107.357C203.858 107.357 205.435 108.009 206.602 109.312C207.769 110.607 208.352 112.348 208.352 114.535V115.547H198.194V115.725C198.194 116.982 198.545 117.99 199.246 118.746C199.948 119.503 200.887 119.881 202.063 119.881C202.892 119.881 203.603 119.689 204.196 119.307C204.788 118.924 205.185 118.413 205.385 117.775ZM211.049 122V107.617H213.865V110.064H213.934C214.171 109.226 214.594 108.57 215.205 108.096C215.816 107.622 216.545 107.385 217.393 107.385C217.675 107.385 218.012 107.421 218.404 107.494V110.242C218.14 110.133 217.698 110.078 217.078 110.078C216.13 110.078 215.378 110.374 214.822 110.967C214.275 111.559 214.002 112.366 214.002 113.387V122H211.049ZM230.142 104.842V111.938H234.435C235.62 111.938 236.536 111.628 237.183 111.008C237.83 110.388 238.154 109.513 238.154 108.383C238.154 107.28 237.816 106.414 237.142 105.785C236.467 105.156 235.538 104.842 234.353 104.842H230.142ZM230.142 114.412V122H227.079V102.271H234.722C236.745 102.271 238.349 102.818 239.534 103.912C240.719 104.997 241.312 106.46 241.312 108.301C241.312 109.641 240.97 110.816 240.286 111.828C239.612 112.831 238.678 113.533 237.484 113.934L241.9 122H238.372L234.353 114.412H230.142ZM252.786 110.775C252.139 110.083 251.305 109.736 250.284 109.736C249.263 109.736 248.415 110.087 247.741 110.789C247.067 111.482 246.693 112.38 246.62 113.482H253.811C253.775 112.37 253.433 111.468 252.786 110.775ZM253.798 117.775H256.6C256.391 119.097 255.716 120.177 254.577 121.016C253.438 121.854 252.048 122.273 250.407 122.273C248.302 122.273 246.643 121.613 245.43 120.291C244.227 118.96 243.626 117.156 243.626 114.877C243.626 112.617 244.227 110.798 245.43 109.422C246.643 108.046 248.261 107.357 250.284 107.357C252.271 107.357 253.848 108.009 255.014 109.312C256.181 110.607 256.764 112.348 256.764 114.535V115.547H246.606V115.725C246.606 116.982 246.957 117.99 247.659 118.746C248.361 119.503 249.3 119.881 250.475 119.881C251.305 119.881 252.016 119.689 252.608 119.307C253.201 118.924 253.597 118.413 253.798 117.775ZM259.202 111.691C259.202 110.406 259.721 109.363 260.76 108.561C261.799 107.758 263.157 107.357 264.834 107.357C266.429 107.357 267.737 107.763 268.758 108.574C269.788 109.376 270.326 110.42 270.371 111.705H267.596C267.523 111.049 267.236 110.534 266.735 110.16C266.233 109.786 265.573 109.6 264.752 109.6C263.95 109.6 263.303 109.777 262.811 110.133C262.328 110.488 262.086 110.949 262.086 111.514C262.086 112.389 262.82 113.008 264.287 113.373L266.707 113.934C268.157 114.28 269.182 114.754 269.784 115.355C270.394 115.948 270.7 116.777 270.7 117.844C270.7 119.156 270.144 120.223 269.032 121.043C267.929 121.863 266.493 122.273 264.725 122.273C263.039 122.273 261.662 121.872 260.596 121.07C259.539 120.268 258.951 119.202 258.832 117.871H261.758C261.877 118.564 262.2 119.097 262.729 119.471C263.258 119.835 263.968 120.018 264.862 120.018C265.746 120.018 266.443 119.849 266.954 119.512C267.473 119.165 267.733 118.701 267.733 118.117C267.733 117.652 267.578 117.283 267.268 117.01C266.958 116.736 266.429 116.504 265.682 116.312L263.112 115.684C260.505 115.055 259.202 113.724 259.202 111.691ZM285.729 107.617V122H282.898V119.566H282.83C282.001 121.362 280.515 122.26 278.373 122.26C276.805 122.26 275.57 121.786 274.668 120.838C273.775 119.881 273.328 118.577 273.328 116.928V107.617H276.281V116.354C276.281 117.456 276.541 118.295 277.061 118.869C277.58 119.434 278.346 119.717 279.357 119.717C280.415 119.717 281.249 119.38 281.859 118.705C282.47 118.031 282.775 117.128 282.775 115.998V107.617H285.729ZM289.164 122V102.271H292.117V122H289.164ZM296.413 104.213H299.38V107.617H302.114V109.955H299.38V117.885C299.38 118.505 299.521 118.96 299.804 119.252C300.086 119.544 300.529 119.689 301.13 119.689C301.568 119.689 301.891 119.667 302.101 119.621V121.959C301.736 122.05 301.189 122.096 300.46 122.096C299.011 122.096 297.972 121.799 297.343 121.207C296.723 120.605 296.413 119.607 296.413 118.213V109.955H294.321V107.617H296.413V104.213ZM304.688 111.691C304.688 110.406 305.208 109.363 306.247 108.561C307.286 107.758 308.644 107.357 310.321 107.357C311.916 107.357 313.224 107.763 314.245 108.574C315.275 109.376 315.813 110.42 315.858 111.705H313.083C313.01 111.049 312.723 110.534 312.221 110.16C311.72 109.786 311.059 109.6 310.239 109.6C309.437 109.6 308.79 109.777 308.298 110.133C307.815 110.488 307.573 110.949 307.573 111.514C307.573 112.389 308.307 113.008 309.774 113.373L312.194 113.934C313.643 114.28 314.669 114.754 315.27 115.355C315.881 115.948 316.186 116.777 316.186 117.844C316.186 119.156 315.63 120.223 314.518 121.043C313.415 121.863 311.98 122.273 310.212 122.273C308.526 122.273 307.149 121.872 306.083 121.07C305.026 120.268 304.438 119.202 304.319 117.871H307.245C307.363 118.564 307.687 119.097 308.216 119.471C308.744 119.835 309.455 120.018 310.348 120.018C311.233 120.018 311.93 119.849 312.44 119.512C312.96 119.165 313.22 118.701 313.22 118.117C313.22 117.652 313.065 117.283 312.755 117.01C312.445 116.736 311.916 116.504 311.169 116.312L308.598 115.684C305.992 115.055 304.688 113.724 304.688 111.691Z" fill="black"/>
</g>
<defs>
<filter id="filter0_d" x="0" y="0" width="845" height="762" filterUnits="userSpaceOnUse" color-interpolation-filters="sRGB">
<feFlood flood-opacity="0" result="BackgroundImageFix"/>
<feColorMatrix in="SourceAlpha" type="matrix" values="0 0 0 0 0 0 0 0 0 0 0 0 0 0 0 0 0 0 127 0" result="hardAlpha"/>
<feOffset dy="16"/>
<feGaussianBlur stdDeviation="39"/>
<feComposite in2="hardAlpha" operator="out"/>
<feColorMatrix type="matrix" values="0 0 0 0 0 0 0 0 0 0 0 0 0 0 0 0 0 0 0.15 0"/>
<feBlend mode="normal" in2="BackgroundImageFix" result="effect1_dropShadow"/>
<feBlend mode="normal" in="SourceGraphic" in2="effect1_dropShadow" result="shape"/>
</filter>
</defs>
</svg>
