<svg width="1001" height="874" viewBox="0 0 1001 874" fill="none" xmlns="http://www.w3.org/2000/svg">
<g filter="url(#filter0_d)">
<rect x="78" y="62" width="845" height="718" rx="18" fill="white"/>
<rect x="113.5" y="469.5" width="259" height="59" rx="17.5" fill="white" stroke="#D7D9E5"/>
<rect x="320" y="476" width="46" height="46" rx="13" fill="#44AD8E"/>
<rect x="115" y="600" width="46" height="46" rx="13" fill="#0033CC"/>
<rect x="379" y="600" width="46" height="46" rx="13" fill="#A8D695"/>
<rect x="643" y="600" width="46" height="46" rx="13" fill="#34495E"/>
<rect x="247" y="600" width="46" height="46" rx="13" fill="#CC0033"/>
<rect x="511" y="600" width="46" height="46" rx="13" fill="#69D100"/>
<rect x="775" y="600" width="46" height="46" rx="13" fill="#A295D6"/>
<rect x="181" y="600" width="46" height="46" rx="13" fill="#428BCA"/>
<rect x="445" y="600" width="46" height="46" rx="13" fill="#5CB85C"/>
<rect x="709" y="600" width="46" height="46" rx="13" fill="#7F8C8D"/>
<rect x="313" y="600" width="46" height="46" rx="13" fill="#44AD8E"/>
<rect x="577" y="600" width="46" height="46" rx="13" fill="#004E00"/>
<rect x="841" y="600" width="46" height="46" rx="13" fill="#5843AD"/>
<rect x="216" y="703" width="78" height="38" rx="6" fill="#D7D9E6"/>
<path d="M241.993 720.266C241.993 721.148 241.503 721.722 240.411 721.722H238.773V718.852H240.411C241.503 718.852 241.993 719.398 241.993 720.266ZM236.813 717.228V727H238.773V723.192H239.697L241.853 727H244.121L241.783 723.038C243.351 722.618 244.009 721.414 244.009 720.224C244.009 718.586 242.833 717.228 240.481 717.228H236.813ZM249.113 720.728C250.121 720.728 250.933 721.372 250.961 722.394H247.279C247.433 721.33 248.175 720.728 249.113 720.728ZM252.795 724.564H250.681C250.429 725.082 249.967 725.502 249.127 725.502C248.147 725.502 247.363 724.858 247.265 723.71H252.935C252.977 723.458 252.991 723.206 252.991 722.954C252.991 720.644 251.409 719.118 249.169 719.118C246.873 719.118 245.277 720.672 245.277 723.122C245.277 725.558 246.915 727.126 249.169 727.126C251.087 727.126 252.375 725.992 252.795 724.564ZM260.442 724.788C260.386 721.946 256.088 722.828 256.088 721.414C256.088 720.966 256.466 720.672 257.194 720.672C257.964 720.672 258.44 721.078 258.496 721.68H260.372C260.26 720.14 259.126 719.118 257.25 719.118C255.332 719.118 254.184 720.154 254.184 721.442C254.184 724.284 258.566 723.402 258.566 724.788C258.566 725.236 258.146 725.586 257.376 725.586C256.592 725.586 256.046 725.138 255.976 724.55H254.002C254.086 725.992 255.444 727.126 257.39 727.126C259.28 727.126 260.442 726.118 260.442 724.788ZM265.383 720.728C266.391 720.728 267.203 721.372 267.231 722.394H263.549C263.703 721.33 264.445 720.728 265.383 720.728ZM269.065 724.564H266.951C266.699 725.082 266.237 725.502 265.397 725.502C264.417 725.502 263.633 724.858 263.535 723.71H269.205C269.247 723.458 269.261 723.206 269.261 722.954C269.261 720.644 267.679 719.118 265.439 719.118C263.143 719.118 261.547 720.672 261.547 723.122C261.547 725.558 263.185 727.126 265.439 727.126C267.357 727.126 268.645 725.992 269.065 724.564ZM271 724.592C271 726.37 271.994 727 273.478 727H274.71V725.348H273.8C273.184 725.348 272.974 725.124 272.974 724.606V720.854H274.71V719.244H272.974V717.326H271V719.244H270.076V720.854H271V724.592Z" fill="#464255"/>
<rect x="113" y="703" width="93" height="38" rx="6" fill="#3546AB"/>
<path d="M160.798 724.172C160.798 720.728 155.786 721.82 155.786 719.86C155.786 719.062 156.36 718.684 157.13 718.712C157.97 718.726 158.488 719.23 158.53 719.874H160.686C160.56 718.11 159.188 717.088 157.186 717.088C155.17 717.088 153.742 718.152 153.742 719.916C153.728 723.458 158.768 722.184 158.768 724.298C158.768 724.998 158.222 725.488 157.298 725.488C156.388 725.488 155.87 724.97 155.814 724.186H153.714C153.742 726.034 155.31 727.098 157.34 727.098C159.566 727.098 160.798 725.712 160.798 724.172ZM161.993 723.094C161.993 725.516 163.561 727.126 165.521 727.126C166.753 727.126 167.635 726.538 168.097 725.866V727H170.071V719.244H168.097V720.35C167.635 719.706 166.781 719.118 165.535 719.118C163.561 719.118 161.993 720.672 161.993 723.094ZM168.097 723.122C168.097 724.592 167.117 725.404 166.039 725.404C164.989 725.404 163.995 724.564 163.995 723.094C163.995 721.624 164.989 720.84 166.039 720.84C167.117 720.84 168.097 721.652 168.097 723.122ZM171.16 719.244L174.016 727H176.396L179.266 719.244H177.18L175.22 725.194L173.26 719.244H171.16ZM183.698 720.728C184.706 720.728 185.518 721.372 185.546 722.394H181.864C182.018 721.33 182.76 720.728 183.698 720.728ZM187.38 724.564H185.266C185.014 725.082 184.552 725.502 183.712 725.502C182.732 725.502 181.948 724.858 181.85 723.71H187.52C187.562 723.458 187.576 723.206 187.576 722.954C187.576 720.644 185.994 719.118 183.754 719.118C181.458 719.118 179.862 720.672 179.862 723.122C179.862 725.558 181.5 727.126 183.754 727.126C185.672 727.126 186.96 725.992 187.38 724.564Z" fill="white"/>
<path d="M142.608 716.511C142.336 716.207 141.957 716.024 141.552 716.002C141.147 715.981 140.751 716.123 140.45 716.397L133.244 725.325L130.628 722.635C130.487 722.487 130.318 722.369 130.132 722.288C129.945 722.207 129.745 722.165 129.542 722.163C129.339 722.161 129.137 722.2 128.95 722.278C128.762 722.355 128.591 722.47 128.448 722.615C128.304 722.76 128.191 722.933 128.114 723.123C128.037 723.313 127.998 723.516 128 723.722C128.002 723.927 128.044 724.13 128.124 724.318C128.204 724.507 128.321 724.677 128.467 724.82L132.108 728.548C132.385 728.827 132.757 728.989 133.149 728.999C133.54 729.01 133.92 728.868 134.211 728.603L142.495 718.693C142.796 718.419 142.977 718.035 142.998 717.626C143.019 717.217 142.879 716.816 142.608 716.511Z" fill="white"/>
<path d="M124.526 110L123.108 105.811H117.2L115.782 110H113.279L118.876 94.499H121.476L127.072 110H124.526ZM120.122 97.0771L117.812 103.877H122.496L120.187 97.0771H120.122ZM132.843 110.193C131.411 110.193 130.262 109.663 129.395 108.604C128.529 107.544 128.095 106.126 128.095 104.35C128.095 102.574 128.525 101.159 129.384 100.106C130.251 99.0465 131.397 98.5166 132.822 98.5166C133.617 98.5166 134.326 98.7028 134.949 99.0752C135.572 99.4404 136.045 99.9417 136.367 100.579H136.41V94.499H138.741V110H136.485V108.077H136.442C136.105 108.736 135.622 109.255 134.992 109.635C134.369 110.007 133.653 110.193 132.843 110.193ZM133.456 100.472C132.539 100.472 131.812 100.823 131.275 101.524C130.738 102.219 130.469 103.161 130.469 104.35C130.469 105.546 130.738 106.491 131.275 107.186C131.812 107.88 132.539 108.228 133.456 108.228C134.351 108.228 135.071 107.877 135.615 107.175C136.159 106.466 136.431 105.524 136.431 104.35C136.431 103.182 136.159 102.244 135.615 101.535C135.071 100.826 134.351 100.472 133.456 100.472ZM145.769 110.193C144.336 110.193 143.187 109.663 142.321 108.604C141.454 107.544 141.021 106.126 141.021 104.35C141.021 102.574 141.45 101.159 142.31 100.106C143.176 99.0465 144.322 98.5166 145.747 98.5166C146.542 98.5166 147.251 98.7028 147.874 99.0752C148.497 99.4404 148.97 99.9417 149.292 100.579H149.335V94.499H151.666V110H149.41V108.077H149.367C149.031 108.736 148.547 109.255 147.917 109.635C147.294 110.007 146.578 110.193 145.769 110.193ZM146.381 100.472C145.464 100.472 144.737 100.823 144.2 101.524C143.663 102.219 143.395 103.161 143.395 104.35C143.395 105.546 143.663 106.491 144.2 107.186C144.737 107.88 145.464 108.228 146.381 108.228C147.276 108.228 147.996 107.877 148.54 107.175C149.085 106.466 149.357 105.524 149.357 104.35C149.357 103.182 149.085 102.244 148.54 101.535C147.996 100.826 147.276 100.472 146.381 100.472ZM165.851 110H163.445V96.5723H158.697V94.499H170.588V96.5723H165.851V110ZM176.596 101.181C176.087 100.636 175.432 100.364 174.63 100.364C173.828 100.364 173.162 100.64 172.632 101.191C172.102 101.736 171.808 102.441 171.751 103.308H177.401C177.373 102.434 177.104 101.725 176.596 101.181ZM177.391 106.681H179.593C179.428 107.719 178.898 108.568 178.003 109.227C177.108 109.885 176.016 110.215 174.727 110.215C173.072 110.215 171.769 109.696 170.816 108.657C169.871 107.612 169.398 106.194 169.398 104.403C169.398 102.627 169.871 101.199 170.816 100.117C171.769 99.0358 173.04 98.4951 174.63 98.4951C176.191 98.4951 177.43 99.0072 178.347 100.031C179.263 101.048 179.722 102.416 179.722 104.135V104.93H171.74V105.069C171.74 106.058 172.016 106.849 172.567 107.443C173.119 108.038 173.856 108.335 174.78 108.335C175.432 108.335 175.991 108.185 176.456 107.884C176.922 107.583 177.233 107.182 177.391 106.681ZM181.926 110V98.6992H184.139V100.601H184.193C184.451 99.9632 184.863 99.4548 185.428 99.0752C185.994 98.6956 186.653 98.5059 187.405 98.5059C188.185 98.5059 188.848 98.6992 189.392 99.0859C189.944 99.4727 190.334 100.017 190.563 100.719H190.617C190.91 100.031 191.369 99.4906 191.992 99.0967C192.622 98.7028 193.338 98.5059 194.14 98.5059C195.257 98.5059 196.153 98.846 196.826 99.5264C197.499 100.207 197.836 101.109 197.836 102.233V110H195.504V102.792C195.504 102.062 195.315 101.496 194.935 101.095C194.563 100.694 194.033 100.493 193.345 100.493C192.658 100.493 192.096 100.722 191.659 101.181C191.229 101.639 191.014 102.226 191.014 102.942V110H188.737V102.62C188.737 101.968 188.544 101.453 188.157 101.073C187.77 100.687 187.251 100.493 186.599 100.493C185.912 100.493 185.346 100.733 184.902 101.213C184.465 101.686 184.247 102.287 184.247 103.018V110H181.926ZM206.367 98.5166C207.807 98.5166 208.96 99.043 209.826 100.096C210.693 101.148 211.126 102.566 211.126 104.35C211.126 106.133 210.696 107.554 209.837 108.614C208.978 109.667 207.835 110.193 206.41 110.193C205.608 110.193 204.896 110.011 204.273 109.646C203.657 109.28 203.184 108.779 202.855 108.142H202.801V113.738H200.481V98.6992H202.726V100.644H202.769C203.105 99.9847 203.589 99.4655 204.219 99.0859C204.849 98.7064 205.565 98.5166 206.367 98.5166ZM205.755 108.228C206.672 108.228 207.399 107.88 207.936 107.186C208.473 106.484 208.741 105.538 208.741 104.35C208.741 103.168 208.473 102.226 207.936 101.524C207.399 100.823 206.672 100.472 205.755 100.472C204.867 100.472 204.151 100.826 203.607 101.535C203.062 102.244 202.79 103.182 202.79 104.35C202.79 105.524 203.059 106.466 203.596 107.175C204.14 107.877 204.86 108.228 205.755 108.228ZM213.406 110V94.499H215.726V110H213.406ZM222.464 108.356C223.281 108.356 223.965 108.109 224.516 107.615C225.075 107.114 225.354 106.498 225.354 105.768V104.876L222.572 105.048C221.877 105.098 221.34 105.27 220.96 105.563C220.588 105.85 220.402 106.237 220.402 106.724C220.402 107.218 220.588 107.615 220.96 107.916C221.34 108.21 221.841 108.356 222.464 108.356ZM221.82 110.193C220.71 110.193 219.804 109.878 219.102 109.248C218.407 108.618 218.06 107.798 218.06 106.788C218.06 105.8 218.425 105.016 219.156 104.436C219.886 103.848 220.921 103.519 222.26 103.447L225.354 103.265V102.395C225.354 101.764 225.153 101.274 224.752 100.923C224.351 100.565 223.796 100.386 223.087 100.386C222.428 100.386 221.891 100.533 221.476 100.826C221.068 101.12 220.81 101.524 220.703 102.04H218.511C218.576 100.994 219.027 100.142 219.865 99.4834C220.703 98.8245 221.805 98.4951 223.173 98.4951C224.541 98.4951 225.63 98.8317 226.439 99.5049C227.255 100.178 227.663 101.08 227.663 102.212V110H225.44V108.142H225.386C225.064 108.765 224.573 109.262 223.914 109.635C223.263 110.007 222.565 110.193 221.82 110.193ZM230.996 96.0244H233.327V98.6992H235.476V100.536H233.327V106.767C233.327 107.254 233.438 107.612 233.66 107.841C233.882 108.07 234.229 108.185 234.702 108.185C235.046 108.185 235.3 108.167 235.465 108.131V109.968C235.178 110.039 234.749 110.075 234.176 110.075C233.037 110.075 232.221 109.842 231.727 109.377C231.24 108.904 230.996 108.12 230.996 107.024V100.536H229.353V98.6992H230.996V96.0244ZM244.201 101.181C243.692 100.636 243.037 100.364 242.235 100.364C241.433 100.364 240.767 100.64 240.237 101.191C239.707 101.736 239.413 102.441 239.356 103.308H245.006C244.978 102.434 244.709 101.725 244.201 101.181ZM244.996 106.681H247.198C247.033 107.719 246.503 108.568 245.608 109.227C244.713 109.885 243.621 110.215 242.332 110.215C240.677 110.215 239.374 109.696 238.421 108.657C237.476 107.612 237.004 106.194 237.004 104.403C237.004 102.627 237.476 101.199 238.421 100.117C239.374 99.0358 240.645 98.4951 242.235 98.4951C243.796 98.4951 245.035 99.0072 245.952 100.031C246.868 101.048 247.327 102.416 247.327 104.135V104.93H239.345V105.069C239.345 106.058 239.621 106.849 240.172 107.443C240.724 108.038 241.462 108.335 242.385 108.335C243.037 108.335 243.596 108.185 244.061 107.884C244.527 107.583 244.838 107.182 244.996 106.681Z" fill="#464255"/>
<rect x="113.5" y="302.5" width="773" height="112" rx="13.5" fill="#F9FBFD" fill-opacity="0.3" stroke="#D7D9E6"/>
<rect x="113.5" y="188.5" width="773" height="59" rx="13.5" fill="#F9FBFD" fill-opacity="0.7" stroke="#D7D9E6"/>
<path d="M117.957 280.136H121.272C122.735 280.136 123.877 280.571 124.697 281.441C125.518 282.307 125.928 283.515 125.928 285.064C125.928 286.618 125.518 287.831 124.697 288.701C123.882 289.567 122.74 290 121.272 290H117.957V280.136ZM119.188 281.243V288.893H121.19C122.307 288.893 123.166 288.564 123.768 287.908C124.369 287.247 124.67 286.304 124.67 285.078C124.67 283.843 124.369 282.895 123.768 282.234C123.171 281.574 122.312 281.243 121.19 281.243H119.188ZM130.125 283.8C129.574 283.8 129.116 283.991 128.751 284.374C128.391 284.752 128.193 285.24 128.156 285.837H132.019C132.005 285.235 131.825 284.745 131.479 284.367C131.132 283.989 130.681 283.8 130.125 283.8ZM131.991 287.963H133.16C133.055 288.592 132.727 289.109 132.176 289.515C131.629 289.92 130.97 290.123 130.2 290.123C129.184 290.123 128.384 289.795 127.801 289.139C127.217 288.482 126.926 287.594 126.926 286.473C126.926 285.361 127.217 284.465 127.801 283.786C128.389 283.107 129.17 282.768 130.146 282.768C131.103 282.768 131.859 283.089 132.415 283.731C132.971 284.374 133.249 285.235 133.249 286.315V286.767H128.149V286.835C128.149 287.519 128.336 288.065 128.71 288.476C129.084 288.886 129.59 289.091 130.228 289.091C130.674 289.091 131.055 288.988 131.369 288.783C131.684 288.578 131.891 288.305 131.991 287.963ZM134.329 284.853C134.329 284.242 134.575 283.743 135.067 283.355C135.564 282.964 136.202 282.768 136.981 282.768C137.715 282.768 138.326 282.964 138.813 283.355C139.301 283.747 139.559 284.244 139.586 284.846H138.451C138.41 284.499 138.255 284.228 137.986 284.032C137.722 283.836 137.373 283.738 136.94 283.738C136.507 283.738 136.159 283.836 135.895 284.032C135.63 284.224 135.498 284.477 135.498 284.791C135.498 285.274 135.892 285.616 136.681 285.816L137.781 286.083C138.497 286.265 139 286.502 139.292 286.794C139.588 287.081 139.736 287.487 139.736 288.011C139.736 288.631 139.472 289.139 138.943 289.535C138.415 289.927 137.736 290.123 136.906 290.123C136.132 290.123 135.491 289.932 134.985 289.549C134.484 289.161 134.201 288.651 134.138 288.018H135.327C135.459 288.774 136.011 289.152 136.981 289.152C137.46 289.152 137.838 289.059 138.116 288.872C138.399 288.681 138.54 288.423 138.54 288.1C138.54 287.844 138.456 287.642 138.287 287.491C138.123 287.341 137.843 287.213 137.446 287.108L136.195 286.787C134.951 286.468 134.329 285.823 134.329 284.853ZM146.88 285.222H145.718C145.627 284.812 145.424 284.474 145.109 284.21C144.799 283.946 144.396 283.813 143.899 283.813C143.28 283.813 142.781 284.053 142.402 284.531C142.024 285.005 141.835 285.643 141.835 286.445C141.835 287.261 142.024 287.904 142.402 288.373C142.785 288.842 143.289 289.077 143.913 289.077C144.392 289.077 144.786 288.959 145.096 288.722C145.41 288.48 145.62 288.143 145.725 287.71H146.894C146.802 288.421 146.481 289.002 145.93 289.453C145.383 289.9 144.708 290.123 143.906 290.123C142.913 290.123 142.118 289.795 141.521 289.139C140.924 288.478 140.625 287.58 140.625 286.445C140.625 285.329 140.924 284.438 141.521 283.772C142.118 283.103 142.908 282.768 143.893 282.768C144.74 282.768 145.428 283.007 145.957 283.485C146.49 283.964 146.798 284.543 146.88 285.222ZM147.987 290V282.891H149.108V284.053H149.136C149.254 283.656 149.466 283.344 149.771 283.116C150.081 282.884 150.444 282.768 150.858 282.768C150.954 282.768 151.114 282.784 151.337 282.815V283.971C151.209 283.925 150.997 283.902 150.701 283.902C150.241 283.902 149.872 284.055 149.594 284.36C149.316 284.666 149.177 285.069 149.177 285.57V290H147.987ZM152.369 290V282.891H153.559V290H152.369ZM152.964 281.694C152.763 281.694 152.59 281.621 152.444 281.476C152.299 281.33 152.226 281.157 152.226 280.956C152.226 280.751 152.299 280.578 152.444 280.437C152.59 280.291 152.763 280.218 152.964 280.218C153.169 280.218 153.344 280.291 153.49 280.437C153.636 280.578 153.709 280.751 153.709 280.956C153.709 281.157 153.636 281.33 153.49 281.476C153.344 281.621 153.169 281.694 152.964 281.694ZM158.617 282.768C159.529 282.768 160.262 283.103 160.818 283.772C161.379 284.442 161.659 285.333 161.659 286.445C161.659 287.553 161.381 288.444 160.825 289.118C160.269 289.788 159.542 290.123 158.645 290.123C158.143 290.123 157.694 290.009 157.298 289.781C156.901 289.553 156.596 289.241 156.382 288.845H156.354V292.372H155.165V282.891H156.293V284.094H156.32C156.544 283.684 156.856 283.36 157.257 283.123C157.658 282.886 158.111 282.768 158.617 282.768ZM158.385 289.077C159.018 289.077 159.52 288.84 159.889 288.366C160.258 287.892 160.442 287.252 160.442 286.445C160.442 285.639 160.258 284.998 159.889 284.524C159.52 284.05 159.018 283.813 158.385 283.813C157.774 283.813 157.282 284.055 156.908 284.538C156.535 285.021 156.348 285.657 156.348 286.445C156.348 287.238 156.535 287.876 156.908 288.359C157.282 288.838 157.774 289.077 158.385 289.077ZM163.245 281.175H164.435V282.891H165.815V283.868H164.435V288.093C164.435 288.416 164.505 288.656 164.646 288.811C164.788 288.961 165.011 289.036 165.316 289.036C165.508 289.036 165.672 289.025 165.809 289.002V290C165.654 290.036 165.403 290.055 165.057 290.055C164.405 290.055 163.94 289.909 163.662 289.617C163.384 289.326 163.245 288.838 163.245 288.154V283.868H162.186V282.891H163.245V281.175ZM167.148 290V282.891H168.338V290H167.148ZM167.743 281.694C167.543 281.694 167.369 281.621 167.224 281.476C167.078 281.33 167.005 281.157 167.005 280.956C167.005 280.751 167.078 280.578 167.224 280.437C167.369 280.291 167.543 280.218 167.743 280.218C167.948 280.218 168.124 280.291 168.27 280.437C168.415 280.578 168.488 280.751 168.488 280.956C168.488 281.157 168.415 281.33 168.27 281.476C168.124 281.621 167.948 281.694 167.743 281.694ZM172.891 290.123C171.897 290.123 171.1 289.793 170.498 289.132C169.896 288.466 169.596 287.571 169.596 286.445C169.596 285.32 169.896 284.426 170.498 283.766C171.1 283.1 171.897 282.768 172.891 282.768C173.88 282.768 174.675 283.1 175.276 283.766C175.878 284.426 176.179 285.32 176.179 286.445C176.179 287.566 175.878 288.46 175.276 289.125C174.675 289.79 173.88 290.123 172.891 290.123ZM171.366 288.38C171.744 288.845 172.253 289.077 172.891 289.077C173.529 289.077 174.035 288.847 174.408 288.387C174.782 287.922 174.969 287.275 174.969 286.445C174.969 285.616 174.782 284.971 174.408 284.511C174.035 284.046 173.529 283.813 172.891 283.813C172.253 283.813 171.744 284.046 171.366 284.511C170.993 284.976 170.806 285.62 170.806 286.445C170.806 287.27 170.993 287.915 171.366 288.38ZM177.382 290V282.891H178.503V284.025H178.53C178.735 283.629 179.029 283.321 179.412 283.103C179.795 282.879 180.253 282.768 180.786 282.768C181.561 282.768 182.165 283.002 182.598 283.472C183.031 283.937 183.247 284.575 183.247 285.386V290H182.058V285.598C182.058 285.019 181.921 284.579 181.647 284.278C181.374 283.973 180.966 283.82 180.424 283.82C179.863 283.82 179.414 284.003 179.077 284.367C178.74 284.732 178.571 285.215 178.571 285.816V290H177.382Z" fill="#464255"/>
<path d="M119.945 174.893V176H113.957V166.136H115.188V174.893H119.945ZM123.459 175.111C124.02 175.111 124.489 174.938 124.867 174.592C125.25 174.241 125.441 173.81 125.441 173.3V172.719L123.541 172.835C123.062 172.867 122.691 172.983 122.427 173.184C122.167 173.384 122.037 173.653 122.037 173.99C122.037 174.327 122.167 174.599 122.427 174.804C122.687 175.009 123.031 175.111 123.459 175.111ZM123.192 176.123C122.486 176.123 121.914 175.927 121.477 175.535C121.044 175.143 120.827 174.628 120.827 173.99C120.827 173.38 121.05 172.892 121.497 172.527C121.948 172.163 122.584 171.958 123.404 171.912L125.441 171.796V171.201C125.441 170.768 125.305 170.429 125.031 170.183C124.758 169.937 124.375 169.813 123.883 169.813C123.432 169.813 123.065 169.914 122.782 170.114C122.5 170.31 122.32 170.586 122.242 170.941H121.094C121.135 170.308 121.408 169.788 121.914 169.383C122.424 168.973 123.09 168.768 123.91 168.768C124.744 168.768 125.405 168.977 125.893 169.396C126.385 169.816 126.631 170.379 126.631 171.085V176H125.503V174.776H125.476C125.261 175.182 124.947 175.508 124.532 175.754C124.118 176 123.671 176.123 123.192 176.123ZM131.676 176.123C131.165 176.123 130.71 176.007 130.309 175.774C129.912 175.542 129.598 175.216 129.365 174.797H129.338V176H128.203V166.136H129.393V170.08H129.42C129.643 169.67 129.953 169.349 130.35 169.116C130.751 168.884 131.2 168.768 131.696 168.768C132.594 168.768 133.319 169.103 133.87 169.772C134.422 170.442 134.697 171.333 134.697 172.445C134.697 173.562 134.422 174.455 133.87 175.125C133.319 175.79 132.587 176.123 131.676 176.123ZM131.443 169.813C130.837 169.813 130.343 170.057 129.96 170.545C129.577 171.028 129.386 171.661 129.386 172.445C129.386 173.234 129.577 173.869 129.96 174.353C130.343 174.836 130.837 175.077 131.443 175.077C132.072 175.077 132.569 174.842 132.934 174.373C133.298 173.899 133.48 173.257 133.48 172.445C133.48 171.639 133.298 170.998 132.934 170.524C132.569 170.05 132.072 169.813 131.443 169.813ZM135.969 176V166.136H137.158V176H135.969ZM141.615 169.8C141.064 169.8 140.606 169.991 140.241 170.374C139.881 170.752 139.683 171.24 139.646 171.837H143.509C143.495 171.235 143.315 170.745 142.969 170.367C142.622 169.989 142.171 169.8 141.615 169.8ZM143.481 173.963H144.65C144.546 174.592 144.217 175.109 143.666 175.515C143.119 175.92 142.461 176.123 141.69 176.123C140.674 176.123 139.874 175.795 139.291 175.139C138.708 174.482 138.416 173.594 138.416 172.473C138.416 171.361 138.708 170.465 139.291 169.786C139.879 169.107 140.66 168.768 141.636 168.768C142.593 168.768 143.349 169.089 143.905 169.731C144.461 170.374 144.739 171.235 144.739 172.315V172.767H139.64V172.835C139.64 173.519 139.826 174.065 140.2 174.476C140.574 174.886 141.08 175.091 141.718 175.091C142.164 175.091 142.545 174.988 142.859 174.783C143.174 174.578 143.381 174.305 143.481 173.963ZM150.215 176H148.998V166.136H150.194L155.595 173.881H155.656V166.136H156.873V176H155.677L150.276 168.282H150.215V176ZM160.742 175.111C161.303 175.111 161.772 174.938 162.15 174.592C162.533 174.241 162.725 173.81 162.725 173.3V172.719L160.824 172.835C160.346 172.867 159.974 172.983 159.71 173.184C159.45 173.384 159.32 173.653 159.32 173.99C159.32 174.327 159.45 174.599 159.71 174.804C159.97 175.009 160.314 175.111 160.742 175.111ZM160.476 176.123C159.769 176.123 159.197 175.927 158.76 175.535C158.327 175.143 158.11 174.628 158.11 173.99C158.11 173.38 158.334 172.892 158.78 172.527C159.231 172.163 159.867 171.958 160.688 171.912L162.725 171.796V171.201C162.725 170.768 162.588 170.429 162.314 170.183C162.041 169.937 161.658 169.813 161.166 169.813C160.715 169.813 160.348 169.914 160.065 170.114C159.783 170.31 159.603 170.586 159.525 170.941H158.377C158.418 170.308 158.691 169.788 159.197 169.383C159.708 168.973 160.373 168.768 161.193 168.768C162.027 168.768 162.688 168.977 163.176 169.396C163.668 169.816 163.914 170.379 163.914 171.085V176H162.786V174.776H162.759C162.545 175.182 162.23 175.508 161.815 175.754C161.401 176 160.954 176.123 160.476 176.123ZM165.425 176V168.891H166.546V170.025H166.573C166.746 169.638 167.008 169.333 167.359 169.109C167.71 168.882 168.12 168.768 168.59 168.768C169.073 168.768 169.488 168.886 169.834 169.123C170.18 169.355 170.431 169.688 170.586 170.121H170.613C170.809 169.697 171.103 169.367 171.495 169.13C171.892 168.888 172.34 168.768 172.842 168.768C173.544 168.768 174.104 168.979 174.523 169.403C174.947 169.823 175.159 170.385 175.159 171.092V176H173.97V171.365C173.97 170.878 173.84 170.499 173.58 170.23C173.325 169.957 172.963 169.82 172.493 169.82C172.024 169.82 171.639 169.978 171.338 170.292C171.037 170.602 170.887 170.998 170.887 171.481V176H169.697V171.235C169.697 170.807 169.565 170.465 169.301 170.21C169.036 169.95 168.683 169.82 168.241 169.82C167.772 169.82 167.382 169.984 167.072 170.312C166.767 170.641 166.614 171.051 166.614 171.543V176H165.425ZM179.527 169.8C178.976 169.8 178.518 169.991 178.153 170.374C177.793 170.752 177.595 171.24 177.559 171.837H181.421C181.407 171.235 181.227 170.745 180.881 170.367C180.535 169.989 180.083 169.8 179.527 169.8ZM181.394 173.963H182.562C182.458 174.592 182.13 175.109 181.578 175.515C181.031 175.92 180.373 176.123 179.603 176.123C178.586 176.123 177.786 175.795 177.203 175.139C176.62 174.482 176.328 173.594 176.328 172.473C176.328 171.361 176.62 170.465 177.203 169.786C177.791 169.107 178.573 168.768 179.548 168.768C180.505 168.768 181.261 169.089 181.817 169.731C182.373 170.374 182.651 171.235 182.651 172.315V172.767H177.552V172.835C177.552 173.519 177.739 174.065 178.112 174.476C178.486 174.886 178.992 175.091 179.63 175.091C180.076 175.091 180.457 174.988 180.771 174.783C181.086 174.578 181.293 174.305 181.394 173.963Z" fill="#464255"/>
<path d="M118.018 457.164C116.655 457.164 115.573 456.706 114.771 455.79C113.973 454.869 113.574 453.628 113.574 452.064C113.574 450.515 113.978 449.28 114.784 448.359C115.591 447.434 116.669 446.972 118.018 446.972C119.093 446.972 120.005 447.272 120.752 447.874C121.504 448.471 121.957 449.262 122.112 450.246H120.868C120.709 449.599 120.369 449.082 119.85 448.694C119.33 448.302 118.719 448.106 118.018 448.106C117.056 448.106 116.286 448.466 115.707 449.187C115.128 449.907 114.839 450.866 114.839 452.064C114.839 453.277 115.126 454.241 115.7 454.956C116.274 455.672 117.049 456.029 118.024 456.029C118.749 456.029 119.36 455.863 119.856 455.53C120.353 455.198 120.69 454.73 120.868 454.129H122.112C121.884 455.104 121.417 455.854 120.711 456.378C120.005 456.902 119.107 457.164 118.018 457.164ZM126.33 457.123C125.337 457.123 124.539 456.793 123.938 456.132C123.336 455.466 123.035 454.571 123.035 453.445C123.035 452.32 123.336 451.426 123.938 450.766C124.539 450.1 125.337 449.768 126.33 449.768C127.319 449.768 128.114 450.1 128.716 450.766C129.317 451.426 129.618 452.32 129.618 453.445C129.618 454.566 129.317 455.46 128.716 456.125C128.114 456.79 127.319 457.123 126.33 457.123ZM124.806 455.38C125.184 455.845 125.692 456.077 126.33 456.077C126.968 456.077 127.474 455.847 127.848 455.387C128.221 454.922 128.408 454.275 128.408 453.445C128.408 452.616 128.221 451.971 127.848 451.511C127.474 451.046 126.968 450.813 126.33 450.813C125.692 450.813 125.184 451.046 124.806 451.511C124.432 451.976 124.245 452.62 124.245 453.445C124.245 454.27 124.432 454.915 124.806 455.38ZM130.883 457V447.136H132.072V457H130.883ZM136.625 457.123C135.632 457.123 134.834 456.793 134.232 456.132C133.631 455.466 133.33 454.571 133.33 453.445C133.33 452.32 133.631 451.426 134.232 450.766C134.834 450.1 135.632 449.768 136.625 449.768C137.614 449.768 138.409 450.1 139.011 450.766C139.612 451.426 139.913 452.32 139.913 453.445C139.913 454.566 139.612 455.46 139.011 456.125C138.409 456.79 137.614 457.123 136.625 457.123ZM135.101 455.38C135.479 455.845 135.987 456.077 136.625 456.077C137.263 456.077 137.769 455.847 138.143 455.387C138.516 454.922 138.703 454.275 138.703 453.445C138.703 452.616 138.516 451.971 138.143 451.511C137.769 451.046 137.263 450.813 136.625 450.813C135.987 450.813 135.479 451.046 135.101 451.511C134.727 451.976 134.54 452.62 134.54 453.445C134.54 454.27 134.727 454.915 135.101 455.38ZM141.116 457V449.891H142.237V451.053H142.265C142.383 450.656 142.595 450.344 142.9 450.116C143.21 449.884 143.573 449.768 143.987 449.768C144.083 449.768 144.243 449.784 144.466 449.815V450.971C144.338 450.925 144.126 450.902 143.83 450.902C143.37 450.902 143.001 451.055 142.723 451.36C142.445 451.666 142.306 452.069 142.306 452.57V457H141.116ZM150.092 450.964L148.431 449.918L148.499 451.88H147.604L147.679 449.918L145.997 450.971L145.573 450.15L147.296 449.275L145.58 448.394L146.004 447.601L147.679 448.633L147.61 446.685H148.499L148.431 448.64L150.099 447.601L150.536 448.394L148.8 449.282L150.536 450.157L150.092 450.964Z" fill="#464255"/>
<path d="M118.018 581.164C116.655 581.164 115.573 580.706 114.771 579.79C113.973 578.869 113.574 577.628 113.574 576.064C113.574 574.515 113.978 573.28 114.784 572.359C115.591 571.434 116.669 570.972 118.018 570.972C119.093 570.972 120.005 571.272 120.752 571.874C121.504 572.471 121.957 573.262 122.112 574.246H120.868C120.709 573.599 120.369 573.082 119.85 572.694C119.33 572.302 118.719 572.106 118.018 572.106C117.056 572.106 116.286 572.466 115.707 573.187C115.128 573.907 114.839 574.866 114.839 576.064C114.839 577.277 115.126 578.241 115.7 578.956C116.274 579.672 117.049 580.029 118.024 580.029C118.749 580.029 119.36 579.863 119.856 579.53C120.353 579.198 120.69 578.73 120.868 578.129H122.112C121.884 579.104 121.417 579.854 120.711 580.378C120.005 580.902 119.107 581.164 118.018 581.164ZM123.445 581V571.136H124.635V575.025H124.662C124.863 574.624 125.154 574.314 125.537 574.096C125.924 573.877 126.385 573.768 126.918 573.768C127.693 573.768 128.303 574.007 128.75 574.485C129.197 574.964 129.42 575.604 129.42 576.406V581H128.23V576.625C128.23 576.051 128.087 575.606 127.8 575.292C127.517 574.978 127.1 574.82 126.549 574.82C125.961 574.82 125.494 575.005 125.147 575.374C124.806 575.743 124.635 576.238 124.635 576.857V581H123.445ZM133.877 581.123C132.883 581.123 132.086 580.793 131.484 580.132C130.883 579.466 130.582 578.571 130.582 577.445C130.582 576.32 130.883 575.426 131.484 574.766C132.086 574.1 132.883 573.768 133.877 573.768C134.866 573.768 135.661 574.1 136.263 574.766C136.864 575.426 137.165 576.32 137.165 577.445C137.165 578.566 136.864 579.46 136.263 580.125C135.661 580.79 134.866 581.123 133.877 581.123ZM132.353 579.38C132.731 579.845 133.239 580.077 133.877 580.077C134.515 580.077 135.021 579.847 135.395 579.387C135.768 578.922 135.955 578.275 135.955 577.445C135.955 576.616 135.768 575.971 135.395 575.511C135.021 575.046 134.515 574.813 133.877 574.813C133.239 574.813 132.731 575.046 132.353 575.511C131.979 575.976 131.792 576.62 131.792 577.445C131.792 578.27 131.979 578.915 132.353 579.38ZM141.314 581.123C140.321 581.123 139.523 580.793 138.922 580.132C138.32 579.466 138.02 578.571 138.02 577.445C138.02 576.32 138.32 575.426 138.922 574.766C139.523 574.1 140.321 573.768 141.314 573.768C142.303 573.768 143.099 574.1 143.7 574.766C144.302 575.426 144.603 576.32 144.603 577.445C144.603 578.566 144.302 579.46 143.7 580.125C143.099 580.79 142.303 581.123 141.314 581.123ZM139.79 579.38C140.168 579.845 140.676 580.077 141.314 580.077C141.952 580.077 142.458 579.847 142.832 579.387C143.206 578.922 143.393 578.275 143.393 577.445C143.393 576.616 143.206 575.971 142.832 575.511C142.458 575.046 141.952 574.813 141.314 574.813C140.676 574.813 140.168 575.046 139.79 575.511C139.416 575.976 139.229 576.62 139.229 577.445C139.229 578.27 139.416 578.915 139.79 579.38ZM145.683 575.853C145.683 575.242 145.929 574.743 146.421 574.355C146.918 573.964 147.556 573.768 148.335 573.768C149.069 573.768 149.679 573.964 150.167 574.355C150.655 574.747 150.912 575.244 150.939 575.846H149.805C149.764 575.499 149.609 575.228 149.34 575.032C149.076 574.836 148.727 574.738 148.294 574.738C147.861 574.738 147.512 574.836 147.248 575.032C146.984 575.224 146.852 575.477 146.852 575.791C146.852 576.274 147.246 576.616 148.034 576.816L149.135 577.083C149.85 577.265 150.354 577.502 150.646 577.794C150.942 578.081 151.09 578.487 151.09 579.011C151.09 579.631 150.826 580.139 150.297 580.535C149.768 580.927 149.089 581.123 148.26 581.123C147.485 581.123 146.845 580.932 146.339 580.549C145.838 580.161 145.555 579.651 145.491 579.018H146.681C146.813 579.774 147.364 580.152 148.335 580.152C148.813 580.152 149.192 580.059 149.47 579.872C149.752 579.681 149.894 579.423 149.894 579.1C149.894 578.844 149.809 578.642 149.641 578.491C149.477 578.341 149.196 578.213 148.8 578.108L147.549 577.787C146.305 577.468 145.683 576.823 145.683 575.853ZM155.178 574.8C154.626 574.8 154.168 574.991 153.804 575.374C153.444 575.752 153.245 576.24 153.209 576.837H157.071C157.058 576.235 156.878 575.745 156.531 575.367C156.185 574.989 155.734 574.8 155.178 574.8ZM157.044 578.963H158.213C158.108 579.592 157.78 580.109 157.229 580.515C156.682 580.92 156.023 581.123 155.253 581.123C154.237 581.123 153.437 580.795 152.854 580.139C152.27 579.482 151.979 578.594 151.979 577.473C151.979 576.361 152.27 575.465 152.854 574.786C153.441 574.107 154.223 573.768 155.198 573.768C156.155 573.768 156.912 574.089 157.468 574.731C158.024 575.374 158.302 576.235 158.302 577.315V577.767H153.202V577.835C153.202 578.519 153.389 579.065 153.763 579.476C154.136 579.886 154.642 580.091 155.28 580.091C155.727 580.091 156.107 579.988 156.422 579.783C156.736 579.578 156.944 579.305 157.044 578.963ZM164.721 580.111C165.281 580.111 165.751 579.938 166.129 579.592C166.512 579.241 166.703 578.81 166.703 578.3V577.719L164.803 577.835C164.324 577.867 163.953 577.983 163.688 578.184C163.429 578.384 163.299 578.653 163.299 578.99C163.299 579.327 163.429 579.599 163.688 579.804C163.948 580.009 164.292 580.111 164.721 580.111ZM164.454 581.123C163.748 581.123 163.176 580.927 162.738 580.535C162.305 580.143 162.089 579.628 162.089 578.99C162.089 578.38 162.312 577.892 162.759 577.527C163.21 577.163 163.846 576.958 164.666 576.912L166.703 576.796V576.201C166.703 575.768 166.566 575.429 166.293 575.183C166.02 574.937 165.637 574.813 165.145 574.813C164.693 574.813 164.326 574.914 164.044 575.114C163.761 575.31 163.581 575.586 163.504 575.941H162.355C162.396 575.308 162.67 574.788 163.176 574.383C163.686 573.973 164.352 573.768 165.172 573.768C166.006 573.768 166.667 573.977 167.154 574.396C167.646 574.816 167.893 575.379 167.893 576.085V581H166.765V579.776H166.737C166.523 580.182 166.209 580.508 165.794 580.754C165.379 581 164.933 581.123 164.454 581.123ZM169.403 581V573.891H170.524V575.025H170.552C170.757 574.629 171.051 574.321 171.434 574.103C171.816 573.879 172.274 573.768 172.808 573.768C173.582 573.768 174.186 574.002 174.619 574.472C175.052 574.937 175.269 575.575 175.269 576.386V581H174.079V576.598C174.079 576.019 173.942 575.579 173.669 575.278C173.396 574.973 172.988 574.82 172.445 574.82C171.885 574.82 171.436 575.003 171.099 575.367C170.761 575.732 170.593 576.215 170.593 576.816V581H169.403ZM177.374 583.659C177.164 583.659 176.993 583.646 176.861 583.618V582.62C176.971 582.643 177.126 582.654 177.326 582.654C177.659 582.654 177.925 582.565 178.126 582.388C178.326 582.215 178.495 581.921 178.632 581.506L178.796 581.007L176.171 573.891H177.442L179.411 579.811H179.432L181.4 573.891H182.651L179.855 581.499C179.55 582.328 179.22 582.896 178.864 583.201C178.513 583.507 178.017 583.659 177.374 583.659ZM192.372 576.222H191.21C191.119 575.812 190.916 575.474 190.602 575.21C190.292 574.946 189.888 574.813 189.392 574.813C188.772 574.813 188.273 575.053 187.895 575.531C187.516 576.005 187.327 576.643 187.327 577.445C187.327 578.261 187.516 578.904 187.895 579.373C188.277 579.842 188.781 580.077 189.405 580.077C189.884 580.077 190.278 579.959 190.588 579.722C190.902 579.48 191.112 579.143 191.217 578.71H192.386C192.295 579.421 191.973 580.002 191.422 580.453C190.875 580.9 190.201 581.123 189.398 581.123C188.405 581.123 187.61 580.795 187.013 580.139C186.416 579.478 186.117 578.58 186.117 577.445C186.117 576.329 186.416 575.438 187.013 574.772C187.61 574.103 188.4 573.768 189.385 573.768C190.232 573.768 190.921 574.007 191.449 574.485C191.982 574.964 192.29 575.543 192.372 576.222ZM196.426 581.123C195.432 581.123 194.635 580.793 194.033 580.132C193.432 579.466 193.131 578.571 193.131 577.445C193.131 576.32 193.432 575.426 194.033 574.766C194.635 574.1 195.432 573.768 196.426 573.768C197.415 573.768 198.21 574.1 198.812 574.766C199.413 575.426 199.714 576.32 199.714 577.445C199.714 578.566 199.413 579.46 198.812 580.125C198.21 580.79 197.415 581.123 196.426 581.123ZM194.901 579.38C195.28 579.845 195.788 580.077 196.426 580.077C197.064 580.077 197.57 579.847 197.943 579.387C198.317 578.922 198.504 578.275 198.504 577.445C198.504 576.616 198.317 575.971 197.943 575.511C197.57 575.046 197.064 574.813 196.426 574.813C195.788 574.813 195.28 575.046 194.901 575.511C194.528 575.976 194.341 576.62 194.341 577.445C194.341 578.27 194.528 578.915 194.901 579.38ZM200.979 581V571.136H202.168V581H200.979ZM206.721 581.123C205.727 581.123 204.93 580.793 204.328 580.132C203.727 579.466 203.426 578.571 203.426 577.445C203.426 576.32 203.727 575.426 204.328 574.766C204.93 574.1 205.727 573.768 206.721 573.768C207.71 573.768 208.505 574.1 209.106 574.766C209.708 575.426 210.009 576.32 210.009 577.445C210.009 578.566 209.708 579.46 209.106 580.125C208.505 580.79 207.71 581.123 206.721 581.123ZM205.196 579.38C205.575 579.845 206.083 580.077 206.721 580.077C207.359 580.077 207.865 579.847 208.238 579.387C208.612 578.922 208.799 578.275 208.799 577.445C208.799 576.616 208.612 575.971 208.238 575.511C207.865 575.046 207.359 574.813 206.721 574.813C206.083 574.813 205.575 575.046 205.196 575.511C204.823 575.976 204.636 576.62 204.636 577.445C204.636 578.27 204.823 578.915 205.196 579.38ZM211.212 581V573.891H212.333V575.053H212.36C212.479 574.656 212.691 574.344 212.996 574.116C213.306 573.884 213.668 573.768 214.083 573.768C214.179 573.768 214.338 573.784 214.562 573.815V574.971C214.434 574.925 214.222 574.902 213.926 574.902C213.465 574.902 213.096 575.055 212.818 575.36C212.54 575.666 212.401 576.069 212.401 576.57V581H211.212ZM216.407 580.843C216.257 580.993 216.072 581.068 215.854 581.068C215.635 581.068 215.45 580.993 215.3 580.843C215.149 580.692 215.074 580.508 215.074 580.289C215.074 580.07 215.149 579.886 215.3 579.735C215.45 579.585 215.635 579.51 215.854 579.51C216.072 579.51 216.257 579.585 216.407 579.735C216.558 579.886 216.633 580.07 216.633 580.289C216.633 580.508 216.558 580.692 216.407 580.843ZM221.616 572.346C222.432 571.43 223.539 570.972 224.938 570.972C226.338 570.972 227.445 571.43 228.261 572.346C229.076 573.262 229.484 574.504 229.484 576.071C229.484 577.639 229.076 578.881 228.261 579.797C227.445 580.708 226.338 581.164 224.938 581.164C223.539 581.164 222.432 580.708 221.616 579.797C220.8 578.881 220.393 577.639 220.393 576.071C220.393 574.504 220.8 573.262 221.616 572.346ZM227.331 573.18C226.743 572.464 225.946 572.106 224.938 572.106C223.931 572.106 223.132 572.464 222.539 573.18C221.951 573.891 221.657 574.854 221.657 576.071C221.657 577.284 221.951 578.247 222.539 578.963C223.132 579.674 223.931 580.029 224.938 580.029C225.946 580.029 226.743 579.674 227.331 578.963C227.924 578.247 228.22 577.284 228.22 576.071C228.22 574.854 227.924 573.891 227.331 573.18ZM230.831 581V573.891H231.952V575.053H231.979C232.098 574.656 232.31 574.344 232.615 574.116C232.925 573.884 233.287 573.768 233.702 573.768C233.798 573.768 233.957 573.784 234.181 573.815V574.971C234.053 574.925 233.841 574.902 233.545 574.902C233.085 574.902 232.715 575.055 232.438 575.36C232.16 575.666 232.021 576.069 232.021 576.57V581H230.831ZM238.61 583.659C238.401 583.659 238.23 583.646 238.098 583.618V582.62C238.207 582.643 238.362 582.654 238.562 582.654C238.895 582.654 239.162 582.565 239.362 582.388C239.563 582.215 239.731 581.921 239.868 581.506L240.032 581.007L237.407 573.891H238.679L240.647 579.811H240.668L242.637 573.891H243.888L241.092 581.499C240.786 582.328 240.456 582.896 240.101 583.201C239.75 583.507 239.253 583.659 238.61 583.659ZM247.572 581.123C246.579 581.123 245.781 580.793 245.18 580.132C244.578 579.466 244.277 578.571 244.277 577.445C244.277 576.32 244.578 575.426 245.18 574.766C245.781 574.1 246.579 573.768 247.572 573.768C248.561 573.768 249.356 574.1 249.958 574.766C250.56 575.426 250.86 576.32 250.86 577.445C250.86 578.566 250.56 579.46 249.958 580.125C249.356 580.79 248.561 581.123 247.572 581.123ZM246.048 579.38C246.426 579.845 246.934 580.077 247.572 580.077C248.21 580.077 248.716 579.847 249.09 579.387C249.464 578.922 249.65 578.275 249.65 577.445C249.65 576.616 249.464 575.971 249.09 575.511C248.716 575.046 248.21 574.813 247.572 574.813C246.934 574.813 246.426 575.046 246.048 575.511C245.674 575.976 245.487 576.62 245.487 577.445C245.487 578.27 245.674 578.915 246.048 579.38ZM257.901 573.891V581H256.773V579.845H256.746C256.304 580.697 255.552 581.123 254.49 581.123C253.72 581.123 253.116 580.891 252.679 580.426C252.246 579.956 252.029 579.316 252.029 578.505V573.891H253.219V578.293C253.219 579.478 253.766 580.07 254.859 580.07C255.434 580.07 255.885 579.89 256.213 579.53C256.546 579.166 256.712 578.678 256.712 578.067V573.891H257.901ZM268.224 576.222H267.062C266.97 575.812 266.768 575.474 266.453 575.21C266.143 574.946 265.74 574.813 265.243 574.813C264.623 574.813 264.124 575.053 263.746 575.531C263.368 576.005 263.179 576.643 263.179 577.445C263.179 578.261 263.368 578.904 263.746 579.373C264.129 579.842 264.632 580.077 265.257 580.077C265.735 580.077 266.13 579.959 266.439 579.722C266.754 579.48 266.964 579.143 267.068 578.71H268.237C268.146 579.421 267.825 580.002 267.273 580.453C266.727 580.9 266.052 581.123 265.25 581.123C264.257 581.123 263.461 580.795 262.864 580.139C262.267 579.478 261.969 578.58 261.969 577.445C261.969 576.329 262.267 575.438 262.864 574.772C263.461 574.103 264.252 573.768 265.236 573.768C266.084 573.768 266.772 574.007 267.301 574.485C267.834 574.964 268.142 575.543 268.224 576.222ZM271.676 580.111C272.236 580.111 272.706 579.938 273.084 579.592C273.467 579.241 273.658 578.81 273.658 578.3V577.719L271.758 577.835C271.279 577.867 270.908 577.983 270.644 578.184C270.384 578.384 270.254 578.653 270.254 578.99C270.254 579.327 270.384 579.599 270.644 579.804C270.903 580.009 271.247 580.111 271.676 580.111ZM271.409 581.123C270.703 581.123 270.131 580.927 269.693 580.535C269.26 580.143 269.044 579.628 269.044 578.99C269.044 578.38 269.267 577.892 269.714 577.527C270.165 577.163 270.801 576.958 271.621 576.912L273.658 576.796V576.201C273.658 575.768 273.521 575.429 273.248 575.183C272.975 574.937 272.592 574.813 272.1 574.813C271.648 574.813 271.282 574.914 270.999 575.114C270.716 575.31 270.536 575.586 270.459 575.941H269.311C269.352 575.308 269.625 574.788 270.131 574.383C270.641 573.973 271.307 573.768 272.127 573.768C272.961 573.768 273.622 573.977 274.109 574.396C274.602 574.816 274.848 575.379 274.848 576.085V581H273.72V579.776H273.692C273.478 580.182 273.164 580.508 272.749 580.754C272.334 581 271.888 581.123 271.409 581.123ZM276.358 581V573.891H277.479V575.025H277.507C277.712 574.629 278.006 574.321 278.389 574.103C278.771 573.879 279.229 573.768 279.763 573.768C280.537 573.768 281.141 574.002 281.574 574.472C282.007 574.937 282.224 575.575 282.224 576.386V581H281.034V576.598C281.034 576.019 280.897 575.579 280.624 575.278C280.351 574.973 279.943 574.82 279.4 574.82C278.84 574.82 278.391 575.003 278.054 575.367C277.716 575.732 277.548 576.215 277.548 576.816V581H276.358ZM292.519 576.222H291.356C291.265 575.812 291.062 575.474 290.748 575.21C290.438 574.946 290.035 574.813 289.538 574.813C288.918 574.813 288.419 575.053 288.041 575.531C287.663 576.005 287.474 576.643 287.474 577.445C287.474 578.261 287.663 578.904 288.041 579.373C288.424 579.842 288.927 580.077 289.552 580.077C290.03 580.077 290.424 579.959 290.734 579.722C291.049 579.48 291.258 579.143 291.363 578.71H292.532C292.441 579.421 292.12 580.002 291.568 580.453C291.021 580.9 290.347 581.123 289.545 581.123C288.551 581.123 287.756 580.795 287.159 580.139C286.562 579.478 286.264 578.58 286.264 577.445C286.264 576.329 286.562 575.438 287.159 574.772C287.756 574.103 288.547 573.768 289.531 573.768C290.379 573.768 291.067 574.007 291.596 574.485C292.129 574.964 292.437 575.543 292.519 576.222ZM293.688 581V571.136H294.877V575.025H294.904C295.105 574.624 295.396 574.314 295.779 574.096C296.167 573.877 296.627 573.768 297.16 573.768C297.935 573.768 298.546 574.007 298.992 574.485C299.439 574.964 299.662 575.604 299.662 576.406V581H298.473V576.625C298.473 576.051 298.329 575.606 298.042 575.292C297.759 574.978 297.342 574.82 296.791 574.82C296.203 574.82 295.736 575.005 295.39 575.374C295.048 575.743 294.877 576.238 294.877 576.857V581H293.688ZM304.119 581.123C303.126 581.123 302.328 580.793 301.727 580.132C301.125 579.466 300.824 578.571 300.824 577.445C300.824 576.32 301.125 575.426 301.727 574.766C302.328 574.1 303.126 573.768 304.119 573.768C305.108 573.768 305.903 574.1 306.505 574.766C307.106 575.426 307.407 576.32 307.407 577.445C307.407 578.566 307.106 579.46 306.505 580.125C305.903 580.79 305.108 581.123 304.119 581.123ZM302.595 579.38C302.973 579.845 303.481 580.077 304.119 580.077C304.757 580.077 305.263 579.847 305.637 579.387C306.01 578.922 306.197 578.275 306.197 577.445C306.197 576.616 306.01 575.971 305.637 575.511C305.263 575.046 304.757 574.813 304.119 574.813C303.481 574.813 302.973 575.046 302.595 575.511C302.221 575.976 302.034 576.62 302.034 577.445C302.034 578.27 302.221 578.915 302.595 579.38ZM311.557 581.123C310.563 581.123 309.766 580.793 309.164 580.132C308.562 579.466 308.262 578.571 308.262 577.445C308.262 576.32 308.562 575.426 309.164 574.766C309.766 574.1 310.563 573.768 311.557 573.768C312.546 573.768 313.341 574.1 313.942 574.766C314.544 575.426 314.845 576.32 314.845 577.445C314.845 578.566 314.544 579.46 313.942 580.125C313.341 580.79 312.546 581.123 311.557 581.123ZM310.032 579.38C310.41 579.845 310.919 580.077 311.557 580.077C312.195 580.077 312.701 579.847 313.074 579.387C313.448 578.922 313.635 578.275 313.635 577.445C313.635 576.616 313.448 575.971 313.074 575.511C312.701 575.046 312.195 574.813 311.557 574.813C310.919 574.813 310.41 575.046 310.032 575.511C309.659 575.976 309.472 576.62 309.472 577.445C309.472 578.27 309.659 578.915 310.032 579.38ZM315.925 575.853C315.925 575.242 316.171 574.743 316.663 574.355C317.16 573.964 317.798 573.768 318.577 573.768C319.311 573.768 319.922 573.964 320.409 574.355C320.897 574.747 321.154 575.244 321.182 575.846H320.047C320.006 575.499 319.851 575.228 319.582 575.032C319.318 574.836 318.969 574.738 318.536 574.738C318.103 574.738 317.755 574.836 317.49 575.032C317.226 575.224 317.094 575.477 317.094 575.791C317.094 576.274 317.488 576.616 318.276 576.816L319.377 577.083C320.092 577.265 320.596 577.502 320.888 577.794C321.184 578.081 321.332 578.487 321.332 579.011C321.332 579.631 321.068 580.139 320.539 580.535C320.01 580.927 319.331 581.123 318.502 581.123C317.727 581.123 317.087 580.932 316.581 580.549C316.08 580.161 315.797 579.651 315.733 579.018H316.923C317.055 579.774 317.606 580.152 318.577 580.152C319.056 580.152 319.434 580.059 319.712 579.872C319.994 579.681 320.136 579.423 320.136 579.1C320.136 578.844 320.051 578.642 319.883 578.491C319.719 578.341 319.438 578.213 319.042 578.108L317.791 577.787C316.547 577.468 315.925 576.823 315.925 575.853ZM325.42 574.8C324.868 574.8 324.41 574.991 324.046 575.374C323.686 575.752 323.488 576.24 323.451 576.837H327.313C327.3 576.235 327.12 575.745 326.773 575.367C326.427 574.989 325.976 574.8 325.42 574.8ZM327.286 578.963H328.455C328.35 579.592 328.022 580.109 327.471 580.515C326.924 580.92 326.265 581.123 325.495 581.123C324.479 581.123 323.679 580.795 323.096 580.139C322.512 579.482 322.221 578.594 322.221 577.473C322.221 576.361 322.512 575.465 323.096 574.786C323.684 574.107 324.465 573.768 325.44 573.768C326.397 573.768 327.154 574.089 327.71 574.731C328.266 575.374 328.544 576.235 328.544 577.315V577.767H323.444V577.835C323.444 578.519 323.631 579.065 324.005 579.476C324.379 579.886 324.884 580.091 325.522 580.091C325.969 580.091 326.35 579.988 326.664 579.783C326.979 579.578 327.186 579.305 327.286 578.963ZM335.564 581.123C334.571 581.123 333.773 580.793 333.172 580.132C332.57 579.466 332.27 578.571 332.27 577.445C332.27 576.32 332.57 575.426 333.172 574.766C333.773 574.1 334.571 573.768 335.564 573.768C336.553 573.768 337.349 574.1 337.95 574.766C338.552 575.426 338.853 576.32 338.853 577.445C338.853 578.566 338.552 579.46 337.95 580.125C337.349 580.79 336.553 581.123 335.564 581.123ZM334.04 579.38C334.418 579.845 334.926 580.077 335.564 580.077C336.202 580.077 336.708 579.847 337.082 579.387C337.456 578.922 337.643 578.275 337.643 577.445C337.643 576.616 337.456 575.971 337.082 575.511C336.708 575.046 336.202 574.813 335.564 574.813C334.926 574.813 334.418 575.046 334.04 575.511C333.666 575.976 333.479 576.62 333.479 577.445C333.479 578.27 333.666 578.915 334.04 579.38ZM340.056 581V573.891H341.177V575.025H341.204C341.409 574.629 341.703 574.321 342.086 574.103C342.469 573.879 342.927 573.768 343.46 573.768C344.235 573.768 344.839 574.002 345.271 574.472C345.704 574.937 345.921 575.575 345.921 576.386V581H344.731V576.598C344.731 576.019 344.595 575.579 344.321 575.278C344.048 574.973 343.64 574.82 343.098 574.82C342.537 574.82 342.088 575.003 341.751 575.367C341.414 575.732 341.245 576.215 341.245 576.816V581H340.056ZM350.289 574.8C349.738 574.8 349.28 574.991 348.915 575.374C348.555 575.752 348.357 576.24 348.32 576.837H352.183C352.169 576.235 351.989 575.745 351.643 575.367C351.296 574.989 350.845 574.8 350.289 574.8ZM352.155 578.963H353.324C353.219 579.592 352.891 580.109 352.34 580.515C351.793 580.92 351.134 581.123 350.364 581.123C349.348 581.123 348.548 580.795 347.965 580.139C347.382 579.482 347.09 578.594 347.09 577.473C347.09 576.361 347.382 575.465 347.965 574.786C348.553 574.107 349.334 573.768 350.31 573.768C351.267 573.768 352.023 574.089 352.579 574.731C353.135 575.374 353.413 576.235 353.413 577.315V577.767H348.313V577.835C348.313 578.519 348.5 579.065 348.874 579.476C349.248 579.886 349.754 580.091 350.392 580.091C350.838 580.091 351.219 579.988 351.533 579.783C351.848 579.578 352.055 579.305 352.155 578.963ZM360.434 581.123C359.44 581.123 358.643 580.793 358.041 580.132C357.439 579.466 357.139 578.571 357.139 577.445C357.139 576.32 357.439 575.426 358.041 574.766C358.643 574.1 359.44 573.768 360.434 573.768C361.423 573.768 362.218 574.1 362.819 574.766C363.421 575.426 363.722 576.32 363.722 577.445C363.722 578.566 363.421 579.46 362.819 580.125C362.218 580.79 361.423 581.123 360.434 581.123ZM358.909 579.38C359.287 579.845 359.796 580.077 360.434 580.077C361.072 580.077 361.577 579.847 361.951 579.387C362.325 578.922 362.512 578.275 362.512 577.445C362.512 576.616 362.325 575.971 361.951 575.511C361.577 575.046 361.072 574.813 360.434 574.813C359.796 574.813 359.287 575.046 358.909 575.511C358.535 575.976 358.349 576.62 358.349 577.445C358.349 578.27 358.535 578.915 358.909 579.38ZM365.308 581V574.868H364.316V573.891H365.308V573.098C365.308 572.414 365.467 571.908 365.786 571.58C366.11 571.247 366.6 571.081 367.256 571.081C367.511 571.081 367.753 571.099 367.98 571.136V572.1C367.789 572.072 367.609 572.059 367.44 572.059C366.807 572.059 366.49 572.407 366.49 573.104V573.891H367.946V574.868H366.497V581H365.308ZM372.431 572.175H373.62V573.891H375.001V574.868H373.62V579.093C373.62 579.416 373.691 579.656 373.832 579.811C373.973 579.961 374.197 580.036 374.502 580.036C374.693 580.036 374.857 580.025 374.994 580.002V581C374.839 581.036 374.589 581.055 374.242 581.055C373.59 581.055 373.126 580.909 372.848 580.617C372.57 580.326 372.431 579.838 372.431 579.154V574.868H371.371V573.891H372.431V572.175ZM376.334 581V571.136H377.523V575.025H377.551C377.751 574.624 378.043 574.314 378.426 574.096C378.813 573.877 379.273 573.768 379.807 573.768C380.581 573.768 381.192 574.007 381.639 574.485C382.085 574.964 382.309 575.604 382.309 576.406V581H381.119V576.625C381.119 576.051 380.976 575.606 380.688 575.292C380.406 574.978 379.989 574.82 379.438 574.82C378.85 574.82 378.382 575.005 378.036 575.374C377.694 575.743 377.523 576.238 377.523 576.857V581H376.334ZM386.67 574.8C386.118 574.8 385.66 574.991 385.296 575.374C384.936 575.752 384.738 576.24 384.701 576.837H388.563C388.55 576.235 388.37 575.745 388.023 575.367C387.677 574.989 387.226 574.8 386.67 574.8ZM388.536 578.963H389.705C389.6 579.592 389.272 580.109 388.721 580.515C388.174 580.92 387.515 581.123 386.745 581.123C385.729 581.123 384.929 580.795 384.346 580.139C383.762 579.482 383.471 578.594 383.471 577.473C383.471 576.361 383.762 575.465 384.346 574.786C384.934 574.107 385.715 573.768 386.69 573.768C387.647 573.768 388.404 574.089 388.96 574.731C389.516 575.374 389.794 576.235 389.794 577.315V577.767H384.694V577.835C384.694 578.519 384.881 579.065 385.255 579.476C385.629 579.886 386.134 580.091 386.772 580.091C387.219 580.091 387.6 579.988 387.914 579.783C388.229 579.578 388.436 579.305 388.536 578.963ZM393.745 575.853C393.745 575.242 393.991 574.743 394.483 574.355C394.98 573.964 395.618 573.768 396.397 573.768C397.131 573.768 397.742 573.964 398.229 574.355C398.717 574.747 398.975 575.244 399.002 575.846H397.867C397.826 575.499 397.671 575.228 397.402 575.032C397.138 574.836 396.789 574.738 396.356 574.738C395.924 574.738 395.575 574.836 395.311 575.032C395.046 575.224 394.914 575.477 394.914 575.791C394.914 576.274 395.308 576.616 396.097 576.816L397.197 577.083C397.913 577.265 398.416 577.502 398.708 577.794C399.004 578.081 399.152 578.487 399.152 579.011C399.152 579.631 398.888 580.139 398.359 580.535C397.831 580.927 397.152 581.123 396.322 581.123C395.548 581.123 394.907 580.932 394.401 580.549C393.9 580.161 393.618 579.651 393.554 579.018H394.743C394.875 579.774 395.427 580.152 396.397 580.152C396.876 580.152 397.254 580.059 397.532 579.872C397.815 579.681 397.956 579.423 397.956 579.1C397.956 578.844 397.872 578.642 397.703 578.491C397.539 578.341 397.259 578.213 396.862 578.108L395.611 577.787C394.367 577.468 393.745 576.823 393.745 575.853ZM406.228 573.891V581H405.1V579.845H405.072C404.63 580.697 403.878 581.123 402.816 581.123C402.046 581.123 401.442 580.891 401.005 580.426C400.572 579.956 400.355 579.316 400.355 578.505V573.891H401.545V578.293C401.545 579.478 402.092 580.07 403.186 580.07C403.76 580.07 404.211 579.89 404.539 579.53C404.872 579.166 405.038 578.678 405.038 578.067V573.891H406.228ZM410.664 580.009C411.284 580.009 411.783 579.772 412.161 579.298C412.539 578.824 412.729 578.197 412.729 577.418C412.729 576.634 412.539 576.005 412.161 575.531C411.783 575.053 411.284 574.813 410.664 574.813C410.049 574.813 409.557 575.05 409.188 575.524C408.823 575.994 408.641 576.625 408.641 577.418C408.641 578.211 408.823 578.842 409.188 579.312C409.557 579.776 410.049 580.009 410.664 580.009ZM410.705 583.68C409.926 583.68 409.256 583.481 408.695 583.085C408.135 582.693 407.804 582.194 407.704 581.588H408.928C409.046 581.916 409.27 582.178 409.598 582.374C409.926 582.57 410.311 582.668 410.753 582.668C411.364 582.668 411.844 582.506 412.195 582.183C412.551 581.859 412.729 581.431 412.729 580.897V579.776H412.701C412.478 580.168 412.166 580.48 411.765 580.713C411.364 580.941 410.917 581.055 410.425 581.055C409.518 581.055 408.791 580.724 408.244 580.063C407.697 579.403 407.424 578.521 407.424 577.418C407.424 576.306 407.697 575.42 408.244 574.759C408.796 574.098 409.532 573.768 410.452 573.768C410.953 573.768 411.405 573.884 411.806 574.116C412.207 574.349 412.526 574.672 412.763 575.087H412.783V573.891H413.918V580.856C413.918 581.709 413.626 582.392 413.043 582.907C412.46 583.422 411.68 583.68 410.705 583.68ZM418.361 580.009C418.981 580.009 419.48 579.772 419.858 579.298C420.237 578.824 420.426 578.197 420.426 577.418C420.426 576.634 420.237 576.005 419.858 575.531C419.48 575.053 418.981 574.813 418.361 574.813C417.746 574.813 417.254 575.05 416.885 575.524C416.52 575.994 416.338 576.625 416.338 577.418C416.338 578.211 416.52 578.842 416.885 579.312C417.254 579.776 417.746 580.009 418.361 580.009ZM418.402 583.68C417.623 583.68 416.953 583.481 416.393 583.085C415.832 582.693 415.502 582.194 415.401 581.588H416.625C416.743 581.916 416.967 582.178 417.295 582.374C417.623 582.57 418.008 582.668 418.45 582.668C419.061 582.668 419.542 582.506 419.893 582.183C420.248 581.859 420.426 581.431 420.426 580.897V579.776H420.398C420.175 580.168 419.863 580.48 419.462 580.713C419.061 580.941 418.614 581.055 418.122 581.055C417.215 581.055 416.488 580.724 415.941 580.063C415.395 579.403 415.121 578.521 415.121 577.418C415.121 576.306 415.395 575.42 415.941 574.759C416.493 574.098 417.229 573.768 418.149 573.768C418.651 573.768 419.102 573.884 419.503 574.116C419.904 574.349 420.223 574.672 420.46 575.087H420.48V573.891H421.615V580.856C421.615 581.709 421.324 582.392 420.74 582.907C420.157 583.422 419.378 583.68 418.402 583.68ZM426.018 574.8C425.466 574.8 425.008 574.991 424.644 575.374C424.284 575.752 424.085 576.24 424.049 576.837H427.911C427.897 576.235 427.717 575.745 427.371 575.367C427.025 574.989 426.574 574.8 426.018 574.8ZM427.884 578.963H429.053C428.948 579.592 428.62 580.109 428.068 580.515C427.521 580.92 426.863 581.123 426.093 581.123C425.076 581.123 424.277 580.795 423.693 580.139C423.11 579.482 422.818 578.594 422.818 577.473C422.818 576.361 423.11 575.465 423.693 574.786C424.281 574.107 425.063 573.768 426.038 573.768C426.995 573.768 427.752 574.089 428.308 574.731C428.864 575.374 429.142 576.235 429.142 577.315V577.767H424.042V577.835C424.042 578.519 424.229 579.065 424.603 579.476C424.976 579.886 425.482 580.091 426.12 580.091C426.567 580.091 426.947 579.988 427.262 579.783C427.576 579.578 427.784 579.305 427.884 578.963ZM430.222 575.853C430.222 575.242 430.468 574.743 430.96 574.355C431.457 573.964 432.095 573.768 432.874 573.768C433.608 573.768 434.218 573.964 434.706 574.355C435.194 574.747 435.451 575.244 435.479 575.846H434.344C434.303 575.499 434.148 575.228 433.879 575.032C433.615 574.836 433.266 574.738 432.833 574.738C432.4 574.738 432.051 574.836 431.787 575.032C431.523 575.224 431.391 575.477 431.391 575.791C431.391 576.274 431.785 576.616 432.573 576.816L433.674 577.083C434.389 577.265 434.893 577.502 435.185 577.794C435.481 578.081 435.629 578.487 435.629 579.011C435.629 579.631 435.365 580.139 434.836 580.535C434.307 580.927 433.628 581.123 432.799 581.123C432.024 581.123 431.384 580.932 430.878 580.549C430.377 580.161 430.094 579.651 430.03 579.018H431.22C431.352 579.774 431.903 580.152 432.874 580.152C433.353 580.152 433.731 580.059 434.009 579.872C434.291 579.681 434.433 579.423 434.433 579.1C434.433 578.844 434.348 578.642 434.18 578.491C434.016 578.341 433.735 578.213 433.339 578.108L432.088 577.787C430.844 577.468 430.222 576.823 430.222 575.853ZM437.249 572.175H438.438V573.891H439.819V574.868H438.438V579.093C438.438 579.416 438.509 579.656 438.65 579.811C438.792 579.961 439.015 580.036 439.32 580.036C439.512 580.036 439.676 580.025 439.812 580.002V581C439.658 581.036 439.407 581.055 439.061 581.055C438.409 581.055 437.944 580.909 437.666 580.617C437.388 580.326 437.249 579.838 437.249 579.154V574.868H436.189V573.891H437.249V572.175ZM443.736 574.8C443.185 574.8 442.727 574.991 442.362 575.374C442.002 575.752 441.804 576.24 441.768 576.837H445.63C445.616 576.235 445.436 575.745 445.09 575.367C444.743 574.989 444.292 574.8 443.736 574.8ZM445.603 578.963H446.771C446.667 579.592 446.339 580.109 445.787 580.515C445.24 580.92 444.582 581.123 443.812 581.123C442.795 581.123 441.995 580.795 441.412 580.139C440.829 579.482 440.537 578.594 440.537 577.473C440.537 576.361 440.829 575.465 441.412 574.786C442 574.107 442.782 573.768 443.757 573.768C444.714 573.768 445.47 574.089 446.026 574.731C446.582 575.374 446.86 576.235 446.86 577.315V577.767H441.761V577.835C441.761 578.519 441.948 579.065 442.321 579.476C442.695 579.886 443.201 580.091 443.839 580.091C444.285 580.091 444.666 579.988 444.98 579.783C445.295 579.578 445.502 579.305 445.603 578.963ZM450.757 581.123C449.845 581.123 449.109 580.788 448.549 580.118C447.993 579.448 447.715 578.557 447.715 577.445C447.715 576.338 447.993 575.449 448.549 574.779C449.105 574.105 449.832 573.768 450.729 573.768C451.231 573.768 451.68 573.882 452.076 574.109C452.473 574.337 452.778 574.649 452.992 575.046H453.02V571.136H454.209V581H453.074V579.797H453.054C452.821 580.212 452.507 580.537 452.11 580.774C451.714 581.007 451.263 581.123 450.757 581.123ZM450.982 574.813C450.354 574.813 449.854 575.053 449.485 575.531C449.116 576.005 448.932 576.643 448.932 577.445C448.932 578.252 449.116 578.892 449.485 579.366C449.854 579.84 450.354 580.077 450.982 580.077C451.598 580.077 452.092 579.838 452.466 579.359C452.84 578.876 453.026 578.238 453.026 577.445C453.026 576.652 452.837 576.017 452.459 575.538C452.085 575.055 451.593 574.813 450.982 574.813ZM464.593 576.222H463.431C463.34 575.812 463.137 575.474 462.822 575.21C462.512 574.946 462.109 574.813 461.612 574.813C460.993 574.813 460.493 575.053 460.115 575.531C459.737 576.005 459.548 576.643 459.548 577.445C459.548 578.261 459.737 578.904 460.115 579.373C460.498 579.842 461.002 580.077 461.626 580.077C462.104 580.077 462.499 579.959 462.809 579.722C463.123 579.48 463.333 579.143 463.438 578.71H464.606C464.515 579.421 464.194 580.002 463.643 580.453C463.096 580.9 462.421 581.123 461.619 581.123C460.626 581.123 459.83 580.795 459.233 580.139C458.636 579.478 458.338 578.58 458.338 577.445C458.338 576.329 458.636 575.438 459.233 574.772C459.83 574.103 460.621 573.768 461.605 573.768C462.453 573.768 463.141 574.007 463.67 574.485C464.203 574.964 464.511 575.543 464.593 576.222ZM468.646 581.123C467.653 581.123 466.855 580.793 466.254 580.132C465.652 579.466 465.352 578.571 465.352 577.445C465.352 576.32 465.652 575.426 466.254 574.766C466.855 574.1 467.653 573.768 468.646 573.768C469.635 573.768 470.431 574.1 471.032 574.766C471.634 575.426 471.935 576.32 471.935 577.445C471.935 578.566 471.634 579.46 471.032 580.125C470.431 580.79 469.635 581.123 468.646 581.123ZM467.122 579.38C467.5 579.845 468.008 580.077 468.646 580.077C469.285 580.077 469.79 579.847 470.164 579.387C470.538 578.922 470.725 578.275 470.725 577.445C470.725 576.616 470.538 575.971 470.164 575.511C469.79 575.046 469.285 574.813 468.646 574.813C468.008 574.813 467.5 575.046 467.122 575.511C466.748 575.976 466.562 576.62 466.562 577.445C466.562 578.27 466.748 578.915 467.122 579.38ZM473.199 581V571.136H474.389V581H473.199ZM478.941 581.123C477.948 581.123 477.15 580.793 476.549 580.132C475.947 579.466 475.646 578.571 475.646 577.445C475.646 576.32 475.947 575.426 476.549 574.766C477.15 574.1 477.948 573.768 478.941 573.768C479.93 573.768 480.726 574.1 481.327 574.766C481.929 575.426 482.229 576.32 482.229 577.445C482.229 578.566 481.929 579.46 481.327 580.125C480.726 580.79 479.93 581.123 478.941 581.123ZM477.417 579.38C477.795 579.845 478.303 580.077 478.941 580.077C479.579 580.077 480.085 579.847 480.459 579.387C480.833 578.922 481.02 578.275 481.02 577.445C481.02 576.616 480.833 575.971 480.459 575.511C480.085 575.046 479.579 574.813 478.941 574.813C478.303 574.813 477.795 575.046 477.417 575.511C477.043 575.976 476.856 576.62 476.856 577.445C476.856 578.27 477.043 578.915 477.417 579.38ZM483.433 581V573.891H484.554V575.053H484.581C484.7 574.656 484.911 574.344 485.217 574.116C485.527 573.884 485.889 573.768 486.304 573.768C486.399 573.768 486.559 573.784 486.782 573.815V574.971C486.655 574.925 486.443 574.902 486.146 574.902C485.686 574.902 485.317 575.055 485.039 575.36C484.761 575.666 484.622 576.069 484.622 576.57V581H483.433ZM487.63 575.853C487.63 575.242 487.876 574.743 488.368 574.355C488.865 573.964 489.503 573.768 490.282 573.768C491.016 573.768 491.627 573.964 492.114 574.355C492.602 574.747 492.859 575.244 492.887 575.846H491.752C491.711 575.499 491.556 575.228 491.287 575.032C491.023 574.836 490.674 574.738 490.241 574.738C489.808 574.738 489.46 574.836 489.195 575.032C488.931 575.224 488.799 575.477 488.799 575.791C488.799 576.274 489.193 576.616 489.981 576.816L491.082 577.083C491.798 577.265 492.301 577.502 492.593 577.794C492.889 578.081 493.037 578.487 493.037 579.011C493.037 579.631 492.773 580.139 492.244 580.535C491.715 580.927 491.036 581.123 490.207 581.123C489.432 581.123 488.792 580.932 488.286 580.549C487.785 580.161 487.502 579.651 487.438 579.018H488.628C488.76 579.774 489.312 580.152 490.282 580.152C490.761 580.152 491.139 580.059 491.417 579.872C491.7 579.681 491.841 579.423 491.841 579.1C491.841 578.844 491.757 578.642 491.588 578.491C491.424 578.341 491.144 578.213 490.747 578.108L489.496 577.787C488.252 577.468 487.63 576.823 487.63 575.853ZM500.68 581.123C500.169 581.123 499.714 581.007 499.312 580.774C498.916 580.542 498.602 580.216 498.369 579.797H498.342V581H497.207V571.136H498.396V575.08H498.424C498.647 574.67 498.957 574.349 499.354 574.116C499.755 573.884 500.203 573.768 500.7 573.768C501.598 573.768 502.323 574.103 502.874 574.772C503.425 575.442 503.701 576.333 503.701 577.445C503.701 578.562 503.425 579.455 502.874 580.125C502.323 580.79 501.591 581.123 500.68 581.123ZM500.447 574.813C499.841 574.813 499.347 575.057 498.964 575.545C498.581 576.028 498.39 576.661 498.39 577.445C498.39 578.234 498.581 578.869 498.964 579.353C499.347 579.836 499.841 580.077 500.447 580.077C501.076 580.077 501.573 579.842 501.938 579.373C502.302 578.899 502.484 578.257 502.484 577.445C502.484 576.639 502.302 575.998 501.938 575.524C501.573 575.05 501.076 574.813 500.447 574.813ZM507.762 574.8C507.21 574.8 506.752 574.991 506.388 575.374C506.028 575.752 505.829 576.24 505.793 576.837H509.655C509.642 576.235 509.462 575.745 509.115 575.367C508.769 574.989 508.318 574.8 507.762 574.8ZM509.628 578.963H510.797C510.692 579.592 510.364 580.109 509.812 580.515C509.266 580.92 508.607 581.123 507.837 581.123C506.821 581.123 506.021 580.795 505.438 580.139C504.854 579.482 504.562 578.594 504.562 577.473C504.562 576.361 504.854 575.465 505.438 574.786C506.025 574.107 506.807 573.768 507.782 573.768C508.739 573.768 509.496 574.089 510.052 574.731C510.608 575.374 510.886 576.235 510.886 577.315V577.767H505.786V577.835C505.786 578.519 505.973 579.065 506.347 579.476C506.72 579.886 507.226 580.091 507.864 580.091C508.311 580.091 508.691 579.988 509.006 579.783C509.32 579.578 509.528 579.305 509.628 578.963ZM512.15 581V571.136H513.34V581H512.15ZM517.893 581.123C516.899 581.123 516.102 580.793 515.5 580.132C514.898 579.466 514.598 578.571 514.598 577.445C514.598 576.32 514.898 575.426 515.5 574.766C516.102 574.1 516.899 573.768 517.893 573.768C518.882 573.768 519.677 574.1 520.278 574.766C520.88 575.426 521.181 576.32 521.181 577.445C521.181 578.566 520.88 579.46 520.278 580.125C519.677 580.79 518.882 581.123 517.893 581.123ZM516.368 579.38C516.746 579.845 517.255 580.077 517.893 580.077C518.531 580.077 519.036 579.847 519.41 579.387C519.784 578.922 519.971 578.275 519.971 577.445C519.971 576.616 519.784 575.971 519.41 575.511C519.036 575.046 518.531 574.813 517.893 574.813C517.255 574.813 516.746 575.046 516.368 575.511C515.994 575.976 515.808 576.62 515.808 577.445C515.808 578.27 515.994 578.915 516.368 579.38ZM531.428 573.891L529.445 581H528.235L526.629 575.497H526.602L525.002 581H523.792L521.803 573.891H522.985L524.407 579.674H524.435L526.041 573.891H527.189L528.803 579.674H528.83L530.252 573.891H531.428ZM533.144 580.843C532.993 580.993 532.809 581.068 532.59 581.068C532.371 581.068 532.187 580.993 532.036 580.843C531.886 580.692 531.811 580.508 531.811 580.289C531.811 580.07 531.886 579.886 532.036 579.735C532.187 579.585 532.371 579.51 532.59 579.51C532.809 579.51 532.993 579.585 533.144 579.735C533.294 579.886 533.369 580.07 533.369 580.289C533.369 580.508 533.294 580.692 533.144 580.843Z" fill="#464255"/>
<path opacity="0.4" d="M136.174 223H134.957V213.136H136.153L141.554 220.881H141.615V213.136H142.832V223H141.636L136.235 215.282H136.174V223ZM146.701 222.111C147.262 222.111 147.731 221.938 148.109 221.592C148.492 221.241 148.684 220.81 148.684 220.3V219.719L146.783 219.835C146.305 219.867 145.933 219.983 145.669 220.184C145.409 220.384 145.279 220.653 145.279 220.99C145.279 221.327 145.409 221.599 145.669 221.804C145.929 222.009 146.273 222.111 146.701 222.111ZM146.435 223.123C145.728 223.123 145.156 222.927 144.719 222.535C144.286 222.143 144.069 221.628 144.069 220.99C144.069 220.38 144.293 219.892 144.739 219.527C145.19 219.163 145.826 218.958 146.646 218.912L148.684 218.796V218.201C148.684 217.768 148.547 217.429 148.273 217.183C148 216.937 147.617 216.813 147.125 216.813C146.674 216.813 146.307 216.914 146.024 217.114C145.742 217.31 145.562 217.586 145.484 217.941H144.336C144.377 217.308 144.65 216.788 145.156 216.383C145.667 215.973 146.332 215.768 147.152 215.768C147.986 215.768 148.647 215.977 149.135 216.396C149.627 216.816 149.873 217.379 149.873 218.085V223H148.745V221.776H148.718C148.504 222.182 148.189 222.508 147.774 222.754C147.36 223 146.913 223.123 146.435 223.123ZM151.384 223V215.891H152.505V217.025H152.532C152.705 216.638 152.967 216.333 153.318 216.109C153.669 215.882 154.079 215.768 154.549 215.768C155.032 215.768 155.447 215.886 155.793 216.123C156.139 216.355 156.39 216.688 156.545 217.121H156.572C156.768 216.697 157.062 216.367 157.454 216.13C157.851 215.888 158.299 215.768 158.801 215.768C159.503 215.768 160.063 215.979 160.482 216.403C160.906 216.823 161.118 217.385 161.118 218.092V223H159.929V218.365C159.929 217.878 159.799 217.499 159.539 217.23C159.284 216.957 158.922 216.82 158.452 216.82C157.983 216.82 157.598 216.978 157.297 217.292C156.996 217.602 156.846 217.998 156.846 218.481V223H155.656V218.235C155.656 217.807 155.524 217.465 155.26 217.21C154.995 216.95 154.642 216.82 154.2 216.82C153.731 216.82 153.341 216.984 153.031 217.312C152.726 217.641 152.573 218.051 152.573 218.543V223H151.384ZM165.486 216.8C164.935 216.8 164.477 216.991 164.112 217.374C163.752 217.752 163.554 218.24 163.518 218.837H167.38C167.366 218.235 167.186 217.745 166.84 217.367C166.493 216.989 166.042 216.8 165.486 216.8ZM167.353 220.963H168.521C168.417 221.592 168.089 222.109 167.537 222.515C166.99 222.92 166.332 223.123 165.562 223.123C164.545 223.123 163.745 222.795 163.162 222.139C162.579 221.482 162.287 220.594 162.287 219.473C162.287 218.361 162.579 217.465 163.162 216.786C163.75 216.107 164.532 215.768 165.507 215.768C166.464 215.768 167.22 216.089 167.776 216.731C168.332 217.374 168.61 218.235 168.61 219.315V219.767H163.511V219.835C163.511 220.519 163.698 221.065 164.071 221.476C164.445 221.886 164.951 222.091 165.589 222.091C166.035 222.091 166.416 221.988 166.73 221.783C167.045 221.578 167.252 221.305 167.353 220.963Z" fill="#464255"/>
<path opacity="0.4" d="M138.957 327.136H142.272C143.735 327.136 144.877 327.571 145.697 328.441C146.518 329.307 146.928 330.515 146.928 332.064C146.928 333.618 146.518 334.831 145.697 335.701C144.882 336.567 143.74 337 142.272 337H138.957V327.136ZM140.188 328.243V335.893H142.19C143.307 335.893 144.166 335.564 144.768 334.908C145.369 334.247 145.67 333.304 145.67 332.078C145.67 330.843 145.369 329.895 144.768 329.234C144.171 328.574 143.312 328.243 142.19 328.243H140.188ZM147.987 334.286H149.225C149.284 334.819 149.544 335.248 150.004 335.571C150.469 335.895 151.054 336.057 151.761 336.057C152.426 336.057 152.975 335.899 153.408 335.585C153.846 335.266 154.064 334.865 154.064 334.382C154.064 333.967 153.912 333.625 153.606 333.356C153.306 333.088 152.823 332.867 152.157 332.693L150.893 332.365C149.981 332.133 149.316 331.809 148.896 331.395C148.477 330.975 148.268 330.431 148.268 329.761C148.268 328.94 148.591 328.271 149.238 327.751C149.89 327.231 150.729 326.972 151.754 326.972C152.734 326.972 153.545 327.236 154.188 327.765C154.83 328.289 155.165 328.963 155.192 329.788H153.962C153.907 329.259 153.679 328.842 153.278 328.537C152.877 328.232 152.355 328.079 151.713 328.079C151.075 328.079 150.553 328.229 150.147 328.53C149.746 328.831 149.546 329.223 149.546 329.706C149.546 330.08 149.692 330.387 149.983 330.629C150.28 330.866 150.763 331.071 151.433 331.244L152.465 331.518C153.486 331.773 154.219 332.112 154.666 332.536C155.113 332.96 155.336 333.525 155.336 334.231C155.336 335.134 155.003 335.849 154.338 336.378C153.677 336.902 152.779 337.164 151.645 337.164C150.596 337.164 149.74 336.902 149.074 336.378C148.409 335.854 148.047 335.157 147.987 334.286Z" fill="#464255"/>
<rect x="78" y="126" width="845" height="1" fill="#E0E2F0"/>
<path opacity="0.4" d="M138.259 504L138.819 501.245H136.577L136.017 504H135.046L135.6 501.245H134L134.191 500.261H135.812L136.311 497.772H134.622L134.82 496.795H136.509L137.062 494.136H138.033L137.5 496.795H139.729L140.282 494.136H141.26L140.713 496.795H142.415L142.224 497.772H140.508L139.995 500.261H141.779L141.588 501.245H139.797L139.236 504H138.259ZM136.769 500.281H139.024L139.537 497.759H137.281L136.769 500.281ZM147.911 504V501.949H142.955V500.835C143.379 500.047 143.917 499.146 144.568 498.135C145.225 497.123 146.129 495.79 147.282 494.136H149.101V500.869H150.495V501.949H149.101V504H147.911ZM144.172 500.842V500.869H147.911V495.161H147.891C146.163 497.627 144.924 499.52 144.172 500.842ZM156.388 504V501.949H151.432V500.835C151.855 500.047 152.393 499.146 153.045 498.135C153.701 497.123 154.606 495.79 155.759 494.136H157.577V500.869H158.972V501.949H157.577V504H156.388ZM152.648 500.842V500.869H156.388V495.161H156.367C154.64 497.627 153.4 499.52 152.648 500.842ZM166.744 504L165.753 501.177H161.829L160.838 504H159.546L163.183 494.136H164.399L168.036 504H166.744ZM163.771 495.633L162.191 500.131H165.391L163.812 495.633H163.771ZM169.164 494.136H172.479C173.942 494.136 175.084 494.571 175.904 495.441C176.725 496.307 177.135 497.515 177.135 499.064C177.135 500.618 176.725 501.831 175.904 502.701C175.089 503.567 173.947 504 172.479 504H169.164V494.136ZM170.395 495.243V502.893H172.397C173.514 502.893 174.373 502.564 174.975 501.908C175.576 501.247 175.877 500.304 175.877 499.078C175.877 497.843 175.576 496.895 174.975 496.234C174.378 495.574 173.519 495.243 172.397 495.243H170.395ZM181.899 504.164C180.856 504.164 179.999 503.9 179.329 503.371C178.659 502.838 178.324 502.159 178.324 501.334C178.324 500.719 178.518 500.179 178.905 499.714C179.293 499.249 179.805 498.944 180.443 498.798V498.771C179.91 498.606 179.489 498.328 179.179 497.937C178.869 497.54 178.714 497.082 178.714 496.562C178.714 495.82 179.015 495.202 179.616 494.71C180.222 494.218 180.983 493.972 181.899 493.972C182.82 493.972 183.579 494.218 184.176 494.71C184.777 495.198 185.078 495.817 185.078 496.569C185.078 497.084 184.925 497.538 184.62 497.93C184.315 498.322 183.893 498.602 183.355 498.771V498.798C183.993 498.948 184.506 499.256 184.894 499.721C185.285 500.186 185.481 500.723 185.481 501.334C185.481 502.159 185.146 502.838 184.477 503.371C183.807 503.9 182.948 504.164 181.899 504.164ZM181.899 503.091C182.578 503.091 183.134 502.918 183.567 502.571C184.005 502.225 184.224 501.783 184.224 501.245C184.224 500.703 184.005 500.258 183.567 499.912C183.134 499.566 182.578 499.393 181.899 499.393C181.22 499.393 180.662 499.568 180.225 499.919C179.792 500.265 179.575 500.707 179.575 501.245C179.575 501.783 179.794 502.225 180.231 502.571C180.669 502.918 181.225 503.091 181.899 503.091ZM181.899 498.312C182.474 498.312 182.943 498.16 183.308 497.854C183.677 497.549 183.861 497.157 183.861 496.679C183.861 496.196 183.679 495.801 183.314 495.496C182.95 495.186 182.478 495.031 181.899 495.031C181.321 495.031 180.849 495.186 180.484 495.496C180.12 495.801 179.938 496.196 179.938 496.679C179.938 497.157 180.12 497.549 180.484 497.854C180.849 498.16 181.321 498.312 181.899 498.312ZM193.172 502.893V504H187.061V494.136H193.172V495.243H188.291V498.408H192.919V499.502H188.291V502.893H193.172Z" fill="#464255"/>
</g>
<defs>
<filter id="filter0_d" x="0" y="0" width="1001" height="874" filterUnits="userSpaceOnUse" color-interpolation-filters="sRGB">
<feFlood flood-opacity="0" result="BackgroundImageFix"/>
<feColorMatrix in="SourceAlpha" type="matrix" values="0 0 0 0 0 0 0 0 0 0 0 0 0 0 0 0 0 0 127 0" result="hardAlpha"/>
<feOffset dy="16"/>
<feGaussianBlur stdDeviation="39"/>
<feComposite in2="hardAlpha" operator="out"/>
<feColorMatrix type="matrix" values="0 0 0 0 0 0 0 0 0 0 0 0 0 0 0 0 0 0 0.15 0"/>
<feBlend mode="normal" in2="BackgroundImageFix" result="effect1_dropShadow"/>
<feBlend mode="normal" in="SourceGraphic" in2="effect1_dropShadow" result="shape"/>
</filter>
</defs>
</svg>
