<svg width="858" height="837" viewBox="0 0 858 837" fill="none" xmlns="http://www.w3.org/2000/svg">
<g filter="url(#filter0_d)">
<rect x="52" y="52" width="754" height="733" fill="white"/>
</g>
<rect x="741.656" y="110.154" width="19" height="3" rx="1.5" transform="rotate(-45 741.656 110.154)" fill="black"/>
<rect x="743.778" y="96.7192" width="19" height="3" rx="1.5" transform="rotate(45 743.778 96.7192)" fill="black"/>
<rect x="211" y="705" width="105" height="38" rx="6" fill="#D7D9E6"/>
<path d="M250.493 722.266C250.493 723.148 250.003 723.722 248.911 723.722H247.273V720.852H248.911C250.003 720.852 250.493 721.398 250.493 722.266ZM245.313 719.228V729H247.273V725.192H248.197L250.353 729H252.621L250.283 725.038C251.851 724.618 252.509 723.414 252.509 722.224C252.509 720.586 251.333 719.228 248.981 719.228H245.313ZM257.613 722.728C258.621 722.728 259.433 723.372 259.461 724.394H255.779C255.933 723.33 256.675 722.728 257.613 722.728ZM261.295 726.564H259.181C258.929 727.082 258.467 727.502 257.627 727.502C256.647 727.502 255.863 726.858 255.765 725.71H261.435C261.477 725.458 261.491 725.206 261.491 724.954C261.491 722.644 259.909 721.118 257.669 721.118C255.373 721.118 253.777 722.672 253.777 725.122C253.777 727.558 255.415 729.126 257.669 729.126C259.587 729.126 260.875 727.992 261.295 726.564ZM268.942 726.788C268.886 723.946 264.588 724.828 264.588 723.414C264.588 722.966 264.966 722.672 265.694 722.672C266.464 722.672 266.94 723.078 266.996 723.68H268.872C268.76 722.14 267.626 721.118 265.75 721.118C263.832 721.118 262.684 722.154 262.684 723.442C262.684 726.284 267.066 725.402 267.066 726.788C267.066 727.236 266.646 727.586 265.876 727.586C265.092 727.586 264.546 727.138 264.476 726.55H262.502C262.586 727.992 263.944 729.126 265.89 729.126C267.78 729.126 268.942 728.118 268.942 726.788ZM273.883 722.728C274.891 722.728 275.703 723.372 275.731 724.394H272.049C272.203 723.33 272.945 722.728 273.883 722.728ZM277.565 726.564H275.451C275.199 727.082 274.737 727.502 273.897 727.502C272.917 727.502 272.133 726.858 272.035 725.71H277.705C277.747 725.458 277.761 725.206 277.761 724.954C277.761 722.644 276.179 721.118 273.939 721.118C271.643 721.118 270.047 722.672 270.047 725.122C270.047 727.558 271.685 729.126 273.939 729.126C275.857 729.126 277.145 727.992 277.565 726.564ZM279.5 726.592C279.5 728.37 280.494 729 281.978 729H283.21V727.348H282.3C281.684 727.348 281.474 727.124 281.474 726.606V722.854H283.21V721.244H281.474V719.326H279.5V721.244H278.576V722.854H279.5V726.592Z" fill="#464255"/>
<rect x="95" y="705" width="106" height="38" rx="6" fill="#3546AB"/>
<path d="M146.602 729H148.674L145.16 719.214H142.878L139.364 729H141.422L142.066 727.138H145.958L146.602 729ZM145.426 725.57H142.598L144.012 721.482L145.426 725.57ZM151.947 722.364V721.244H149.987V732.696H151.947V727.894C152.423 728.524 153.291 729.126 154.509 729.126C156.497 729.126 158.051 727.516 158.051 725.094C158.051 722.672 156.497 721.118 154.509 721.118C153.305 721.118 152.409 721.706 151.947 722.364ZM156.049 725.094C156.049 726.564 155.055 727.404 153.991 727.404C152.941 727.404 151.947 726.592 151.947 725.122C151.947 723.652 152.941 722.84 153.991 722.84C155.055 722.84 156.049 723.624 156.049 725.094ZM161.436 722.364V721.244H159.476V732.696H161.436V727.894C161.912 728.524 162.78 729.126 163.998 729.126C165.986 729.126 167.54 727.516 167.54 725.094C167.54 722.672 165.986 721.118 163.998 721.118C162.794 721.118 161.898 721.706 161.436 722.364ZM165.538 725.094C165.538 726.564 164.544 727.404 163.48 727.404C162.43 727.404 161.436 726.592 161.436 725.122C161.436 723.652 162.43 722.84 163.48 722.84C164.544 722.84 165.538 723.624 165.538 725.094ZM168.964 729H170.924V718.64H168.964V729ZM176.165 726.662L174.163 721.244H171.965L175.073 728.804L173.393 732.668H175.479L180.281 721.244H178.195L176.165 726.662Z" fill="white"/>
<path d="M128.608 718.511C128.336 718.207 127.957 718.024 127.552 718.002C127.147 717.981 126.751 718.123 126.45 718.397L119.244 727.325L116.628 724.635C116.487 724.487 116.318 724.369 116.132 724.288C115.945 724.207 115.745 724.165 115.542 724.163C115.339 724.161 115.137 724.2 114.95 724.278C114.762 724.355 114.591 724.47 114.448 724.615C114.304 724.76 114.191 724.933 114.114 725.123C114.037 725.313 113.998 725.516 114 725.722C114.002 725.927 114.044 726.13 114.124 726.318C114.204 726.507 114.321 726.677 114.467 726.82L118.108 730.548C118.385 730.827 118.757 730.989 119.149 730.999C119.54 731.01 119.92 730.868 120.211 730.603L128.495 720.693C128.796 720.419 128.977 720.035 128.998 719.626C129.019 719.217 128.879 718.816 128.608 718.511Z" fill="white"/>
<rect x="52" y="152" width="754" height="1" fill="#E0E1F1"/>
<rect x="438.5" y="343.5" width="322" height="59" rx="17.5" fill="#F9FBFD" fill-opacity="0.3" stroke="#CACDDB"/>
<rect x="95.5" y="469.5" width="322" height="59" rx="17.5" fill="#F9FBFD" fill-opacity="0.3" stroke="#CACDDB"/>
<rect x="438.5" y="595.5" width="322" height="59" rx="17.5" fill="#F9FBFD" fill-opacity="0.3" stroke="#CACDDB"/>
<rect x="96.5" y="343.5" width="322" height="59" rx="17.5" fill="#F9FBFD" fill-opacity="0.3" stroke="#CACDDB"/>
<rect x="438.5" y="469.5" width="322" height="59" rx="17.5" fill="#F9FBFD" fill-opacity="0.3" stroke="#CACDDB"/>
<rect x="95.5" y="595.5" width="322" height="59" rx="17.5" fill="#F9FBFD" fill-opacity="0.3" stroke="#CACDDB"/>
<path d="M392.007 377C392.151 376.999 392.289 376.937 392.392 376.829L397.847 371.002C397.946 370.892 398.001 370.745 398 370.592C397.999 370.439 397.941 370.293 397.84 370.185C397.739 370.077 397.602 370.016 397.459 370.014C397.316 370.013 397.178 370.072 397.076 370.178L392.007 375.593L386.938 370.178C386.887 370.122 386.827 370.078 386.761 370.047C386.694 370.017 386.623 370.001 386.55 370C386.478 369.999 386.406 370.014 386.339 370.043C386.272 370.073 386.211 370.116 386.16 370.171C386.109 370.225 386.068 370.29 386.041 370.362C386.013 370.434 385.999 370.51 386 370.588C386.001 370.665 386.016 370.742 386.044 370.813C386.073 370.884 386.114 370.948 386.167 371.002L391.621 376.829C391.724 376.937 391.862 376.999 392.007 377Z" fill="#464255" stroke="#AAABB5"/>
<path d="M734.007 503C734.151 502.999 734.289 502.937 734.392 502.829L739.847 497.002C739.946 496.892 740.001 496.745 740 496.592C739.999 496.439 739.941 496.293 739.84 496.185C739.739 496.077 739.602 496.016 739.459 496.014C739.316 496.013 739.178 496.072 739.076 496.178L734.007 501.593L728.938 496.178C728.887 496.122 728.827 496.078 728.761 496.047C728.694 496.017 728.623 496.001 728.55 496C728.478 495.999 728.406 496.014 728.339 496.043C728.272 496.073 728.211 496.116 728.16 496.171C728.109 496.225 728.068 496.29 728.041 496.362C728.013 496.434 727.999 496.51 728 496.588C728.001 496.665 728.016 496.742 728.044 496.813C728.073 496.884 728.114 496.948 728.167 497.002L733.621 502.829C733.724 502.937 733.862 502.999 734.007 503Z" fill="#464255" stroke="#AAABB5"/>
<path d="M391.007 629C391.151 628.999 391.289 628.937 391.392 628.829L396.847 623.002C396.946 622.892 397.001 622.745 397 622.592C396.999 622.439 396.941 622.293 396.84 622.185C396.739 622.077 396.602 622.016 396.459 622.014C396.316 622.013 396.178 622.072 396.076 622.178L391.007 627.593L385.938 622.178C385.887 622.122 385.827 622.078 385.761 622.047C385.694 622.017 385.623 622.001 385.55 622C385.478 621.999 385.406 622.014 385.339 622.043C385.272 622.073 385.211 622.116 385.16 622.171C385.109 622.225 385.068 622.29 385.041 622.362C385.013 622.434 384.999 622.51 385 622.588C385.001 622.665 385.016 622.742 385.044 622.813C385.073 622.884 385.114 622.948 385.167 623.002L390.621 628.829C390.724 628.937 390.862 628.999 391.007 629Z" fill="#464255" stroke="#AAABB5"/>
<path d="M735.007 377C735.151 376.999 735.289 376.937 735.392 376.829L740.847 371.002C740.946 370.892 741.001 370.745 741 370.592C740.999 370.439 740.941 370.293 740.84 370.185C740.739 370.077 740.602 370.016 740.459 370.014C740.316 370.013 740.178 370.072 740.076 370.178L735.007 375.593L729.938 370.178C729.887 370.122 729.827 370.078 729.761 370.047C729.694 370.017 729.623 370.001 729.55 370C729.478 369.999 729.406 370.014 729.339 370.043C729.272 370.073 729.211 370.116 729.16 370.171C729.109 370.225 729.068 370.29 729.041 370.362C729.013 370.434 728.999 370.51 729 370.588C729.001 370.665 729.016 370.742 729.044 370.813C729.073 370.884 729.114 370.948 729.167 371.002L734.621 376.829C734.724 376.937 734.862 376.999 735.007 377Z" fill="#464255" stroke="#AAABB5"/>
<path d="M392.007 503C392.151 502.999 392.289 502.937 392.392 502.829L397.847 497.002C397.946 496.892 398.001 496.745 398 496.592C397.999 496.439 397.941 496.293 397.84 496.185C397.739 496.077 397.602 496.016 397.459 496.014C397.316 496.013 397.178 496.072 397.076 496.178L392.007 501.593L386.938 496.178C386.887 496.122 386.827 496.078 386.761 496.047C386.694 496.017 386.623 496.001 386.55 496C386.478 495.999 386.406 496.014 386.339 496.043C386.272 496.073 386.211 496.116 386.16 496.171C386.109 496.225 386.068 496.29 386.041 496.362C386.013 496.434 385.999 496.51 386 496.588C386.001 496.665 386.016 496.742 386.044 496.813C386.073 496.884 386.114 496.948 386.167 497.002L391.621 502.829C391.724 502.937 391.862 502.999 392.007 503Z" fill="#464255" stroke="#AAABB5"/>
<path d="M735.007 629C735.151 628.999 735.289 628.937 735.392 628.829L740.847 623.002C740.946 622.892 741.001 622.745 741 622.592C740.999 622.439 740.941 622.293 740.84 622.185C740.739 622.077 740.602 622.016 740.459 622.014C740.316 622.013 740.178 622.072 740.076 622.178L735.007 627.593L729.938 622.178C729.887 622.122 729.827 622.078 729.761 622.047C729.694 622.017 729.623 622.001 729.55 622C729.478 621.999 729.406 622.014 729.339 622.043C729.272 622.073 729.211 622.116 729.16 622.171C729.109 622.225 729.068 622.29 729.041 622.362C729.013 622.434 728.999 622.51 729 622.588C729.001 622.665 729.016 622.742 729.044 622.813C729.073 622.884 729.114 622.948 729.167 623.002L734.621 628.829C734.724 628.937 734.862 628.999 735.007 629Z" fill="#464255" stroke="#AAABB5"/>
<rect x="95.5" y="223.5" width="664" height="59" rx="17.5" fill="#F9FBFD" fill-opacity="0.3" stroke="#CACDDB"/>
<path d="M102.42 202.34C102.42 198.728 97.156 200.296 97.156 197.776C97.156 196.726 97.982 196.18 99.032 196.208C100.222 196.222 100.838 196.964 100.922 197.622H102.322C102.168 196.138 100.95 195.116 99.088 195.116C97.156 195.116 95.854 196.208 95.854 197.818C95.854 201.444 101.132 199.764 101.132 202.396C101.132 203.32 100.404 204.02 99.172 204.02C97.814 204.02 97.24 203.208 97.156 202.396H95.798C95.826 204.006 97.212 205.098 99.172 205.098C101.286 205.098 102.42 203.726 102.42 202.34ZM107.557 198.28C108.873 198.28 109.993 199.106 109.979 200.604H105.135C105.275 199.106 106.311 198.28 107.557 198.28ZM111.141 202.634H109.769C109.489 203.46 108.761 204.048 107.613 204.048C106.311 204.048 105.219 203.194 105.121 201.64H111.253C111.281 201.374 111.295 201.15 111.295 200.87C111.295 198.77 109.839 197.202 107.613 197.202C105.373 197.202 103.819 198.728 103.819 201.15C103.819 203.586 105.429 205.126 107.613 205.126C109.517 205.126 110.749 204.034 111.141 202.634ZM112.976 205H114.25V194.64H112.976V205ZM119.684 198.28C121 198.28 122.12 199.106 122.106 200.604H117.262C117.402 199.106 118.438 198.28 119.684 198.28ZM123.268 202.634H121.896C121.616 203.46 120.888 204.048 119.74 204.048C118.438 204.048 117.346 203.194 117.248 201.64H123.38C123.408 201.374 123.422 201.15 123.422 200.87C123.422 198.77 121.966 197.202 119.74 197.202C117.5 197.202 115.946 198.728 115.946 201.15C115.946 203.586 117.556 205.126 119.74 205.126C121.644 205.126 122.876 204.034 123.268 202.634ZM124.627 201.15C124.627 203.586 126.181 205.126 128.365 205.126C130.269 205.126 131.515 204.062 131.907 202.536H130.535C130.255 203.502 129.499 204.048 128.365 204.048C126.965 204.048 125.929 203.054 125.929 201.15C125.929 199.274 126.965 198.28 128.365 198.28C129.499 198.28 130.269 198.868 130.535 199.792H131.907C131.515 198.182 130.269 197.202 128.365 197.202C126.181 197.202 124.627 198.742 124.627 201.15ZM133.887 202.9C133.887 204.44 134.657 205 136.015 205H137.163V203.922H136.225C135.441 203.922 135.161 203.656 135.161 202.9V198.378H137.163V197.328H135.161V195.396H133.887V197.328H132.893V198.378H133.887V202.9ZM145.477 195.242H142.439V205H145.477C148.683 205 150.657 203.166 150.657 200.142C150.657 197.118 148.683 195.242 145.477 195.242ZM143.713 203.95V196.278H145.477C148.025 196.278 149.355 197.762 149.355 200.142C149.355 202.522 148.025 203.95 145.477 203.95H143.713ZM151.862 201.136C151.862 203.516 153.444 205.126 155.488 205.126C156.902 205.126 157.896 204.398 158.358 203.572V205H159.646V197.328H158.358V198.728C157.91 197.93 156.93 197.202 155.502 197.202C153.444 197.202 151.862 198.742 151.862 201.136ZM158.358 201.15C158.358 202.956 157.154 204.006 155.754 204.006C154.354 204.006 153.164 202.942 153.164 201.136C153.164 199.33 154.354 198.308 155.754 198.308C157.154 198.308 158.358 199.372 158.358 201.15ZM162.079 202.9C162.079 204.44 162.849 205 164.207 205H165.355V203.922H164.417C163.633 203.922 163.353 203.656 163.353 202.9V198.378H165.355V197.328H163.353V195.396H162.079V197.328H161.085V198.378H162.079V202.9ZM170.16 198.28C171.476 198.28 172.596 199.106 172.582 200.604H167.738C167.878 199.106 168.914 198.28 170.16 198.28ZM173.744 202.634H172.372C172.092 203.46 171.364 204.048 170.216 204.048C168.914 204.048 167.822 203.194 167.724 201.64H173.856C173.884 201.374 173.898 201.15 173.898 200.87C173.898 198.77 172.442 197.202 170.216 197.202C167.976 197.202 166.422 198.728 166.422 201.15C166.422 203.586 168.032 205.126 170.216 205.126C172.12 205.126 173.352 204.034 173.744 202.634ZM184.534 198.112C184.534 199.204 183.904 199.988 182.462 199.988H180.586V196.292H182.462C183.918 196.292 184.534 197.006 184.534 198.112ZM179.312 195.242V205H180.586V201.01H182.126L184.45 205H185.976L183.526 200.912C185.164 200.548 185.85 199.358 185.85 198.112C185.85 196.516 184.758 195.242 182.462 195.242H179.312ZM187.354 201.136C187.354 203.516 188.936 205.126 190.98 205.126C192.394 205.126 193.388 204.398 193.85 203.572V205H195.138V197.328H193.85V198.728C193.402 197.93 192.422 197.202 190.994 197.202C188.936 197.202 187.354 198.742 187.354 201.136ZM193.85 201.15C193.85 202.956 192.646 204.006 191.246 204.006C189.846 204.006 188.656 202.942 188.656 201.136C188.656 199.33 189.846 198.308 191.246 198.308C192.646 198.308 193.85 199.372 193.85 201.15ZM202.905 205H204.165V200.478C204.165 198.28 202.807 197.188 201.029 197.188C199.993 197.188 199.069 197.622 198.565 198.42V197.328H197.291V205H198.565V200.758C198.565 199.106 199.461 198.294 200.763 198.294C202.051 198.294 202.905 199.092 202.905 200.66V205ZM205.77 201.136C205.77 203.516 207.352 205.126 209.41 205.126C210.81 205.126 211.804 204.384 212.266 203.558V205.168C212.266 206.806 211.244 207.674 209.886 207.674C208.626 207.674 207.716 207.044 207.436 206.12H206.176C206.428 207.758 207.87 208.78 209.886 208.78C212.14 208.78 213.554 207.282 213.554 205.168V197.328H212.266V198.728C211.818 197.902 210.81 197.202 209.41 197.202C207.352 197.202 205.77 198.742 205.77 201.136ZM212.266 201.15C212.266 202.956 211.062 204.006 209.662 204.006C208.262 204.006 207.072 202.942 207.072 201.136C207.072 199.33 208.262 198.308 209.662 198.308C211.062 198.308 212.266 199.372 212.266 201.15ZM218.969 198.28C220.285 198.28 221.405 199.106 221.391 200.604H216.547C216.687 199.106 217.723 198.28 218.969 198.28ZM222.553 202.634H221.181C220.901 203.46 220.173 204.048 219.025 204.048C217.723 204.048 216.631 203.194 216.533 201.64H222.665C222.693 201.374 222.707 201.15 222.707 200.87C222.707 198.77 221.251 197.202 219.025 197.202C216.785 197.202 215.231 198.728 215.231 201.15C215.231 203.586 216.841 205.126 219.025 205.126C220.929 205.126 222.161 204.034 222.553 202.634Z" fill="#464255"/>
<path d="M445.42 322.34C445.42 318.728 440.156 320.296 440.156 317.776C440.156 316.726 440.982 316.18 442.032 316.208C443.222 316.222 443.838 316.964 443.922 317.622H445.322C445.168 316.138 443.95 315.116 442.088 315.116C440.156 315.116 438.854 316.208 438.854 317.818C438.854 321.444 444.132 319.764 444.132 322.396C444.132 323.32 443.404 324.02 442.172 324.02C440.814 324.02 440.24 323.208 440.156 322.396H438.798C438.826 324.006 440.212 325.098 442.172 325.098C444.286 325.098 445.42 323.726 445.42 322.34ZM450.557 318.28C451.873 318.28 452.993 319.106 452.979 320.604H448.135C448.275 319.106 449.311 318.28 450.557 318.28ZM454.141 322.634H452.769C452.489 323.46 451.761 324.048 450.613 324.048C449.311 324.048 448.219 323.194 448.121 321.64H454.253C454.281 321.374 454.295 321.15 454.295 320.87C454.295 318.77 452.839 317.202 450.613 317.202C448.373 317.202 446.819 318.728 446.819 321.15C446.819 323.586 448.429 325.126 450.613 325.126C452.517 325.126 453.749 324.034 454.141 322.634ZM455.976 325H457.25V314.64H455.976V325ZM462.684 318.28C464 318.28 465.12 319.106 465.106 320.604H460.262C460.402 319.106 461.438 318.28 462.684 318.28ZM466.268 322.634H464.896C464.616 323.46 463.888 324.048 462.74 324.048C461.438 324.048 460.346 323.194 460.248 321.64H466.38C466.408 321.374 466.422 321.15 466.422 320.87C466.422 318.77 464.966 317.202 462.74 317.202C460.5 317.202 458.946 318.728 458.946 321.15C458.946 323.586 460.556 325.126 462.74 325.126C464.644 325.126 465.876 324.034 466.268 322.634ZM467.627 321.15C467.627 323.586 469.181 325.126 471.365 325.126C473.269 325.126 474.515 324.062 474.907 322.536H473.535C473.255 323.502 472.499 324.048 471.365 324.048C469.965 324.048 468.929 323.054 468.929 321.15C468.929 319.274 469.965 318.28 471.365 318.28C472.499 318.28 473.269 318.868 473.535 319.792H474.907C474.515 318.182 473.269 317.202 471.365 317.202C469.181 317.202 467.627 318.742 467.627 321.15ZM476.887 322.9C476.887 324.44 477.657 325 479.015 325H480.163V323.922H479.225C478.441 323.922 478.161 323.656 478.161 322.9V318.378H480.163V317.328H478.161V315.396H476.887V317.328H475.893V318.378H476.887V322.9ZM491.991 325H493.335L489.821 315.298H488.351L484.823 325H486.167L486.951 322.83H491.207L491.991 325ZM490.843 321.794H487.315L489.079 316.866L490.843 321.794ZM500.389 322.914C500.333 320.17 495.881 321.164 495.881 319.344C495.881 318.728 496.441 318.28 497.379 318.28C498.401 318.28 498.989 318.84 499.045 319.61H500.319C500.235 318.112 499.115 317.202 497.421 317.202C495.713 317.202 494.607 318.168 494.607 319.344C494.607 322.2 499.143 321.206 499.143 322.914C499.143 323.544 498.583 324.048 497.575 324.048C496.497 324.048 495.839 323.488 495.769 322.746H494.453C494.537 324.146 495.797 325.126 497.589 325.126C499.283 325.126 500.389 324.174 500.389 322.914ZM507.703 322.914C507.647 320.17 503.195 321.164 503.195 319.344C503.195 318.728 503.755 318.28 504.693 318.28C505.715 318.28 506.303 318.84 506.359 319.61H507.633C507.549 318.112 506.429 317.202 504.735 317.202C503.027 317.202 501.921 318.168 501.921 319.344C501.921 322.2 506.457 321.206 506.457 322.914C506.457 323.544 505.897 324.048 504.889 324.048C503.811 324.048 503.153 323.488 503.083 322.746H501.767C501.851 324.146 503.111 325.126 504.903 325.126C506.597 325.126 507.703 324.174 507.703 322.914ZM509.502 325H510.776V317.328H509.502V325ZM510.16 316.082C510.622 316.082 511 315.704 511 315.214C511 314.724 510.622 314.346 510.16 314.346C509.67 314.346 509.292 314.724 509.292 315.214C509.292 315.704 509.67 316.082 510.16 316.082ZM512.471 321.136C512.471 323.516 514.053 325.126 516.111 325.126C517.511 325.126 518.505 324.384 518.967 323.558V325.168C518.967 326.806 517.945 327.674 516.587 327.674C515.327 327.674 514.417 327.044 514.137 326.12H512.877C513.129 327.758 514.571 328.78 516.587 328.78C518.841 328.78 520.255 327.282 520.255 325.168V317.328H518.967V318.728C518.519 317.902 517.511 317.202 516.111 317.202C514.053 317.202 512.471 318.742 512.471 321.136ZM518.967 321.15C518.967 322.956 517.763 324.006 516.363 324.006C514.963 324.006 513.773 322.942 513.773 321.136C513.773 319.33 514.963 318.308 516.363 318.308C517.763 318.308 518.967 319.372 518.967 321.15ZM528.022 325H529.282V320.478C529.282 318.28 527.924 317.188 526.146 317.188C525.11 317.188 524.186 317.622 523.682 318.42V317.328H522.408V325H523.682V320.758C523.682 319.106 524.578 318.294 525.88 318.294C527.168 318.294 528.022 319.092 528.022 320.66V325ZM534.625 318.28C535.941 318.28 537.061 319.106 537.047 320.604H532.203C532.343 319.106 533.379 318.28 534.625 318.28ZM538.209 322.634H536.837C536.557 323.46 535.829 324.048 534.681 324.048C533.379 324.048 532.287 323.194 532.189 321.64H538.321C538.349 321.374 538.363 321.15 538.363 320.87C538.363 318.77 536.907 317.202 534.681 317.202C532.441 317.202 530.887 318.728 530.887 321.15C530.887 323.586 532.497 325.126 534.681 325.126C536.585 325.126 537.817 324.034 538.209 322.634ZM539.569 321.136C539.569 323.516 541.151 325.126 543.209 325.126C544.609 325.126 545.603 324.412 546.065 323.558V325H547.353V314.64H546.065V318.7C545.533 317.818 544.427 317.202 543.223 317.202C541.151 317.202 539.569 318.742 539.569 321.136ZM546.065 321.15C546.065 322.956 544.861 324.006 543.461 324.006C542.061 324.006 540.871 322.942 540.871 321.136C540.871 319.33 542.061 318.308 543.461 318.308C544.861 318.308 546.065 319.372 546.065 321.15ZM552.636 316.278H555.31V325H556.584V316.278H559.244V315.242H552.636V316.278ZM568.092 321.15C568.092 318.728 566.398 317.202 564.214 317.202C562.044 317.202 560.336 318.728 560.336 321.15C560.336 323.586 561.988 325.126 564.158 325.126C566.342 325.126 568.092 323.586 568.092 321.15ZM561.638 321.15C561.638 319.218 562.856 318.308 564.2 318.308C565.516 318.308 566.79 319.218 566.79 321.15C566.79 323.096 565.488 324.006 564.158 324.006C562.828 324.006 561.638 323.096 561.638 321.15Z" fill="#464255"/>
<path d="M445.42 448.34C445.42 444.728 440.156 446.296 440.156 443.776C440.156 442.726 440.982 442.18 442.032 442.208C443.222 442.222 443.838 442.964 443.922 443.622H445.322C445.168 442.138 443.95 441.116 442.088 441.116C440.156 441.116 438.854 442.208 438.854 443.818C438.854 447.444 444.132 445.764 444.132 448.396C444.132 449.32 443.404 450.02 442.172 450.02C440.814 450.02 440.24 449.208 440.156 448.396H438.798C438.826 450.006 440.212 451.098 442.172 451.098C444.286 451.098 445.42 449.726 445.42 448.34ZM450.557 444.28C451.873 444.28 452.993 445.106 452.979 446.604H448.135C448.275 445.106 449.311 444.28 450.557 444.28ZM454.141 448.634H452.769C452.489 449.46 451.761 450.048 450.613 450.048C449.311 450.048 448.219 449.194 448.121 447.64H454.253C454.281 447.374 454.295 447.15 454.295 446.87C454.295 444.77 452.839 443.202 450.613 443.202C448.373 443.202 446.819 444.728 446.819 447.15C446.819 449.586 448.429 451.126 450.613 451.126C452.517 451.126 453.749 450.034 454.141 448.634ZM455.976 451H457.25V440.64H455.976V451ZM462.684 444.28C464 444.28 465.12 445.106 465.106 446.604H460.262C460.402 445.106 461.438 444.28 462.684 444.28ZM466.268 448.634H464.896C464.616 449.46 463.888 450.048 462.74 450.048C461.438 450.048 460.346 449.194 460.248 447.64H466.38C466.408 447.374 466.422 447.15 466.422 446.87C466.422 444.77 464.966 443.202 462.74 443.202C460.5 443.202 458.946 444.728 458.946 447.15C458.946 449.586 460.556 451.126 462.74 451.126C464.644 451.126 465.876 450.034 466.268 448.634ZM467.627 447.15C467.627 449.586 469.181 451.126 471.365 451.126C473.269 451.126 474.515 450.062 474.907 448.536H473.535C473.255 449.502 472.499 450.048 471.365 450.048C469.965 450.048 468.929 449.054 468.929 447.15C468.929 445.274 469.965 444.28 471.365 444.28C472.499 444.28 473.269 444.868 473.535 445.792H474.907C474.515 444.182 473.269 443.202 471.365 443.202C469.181 443.202 467.627 444.742 467.627 447.15ZM476.887 448.9C476.887 450.44 477.657 451 479.015 451H480.163V449.922H479.225C478.441 449.922 478.161 449.656 478.161 448.9V444.378H480.163V443.328H478.161V441.396H476.887V443.328H475.893V444.378H476.887V448.9ZM491.991 451H493.335L489.821 441.298H488.351L484.823 451H486.167L486.951 448.83H491.207L491.991 451ZM490.843 447.794H487.315L489.079 442.866L490.843 447.794ZM500.389 448.914C500.333 446.17 495.881 447.164 495.881 445.344C495.881 444.728 496.441 444.28 497.379 444.28C498.401 444.28 498.989 444.84 499.045 445.61H500.319C500.235 444.112 499.115 443.202 497.421 443.202C495.713 443.202 494.607 444.168 494.607 445.344C494.607 448.2 499.143 447.206 499.143 448.914C499.143 449.544 498.583 450.048 497.575 450.048C496.497 450.048 495.839 449.488 495.769 448.746H494.453C494.537 450.146 495.797 451.126 497.589 451.126C499.283 451.126 500.389 450.174 500.389 448.914ZM507.703 448.914C507.647 446.17 503.195 447.164 503.195 445.344C503.195 444.728 503.755 444.28 504.693 444.28C505.715 444.28 506.303 444.84 506.359 445.61H507.633C507.549 444.112 506.429 443.202 504.735 443.202C503.027 443.202 501.921 444.168 501.921 445.344C501.921 448.2 506.457 447.206 506.457 448.914C506.457 449.544 505.897 450.048 504.889 450.048C503.811 450.048 503.153 449.488 503.083 448.746H501.767C501.851 450.146 503.111 451.126 504.903 451.126C506.597 451.126 507.703 450.174 507.703 448.914ZM509.502 451H510.776V443.328H509.502V451ZM510.16 442.082C510.622 442.082 511 441.704 511 441.214C511 440.724 510.622 440.346 510.16 440.346C509.67 440.346 509.292 440.724 509.292 441.214C509.292 441.704 509.67 442.082 510.16 442.082ZM512.471 447.136C512.471 449.516 514.053 451.126 516.111 451.126C517.511 451.126 518.505 450.384 518.967 449.558V451.168C518.967 452.806 517.945 453.674 516.587 453.674C515.327 453.674 514.417 453.044 514.137 452.12H512.877C513.129 453.758 514.571 454.78 516.587 454.78C518.841 454.78 520.255 453.282 520.255 451.168V443.328H518.967V444.728C518.519 443.902 517.511 443.202 516.111 443.202C514.053 443.202 512.471 444.742 512.471 447.136ZM518.967 447.15C518.967 448.956 517.763 450.006 516.363 450.006C514.963 450.006 513.773 448.942 513.773 447.136C513.773 445.33 514.963 444.308 516.363 444.308C517.763 444.308 518.967 445.372 518.967 447.15ZM528.022 451H529.282V446.478C529.282 444.28 527.924 443.188 526.146 443.188C525.11 443.188 524.186 443.622 523.682 444.42V443.328H522.408V451H523.682V446.758C523.682 445.106 524.578 444.294 525.88 444.294C527.168 444.294 528.022 445.092 528.022 446.66V451ZM534.625 444.28C535.941 444.28 537.061 445.106 537.047 446.604H532.203C532.343 445.106 533.379 444.28 534.625 444.28ZM538.209 448.634H536.837C536.557 449.46 535.829 450.048 534.681 450.048C533.379 450.048 532.287 449.194 532.189 447.64H538.321C538.349 447.374 538.363 447.15 538.363 446.87C538.363 444.77 536.907 443.202 534.681 443.202C532.441 443.202 530.887 444.728 530.887 447.15C530.887 449.586 532.497 451.126 534.681 451.126C536.585 451.126 537.817 450.034 538.209 448.634ZM539.569 447.136C539.569 449.516 541.151 451.126 543.209 451.126C544.609 451.126 545.603 450.412 546.065 449.558V451H547.353V440.64H546.065V444.7C545.533 443.818 544.427 443.202 543.223 443.202C541.151 443.202 539.569 444.742 539.569 447.136ZM546.065 447.15C546.065 448.956 544.861 450.006 543.461 450.006C542.061 450.006 540.871 448.942 540.871 447.136C540.871 445.33 542.061 444.308 543.461 444.308C544.861 444.308 546.065 445.372 546.065 447.15ZM558.782 448.256C558.782 449.32 558.026 449.95 556.766 449.95H554.512V446.506H556.724C557.97 446.506 558.782 447.178 558.782 448.256ZM558.53 443.874C558.53 444.868 557.844 445.456 556.654 445.456H554.512V442.292H556.626C557.872 442.292 558.53 442.908 558.53 443.874ZM560.056 448.382C560.056 447.178 559.188 446.156 558.124 445.974C559.062 445.666 559.832 444.952 559.832 443.72C559.832 442.362 558.796 441.242 556.738 441.242H553.238V451H556.878C558.894 451 560.056 449.852 560.056 448.382ZM564.736 449.544L562.328 443.328H560.914L564.008 450.916L562.496 454.612H563.812L568.432 443.328H567.116L564.736 449.544Z" fill="#464255"/>
<path d="M445.42 574.34C445.42 570.728 440.156 572.296 440.156 569.776C440.156 568.726 440.982 568.18 442.032 568.208C443.222 568.222 443.838 568.964 443.922 569.622H445.322C445.168 568.138 443.95 567.116 442.088 567.116C440.156 567.116 438.854 568.208 438.854 569.818C438.854 573.444 444.132 571.764 444.132 574.396C444.132 575.32 443.404 576.02 442.172 576.02C440.814 576.02 440.24 575.208 440.156 574.396H438.798C438.826 576.006 440.212 577.098 442.172 577.098C444.286 577.098 445.42 575.726 445.42 574.34ZM450.557 570.28C451.873 570.28 452.993 571.106 452.979 572.604H448.135C448.275 571.106 449.311 570.28 450.557 570.28ZM454.141 574.634H452.769C452.489 575.46 451.761 576.048 450.613 576.048C449.311 576.048 448.219 575.194 448.121 573.64H454.253C454.281 573.374 454.295 573.15 454.295 572.87C454.295 570.77 452.839 569.202 450.613 569.202C448.373 569.202 446.819 570.728 446.819 573.15C446.819 575.586 448.429 577.126 450.613 577.126C452.517 577.126 453.749 576.034 454.141 574.634ZM455.976 577H457.25V566.64H455.976V577ZM462.684 570.28C464 570.28 465.12 571.106 465.106 572.604H460.262C460.402 571.106 461.438 570.28 462.684 570.28ZM466.268 574.634H464.896C464.616 575.46 463.888 576.048 462.74 576.048C461.438 576.048 460.346 575.194 460.248 573.64H466.38C466.408 573.374 466.422 573.15 466.422 572.87C466.422 570.77 464.966 569.202 462.74 569.202C460.5 569.202 458.946 570.728 458.946 573.15C458.946 575.586 460.556 577.126 462.74 577.126C464.644 577.126 465.876 576.034 466.268 574.634ZM467.627 573.15C467.627 575.586 469.181 577.126 471.365 577.126C473.269 577.126 474.515 576.062 474.907 574.536H473.535C473.255 575.502 472.499 576.048 471.365 576.048C469.965 576.048 468.929 575.054 468.929 573.15C468.929 571.274 469.965 570.28 471.365 570.28C472.499 570.28 473.269 570.868 473.535 571.792H474.907C474.515 570.182 473.269 569.202 471.365 569.202C469.181 569.202 467.627 570.742 467.627 573.15ZM476.887 574.9C476.887 576.44 477.657 577 479.015 577H480.163V575.922H479.225C478.441 575.922 478.161 575.656 478.161 574.9V570.378H480.163V569.328H478.161V567.396H476.887V569.328H475.893V570.378H476.887V574.9ZM485.439 567.242V577H490.129V575.964H486.713V567.242H485.439ZM491.006 573.136C491.006 575.516 492.588 577.126 494.632 577.126C496.046 577.126 497.04 576.398 497.502 575.572V577H498.79V569.328H497.502V570.728C497.054 569.93 496.074 569.202 494.646 569.202C492.588 569.202 491.006 570.742 491.006 573.136ZM497.502 573.15C497.502 574.956 496.298 576.006 494.898 576.006C493.498 576.006 492.308 574.942 492.308 573.136C492.308 571.33 493.498 570.308 494.898 570.308C496.298 570.308 497.502 571.372 497.502 573.15ZM502.217 570.756V566.64H500.943V577H502.217V575.586C502.693 576.426 503.687 577.126 505.087 577.126C507.145 577.126 508.727 575.516 508.727 573.136C508.727 570.742 507.159 569.202 505.087 569.202C503.729 569.202 502.707 569.902 502.217 570.756ZM507.425 573.136C507.425 574.942 506.235 576.006 504.821 576.006C503.435 576.006 502.217 574.956 502.217 573.15C502.217 571.372 503.435 570.308 504.821 570.308C506.235 570.308 507.425 571.33 507.425 573.136ZM513.666 570.28C514.982 570.28 516.102 571.106 516.088 572.604H511.244C511.384 571.106 512.42 570.28 513.666 570.28ZM517.25 574.634H515.878C515.598 575.46 514.87 576.048 513.722 576.048C512.42 576.048 511.328 575.194 511.23 573.64H517.362C517.39 573.374 517.404 573.15 517.404 572.87C517.404 570.77 515.948 569.202 513.722 569.202C511.482 569.202 509.928 570.728 509.928 573.15C509.928 575.586 511.538 577.126 513.722 577.126C515.626 577.126 516.858 576.034 517.25 574.634ZM519.086 577H520.36V566.64H519.086V577Z" fill="#464255"/>
<path d="M103.42 322.34C103.42 318.728 98.156 320.296 98.156 317.776C98.156 316.726 98.982 316.18 100.032 316.208C101.222 316.222 101.838 316.964 101.922 317.622H103.322C103.168 316.138 101.95 315.116 100.088 315.116C98.156 315.116 96.854 316.208 96.854 317.818C96.854 321.444 102.132 319.764 102.132 322.396C102.132 323.32 101.404 324.02 100.172 324.02C98.814 324.02 98.24 323.208 98.156 322.396H96.798C96.826 324.006 98.212 325.098 100.172 325.098C102.286 325.098 103.42 323.726 103.42 322.34ZM108.557 318.28C109.873 318.28 110.993 319.106 110.979 320.604H106.135C106.275 319.106 107.311 318.28 108.557 318.28ZM112.141 322.634H110.769C110.489 323.46 109.761 324.048 108.613 324.048C107.311 324.048 106.219 323.194 106.121 321.64H112.253C112.281 321.374 112.295 321.15 112.295 320.87C112.295 318.77 110.839 317.202 108.613 317.202C106.373 317.202 104.819 318.728 104.819 321.15C104.819 323.586 106.429 325.126 108.613 325.126C110.517 325.126 111.749 324.034 112.141 322.634ZM113.976 325H115.25V314.64H113.976V325ZM120.684 318.28C122 318.28 123.12 319.106 123.106 320.604H118.262C118.402 319.106 119.438 318.28 120.684 318.28ZM124.268 322.634H122.896C122.616 323.46 121.888 324.048 120.74 324.048C119.438 324.048 118.346 323.194 118.248 321.64H124.38C124.408 321.374 124.422 321.15 124.422 320.87C124.422 318.77 122.966 317.202 120.74 317.202C118.5 317.202 116.946 318.728 116.946 321.15C116.946 323.586 118.556 325.126 120.74 325.126C122.644 325.126 123.876 324.034 124.268 322.634ZM125.627 321.15C125.627 323.586 127.181 325.126 129.365 325.126C131.269 325.126 132.515 324.062 132.907 322.536H131.535C131.255 323.502 130.499 324.048 129.365 324.048C127.965 324.048 126.929 323.054 126.929 321.15C126.929 319.274 127.965 318.28 129.365 318.28C130.499 318.28 131.269 318.868 131.535 319.792H132.907C132.515 318.182 131.269 317.202 129.365 317.202C127.181 317.202 125.627 318.742 125.627 321.15ZM134.887 322.9C134.887 324.44 135.657 325 137.015 325H138.163V323.922H137.225C136.441 323.922 136.161 323.656 136.161 322.9V318.378H138.163V317.328H136.161V315.396H134.887V317.328H133.893V318.378H134.887V322.9ZM144.713 319.876V316.292H146.589C148.045 316.292 148.661 316.964 148.661 318.098C148.661 319.19 148.045 319.876 146.589 319.876H144.713ZM149.963 318.098C149.963 316.502 148.885 315.242 146.589 315.242H143.439V325H144.713V320.926H146.589C149.011 320.926 149.963 319.582 149.963 318.098ZM152.821 320.828C152.821 319.05 153.745 318.504 154.963 318.504H155.299V317.188C154.081 317.188 153.255 317.72 152.821 318.574V317.328H151.547V325H152.821V320.828ZM164.049 321.15C164.049 318.728 162.355 317.202 160.171 317.202C158.001 317.202 156.293 318.728 156.293 321.15C156.293 323.586 157.945 325.126 160.115 325.126C162.299 325.126 164.049 323.586 164.049 321.15ZM157.595 321.15C157.595 319.218 158.813 318.308 160.157 318.308C161.473 318.308 162.747 319.218 162.747 321.15C162.747 323.096 161.445 324.006 160.115 324.006C158.785 324.006 157.595 323.096 157.595 321.15ZM166.41 316.082C166.886 316.082 167.264 315.704 167.264 315.214C167.264 314.724 166.886 314.346 166.41 314.346C165.934 314.346 165.556 314.724 165.556 315.214C165.556 315.704 165.934 316.082 166.41 316.082ZM165.766 317.328V326.638C165.766 327.31 165.5 327.562 164.8 327.562H164.268V328.64H165.01C166.312 328.64 167.04 328.052 167.04 326.666V317.328H165.766ZM172.459 318.28C173.775 318.28 174.895 319.106 174.881 320.604H170.037C170.177 319.106 171.213 318.28 172.459 318.28ZM176.043 322.634H174.671C174.391 323.46 173.663 324.048 172.515 324.048C171.213 324.048 170.121 323.194 170.023 321.64H176.155C176.183 321.374 176.197 321.15 176.197 320.87C176.197 318.77 174.741 317.202 172.515 317.202C170.275 317.202 168.721 318.728 168.721 321.15C168.721 323.586 170.331 325.126 172.515 325.126C174.419 325.126 175.651 324.034 176.043 322.634ZM177.403 321.15C177.403 323.586 178.957 325.126 181.141 325.126C183.045 325.126 184.291 324.062 184.683 322.536H183.311C183.031 323.502 182.275 324.048 181.141 324.048C179.741 324.048 178.705 323.054 178.705 321.15C178.705 319.274 179.741 318.28 181.141 318.28C182.275 318.28 183.045 318.868 183.311 319.792H184.683C184.291 318.182 183.045 317.202 181.141 317.202C178.957 317.202 177.403 318.742 177.403 321.15ZM186.663 322.9C186.663 324.44 187.433 325 188.791 325H189.939V323.922H189.001C188.217 323.922 187.937 323.656 187.937 322.9V318.378H189.939V317.328H187.937V315.396H186.663V317.328H185.669V318.378H186.663V322.9Z" fill="#464255"/>
<path d="M102.42 448.34C102.42 444.728 97.156 446.296 97.156 443.776C97.156 442.726 97.982 442.18 99.032 442.208C100.222 442.222 100.838 442.964 100.922 443.622H102.322C102.168 442.138 100.95 441.116 99.088 441.116C97.156 441.116 95.854 442.208 95.854 443.818C95.854 447.444 101.132 445.764 101.132 448.396C101.132 449.32 100.404 450.02 99.172 450.02C97.814 450.02 97.24 449.208 97.156 448.396H95.798C95.826 450.006 97.212 451.098 99.172 451.098C101.286 451.098 102.42 449.726 102.42 448.34ZM107.557 444.28C108.873 444.28 109.993 445.106 109.979 446.604H105.135C105.275 445.106 106.311 444.28 107.557 444.28ZM111.141 448.634H109.769C109.489 449.46 108.761 450.048 107.613 450.048C106.311 450.048 105.219 449.194 105.121 447.64H111.253C111.281 447.374 111.295 447.15 111.295 446.87C111.295 444.77 109.839 443.202 107.613 443.202C105.373 443.202 103.819 444.728 103.819 447.15C103.819 449.586 105.429 451.126 107.613 451.126C109.517 451.126 110.749 450.034 111.141 448.634ZM112.976 451H114.25V440.64H112.976V451ZM119.684 444.28C121 444.28 122.12 445.106 122.106 446.604H117.262C117.402 445.106 118.438 444.28 119.684 444.28ZM123.268 448.634H121.896C121.616 449.46 120.888 450.048 119.74 450.048C118.438 450.048 117.346 449.194 117.248 447.64H123.38C123.408 447.374 123.422 447.15 123.422 446.87C123.422 444.77 121.966 443.202 119.74 443.202C117.5 443.202 115.946 444.728 115.946 447.15C115.946 449.586 117.556 451.126 119.74 451.126C121.644 451.126 122.876 450.034 123.268 448.634ZM124.627 447.15C124.627 449.586 126.181 451.126 128.365 451.126C130.269 451.126 131.515 450.062 131.907 448.536H130.535C130.255 449.502 129.499 450.048 128.365 450.048C126.965 450.048 125.929 449.054 125.929 447.15C125.929 445.274 126.965 444.28 128.365 444.28C129.499 444.28 130.269 444.868 130.535 445.792H131.907C131.515 444.182 130.269 443.202 128.365 443.202C126.181 443.202 124.627 444.742 124.627 447.15ZM133.887 448.9C133.887 450.44 134.657 451 136.015 451H137.163V449.922H136.225C135.441 449.922 135.161 449.656 135.161 448.9V444.378H137.163V443.328H135.161V441.396H133.887V443.328H132.893V444.378H133.887V448.9ZM143.713 445.876V442.292H145.589C147.045 442.292 147.661 442.964 147.661 444.098C147.661 445.19 147.045 445.876 145.589 445.876H143.713ZM148.963 444.098C148.963 442.502 147.885 441.242 145.589 441.242H142.439V451H143.713V446.926H145.589C148.011 446.926 148.963 445.582 148.963 444.098ZM151.821 446.828C151.821 445.05 152.745 444.504 153.963 444.504H154.299V443.188C153.081 443.188 152.255 443.72 151.821 444.574V443.328H150.547V451H151.821V446.828ZM163.049 447.15C163.049 444.728 161.355 443.202 159.171 443.202C157.001 443.202 155.293 444.728 155.293 447.15C155.293 449.586 156.945 451.126 159.115 451.126C161.299 451.126 163.049 449.586 163.049 447.15ZM156.595 447.15C156.595 445.218 157.813 444.308 159.157 444.308C160.473 444.308 161.747 445.218 161.747 447.15C161.747 449.096 160.445 450.006 159.115 450.006C157.785 450.006 156.595 449.096 156.595 447.15ZM165.41 442.082C165.886 442.082 166.264 441.704 166.264 441.214C166.264 440.724 165.886 440.346 165.41 440.346C164.934 440.346 164.556 440.724 164.556 441.214C164.556 441.704 164.934 442.082 165.41 442.082ZM164.766 443.328V452.638C164.766 453.31 164.5 453.562 163.8 453.562H163.268V454.64H164.01C165.312 454.64 166.04 454.052 166.04 452.666V443.328H164.766ZM171.459 444.28C172.775 444.28 173.895 445.106 173.881 446.604H169.037C169.177 445.106 170.213 444.28 171.459 444.28ZM175.043 448.634H173.671C173.391 449.46 172.663 450.048 171.515 450.048C170.213 450.048 169.121 449.194 169.023 447.64H175.155C175.183 447.374 175.197 447.15 175.197 446.87C175.197 444.77 173.741 443.202 171.515 443.202C169.275 443.202 167.721 444.728 167.721 447.15C167.721 449.586 169.331 451.126 171.515 451.126C173.419 451.126 174.651 450.034 175.043 448.634ZM176.403 447.15C176.403 449.586 177.957 451.126 180.141 451.126C182.045 451.126 183.291 450.062 183.683 448.536H182.311C182.031 449.502 181.275 450.048 180.141 450.048C178.741 450.048 177.705 449.054 177.705 447.15C177.705 445.274 178.741 444.28 180.141 444.28C181.275 444.28 182.045 444.868 182.311 445.792H183.683C183.291 444.182 182.045 443.202 180.141 443.202C177.957 443.202 176.403 444.742 176.403 447.15ZM185.663 448.9C185.663 450.44 186.433 451 187.791 451H188.939V449.922H188.001C187.217 449.922 186.937 449.656 186.937 448.9V444.378H188.939V443.328H186.937V441.396H185.663V443.328H184.669V444.378H185.663V448.9Z" fill="#464255"/>
<path d="M95.476 568.278H98.15V577H99.424V568.278H102.084V567.242H95.476V568.278ZM103.176 573.136C103.176 575.516 104.758 577.126 106.802 577.126C108.216 577.126 109.21 576.398 109.672 575.572V577H110.96V569.328H109.672V570.728C109.224 569.93 108.244 569.202 106.816 569.202C104.758 569.202 103.176 570.742 103.176 573.136ZM109.672 573.15C109.672 574.956 108.468 576.006 107.068 576.006C105.668 576.006 104.478 574.942 104.478 573.136C104.478 571.33 105.668 570.308 107.068 570.308C108.468 570.308 109.672 571.372 109.672 573.15ZM118.629 574.914C118.573 572.17 114.121 573.164 114.121 571.344C114.121 570.728 114.681 570.28 115.619 570.28C116.641 570.28 117.229 570.84 117.285 571.61H118.559C118.475 570.112 117.355 569.202 115.661 569.202C113.953 569.202 112.847 570.168 112.847 571.344C112.847 574.2 117.383 573.206 117.383 574.914C117.383 575.544 116.823 576.048 115.815 576.048C114.737 576.048 114.079 575.488 114.009 574.746H112.693C112.777 576.146 114.037 577.126 115.829 577.126C117.523 577.126 118.629 576.174 118.629 574.914ZM120.428 577H121.702V573.612L124.712 577H126.448L122.822 573.15L126.434 569.328H124.656L121.702 572.73V566.64H120.428V577ZM130.889 572.114C130.889 575.04 133.031 577.084 135.761 577.084C137.875 577.084 139.555 576.034 140.283 574.158H138.757C138.225 575.32 137.189 575.978 135.761 575.978C133.717 575.978 132.191 574.494 132.191 572.114C132.191 569.72 133.717 568.236 135.761 568.236C137.189 568.236 138.225 568.894 138.757 570.07H140.283C139.555 568.18 137.875 567.116 135.761 567.116C133.031 567.116 130.889 569.188 130.889 572.114ZM141.704 573.136C141.704 575.516 143.286 577.126 145.33 577.126C146.744 577.126 147.738 576.398 148.2 575.572V577H149.488V569.328H148.2V570.728C147.752 569.93 146.772 569.202 145.344 569.202C143.286 569.202 141.704 570.742 141.704 573.136ZM148.2 573.15C148.2 574.956 146.996 576.006 145.596 576.006C144.196 576.006 143.006 574.942 143.006 573.136C143.006 571.33 144.196 570.308 145.596 570.308C146.996 570.308 148.2 571.372 148.2 573.15ZM151.921 574.9C151.921 576.44 152.691 577 154.049 577H155.197V575.922H154.258C153.475 575.922 153.195 575.656 153.195 574.9V570.378H155.197V569.328H153.195V567.396H151.921V569.328H150.927V570.378H151.921V574.9ZM160.002 570.28C161.318 570.28 162.438 571.106 162.424 572.604H157.58C157.72 571.106 158.756 570.28 160.002 570.28ZM163.586 574.634H162.214C161.934 575.46 161.206 576.048 160.058 576.048C158.756 576.048 157.664 575.194 157.566 573.64H163.698C163.726 573.374 163.74 573.15 163.74 572.87C163.74 570.77 162.284 569.202 160.058 569.202C157.818 569.202 156.264 570.728 156.264 573.15C156.264 575.586 157.874 577.126 160.058 577.126C161.962 577.126 163.194 576.034 163.586 574.634ZM164.946 573.136C164.946 575.516 166.528 577.126 168.586 577.126C169.986 577.126 170.98 576.384 171.442 575.558V577.168C171.442 578.806 170.42 579.674 169.062 579.674C167.802 579.674 166.892 579.044 166.612 578.12H165.352C165.604 579.758 167.046 580.78 169.062 580.78C171.316 580.78 172.73 579.282 172.73 577.168V569.328H171.442V570.728C170.994 569.902 169.986 569.202 168.586 569.202C166.528 569.202 164.946 570.742 164.946 573.136ZM171.442 573.15C171.442 574.956 170.238 576.006 168.838 576.006C167.438 576.006 166.248 574.942 166.248 573.136C166.248 571.33 167.438 570.308 168.838 570.308C170.238 570.308 171.442 571.372 171.442 573.15ZM182.163 573.15C182.163 570.728 180.469 569.202 178.285 569.202C176.115 569.202 174.407 570.728 174.407 573.15C174.407 575.586 176.059 577.126 178.229 577.126C180.413 577.126 182.163 575.586 182.163 573.15ZM175.709 573.15C175.709 571.218 176.927 570.308 178.271 570.308C179.587 570.308 180.861 571.218 180.861 573.15C180.861 575.096 179.559 576.006 178.229 576.006C176.899 576.006 175.709 575.096 175.709 573.15ZM185.112 572.828C185.112 571.05 186.036 570.504 187.254 570.504H187.59V569.188C186.372 569.188 185.546 569.72 185.112 570.574V569.328H183.838V577H185.112V572.828ZM191.972 575.544L189.564 569.328H188.15L191.244 576.916L189.732 580.612H191.048L195.668 569.328H194.352L191.972 575.544Z" fill="#464255"/>
<path d="M113.868 252.834C113.868 255.774 114.596 258 117.396 258C120.182 258 120.91 255.774 120.91 252.834C120.91 249.936 120.182 247.724 117.396 247.724C114.596 247.724 113.868 249.936 113.868 252.834ZM119.65 252.834C119.65 255.018 119.384 256.838 117.396 256.838C115.394 256.838 115.128 255.018 115.128 252.834C115.128 250.734 115.394 248.886 117.396 248.886C119.384 248.886 119.65 250.734 119.65 252.834ZM122.253 247.906V248.998H127.657L123.709 258H124.997L128.889 248.872V247.906H122.253ZM130.246 253.408H135.832V252.33H130.246V253.408ZM138.013 252.834C138.013 255.774 138.741 258 141.541 258C144.327 258 145.055 255.774 145.055 252.834C145.055 249.936 144.327 247.724 141.541 247.724C138.741 247.724 138.013 249.936 138.013 252.834ZM143.795 252.834C143.795 255.018 143.529 256.838 141.541 256.838C139.539 256.838 139.273 255.018 139.273 252.834C139.273 250.734 139.539 248.886 141.541 248.886C143.529 248.886 143.795 250.734 143.795 252.834ZM146.65 257.888H153.384V256.824H148.568C150.374 255.354 153.09 253.212 153.09 250.692C153.09 248.816 151.858 247.696 149.954 247.696C148.134 247.696 146.776 248.816 146.692 250.972H147.924C147.98 249.698 148.652 248.788 149.968 248.788C151.34 248.788 151.83 249.628 151.83 250.748C151.83 252.82 149.31 254.836 146.65 256.978V257.888ZM154.8 253.408H160.386V252.33H154.8V253.408ZM162.413 257.888H169.147V256.824H164.331C166.137 255.354 168.853 253.212 168.853 250.692C168.853 248.816 167.621 247.696 165.717 247.696C163.897 247.696 162.539 248.816 162.455 250.972H163.687C163.743 249.698 164.415 248.788 165.731 248.788C167.103 248.788 167.593 249.628 167.593 250.748C167.593 252.82 165.073 254.836 162.413 256.978V257.888ZM170.62 252.834C170.62 255.774 171.348 258 174.148 258C176.934 258 177.662 255.774 177.662 252.834C177.662 249.936 176.934 247.724 174.148 247.724C171.348 247.724 170.62 249.936 170.62 252.834ZM176.402 252.834C176.402 255.018 176.136 256.838 174.148 256.838C172.146 256.838 171.88 255.018 171.88 252.834C171.88 250.734 172.146 248.886 174.148 248.886C176.136 248.886 176.402 250.734 176.402 252.834ZM179.257 257.888H185.991V256.824H181.175C182.981 255.354 185.697 253.212 185.697 250.692C185.697 248.816 184.465 247.696 182.561 247.696C180.741 247.696 179.383 248.816 179.299 250.972H180.531C180.587 249.698 181.259 248.788 182.575 248.788C183.947 248.788 184.437 249.628 184.437 250.748C184.437 252.82 181.917 254.836 179.257 256.978V257.888ZM188.472 258H189.76V247.878H187.128V249.04H188.472V258Z" fill="#959AC5"/>
<path d="M463.63 378H464.974L461.46 368.298H459.99L456.462 378H457.806L458.59 375.83H462.846L463.63 378ZM462.482 374.794H458.954L460.718 369.866L462.482 374.794ZM466.512 378H467.786V367.64H466.512V378ZM469.957 378H471.231V367.64H469.957V378Z" fill="#959AC5"/>
<path d="M120.63 504H121.974L118.46 494.298H116.99L113.462 504H114.806L115.59 501.83H119.846L120.63 504ZM119.482 500.794H115.954L117.718 495.866L119.482 500.794ZM123.512 504H124.786V493.64H123.512V504ZM126.957 504H128.231V493.64H126.957V504Z" fill="#959AC5"/>
<path d="M463.63 630H464.974L461.46 620.298H459.99L456.462 630H457.806L458.59 627.83H462.846L463.63 630ZM462.482 626.794H458.954L460.718 621.866L462.482 626.794ZM466.512 630H467.786V619.64H466.512V630ZM469.957 630H471.231V619.64H469.957V630Z" fill="#959AC5"/>
<path d="M121.63 378H122.974L119.46 368.298H117.99L114.462 378H115.806L116.59 375.83H120.846L121.63 378ZM120.482 374.794H116.954L118.718 369.866L120.482 374.794ZM124.512 378H125.786V367.64H124.512V378ZM127.957 378H129.231V367.64H127.957V378Z" fill="#959AC5"/>
<path d="M463.63 504H464.974L461.46 494.298H459.99L456.462 504H457.806L458.59 501.83H462.846L463.63 504ZM462.482 500.794H458.954L460.718 495.866L462.482 500.794ZM466.512 504H467.786V493.64H466.512V504ZM469.957 504H471.231V493.64H469.957V504Z" fill="#959AC5"/>
<path d="M120.63 630H121.974L118.46 620.298H116.99L113.462 630H114.806L115.59 627.83H119.846L120.63 630ZM119.482 626.794H115.954L117.718 621.866L119.482 626.794ZM123.512 630H124.786V619.64H123.512V630ZM126.957 630H128.231V619.64H126.957V630Z" fill="#959AC5"/>
<path d="M479.868 252.834C479.868 255.774 480.596 258 483.396 258C486.182 258 486.91 255.774 486.91 252.834C486.91 249.936 486.182 247.724 483.396 247.724C480.596 247.724 479.868 249.936 479.868 252.834ZM485.65 252.834C485.65 255.018 485.384 256.838 483.396 256.838C481.394 256.838 481.128 255.018 481.128 252.834C481.128 250.734 481.394 248.886 483.396 248.886C485.384 248.886 485.65 250.734 485.65 252.834ZM489.121 255.284C489.261 256.768 490.241 258.014 492.257 258.014C494.917 258.014 495.687 256.124 495.687 252.75C495.687 249.614 494.889 247.682 492.145 247.682C489.961 247.682 488.813 249.082 488.813 251.014C488.813 253.156 490.199 254.318 492.061 254.318C493.153 254.318 494.161 253.828 494.567 252.974C494.609 255.942 493.811 256.95 492.327 256.95C491.151 256.95 490.479 256.334 490.297 255.284H489.121ZM492.271 253.24C490.759 253.24 490.031 252.288 490.031 250.986C490.031 249.642 490.857 248.746 492.173 248.746C493.629 248.746 494.413 249.712 494.413 251.084C494.413 252.442 493.489 253.24 492.271 253.24ZM497.421 253.408H503.007V252.33H497.421V253.408ZM505.188 252.834C505.188 255.774 505.916 258 508.716 258C511.502 258 512.23 255.774 512.23 252.834C512.23 249.936 511.502 247.724 508.716 247.724C505.916 247.724 505.188 249.936 505.188 252.834ZM510.97 252.834C510.97 255.018 510.704 256.838 508.716 256.838C506.714 256.838 506.448 255.018 506.448 252.834C506.448 250.734 506.714 248.886 508.716 248.886C510.704 248.886 510.97 250.734 510.97 252.834ZM513.951 250.426H515.197C515.323 249.446 516.037 248.774 517.227 248.774C518.445 248.774 519.089 249.446 519.089 250.412C519.089 251.588 518.179 252.106 516.485 252.12H516.149V253.184H516.471C518.291 253.184 519.285 253.73 519.285 255.158C519.285 256.194 518.641 256.992 517.283 256.992C515.939 256.992 515.155 256.166 515.029 255.088H513.797C513.951 257.048 515.379 258.07 517.297 258.07C519.411 258.07 520.503 256.838 520.503 255.27C520.503 253.814 519.705 252.946 518.529 252.666V252.596C519.593 252.358 520.321 251.448 520.321 250.286C520.321 248.83 519.243 247.682 517.269 247.682C515.393 247.682 514.077 248.69 513.951 250.426ZM522.167 253.408H527.753V252.33H522.167V253.408ZM529.78 257.888H536.514V256.824H531.698C533.504 255.354 536.22 253.212 536.22 250.692C536.22 248.816 534.988 247.696 533.084 247.696C531.264 247.696 529.906 248.816 529.822 250.972H531.054C531.11 249.698 531.782 248.788 533.098 248.788C534.47 248.788 534.96 249.628 534.96 250.748C534.96 252.82 532.44 254.836 529.78 256.978V257.888ZM537.987 252.834C537.987 255.774 538.715 258 541.515 258C544.301 258 545.029 255.774 545.029 252.834C545.029 249.936 544.301 247.724 541.515 247.724C538.715 247.724 537.987 249.936 537.987 252.834ZM543.769 252.834C543.769 255.018 543.503 256.838 541.515 256.838C539.513 256.838 539.247 255.018 539.247 252.834C539.247 250.734 539.513 248.886 541.515 248.886C543.503 248.886 543.769 250.734 543.769 252.834ZM546.624 257.888H553.358V256.824H548.542C550.348 255.354 553.064 253.212 553.064 250.692C553.064 248.816 551.832 247.696 549.928 247.696C548.108 247.696 546.75 248.816 546.666 250.972H547.898C547.954 249.698 548.626 248.788 549.942 248.788C551.314 248.788 551.804 249.628 551.804 250.748C551.804 252.82 549.284 254.836 546.624 256.978V257.888ZM555.839 258H557.127V247.878H554.495V249.04H555.839V258Z" fill="#959AC5"/>
<rect x="393" y="223" width="60" height="60" fill="#58D7FF"/>
<path d="M414.546 249.572H417.15V258H418.746V249.572H421.336V248.27H414.546V249.572ZM430.302 254.136C430.302 251.714 428.566 250.16 426.368 250.16C424.17 250.16 422.434 251.714 422.434 254.136C422.434 256.558 424.1 258.126 426.298 258.126C428.51 258.126 430.302 256.558 430.302 254.136ZM424.058 254.136C424.058 252.386 425.136 251.546 426.34 251.546C427.53 251.546 428.664 252.386 428.664 254.136C428.664 255.886 427.488 256.74 426.298 256.74C425.094 256.74 424.058 255.886 424.058 254.136Z" fill="white"/>
<path d="M100.881 112H97.8184V92.2715H110.137V94.9102H100.881V101.158H109.357V103.742H100.881V112ZM112.943 112V97.6172H115.896V112H112.943ZM115.636 95.0195C115.299 95.3477 114.893 95.5117 114.42 95.5117C113.946 95.5117 113.54 95.3477 113.203 95.0195C112.875 94.6914 112.711 94.2949 112.711 93.8301C112.711 93.3561 112.875 92.9551 113.203 92.627C113.54 92.2988 113.946 92.1348 114.42 92.1348C114.903 92.1348 115.308 92.2988 115.636 92.627C115.974 92.9551 116.142 93.3561 116.142 93.8301C116.142 94.2949 115.974 94.6914 115.636 95.0195ZM119.427 112V92.2715H122.38V112H119.427ZM126.677 94.2129H129.643V97.6172H132.378V99.9551H129.643V107.885C129.643 108.505 129.785 108.96 130.067 109.252C130.35 109.544 130.792 109.689 131.393 109.689C131.831 109.689 132.154 109.667 132.364 109.621V111.959C131.999 112.05 131.453 112.096 130.723 112.096C129.274 112.096 128.235 111.799 127.606 111.207C126.986 110.605 126.677 109.607 126.677 108.213V99.9551H124.585V97.6172H126.677V94.2129ZM143.373 100.775C142.726 100.083 141.892 99.7363 140.871 99.7363C139.851 99.7363 139.003 100.087 138.329 100.789C137.654 101.482 137.28 102.38 137.207 103.482H144.399C144.362 102.37 144.021 101.468 143.373 100.775ZM144.385 107.775H147.188C146.978 109.097 146.304 110.177 145.164 111.016C144.025 111.854 142.635 112.273 140.995 112.273C138.889 112.273 137.23 111.613 136.018 110.291C134.815 108.96 134.213 107.156 134.213 104.877C134.213 102.617 134.815 100.798 136.018 99.4219C137.23 98.0456 138.848 97.3574 140.871 97.3574C142.858 97.3574 144.435 98.0091 145.602 99.3125C146.769 100.607 147.352 102.348 147.352 104.535V105.547H137.194V105.725C137.194 106.982 137.545 107.99 138.246 108.746C138.948 109.503 139.887 109.881 141.063 109.881C141.892 109.881 142.603 109.689 143.196 109.307C143.788 108.924 144.185 108.413 144.385 107.775ZM150.049 112V97.6172H152.865V100.064H152.934C153.171 99.2259 153.594 98.5697 154.205 98.0957C154.816 97.6217 155.545 97.3848 156.393 97.3848C156.675 97.3848 157.012 97.4212 157.404 97.4941V100.242C157.14 100.133 156.698 100.078 156.078 100.078C155.13 100.078 154.378 100.374 153.822 100.967C153.275 101.559 153.002 102.366 153.002 103.387V112H150.049ZM173.995 112H166.079V92.2715H173.954C175.704 92.2715 177.108 92.7227 178.165 93.625C179.223 94.5182 179.751 95.7077 179.751 97.1934C179.751 98.2415 179.409 99.1803 178.726 100.01C178.051 100.83 177.222 101.322 176.238 101.486V101.596C177.586 101.751 178.671 102.27 179.491 103.154C180.312 104.029 180.722 105.118 180.722 106.422C180.722 108.163 180.125 109.53 178.931 110.523C177.737 111.508 176.092 112 173.995 112ZM169.142 94.7734V100.666H172.573C173.895 100.666 174.911 100.402 175.622 99.873C176.333 99.3444 176.689 98.5924 176.689 97.6172C176.689 96.7057 176.388 96.0039 175.786 95.5117C175.185 95.0195 174.328 94.7734 173.216 94.7734H169.142ZM169.142 109.498H173.366C174.743 109.498 175.791 109.22 176.511 108.664C177.231 108.108 177.591 107.297 177.591 106.23C177.591 104.079 176.124 103.004 173.189 103.004H169.142V109.498ZM184.827 117.359C184.271 117.359 183.87 117.337 183.624 117.291V114.898C183.77 114.935 184.089 114.953 184.581 114.953C185.274 114.953 185.816 114.794 186.208 114.475C186.6 114.165 186.91 113.641 187.137 112.902C187.137 112.893 187.183 112.743 187.274 112.451L187.397 112.014L182.202 97.6172H185.401L189.052 109.32H189.093L192.743 97.6172H195.86L190.46 112.752C189.849 114.493 189.134 115.696 188.313 116.361C187.493 117.027 186.331 117.359 184.827 117.359Z" fill="black"/>
<defs>
<filter id="filter0_d" x="0" y="0" width="858" height="837" filterUnits="userSpaceOnUse" color-interpolation-filters="sRGB">
<feFlood flood-opacity="0" result="BackgroundImageFix"/>
<feColorMatrix in="SourceAlpha" type="matrix" values="0 0 0 0 0 0 0 0 0 0 0 0 0 0 0 0 0 0 127 0" result="hardAlpha"/>
<feOffset/>
<feGaussianBlur stdDeviation="26"/>
<feColorMatrix type="matrix" values="0 0 0 0 0.584549 0 0 0 0 0.604366 0 0 0 0 0.770833 0 0 0 0.6 0"/>
<feBlend mode="normal" in2="BackgroundImageFix" result="effect1_dropShadow"/>
<feBlend mode="normal" in="SourceGraphic" in2="effect1_dropShadow" result="shape"/>
</filter>
</defs>
</svg>
