<svg width="1018" height="849" viewBox="0 0 1018 849" fill="none" xmlns="http://www.w3.org/2000/svg">
<g filter="url(#filter0_d)">
<path d="M80 80C80 71.1635 87.1634 64 96 64H922C930.837 64 938 71.1634 938 80V737C938 745.837 930.837 753 922 753H96C87.1634 753 80 745.837 80 737V80Z" fill="white" stroke="#58D7FF" stroke-width="4"/>
<rect x="115" y="668" width="93" height="38" rx="6" fill="#3546AB"/>
<rect x="218" y="668" width="93" height="38" rx="6" fill="#D7D9E6"/>
<path d="M162.798 689.172C162.798 685.728 157.786 686.82 157.786 684.86C157.786 684.062 158.36 683.684 159.13 683.712C159.97 683.726 160.488 684.23 160.53 684.874H162.686C162.56 683.11 161.188 682.088 159.186 682.088C157.17 682.088 155.742 683.152 155.742 684.916C155.728 688.458 160.768 687.184 160.768 689.298C160.768 689.998 160.222 690.488 159.298 690.488C158.388 690.488 157.87 689.97 157.814 689.186H155.714C155.742 691.034 157.31 692.098 159.34 692.098C161.566 692.098 162.798 690.712 162.798 689.172ZM163.993 688.094C163.993 690.516 165.561 692.126 167.521 692.126C168.753 692.126 169.635 691.538 170.097 690.866V692H172.071V684.244H170.097V685.35C169.635 684.706 168.781 684.118 167.535 684.118C165.561 684.118 163.993 685.672 163.993 688.094ZM170.097 688.122C170.097 689.592 169.117 690.404 168.039 690.404C166.989 690.404 165.995 689.564 165.995 688.094C165.995 686.624 166.989 685.84 168.039 685.84C169.117 685.84 170.097 686.652 170.097 688.122ZM173.16 684.244L176.016 692H178.396L181.266 684.244H179.18L177.22 690.194L175.26 684.244H173.16ZM185.698 685.728C186.706 685.728 187.518 686.372 187.546 687.394H183.864C184.018 686.33 184.76 685.728 185.698 685.728ZM189.38 689.564H187.266C187.014 690.082 186.552 690.502 185.712 690.502C184.732 690.502 183.948 689.858 183.85 688.71H189.52C189.562 688.458 189.576 688.206 189.576 687.954C189.576 685.644 187.994 684.118 185.754 684.118C183.458 684.118 181.862 685.672 181.862 688.122C181.862 690.558 183.5 692.126 185.754 692.126C187.672 692.126 188.96 690.992 189.38 689.564Z" fill="white"/>
<path d="M245.57 687.1C245.57 690.026 247.712 692.084 250.526 692.084C252.696 692.084 254.46 690.936 255.118 688.92H252.864C252.402 689.872 251.562 690.334 250.512 690.334C248.804 690.334 247.586 689.074 247.586 687.1C247.586 685.112 248.804 683.866 250.512 683.866C251.562 683.866 252.402 684.328 252.864 685.266H255.118C254.46 683.264 252.696 682.102 250.526 682.102C247.712 682.102 245.57 684.174 245.57 687.1ZM256.792 692H258.752V681.64H256.792V692ZM268.179 688.122C268.179 685.672 266.429 684.118 264.189 684.118C261.949 684.118 260.199 685.672 260.199 688.122C260.199 690.558 261.893 692.126 264.133 692.126C266.387 692.126 268.179 690.558 268.179 688.122ZM262.187 688.122C262.187 686.568 263.125 685.826 264.161 685.826C265.197 685.826 266.163 686.568 266.163 688.122C266.163 689.662 265.169 690.418 264.133 690.418C263.083 690.418 262.187 689.662 262.187 688.122ZM275.636 689.788C275.58 686.946 271.282 687.828 271.282 686.414C271.282 685.966 271.66 685.672 272.388 685.672C273.158 685.672 273.634 686.078 273.69 686.68H275.566C275.454 685.14 274.32 684.118 272.444 684.118C270.526 684.118 269.378 685.154 269.378 686.442C269.378 689.284 273.76 688.402 273.76 689.788C273.76 690.236 273.34 690.586 272.57 690.586C271.786 690.586 271.24 690.138 271.17 689.55H269.196C269.28 690.992 270.638 692.126 272.584 692.126C274.474 692.126 275.636 691.118 275.636 689.788ZM280.577 685.728C281.585 685.728 282.397 686.372 282.425 687.394H278.743C278.897 686.33 279.639 685.728 280.577 685.728ZM284.259 689.564H282.145C281.893 690.082 281.431 690.502 280.591 690.502C279.611 690.502 278.827 689.858 278.729 688.71H284.399C284.441 688.458 284.455 688.206 284.455 687.954C284.455 685.644 282.873 684.118 280.633 684.118C278.337 684.118 276.741 685.672 276.741 688.122C276.741 690.558 278.379 692.126 280.633 692.126C282.551 692.126 283.839 690.992 284.259 689.564Z" fill="#464255"/>
<path d="M144.608 681.511C144.336 681.207 143.957 681.024 143.552 681.002C143.147 680.981 142.751 681.123 142.45 681.397L135.244 690.325L132.628 687.635C132.487 687.487 132.318 687.369 132.132 687.288C131.945 687.207 131.745 687.165 131.542 687.163C131.339 687.161 131.137 687.2 130.95 687.278C130.762 687.355 130.591 687.47 130.448 687.615C130.304 687.76 130.191 687.933 130.114 688.123C130.037 688.313 129.998 688.516 130 688.722C130.002 688.927 130.044 689.13 130.124 689.318C130.204 689.507 130.321 689.677 130.467 689.82L134.108 693.548C134.385 693.827 134.757 693.989 135.149 693.999C135.54 694.01 135.92 693.868 136.211 693.603L144.495 683.693C144.796 683.419 144.977 683.035 144.998 682.626C145.019 682.217 144.879 681.816 144.608 681.511Z" fill="white"/>
<rect x="115.5" y="202.5" width="249" height="59" rx="17.5" fill="#F9FBFD" fill-opacity="0.3" stroke="#D7D9E6"/>
<rect x="115.5" y="314.5" width="384" height="59" rx="17.5" fill="#F9FBFD" fill-opacity="0.3" stroke="#D7D9E6"/>
<rect x="115.5" y="578.5" width="789" height="59" rx="17.5" fill="#F9FBFD" fill-opacity="0.3" stroke="#D7D9E6"/>
<rect x="520.5" y="314.5" width="384" height="59" rx="17.5" fill="#F9FBFD" fill-opacity="0.3" stroke="#D7D9E6"/>
<rect x="385.5" y="201.5" width="249" height="59" rx="17.5" fill="#F9FBFD" fill-opacity="0.3" stroke="#D7D9E6"/>
<rect x="385.5" y="446.5" width="249" height="59" rx="17.5" fill="#F9FBFD" fill-opacity="0.3" stroke="#D7D9E6"/>
<rect x="115.5" y="446.5" width="249" height="59" rx="17.5" fill="#F9FBFD" fill-opacity="0.3" stroke="#D7D9E6"/>
<rect x="655.5" y="201.5" width="249" height="59" rx="17.5" fill="#F9FBFD" fill-opacity="0.3" stroke="#D7D9E6"/>
<path d="M339.007 236C339.151 235.999 339.289 235.937 339.392 235.829L344.847 230.002C344.946 229.892 345.001 229.745 345 229.592C344.999 229.439 344.941 229.293 344.84 229.185C344.739 229.077 344.602 229.016 344.459 229.014C344.316 229.013 344.178 229.072 344.076 229.178L339.007 234.593L333.938 229.178C333.887 229.122 333.827 229.078 333.761 229.047C333.694 229.017 333.623 229.001 333.55 229C333.478 228.999 333.406 229.014 333.339 229.043C333.272 229.073 333.211 229.116 333.16 229.171C333.109 229.225 333.068 229.29 333.041 229.362C333.013 229.434 332.999 229.51 333 229.588C333.001 229.665 333.016 229.742 333.044 229.813C333.073 229.884 333.114 229.948 333.167 230.002L338.621 235.829C338.724 235.937 338.862 235.999 339.007 236Z" fill="#464255" stroke="#AAABB5"/>
<path d="M115.485 187.286H116.723C116.782 187.819 117.042 188.248 117.502 188.571C117.967 188.895 118.552 189.057 119.259 189.057C119.924 189.057 120.473 188.899 120.906 188.585C121.344 188.266 121.562 187.865 121.562 187.382C121.562 186.967 121.41 186.625 121.104 186.356C120.804 186.088 120.321 185.867 119.655 185.693L118.391 185.365C117.479 185.133 116.814 184.809 116.395 184.395C115.975 183.975 115.766 183.431 115.766 182.761C115.766 181.94 116.089 181.271 116.736 180.751C117.388 180.231 118.227 179.972 119.252 179.972C120.232 179.972 121.043 180.236 121.686 180.765C122.328 181.289 122.663 181.963 122.69 182.788H121.46C121.405 182.259 121.177 181.842 120.776 181.537C120.375 181.232 119.854 181.079 119.211 181.079C118.573 181.079 118.051 181.229 117.646 181.53C117.244 181.831 117.044 182.223 117.044 182.706C117.044 183.08 117.19 183.387 117.481 183.629C117.778 183.866 118.261 184.071 118.931 184.244L119.963 184.518C120.984 184.773 121.717 185.112 122.164 185.536C122.611 185.96 122.834 186.525 122.834 187.231C122.834 188.134 122.501 188.849 121.836 189.378C121.175 189.902 120.277 190.164 119.143 190.164C118.094 190.164 117.238 189.902 116.572 189.378C115.907 188.854 115.545 188.157 115.485 187.286ZM126.936 183.8C126.384 183.8 125.926 183.991 125.562 184.374C125.201 184.752 125.003 185.24 124.967 185.837H128.829C128.815 185.235 128.635 184.745 128.289 184.367C127.943 183.989 127.492 183.8 126.936 183.8ZM128.802 187.963H129.971C129.866 188.592 129.538 189.109 128.986 189.515C128.439 189.92 127.781 190.123 127.011 190.123C125.994 190.123 125.195 189.795 124.611 189.139C124.028 188.482 123.736 187.594 123.736 186.473C123.736 185.361 124.028 184.465 124.611 183.786C125.199 183.107 125.981 182.768 126.956 182.768C127.913 182.768 128.67 183.089 129.226 183.731C129.782 184.374 130.06 185.235 130.06 186.315V186.767H124.96V186.835C124.96 187.519 125.147 188.065 125.521 188.476C125.894 188.886 126.4 189.091 127.038 189.091C127.485 189.091 127.865 188.988 128.18 188.783C128.494 188.578 128.701 188.305 128.802 187.963ZM131.324 190V180.136H132.514V190H131.324ZM136.971 183.8C136.419 183.8 135.961 183.991 135.597 184.374C135.237 184.752 135.038 185.24 135.002 185.837H138.864C138.851 185.235 138.671 184.745 138.324 184.367C137.978 183.989 137.527 183.8 136.971 183.8ZM138.837 187.963H140.006C139.901 188.592 139.573 189.109 139.021 189.515C138.475 189.92 137.816 190.123 137.046 190.123C136.03 190.123 135.23 189.795 134.646 189.139C134.063 188.482 133.771 187.594 133.771 186.473C133.771 185.361 134.063 184.465 134.646 183.786C135.234 183.107 136.016 182.768 136.991 182.768C137.948 182.768 138.705 183.089 139.261 183.731C139.817 184.374 140.095 185.235 140.095 186.315V186.767H134.995V186.835C134.995 187.519 135.182 188.065 135.556 188.476C135.929 188.886 136.435 189.091 137.073 189.091C137.52 189.091 137.9 188.988 138.215 188.783C138.529 188.578 138.737 188.305 138.837 187.963ZM147.204 185.222H146.042C145.951 184.812 145.748 184.474 145.434 184.21C145.124 183.946 144.72 183.813 144.224 183.813C143.604 183.813 143.105 184.053 142.727 184.531C142.348 185.005 142.159 185.643 142.159 186.445C142.159 187.261 142.348 187.904 142.727 188.373C143.109 188.842 143.613 189.077 144.237 189.077C144.716 189.077 145.11 188.959 145.42 188.722C145.734 188.48 145.944 188.143 146.049 187.71H147.218C147.127 188.421 146.805 189.002 146.254 189.453C145.707 189.9 145.033 190.123 144.23 190.123C143.237 190.123 142.442 189.795 141.845 189.139C141.248 188.478 140.949 187.58 140.949 186.445C140.949 185.329 141.248 184.438 141.845 183.772C142.442 183.103 143.232 182.768 144.217 182.768C145.064 182.768 145.753 183.007 146.281 183.485C146.814 183.964 147.122 184.543 147.204 185.222ZM148.694 181.175H149.884V182.891H151.265V183.868H149.884V188.093C149.884 188.416 149.954 188.656 150.096 188.811C150.237 188.961 150.46 189.036 150.766 189.036C150.957 189.036 151.121 189.025 151.258 189.002V190C151.103 190.036 150.852 190.055 150.506 190.055C149.854 190.055 149.389 189.909 149.111 189.617C148.833 189.326 148.694 188.838 148.694 188.154V183.868H147.635V182.891H148.694V181.175ZM155.592 180.136H159.112C160.037 180.136 160.794 180.432 161.382 181.024C161.974 181.612 162.271 182.371 162.271 183.301C162.271 184.235 161.974 184.998 161.382 185.591C160.789 186.183 160.028 186.479 159.099 186.479H156.822V190H155.592V180.136ZM156.822 181.229V185.386H158.791C159.493 185.386 160.037 185.203 160.425 184.839C160.812 184.47 161.006 183.957 161.006 183.301C161.006 182.645 160.812 182.136 160.425 181.776C160.042 181.412 159.497 181.229 158.791 181.229H156.822ZM163.501 190V182.891H164.622V184.053H164.649C164.768 183.656 164.98 183.344 165.285 183.116C165.595 182.884 165.957 182.768 166.372 182.768C166.468 182.768 166.627 182.784 166.851 182.815V183.971C166.723 183.925 166.511 183.902 166.215 183.902C165.755 183.902 165.385 184.055 165.107 184.36C164.829 184.666 164.69 185.069 164.69 185.57V190H163.501ZM170.426 190.123C169.432 190.123 168.635 189.793 168.033 189.132C167.432 188.466 167.131 187.571 167.131 186.445C167.131 185.32 167.432 184.426 168.033 183.766C168.635 183.1 169.432 182.768 170.426 182.768C171.415 182.768 172.21 183.1 172.812 183.766C173.413 184.426 173.714 185.32 173.714 186.445C173.714 187.566 173.413 188.46 172.812 189.125C172.21 189.79 171.415 190.123 170.426 190.123ZM168.901 188.38C169.28 188.845 169.788 189.077 170.426 189.077C171.064 189.077 171.57 188.847 171.943 188.387C172.317 187.922 172.504 187.275 172.504 186.445C172.504 185.616 172.317 184.971 171.943 184.511C171.57 184.046 171.064 183.813 170.426 183.813C169.788 183.813 169.28 184.046 168.901 184.511C168.528 184.976 168.341 185.62 168.341 186.445C168.341 187.27 168.528 187.915 168.901 188.38ZM176.168 182.891V190.349C176.168 191.069 175.99 191.597 175.635 191.935C175.279 192.276 174.723 192.447 173.967 192.447C173.826 192.447 173.75 192.445 173.741 192.44V191.449H173.926C174.313 191.449 174.584 191.367 174.739 191.203C174.899 191.039 174.979 190.759 174.979 190.362V182.891H176.168ZM175.573 181.694C175.373 181.694 175.2 181.621 175.054 181.476C174.908 181.33 174.835 181.157 174.835 180.956C174.835 180.751 174.908 180.578 175.054 180.437C175.2 180.291 175.373 180.218 175.573 180.218C175.778 180.218 175.954 180.291 176.1 180.437C176.245 180.578 176.318 180.751 176.318 180.956C176.318 181.157 176.245 181.33 176.1 181.476C175.954 181.621 175.778 181.694 175.573 181.694ZM180.625 183.8C180.074 183.8 179.616 183.991 179.251 184.374C178.891 184.752 178.693 185.24 178.656 185.837H182.519C182.505 185.235 182.325 184.745 181.979 184.367C181.632 183.989 181.181 183.8 180.625 183.8ZM182.491 187.963H183.66C183.555 188.592 183.227 189.109 182.676 189.515C182.129 189.92 181.47 190.123 180.7 190.123C179.684 190.123 178.884 189.795 178.301 189.139C177.717 188.482 177.426 187.594 177.426 186.473C177.426 185.361 177.717 184.465 178.301 183.786C178.889 183.107 179.67 182.768 180.646 182.768C181.603 182.768 182.359 183.089 182.915 183.731C183.471 184.374 183.749 185.235 183.749 186.315V186.767H178.649V186.835C178.649 187.519 178.836 188.065 179.21 188.476C179.584 188.886 180.09 189.091 180.728 189.091C181.174 189.091 181.555 188.988 181.869 188.783C182.184 188.578 182.391 188.305 182.491 187.963ZM190.858 185.222H189.696C189.605 184.812 189.402 184.474 189.088 184.21C188.778 183.946 188.375 183.813 187.878 183.813C187.258 183.813 186.759 184.053 186.381 184.531C186.003 185.005 185.813 185.643 185.813 186.445C185.813 187.261 186.003 187.904 186.381 188.373C186.764 188.842 187.267 189.077 187.892 189.077C188.37 189.077 188.764 188.959 189.074 188.722C189.389 188.48 189.598 188.143 189.703 187.71H190.872C190.781 188.421 190.46 189.002 189.908 189.453C189.361 189.9 188.687 190.123 187.885 190.123C186.891 190.123 186.096 189.795 185.499 189.139C184.902 188.478 184.604 187.58 184.604 186.445C184.604 185.329 184.902 184.438 185.499 183.772C186.096 183.103 186.887 182.768 187.871 182.768C188.719 182.768 189.407 183.007 189.936 183.485C190.469 183.964 190.776 184.543 190.858 185.222ZM192.349 181.175H193.538V182.891H194.919V183.868H193.538V188.093C193.538 188.416 193.609 188.656 193.75 188.811C193.891 188.961 194.115 189.036 194.42 189.036C194.611 189.036 194.775 189.025 194.912 189.002V190C194.757 190.036 194.507 190.055 194.16 190.055C193.508 190.055 193.044 189.909 192.766 189.617C192.488 189.326 192.349 188.838 192.349 188.154V183.868H191.289V182.891H192.349V181.175Z" fill="#464255"/>
<path d="M200.846 183.964L199.185 182.918L199.253 184.88H198.357L198.433 182.918L196.751 183.971L196.327 183.15L198.05 182.275L196.334 181.394L196.758 180.601L198.433 181.633L198.364 179.685H199.253L199.185 181.64L200.853 180.601L201.29 181.394L199.554 182.282L201.29 183.157L200.846 183.964Z" fill="#FF5B5B"/>
<path d="M115.485 432.286H116.723C116.782 432.819 117.042 433.248 117.502 433.571C117.967 433.895 118.552 434.057 119.259 434.057C119.924 434.057 120.473 433.899 120.906 433.585C121.344 433.266 121.562 432.865 121.562 432.382C121.562 431.967 121.41 431.625 121.104 431.356C120.804 431.088 120.321 430.867 119.655 430.693L118.391 430.365C117.479 430.133 116.814 429.809 116.395 429.395C115.975 428.975 115.766 428.431 115.766 427.761C115.766 426.94 116.089 426.271 116.736 425.751C117.388 425.231 118.227 424.972 119.252 424.972C120.232 424.972 121.043 425.236 121.686 425.765C122.328 426.289 122.663 426.963 122.69 427.788H121.46C121.405 427.259 121.177 426.842 120.776 426.537C120.375 426.232 119.854 426.079 119.211 426.079C118.573 426.079 118.051 426.229 117.646 426.53C117.244 426.831 117.044 427.223 117.044 427.706C117.044 428.08 117.19 428.387 117.481 428.629C117.778 428.866 118.261 429.071 118.931 429.244L119.963 429.518C120.984 429.773 121.717 430.112 122.164 430.536C122.611 430.96 122.834 431.525 122.834 432.231C122.834 433.134 122.501 433.849 121.836 434.378C121.175 434.902 120.277 435.164 119.143 435.164C118.094 435.164 117.238 434.902 116.572 434.378C115.907 433.854 115.545 433.157 115.485 432.286ZM124.468 426.175H125.657V427.891H127.038V428.868H125.657V433.093C125.657 433.416 125.728 433.656 125.869 433.811C126.01 433.961 126.234 434.036 126.539 434.036C126.73 434.036 126.895 434.025 127.031 434.002V435C126.876 435.036 126.626 435.055 126.279 435.055C125.628 435.055 125.163 434.909 124.885 434.617C124.607 434.326 124.468 433.838 124.468 433.154V428.868H123.408V427.891H124.468V426.175ZM130.518 434.111C131.078 434.111 131.548 433.938 131.926 433.592C132.309 433.241 132.5 432.81 132.5 432.3V431.719L130.6 431.835C130.121 431.867 129.75 431.983 129.485 432.184C129.226 432.384 129.096 432.653 129.096 432.99C129.096 433.327 129.226 433.599 129.485 433.804C129.745 434.009 130.089 434.111 130.518 434.111ZM130.251 435.123C129.545 435.123 128.973 434.927 128.535 434.535C128.102 434.143 127.886 433.628 127.886 432.99C127.886 432.38 128.109 431.892 128.556 431.527C129.007 431.163 129.643 430.958 130.463 430.912L132.5 430.796V430.201C132.5 429.768 132.363 429.429 132.09 429.183C131.816 428.937 131.434 428.813 130.941 428.813C130.49 428.813 130.123 428.914 129.841 429.114C129.558 429.31 129.378 429.586 129.301 429.941H128.152C128.193 429.308 128.467 428.788 128.973 428.383C129.483 427.973 130.148 427.768 130.969 427.768C131.803 427.768 132.464 427.977 132.951 428.396C133.443 428.816 133.689 429.379 133.689 430.085V435H132.562V433.776H132.534C132.32 434.182 132.006 434.508 131.591 434.754C131.176 435 130.729 435.123 130.251 435.123ZM135.2 435V427.891H136.321V429.053H136.349C136.467 428.656 136.679 428.344 136.984 428.116C137.294 427.884 137.657 427.768 138.071 427.768C138.167 427.768 138.326 427.784 138.55 427.815V428.971C138.422 428.925 138.21 428.902 137.914 428.902C137.454 428.902 137.085 429.055 136.807 429.36C136.529 429.666 136.39 430.069 136.39 430.57V435H135.2ZM139.903 426.175H141.093V427.891H142.474V428.868H141.093V433.093C141.093 433.416 141.163 433.656 141.305 433.811C141.446 433.961 141.669 434.036 141.975 434.036C142.166 434.036 142.33 434.025 142.467 434.002V435C142.312 435.036 142.061 435.055 141.715 435.055C141.063 435.055 140.598 434.909 140.32 434.617C140.042 434.326 139.903 433.838 139.903 433.154V428.868H138.844V427.891H139.903V426.175ZM150.526 435H149.296V426.243H146.186V425.136H153.637V426.243H150.526V435ZM154.471 435V427.891H155.66V435H154.471ZM155.065 426.694C154.865 426.694 154.692 426.621 154.546 426.476C154.4 426.33 154.327 426.157 154.327 425.956C154.327 425.751 154.4 425.578 154.546 425.437C154.692 425.291 154.865 425.218 155.065 425.218C155.271 425.218 155.446 425.291 155.592 425.437C155.738 425.578 155.811 425.751 155.811 425.956C155.811 426.157 155.738 426.33 155.592 426.476C155.446 426.621 155.271 426.694 155.065 426.694ZM157.267 435V427.891H158.388V429.025H158.415C158.588 428.638 158.85 428.333 159.201 428.109C159.552 427.882 159.962 427.768 160.432 427.768C160.915 427.768 161.329 427.886 161.676 428.123C162.022 428.355 162.273 428.688 162.428 429.121H162.455C162.651 428.697 162.945 428.367 163.337 428.13C163.733 427.888 164.182 427.768 164.684 427.768C165.385 427.768 165.946 427.979 166.365 428.403C166.789 428.823 167.001 429.385 167.001 430.092V435H165.812V430.365C165.812 429.878 165.682 429.499 165.422 429.23C165.167 428.957 164.804 428.82 164.335 428.82C163.866 428.82 163.48 428.978 163.18 429.292C162.879 429.602 162.729 429.998 162.729 430.481V435H161.539V430.235C161.539 429.807 161.407 429.465 161.143 429.21C160.878 428.95 160.525 428.82 160.083 428.82C159.614 428.82 159.224 428.984 158.914 429.312C158.609 429.641 158.456 430.051 158.456 430.543V435H157.267ZM171.369 428.8C170.818 428.8 170.36 428.991 169.995 429.374C169.635 429.752 169.437 430.24 169.4 430.837H173.263C173.249 430.235 173.069 429.745 172.723 429.367C172.376 428.989 171.925 428.8 171.369 428.8ZM173.235 432.963H174.404C174.299 433.592 173.971 434.109 173.42 434.515C172.873 434.92 172.215 435.123 171.444 435.123C170.428 435.123 169.628 434.795 169.045 434.139C168.462 433.482 168.17 432.594 168.17 431.473C168.17 430.361 168.462 429.465 169.045 428.786C169.633 428.107 170.414 427.768 171.39 427.768C172.347 427.768 173.103 428.089 173.659 428.731C174.215 429.374 174.493 430.235 174.493 431.315V431.767H169.394V431.835C169.394 432.519 169.58 433.065 169.954 433.476C170.328 433.886 170.834 434.091 171.472 434.091C171.918 434.091 172.299 433.988 172.613 433.783C172.928 433.578 173.135 433.305 173.235 432.963Z" fill="#464255"/>
<path d="M115.485 299.286H116.723C116.782 299.819 117.042 300.248 117.502 300.571C117.967 300.895 118.552 301.057 119.259 301.057C119.924 301.057 120.473 300.899 120.906 300.585C121.344 300.266 121.562 299.865 121.562 299.382C121.562 298.967 121.41 298.625 121.104 298.356C120.804 298.088 120.321 297.867 119.655 297.693L118.391 297.365C117.479 297.133 116.814 296.809 116.395 296.395C115.975 295.975 115.766 295.431 115.766 294.761C115.766 293.94 116.089 293.271 116.736 292.751C117.388 292.231 118.227 291.972 119.252 291.972C120.232 291.972 121.043 292.236 121.686 292.765C122.328 293.289 122.663 293.963 122.69 294.788H121.46C121.405 294.259 121.177 293.842 120.776 293.537C120.375 293.232 119.854 293.079 119.211 293.079C118.573 293.079 118.051 293.229 117.646 293.53C117.244 293.831 117.044 294.223 117.044 294.706C117.044 295.08 117.19 295.387 117.481 295.629C117.778 295.866 118.261 296.071 118.931 296.244L119.963 296.518C120.984 296.773 121.717 297.112 122.164 297.536C122.611 297.96 122.834 298.525 122.834 299.231C122.834 300.134 122.501 300.849 121.836 301.378C121.175 301.902 120.277 302.164 119.143 302.164C118.094 302.164 117.238 301.902 116.572 301.378C115.907 300.854 115.545 300.157 115.485 299.286ZM124.468 293.175H125.657V294.891H127.038V295.868H125.657V300.093C125.657 300.416 125.728 300.656 125.869 300.811C126.01 300.961 126.234 301.036 126.539 301.036C126.73 301.036 126.895 301.025 127.031 301.002V302C126.876 302.036 126.626 302.055 126.279 302.055C125.628 302.055 125.163 301.909 124.885 301.617C124.607 301.326 124.468 300.838 124.468 300.154V295.868H123.408V294.891H124.468V293.175ZM130.518 301.111C131.078 301.111 131.548 300.938 131.926 300.592C132.309 300.241 132.5 299.81 132.5 299.3V298.719L130.6 298.835C130.121 298.867 129.75 298.983 129.485 299.184C129.226 299.384 129.096 299.653 129.096 299.99C129.096 300.327 129.226 300.599 129.485 300.804C129.745 301.009 130.089 301.111 130.518 301.111ZM130.251 302.123C129.545 302.123 128.973 301.927 128.535 301.535C128.102 301.143 127.886 300.628 127.886 299.99C127.886 299.38 128.109 298.892 128.556 298.527C129.007 298.163 129.643 297.958 130.463 297.912L132.5 297.796V297.201C132.5 296.768 132.363 296.429 132.09 296.183C131.816 295.937 131.434 295.813 130.941 295.813C130.49 295.813 130.123 295.914 129.841 296.114C129.558 296.31 129.378 296.586 129.301 296.941H128.152C128.193 296.308 128.467 295.788 128.973 295.383C129.483 294.973 130.148 294.768 130.969 294.768C131.803 294.768 132.464 294.977 132.951 295.396C133.443 295.816 133.689 296.379 133.689 297.085V302H132.562V300.776H132.534C132.32 301.182 132.006 301.508 131.591 301.754C131.176 302 130.729 302.123 130.251 302.123ZM135.2 302V294.891H136.321V296.053H136.349C136.467 295.656 136.679 295.344 136.984 295.116C137.294 294.884 137.657 294.768 138.071 294.768C138.167 294.768 138.326 294.784 138.55 294.815V295.971C138.422 295.925 138.21 295.902 137.914 295.902C137.454 295.902 137.085 296.055 136.807 296.36C136.529 296.666 136.39 297.069 136.39 297.57V302H135.2ZM139.903 293.175H141.093V294.891H142.474V295.868H141.093V300.093C141.093 300.416 141.163 300.656 141.305 300.811C141.446 300.961 141.669 301.036 141.975 301.036C142.166 301.036 142.33 301.025 142.467 301.002V302C142.312 302.036 142.061 302.055 141.715 302.055C141.063 302.055 140.598 301.909 140.32 301.617C140.042 301.326 139.903 300.838 139.903 300.154V295.868H138.844V294.891H139.903V293.175ZM146.801 292.136H150.116C151.579 292.136 152.721 292.571 153.541 293.441C154.361 294.307 154.771 295.515 154.771 297.064C154.771 298.618 154.361 299.831 153.541 300.701C152.725 301.567 151.584 302 150.116 302H146.801V292.136ZM148.031 293.243V300.893H150.034C151.151 300.893 152.01 300.564 152.611 299.908C153.213 299.247 153.514 298.304 153.514 297.078C153.514 295.843 153.213 294.895 152.611 294.234C152.014 293.574 151.155 293.243 150.034 293.243H148.031ZM158.463 301.111C159.023 301.111 159.493 300.938 159.871 300.592C160.254 300.241 160.445 299.81 160.445 299.3V298.719L158.545 298.835C158.066 298.867 157.695 298.983 157.431 299.184C157.171 299.384 157.041 299.653 157.041 299.99C157.041 300.327 157.171 300.599 157.431 300.804C157.69 301.009 158.035 301.111 158.463 301.111ZM158.196 302.123C157.49 302.123 156.918 301.927 156.48 301.535C156.048 301.143 155.831 300.628 155.831 299.99C155.831 299.38 156.054 298.892 156.501 298.527C156.952 298.163 157.588 297.958 158.408 297.912L160.445 297.796V297.201C160.445 296.768 160.309 296.429 160.035 296.183C159.762 295.937 159.379 295.813 158.887 295.813C158.436 295.813 158.069 295.914 157.786 296.114C157.504 296.31 157.324 296.586 157.246 296.941H156.098C156.139 296.308 156.412 295.788 156.918 295.383C157.428 294.973 158.094 294.768 158.914 294.768C159.748 294.768 160.409 294.977 160.896 295.396C161.389 295.816 161.635 296.379 161.635 297.085V302H160.507V300.776H160.479C160.265 301.182 159.951 301.508 159.536 301.754C159.121 302 158.675 302.123 158.196 302.123ZM163.528 293.175H164.718V294.891H166.099V295.868H164.718V300.093C164.718 300.416 164.788 300.656 164.93 300.811C165.071 300.961 165.294 301.036 165.6 301.036C165.791 301.036 165.955 301.025 166.092 301.002V302C165.937 302.036 165.686 302.055 165.34 302.055C164.688 302.055 164.223 301.909 163.945 301.617C163.667 301.326 163.528 300.838 163.528 300.154V295.868H162.469V294.891H163.528V293.175ZM170.016 295.8C169.464 295.8 169.006 295.991 168.642 296.374C168.282 296.752 168.083 297.24 168.047 297.837H171.909C171.896 297.235 171.715 296.745 171.369 296.367C171.023 295.989 170.572 295.8 170.016 295.8ZM171.882 299.963H173.051C172.946 300.592 172.618 301.109 172.066 301.515C171.52 301.92 170.861 302.123 170.091 302.123C169.075 302.123 168.275 301.795 167.691 301.139C167.108 300.482 166.816 299.594 166.816 298.473C166.816 297.361 167.108 296.465 167.691 295.786C168.279 295.107 169.061 294.768 170.036 294.768C170.993 294.768 171.75 295.089 172.306 295.731C172.862 296.374 173.14 297.235 173.14 298.315V298.767H168.04V298.835C168.04 299.519 168.227 300.065 168.601 300.476C168.974 300.886 169.48 301.091 170.118 301.091C170.565 301.091 170.945 300.988 171.26 300.783C171.574 300.578 171.782 300.305 171.882 299.963Z" fill="#464255"/>
<path d="M125.678 566H124.529V558.398H124.481L121.337 565.932H120.298L117.153 558.398H117.105V566H115.957V556.136H117.386L120.79 564.366H120.845L124.249 556.136H125.678V566ZM130.258 559.8C129.706 559.8 129.248 559.991 128.884 560.374C128.524 560.752 128.326 561.24 128.289 561.837H132.151C132.138 561.235 131.958 560.745 131.611 560.367C131.265 559.989 130.814 559.8 130.258 559.8ZM132.124 563.963H133.293C133.188 564.592 132.86 565.109 132.309 565.515C131.762 565.92 131.103 566.123 130.333 566.123C129.317 566.123 128.517 565.795 127.934 565.139C127.35 564.482 127.059 563.594 127.059 562.473C127.059 561.361 127.35 560.465 127.934 559.786C128.521 559.107 129.303 558.768 130.278 558.768C131.235 558.768 131.992 559.089 132.548 559.731C133.104 560.374 133.382 561.235 133.382 562.315V562.767H128.282V562.835C128.282 563.519 128.469 564.065 128.843 564.476C129.216 564.886 129.722 565.091 130.36 565.091C130.807 565.091 131.188 564.988 131.502 564.783C131.816 564.578 132.024 564.305 132.124 563.963ZM134.585 566V558.891H135.706V560.025H135.733C135.907 559.638 136.169 559.333 136.52 559.109C136.87 558.882 137.281 558.768 137.75 558.768C138.233 558.768 138.648 558.886 138.994 559.123C139.34 559.355 139.591 559.688 139.746 560.121H139.773C139.969 559.697 140.263 559.367 140.655 559.13C141.052 558.888 141.501 558.768 142.002 558.768C142.704 558.768 143.264 558.979 143.684 559.403C144.107 559.823 144.319 560.385 144.319 561.092V566H143.13V561.365C143.13 560.878 143 560.499 142.74 560.23C142.485 559.957 142.123 559.82 141.653 559.82C141.184 559.82 140.799 559.978 140.498 560.292C140.197 560.602 140.047 560.998 140.047 561.481V566H138.857V561.235C138.857 560.807 138.725 560.465 138.461 560.21C138.197 559.95 137.843 559.82 137.401 559.82C136.932 559.82 136.542 559.984 136.232 560.312C135.927 560.641 135.774 561.051 135.774 561.543V566H134.585ZM148.783 566.123C147.79 566.123 146.992 565.793 146.391 565.132C145.789 564.466 145.488 563.571 145.488 562.445C145.488 561.32 145.789 560.426 146.391 559.766C146.992 559.1 147.79 558.768 148.783 558.768C149.772 558.768 150.567 559.1 151.169 559.766C151.771 560.426 152.071 561.32 152.071 562.445C152.071 563.566 151.771 564.46 151.169 565.125C150.567 565.79 149.772 566.123 148.783 566.123ZM147.259 564.38C147.637 564.845 148.145 565.077 148.783 565.077C149.421 565.077 149.927 564.847 150.301 564.387C150.674 563.922 150.861 563.275 150.861 562.445C150.861 561.616 150.674 560.971 150.301 560.511C149.927 560.046 149.421 559.813 148.783 559.813C148.145 559.813 147.637 560.046 147.259 560.511C146.885 560.976 146.698 561.62 146.698 562.445C146.698 563.27 146.885 563.915 147.259 564.38Z" fill="#464255"/>
<path d="M157.93 559.964L156.269 558.918L156.337 560.88H155.441L155.517 558.918L153.835 559.971L153.411 559.15L155.134 558.275L153.418 557.394L153.842 556.601L155.517 557.633L155.448 555.685H156.337L156.269 557.64L157.937 556.601L158.374 557.394L156.638 558.282L158.374 559.157L157.93 559.964Z" fill="#FF5B5B"/>
<path d="M527.068 300.893V302H520.957V292.136H527.068V293.243H522.188V296.408H526.815V297.502H522.188V300.893H527.068ZM528.511 302V294.891H529.632V296.025H529.659C529.864 295.629 530.158 295.321 530.541 295.103C530.924 294.879 531.382 294.768 531.915 294.768C532.69 294.768 533.294 295.002 533.727 295.472C534.16 295.937 534.376 296.575 534.376 297.386V302H533.187V297.598C533.187 297.019 533.05 296.579 532.776 296.278C532.503 295.973 532.095 295.82 531.553 295.82C530.992 295.82 530.543 296.003 530.206 296.367C529.869 296.732 529.7 297.215 529.7 297.816V302H528.511ZM538.587 302.123C537.675 302.123 536.939 301.788 536.379 301.118C535.823 300.448 535.545 299.557 535.545 298.445C535.545 297.338 535.823 296.449 536.379 295.779C536.935 295.105 537.662 294.768 538.56 294.768C539.061 294.768 539.51 294.882 539.906 295.109C540.303 295.337 540.608 295.649 540.822 296.046H540.85V292.136H542.039V302H540.904V300.797H540.884C540.651 301.212 540.337 301.537 539.94 301.774C539.544 302.007 539.093 302.123 538.587 302.123ZM538.812 295.813C538.184 295.813 537.685 296.053 537.315 296.531C536.946 297.005 536.762 297.643 536.762 298.445C536.762 299.252 536.946 299.892 537.315 300.366C537.685 300.84 538.184 301.077 538.812 301.077C539.428 301.077 539.922 300.838 540.296 300.359C540.67 299.876 540.856 299.238 540.856 298.445C540.856 297.652 540.667 297.017 540.289 296.538C539.915 296.055 539.423 295.813 538.812 295.813ZM546.701 292.136H550.017C551.479 292.136 552.621 292.571 553.441 293.441C554.262 294.307 554.672 295.515 554.672 297.064C554.672 298.618 554.262 299.831 553.441 300.701C552.626 301.567 551.484 302 550.017 302H546.701V292.136ZM547.932 293.243V300.893H549.935C551.051 300.893 551.91 300.564 552.512 299.908C553.113 299.247 553.414 298.304 553.414 297.078C553.414 295.843 553.113 294.895 552.512 294.234C551.915 293.574 551.056 293.243 549.935 293.243H547.932ZM558.363 301.111C558.924 301.111 559.393 300.938 559.771 300.592C560.154 300.241 560.346 299.81 560.346 299.3V298.719L558.445 298.835C557.967 298.867 557.595 298.983 557.331 299.184C557.071 299.384 556.941 299.653 556.941 299.99C556.941 300.327 557.071 300.599 557.331 300.804C557.591 301.009 557.935 301.111 558.363 301.111ZM558.097 302.123C557.39 302.123 556.818 301.927 556.381 301.535C555.948 301.143 555.731 300.628 555.731 299.99C555.731 299.38 555.955 298.892 556.401 298.527C556.853 298.163 557.488 297.958 558.309 297.912L560.346 297.796V297.201C560.346 296.768 560.209 296.429 559.936 296.183C559.662 295.937 559.279 295.813 558.787 295.813C558.336 295.813 557.969 295.914 557.687 296.114C557.404 296.31 557.224 296.586 557.146 296.941H555.998C556.039 296.308 556.312 295.788 556.818 295.383C557.329 294.973 557.994 294.768 558.814 294.768C559.648 294.768 560.309 294.977 560.797 295.396C561.289 295.816 561.535 296.379 561.535 297.085V302H560.407V300.776H560.38C560.166 301.182 559.851 301.508 559.437 301.754C559.022 302 558.575 302.123 558.097 302.123ZM563.429 293.175H564.618V294.891H565.999V295.868H564.618V300.093C564.618 300.416 564.689 300.656 564.83 300.811C564.971 300.961 565.195 301.036 565.5 301.036C565.691 301.036 565.855 301.025 565.992 301.002V302C565.837 302.036 565.587 302.055 565.24 302.055C564.589 302.055 564.124 301.909 563.846 301.617C563.568 301.326 563.429 300.838 563.429 300.154V295.868H562.369V294.891H563.429V293.175ZM569.916 295.8C569.365 295.8 568.907 295.991 568.542 296.374C568.182 296.752 567.984 297.24 567.947 297.837H571.81C571.796 297.235 571.616 296.745 571.27 296.367C570.923 295.989 570.472 295.8 569.916 295.8ZM571.782 299.963H572.951C572.846 300.592 572.518 301.109 571.967 301.515C571.42 301.92 570.761 302.123 569.991 302.123C568.975 302.123 568.175 301.795 567.592 301.139C567.008 300.482 566.717 299.594 566.717 298.473C566.717 297.361 567.008 296.465 567.592 295.786C568.18 295.107 568.961 294.768 569.937 294.768C570.894 294.768 571.65 295.089 572.206 295.731C572.762 296.374 573.04 297.235 573.04 298.315V298.767H567.94V298.835C567.94 299.519 568.127 300.065 568.501 300.476C568.875 300.886 569.381 301.091 570.019 301.091C570.465 301.091 570.846 300.988 571.16 300.783C571.475 300.578 571.682 300.305 571.782 299.963Z" fill="#464255"/>
<path d="M385.485 186.286H386.723C386.782 186.819 387.042 187.248 387.502 187.571C387.967 187.895 388.552 188.057 389.259 188.057C389.924 188.057 390.473 187.899 390.906 187.585C391.344 187.266 391.562 186.865 391.562 186.382C391.562 185.967 391.41 185.625 391.104 185.356C390.804 185.088 390.321 184.867 389.655 184.693L388.391 184.365C387.479 184.133 386.814 183.809 386.395 183.395C385.975 182.975 385.766 182.431 385.766 181.761C385.766 180.94 386.089 180.271 386.736 179.751C387.388 179.231 388.227 178.972 389.252 178.972C390.232 178.972 391.043 179.236 391.686 179.765C392.328 180.289 392.663 180.963 392.69 181.788H391.46C391.405 181.259 391.177 180.842 390.776 180.537C390.375 180.232 389.854 180.079 389.211 180.079C388.573 180.079 388.051 180.229 387.646 180.53C387.244 180.831 387.044 181.223 387.044 181.706C387.044 182.08 387.19 182.387 387.481 182.629C387.778 182.866 388.261 183.071 388.931 183.244L389.963 183.518C390.984 183.773 391.717 184.112 392.164 184.536C392.611 184.96 392.834 185.525 392.834 186.231C392.834 187.134 392.501 187.849 391.836 188.378C391.175 188.902 390.277 189.164 389.143 189.164C388.094 189.164 387.238 188.902 386.572 188.378C385.907 187.854 385.545 187.157 385.485 186.286ZM396.936 182.8C396.384 182.8 395.926 182.991 395.562 183.374C395.201 183.752 395.003 184.24 394.967 184.837H398.829C398.815 184.235 398.635 183.745 398.289 183.367C397.943 182.989 397.492 182.8 396.936 182.8ZM398.802 186.963H399.971C399.866 187.592 399.538 188.109 398.986 188.515C398.439 188.92 397.781 189.123 397.011 189.123C395.994 189.123 395.195 188.795 394.611 188.139C394.028 187.482 393.736 186.594 393.736 185.473C393.736 184.361 394.028 183.465 394.611 182.786C395.199 182.107 395.981 181.768 396.956 181.768C397.913 181.768 398.67 182.089 399.226 182.731C399.782 183.374 400.06 184.235 400.06 185.315V185.767H394.96V185.835C394.96 186.519 395.147 187.065 395.521 187.476C395.894 187.886 396.4 188.091 397.038 188.091C397.485 188.091 397.865 187.988 398.18 187.783C398.494 187.578 398.701 187.305 398.802 186.963ZM401.324 189V179.136H402.514V189H401.324ZM406.971 182.8C406.419 182.8 405.961 182.991 405.597 183.374C405.237 183.752 405.038 184.24 405.002 184.837H408.864C408.851 184.235 408.671 183.745 408.324 183.367C407.978 182.989 407.527 182.8 406.971 182.8ZM408.837 186.963H410.006C409.901 187.592 409.573 188.109 409.021 188.515C408.475 188.92 407.816 189.123 407.046 189.123C406.03 189.123 405.23 188.795 404.646 188.139C404.063 187.482 403.771 186.594 403.771 185.473C403.771 184.361 404.063 183.465 404.646 182.786C405.234 182.107 406.016 181.768 406.991 181.768C407.948 181.768 408.705 182.089 409.261 182.731C409.817 183.374 410.095 184.235 410.095 185.315V185.767H404.995V185.835C404.995 186.519 405.182 187.065 405.556 187.476C405.929 187.886 406.435 188.091 407.073 188.091C407.52 188.091 407.9 187.988 408.215 187.783C408.529 187.578 408.737 187.305 408.837 186.963ZM417.204 184.222H416.042C415.951 183.812 415.748 183.474 415.434 183.21C415.124 182.946 414.72 182.813 414.224 182.813C413.604 182.813 413.105 183.053 412.727 183.531C412.348 184.005 412.159 184.643 412.159 185.445C412.159 186.261 412.348 186.904 412.727 187.373C413.109 187.842 413.613 188.077 414.237 188.077C414.716 188.077 415.11 187.959 415.42 187.722C415.734 187.48 415.944 187.143 416.049 186.71H417.218C417.127 187.421 416.805 188.002 416.254 188.453C415.707 188.9 415.033 189.123 414.23 189.123C413.237 189.123 412.442 188.795 411.845 188.139C411.248 187.478 410.949 186.58 410.949 185.445C410.949 184.329 411.248 183.438 411.845 182.772C412.442 182.103 413.232 181.768 414.217 181.768C415.064 181.768 415.753 182.007 416.281 182.485C416.814 182.964 417.122 183.543 417.204 184.222ZM418.694 180.175H419.884V181.891H421.265V182.868H419.884V187.093C419.884 187.416 419.954 187.656 420.096 187.811C420.237 187.961 420.46 188.036 420.766 188.036C420.957 188.036 421.121 188.025 421.258 188.002V189C421.103 189.036 420.852 189.055 420.506 189.055C419.854 189.055 419.389 188.909 419.111 188.617C418.833 188.326 418.694 187.838 418.694 187.154V182.868H417.635V181.891H418.694V180.175ZM429.317 189H428.087V180.243H424.977V179.136H432.428V180.243H429.317V189ZM434.041 188.111C434.602 188.111 435.071 187.938 435.449 187.592C435.832 187.241 436.023 186.81 436.023 186.3V185.719L434.123 185.835C433.645 185.867 433.273 185.983 433.009 186.184C432.749 186.384 432.619 186.653 432.619 186.99C432.619 187.327 432.749 187.599 433.009 187.804C433.269 188.009 433.613 188.111 434.041 188.111ZM433.774 189.123C433.068 189.123 432.496 188.927 432.059 188.535C431.626 188.143 431.409 187.628 431.409 186.99C431.409 186.38 431.632 185.892 432.079 185.527C432.53 185.163 433.166 184.958 433.986 184.912L436.023 184.796V184.201C436.023 183.768 435.887 183.429 435.613 183.183C435.34 182.937 434.957 182.813 434.465 182.813C434.014 182.813 433.647 182.914 433.364 183.114C433.082 183.31 432.902 183.586 432.824 183.941H431.676C431.717 183.308 431.99 182.788 432.496 182.383C433.007 181.973 433.672 181.768 434.492 181.768C435.326 181.768 435.987 181.977 436.475 182.396C436.967 182.816 437.213 183.379 437.213 184.085V189H436.085V187.776H436.058C435.843 188.182 435.529 188.508 435.114 188.754C434.7 189 434.253 189.123 433.774 189.123ZM438.601 183.853C438.601 183.242 438.847 182.743 439.339 182.355C439.836 181.964 440.474 181.768 441.253 181.768C441.987 181.768 442.597 181.964 443.085 182.355C443.573 182.747 443.83 183.244 443.857 183.846H442.723C442.682 183.499 442.527 183.228 442.258 183.032C441.993 182.836 441.645 182.738 441.212 182.738C440.779 182.738 440.43 182.836 440.166 183.032C439.902 183.224 439.77 183.477 439.77 183.791C439.77 184.274 440.164 184.616 440.952 184.816L442.053 185.083C442.768 185.265 443.272 185.502 443.563 185.794C443.86 186.081 444.008 186.487 444.008 187.011C444.008 187.631 443.743 188.139 443.215 188.535C442.686 188.927 442.007 189.123 441.178 189.123C440.403 189.123 439.763 188.932 439.257 188.549C438.756 188.161 438.473 187.651 438.409 187.018H439.599C439.731 187.774 440.282 188.152 441.253 188.152C441.731 188.152 442.11 188.059 442.388 187.872C442.67 187.681 442.812 187.423 442.812 187.1C442.812 186.844 442.727 186.642 442.559 186.491C442.395 186.341 442.114 186.213 441.718 186.108L440.467 185.787C439.223 185.468 438.601 184.823 438.601 183.853ZM446.496 185.049L449.641 181.891H451.083L448 184.96L451.179 189H449.798L447.159 185.691L446.496 186.32V189H445.307V179.136H446.496V185.049Z" fill="#464255"/>
<path d="M456.695 182.964L455.034 181.918L455.103 183.88H454.207L454.282 181.918L452.601 182.971L452.177 182.15L453.899 181.275L452.184 180.394L452.607 179.601L454.282 180.633L454.214 178.685H455.103L455.034 180.64L456.702 179.601L457.14 180.394L455.403 181.282L457.14 182.157L456.695 182.964Z" fill="#FF5B5B"/>
<path d="M392.068 432.893V434H385.957V424.136H392.068V425.243H387.188V428.408H391.815V429.502H387.188V432.893H392.068ZM393.511 434V426.891H394.632V428.025H394.659C394.864 427.629 395.158 427.321 395.541 427.103C395.924 426.879 396.382 426.768 396.915 426.768C397.69 426.768 398.294 427.002 398.727 427.472C399.16 427.937 399.376 428.575 399.376 429.386V434H398.187V429.598C398.187 429.019 398.05 428.579 397.776 428.278C397.503 427.973 397.095 427.82 396.553 427.82C395.992 427.82 395.543 428.003 395.206 428.367C394.869 428.732 394.7 429.215 394.7 429.816V434H393.511ZM403.587 434.123C402.675 434.123 401.939 433.788 401.379 433.118C400.823 432.448 400.545 431.557 400.545 430.445C400.545 429.338 400.823 428.449 401.379 427.779C401.935 427.105 402.662 426.768 403.56 426.768C404.061 426.768 404.51 426.882 404.906 427.109C405.303 427.337 405.608 427.649 405.822 428.046H405.85V424.136H407.039V434H405.904V432.797H405.884C405.651 433.212 405.337 433.537 404.94 433.774C404.544 434.007 404.093 434.123 403.587 434.123ZM403.812 427.813C403.184 427.813 402.685 428.053 402.315 428.531C401.946 429.005 401.762 429.643 401.762 430.445C401.762 431.252 401.946 431.892 402.315 432.366C402.685 432.84 403.184 433.077 403.812 433.077C404.428 433.077 404.922 432.838 405.296 432.359C405.67 431.876 405.856 431.238 405.856 430.445C405.856 429.652 405.667 429.017 405.289 428.538C404.915 428.055 404.423 427.813 403.812 427.813ZM415.427 434H414.196V425.243H411.086V424.136H418.537V425.243H415.427V434ZM419.371 434V426.891H420.561V434H419.371ZM419.966 425.694C419.765 425.694 419.592 425.621 419.446 425.476C419.3 425.33 419.228 425.157 419.228 424.956C419.228 424.751 419.3 424.578 419.446 424.437C419.592 424.291 419.765 424.218 419.966 424.218C420.171 424.218 420.346 424.291 420.492 424.437C420.638 424.578 420.711 424.751 420.711 424.956C420.711 425.157 420.638 425.33 420.492 425.476C420.346 425.621 420.171 425.694 419.966 425.694ZM422.167 434V426.891H423.288V428.025H423.315C423.489 427.638 423.751 427.333 424.102 427.109C424.452 426.882 424.863 426.768 425.332 426.768C425.815 426.768 426.23 426.886 426.576 427.123C426.923 427.355 427.173 427.688 427.328 428.121H427.355C427.551 427.697 427.845 427.367 428.237 427.13C428.634 426.888 429.083 426.768 429.584 426.768C430.286 426.768 430.846 426.979 431.266 427.403C431.689 427.823 431.901 428.385 431.901 429.092V434H430.712V429.365C430.712 428.878 430.582 428.499 430.322 428.23C430.067 427.957 429.705 427.82 429.235 427.82C428.766 427.82 428.381 427.978 428.08 428.292C427.779 428.602 427.629 428.998 427.629 429.481V434H426.439V429.235C426.439 428.807 426.307 428.465 426.043 428.21C425.779 427.95 425.425 427.82 424.983 427.82C424.514 427.82 424.124 427.984 423.814 428.312C423.509 428.641 423.356 429.051 423.356 429.543V434H422.167ZM436.27 427.8C435.718 427.8 435.26 427.991 434.896 428.374C434.535 428.752 434.337 429.24 434.301 429.837H438.163C438.149 429.235 437.969 428.745 437.623 428.367C437.277 427.989 436.826 427.8 436.27 427.8ZM438.136 431.963H439.305C439.2 432.592 438.872 433.109 438.32 433.515C437.773 433.92 437.115 434.123 436.345 434.123C435.328 434.123 434.529 433.795 433.945 433.139C433.362 432.482 433.07 431.594 433.07 430.473C433.07 429.361 433.362 428.465 433.945 427.786C434.533 427.107 435.315 426.768 436.29 426.768C437.247 426.768 438.004 427.089 438.56 427.731C439.116 428.374 439.394 429.235 439.394 430.315V430.767H434.294V430.835C434.294 431.519 434.481 432.065 434.854 432.476C435.228 432.886 435.734 433.091 436.372 433.091C436.819 433.091 437.199 432.988 437.514 432.783C437.828 432.578 438.035 432.305 438.136 431.963Z" fill="#464255"/>
<path d="M662.068 187.893V189H655.957V179.136H662.068V180.243H657.188V183.408H661.815V184.502H657.188V187.893H662.068ZM663.511 189V181.891H664.632V183.025H664.659C664.832 182.638 665.094 182.333 665.445 182.109C665.796 181.882 666.206 181.768 666.676 181.768C667.159 181.768 667.574 181.886 667.92 182.123C668.266 182.355 668.517 182.688 668.672 183.121H668.699C668.895 182.697 669.189 182.367 669.581 182.13C669.978 181.888 670.426 181.768 670.928 181.768C671.63 181.768 672.19 181.979 672.609 182.403C673.033 182.823 673.245 183.385 673.245 184.092V189H672.056V184.365C672.056 183.878 671.926 183.499 671.666 183.23C671.411 182.957 671.049 182.82 670.579 182.82C670.11 182.82 669.725 182.978 669.424 183.292C669.123 183.602 668.973 183.998 668.973 184.481V189H667.783V184.235C667.783 183.807 667.651 183.465 667.387 183.21C667.122 182.95 666.769 182.82 666.327 182.82C665.858 182.82 665.468 182.984 665.158 183.312C664.853 183.641 664.7 184.051 664.7 184.543V189H663.511ZM678.215 181.768C679.126 181.768 679.86 182.103 680.416 182.772C680.977 183.442 681.257 184.333 681.257 185.445C681.257 186.553 680.979 187.444 680.423 188.118C679.867 188.788 679.14 189.123 678.242 189.123C677.741 189.123 677.292 189.009 676.896 188.781C676.499 188.553 676.194 188.241 675.979 187.845H675.952V191.372H674.763V181.891H675.891V183.094H675.918C676.141 182.684 676.453 182.36 676.854 182.123C677.256 181.886 677.709 181.768 678.215 181.768ZM677.982 188.077C678.616 188.077 679.117 187.84 679.486 187.366C679.855 186.892 680.04 186.252 680.04 185.445C680.04 184.639 679.855 183.998 679.486 183.524C679.117 183.05 678.616 182.813 677.982 182.813C677.372 182.813 676.88 183.055 676.506 183.538C676.132 184.021 675.945 184.657 675.945 185.445C675.945 186.238 676.132 186.876 676.506 187.359C676.88 187.838 677.372 188.077 677.982 188.077ZM682.521 189V179.136H683.711V189H682.521ZM688.264 189.123C687.27 189.123 686.473 188.793 685.871 188.132C685.27 187.466 684.969 186.571 684.969 185.445C684.969 184.32 685.27 183.426 685.871 182.766C686.473 182.1 687.27 181.768 688.264 181.768C689.253 181.768 690.048 182.1 690.649 182.766C691.251 183.426 691.552 184.32 691.552 185.445C691.552 186.566 691.251 187.46 690.649 188.125C690.048 188.79 689.253 189.123 688.264 189.123ZM686.739 187.38C687.118 187.845 687.626 188.077 688.264 188.077C688.902 188.077 689.408 187.847 689.781 187.387C690.155 186.922 690.342 186.275 690.342 185.445C690.342 184.616 690.155 183.971 689.781 183.511C689.408 183.046 688.902 182.813 688.264 182.813C687.626 182.813 687.118 183.046 686.739 183.511C686.366 183.976 686.179 184.62 686.179 185.445C686.179 186.27 686.366 186.915 686.739 187.38ZM693.138 191.659C692.928 191.659 692.757 191.646 692.625 191.618V190.62C692.734 190.643 692.889 190.654 693.09 190.654C693.423 190.654 693.689 190.565 693.89 190.388C694.09 190.215 694.259 189.921 694.396 189.506L694.56 189.007L691.935 181.891H693.206L695.175 187.811H695.195L697.164 181.891H698.415L695.619 189.499C695.314 190.328 694.983 190.896 694.628 191.201C694.277 191.507 693.78 191.659 693.138 191.659ZM702.004 182.8C701.452 182.8 700.994 182.991 700.63 183.374C700.27 183.752 700.072 184.24 700.035 184.837H703.897C703.884 184.235 703.704 183.745 703.357 183.367C703.011 182.989 702.56 182.8 702.004 182.8ZM703.87 186.963H705.039C704.934 187.592 704.606 188.109 704.055 188.515C703.508 188.92 702.849 189.123 702.079 189.123C701.063 189.123 700.263 188.795 699.68 188.139C699.096 187.482 698.805 186.594 698.805 185.473C698.805 184.361 699.096 183.465 699.68 182.786C700.268 182.107 701.049 181.768 702.024 181.768C702.981 181.768 703.738 182.089 704.294 182.731C704.85 183.374 705.128 184.235 705.128 185.315V185.767H700.028V185.835C700.028 186.519 700.215 187.065 700.589 187.476C700.963 187.886 701.468 188.091 702.106 188.091C702.553 188.091 702.934 187.988 703.248 187.783C703.562 187.578 703.77 187.305 703.87 186.963ZM709.182 182.8C708.63 182.8 708.172 182.991 707.808 183.374C707.448 183.752 707.249 184.24 707.213 184.837H711.075C711.062 184.235 710.882 183.745 710.535 183.367C710.189 182.989 709.738 182.8 709.182 182.8ZM711.048 186.963H712.217C712.112 187.592 711.784 188.109 711.232 188.515C710.686 188.92 710.027 189.123 709.257 189.123C708.241 189.123 707.441 188.795 706.857 188.139C706.274 187.482 705.982 186.594 705.982 185.473C705.982 184.361 706.274 183.465 706.857 182.786C707.445 182.107 708.227 181.768 709.202 181.768C710.159 181.768 710.916 182.089 711.472 182.731C712.028 183.374 712.306 184.235 712.306 185.315V185.767H707.206V185.835C707.206 186.519 707.393 187.065 707.767 187.476C708.14 187.886 708.646 188.091 709.284 188.091C709.731 188.091 710.111 187.988 710.426 187.783C710.74 187.578 710.948 187.305 711.048 186.963ZM717.781 189H716.564V179.136H717.761L723.161 186.881H723.223V179.136H724.439V189H723.243L717.843 181.282H717.781V189ZM728.309 188.111C728.869 188.111 729.339 187.938 729.717 187.592C730.1 187.241 730.291 186.81 730.291 186.3V185.719L728.391 185.835C727.912 185.867 727.541 185.983 727.276 186.184C727.017 186.384 726.887 186.653 726.887 186.99C726.887 187.327 727.017 187.599 727.276 187.804C727.536 188.009 727.88 188.111 728.309 188.111ZM728.042 189.123C727.336 189.123 726.764 188.927 726.326 188.535C725.893 188.143 725.677 187.628 725.677 186.99C725.677 186.38 725.9 185.892 726.347 185.527C726.798 185.163 727.434 184.958 728.254 184.912L730.291 184.796V184.201C730.291 183.768 730.154 183.429 729.881 183.183C729.607 182.937 729.225 182.813 728.732 182.813C728.281 182.813 727.914 182.914 727.632 183.114C727.349 183.31 727.169 183.586 727.092 183.941H725.943C725.984 183.308 726.258 182.788 726.764 182.383C727.274 181.973 727.939 181.768 728.76 181.768C729.594 181.768 730.255 181.977 730.742 182.396C731.234 182.816 731.48 183.379 731.48 184.085V189H730.353V187.776H730.325C730.111 188.182 729.797 188.508 729.382 188.754C728.967 189 728.521 189.123 728.042 189.123ZM732.991 189V181.891H734.112V183.025H734.14C734.313 182.638 734.575 182.333 734.926 182.109C735.277 181.882 735.687 181.768 736.156 181.768C736.639 181.768 737.054 181.886 737.4 182.123C737.747 182.355 737.997 182.688 738.152 183.121H738.18C738.376 182.697 738.67 182.367 739.062 182.13C739.458 181.888 739.907 181.768 740.408 181.768C741.11 181.768 741.671 181.979 742.09 182.403C742.514 182.823 742.726 183.385 742.726 184.092V189H741.536V184.365C741.536 183.878 741.406 183.499 741.146 183.23C740.891 182.957 740.529 182.82 740.06 182.82C739.59 182.82 739.205 182.978 738.904 183.292C738.604 183.602 738.453 183.998 738.453 184.481V189H737.264V184.235C737.264 183.807 737.132 183.465 736.867 183.21C736.603 182.95 736.25 182.82 735.808 182.82C735.338 182.82 734.949 182.984 734.639 183.312C734.333 183.641 734.181 184.051 734.181 184.543V189H732.991ZM747.094 182.8C746.542 182.8 746.084 182.991 745.72 183.374C745.36 183.752 745.161 184.24 745.125 184.837H748.987C748.974 184.235 748.794 183.745 748.447 183.367C748.101 182.989 747.65 182.8 747.094 182.8ZM748.96 186.963H750.129C750.024 187.592 749.696 188.109 749.145 188.515C748.598 188.92 747.939 189.123 747.169 189.123C746.153 189.123 745.353 188.795 744.77 188.139C744.186 187.482 743.895 186.594 743.895 185.473C743.895 184.361 744.186 183.465 744.77 182.786C745.357 182.107 746.139 181.768 747.114 181.768C748.071 181.768 748.828 182.089 749.384 182.731C749.94 183.374 750.218 184.235 750.218 185.315V185.767H745.118V185.835C745.118 186.519 745.305 187.065 745.679 187.476C746.052 187.886 746.558 188.091 747.196 188.091C747.643 188.091 748.023 187.988 748.338 187.783C748.652 187.578 748.86 187.305 748.96 186.963Z" fill="#464255"/>
<path d="M756.076 182.964L754.415 181.918L754.483 183.88H753.588L753.663 181.918L751.981 182.971L751.558 182.15L753.28 181.275L751.564 180.394L751.988 179.601L753.663 180.633L753.595 178.685H754.483L754.415 180.64L756.083 179.601L756.521 180.394L754.784 181.282L756.521 182.157L756.076 182.964Z" fill="#FF5B5B"/>
<path d="M659.683 434H658.452V425.243H655.342V424.136H662.793V425.243H659.683V434ZM665.008 434.123C664.014 434.123 663.217 433.793 662.615 433.132C662.014 432.466 661.713 431.571 661.713 430.445C661.713 429.32 662.014 428.426 662.615 427.766C663.217 427.1 664.014 426.768 665.008 426.768C665.997 426.768 666.792 427.1 667.394 427.766C667.995 428.426 668.296 429.32 668.296 430.445C668.296 431.566 667.995 432.46 667.394 433.125C666.792 433.79 665.997 434.123 665.008 434.123ZM663.483 432.38C663.862 432.845 664.37 433.077 665.008 433.077C665.646 433.077 666.152 432.847 666.525 432.387C666.899 431.922 667.086 431.275 667.086 430.445C667.086 429.616 666.899 428.971 666.525 428.511C666.152 428.046 665.646 427.813 665.008 427.813C664.37 427.813 663.862 428.046 663.483 428.511C663.11 428.976 662.923 429.62 662.923 430.445C662.923 431.27 663.11 431.915 663.483 432.38ZM669.882 425.175H671.071V426.891H672.452V427.868H671.071V432.093C671.071 432.416 671.142 432.656 671.283 432.811C671.424 432.961 671.648 433.036 671.953 433.036C672.145 433.036 672.309 433.025 672.445 433.002V434C672.29 434.036 672.04 434.055 671.693 434.055C671.042 434.055 670.577 433.909 670.299 433.617C670.021 433.326 669.882 432.838 669.882 432.154V427.868H668.822V426.891H669.882V425.175ZM675.932 433.111C676.492 433.111 676.962 432.938 677.34 432.592C677.723 432.241 677.914 431.81 677.914 431.3V430.719L676.014 430.835C675.535 430.867 675.164 430.983 674.899 431.184C674.64 431.384 674.51 431.653 674.51 431.99C674.51 432.327 674.64 432.599 674.899 432.804C675.159 433.009 675.503 433.111 675.932 433.111ZM675.665 434.123C674.959 434.123 674.387 433.927 673.949 433.535C673.516 433.143 673.3 432.628 673.3 431.99C673.3 431.38 673.523 430.892 673.97 430.527C674.421 430.163 675.057 429.958 675.877 429.912L677.914 429.796V429.201C677.914 428.768 677.777 428.429 677.504 428.183C677.23 427.937 676.848 427.813 676.355 427.813C675.904 427.813 675.537 427.914 675.255 428.114C674.972 428.31 674.792 428.586 674.715 428.941H673.566C673.607 428.308 673.881 427.788 674.387 427.383C674.897 426.973 675.562 426.768 676.383 426.768C677.217 426.768 677.878 426.977 678.365 427.396C678.857 427.816 679.104 428.379 679.104 429.085V434H677.976V432.776H677.948C677.734 433.182 677.42 433.508 677.005 433.754C676.59 434 676.144 434.123 675.665 434.123ZM680.676 434V424.136H681.865V434H680.676ZM694.402 434H693.172V429.509H687.758V434H686.527V424.136H687.758V428.401H693.172V424.136H694.402V434ZM699.078 434.123C698.085 434.123 697.287 433.793 696.686 433.132C696.084 432.466 695.783 431.571 695.783 430.445C695.783 429.32 696.084 428.426 696.686 427.766C697.287 427.1 698.085 426.768 699.078 426.768C700.067 426.768 700.862 427.1 701.464 427.766C702.065 428.426 702.366 429.32 702.366 430.445C702.366 431.566 702.065 432.46 701.464 433.125C700.862 433.79 700.067 434.123 699.078 434.123ZM697.554 432.38C697.932 432.845 698.44 433.077 699.078 433.077C699.716 433.077 700.222 432.847 700.596 432.387C700.969 431.922 701.156 431.275 701.156 430.445C701.156 429.616 700.969 428.971 700.596 428.511C700.222 428.046 699.716 427.813 699.078 427.813C698.44 427.813 697.932 428.046 697.554 428.511C697.18 428.976 696.993 429.62 696.993 430.445C696.993 431.27 697.18 431.915 697.554 432.38ZM709.407 426.891V434H708.279V432.845H708.252C707.81 433.697 707.058 434.123 705.996 434.123C705.226 434.123 704.622 433.891 704.185 433.426C703.752 432.956 703.535 432.316 703.535 431.505V426.891H704.725V431.293C704.725 432.478 705.271 433.07 706.365 433.07C706.939 433.07 707.391 432.89 707.719 432.53C708.051 432.166 708.218 431.678 708.218 431.067V426.891H709.407ZM710.952 434V426.891H712.073V428.053H712.101C712.219 427.656 712.431 427.344 712.736 427.116C713.046 426.884 713.409 426.768 713.823 426.768C713.919 426.768 714.078 426.784 714.302 426.815V427.971C714.174 427.925 713.962 427.902 713.666 427.902C713.206 427.902 712.837 428.055 712.559 428.36C712.281 428.666 712.142 429.069 712.142 429.57V434H710.952ZM715.149 428.853C715.149 428.242 715.396 427.743 715.888 427.355C716.384 426.964 717.022 426.768 717.802 426.768C718.535 426.768 719.146 426.964 719.634 427.355C720.121 427.747 720.379 428.244 720.406 428.846H719.271C719.23 428.499 719.076 428.228 718.807 428.032C718.542 427.836 718.194 427.738 717.761 427.738C717.328 427.738 716.979 427.836 716.715 428.032C716.451 428.224 716.318 428.477 716.318 428.791C716.318 429.274 716.713 429.616 717.501 429.816L718.602 430.083C719.317 430.265 719.821 430.502 720.112 430.794C720.409 431.081 720.557 431.487 720.557 432.011C720.557 432.631 720.292 433.139 719.764 433.535C719.235 433.927 718.556 434.123 717.727 434.123C716.952 434.123 716.312 433.932 715.806 433.549C715.304 433.161 715.022 432.651 714.958 432.018H716.147C716.28 432.774 716.831 433.152 717.802 433.152C718.28 433.152 718.659 433.059 718.937 432.872C719.219 432.681 719.36 432.423 719.36 432.1C719.36 431.844 719.276 431.642 719.107 431.491C718.943 431.341 718.663 431.213 718.267 431.108L717.016 430.787C715.771 430.468 715.149 429.823 715.149 428.853Z" fill="#464255"/>
<path opacity="0.4" d="M136.485 234.286H137.723C137.782 234.819 138.042 235.248 138.502 235.571C138.967 235.895 139.552 236.057 140.259 236.057C140.924 236.057 141.473 235.899 141.906 235.585C142.344 235.266 142.562 234.865 142.562 234.382C142.562 233.967 142.41 233.625 142.104 233.356C141.804 233.088 141.321 232.867 140.655 232.693L139.391 232.365C138.479 232.133 137.814 231.809 137.395 231.395C136.975 230.975 136.766 230.431 136.766 229.761C136.766 228.94 137.089 228.271 137.736 227.751C138.388 227.231 139.227 226.972 140.252 226.972C141.232 226.972 142.043 227.236 142.686 227.765C143.328 228.289 143.663 228.963 143.69 229.788H142.46C142.405 229.259 142.177 228.842 141.776 228.537C141.375 228.232 140.854 228.079 140.211 228.079C139.573 228.079 139.051 228.229 138.646 228.53C138.244 228.831 138.044 229.223 138.044 229.706C138.044 230.08 138.19 230.387 138.481 230.629C138.778 230.866 139.261 231.071 139.931 231.244L140.963 231.518C141.984 231.773 142.717 232.112 143.164 232.536C143.611 232.96 143.834 233.525 143.834 234.231C143.834 235.134 143.501 235.849 142.836 236.378C142.175 236.902 141.277 237.164 140.143 237.164C139.094 237.164 138.238 236.902 137.572 236.378C136.907 235.854 136.545 235.157 136.485 234.286ZM147.936 230.8C147.384 230.8 146.926 230.991 146.562 231.374C146.201 231.752 146.003 232.24 145.967 232.837H149.829C149.815 232.235 149.635 231.745 149.289 231.367C148.943 230.989 148.492 230.8 147.936 230.8ZM149.802 234.963H150.971C150.866 235.592 150.538 236.109 149.986 236.515C149.439 236.92 148.781 237.123 148.011 237.123C146.994 237.123 146.195 236.795 145.611 236.139C145.028 235.482 144.736 234.594 144.736 233.473C144.736 232.361 145.028 231.465 145.611 230.786C146.199 230.107 146.981 229.768 147.956 229.768C148.913 229.768 149.67 230.089 150.226 230.731C150.782 231.374 151.06 232.235 151.06 233.315V233.767H145.96V233.835C145.96 234.519 146.147 235.065 146.521 235.476C146.894 235.886 147.4 236.091 148.038 236.091C148.485 236.091 148.865 235.988 149.18 235.783C149.494 235.578 149.701 235.305 149.802 234.963ZM152.324 237V227.136H153.514V237H152.324ZM157.971 230.8C157.419 230.8 156.961 230.991 156.597 231.374C156.237 231.752 156.038 232.24 156.002 232.837H159.864C159.851 232.235 159.671 231.745 159.324 231.367C158.978 230.989 158.527 230.8 157.971 230.8ZM159.837 234.963H161.006C160.901 235.592 160.573 236.109 160.021 236.515C159.475 236.92 158.816 237.123 158.046 237.123C157.03 237.123 156.23 236.795 155.646 236.139C155.063 235.482 154.771 234.594 154.771 233.473C154.771 232.361 155.063 231.465 155.646 230.786C156.234 230.107 157.016 229.768 157.991 229.768C158.948 229.768 159.705 230.089 160.261 230.731C160.817 231.374 161.095 232.235 161.095 233.315V233.767H155.995V233.835C155.995 234.519 156.182 235.065 156.556 235.476C156.929 235.886 157.435 236.091 158.073 236.091C158.52 236.091 158.9 235.988 159.215 235.783C159.529 235.578 159.737 235.305 159.837 234.963ZM168.204 232.222H167.042C166.951 231.812 166.748 231.474 166.434 231.21C166.124 230.946 165.72 230.813 165.224 230.813C164.604 230.813 164.105 231.053 163.727 231.531C163.348 232.005 163.159 232.643 163.159 233.445C163.159 234.261 163.348 234.904 163.727 235.373C164.109 235.842 164.613 236.077 165.237 236.077C165.716 236.077 166.11 235.959 166.42 235.722C166.734 235.48 166.944 235.143 167.049 234.71H168.218C168.127 235.421 167.805 236.002 167.254 236.453C166.707 236.9 166.033 237.123 165.23 237.123C164.237 237.123 163.442 236.795 162.845 236.139C162.248 235.478 161.949 234.58 161.949 233.445C161.949 232.329 162.248 231.438 162.845 230.772C163.442 230.103 164.232 229.768 165.217 229.768C166.064 229.768 166.753 230.007 167.281 230.485C167.814 230.964 168.122 231.543 168.204 232.222ZM169.694 228.175H170.884V229.891H172.265V230.868H170.884V235.093C170.884 235.416 170.954 235.656 171.096 235.811C171.237 235.961 171.46 236.036 171.766 236.036C171.957 236.036 172.121 236.025 172.258 236.002V237C172.103 237.036 171.852 237.055 171.506 237.055C170.854 237.055 170.389 236.909 170.111 236.617C169.833 236.326 169.694 235.838 169.694 235.154V230.868H168.635V229.891H169.694V228.175Z" fill="#464255"/>
<path opacity="0.4" d="M139.315 482V473.441H139.288L136.677 475.321V474.022L139.302 472.136H140.505V482H139.315ZM146.459 482.164C145.315 482.164 144.422 481.708 143.779 480.797C143.141 479.881 142.822 478.637 142.822 477.064C142.822 475.506 143.144 474.269 143.786 473.353C144.433 472.432 145.324 471.972 146.459 471.972C147.594 471.972 148.48 472.43 149.118 473.346C149.761 474.257 150.082 475.494 150.082 477.058C150.082 478.63 149.763 479.874 149.125 480.79C148.487 481.706 147.598 482.164 146.459 482.164ZM144.688 480.011C145.108 480.731 145.698 481.091 146.459 481.091C147.22 481.091 147.808 480.733 148.223 480.018C148.637 479.298 148.845 478.313 148.845 477.064C148.845 475.834 148.635 474.859 148.216 474.139C147.797 473.414 147.211 473.052 146.459 473.052C145.707 473.052 145.119 473.414 144.695 474.139C144.271 474.863 144.06 475.836 144.06 477.058C144.06 478.306 144.269 479.291 144.688 480.011ZM153.028 481.843C152.878 481.993 152.693 482.068 152.475 482.068C152.256 482.068 152.071 481.993 151.921 481.843C151.771 481.692 151.695 481.508 151.695 481.289C151.695 481.07 151.771 480.886 151.921 480.735C152.071 480.585 152.256 480.51 152.475 480.51C152.693 480.51 152.878 480.585 153.028 480.735C153.179 480.886 153.254 481.07 153.254 481.289C153.254 481.508 153.179 481.692 153.028 481.843ZM153.028 476.812C152.878 476.962 152.693 477.037 152.475 477.037C152.256 477.037 152.071 476.962 151.921 476.812C151.771 476.661 151.695 476.477 151.695 476.258C151.695 476.039 151.771 475.854 151.921 475.704C152.071 475.554 152.256 475.479 152.475 475.479C152.693 475.479 152.878 475.554 153.028 475.704C153.179 475.854 153.254 476.039 153.254 476.258C153.254 476.477 153.179 476.661 153.028 476.812ZM158.504 482.164C157.36 482.164 156.467 481.708 155.824 480.797C155.186 479.881 154.867 478.637 154.867 477.064C154.867 475.506 155.188 474.269 155.831 473.353C156.478 472.432 157.369 471.972 158.504 471.972C159.639 471.972 160.525 472.43 161.163 473.346C161.806 474.257 162.127 475.494 162.127 477.058C162.127 478.63 161.808 479.874 161.17 480.79C160.532 481.706 159.643 482.164 158.504 482.164ZM156.733 480.011C157.153 480.731 157.743 481.091 158.504 481.091C159.265 481.091 159.853 480.733 160.268 480.018C160.682 479.298 160.89 478.313 160.89 477.064C160.89 475.834 160.68 474.859 160.261 474.139C159.841 473.414 159.256 473.052 158.504 473.052C157.752 473.052 157.164 473.414 156.74 474.139C156.316 474.863 156.104 475.836 156.104 477.058C156.104 478.306 156.314 479.291 156.733 480.011ZM166.994 482.164C165.85 482.164 164.957 481.708 164.314 480.797C163.676 479.881 163.357 478.637 163.357 477.064C163.357 475.506 163.679 474.269 164.321 473.353C164.968 472.432 165.859 471.972 166.994 471.972C168.129 471.972 169.015 472.43 169.653 473.346C170.296 474.257 170.617 475.494 170.617 477.058C170.617 478.63 170.298 479.874 169.66 480.79C169.022 481.706 168.133 482.164 166.994 482.164ZM165.224 480.011C165.643 480.731 166.233 481.091 166.994 481.091C167.755 481.091 168.343 480.733 168.758 480.018C169.173 479.298 169.38 478.313 169.38 477.064C169.38 475.834 169.17 474.859 168.751 474.139C168.332 473.414 167.746 473.052 166.994 473.052C166.242 473.052 165.654 473.414 165.23 474.139C164.807 474.863 164.595 475.836 164.595 477.058C164.595 478.306 164.804 479.291 165.224 480.011ZM181.473 482L180.481 479.177H176.558L175.566 482H174.274L177.911 472.136H179.128L182.765 482H181.473ZM178.499 473.633L176.92 478.131H180.119L178.54 473.633H178.499ZM193.613 482H192.465V474.398H192.417L189.272 481.932H188.233L185.089 474.398H185.041V482H183.893V472.136H185.321L188.726 480.366H188.78L192.185 472.136H193.613V482Z" fill="#464255"/>
<path opacity="0.4" d="M411.315 482V473.441H411.288L408.677 475.321V474.022L411.302 472.136H412.505V482H411.315ZM418.459 482.164C417.315 482.164 416.422 481.708 415.779 480.797C415.141 479.881 414.822 478.637 414.822 477.064C414.822 475.506 415.144 474.269 415.786 473.353C416.433 472.432 417.324 471.972 418.459 471.972C419.594 471.972 420.48 472.43 421.118 473.346C421.761 474.257 422.082 475.494 422.082 477.058C422.082 478.63 421.763 479.874 421.125 480.79C420.487 481.706 419.598 482.164 418.459 482.164ZM416.688 480.011C417.108 480.731 417.698 481.091 418.459 481.091C419.22 481.091 419.808 480.733 420.223 480.018C420.637 479.298 420.845 478.313 420.845 477.064C420.845 475.834 420.635 474.859 420.216 474.139C419.797 473.414 419.211 473.052 418.459 473.052C417.707 473.052 417.119 473.414 416.695 474.139C416.271 474.863 416.06 475.836 416.06 477.058C416.06 478.306 416.269 479.291 416.688 480.011ZM425.028 481.843C424.878 481.993 424.693 482.068 424.475 482.068C424.256 482.068 424.071 481.993 423.921 481.843C423.771 481.692 423.695 481.508 423.695 481.289C423.695 481.07 423.771 480.886 423.921 480.735C424.071 480.585 424.256 480.51 424.475 480.51C424.693 480.51 424.878 480.585 425.028 480.735C425.179 480.886 425.254 481.07 425.254 481.289C425.254 481.508 425.179 481.692 425.028 481.843ZM425.028 476.812C424.878 476.962 424.693 477.037 424.475 477.037C424.256 477.037 424.071 476.962 423.921 476.812C423.771 476.661 423.695 476.477 423.695 476.258C423.695 476.039 423.771 475.854 423.921 475.704C424.071 475.554 424.256 475.479 424.475 475.479C424.693 475.479 424.878 475.554 425.028 475.704C425.179 475.854 425.254 476.039 425.254 476.258C425.254 476.477 425.179 476.661 425.028 476.812ZM430.504 482.164C429.36 482.164 428.467 481.708 427.824 480.797C427.186 479.881 426.867 478.637 426.867 477.064C426.867 475.506 427.188 474.269 427.831 473.353C428.478 472.432 429.369 471.972 430.504 471.972C431.639 471.972 432.525 472.43 433.163 473.346C433.806 474.257 434.127 475.494 434.127 477.058C434.127 478.63 433.808 479.874 433.17 480.79C432.532 481.706 431.643 482.164 430.504 482.164ZM428.733 480.011C429.153 480.731 429.743 481.091 430.504 481.091C431.265 481.091 431.853 480.733 432.268 480.018C432.682 479.298 432.89 478.313 432.89 477.064C432.89 475.834 432.68 474.859 432.261 474.139C431.841 473.414 431.256 473.052 430.504 473.052C429.752 473.052 429.164 473.414 428.74 474.139C428.316 474.863 428.104 475.836 428.104 477.058C428.104 478.306 428.314 479.291 428.733 480.011ZM438.994 482.164C437.85 482.164 436.957 481.708 436.314 480.797C435.676 479.881 435.357 478.637 435.357 477.064C435.357 475.506 435.679 474.269 436.321 473.353C436.968 472.432 437.859 471.972 438.994 471.972C440.129 471.972 441.015 472.43 441.653 473.346C442.296 474.257 442.617 475.494 442.617 477.058C442.617 478.63 442.298 479.874 441.66 480.79C441.022 481.706 440.133 482.164 438.994 482.164ZM437.224 480.011C437.643 480.731 438.233 481.091 438.994 481.091C439.755 481.091 440.343 480.733 440.758 480.018C441.173 479.298 441.38 478.313 441.38 477.064C441.38 475.834 441.17 474.859 440.751 474.139C440.332 473.414 439.746 473.052 438.994 473.052C438.242 473.052 437.654 473.414 437.23 474.139C436.807 474.863 436.595 475.836 436.595 477.058C436.595 478.306 436.804 479.291 437.224 480.011ZM453.473 482L452.481 479.177H448.558L447.566 482H446.274L449.911 472.136H451.128L454.765 482H453.473ZM450.499 473.633L448.92 478.131H452.119L450.54 473.633H450.499ZM465.613 482H464.465V474.398H464.417L461.272 481.932H460.233L457.089 474.398H457.041V482H455.893V472.136H457.321L460.726 480.366H460.78L464.185 472.136H465.613V482Z" fill="#464255"/>
<path opacity="0.4" d="M661.252 482.164C660.108 482.164 659.215 481.708 658.572 480.797C657.934 479.881 657.615 478.637 657.615 477.064C657.615 475.506 657.937 474.269 658.579 473.353C659.226 472.432 660.117 471.972 661.252 471.972C662.387 471.972 663.273 472.43 663.911 473.346C664.554 474.257 664.875 475.494 664.875 477.058C664.875 478.63 664.556 479.874 663.918 480.79C663.28 481.706 662.391 482.164 661.252 482.164ZM659.481 480.011C659.901 480.731 660.491 481.091 661.252 481.091C662.013 481.091 662.601 480.733 663.016 480.018C663.43 479.298 663.638 478.313 663.638 477.064C663.638 475.834 663.428 474.859 663.009 474.139C662.59 473.414 662.004 473.052 661.252 473.052C660.5 473.052 659.912 473.414 659.488 474.139C659.064 474.863 658.853 475.836 658.853 477.058C658.853 478.306 659.062 479.291 659.481 480.011ZM674.322 482H673.092V477.509H667.678V482H666.447V472.136H667.678V476.401H673.092V472.136H674.322V482ZM676.052 482V474.891H677.173V476.053H677.2C677.319 475.656 677.531 475.344 677.836 475.116C678.146 474.884 678.508 474.768 678.923 474.768C679.019 474.768 679.178 474.784 679.401 474.815V475.971C679.274 475.925 679.062 475.902 678.766 475.902C678.305 475.902 677.936 476.055 677.658 476.36C677.38 476.666 677.241 477.069 677.241 477.57V482H676.052ZM680.249 476.853C680.249 476.242 680.495 475.743 680.987 475.355C681.484 474.964 682.122 474.768 682.901 474.768C683.635 474.768 684.246 474.964 684.733 475.355C685.221 475.747 685.479 476.244 685.506 476.846H684.371C684.33 476.499 684.175 476.228 683.906 476.032C683.642 475.836 683.293 475.738 682.86 475.738C682.427 475.738 682.079 475.836 681.814 476.032C681.55 476.224 681.418 476.477 681.418 476.791C681.418 477.274 681.812 477.616 682.601 477.816L683.701 478.083C684.417 478.265 684.92 478.502 685.212 478.794C685.508 479.081 685.656 479.487 685.656 480.011C685.656 480.631 685.392 481.139 684.863 481.535C684.335 481.927 683.656 482.123 682.826 482.123C682.051 482.123 681.411 481.932 680.905 481.549C680.404 481.161 680.121 480.651 680.058 480.018H681.247C681.379 480.774 681.931 481.152 682.901 481.152C683.38 481.152 683.758 481.059 684.036 480.872C684.319 480.681 684.46 480.423 684.46 480.1C684.46 479.844 684.376 479.642 684.207 479.491C684.043 479.341 683.763 479.213 683.366 479.108L682.115 478.787C680.871 478.468 680.249 477.823 680.249 476.853ZM693.244 482.164C692.1 482.164 691.207 481.708 690.564 480.797C689.926 479.881 689.607 478.637 689.607 477.064C689.607 475.506 689.929 474.269 690.571 473.353C691.218 472.432 692.109 471.972 693.244 471.972C694.379 471.972 695.265 472.43 695.903 473.346C696.546 474.257 696.867 475.494 696.867 477.058C696.867 478.63 696.548 479.874 695.91 480.79C695.272 481.706 694.383 482.164 693.244 482.164ZM691.474 480.011C691.893 480.731 692.483 481.091 693.244 481.091C694.005 481.091 694.593 480.733 695.008 480.018C695.423 479.298 695.63 478.313 695.63 477.064C695.63 475.834 695.42 474.859 695.001 474.139C694.582 473.414 693.996 473.052 693.244 473.052C692.492 473.052 691.904 473.414 691.48 474.139C691.057 474.863 690.845 475.836 690.845 477.058C690.845 478.306 691.054 479.291 691.474 480.011ZM708.16 482H707.012V474.398H706.964L703.819 481.932H702.78L699.636 474.398H699.588V482H698.439V472.136H699.868L703.272 480.366H703.327L706.731 472.136H708.16V482ZM709.951 482V474.891H711.141V482H709.951ZM710.546 473.694C710.345 473.694 710.172 473.621 710.026 473.476C709.881 473.33 709.808 473.157 709.808 472.956C709.808 472.751 709.881 472.578 710.026 472.437C710.172 472.291 710.345 472.218 710.546 472.218C710.751 472.218 710.926 472.291 711.072 472.437C711.218 472.578 711.291 472.751 711.291 472.956C711.291 473.157 711.218 473.33 711.072 473.476C710.926 473.621 710.751 473.694 710.546 473.694ZM712.747 482V474.891H713.868V476.025H713.896C714.101 475.629 714.395 475.321 714.777 475.103C715.16 474.879 715.618 474.768 716.151 474.768C716.926 474.768 717.53 475.002 717.963 475.472C718.396 475.937 718.612 476.575 718.612 477.386V482H717.423V477.598C717.423 477.019 717.286 476.579 717.013 476.278C716.739 475.973 716.331 475.82 715.789 475.82C715.229 475.82 714.78 476.003 714.442 476.367C714.105 476.732 713.937 477.215 713.937 477.816V482H712.747ZM720.007 476.853C720.007 476.242 720.253 475.743 720.745 475.355C721.242 474.964 721.88 474.768 722.659 474.768C723.393 474.768 724.004 474.964 724.491 475.355C724.979 475.747 725.236 476.244 725.264 476.846H724.129C724.088 476.499 723.933 476.228 723.664 476.032C723.4 475.836 723.051 475.738 722.618 475.738C722.185 475.738 721.837 475.836 721.572 476.032C721.308 476.224 721.176 476.477 721.176 476.791C721.176 477.274 721.57 477.616 722.358 477.816L723.459 478.083C724.174 478.265 724.678 478.502 724.97 478.794C725.266 479.081 725.414 479.487 725.414 480.011C725.414 480.631 725.15 481.139 724.621 481.535C724.092 481.927 723.413 482.123 722.584 482.123C721.809 482.123 721.169 481.932 720.663 481.549C720.162 481.161 719.879 480.651 719.815 480.018H721.005C721.137 480.774 721.688 481.152 722.659 481.152C723.138 481.152 723.516 481.059 723.794 480.872C724.076 480.681 724.218 480.423 724.218 480.1C724.218 479.844 724.133 479.642 723.965 479.491C723.801 479.341 723.521 479.213 723.124 479.108L721.873 478.787C720.629 478.468 720.007 477.823 720.007 476.853Z" fill="#464255"/>
<path opacity="0.4" d="M140.252 349.164C139.108 349.164 138.215 348.708 137.572 347.797C136.934 346.881 136.615 345.637 136.615 344.064C136.615 342.506 136.937 341.269 137.579 340.353C138.226 339.432 139.117 338.972 140.252 338.972C141.387 338.972 142.273 339.43 142.911 340.346C143.554 341.257 143.875 342.494 143.875 344.058C143.875 345.63 143.556 346.874 142.918 347.79C142.28 348.706 141.391 349.164 140.252 349.164ZM138.481 347.011C138.901 347.731 139.491 348.091 140.252 348.091C141.013 348.091 141.601 347.733 142.016 347.018C142.43 346.298 142.638 345.313 142.638 344.064C142.638 342.834 142.428 341.859 142.009 341.139C141.59 340.414 141.004 340.052 140.252 340.052C139.5 340.052 138.912 340.414 138.488 341.139C138.064 341.863 137.853 342.836 137.853 344.058C137.853 345.306 138.062 346.291 138.481 347.011ZM148.428 349.164C147.589 349.164 146.871 348.932 146.274 348.467C145.677 348.002 145.304 347.382 145.153 346.607H146.404C146.536 347.054 146.787 347.414 147.156 347.688C147.525 347.956 147.954 348.091 148.441 348.091C149.262 348.091 149.897 347.735 150.349 347.024C150.804 346.309 151.041 345.295 151.06 343.982H151.053H151.039C150.829 344.47 150.474 344.862 149.973 345.158C149.476 345.45 148.913 345.596 148.284 345.596C147.345 345.596 146.564 345.286 145.939 344.666C145.32 344.046 145.01 343.269 145.01 342.335C145.01 341.36 145.338 340.555 145.994 339.922C146.655 339.284 147.491 338.965 148.503 338.965C149.246 338.965 149.9 339.159 150.465 339.546C151.03 339.929 151.463 340.473 151.764 341.18C152.087 341.927 152.249 342.834 152.249 343.9C152.249 345.564 151.914 346.858 151.244 347.783C150.574 348.704 149.635 349.164 148.428 349.164ZM148.496 344.516C149.148 344.516 149.69 344.308 150.123 343.894C150.556 343.479 150.772 342.957 150.772 342.328C150.772 341.695 150.554 341.161 150.116 340.729C149.683 340.291 149.15 340.072 148.517 340.072C147.883 340.072 147.348 340.289 146.91 340.722C146.473 341.15 146.254 341.674 146.254 342.294C146.254 342.937 146.466 343.467 146.89 343.887C147.313 344.306 147.849 344.516 148.496 344.516ZM158.114 345.555H153.63V344.447H158.114V345.555ZM163.125 349.164C161.981 349.164 161.088 348.708 160.445 347.797C159.807 346.881 159.488 345.637 159.488 344.064C159.488 342.506 159.81 341.269 160.452 340.353C161.099 339.432 161.99 338.972 163.125 338.972C164.26 338.972 165.146 339.43 165.784 340.346C166.427 341.257 166.748 342.494 166.748 344.058C166.748 345.63 166.429 346.874 165.791 347.79C165.153 348.706 164.264 349.164 163.125 349.164ZM161.354 347.011C161.774 347.731 162.364 348.091 163.125 348.091C163.886 348.091 164.474 347.733 164.889 347.018C165.303 346.298 165.511 345.313 165.511 344.064C165.511 342.834 165.301 341.859 164.882 341.139C164.463 340.414 163.877 340.052 163.125 340.052C162.373 340.052 161.785 340.414 161.361 341.139C160.938 341.863 160.726 342.836 160.726 344.058C160.726 345.306 160.935 346.291 161.354 347.011ZM172.853 349V346.949H167.896V345.835C168.32 345.047 168.858 344.146 169.51 343.135C170.166 342.123 171.071 340.79 172.224 339.136H174.042V345.869H175.437V346.949H174.042V349H172.853ZM169.113 345.842V345.869H172.853V340.161H172.832C171.105 342.627 169.865 344.52 169.113 345.842ZM181.083 345.555H176.599V344.447H181.083V345.555ZM182.58 341.979C182.58 341.118 182.89 340.403 183.51 339.833C184.13 339.259 184.904 338.972 185.834 338.972C186.714 338.972 187.459 339.234 188.069 339.758C188.68 340.282 188.985 340.922 188.985 341.679C188.985 342.226 188.835 342.752 188.534 343.258C188.233 343.764 187.668 344.445 186.839 345.302L184.344 347.879V347.906H189.149V349H182.642V348.152L186.114 344.495C186.775 343.798 187.213 343.269 187.427 342.909C187.646 342.549 187.755 342.164 187.755 341.754C187.755 341.28 187.563 340.877 187.181 340.544C186.802 340.211 186.342 340.045 185.8 340.045C185.221 340.045 184.738 340.229 184.351 340.599C183.963 340.968 183.77 341.428 183.77 341.979V341.986H182.58V341.979ZM194.023 349.164C192.88 349.164 191.986 348.708 191.344 347.797C190.706 346.881 190.387 345.637 190.387 344.064C190.387 342.506 190.708 341.269 191.351 340.353C191.998 339.432 192.889 338.972 194.023 338.972C195.158 338.972 196.045 339.43 196.683 340.346C197.325 341.257 197.646 342.494 197.646 344.058C197.646 345.63 197.327 346.874 196.689 347.79C196.051 348.706 195.163 349.164 194.023 349.164ZM192.253 347.011C192.672 347.731 193.262 348.091 194.023 348.091C194.785 348.091 195.372 347.733 195.787 347.018C196.202 346.298 196.409 345.313 196.409 344.064C196.409 342.834 196.2 341.859 195.78 341.139C195.361 340.414 194.775 340.052 194.023 340.052C193.271 340.052 192.684 340.414 192.26 341.139C191.836 341.863 191.624 342.836 191.624 344.058C191.624 345.306 191.834 346.291 192.253 347.011ZM198.863 341.979C198.863 341.118 199.173 340.403 199.793 339.833C200.413 339.259 201.188 338.972 202.117 338.972C202.997 338.972 203.742 339.234 204.353 339.758C204.963 340.282 205.269 340.922 205.269 341.679C205.269 342.226 205.118 342.752 204.817 343.258C204.517 343.764 203.951 344.445 203.122 345.302L200.627 347.879V347.906H205.433V349H198.925V348.152L202.397 344.495C203.058 343.798 203.496 343.269 203.71 342.909C203.929 342.549 204.038 342.164 204.038 341.754C204.038 341.28 203.847 340.877 203.464 340.544C203.086 340.211 202.625 340.045 202.083 340.045C201.504 340.045 201.021 340.229 200.634 340.599C200.246 340.968 200.053 341.428 200.053 341.979V341.986H198.863V341.979ZM209.37 349V340.441H209.343L206.731 342.321V341.022L209.356 339.136H210.56V349H209.37Z" fill="#464255"/>
<path opacity="0.4" d="M545.252 349.164C544.108 349.164 543.215 348.708 542.572 347.797C541.934 346.881 541.615 345.637 541.615 344.064C541.615 342.506 541.937 341.269 542.579 340.353C543.226 339.432 544.117 338.972 545.252 338.972C546.387 338.972 547.273 339.43 547.911 340.346C548.554 341.257 548.875 342.494 548.875 344.058C548.875 345.63 548.556 346.874 547.918 347.79C547.28 348.706 546.391 349.164 545.252 349.164ZM543.481 347.011C543.901 347.731 544.491 348.091 545.252 348.091C546.013 348.091 546.601 347.733 547.016 347.018C547.43 346.298 547.638 345.313 547.638 344.064C547.638 342.834 547.428 341.859 547.009 341.139C546.59 340.414 546.004 340.052 545.252 340.052C544.5 340.052 543.912 340.414 543.488 341.139C543.064 341.863 542.853 342.836 542.853 344.058C542.853 345.306 543.062 346.291 543.481 347.011ZM553.428 349.164C552.589 349.164 551.871 348.932 551.274 348.467C550.677 348.002 550.304 347.382 550.153 346.607H551.404C551.536 347.054 551.787 347.414 552.156 347.688C552.525 347.956 552.954 348.091 553.441 348.091C554.262 348.091 554.897 347.735 555.349 347.024C555.804 346.309 556.041 345.295 556.06 343.982H556.053H556.039C555.829 344.47 555.474 344.862 554.973 345.158C554.476 345.45 553.913 345.596 553.284 345.596C552.345 345.596 551.564 345.286 550.939 344.666C550.32 344.046 550.01 343.269 550.01 342.335C550.01 341.36 550.338 340.555 550.994 339.922C551.655 339.284 552.491 338.965 553.503 338.965C554.246 338.965 554.9 339.159 555.465 339.546C556.03 339.929 556.463 340.473 556.764 341.18C557.087 341.927 557.249 342.834 557.249 343.9C557.249 345.564 556.914 346.858 556.244 347.783C555.574 348.704 554.635 349.164 553.428 349.164ZM553.496 344.516C554.148 344.516 554.69 344.308 555.123 343.894C555.556 343.479 555.772 342.957 555.772 342.328C555.772 341.695 555.554 341.161 555.116 340.729C554.683 340.291 554.15 340.072 553.517 340.072C552.883 340.072 552.348 340.289 551.91 340.722C551.473 341.15 551.254 341.674 551.254 342.294C551.254 342.937 551.466 343.467 551.89 343.887C552.313 344.306 552.849 344.516 553.496 344.516ZM563.114 345.555H558.63V344.447H563.114V345.555ZM568.125 349.164C566.981 349.164 566.088 348.708 565.445 347.797C564.807 346.881 564.488 345.637 564.488 344.064C564.488 342.506 564.81 341.269 565.452 340.353C566.099 339.432 566.99 338.972 568.125 338.972C569.26 338.972 570.146 339.43 570.784 340.346C571.427 341.257 571.748 342.494 571.748 344.058C571.748 345.63 571.429 346.874 570.791 347.79C570.153 348.706 569.264 349.164 568.125 349.164ZM566.354 347.011C566.774 347.731 567.364 348.091 568.125 348.091C568.886 348.091 569.474 347.733 569.889 347.018C570.303 346.298 570.511 345.313 570.511 344.064C570.511 342.834 570.301 341.859 569.882 341.139C569.463 340.414 568.877 340.052 568.125 340.052C567.373 340.052 566.785 340.414 566.361 341.139C565.938 341.863 565.726 342.836 565.726 344.058C565.726 345.306 565.935 346.291 566.354 347.011ZM577.853 349V346.949H572.896V345.835C573.32 345.047 573.858 344.146 574.51 343.135C575.166 342.123 576.071 340.79 577.224 339.136H579.042V345.869H580.437V346.949H579.042V349H577.853ZM574.113 345.842V345.869H577.853V340.161H577.832C576.105 342.627 574.865 344.52 574.113 345.842ZM586.083 345.555H581.599V344.447H586.083V345.555ZM587.58 341.979C587.58 341.118 587.89 340.403 588.51 339.833C589.13 339.259 589.904 338.972 590.834 338.972C591.714 338.972 592.459 339.234 593.069 339.758C593.68 340.282 593.985 340.922 593.985 341.679C593.985 342.226 593.835 342.752 593.534 343.258C593.233 343.764 592.668 344.445 591.839 345.302L589.344 347.879V347.906H594.149V349H587.642V348.152L591.114 344.495C591.775 343.798 592.213 343.269 592.427 342.909C592.646 342.549 592.755 342.164 592.755 341.754C592.755 341.28 592.563 340.877 592.181 340.544C591.802 340.211 591.342 340.045 590.8 340.045C590.221 340.045 589.738 340.229 589.351 340.599C588.963 340.968 588.77 341.428 588.77 341.979V341.986H587.58V341.979ZM599.023 349.164C597.88 349.164 596.986 348.708 596.344 347.797C595.706 346.881 595.387 345.637 595.387 344.064C595.387 342.506 595.708 341.269 596.351 340.353C596.998 339.432 597.889 338.972 599.023 338.972C600.158 338.972 601.045 339.43 601.683 340.346C602.325 341.257 602.646 342.494 602.646 344.058C602.646 345.63 602.327 346.874 601.689 347.79C601.051 348.706 600.163 349.164 599.023 349.164ZM597.253 347.011C597.672 347.731 598.262 348.091 599.023 348.091C599.785 348.091 600.372 347.733 600.787 347.018C601.202 346.298 601.409 345.313 601.409 344.064C601.409 342.834 601.2 341.859 600.78 341.139C600.361 340.414 599.775 340.052 599.023 340.052C598.271 340.052 597.684 340.414 597.26 341.139C596.836 341.863 596.624 342.836 596.624 344.058C596.624 345.306 596.834 346.291 597.253 347.011ZM603.863 341.979C603.863 341.118 604.173 340.403 604.793 339.833C605.413 339.259 606.188 338.972 607.117 338.972C607.997 338.972 608.742 339.234 609.353 339.758C609.963 340.282 610.269 340.922 610.269 341.679C610.269 342.226 610.118 342.752 609.817 343.258C609.517 343.764 608.951 344.445 608.122 345.302L605.627 347.879V347.906H610.433V349H603.925V348.152L607.397 344.495C608.058 343.798 608.496 343.269 608.71 342.909C608.929 342.549 609.038 342.164 609.038 341.754C609.038 341.28 608.847 340.877 608.464 340.544C608.086 340.211 607.625 340.045 607.083 340.045C606.504 340.045 606.021 340.229 605.634 340.599C605.246 340.968 605.053 341.428 605.053 341.979V341.986H603.863V341.979ZM614.37 349V340.441H614.343L611.731 342.321V341.022L614.356 339.136H615.56V349H614.37Z" fill="#464255"/>
<path opacity="0.4" d="M406.485 233.286H407.723C407.782 233.819 408.042 234.248 408.502 234.571C408.967 234.895 409.552 235.057 410.259 235.057C410.924 235.057 411.473 234.899 411.906 234.585C412.344 234.266 412.562 233.865 412.562 233.382C412.562 232.967 412.41 232.625 412.104 232.356C411.804 232.088 411.321 231.867 410.655 231.693L409.391 231.365C408.479 231.133 407.814 230.809 407.395 230.395C406.975 229.975 406.766 229.431 406.766 228.761C406.766 227.94 407.089 227.271 407.736 226.751C408.388 226.231 409.227 225.972 410.252 225.972C411.232 225.972 412.043 226.236 412.686 226.765C413.328 227.289 413.663 227.963 413.69 228.788H412.46C412.405 228.259 412.177 227.842 411.776 227.537C411.375 227.232 410.854 227.079 410.211 227.079C409.573 227.079 409.051 227.229 408.646 227.53C408.244 227.831 408.044 228.223 408.044 228.706C408.044 229.08 408.19 229.387 408.481 229.629C408.778 229.866 409.261 230.071 409.931 230.244L410.963 230.518C411.984 230.773 412.717 231.112 413.164 231.536C413.611 231.96 413.834 232.525 413.834 233.231C413.834 234.134 413.501 234.849 412.836 235.378C412.175 235.902 411.277 236.164 410.143 236.164C409.094 236.164 408.238 235.902 407.572 235.378C406.907 234.854 406.545 234.157 406.485 233.286ZM417.936 229.8C417.384 229.8 416.926 229.991 416.562 230.374C416.201 230.752 416.003 231.24 415.967 231.837H419.829C419.815 231.235 419.635 230.745 419.289 230.367C418.943 229.989 418.492 229.8 417.936 229.8ZM419.802 233.963H420.971C420.866 234.592 420.538 235.109 419.986 235.515C419.439 235.92 418.781 236.123 418.011 236.123C416.994 236.123 416.195 235.795 415.611 235.139C415.028 234.482 414.736 233.594 414.736 232.473C414.736 231.361 415.028 230.465 415.611 229.786C416.199 229.107 416.981 228.768 417.956 228.768C418.913 228.768 419.67 229.089 420.226 229.731C420.782 230.374 421.06 231.235 421.06 232.315V232.767H415.96V232.835C415.96 233.519 416.147 234.065 416.521 234.476C416.894 234.886 417.4 235.091 418.038 235.091C418.485 235.091 418.865 234.988 419.18 234.783C419.494 234.578 419.701 234.305 419.802 233.963ZM422.324 236V226.136H423.514V236H422.324ZM427.971 229.8C427.419 229.8 426.961 229.991 426.597 230.374C426.237 230.752 426.038 231.24 426.002 231.837H429.864C429.851 231.235 429.671 230.745 429.324 230.367C428.978 229.989 428.527 229.8 427.971 229.8ZM429.837 233.963H431.006C430.901 234.592 430.573 235.109 430.021 235.515C429.475 235.92 428.816 236.123 428.046 236.123C427.03 236.123 426.23 235.795 425.646 235.139C425.063 234.482 424.771 233.594 424.771 232.473C424.771 231.361 425.063 230.465 425.646 229.786C426.234 229.107 427.016 228.768 427.991 228.768C428.948 228.768 429.705 229.089 430.261 229.731C430.817 230.374 431.095 231.235 431.095 232.315V232.767H425.995V232.835C425.995 233.519 426.182 234.065 426.556 234.476C426.929 234.886 427.435 235.091 428.073 235.091C428.52 235.091 428.9 234.988 429.215 234.783C429.529 234.578 429.737 234.305 429.837 233.963ZM438.204 231.222H437.042C436.951 230.812 436.748 230.474 436.434 230.21C436.124 229.946 435.72 229.813 435.224 229.813C434.604 229.813 434.105 230.053 433.727 230.531C433.348 231.005 433.159 231.643 433.159 232.445C433.159 233.261 433.348 233.904 433.727 234.373C434.109 234.842 434.613 235.077 435.237 235.077C435.716 235.077 436.11 234.959 436.42 234.722C436.734 234.48 436.944 234.143 437.049 233.71H438.218C438.127 234.421 437.805 235.002 437.254 235.453C436.707 235.9 436.033 236.123 435.23 236.123C434.237 236.123 433.442 235.795 432.845 235.139C432.248 234.478 431.949 233.58 431.949 232.445C431.949 231.329 432.248 230.438 432.845 229.772C433.442 229.103 434.232 228.768 435.217 228.768C436.064 228.768 436.753 229.007 437.281 229.485C437.814 229.964 438.122 230.543 438.204 231.222ZM439.694 227.175H440.884V228.891H442.265V229.868H440.884V234.093C440.884 234.416 440.954 234.656 441.096 234.811C441.237 234.961 441.46 235.036 441.766 235.036C441.957 235.036 442.121 235.025 442.258 235.002V236C442.103 236.036 441.852 236.055 441.506 236.055C440.854 236.055 440.389 235.909 440.111 235.617C439.833 235.326 439.694 234.838 439.694 234.154V229.868H438.635V228.891H439.694V227.175Z" fill="#464255"/>
<path opacity="0.4" d="M676.485 233.286H677.723C677.782 233.819 678.042 234.248 678.502 234.571C678.967 234.895 679.552 235.057 680.259 235.057C680.924 235.057 681.473 234.899 681.906 234.585C682.344 234.266 682.562 233.865 682.562 233.382C682.562 232.967 682.41 232.625 682.104 232.356C681.804 232.088 681.321 231.867 680.655 231.693L679.391 231.365C678.479 231.133 677.814 230.809 677.395 230.395C676.975 229.975 676.766 229.431 676.766 228.761C676.766 227.94 677.089 227.271 677.736 226.751C678.388 226.231 679.227 225.972 680.252 225.972C681.232 225.972 682.043 226.236 682.686 226.765C683.328 227.289 683.663 227.963 683.69 228.788H682.46C682.405 228.259 682.177 227.842 681.776 227.537C681.375 227.232 680.854 227.079 680.211 227.079C679.573 227.079 679.051 227.229 678.646 227.53C678.244 227.831 678.044 228.223 678.044 228.706C678.044 229.08 678.19 229.387 678.481 229.629C678.778 229.866 679.261 230.071 679.931 230.244L680.963 230.518C681.984 230.773 682.717 231.112 683.164 231.536C683.611 231.96 683.834 232.525 683.834 233.231C683.834 234.134 683.501 234.849 682.836 235.378C682.175 235.902 681.277 236.164 680.143 236.164C679.094 236.164 678.238 235.902 677.572 235.378C676.907 234.854 676.545 234.157 676.485 233.286ZM687.936 229.8C687.384 229.8 686.926 229.991 686.562 230.374C686.201 230.752 686.003 231.24 685.967 231.837H689.829C689.815 231.235 689.635 230.745 689.289 230.367C688.943 229.989 688.492 229.8 687.936 229.8ZM689.802 233.963H690.971C690.866 234.592 690.538 235.109 689.986 235.515C689.439 235.92 688.781 236.123 688.011 236.123C686.994 236.123 686.195 235.795 685.611 235.139C685.028 234.482 684.736 233.594 684.736 232.473C684.736 231.361 685.028 230.465 685.611 229.786C686.199 229.107 686.981 228.768 687.956 228.768C688.913 228.768 689.67 229.089 690.226 229.731C690.782 230.374 691.06 231.235 691.06 232.315V232.767H685.96V232.835C685.96 233.519 686.147 234.065 686.521 234.476C686.894 234.886 687.4 235.091 688.038 235.091C688.485 235.091 688.865 234.988 689.18 234.783C689.494 234.578 689.701 234.305 689.802 233.963ZM692.324 236V226.136H693.514V236H692.324ZM697.971 229.8C697.419 229.8 696.961 229.991 696.597 230.374C696.237 230.752 696.038 231.24 696.002 231.837H699.864C699.851 231.235 699.671 230.745 699.324 230.367C698.978 229.989 698.527 229.8 697.971 229.8ZM699.837 233.963H701.006C700.901 234.592 700.573 235.109 700.021 235.515C699.475 235.92 698.816 236.123 698.046 236.123C697.03 236.123 696.23 235.795 695.646 235.139C695.063 234.482 694.771 233.594 694.771 232.473C694.771 231.361 695.063 230.465 695.646 229.786C696.234 229.107 697.016 228.768 697.991 228.768C698.948 228.768 699.705 229.089 700.261 229.731C700.817 230.374 701.095 231.235 701.095 232.315V232.767H695.995V232.835C695.995 233.519 696.182 234.065 696.556 234.476C696.929 234.886 697.435 235.091 698.073 235.091C698.52 235.091 698.9 234.988 699.215 234.783C699.529 234.578 699.737 234.305 699.837 233.963ZM708.204 231.222H707.042C706.951 230.812 706.748 230.474 706.434 230.21C706.124 229.946 705.72 229.813 705.224 229.813C704.604 229.813 704.105 230.053 703.727 230.531C703.348 231.005 703.159 231.643 703.159 232.445C703.159 233.261 703.348 233.904 703.727 234.373C704.109 234.842 704.613 235.077 705.237 235.077C705.716 235.077 706.11 234.959 706.42 234.722C706.734 234.48 706.944 234.143 707.049 233.71H708.218C708.127 234.421 707.805 235.002 707.254 235.453C706.707 235.9 706.033 236.123 705.23 236.123C704.237 236.123 703.442 235.795 702.845 235.139C702.248 234.478 701.949 233.58 701.949 232.445C701.949 231.329 702.248 230.438 702.845 229.772C703.442 229.103 704.232 228.768 705.217 228.768C706.064 228.768 706.753 229.007 707.281 229.485C707.814 229.964 708.122 230.543 708.204 231.222ZM709.694 227.175H710.884V228.891H712.265V229.868H710.884V234.093C710.884 234.416 710.954 234.656 711.096 234.811C711.237 234.961 711.46 235.036 711.766 235.036C711.957 235.036 712.121 235.025 712.258 235.002V236C712.103 236.036 711.852 236.055 711.506 236.055C710.854 236.055 710.389 235.909 710.111 235.617C709.833 235.326 709.694 234.838 709.694 234.154V229.868H708.635V228.891H709.694V227.175Z" fill="#464255"/>
<rect x="903.779" y="85.719" width="19" height="3" rx="1.5" transform="rotate(45 903.779 85.719)" fill="black"/>
<rect x="916.557" y="87.8401" width="19" height="3" rx="1.5" transform="rotate(135 916.557 87.8401)" fill="black"/>
<path d="M125.474 116H122.192V97.6895H115.718V94.8623H131.934V97.6895H125.474V116ZM133.633 116V100.59H136.797V116H133.633ZM136.519 97.8066C136.157 98.1582 135.723 98.334 135.215 98.334C134.707 98.334 134.272 98.1582 133.911 97.8066C133.56 97.4551 133.384 97.0303 133.384 96.5322C133.384 96.0244 133.56 95.5947 133.911 95.2432C134.272 94.8916 134.707 94.7158 135.215 94.7158C135.732 94.7158 136.167 94.8916 136.519 95.2432C136.88 95.5947 137.061 96.0244 137.061 96.5322C137.061 97.0303 136.88 97.4551 136.519 97.8066ZM140.034 116V100.59H143.052V103.183H143.125C143.477 102.313 144.038 101.62 144.81 101.103C145.581 100.585 146.479 100.326 147.505 100.326C148.569 100.326 149.473 100.59 150.215 101.117C150.967 101.645 151.499 102.387 151.812 103.344H151.885C152.285 102.406 152.91 101.669 153.76 101.132C154.619 100.595 155.596 100.326 156.689 100.326C158.213 100.326 159.434 100.79 160.352 101.718C161.27 102.646 161.729 103.876 161.729 105.409V116H158.55V106.171C158.55 105.175 158.291 104.403 157.773 103.856C157.266 103.31 156.543 103.036 155.605 103.036C154.668 103.036 153.901 103.349 153.306 103.974C152.72 104.599 152.427 105.399 152.427 106.376V116H149.321V105.937C149.321 105.048 149.058 104.345 148.53 103.827C148.003 103.3 147.295 103.036 146.406 103.036C145.469 103.036 144.697 103.363 144.092 104.018C143.496 104.662 143.198 105.482 143.198 106.479V116H140.034ZM173.916 103.974C173.223 103.231 172.329 102.86 171.235 102.86C170.142 102.86 169.233 103.236 168.511 103.988C167.788 104.73 167.388 105.692 167.31 106.874H175.015C174.976 105.683 174.609 104.716 173.916 103.974ZM175 111.474H178.003C177.778 112.89 177.056 114.047 175.835 114.945C174.614 115.844 173.125 116.293 171.367 116.293C169.111 116.293 167.334 115.585 166.035 114.169C164.746 112.743 164.102 110.81 164.102 108.368C164.102 105.946 164.746 103.998 166.035 102.523C167.334 101.049 169.067 100.312 171.235 100.312C173.364 100.312 175.054 101.01 176.304 102.406C177.554 103.793 178.179 105.658 178.179 108.002V109.086H167.295V109.276C167.295 110.624 167.671 111.703 168.423 112.514C169.175 113.324 170.181 113.729 171.44 113.729C172.329 113.729 173.091 113.524 173.726 113.114C174.36 112.704 174.785 112.157 175 111.474ZM200.239 113.158V116H187.114V94.8623H190.396V113.158H200.239ZM214.229 114.154C212.9 115.58 211.128 116.293 208.911 116.293C206.694 116.293 204.922 115.58 203.594 114.154C202.266 112.719 201.602 110.766 201.602 108.295C201.602 105.834 202.266 103.891 203.594 102.465C204.922 101.029 206.694 100.312 208.911 100.312C211.128 100.312 212.9 101.029 214.229 102.465C215.557 103.891 216.221 105.834 216.221 108.295C216.221 110.766 215.557 112.719 214.229 114.154ZM208.911 113.686C210.171 113.686 211.167 113.212 211.899 112.265C212.632 111.317 212.998 109.994 212.998 108.295C212.998 106.605 212.627 105.287 211.885 104.34C211.152 103.393 210.161 102.919 208.911 102.919C207.661 102.919 206.665 103.393 205.923 104.34C205.19 105.287 204.824 106.605 204.824 108.295C204.824 109.994 205.19 111.317 205.923 112.265C206.665 113.212 207.661 113.686 208.911 113.686ZM225.229 113.437C226.47 113.437 227.461 112.968 228.203 112.03C228.955 111.093 229.331 109.833 229.331 108.251C229.331 106.669 228.955 105.399 228.203 104.442C227.461 103.485 226.47 103.007 225.229 103.007C224.009 103.007 223.032 103.48 222.3 104.428C221.577 105.375 221.216 106.649 221.216 108.251C221.216 109.853 221.577 111.117 222.3 112.045C223.032 112.973 224.009 113.437 225.229 113.437ZM225.259 121.801C223.462 121.801 221.938 121.371 220.688 120.512C219.448 119.652 218.73 118.549 218.535 117.201H221.714C221.938 117.846 222.378 118.363 223.032 118.754C223.696 119.145 224.478 119.34 225.376 119.34C226.597 119.34 227.559 119.018 228.262 118.373C228.965 117.738 229.316 116.889 229.316 115.824V113.29H229.258C228.818 114.14 228.164 114.813 227.295 115.312C226.436 115.81 225.464 116.059 224.38 116.059C222.437 116.059 220.884 115.355 219.722 113.949C218.56 112.533 217.979 110.629 217.979 108.236C217.979 105.814 218.56 103.896 219.722 102.479C220.894 101.054 222.471 100.341 224.453 100.341C225.537 100.341 226.509 100.6 227.368 101.117C228.228 101.625 228.892 102.328 229.36 103.227H229.419V100.59H232.495V115.722C232.495 117.558 231.836 119.027 230.518 120.131C229.209 121.244 227.456 121.801 225.259 121.801Z" fill="#464255"/>
</g>
<defs>
<filter id="filter0_d" x="0" y="0" width="1018" height="849" filterUnits="userSpaceOnUse" color-interpolation-filters="sRGB">
<feFlood flood-opacity="0" result="BackgroundImageFix"/>
<feColorMatrix in="SourceAlpha" type="matrix" values="0 0 0 0 0 0 0 0 0 0 0 0 0 0 0 0 0 0 127 0" result="hardAlpha"/>
<feOffset dy="16"/>
<feGaussianBlur stdDeviation="39"/>
<feComposite in2="hardAlpha" operator="out"/>
<feColorMatrix type="matrix" values="0 0 0 0 0 0 0 0 0 0 0 0 0 0 0 0 0 0 0.15 0"/>
<feBlend mode="normal" in2="BackgroundImageFix" result="effect1_dropShadow"/>
<feBlend mode="normal" in="SourceGraphic" in2="effect1_dropShadow" result="shape"/>
</filter>
</defs>
</svg>
