<svg width="20" height="20" viewBox="0 0 20 20" fill="none" xmlns="http://www.w3.org/2000/svg">
<path d="M10.1 0C8.1 0 6.2 0.6 4.5 1.7C2.9 2.8 1.6 4.4 0.8 6.2C0 8 -0.2 10 0.2 12C0.6 13.9 1.5 15.7 2.9 17.1C4.3 18.5 6.1 19.5 8 19.8C9.9 20.2 12 20 13.8 19.2C15.6 18.4 17.2 17.2 18.3 15.5C19.4 13.8 20 11.9 20 9.9C20 8.6 19.7 7.3 19.2 6.1C18.7 4.9 18 3.8 17 2.9C16.1 2 15 1.2 13.8 0.7C12.7 0.3 11.4 0 10.1 0ZM10.1 18C8.5 18 7 17.5 5.7 16.7C4.4 15.8 3.4 14.6 2.8 13.1C2.2 11.6 2 10 2.3 8.5C2.6 7 3.4 5.5 4.5 4.4C5.6 3.3 7 2.5 8.6 2.2C10.2 1.9 11.8 2 13.2 2.7C14.7 3.3 15.9 4.3 16.8 5.7C17.7 7 18.1 8.6 18.1 10.1C18.1 12.2 17.3 14.3 15.8 15.8C14.3 17.3 12.2 18 10.1 18ZM13.2 10.6L11.1 9.4V5C11.1 4.7 11 4.5 10.8 4.3C10.6 4.1 10.4 4 10.1 4C9.8 4 9.6 4.1 9.4 4.3C9.2 4.5 9.1 4.7 9.1 5V10V10.1C9.1 10.2 9.1 10.2 9.1 10.3C9.1 10.4 9.1 10.4 9.2 10.5C9.2 10.6 9.3 10.6 9.3 10.7L9.5 10.8L9.6 10.9L12.2 12.4C12.4 12.5 12.5 12.5 12.7 12.5C12.9 12.5 13.1 12.4 13.3 12.3C13.5 12.2 13.6 12 13.7 11.8C13.8 11.6 13.7 11.4 13.7 11.1C13.5 10.9 13.4 10.7 13.2 10.6Z" fill="#48EEF9"/>
</svg>
