<svg width="20" height="20" viewBox="0 0 20 20" fill="none" xmlns="http://www.w3.org/2000/svg">
<path d="M14.0985 8.3L9.09853 5.4C8.79852 5.2 8.39853 5.1 8.09853 5.1C7.79852 5.1 7.39852 5.2 7.09852 5.4C6.79852 5.6 6.49852 5.8 6.39852 6.1C6.19852 6.4 6.09852 6.8 6.09852 7.1V12.9C6.09852 13.2 6.19852 13.6 6.39852 13.9C6.59852 14.2 6.79852 14.4 7.09852 14.6C7.39852 14.8 7.79852 14.9 8.09853 14.9C8.39853 14.9 8.79852 14.8 9.09853 14.6L14.0985 11.7C14.3985 11.5 14.6985 11.3 14.7985 11C14.9985 10.7 15.0985 10.3 15.0985 10C15.0985 9.7 14.9985 9.3 14.7985 9C14.6985 8.7 14.3985 8.4 14.0985 8.3ZM13.0985 10L8.09853 12.9V7.1L13.0985 10ZM10.0985 0C8.09853 0 6.19852 0.6 4.49852 1.7C2.89852 2.8 1.59852 4.4 0.798524 6.2C-0.00147569 8 -0.101476 10 0.198524 12C0.598524 13.9 1.49852 15.7 2.89852 17.1C4.29852 18.5 6.09852 19.5 7.99852 19.8C9.89852 20.2 11.8985 20 13.7985 19.2C15.5985 18.4 17.1985 17.2 18.2985 15.5C19.3985 13.8 19.9985 11.9 19.9985 9.9C19.9985 8.6 19.6985 7.3 19.1985 6.1C18.6985 4.9 17.9985 3.8 16.9985 2.9C16.0985 2 14.9985 1.2 13.7985 0.7C12.6985 0.3 11.3985 0 10.0985 0ZM10.0985 18C8.49852 18 6.99852 17.5 5.69852 16.7C4.39852 15.8 3.29852 14.6 2.69852 13.1C2.09852 11.6 1.89852 10 2.19852 8.5C2.49852 7 3.29852 5.5 4.39852 4.4C5.49852 3.3 6.99852 2.5 8.49852 2.2C10.0985 1.9 11.6985 2 13.0985 2.7C14.5985 3.3 15.7985 4.3 16.6985 5.7C17.5985 7 17.9985 8.6 17.9985 10.1C17.9985 12.2 17.1985 14.3 15.6985 15.8C14.1985 17.3 12.1985 18 10.0985 18Z" fill="#58D7FF"/>
</svg>
