<svg width="23" height="16" viewBox="0 0 23 16" fill="none" xmlns="http://www.w3.org/2000/svg">
<g clip-path="url(#clip0)">
<path d="M22.1 5.40039C22.1 4.00039 21.8 2.60039 21.2 1.30039C20.8 0.800391 20.2 0.400391 19.5 0.300391C16.7 0.000390619 13.9 -0.0996094 11.1 0.000390626C8.29997 -0.0996094 5.49997 0.100391 2.79997 0.300391C2.29997 0.400391 1.69997 0.700391 1.29997 1.00039C0.39997 1.80039 0.299969 3.30039 0.199969 4.40039C0.0999695 6.60039 0.0999695 8.70039 0.199969 10.9004C0.199969 11.6004 0.299969 12.3004 0.499969 12.9004C0.599969 13.4004 0.89997 13.9004 1.19997 14.3004C1.59997 14.7004 2.09997 15.0004 2.69997 15.1004C4.89997 15.4004 6.99997 15.5004 9.19997 15.4004C12.7 15.5004 15.8 15.4004 19.4 15.1004C20 15.0004 20.5 14.7004 20.9 14.3004C21.2 14.0004 21.4 13.7004 21.5 13.3004C21.9 12.2004 22 11.0004 22 9.90039C22.1 9.40039 22.1 6.00039 22.1 5.40039ZM8.79997 10.6004V4.40039L14.7 7.50039C13.1 8.40039 10.9 9.40039 8.79997 10.6004Z" fill="#757AA5"/>
</g>
<defs>
<clipPath id="clip0">
<rect width="22" height="15.5" fill="white" transform="translate(0.0999756)"/>
</clipPath>
</defs>
</svg>
