<svg width="22" height="22" viewBox="0 0 22 22" fill="none" xmlns="http://www.w3.org/2000/svg">
<path d="M11.0001 0.916992C9.00579 0.916992 7.05628 1.50837 5.39809 2.61634C3.73989 3.72431 2.44748 5.29911 1.6843 7.1416C0.921117 8.98409 0.721433 11.0115 1.1105 12.9675C1.49957 14.9235 2.45991 16.7201 3.87009 18.1303C5.28027 19.5405 7.07695 20.5008 9.03293 20.8899C10.9889 21.279 13.0163 21.0793 14.8588 20.3161C16.7013 19.5529 18.2761 18.2605 19.3841 16.6023C20.492 14.9441 21.0834 12.9946 21.0834 11.0003C21.0803 8.32703 20.0169 5.76412 18.1266 3.87382C16.2363 1.98351 13.6734 0.920146 11.0001 0.916992ZM11.0001 19.2503C9.36839 19.2503 7.77334 18.7665 6.41663 17.8599C5.05993 16.9534 4.0025 15.665 3.37808 14.1575C2.75366 12.65 2.59028 10.9912 2.90861 9.39083C3.22694 7.79049 4.01267 6.32048 5.16645 5.16669C6.32024 4.01291 7.79025 3.22717 9.39059 2.90885C10.9909 2.59052 12.6497 2.7539 14.1572 3.37832C15.6647 4.00274 16.9532 5.06017 17.8597 6.41687C18.7662 7.77358 19.2501 9.36863 19.2501 11.0003C19.2474 13.1875 18.3774 15.2844 16.8308 16.831C15.2842 18.3776 13.1873 19.2477 11.0001 19.2503Z" fill="#959AC5"/>
<path d="M14.6668 10.0837H11.9168V7.33366C11.9168 7.09054 11.8202 6.85739 11.6483 6.68548C11.4764 6.51357 11.2432 6.41699 11.0001 6.41699C10.757 6.41699 10.5239 6.51357 10.3519 6.68548C10.18 6.85739 10.0835 7.09054 10.0835 7.33366V10.0837H7.33346C7.09035 10.0837 6.85719 10.1802 6.68528 10.3521C6.51337 10.5241 6.41679 10.7572 6.41679 11.0003C6.41679 11.2434 6.51337 11.4766 6.68528 11.6485C6.85719 11.8204 7.09035 11.917 7.33346 11.917H10.0835V14.667C10.0835 14.9101 10.18 15.1433 10.3519 15.3152C10.5239 15.4871 10.757 15.5837 11.0001 15.5837C11.2432 15.5837 11.4764 15.4871 11.6483 15.3152C11.8202 15.1433 11.9168 14.9101 11.9168 14.667V11.917H14.6668C14.9099 11.917 15.1431 11.8204 15.315 11.6485C15.4869 11.4766 15.5835 11.2434 15.5835 11.0003C15.5835 10.7572 15.4869 10.5241 15.315 10.3521C15.1431 10.1802 14.9099 10.0837 14.6668 10.0837Z" fill="#959AC5"/>
</svg>
