<?xml version="1.0" encoding="utf-8"?>
<!-- Generator: Adobe Illustrator 22.0.0, SVG Export Plug-In . SVG Version: 6.00 Build 0)  -->
<svg version="1.1" id="Layer_1" xmlns="http://www.w3.org/2000/svg" xmlns:xlink="http://www.w3.org/1999/xlink" x="0px" y="0px"
	 viewBox="0 0 10 6" style="enable-background:new 0 0 10 6;" xml:space="preserve">
<style type="text/css">
	.st0{fill:#464255;}
</style>
<path class="st0" d="M9.4,1.7C9.4,1.8,9.3,1.9,9.2,1.9L5.6,5.3C5.4,5.4,5.2,5.5,5,5.5h0c-0.2,0-0.4-0.1-0.6-0.2L0.8,1.9
	C0.6,1.8,0.5,1.6,0.5,1.3c0-0.2,0.1-0.4,0.3-0.6c0.2-0.1,0.4-0.2,0.6-0.2c0.2,0,0.4,0.1,0.6,0.2l3,2.8l3-2.8
	c0.1-0.1,0.2-0.1,0.3-0.2c0.1,0,0.2-0.1,0.3-0.1c0.1,0,0.2,0,0.3,0.1c0.1,0,0.2,0.1,0.3,0.2C9.3,0.8,9.4,0.9,9.4,1
	c0,0.1,0.1,0.2,0.1,0.3C9.5,1.5,9.5,1.6,9.4,1.7z"/>
</svg>
