<svg width="11" height="8" viewBox="0 0 11 8" fill="none" xmlns="http://www.w3.org/2000/svg">
<g clip-path="url(#clip0)">
<path d="M1.7 0.3C1.5 0.1 1.3 0 1 0C0.7 0 0.5 0.1 0.3 0.3C0.1 0.5 0 0.7 0 1C0 1.3 0.1 1.5 0.3 1.7L2.6 4L0.3 6.3C0.2 6.4 0.1 6.5 0.1 6.6C0 6.7 0 6.9 0 7C0 7.1 0 7.3 0.1 7.4C0.2 7.5 0.2 7.6 0.3 7.7C0.4 7.8 0.5 7.9 0.6 7.9C0.7 8 0.9 8 1 8C1.1 8 1.3 8 1.4 7.9C1.5 7.8 1.6 7.8 1.7 7.7L4.7 4.7C4.8 4.6 4.9 4.5 4.9 4.4C5 4.3 5 4.1 5 4C5 3.9 5 3.7 4.9 3.6C4.8 3.5 4.8 3.4 4.7 3.3L1.7 0.3ZM10.2 3.3L7.2 0.3C7 0.1 6.8 0 6.5 0C6.2 0 6 0.1 5.8 0.3C5.6 0.5 5.5 0.7 5.5 1C5.5 1.3 5.6 1.5 5.8 1.7L8.1 4L5.8 6.3C5.7 6.4 5.6 6.5 5.6 6.6C5.5 6.7 5.5 6.9 5.5 7C5.5 7.1 5.5 7.3 5.6 7.4C5.7 7.5 5.7 7.6 5.8 7.7C5.9 7.8 6 7.9 6.1 7.9C6.2 8 6.4 8 6.5 8C6.6 8 6.8 8 6.9 7.9C7 7.8 7.1 7.8 7.2 7.7L10.2 4.7C10.3 4.6 10.4 4.5 10.4 4.4C10.5 4.3 10.5 4.1 10.5 4C10.5 3.9 10.5 3.7 10.4 3.6C10.4 3.5 10.3 3.4 10.2 3.3Z" fill="#757AA5"/>
</g>
<defs>
<clipPath id="clip0">
<rect width="10.5" height="8" fill="white"/>
</clipPath>
</defs>
</svg>
