<svg width="15" height="15" viewBox="0 0 15 15" fill="none" xmlns="http://www.w3.org/2000/svg">
<path d="M13.3912 1.60878H11.7824V0.536261C11.7824 0.245148 11.5373 0 11.2462 0C10.9551 0 10.7099 0.245148 10.7099 0.536261V1.60878H4.29009V0.536261C4.29009 0.245148 4.04494 0 3.75383 0C3.4474 0 3.21757 0.245148 3.21757 0.536261V1.60878H1.60878C0.720123 1.60878 0 2.32891 0 3.21757V13.3912C0 14.2799 0.720123 15 1.60878 15H13.3912C14.2799 15 15 14.2799 15 13.3912V3.21757C15 2.32891 14.2799 1.60878 13.3912 1.60878ZM13.9275 13.3912C13.9275 13.6823 13.6823 13.9275 13.3912 13.9275H1.60878C1.31767 13.9275 1.07252 13.6823 1.07252 13.3912V6.41982H13.9275V13.3912ZM13.9275 5.36262H1.07252V3.21757C1.07252 2.92646 1.31767 2.68131 1.60878 2.68131H3.21757V3.75383C3.21757 4.04494 3.46272 4.29009 3.75383 4.29009C4.04494 4.29009 4.29009 4.04494 4.29009 3.75383V2.68131H10.7099V3.75383C10.7099 4.04494 10.9551 4.29009 11.2462 4.29009C11.5373 4.29009 11.7824 4.04494 11.7824 3.75383V2.68131H13.3912C13.6823 2.68131 13.9275 2.92646 13.9275 3.21757V5.36262Z" fill="black"/>
<path d="M3.21741 8.56471H4.28994C4.58105 8.56471 4.8262 8.31956 4.8262 8.02845C4.8262 7.73734 4.58105 7.49219 4.28994 7.49219H3.21741C2.9263 7.49219 2.68115 7.73734 2.68115 8.02845C2.68115 8.33488 2.91098 8.56471 3.21741 8.56471Z" fill="black"/>
<path d="M6.95618 8.56471H8.02871C8.31982 8.56471 8.56497 8.31956 8.56497 8.02845C8.56497 7.73734 8.31982 7.49219 8.02871 7.49219H6.95618C6.66507 7.49219 6.41992 7.73734 6.41992 8.02845C6.41992 8.33488 6.66507 8.56471 6.95618 8.56471Z" fill="black"/>
<path d="M10.7101 8.56471H11.7826C12.0737 8.56471 12.3189 8.31956 12.3189 8.02845C12.3189 7.73734 12.0737 7.49219 11.7826 7.49219H10.7101C10.419 7.49219 10.1738 7.73734 10.1738 8.02845C10.1738 8.33488 10.419 8.56471 10.7101 8.56471Z" fill="black"/>
<path d="M3.21741 10.7092H4.28994C4.58105 10.7092 4.8262 10.4641 4.8262 10.173C4.8262 9.88187 4.58105 9.63672 4.28994 9.63672H3.21741C2.9263 9.63672 2.68115 9.88187 2.68115 10.173C2.68115 10.4641 2.91098 10.7092 3.21741 10.7092Z" fill="black"/>
<path d="M6.95618 10.7092H8.02871C8.31982 10.7092 8.56497 10.4641 8.56497 10.173C8.56497 9.88187 8.31982 9.63672 8.02871 9.63672H6.95618C6.66507 9.63672 6.41992 9.88187 6.41992 10.173C6.41992 10.4641 6.66507 10.7092 6.95618 10.7092Z" fill="black"/>
<path d="M10.7101 10.7092H11.7826C12.0737 10.7092 12.3189 10.4641 12.3189 10.173C12.3189 9.88187 12.0737 9.63672 11.7826 9.63672H10.7101C10.419 9.63672 10.1738 9.88187 10.1738 10.173C10.1738 10.4641 10.419 10.7092 10.7101 10.7092Z" fill="black"/>
<path d="M3.21741 12.8557H4.28994C4.58105 12.8557 4.8262 12.6106 4.8262 12.3195C4.8262 12.0284 4.58105 11.7832 4.28994 11.7832H3.21741C2.9263 11.7832 2.68115 12.0284 2.68115 12.3195C2.68115 12.6106 2.91098 12.8557 3.21741 12.8557Z" fill="black"/>
<path d="M6.95618 12.8557H8.02871C8.31982 12.8557 8.56497 12.6106 8.56497 12.3195C8.56497 12.0284 8.31982 11.7832 8.02871 11.7832H6.95618C6.66507 11.7832 6.41992 12.0284 6.41992 12.3195C6.41992 12.6106 6.66507 12.8557 6.95618 12.8557Z" fill="black"/>
<path d="M10.7101 12.8557H11.7826C12.0737 12.8557 12.3189 12.6106 12.3189 12.3195C12.3189 12.0284 12.0737 11.7832 11.7826 11.7832H10.7101C10.419 11.7832 10.1738 12.0284 10.1738 12.3195C10.1738 12.6106 10.419 12.8557 10.7101 12.8557Z" fill="black"/>
</svg>
