<?xml version="1.0" encoding="utf-8"?>
<!-- Generator: Adobe Illustrator 22.0.0, SVG Export Plug-In . SVG Version: 6.00 Build 0)  -->
<svg version="1.1" id="Layer_1" xmlns="http://www.w3.org/2000/svg" xmlns:xlink="http://www.w3.org/1999/xlink" x="0px" y="0px"
	 viewBox="0 0 204.7 494.5" style="enable-background:new 0 0 204.7 494.5;" xml:space="preserve">
<style type="text/css">
	.st0{fill:#FFFFFF;}
</style>
<path class="st0" d="M172.3,157.3c13.9,1.2,26.1-9.1,27.3-23c0.1-0.8,0.1-1.6,0.1-2.5l-1.5-107c-0.3-13-10.5-23.7-23.5-24.5
	c-4.5-0.3-9.2-0.4-13.9-0.3l2.4,156.6L172.3,157.3z"/>
<path class="st0" d="M112.9,331.9c-15.8-14-25.9-46-26.7-83.3c-1.1-24.6,3.8-49.1,14.4-71.4c2.6-4.9,5.9-9.3,9.9-13.2
	c5.7-5.5,18.8-8.1,38.6-7.9L146.8,0.5c-35,3.8-68,18.4-94.3,41.9C12.1,83.9-1.1,176.8,0.1,249.8c1.1,73,17.1,165.6,58.7,205.9
	c7.6,6.9,16.1,12.8,25.2,17.6c21.6,12.1,45.6,19.4,70.3,21.3l-2.6-155.8C127.4,339.9,117.3,335.8,112.9,331.9L112.9,331.9z"/>
<path class="st0" d="M204.7,468.4l-1.8-107c-0.2-13.9-11.6-25-25.5-24.7c-0.8,0-1.7,0.1-2.5,0.2l-9.2,1l2.3,156.6
	c4.8-0.2,9.5-0.3,14-0.7C195,492.5,204.9,481.5,204.7,468.4L204.7,468.4z"/>
</svg>
