<svg width="20" height="21" viewBox="0 0 20 21" fill="none" xmlns="http://www.w3.org/2000/svg">
<g clip-path="url(#clip0)">
<path d="M19 13.9H5C4.7 13.9 4.5 13.8 4.3 13.6C4.1 13.4 4 13.2 4 12.9C4 12.6 4.1 12.4 4.3 12.2C4.5 12 4.7 11.9 5 11.9H15.4C16.1 11.9 16.7 11.7 17.2 11.3C17.7 10.9 18.1 10.3 18.3 9.7L20 3.2C20 3 20 2.9 20 2.8C20 2.6 19.9 2.5 19.8 2.4C19.7 2.3 19.6 2.2 19.4 2.1C19.3 2 19.1 2 18.9 2H4.7C4.5 1.4 4.1 0.9 3.6 0.6C3.1 0.2 2.5 0 1.9 0H1C0.7 0 0.5 0.1 0.3 0.3C0.1 0.5 0 0.7 0 1C0 1.3 0.1 1.5 0.3 1.7C0.5 1.9 0.7 2 1 2H1.9C2.1 2 2.4 2.1 2.5 2.2C2.7 2.3 2.8 2.5 2.9 2.8L3 3.3L4.7 10.1C3.9 10.1 3.2 10.5 2.6 11.1C2.1 11.7 1.8 12.5 1.8 13.3C1.8 14.1 2.2 14.8 2.8 15.4C3.4 15.9 4.2 16.2 5 16.2H5.2C5 16.6 5 17.1 5 17.6C5.1 18.1 5.2 18.5 5.5 18.9C5.8 19.3 6.1 19.6 6.6 19.8C7 20 7.5 20.1 8 20.1C8.5 20.1 9 20 9.4 19.8C9.8 19.6 10.2 19.3 10.5 18.9C10.8 18.5 11 18 11 17.6C11.1 17.1 11 16.6 10.8 16.2H13.2C13 16.6 13 17.1 13 17.6C13.1 18.1 13.2 18.5 13.5 18.9C13.8 19.3 14.1 19.6 14.6 19.8C15 20 15.5 20.1 16 20.1C16.5 20.1 17 20 17.4 19.8C17.8 19.6 18.2 19.3 18.5 18.9C18.8 18.5 19 18 19 17.6C19.1 17.1 19 16.6 18.8 16.2H19C19.3 16.2 19.5 16.1 19.7 15.9C19.9 15.7 20 15.5 20 15.2C20 14.9 19.9 14.7 19.7 14.5C19.5 14 19.3 13.9 19 13.9ZM17.7 3.9L16.4 9.1C16.3 9.3 16.2 9.5 16 9.7C15.8 9.8 15.6 9.9 15.4 9.9H6.8L5.3 3.9H17.7ZM8 17.9C7.8 17.9 7.6 17.8 7.4 17.7C7.2 17.6 7.1 17.4 7 17.3C6.9 17.1 6.9 16.9 6.9 16.7C6.9 16.5 7 16.3 7.2 16.2C7.3 16.1 7.5 16 7.7 15.9C7.9 15.9 8.1 15.9 8.3 16C8.5 16.1 8.6 16.2 8.7 16.4C8.8 16.6 8.9 16.8 8.9 17C8.9 17.3 8.8 17.5 8.6 17.7C8.5 17.8 8.3 17.9 8 17.9ZM16 17.9C15.8 17.9 15.6 17.8 15.4 17.7C15.2 17.6 15.1 17.4 15 17.3C14.9 17.1 14.9 16.9 14.9 16.7C14.9 16.5 15 16.3 15.2 16.2C15.3 16.1 15.5 16 15.7 15.9C15.9 15.9 16.1 15.9 16.3 16C16.5 16.1 16.6 16.2 16.7 16.4C16.8 16.6 16.9 16.8 16.9 17C16.9 17.3 16.8 17.5 16.6 17.7C16.5 17.8 16.3 17.9 16 17.9Z" fill="white"/>
</g>
<defs>
<clipPath id="clip0">
<rect width="20" height="20.1" fill="white"/>
</clipPath>
</defs>
</svg>
