<svg width="15" height="13" viewBox="0 0 15 13" fill="none" xmlns="http://www.w3.org/2000/svg">
<path d="M14.6076 0.511146C14.3364 0.206663 13.9567 0.0235672 13.5521 0.00212013C13.1474 -0.0193269 12.7508 0.12263 12.4496 0.396777L5.24379 9.32511L2.62764 6.63452C2.48666 6.48691 2.31802 6.36917 2.13155 6.28817C1.94509 6.20717 1.74454 6.16453 1.54161 6.16275C1.33868 6.16097 1.13743 6.20007 0.949605 6.27778C0.761778 6.35549 0.591137 6.47025 0.447638 6.61537C0.304139 6.76048 0.190655 6.93304 0.11381 7.12298C0.0369637 7.31292 -0.00170571 7.51643 5.77048e-05 7.72165C0.00182112 7.92686 0.0439821 8.12967 0.12408 8.31823C0.204179 8.50679 0.32061 8.67733 0.466582 8.8199L4.10824 12.5475C4.38506 12.8274 4.75749 12.9891 5.14876 12.9995C5.54003 13.0098 5.92032 12.868 6.21122 12.6032L14.4945 2.69343C14.7956 2.41916 14.9767 2.0352 14.9979 1.62597C15.0191 1.21673 14.8787 0.815736 14.6076 0.511146Z" fill="white"/>
</svg>
