<svg width="34" height="25" viewBox="0 0 34 25" fill="none" xmlns="http://www.w3.org/2000/svg">
<g clip-path="url(#clip0)">
<path d="M32.5039 0.711765C32.2667 0.47451 32.0294 0.237255 31.7922 0.237255C31.5549 0 31.0804 0 30.8431 0C30.6059 0 30.1314 0 29.8941 0.237255C29.6569 0.47451 29.4196 0.47451 29.1823 0.711765L11.3882 18.5059L4.03333 11.151C3.79608 10.9137 3.55882 10.6765 3.32157 10.6765C3.08431 10.6765 2.6098 10.4392 2.37255 10.4392C2.13529 10.4392 1.66078 10.4392 1.42353 10.6765C1.18627 10.9137 0.949019 10.9137 0.711765 11.151C0.47451 11.3882 0.237255 11.6255 0.237255 11.8627C0.237255 12.1 0 12.5745 0 12.8118C0 13.049 0 13.5235 0.237255 13.7608C0.47451 13.998 0.47451 14.2353 0.711765 14.4725L9.72745 23.4882C9.9647 23.7255 10.202 23.9627 10.4392 23.9627C10.6765 23.9627 11.151 24.2 11.3882 24.2C11.6255 24.2 12.1 24.2 12.3373 23.9627C12.5745 23.7255 12.8118 23.7255 13.049 23.4882L32.5039 4.03333C32.7412 3.79608 32.9784 3.55882 32.9784 3.32157C33.2157 3.08431 33.2157 2.6098 33.2157 2.37255C33.2157 2.13529 33.2157 1.66078 32.9784 1.42353C32.9784 1.18627 32.7412 0.94902 32.5039 0.711765Z" fill="#48EEF9"/>
</g>
<defs>
<clipPath id="clip0">
<rect width="33.2157" height="24.2" fill="white"/>
</clipPath>
</defs>
</svg>
