<?xml version="1.0" encoding="utf-8"?>
<!-- Generator: Adobe Illustrator 22.0.0, SVG Export Plug-In . SVG Version: 6.00 Build 0)  -->
<svg version="1.1" id="Layer_1" xmlns="http://www.w3.org/2000/svg" xmlns:xlink="http://www.w3.org/1999/xlink" x="0px" y="0px"
	 viewBox="0 0 15 13" style="enable-background:new 0 0 15 13;" xml:space="preserve">
<style type="text/css">
	.st0{fill:#191919;}
</style>
<path class="st0" d="M14.6,0.5C14.3,0.2,14,0,13.6,0c-0.4,0-0.8,0.1-1.1,0.4L5.2,9.3L2.6,6.6C2.5,6.5,2.3,6.4,2.1,6.3
	C1.9,6.2,1.7,6.2,1.5,6.2c-0.2,0-0.4,0-0.6,0.1C0.8,6.4,0.6,6.5,0.4,6.6C0.3,6.8,0.2,6.9,0.1,7.1C0,7.3,0,7.5,0,7.7
	c0,0.2,0,0.4,0.1,0.6c0.1,0.2,0.2,0.4,0.3,0.5l3.6,3.7c0.3,0.3,0.6,0.4,1,0.5c0.4,0,0.8-0.1,1.1-0.4l8.3-9.9C14.8,2.4,15,2,15,1.6
	C15,1.2,14.9,0.8,14.6,0.5z"/>
</svg>
