<svg width="90" height="90" viewBox="0 0 90 90" fill="none" xmlns="http://www.w3.org/2000/svg">
<circle cx="45" cy="45" r="45" fill="#0C145A"/>
<g clip-path="url(#clip0_582_26)">
<path d="M52.3582 43.4478L41.2985 32.5821C41.1045 32.3881 40.9104 32.194 40.7164 32.194C40.5224 32 40.1343 32 39.9403 32C39.7463 32 39.3582 32 39.1642 32.194C38.9701 32.3881 38.7761 32.3881 38.5821 32.5821C38.194 32.9701 38 33.3582 38 33.9403C38 34.5224 38.194 34.9104 38.5821 35.2985L48.0896 45L38.5821 54.7015C38.194 55.0896 38 55.4776 38 56.0597C38 56.6418 38.194 57.0299 38.5821 57.4179C38.7761 57.6119 38.9701 57.806 39.1642 57.806C39.3582 58 39.7463 58 39.9403 58C40.1343 58 40.5224 58 40.7164 57.806C40.9104 57.6119 41.1045 57.6119 41.2985 57.4179L52.3582 46.5522C52.5522 46.3582 52.7463 46.1642 52.7463 45.9701C52.9403 45.7761 52.9403 45.3881 52.9403 45.194C52.9403 45 52.9403 44.6119 52.7463 44.4179C52.7463 43.8358 52.5522 43.6418 52.3582 43.4478Z" fill="white"/>
</g>
<defs>
<clipPath id="clip0_582_26">
<rect width="14.9403" height="26" fill="white" transform="translate(38 32)"/>
</clipPath>
</defs>
</svg>
