<svg width="17" height="16" viewBox="0 0 17 16" fill="none" xmlns="http://www.w3.org/2000/svg">
<path d="M9.8 3.8999H3C1.3 3.8999 0 5.2999 0 6.8999V12.3999C0 14.0999 1.4 15.3999 3 15.3999H9.7C11.4 15.3999 12.7 13.9999 12.7 12.3999V6.8999C12.8 5.1999 11.4 3.8999 9.8 3.8999ZM1.8 6.8999C1.8 6.1999 2.3 5.6999 3 5.6999H9.7C10.4 5.6999 10.9 6.1999 10.9 6.8999V12.3999C10.9 13.0999 10.4 13.5999 9.7 13.5999H3C2.3 13.5999 1.8 13.0999 1.8 12.3999V6.8999Z" fill="white"/>
<path d="M13.5998 0H5.7998C5.1998 0 4.7998 0.4 4.7998 0.9C4.7998 1.4 5.1998 1.8 5.6998 1.8H13.4998C14.1998 1.8 14.6998 2.3 14.6998 3V9.6C14.6998 10.1 15.0998 10.5 15.5998 10.5C16.0998 10.5 16.4998 10.1 16.4998 9.6V3C16.5998 1.4 15.1998 0 13.5998 0Z" fill="white"/>
</svg>
