<svg width="14" height="14" viewBox="0 0 14 14" fill="none" xmlns="http://www.w3.org/2000/svg">
<path d="M2.33333 4.0835V11.0835C2.33333 11.5476 2.51771 11.9927 2.8459 12.3209C3.17409 12.6491 3.6192 12.8335 4.08333 12.8335H9.91667C10.3808 12.8335 10.8259 12.6491 11.1541 12.3209C11.4823 11.9927 11.6667 11.5476 11.6667 11.0835V4.0835C11.8214 4.0835 11.9697 4.02204 12.0791 3.91264C12.1885 3.80325 12.25 3.65487 12.25 3.50016C12.25 3.34545 12.1885 3.19708 12.0791 3.08768C11.9697 2.97829 11.8214 2.91683 11.6667 2.91683H9.33333V2.3335C9.33333 1.86937 9.14896 1.42425 8.82077 1.09606C8.49258 0.767871 8.04746 0.583496 7.58333 0.583496H6.41667C5.95254 0.583496 5.50742 0.767871 5.17923 1.09606C4.85104 1.42425 4.66667 1.86937 4.66667 2.3335V2.91683H2.33333C2.17862 2.91683 2.03025 2.97829 1.92085 3.08768C1.81146 3.19708 1.75 3.34545 1.75 3.50016C1.75 3.65487 1.81146 3.80325 1.92085 3.91264C2.03025 4.02204 2.17862 4.0835 2.33333 4.0835ZM5.83333 2.3335C5.83333 2.17879 5.89479 2.03041 6.00419 1.92102C6.11358 1.81162 6.26196 1.75016 6.41667 1.75016H7.58333C7.73804 1.75016 7.88642 1.81162 7.99581 1.92102C8.10521 2.03041 8.16667 2.17879 8.16667 2.3335V2.91683H5.83333V2.3335ZM3.5 4.0835H10.5V11.0835C10.5 11.2382 10.4385 11.3866 10.3291 11.496C10.2197 11.6054 10.0714 11.6668 9.91667 11.6668H4.08333C3.92862 11.6668 3.78025 11.6054 3.67085 11.496C3.56146 11.3866 3.5 11.2382 3.5 11.0835V4.0835Z" fill="#464255"/>
<path d="M5.25008 10.5C5.40479 10.5 5.55316 10.4385 5.66256 10.3291C5.77196 10.2197 5.83341 10.0714 5.83341 9.91667V5.83333C5.83341 5.67862 5.77196 5.53025 5.66256 5.42085C5.55316 5.31146 5.40479 5.25 5.25008 5.25C5.09537 5.25 4.947 5.31146 4.8376 5.42085C4.72821 5.53025 4.66675 5.67862 4.66675 5.83333V9.91667C4.66675 10.0714 4.72821 10.2197 4.8376 10.3291C4.947 10.4385 5.09537 10.5 5.25008 10.5Z" fill="#464255"/>
<path d="M8.75008 10.5C8.90479 10.5 9.05317 10.4385 9.16256 10.3291C9.27196 10.2197 9.33342 10.0714 9.33342 9.91667V5.83333C9.33342 5.67862 9.27196 5.53025 9.16256 5.42085C9.05317 5.31146 8.90479 5.25 8.75008 5.25C8.59537 5.25 8.447 5.31146 8.3376 5.42085C8.22821 5.53025 8.16675 5.67862 8.16675 5.83333V9.91667C8.16675 10.0714 8.22821 10.2197 8.3376 10.3291C8.447 10.4385 8.59537 10.5 8.75008 10.5Z" fill="#464255"/>
</svg>
