<svg width="15" height="15" viewBox="0 0 15 15" fill="none" xmlns="http://www.w3.org/2000/svg">
<path d="M6.91827 10.1266C6.91827 10.1899 6.91827 10.1899 6.91827 10.1266C6.97949 10.1899 7.04072 10.2532 7.10194 10.2532C7.16317 10.3165 7.28561 10.3165 7.34684 10.3165C7.40806 10.3165 7.53051 10.3165 7.59174 10.2532C7.59174 10.2532 7.65296 10.2532 7.65296 10.1899C7.71419 10.1899 7.77541 10.1266 7.83663 10.0633L10.4081 7.40506C10.653 7.1519 10.653 6.70886 10.4081 6.39241C10.1632 6.07595 9.73459 6.13924 9.42847 6.39241L7.95908 7.8481V0.696203C7.95908 0.316456 7.65296 0 7.28561 0C6.91827 0 6.73459 0.316456 6.73459 0.696203V8.03797L5.14276 6.4557C4.89786 6.20253 4.46929 6.20253 4.16317 6.4557C3.91827 6.70886 3.91827 7.1519 4.16317 7.46835L6.91827 10.1266Z" fill="#959AC4"/>
<path d="M14.3265 6.58228C13.9592 6.58228 13.6531 6.89873 13.6531 7.27848C13.6531 10.7595 10.898 13.6076 7.53061 13.6076C4.16327 13.6076 1.40816 10.7595 1.40816 7.27848C1.40816 6.89873 1.10204 6.58228 0.734694 6.58228C0.367347 6.58228 0 6.89873 0 7.27848C0 11.519 3.36735 15 7.46939 15C11.5714 15 14.9388 11.519 14.9388 7.27848C15 6.89873 14.6939 6.58228 14.3265 6.58228Z" fill="#959AC4"/>
</svg>
