<svg width="14" height="14" viewBox="0 0 14 14" fill="none" xmlns="http://www.w3.org/2000/svg">
<path d="M1.74997 12.8335H4.0833C4.16007 12.8339 4.23618 12.8192 4.30725 12.7902C4.37832 12.7611 4.44296 12.7184 4.49747 12.6643L11.4975 5.66429C11.5521 5.61007 11.5955 5.54555 11.6252 5.47446C11.6548 5.40338 11.67 5.32713 11.67 5.25013C11.67 5.17312 11.6548 5.09688 11.6252 5.02579C11.5955 4.95471 11.5521 4.89019 11.4975 4.83596L9.16414 2.50263C9.10991 2.44795 9.04539 2.40456 8.97431 2.37494C8.90322 2.34533 8.82698 2.33008 8.74997 2.33008C8.67296 2.33008 8.59672 2.34533 8.52563 2.37494C8.45455 2.40456 8.39003 2.44795 8.3358 2.50263L1.3358 9.50263C1.28174 9.55714 1.23897 9.62178 1.20994 9.69285C1.18091 9.76392 1.16619 9.84002 1.16664 9.91679V12.2501C1.16664 12.4048 1.22809 12.5532 1.33749 12.6626C1.44689 12.772 1.59526 12.8335 1.74997 12.8335ZM2.3333 10.156L8.74997 3.73929L10.2608 5.25013L3.84414 11.6668H2.3333V10.156Z" fill="#464255"/>
<path d="M10.3309 1.33562C10.2766 1.28123 10.212 1.23808 10.1409 1.20865C10.0699 1.17921 9.99369 1.16406 9.91677 1.16406C9.76143 1.16406 9.61245 1.22577 9.50261 1.33562C9.39276 1.44546 9.33105 1.59444 9.33105 1.74978C9.33105 1.90513 9.39276 2.05411 9.50261 2.16395L11.8359 4.49728C11.8902 4.55196 11.9547 4.59535 12.0258 4.62497C12.0969 4.65458 12.1731 4.66983 12.2501 4.66983C12.3271 4.66983 12.4034 4.65458 12.4744 4.62497C12.5455 4.59535 12.61 4.55196 12.6643 4.49728C12.7189 4.44305 12.7623 4.37854 12.792 4.30745C12.8216 4.23637 12.8368 4.16012 12.8368 4.08312C12.8368 4.00611 12.8216 3.92986 12.792 3.85878C12.7623 3.78769 12.7189 3.72318 12.6643 3.66895L10.3309 1.33562Z" fill="#464255"/>
</svg>
