<svg width="22" height="22" viewBox="0 0 22 22" fill="none" xmlns="http://www.w3.org/2000/svg">
<path d="M2.74995 20.1665H6.41662C6.53726 20.1672 6.65685 20.144 6.76853 20.0984C6.88021 20.0528 6.9818 19.9856 7.06745 19.9006L18.0674 8.90062C18.1534 8.8154 18.2216 8.71402 18.2681 8.60231C18.3146 8.49061 18.3386 8.37079 18.3386 8.24978C18.3386 8.12877 18.3146 8.00896 18.2681 7.89725C18.2216 7.78555 18.1534 7.68417 18.0674 7.59895L14.4008 3.93228C14.3156 3.84636 14.2142 3.77817 14.1025 3.73163C13.9908 3.68509 13.871 3.66113 13.7499 3.66113C13.6289 3.66113 13.5091 3.68509 13.3974 3.73163C13.2857 3.77817 13.1843 3.84636 13.0991 3.93228L2.09912 14.9323C2.01416 15.0179 1.94694 15.1195 1.90133 15.2312C1.85571 15.3429 1.83259 15.4625 1.83328 15.5831V19.2498C1.83328 19.4929 1.92986 19.7261 2.10177 19.898C2.27368 20.0699 2.50683 20.1665 2.74995 20.1665ZM3.66662 15.959L13.7499 5.87562L16.1241 8.24978L6.04078 18.3331H3.66662V15.959Z" fill="#959AC5"/>
<path d="M16.2343 2.09869C16.1488 2.01322 16.0473 1.94542 15.9357 1.89916C15.824 1.85291 15.7043 1.8291 15.5834 1.8291C15.3393 1.8291 15.1052 1.92607 14.9326 2.09869C14.76 2.2713 14.663 2.50541 14.663 2.74952C14.663 2.99363 14.76 3.22774 14.9326 3.40035L18.5993 7.06702C18.6845 7.15294 18.7859 7.22113 18.8976 7.26767C19.0093 7.31421 19.1291 7.33817 19.2501 7.33817C19.3711 7.33817 19.4909 7.31421 19.6026 7.26767C19.7143 7.22113 19.8157 7.15294 19.9009 7.06702C19.9868 6.98181 20.055 6.88042 20.1016 6.76872C20.1481 6.65701 20.1721 6.5372 20.1721 6.41619C20.1721 6.29518 20.1481 6.17536 20.1016 6.06366C20.055 5.95195 19.9868 5.85057 19.9009 5.76535L16.2343 2.09869Z" fill="#959AC5"/>
</svg>
