<svg width="16" height="16" viewBox="0 0 16 16" fill="none" xmlns="http://www.w3.org/2000/svg">
<path d="M4.66652 8.00061V10.6673C4.66652 10.8441 4.73675 11.0137 4.86178 11.1387C4.9868 11.2637 5.15637 11.3339 5.33318 11.3339H7.99985C8.08759 11.3345 8.17456 11.3176 8.25579 11.2845C8.33701 11.2513 8.41089 11.2024 8.47318 11.1406L13.3332 6.28728C13.759 5.85563 13.9978 5.27365 13.9978 4.66728C13.9978 4.06091 13.759 3.47893 13.3332 3.04728L12.9532 2.66728C12.5151 2.25378 11.9356 2.02344 11.3332 2.02344C10.7308 2.02344 10.1512 2.25378 9.71318 2.66728L4.85985 7.52728C4.79806 7.58957 4.74918 7.66345 4.716 7.74467C4.68282 7.8259 4.66601 7.91287 4.66652 8.00061ZM5.99985 8.27395L10.6665 3.60728C10.847 3.43759 11.0854 3.34312 11.3332 3.34312C11.5809 3.34312 11.8193 3.43759 11.9999 3.60728L12.3732 3.98061C12.5491 4.15792 12.6477 4.39754 12.6477 4.64728C12.6477 4.89702 12.5491 5.13664 12.3732 5.31395L7.70652 9.98061H5.99985V8.27395Z" fill="#464255"/>
<path d="M13.3333 8C13.1565 8 12.987 8.07024 12.8619 8.19526C12.7369 8.32029 12.6667 8.48986 12.6667 8.66667V12C12.6667 12.1768 12.5964 12.3464 12.4714 12.4714C12.3464 12.5964 12.1768 12.6667 12 12.6667H4C3.82319 12.6667 3.65362 12.5964 3.5286 12.4714C3.40357 12.3464 3.33333 12.1768 3.33333 12V4C3.33333 3.82319 3.40357 3.65362 3.5286 3.5286C3.65362 3.40357 3.82319 3.33333 4 3.33333H7.33333C7.51014 3.33333 7.67971 3.2631 7.80474 3.13807C7.92976 3.01305 8 2.84348 8 2.66667C8 2.48986 7.92976 2.32029 7.80474 2.19526C7.67971 2.07024 7.51014 2 7.33333 2H4C3.46957 2 2.96086 2.21071 2.58579 2.58579C2.21071 2.96086 2 3.46957 2 4V12C2 12.5304 2.21071 13.0391 2.58579 13.4142C2.96086 13.7893 3.46957 14 4 14H12C12.5304 14 13.0391 13.7893 13.4142 13.4142C13.7893 13.0391 14 12.5304 14 12V8.66667C14 8.48986 13.9298 8.32029 13.8047 8.19526C13.6797 8.07024 13.5101 8 13.3333 8Z" fill="#464255"/>
</svg>
