<svg width="24" height="24" viewBox="0 0 24 24" fill="none" xmlns="http://www.w3.org/2000/svg">
<path d="M12 0C5.4 0 0 5.4 0 12C0 18.6 5.4 24 12 24C18.6 24 24 18.6 24 12C24 5.4 18.6 0 12 0ZM12 22.5C6.2 22.5 1.5 17.8 1.5 12C1.5 6.2 6.2 1.5 12 1.5C17.8 1.5 22.5 6.2 22.5 12C22.5 17.8 17.8 22.5 12 22.5Z" fill="#959AC5"/>
<path d="M8.30005 9.80078C9.12848 9.80078 9.80005 9.12921 9.80005 8.30078C9.80005 7.47235 9.12848 6.80078 8.30005 6.80078C7.47162 6.80078 6.80005 7.47235 6.80005 8.30078C6.80005 9.12921 7.47162 9.80078 8.30005 9.80078Z" fill="#959AC5"/>
<path d="M15.8 9.80078C16.6285 9.80078 17.3 9.12921 17.3 8.30078C17.3 7.47235 16.6285 6.80078 15.8 6.80078C14.9716 6.80078 14.3 7.47235 14.3 8.30078C14.3 9.12921 14.9716 9.80078 15.8 9.80078Z" fill="#959AC5"/>
<path d="M17.3 12C17.3 14.9 14.9 17.3 12 17.3C9.10005 17.3 6.80005 14.9 6.80005 12H5.30005C5.30005 15.7 8.30005 18.8 12.1 18.8C15.9 18.8 18.9 15.8 18.9 12H17.3Z" fill="#959AC5"/>
</svg>
