<svg width="19" height="19" viewBox="0 0 19 19" fill="none" xmlns="http://www.w3.org/2000/svg">
<path d="M17.3681 7.94528L9.78965 15.6303C8.95298 16.509 7.81447 17.0267 6.61101 17.0756C5.40756 17.1246 4.23183 16.7011 3.32846 15.8931C2.88734 15.4719 2.53414 14.9651 2.28983 14.4028C2.04551 13.8405 1.91506 13.2341 1.9062 12.6197C1.89735 12.0053 2.01028 11.3953 2.23829 10.826C2.4663 10.2567 2.80474 9.73967 3.23354 9.30554L9.68809 2.75934C10.197 2.25822 10.8799 1.98028 11.5892 1.98559C12.2984 1.99089 12.9772 2.27901 13.4788 2.78769C13.9803 3.29637 14.2644 3.98477 14.2696 4.70413C14.2749 5.42349 14.0008 6.11606 13.5067 6.63219L7.05217 13.1784C6.88565 13.3387 6.6648 13.4281 6.43519 13.4281C6.20557 13.4281 5.98472 13.3387 5.81821 13.1784C5.6559 13.0117 5.56489 12.7869 5.56489 12.5527C5.56489 12.3184 5.6559 12.0936 5.81821 11.9269L10.979 6.69284C11.1572 6.51105 11.257 6.2649 11.2563 6.00854C11.2555 5.75218 11.1544 5.5066 10.9752 5.32584C10.796 5.14507 10.5533 5.04393 10.3005 5.04465C10.0477 5.04537 9.80558 5.1479 9.62734 5.32969L4.46655 10.5618C3.94737 11.09 3.65584 11.8054 3.65584 12.5512C3.65584 13.297 3.94737 14.0124 4.46655 14.5406C4.99487 15.0521 5.69719 15.3375 6.42759 15.3375C7.158 15.3375 7.86032 15.0521 8.38864 14.5406L14.8432 7.99438C15.2772 7.5627 15.6226 7.04803 15.8593 6.48013C16.096 5.91222 16.2193 5.30236 16.2221 4.68582C16.2249 4.06927 16.1072 3.45828 15.8757 2.88817C15.6442 2.31807 15.3036 1.80016 14.8735 1.36442C14.4434 0.928674 13.9324 0.583734 13.3701 0.349549C12.8077 0.115365 12.2052 -0.00341696 11.5973 7.48058e-05C10.9893 0.00356657 10.3882 0.129262 9.82844 0.369892C9.26873 0.610522 8.76162 0.961309 8.33643 1.40197L1.88188 7.94817C1.27362 8.56476 0.793686 9.29899 0.470544 10.1073C0.147403 10.9156 -0.0123571 11.7815 0.000745367 12.6536C0.0138478 13.5257 0.199545 14.3862 0.546819 15.1842C0.894092 15.9821 1.39587 16.7011 2.02236 17.2986C3.19799 18.4067 4.74775 19.0155 6.35261 18.9997C8.14532 18.9992 9.86443 18.2765 11.1318 16.9906L18.7102 9.30458C18.8009 9.21578 18.8732 9.10955 18.9229 8.9921C18.9727 8.87465 18.9989 8.74833 19 8.6205C19.0011 8.49268 18.977 8.36592 18.9293 8.24761C18.8816 8.1293 18.8111 8.02181 18.722 7.93142C18.6329 7.84104 18.5269 7.76955 18.4102 7.72115C18.2936 7.67274 18.1686 7.64839 18.0426 7.6495C17.9165 7.65061 17.792 7.67717 17.6762 7.72762C17.5604 7.77807 17.4556 7.85141 17.3681 7.94336V7.94528Z" fill="#959AC5"/>
</svg>
