<?xml version="1.0" encoding="utf-8"?>
<!-- Generator: Adobe Illustrator 22.0.0, SVG Export Plug-In . SVG Version: 6.00 Build 0)  -->
<svg version="1.1" id="Layer_1" xmlns="http://www.w3.org/2000/svg" xmlns:xlink="http://www.w3.org/1999/xlink" x="0px" y="0px"
	 viewBox="0 0 512 512" style="enable-background:new 0 0 512 512;" xml:space="preserve">
<style type="text/css">
	.st0{fill:#464255;}
</style>
<path class="st0" d="M452,112.6L344,4.6c-3-3-6.9-4.6-11-4.6H176.6C168,0,161,7,161,15.6V105H71.6C63,105,56,112,56,120.6v375.8
	c0,8.6,7,15.6,15.6,15.6h264.4c8.6,0,15.6-7,15.6-15.6V407H441c8.6,0,15.6-7,15.6-15.6V123.6C456.5,119.6,455,115.6,452,112.6z
	 M425.4,375.8h-73.9V228.6c0-4-1.6-8-4.6-11l-108-108c-2.9-2.9-6.9-4.6-11-4.6h-35.7V31.2h125.2v92.4c0,8.6,7,15.6,15.6,15.6h92.4
	V375.8z M320.4,480.8H87.2V136.2h125.2v92.4c0,8.6,7,15.6,15.6,15.6h92.4V480.8z M243.5,158.2l54.8,54.8h-54.8V158.2z M403.4,108
	h-54.8V53.2C355.4,60,397.9,102.6,403.4,108z"/>
</svg>
