<svg width="98" height="433" viewBox="0 0 98 433" fill="none" xmlns="http://www.w3.org/2000/svg">
<g clip-path="url(#clip0)">
<path d="M7 114.9C7 116.8 5.4 118.4 3.5 118.4C1.6 118.4 0 116.8 0 114.9C0 113 1.6 111.4 3.5 111.4C5.5 111.4 7 113 7 114.9Z" fill="#3546AB"/>
<path d="M37.2 114.9C37.2 116.8 35.6 118.4 33.7 118.4C31.8 118.4 30.2 116.8 30.2 114.9C30.2 113 31.8 111.4 33.7 111.4C35.6 111.4 37.2 113 37.2 114.9Z" fill="#3546AB"/>
<path d="M67.4 114.9C67.4 116.8 65.8 118.4 63.9 118.4C62 118.4 60.4 116.8 60.4 114.9C60.4 113 62 111.4 63.9 111.4C65.8 111.4 67.4 113 67.4 114.9Z" fill="#3546AB"/>
<path d="M97.6 114.9C97.6 116.8 96 118.4 94.1 118.4C92.2 118.4 90.6 116.8 90.6 114.9C90.6 113 92.2 111.4 94.1 111.4C96 111.4 97.6 113 97.6 114.9Z" fill="#3546AB"/>
<path d="M7 143.6C7 145.5 5.4 147.1 3.5 147.1C1.6 147.1 0 145.5 0 143.6C0 141.7 1.6 140.1 3.5 140.1C5.5 140.1 7 141.6 7 143.6Z" fill="#3546AB"/>
<path d="M37.2 143.6C37.2 145.5 35.6 147.1 33.7 147.1C31.8 147.1 30.2 145.5 30.2 143.6C30.2 141.7 31.8 140.1 33.7 140.1C35.6 140.1 37.2 141.6 37.2 143.6Z" fill="#3546AB"/>
<path d="M67.4 143.6C67.4 145.5 65.8 147.1 63.9 147.1C62 147.1 60.4 145.5 60.4 143.6C60.4 141.7 62 140.1 63.9 140.1C65.8 140.1 67.4 141.6 67.4 143.6Z" fill="#3546AB"/>
<path d="M97.6 143.6C97.6 145.5 96 147.1 94.1 147.1C92.2 147.1 90.6 145.5 90.6 143.6C90.6 141.7 92.2 140.1 94.1 140.1C96 140.1 97.6 141.6 97.6 143.6Z" fill="#3546AB"/>
<path d="M7 172.2C7 174.1 5.4 175.7 3.5 175.7C1.6 175.7 0 174.1 0 172.2C0 170.3 1.6 168.7 3.5 168.7C5.5 168.7 7 170.3 7 172.2Z" fill="#3546AB"/>
<path d="M37.2 172.2C37.2 174.1 35.6 175.7 33.7 175.7C31.8 175.7 30.2 174.1 30.2 172.2C30.2 170.3 31.8 168.7 33.7 168.7C35.6 168.7 37.2 170.3 37.2 172.2Z" fill="#3546AB"/>
<path d="M67.4 172.2C67.4 174.1 65.8 175.7 63.9 175.7C62 175.7 60.4 174.1 60.4 172.2C60.4 170.3 62 168.7 63.9 168.7C65.8 168.7 67.4 170.3 67.4 172.2Z" fill="#3546AB"/>
<path d="M97.6 172.2C97.6 174.1 96 175.7 94.1 175.7C92.2 175.7 90.6 174.1 90.6 172.2C90.6 170.3 92.2 168.7 94.1 168.7C96 168.7 97.6 170.3 97.6 172.2Z" fill="#3546AB"/>
<path d="M7 200.8C7 202.7 5.4 204.3 3.5 204.3C1.6 204.3 0 202.7 0 200.8C0 198.9 1.6 197.3 3.5 197.3C5.5 197.3 7 198.9 7 200.8Z" fill="#3546AB"/>
<path d="M37.2 200.8C37.2 202.7 35.6 204.3 33.7 204.3C31.8 204.3 30.2 202.7 30.2 200.8C30.2 198.9 31.8 197.3 33.7 197.3C35.6 197.3 37.2 198.9 37.2 200.8Z" fill="#3546AB"/>
<path d="M67.4 200.8C67.4 202.7 65.8 204.3 63.9 204.3C62 204.3 60.4 202.7 60.4 200.8C60.4 198.9 62 197.3 63.9 197.3C65.8 197.3 67.4 198.9 67.4 200.8Z" fill="#3546AB"/>
<path d="M97.6 200.8C97.6 202.7 96 204.3 94.1 204.3C92.2 204.3 90.6 202.7 90.6 200.8C90.6 198.9 92.2 197.3 94.1 197.3C96 197.3 97.6 198.9 97.6 200.8Z" fill="#3546AB"/>
<path d="M7 3.5C7 5.5 5.5 7 3.5 7C1.6 7 0 5.5 0 3.5C0 1.6 1.6 0 3.5 0C5.5 0 7 1.6 7 3.5Z" fill="#3546AB"/>
<path d="M37.2 3.5C37.2 5.4 35.6 7 33.7 7C31.8 7 30.2 5.4 30.2 3.5C30.2 1.6 31.8 0 33.7 0C35.6 0 37.2 1.6 37.2 3.5Z" fill="#3546AB"/>
<path d="M67.4 3.5C67.4 5.4 65.8 7 63.9 7C62 7 60.4 5.4 60.4 3.5C60.4 1.6 62 0 63.9 0C65.8 0 67.4 1.6 67.4 3.5Z" fill="#3546AB"/>
<path d="M97.6 3.5C97.6 5.5 96 7 94.1 7C92.2 7 90.6 5.4 90.6 3.5C90.6 1.6 92.2 0 94.1 0C96 0 97.6 1.6 97.6 3.5Z" fill="#3546AB"/>
<path d="M7 32.1001C7 34.0001 5.4 35.6001 3.5 35.6001C1.6 35.6001 0 34.0001 0 32.1001C0 30.2001 1.6 28.6001 3.5 28.6001C5.5 28.6001 7 30.2001 7 32.1001Z" fill="#3546AB"/>
<path d="M37.2 32.1001C37.2 34.0001 35.6 35.6001 33.7 35.6001C31.8 35.6001 30.2 34.0001 30.2 32.1001C30.2 30.2001 31.8 28.6001 33.7 28.6001C35.6 28.6001 37.2 30.2001 37.2 32.1001Z" fill="#3546AB"/>
<path d="M67.4 32.1001C67.4 34.0001 65.8 35.6001 63.9 35.6001C62 35.6001 60.4 34.0001 60.4 32.1001C60.4 30.2001 62 28.6001 63.9 28.6001C65.8 28.6001 67.4 30.2001 67.4 32.1001Z" fill="#3546AB"/>
<path d="M97.6 32.1001C97.6 34.0001 96 35.6001 94.1 35.6001C92.2 35.6001 90.6 34.0001 90.6 32.1001C90.6 30.2001 92.2 28.6001 94.1 28.6001C96 28.6001 97.6 30.2001 97.6 32.1001Z" fill="#3546AB"/>
<path d="M7 60.8C7 62.7 5.4 64.3001 3.5 64.3001C1.6 64.3001 0 62.7 0 60.8C0 58.9 1.6 57.3 3.5 57.3C5.5 57.3 7 58.8 7 60.8Z" fill="#3546AB"/>
<path d="M37.2 60.8C37.2 62.7 35.6 64.3001 33.7 64.3001C31.8 64.3001 30.2 62.7 30.2 60.8C30.2 58.9 31.8 57.3 33.7 57.3C35.6 57.3 37.2 58.8 37.2 60.8Z" fill="#3546AB"/>
<path d="M67.4 60.8C67.4 62.7 65.8 64.3001 63.9 64.3001C62 64.3001 60.4 62.7 60.4 60.8C60.4 58.9 62 57.3 63.9 57.3C65.8 57.3 67.4 58.8 67.4 60.8Z" fill="#3546AB"/>
<path d="M97.6 60.8C97.6 62.7 96 64.3001 94.1 64.3001C92.2 64.3001 90.6 62.7 90.6 60.8C90.6 58.9 92.2 57.3 94.1 57.3C96 57.3 97.6 58.8 97.6 60.8Z" fill="#3546AB"/>
<path d="M7 89.3999C7 91.2999 5.4 92.8999 3.5 92.8999C1.6 92.8999 0 91.2999 0 89.3999C0 87.4999 1.6 85.8999 3.5 85.8999C5.5 85.8999 7 87.4999 7 89.3999Z" fill="#3546AB"/>
<path d="M37.2 89.3999C37.2 91.2999 35.6 92.8999 33.7 92.8999C31.8 92.8999 30.2 91.2999 30.2 89.3999C30.2 87.4999 31.8 85.8999 33.7 85.8999C35.6 85.8999 37.2 87.4999 37.2 89.3999Z" fill="#3546AB"/>
<path d="M67.4 89.3999C67.4 91.2999 65.8 92.8999 63.9 92.8999C62 92.8999 60.4 91.2999 60.4 89.3999C60.4 87.4999 62 85.8999 63.9 85.8999C65.8 85.8999 67.4 87.4999 67.4 89.3999Z" fill="#3546AB"/>
<path d="M97.6 89.3999C97.6 91.2999 96 92.8999 94.1 92.8999C92.2 92.8999 90.6 91.2999 90.6 89.3999C90.6 87.4999 92.2 85.8999 94.1 85.8999C96 85.8999 97.6 87.4999 97.6 89.3999Z" fill="#3546AB"/>
</g>
<g clip-path="url(#clip1)">
<path d="M7 342.9C7 344.8 5.4 346.4 3.5 346.4C1.6 346.4 0 344.8 0 342.9C0 341 1.6 339.4 3.5 339.4C5.5 339.4 7 341 7 342.9Z" fill="#3546AB"/>
<path d="M37.2 342.9C37.2 344.8 35.6 346.4 33.7 346.4C31.8 346.4 30.2 344.8 30.2 342.9C30.2 341 31.8 339.4 33.7 339.4C35.6 339.4 37.2 341 37.2 342.9Z" fill="#3546AB"/>
<path d="M67.4 342.9C67.4 344.8 65.8 346.4 63.9 346.4C62 346.4 60.4 344.8 60.4 342.9C60.4 341 62 339.4 63.9 339.4C65.8 339.4 67.4 341 67.4 342.9Z" fill="#3546AB"/>
<path d="M97.6 342.9C97.6 344.8 96 346.4 94.1 346.4C92.2 346.4 90.6 344.8 90.6 342.9C90.6 341 92.2 339.4 94.1 339.4C96 339.4 97.6 341 97.6 342.9Z" fill="#3546AB"/>
<path d="M7 371.6C7 373.5 5.4 375.1 3.5 375.1C1.6 375.1 0 373.5 0 371.6C0 369.7 1.6 368.1 3.5 368.1C5.5 368.1 7 369.6 7 371.6Z" fill="#3546AB"/>
<path d="M37.2 371.6C37.2 373.5 35.6 375.1 33.7 375.1C31.8 375.1 30.2 373.5 30.2 371.6C30.2 369.7 31.8 368.1 33.7 368.1C35.6 368.1 37.2 369.6 37.2 371.6Z" fill="#3546AB"/>
<path d="M67.4 371.6C67.4 373.5 65.8 375.1 63.9 375.1C62 375.1 60.4 373.5 60.4 371.6C60.4 369.7 62 368.1 63.9 368.1C65.8 368.1 67.4 369.6 67.4 371.6Z" fill="#3546AB"/>
<path d="M97.6 371.6C97.6 373.5 96 375.1 94.1 375.1C92.2 375.1 90.6 373.5 90.6 371.6C90.6 369.7 92.2 368.1 94.1 368.1C96 368.1 97.6 369.6 97.6 371.6Z" fill="#3546AB"/>
<path d="M7 400.2C7 402.1 5.4 403.7 3.5 403.7C1.6 403.7 0 402.1 0 400.2C0 398.3 1.6 396.7 3.5 396.7C5.5 396.7 7 398.3 7 400.2Z" fill="#3546AB"/>
<path d="M37.2 400.2C37.2 402.1 35.6 403.7 33.7 403.7C31.8 403.7 30.2 402.1 30.2 400.2C30.2 398.3 31.8 396.7 33.7 396.7C35.6 396.7 37.2 398.3 37.2 400.2Z" fill="#3546AB"/>
<path d="M67.4 400.2C67.4 402.1 65.8 403.7 63.9 403.7C62 403.7 60.4 402.1 60.4 400.2C60.4 398.3 62 396.7 63.9 396.7C65.8 396.7 67.4 398.3 67.4 400.2Z" fill="#3546AB"/>
<path d="M97.6 400.2C97.6 402.1 96 403.7 94.1 403.7C92.2 403.7 90.6 402.1 90.6 400.2C90.6 398.3 92.2 396.7 94.1 396.7C96 396.7 97.6 398.3 97.6 400.2Z" fill="#3546AB"/>
<path d="M7 428.8C7 430.7 5.4 432.3 3.5 432.3C1.6 432.3 0 430.7 0 428.8C0 426.9 1.6 425.3 3.5 425.3C5.5 425.3 7 426.9 7 428.8Z" fill="#3546AB"/>
<path d="M37.2 428.8C37.2 430.7 35.6 432.3 33.7 432.3C31.8 432.3 30.2 430.7 30.2 428.8C30.2 426.9 31.8 425.3 33.7 425.3C35.6 425.3 37.2 426.9 37.2 428.8Z" fill="#3546AB"/>
<path d="M67.4 428.8C67.4 430.7 65.8 432.3 63.9 432.3C62 432.3 60.4 430.7 60.4 428.8C60.4 426.9 62 425.3 63.9 425.3C65.8 425.3 67.4 426.9 67.4 428.8Z" fill="#3546AB"/>
<path d="M97.6 428.8C97.6 430.7 96 432.3 94.1 432.3C92.2 432.3 90.6 430.7 90.6 428.8C90.6 426.9 92.2 425.3 94.1 425.3C96 425.3 97.6 426.9 97.6 428.8Z" fill="#3546AB"/>
<path d="M7 231.5C7 233.5 5.5 235 3.5 235C1.6 235 0 233.5 0 231.5C0 229.6 1.6 228 3.5 228C5.5 228 7 229.6 7 231.5Z" fill="#3546AB"/>
<path d="M37.2 231.5C37.2 233.4 35.6 235 33.7 235C31.8 235 30.2 233.4 30.2 231.5C30.2 229.6 31.8 228 33.7 228C35.6 228 37.2 229.6 37.2 231.5Z" fill="#3546AB"/>
<path d="M67.4 231.5C67.4 233.4 65.8 235 63.9 235C62 235 60.4 233.4 60.4 231.5C60.4 229.6 62 228 63.9 228C65.8 228 67.4 229.6 67.4 231.5Z" fill="#3546AB"/>
<path d="M97.6 231.5C97.6 233.5 96 235 94.1 235C92.2 235 90.6 233.4 90.6 231.5C90.6 229.6 92.2 228 94.1 228C96 228 97.6 229.6 97.6 231.5Z" fill="#3546AB"/>
<path d="M7 260.1C7 262 5.4 263.6 3.5 263.6C1.6 263.6 0 262 0 260.1C0 258.2 1.6 256.6 3.5 256.6C5.5 256.6 7 258.2 7 260.1Z" fill="#3546AB"/>
<path d="M37.2 260.1C37.2 262 35.6 263.6 33.7 263.6C31.8 263.6 30.2 262 30.2 260.1C30.2 258.2 31.8 256.6 33.7 256.6C35.6 256.6 37.2 258.2 37.2 260.1Z" fill="#3546AB"/>
<path d="M67.4 260.1C67.4 262 65.8 263.6 63.9 263.6C62 263.6 60.4 262 60.4 260.1C60.4 258.2 62 256.6 63.9 256.6C65.8 256.6 67.4 258.2 67.4 260.1Z" fill="#3546AB"/>
<path d="M97.6 260.1C97.6 262 96 263.6 94.1 263.6C92.2 263.6 90.6 262 90.6 260.1C90.6 258.2 92.2 256.6 94.1 256.6C96 256.6 97.6 258.2 97.6 260.1Z" fill="#3546AB"/>
<path d="M7 288.8C7 290.7 5.4 292.3 3.5 292.3C1.6 292.3 0 290.7 0 288.8C0 286.9 1.6 285.3 3.5 285.3C5.5 285.3 7 286.8 7 288.8Z" fill="#3546AB"/>
<path d="M37.2 288.8C37.2 290.7 35.6 292.3 33.7 292.3C31.8 292.3 30.2 290.7 30.2 288.8C30.2 286.9 31.8 285.3 33.7 285.3C35.6 285.3 37.2 286.8 37.2 288.8Z" fill="#3546AB"/>
<path d="M67.4 288.8C67.4 290.7 65.8 292.3 63.9 292.3C62 292.3 60.4 290.7 60.4 288.8C60.4 286.9 62 285.3 63.9 285.3C65.8 285.3 67.4 286.8 67.4 288.8Z" fill="#3546AB"/>
<path d="M97.6 288.8C97.6 290.7 96 292.3 94.1 292.3C92.2 292.3 90.6 290.7 90.6 288.8C90.6 286.9 92.2 285.3 94.1 285.3C96 285.3 97.6 286.8 97.6 288.8Z" fill="#3546AB"/>
<path d="M7 317.4C7 319.3 5.4 320.9 3.5 320.9C1.6 320.9 0 319.3 0 317.4C0 315.5 1.6 313.9 3.5 313.9C5.5 313.9 7 315.5 7 317.4Z" fill="#3546AB"/>
<path d="M37.2 317.4C37.2 319.3 35.6 320.9 33.7 320.9C31.8 320.9 30.2 319.3 30.2 317.4C30.2 315.5 31.8 313.9 33.7 313.9C35.6 313.9 37.2 315.5 37.2 317.4Z" fill="#3546AB"/>
<path d="M67.4 317.4C67.4 319.3 65.8 320.9 63.9 320.9C62 320.9 60.4 319.3 60.4 317.4C60.4 315.5 62 313.9 63.9 313.9C65.8 313.9 67.4 315.5 67.4 317.4Z" fill="#3546AB"/>
<path d="M97.6 317.4C97.6 319.3 96 320.9 94.1 320.9C92.2 320.9 90.6 319.3 90.6 317.4C90.6 315.5 92.2 313.9 94.1 313.9C96 313.9 97.6 315.5 97.6 317.4Z" fill="#3546AB"/>
</g>
<defs>
<clipPath id="clip0">
<rect width="97.6" height="204.3" fill="white"/>
</clipPath>
<clipPath id="clip1">
<rect width="97.6" height="204.3" fill="white" transform="translate(0 228)"/>
</clipPath>
</defs>
</svg>
