<svg width="73" height="73" viewBox="0 0 73 73" fill="none" xmlns="http://www.w3.org/2000/svg">
<g clip-path="url(#clip0)">
<path d="M30.1 37.8C30.3 38 30.5 38.1 30.7 38.1C30.9 38.3 30.3 38.2 30.5 38.1C30.7 38.1 32 38 32.2 37.8C32.4 37.8 32.5 37.6 32.7 37.3L38.9 28.6C39.2 28.2 39.3 27.8 39.2 27.2C39.1 26.7 38.9 26.3 38.4 26C37.9 25.7 37.6 25.6 37 25.7C36.5 25.8 36.1 26 35.8 26.5L30.7 33.7L28.2 32C27.8 31.7 27.4 31.6 26.8 31.7C26.3 31.8 25.9 32 25.6 32.5C25.3 32.9 25.2 33.3 25.3 33.9C25.4 34.4 25.6 34.8 26.1 35.1L30.1 37.8Z" fill="#58D7FF"/>
<path d="M72.3 14.4C71.9 14 71.6 13.8 71 13.8H16C15.4 13.8 15.1 14 14.7 14.4C14.3 14.8 14.1 15.1 14.1 15.7V70.8001C14.1 71.4001 14.3 71.7 14.7 72.1C15.1 72.5 15.4 72.7 16 72.7H71.1C71.7 72.7 72 72.5 72.4 72.1C72.8 71.7 73 71.4001 73 70.8001V15.7C72.9 15.1 72.7 14.8 72.3 14.4ZM69.2 68.9001H17.8V17.5H69.2V68.9001Z" fill="#3546AB"/>
<path d="M9.9 47.1H3.7V3.7H45.1V10H48.8V1.8C48.8 1.2 48.6 0.9 48.2 0.5C47.8 0.2 47.4 0 46.9 0H1.8C1.3 0 0.9 0.2 0.6 0.6C0.2 0.9 0 1.3 0 1.8V48.9C0 49.5 0.2 49.8 0.6 50.2C1 50.6 1.3 50.8 1.9 50.8H10V47.1H9.9Z" fill="#3546AB"/>
<path d="M34.2131 46.2684L24.5966 55.885L27.2835 58.572L36.9001 48.9554L34.2131 46.2684Z" fill="#FB2B76"/>
<path d="M24.6839 48.7443L34.3004 58.3608L36.9874 55.6739L27.3708 46.0573L24.6839 48.7443Z" fill="#FB2B76"/>
<path d="M59.6 30.5H43.1V34.1H59.6V30.5Z" fill="#3546AB"/>
<path d="M65.1 50.5H43.1V54.1H65.1V50.5Z" fill="#FB2B76"/>
</g>
<defs>
<clipPath id="clip0">
<rect width="72.9" height="72.6" fill="white"/>
</clipPath>
</defs>
</svg>
