<svg width="61" height="72" viewBox="0 0 61 72" fill="none" xmlns="http://www.w3.org/2000/svg">
<path d="M36.1409 1C37.2685 1.4698 37.7383 2.4094 37.7383 3.63087C37.7383 4.57047 38.2081 4.85235 38.9597 5.22819C47.792 9.08054 52.7718 15.8456 53.7114 25.4295C53.8993 26.9329 53.7114 28.4362 53.7114 30.0336C54.9329 30.0336 55.9664 30.0336 57 30.0336C58.5034 30.0336 59.255 30.8792 59.255 32.2886C59.255 34.8255 59.255 37.3624 59.255 39.9933C59.255 41.4966 58.4094 42.3423 56.906 42.3423C56.6242 42.3423 56.2483 42.3423 56.0604 42.3423C56.0604 44.5034 56.1544 46.6644 56.0604 48.7315C56.0604 49.8591 55.7785 50.8926 55.4966 51.9262C55.2148 53.1476 54.557 53.7114 53.2416 53.7114C51.9262 53.7114 50.6107 53.7114 49.3893 53.7114C48.9195 53.7114 48.7315 53.8993 48.5436 54.2752C47.8859 55.4027 47.2282 56.6242 46.5705 57.6577C46.2886 58.0336 46.2886 58.3154 46.5705 58.7852C47.2282 59.8188 47.792 60.9463 48.4497 62.0738C49.1074 63.2013 48.9195 64.047 47.9799 64.9866C44.9732 67.8054 41.5906 69.7785 37.6443 71C36.4228 71.3758 35.5772 71 34.9195 69.9664C34.2617 68.8389 33.604 67.7114 32.9463 66.5839C32.8524 66.396 32.4765 66.2081 32.2886 66.2081C30.8792 66.2081 29.4698 66.2081 28.0604 66.2081C27.8725 66.2081 27.4966 66.396 27.4027 66.5839C26.745 67.7114 26.0872 68.8389 25.4295 69.9664C24.7718 71.094 23.9262 71.3758 22.7047 71C18.8524 69.7785 15.3758 67.8054 12.3691 64.9866C11.4295 64.1409 11.3356 63.2013 11.8993 62.0738C12.557 60.9463 13.1208 59.8188 13.7785 58.7852C13.9664 58.4094 13.9664 58.2215 13.7785 57.8456C13.0268 56.7181 12.3691 55.4966 11.7114 54.2752C11.5235 53.8993 11.3356 53.8054 10.9597 53.8054C9.6443 53.8054 8.42282 53.8054 7.10738 53.8054C5.69799 53.8054 5.04027 53.2416 4.75839 51.9262C4.00671 48.9195 3.91275 45.8188 4.28859 42.7181C4.28859 42.6242 4.28859 42.5302 4.28859 42.3423C3.81879 42.3423 3.44295 42.3423 3.06711 42.3423C1.9396 42.2483 1 41.4966 1 40.2752C1 37.5503 1 34.7315 1 32.0067C1 30.7852 1.9396 30.0336 3.16107 30.0336C4.19463 30.0336 5.32215 30.0336 6.44967 30.0336C6.44967 29.5638 6.44967 29.094 6.44967 28.6242C6.35571 25.4295 6.63758 22.3289 7.7651 19.3221C10.302 12.4631 14.906 7.7651 21.6711 5.04027C22.047 4.85235 22.3289 4.66443 22.3289 4.28859C22.3289 4.00671 22.4228 3.72483 22.4228 3.44295C22.5168 2.31544 22.9866 1.56376 24.0201 1.09396C28.1544 1 32.1007 1 36.1409 1ZM5.13423 38.208C21.7651 38.208 38.396 38.208 55.1208 38.208C55.1208 36.7987 55.1208 35.4832 55.1208 34.1678C53.9933 34.1678 52.9597 34.1678 51.9262 34.1678C50.5168 34.1678 49.6711 33.3221 49.6711 31.9128C49.6711 30.3154 49.6711 28.7181 49.6711 27.1208C49.5772 21.2013 47.3222 16.2215 42.8121 12.3691C41.5906 11.3356 40.1812 10.4899 38.8658 9.55033C38.7718 9.64429 38.7718 9.64429 38.6779 9.73825C38.6779 9.92617 38.6779 10.1141 38.6779 10.302C39.1477 13.5906 39.7114 16.7852 40.2752 20.0738C40.4631 21.2953 39.7114 22.3289 38.5839 22.5168C37.4564 22.7047 36.4228 21.953 36.2349 20.6376C35.5772 16.5034 34.9195 12.4631 34.2617 8.32886C34.0738 7.2953 33.8859 6.16779 33.698 5.13423C31.1611 5.13423 28.7181 5.13423 26.2752 5.13423C26.0872 6.54362 25.8054 7.85906 25.6175 9.26846C25.0537 13.0268 24.396 16.8792 23.8322 20.6376C23.6443 21.8591 22.6107 22.6107 21.4832 22.4228C20.3557 22.2349 19.604 21.2013 19.7919 19.9799C20.0738 17.9128 20.4497 15.7517 20.8255 13.6846C21.0134 12.2752 21.2953 10.9597 21.4832 9.55033C21.3893 9.55033 21.2953 9.55033 21.2953 9.55033C21.2013 9.55033 21.1074 9.64429 21.0134 9.64429C15.3758 12.8389 11.8054 17.5369 10.8658 23.9262C10.4899 26.3691 10.6779 29 10.5839 31.5369C10.5839 33.2282 9.83222 33.9799 8.14094 33.9799C7.10738 33.9799 6.16779 33.9799 5.13423 33.9799C5.13423 35.4832 5.13423 36.7987 5.13423 38.208ZM22.5168 66.4899C23.1745 65.3624 23.8322 64.2349 24.4899 63.1074C25.2416 61.7919 25.8993 61.5101 27.4027 61.7919C29.1879 62.0738 31.0671 62.0738 32.8524 61.7919C34.5436 61.5101 35.0134 61.698 35.953 63.2013C36.6107 64.2349 37.1745 65.3624 37.8322 66.4899C40.1812 65.6443 42.2483 64.4228 44.2215 62.8255C43.5638 61.604 42.8121 60.4765 42.1544 59.255C41.4966 58.1275 41.5906 57.3758 42.4362 56.4362C43.7517 54.9329 44.6913 53.2416 45.349 51.3624C45.8188 50.047 46.3826 49.6711 47.7919 49.6711C49.1074 49.6711 50.4228 49.6711 51.7383 49.6711C52.2081 47.9799 52.2081 44.1275 51.7383 42.3423C47.4161 42.3423 43.094 42.3423 38.7718 42.3423C40.1812 46.8523 39.3356 50.7047 35.4832 53.5235C32.2886 55.8725 28.7181 55.9664 25.4295 53.8993C21.1074 51.1745 20.1678 47.1342 21.5772 42.4362C17.255 42.4362 12.9329 42.4362 8.61074 42.4362C8.2349 44.8792 8.14094 47.3221 8.61074 49.7651C10.0201 49.7651 11.3356 49.7651 12.745 49.7651C14.0604 49.7651 14.6242 50.1409 15.094 51.3624C15.7517 53.2416 16.7852 54.9329 18.0067 56.4362C18.8524 57.4698 18.9463 58.2215 18.2886 59.349C17.6309 60.4765 16.9732 61.698 16.2215 62.8255C18.1007 64.4228 20.1678 65.6443 22.5168 66.4899ZM30.1275 42.3423C29.3758 42.3423 28.6242 42.3423 27.9664 42.3423C26.2752 42.3423 25.8993 42.6242 25.3356 44.2215C25.1477 44.6913 25.0537 45.255 25.0537 45.7248C24.8658 47.9799 26.2752 50.1409 28.4362 50.8926C30.5973 51.6443 33.0403 50.8926 34.3557 48.9195C35.6711 47.0403 35.5772 44.4094 34.0738 42.7181C33.8859 42.5302 33.5101 42.3423 33.3222 42.3423C32.2886 42.2483 31.1611 42.3423 30.1275 42.3423Z" fill="#3546AB" stroke="#3546AB" stroke-width="1.5"/>
</svg>
