<svg width="64" height="64" viewBox="0 0 64 64" fill="none" xmlns="http://www.w3.org/2000/svg">
<g clip-path="url(#clip0_534_592)">
<path d="M54 9.3C48 3.3 40.1 0 31.7 0C14.2 0 0 14.2 0 31.7C0 40.1 3.3 48 9.3 54C15.3 60 23.2 63.3 31.7 63.3C49.2 63.3 63.3 49.1 63.3 31.6C63.3 23.2 60 15.3 54 9.3ZM17.8 41.5C17.9 41.5 17.9 41.4 18 41.4C18.2 41.3 18.4 41.2 18.5 41.1C18.6 41.2 18.6 41.4 18.7 41.6C18.8 41.9 18.8 41.9 18.6 42C18.3 42.3 18 42.5 17.8 42.8C17.8 42.4 17.8 42 17.8 41.5ZM33.3 23.3C34.3 23.1 35.2 22.9 36.1 22.5C36.5 22.7 37 23 37.4 23.3C36.3 24.4 35.1 25.6 34 26.7L33.3 27.4V23.3ZM40.6 41.9C39.1 45.2 36.7 47.4 33.3 48.4V45.2C33.3 41.1 33.3 36.9 33.3 32.8C33.3 32.5 33.4 32.3 33.6 32.1C35.3 30.4 37 28.8 38.6 27.1L39.8 25.9C40.6 27.1 41.1 28.5 41.4 30C42.4 34.6 42.1 38.4 40.6 41.9ZM33.4 19.6C32.1 19.9 30.9 19.9 29.6 19.6C30.1 19.1 30.9 18.9 31.6 18.9C32.3 19 32.9 19.3 33.4 19.6ZM29.8 48.4C26.8 47.5 24.6 45.6 22.9 42.7C24.6 41 26.3 39.3 28.1 37.6L29.8 35.9V39C29.8 42.1 29.8 45.3 29.8 48.4ZM29.8 23.3C29.8 25.8 29.8 28.4 29.8 30.9L21.6 39.1C21.2 37.3 21 35.5 21.1 33.7C21.2 31.1 21.8 28.9 22.7 26.9C23.7 24.9 25 23.4 26.6 22.6C26.8 22.5 26.9 22.5 27 22.5C27.1 22.5 27.2 22.5 27.3 22.6C28 22.9 28.8 23.1 29.8 23.3ZM50.2 10.5C48 12.6 45.9 14.8 43.8 16.9C42.8 17.9 41.8 18.9 40.7 20C41.4 17.9 42.6 16.4 44.4 15.5C44.9 15.3 45.3 14.9 45.4 14.4C45.5 13.9 45.4 13.4 45.1 13C44.5 12.1 43.5 12 42.5 12.6C42.1 12.9 41.7 13.1 41.3 13.4C40.7 13.8 40.2 14.2 39.6 14.5C39.1 14.8 38.8 15.2 38.6 15.8C38.2 16.9 37.7 18 37.3 19.1C37 18.4 36.5 17.7 35.9 17.1C35.9 17 35.9 17 35.9 16.9C36 15.4 36.6 14.4 38 13.8C38.5 13.6 38.9 13.3 39.2 13C39.9 12.4 40.1 11.4 39.6 10.6C39 9.8 38.1 9.6 37.3 10.1C36.3 10.7 35.3 11.4 34.3 12.1L33.8 12.4C33.3 12.8 33.1 13.3 33.1 13.7L33 14.4C32.9 14.8 32.8 15.2 32.7 15.6C32 15.5 31.2 15.5 30.4 15.6C30.3 15.3 30.3 15 30.2 14.7C30.1 14.4 30 14 30 13.7C29.9 13.1 29.6 12.6 29 12.3C28.5 12 28.1 11.7 27.6 11.4C27.1 11 26.5 10.7 26 10.4C25.3 10 24.8 10 24.5 10C24.1 10.1 23.7 10.4 23.4 10.8C23.1 11.2 22.6 12.3 24 13.3C24.1 13.4 24.2 13.4 24.2 13.5C24.4 13.7 24.7 13.9 25.1 14C26.3 14.5 26.9 15.4 27.1 17C27.1 17.1 27.1 17.2 27.1 17.2C26.5 17.7 26 18.4 25.7 19.1C25.5 18.4 25.2 17.7 24.9 17.1C24.7 16.7 24.6 16.3 24.4 15.9C24.2 15.3 23.8 14.9 23.3 14.5C22.7 14.1 22.2 13.8 21.6 13.4C21.2 13.1 20.8 12.9 20.4 12.6C19.4 11.9 18.4 12.1 17.8 13C17.2 13.9 17.4 14.8 18.4 15.5L18.6 15.6C18.9 15.8 19.2 16 19.5 16.2C20.1 16.6 20.7 16.9 21.1 17.4C21.6 18.1 21.9 19 22.2 19.9C22.3 20.3 22.5 20.7 22.6 21.1C21.3 22.3 20.2 23.7 19.4 25.5C19.4 25.5 19.4 25.5 19.3 25.5C19 25.5 18.7 25.5 18.4 25.5C18 25.5 17.7 25.5 17.3 25.5C16.6 25.5 15.6 25.7 15.2 27C14.9 28 14.5 29.1 14.2 30.1C13.9 30.9 13.7 31.7 13.4 32.5C13.3 32.8 13.2 33 13 33.1C11.4 34.3 9.9 35.6 8.3 36.9C7.4 37.6 7.3 38.5 7.8 39.3C8.1 39.7 8.5 40 9 40.1C9.5 40.2 10 40 10.4 39.7C11.6 38.7 12.8 37.8 14.1 36.8L16 35.3C16.4 35 16.6 34.5 16.7 34.1L18 30.2C17.5 32.6 17.5 35.1 17.8 37.6C17.6 37.7 17.3 37.9 17.1 38C16.6 38.3 16.2 38.5 15.8 38.7C14.8 39.1 14.3 39.9 14.4 41.1C14.4 42.1 14.4 43.1 14.4 44.2C14.4 44.9 14.4 45.6 14.4 46.3C14.4 46.5 14.4 46.6 14.3 46.7C13.2 47.8 11.9 49.1 10.7 50.3C7 46.1 4.8 41.6 4 36.6C2.5 27.6 4.8 19.7 10.7 13C15.2 7.8 21.1 4.7 28 3.8C29.2 3.6 30.4 3.6 31.6 3.5C38.7 3.6 44.9 6 50.2 10.5ZM18.7 47L20.4 45.3C22.5 48.6 25.5 50.8 29 51.8C31.6 52.6 34.2 52.2 37.1 50.6C40.8 48.6 43.4 45.4 44.6 41.1C45.2 41.4 45.4 41.7 45.3 42.3C45.2 43.3 45.2 44.3 45.3 45.2C45.3 45.7 45.3 46.2 45.3 46.8C45.3 47.5 45.5 48.1 46.1 48.6C46.5 48.9 46.8 49.3 47.2 49.7C47.5 50 47.8 50.3 48 50.5C48.8 51.3 49.8 51.3 50.6 50.6C51.3 49.9 51.3 48.8 50.5 48L50.3 47.9C49.1 47.1 48.6 45.9 48.8 44.1C48.9 43.4 48.9 42.6 48.8 41.9C48.8 41.5 48.8 41.1 48.8 40.7C48.8 39.9 48.4 39.2 47.7 38.8C47.2 38.6 46.8 38.3 46.4 38.1C46.1 37.9 45.7 37.7 45.4 37.5C45.7 35 45.6 32.5 45.1 30L45.3 30.5C45.7 31.7 46.1 32.8 46.4 34C46.5 34.4 46.7 34.9 47.2 35.3C48 36 48.9 36.6 49.7 37.3C50.6 38 51.5 38.7 52.4 39.5C53.3 40.2 54.2 40.2 54.9 39.4C55.2 39 55.4 38.6 55.4 38.1C55.4 37.6 55.1 37.1 54.6 36.8C53 35.5 51.5 34.3 49.9 33C49.7 32.8 49.5 32.6 49.5 32.4C49.1 31.1 48.7 29.8 48.2 28.5L47.8 27C47.4 25.7 46.9 25.4 45.6 25.4C45.4 25.4 45.1 25.4 44.9 25.4C44.4 25.4 44 25.5 43.7 25.3C43.5 25.2 43.4 24.9 43.3 24.6C43.2 24.3 43.1 24 42.9 23.8C42.8 23.6 42.5 23.3 42.5 23.3C42.5 23.2 42.8 23 43 22.7L45.3 20.4C47.8 17.9 50.3 15.4 52.7 12.9C56.9 17.7 59.2 23.2 59.7 29.3C60.8 43.5 51.2 56.3 37.4 59.1C28.4 60.9 20.2 58.7 13 52.6C14.9 50.8 16.8 48.9 18.7 47Z" fill="#3546AB"/>
</g>
<defs>
<clipPath id="clip0_534_592">
<rect width="63.3" height="63.3" fill="white"/>
</clipPath>
</defs>
</svg>
