<svg width="71" height="77" viewBox="0 0 71 77" fill="none" xmlns="http://www.w3.org/2000/svg">
<g clip-path="url(#clip0)">
<path d="M17.0625 4.2L21.2625 0L23.3625 2.1L19.1625 6.3L17.0625 4.2Z" fill="#3546AB"/>
<path d="M5.0625 16.2L9.2625 12L11.3625 14.1L7.1625 18.3L5.0625 16.2Z" fill="#3546AB"/>
<path d="M5.5625 2.1L7.6625 0L11.8625 4.2L9.7625 6.3L5.5625 2.1Z" fill="#3546AB"/>
<path d="M62.1984 74.7C65.9984 74.7 68.9984 71.7 68.9984 67.9C68.9984 64.1 65.9984 61.1 62.1984 61.1C58.3984 61.1 55.3984 64.1 55.3984 67.9C55.3984 71.7 58.4984 74.7 62.1984 74.7Z" fill="#F3F3F1"/>
<path d="M62.1984 76.7C57.3984 76.7 53.3984 72.6 53.3984 67.5C53.3984 62.4 57.2984 58.3 62.1984 58.3C66.9984 58.3 70.9984 62.4 70.9984 67.5C70.9984 72.6 67.0984 76.7 62.1984 76.7ZM62.1984 62.8C59.7984 62.8 57.7984 64.9 57.7984 67.4C57.7984 69.9 59.7984 72 62.1984 72C64.5984 72 66.5984 69.9 66.5984 67.4C66.5984 64.9 64.6984 62.8 62.1984 62.8Z" fill="#3546AB"/>
<path d="M58.8016 30C52.1016 30 46.6016 24.5 46.6016 17.8C46.6016 11.1 52.1016 5.6 58.8016 5.6C65.5016 5.6 71.0016 11.1 71.0016 17.8C71.0016 24.5 65.5016 30 58.8016 30ZM58.8016 10.2C54.6016 10.2 51.2016 13.6 51.2016 17.8C51.2016 22 54.6016 25.4 58.8016 25.4C63.0016 25.4 66.4016 22 66.4016 17.8C66.4016 13.6 63.0016 10.2 58.8016 10.2Z" fill="#3546AB"/>
<path d="M25.1992 37.5L49.9992 20.9L52.4992 24.6L27.5992 41.2L25.1992 37.5Z" fill="#3546AB"/>
<path d="M26.6992 54.7L28.4992 50.6L56.8992 63.1L55.0992 67.2L26.6992 54.7Z" fill="#3546AB"/>
<path d="M15.6 62.1C7 62.1 0 55.1 0 46.5C0 37.9 7 30.9 15.6 30.9C24.2 30.9 31.2 37.9 31.2 46.5C31.1 55.1 24.1 62.1 15.6 62.1ZM15.6 35.4C9.5 35.4 4.5 40.4 4.5 46.5C4.5 52.6 9.5 57.6 15.6 57.6C21.7 57.6 26.7 52.6 26.7 46.5C26.7 40.4 21.7 35.4 15.6 35.4Z" fill="#48EEF9"/>
</g>
<defs>
<clipPath id="clip0">
<rect width="71" height="76.7" fill="white"/>
</clipPath>
</defs>
</svg>
