<svg width="81" height="85" viewBox="0 0 81 85" fill="none" xmlns="http://www.w3.org/2000/svg">
<g clip-path="url(#clip0)">
<path d="M62.6992 2.2L64.7992 0L68.9992 4.4L66.8992 6.6L62.6992 2.2Z" fill="#3546AB"/>
<path d="M74.6992 14.9L76.7992 12.7L80.9992 17.1L78.8992 19.3L74.6992 14.9Z" fill="#3546AB"/>
<path d="M74.1992 4.4L78.2992 0L80.3992 2.2L76.1992 6.6L74.1992 4.4Z" fill="#3546AB"/>
<path d="M35.4008 31.6C37.4008 31.6 39.0008 29.8 39.0008 27.5C39.0008 25.2 37.4008 23.4 35.4008 23.4C33.4008 23.4 31.8008 25.2 31.8008 27.5C31.8008 29.8 33.4008 31.6 35.4008 31.6Z" fill="#F3F3F1"/>
<path d="M34.8 51.1C34.3 51.1 33.8 50.9 33.4 50.5C32.9 50 20 38.5 20 26.6C20 18 26.7 11 34.9 11C43.1 11 49.8 18 49.8 26.6C49.8 38.4 36.9 50 36.4 50.5C35.8 50.9 35.3 51.1 34.8 51.1ZM34.8 15.7C29.1 15.7 24.4 20.6 24.4 26.7C24.4 34.3 31.6 42.5 34.8 45.7C38 42.5 45.2 34.4 45.2 26.7C45.2 20.6 40.5 15.7 34.8 15.7Z" fill="#48EEF9"/>
<path d="M34.7977 33.6C31.3977 33.6 28.5977 30.8 28.5977 27.5C28.5977 24.1 31.3977 21.4 34.7977 21.4C38.1977 21.4 40.8977 24.2 40.8977 27.5C40.9977 30.9 38.1977 33.6 34.7977 33.6ZM34.7977 25.9C33.9977 25.9 33.2977 26.6 33.2977 27.4C33.2977 28.2 33.9977 29 34.7977 29C35.5977 29 36.2977 28.3 36.2977 27.5C36.2977 26.7 35.6977 25.9 34.7977 25.9Z" fill="#48EEF9"/>
<path d="M62.4991 84.9H8.19906C5.89906 84.9 3.59906 83.9 2.09906 82.1C0.599057 80.4 -0.200943 78 -0.000943037 75.7L4.79906 27.8C5.19906 23.5 8.69906 20.3 12.9991 20.3V24.9C11.0991 24.9 9.49906 26.4 9.29906 28.3L4.49906 76.2C4.39906 77.3 4.69906 78.3 5.39906 79.1C6.09906 79.9 7.09906 80.4 8.19906 80.4H62.3991C63.4991 80.4 64.4991 80 65.1991 79.1C65.899 78.3 66.299 77.3 66.0991 76.2L61.2991 28.3C61.0991 26.3 59.4991 24.9 57.5991 24.9V20.3C61.8991 20.3 65.3991 23.5 65.7991 27.8L70.5991 75.6C70.799 77.9 70.0991 80.3 68.4991 82C66.9991 83.9 64.7991 84.9 62.4991 84.9Z" fill="#3546AB"/>
<path d="M5.30078 51.7H25.5008V56.2H5.30078V51.7Z" fill="#3546AB"/>
<path d="M28.2977 82.8L24.5977 80.2L43.7977 52C44.1977 51.4 44.8977 51 45.5977 51H65.4977V55.5H46.6977L28.2977 82.8Z" fill="#3546AB"/>
</g>
<defs>
<clipPath id="clip0">
<rect width="80.9" height="84.9" fill="white"/>
</clipPath>
</defs>
</svg>
