<svg width="57" height="62" viewBox="0 0 57 62" fill="none" xmlns="http://www.w3.org/2000/svg">
<g clip-path="url(#clip0_534_460)">
<path d="M28.1818 50.7273C28.7455 50.7273 29.3091 50.4454 29.8727 50.1636C30.4364 49.8818 30.7182 49.3182 31 49.0364C31.2818 48.4727 31.2818 47.9091 31.2818 47.3455C31.2818 46.7818 31 46.2182 30.4364 45.9364C30.1545 45.6545 29.5909 45.3727 29.0273 45.0909C28.4636 44.8091 27.9 45.0909 27.3364 45.3727C26.7727 45.6545 26.4909 45.9364 26.2091 46.5C25.9273 47.0636 25.6455 47.6273 25.6455 48.1909C25.6455 49.0364 25.9273 49.6 26.4909 50.1636C26.7727 50.4454 27.3364 50.7273 28.1818 50.7273ZM42.2727 50.7273C42.8364 50.7273 43.4 50.4454 43.9636 50.1636C44.5273 49.8818 44.8091 49.3182 45.0909 49.0364C45.3727 48.4727 45.3727 47.9091 45.3727 47.3455C45.3727 46.7818 45.0909 46.2182 44.5273 45.9364C44.2455 45.6545 43.6818 45.3727 43.1182 45.0909C42.5545 44.8091 41.9909 45.0909 41.4273 45.3727C40.8636 45.6545 40.5818 45.9364 40.3 46.5C40.0182 47.0636 39.7364 47.6273 39.7364 48.1909C39.7364 49.0364 40.0182 49.6 40.5818 50.1636C40.8636 50.4454 41.4273 50.7273 42.2727 50.7273ZM42.2727 39.4545C42.8364 39.4545 43.4 39.1727 43.9636 38.8909C44.5273 38.6091 44.8091 38.0455 45.0909 37.7636C45.3727 37.2 45.3727 36.6364 45.3727 36.0727C45.3727 35.5091 45.0909 34.9455 44.5273 34.6636C44.2455 34.3818 43.6818 34.1 43.1182 33.8182C42.5545 33.5364 41.9909 33.8182 41.4273 34.1C40.8636 34.3818 40.5818 34.6636 40.3 35.2273C40.0182 35.7909 39.7364 36.3545 39.7364 36.9182C39.7364 37.7636 40.0182 38.3273 40.5818 38.8909C40.8636 39.1727 41.4273 39.4545 42.2727 39.4545ZM28.1818 39.4545C28.7455 39.4545 29.3091 39.1727 29.8727 38.8909C30.4364 38.6091 30.7182 38.0455 31 37.7636C31.2818 37.2 31.2818 36.6364 31.2818 36.0727C31.2818 35.5091 31 34.9455 30.4364 34.6636C30.1545 34.3818 29.5909 34.1 29.0273 33.8182C28.4636 33.5364 27.9 33.8182 27.3364 34.1C26.7727 34.3818 26.4909 34.6636 26.2091 35.2273C25.9273 35.7909 25.6455 36.3545 25.6455 36.9182C25.6455 37.7636 25.9273 38.3273 26.4909 38.8909C26.7727 39.1727 27.3364 39.4545 28.1818 39.4545ZM47.9091 5.63636H45.0909V2.81818C45.0909 1.97273 44.8091 1.40909 44.2455 0.845455C43.6818 0.281818 43.1182 0 42.2727 0C41.4273 0 40.8636 0.281818 40.3 0.845455C39.7364 1.40909 39.4545 1.97273 39.4545 2.81818V5.63636H16.9091V2.81818C16.9091 1.97273 16.6273 1.40909 16.0636 0.845455C15.5 0.281818 14.9364 0 14.0909 0C13.2455 0 12.6818 0.281818 12.1182 0.845455C11.5545 1.40909 11.2727 1.97273 11.2727 2.81818V5.63636H8.45455C6.2 5.63636 3.94545 6.48182 2.53636 8.17273C0.845454 9.86364 0 11.8364 0 14.0909V53.5455C0 55.8 0.845454 58.0545 2.53636 59.4636C4.22727 61.1545 6.2 62 8.45455 62H47.9091C50.1636 62 52.4182 61.1545 53.8273 59.4636C55.5182 57.7727 56.3636 55.8 56.3636 53.5455V14.0909C56.3636 11.8364 55.5182 9.58182 53.8273 8.17273C52.4182 6.48182 50.1636 5.63636 47.9091 5.63636ZM50.7273 53.5455C50.7273 54.3909 50.4455 54.9545 49.8818 55.5182C49.3182 56.0818 48.7545 56.3636 47.9091 56.3636H8.45455C7.60909 56.3636 7.04545 56.0818 6.48182 55.5182C5.91818 54.9545 5.63636 54.3909 5.63636 53.5455V28.1818H50.7273V53.5455ZM50.7273 22.5455H5.63636V14.0909C5.63636 13.2455 5.91818 12.6818 6.48182 12.1182C7.04545 11.5545 7.60909 11.2727 8.45455 11.2727H11.2727V14.0909C11.2727 14.9364 11.5545 15.5 12.1182 16.0636C12.6818 16.6273 13.2455 16.9091 14.0909 16.9091C14.9364 16.9091 15.5 16.6273 16.0636 16.0636C16.6273 15.5 16.9091 14.9364 16.9091 14.0909V11.2727H39.4545V14.0909C39.4545 14.9364 39.7364 15.5 40.3 16.0636C40.8636 16.6273 41.4273 16.9091 42.2727 16.9091C43.1182 16.9091 43.6818 16.6273 44.2455 16.0636C44.8091 15.5 45.0909 14.9364 45.0909 14.0909V11.2727H47.9091C48.7545 11.2727 49.3182 11.5545 49.8818 12.1182C50.4455 12.6818 50.7273 13.2455 50.7273 14.0909V22.5455ZM14.0909 39.4545C14.6545 39.4545 15.2182 39.1727 15.7818 38.8909C16.3455 38.6091 16.6273 38.0455 16.9091 37.7636C17.1909 37.2 17.1909 36.6364 17.1909 36.0727C17.1909 35.5091 16.9091 34.9455 16.3455 34.6636C16.0636 34.3818 15.5 34.1 14.9364 33.8182C14.3727 33.5364 13.8091 33.8182 13.2455 34.1C12.6818 34.3818 12.4 34.6636 12.1182 35.2273C11.8364 35.7909 11.5545 36.3545 11.5545 36.9182C11.5545 37.7636 11.8364 38.3273 12.4 38.8909C12.6818 39.1727 13.2455 39.4545 14.0909 39.4545ZM14.0909 50.7273C14.6545 50.7273 15.2182 50.4454 15.7818 50.1636C16.3455 49.8818 16.6273 49.3182 16.9091 49.0364C17.1909 48.4727 17.1909 47.9091 17.1909 47.3455C17.1909 46.7818 16.9091 46.2182 16.3455 45.9364C16.0636 45.6545 15.5 45.3727 14.9364 45.0909C14.3727 44.8091 13.8091 45.0909 13.2455 45.3727C12.6818 45.6545 12.4 45.9364 12.1182 46.5C11.8364 47.0636 11.5545 47.6273 11.5545 48.1909C11.5545 49.0364 11.8364 49.6 12.4 50.1636C12.6818 50.4454 13.2455 50.7273 14.0909 50.7273Z" fill="#3546AB"/>
</g>
<defs>
<clipPath id="clip0_534_460">
<rect width="56.3636" height="62" fill="white"/>
</clipPath>
</defs>
</svg>
