<svg width="63" height="55" viewBox="0 0 63 55" fill="none" xmlns="http://www.w3.org/2000/svg">
<g clip-path="url(#clip0_534_520)">
<path d="M62.9008 13.7C62.3008 9.30005 59.5008 5.60005 55.4008 3.70005L55.2008 4.20005L55.3008 3.70005C55.1008 3.60005 54.9008 3.50005 54.7008 3.50005C54.1008 3.40005 53.5008 3.50005 53.0008 3.90005C52.5008 4.30005 52.2008 4.90005 52.2008 5.70005C52.2008 6.90005 52.2008 8.10005 52.2008 9.30005C52.2008 10.3 52.2008 11.4 52.2008 12.4C52.2008 13.4 51.9008 13.7 50.9008 13.7C50.2008 13.7 49.5008 13.7 48.9008 13.7C47.8008 13.7 47.5008 13.4 47.5008 12.3V9.40005C47.5008 8.10005 47.5008 6.90005 47.5008 5.60005C47.5008 4.70005 47.2008 4.00005 46.6008 3.60005C46.0008 3.20005 45.2008 3.20005 44.4008 3.60005C40.3008 5.50005 37.5008 9.30005 36.9008 13.7C36.3008 18.2 37.9008 22.6 41.4008 25.5C41.7008 25.7001 41.8008 25.9 41.8008 26.3C41.8008 33.6 41.8008 41 41.8008 48.3V51.6C41.8008 53.3 42.6008 54.1 44.3008 54.1C46.2008 54.1 48.1008 54.1 50.1008 54.1C52.0008 54.1 53.9008 54.1 55.9008 54.1C57.7008 54.1 58.4008 53.3 58.4008 51.6V36.2001C58.4008 33 58.4008 29.7001 58.4008 26.5C58.4008 26.1 58.5008 25.9 58.8008 25.6C61.9008 22.6 63.5008 18.1 62.9008 13.7ZM53.9008 44V50H45.7008V44.5C45.7008 38.1 45.7008 31.8 45.7008 25.4C45.7008 24.3 45.3008 23.6 44.5008 23C42.4008 21.5 41.0008 19.1 40.8008 16.5C40.6008 13.9 41.5008 11.3 43.3008 9.40005C43.3008 9.80005 43.3008 10.1 43.3008 10.5C43.3008 11.5 43.3008 12.5 43.4008 13.5C43.7008 15.8 45.7008 17.6 48.0008 17.7C49.2008 17.8 50.4008 17.8 51.6008 17.7C54.0008 17.5 56.0008 15.6 56.2008 13.2C56.3008 12.3 56.3008 11.3 56.3008 10.4C56.3008 10.1 56.3008 9.70005 56.3008 9.40005C57.3008 10.4 57.9008 11.5 58.4008 12.8C59.7008 16.5 58.4008 20.6 55.2008 22.9C54.3008 23.6 53.9008 24.4 53.9008 25.5C53.9008 31.7001 53.9008 37.8 53.9008 44Z" fill="#3546AB"/>
<path d="M37.9 50.1C37.5 50 37 50 36.7 50C29.3 50 21.9 50 14.5 50H10.4V28.4C10.4 26.8 9.6 26 8 26C7 26 6 26 5.1 26H4.3C4.2 25.3 4.4 24.8 5 24.4C6.4 23.4 7.8 22.2 9.1 21.2C10 20.5 10.8 19.8 11.7 19.1C12.5 18.5 12.9 17.6 12.9 16.6C12.9 14.3 12.9 11.9 12.9 9.59997V6.59996H16.6V7.39996C16.6 8.39997 16.6 9.49996 16.6 10.5C16.6 11.2 16.7 12.3 17.8 12.8C18.8 13.3 19.7 12.8 20.3 12.3C22.4 10.6 24.6 8.89996 26.7 7.19996L29.7 4.79996L31 5.79996C31.9 6.49996 32.7 7.19997 33.6 7.89996C34.7 8.79996 35.9 8.69996 36.7 7.69996C37.1 7.19996 37.2 6.69996 37.1 6.09996C37 5.59996 36.7 5.09996 36.2 4.59996C34.5 3.29996 32.9 1.89996 31.2 0.599965C30.1 -0.300035 29.2 -0.200035 28.2 0.599965L20.9 6.49996C20.9 5.89996 20.9 5.29996 20.9 4.69996C20.9 3.09996 20.1 2.29996 18.5 2.29996C16.6 2.29996 14.7 2.29996 12.8 2.29996H11.5C9.6 2.29996 8.9 2.99996 8.9 4.99996V7.19996C8.9 9.99996 8.9 12.8 8.9 15.6C8.9 15.9 8.8 16.1 8.6 16.3C7.4 17.2 6.2 18.2 5 19.1C3.8 20.1 2.5 21.1 1.3 22.1C0.3 22.8 0 23.5 0 24.4C0 25.1 0 25.8 0 26.4C0 26.8 0 27.2 0 27.6C0 29.3 0.8 30.1 2.5 30.1H6.2V51.4C6.2 53.4 6.9 54.1 8.9 54.1H36.9C37.1 54.1 37.4 54.1 37.6 54.1C38.6 54 39.3 53.2 39.4 52.2C39.5 51.3 38.8 50.4 37.9 50.1Z" fill="#3546AB"/>
<path d="M31.4016 26H29.5016H27.6016C26.0016 26 24.5016 26 22.9016 26C21.4016 26 20.6016 26.8 20.6016 28.3C20.6016 32.7 20.6016 37 20.6016 41.4C20.6016 42.9 21.4016 43.7 22.9016 43.7C25.1016 43.7 27.3016 43.7 29.5016 43.7C31.7016 43.7 33.9016 43.7 36.1016 43.7C37.6016 43.7 38.4016 42.9 38.4016 41.4C38.4016 37.1 38.4016 32.7 38.4016 28.4C38.4016 26.8 37.6016 26 36.0016 26C34.5016 26 32.9016 26 31.4016 26ZM24.8016 39.6V30.3H34.2016V39.6H24.8016Z" fill="#3546AB"/>
</g>
<defs>
<clipPath id="clip0_534_520">
<rect width="63" height="54.2" fill="white"/>
</clipPath>
</defs>
</svg>
