<svg width="61" height="61" viewBox="0 0 61 61" fill="none" xmlns="http://www.w3.org/2000/svg">
<g clip-path="url(#clip0_534_517)">
<path d="M59.4992 2.50002C59.1992 2.20002 58.7992 1.80002 58.4992 1.50002L58.0992 1.00002C56.7992 -0.299976 56.1992 -0.299976 54.8992 1.00002L54.3992 1.50002C46.8992 9.00002 42.0992 13.7 34.4992 21.3L34.3992 21.4C33.4992 20.6 32.7992 20.7 31.8992 21.6L30.9992 22.6C30.2992 23.3 29.4992 24.1 28.7992 24.8C28.5992 25 28.4992 25.1 28.2992 25.1C24.0992 26.7 19.8992 28.3 15.3992 29.1C14.7992 29.2 14.1992 29.6 13.6992 30C10.6992 33 7.59916 36 4.59916 39.1L1.79916 42C1.39916 42.4 0.899159 42.8 0.499159 43.3C-0.200841 44 -0.200841 44.8 0.399159 45.5C0.999159 46.1 1.89916 46.1 2.59916 45.5C2.69916 45.4 2.79916 45.3 2.79916 45.3L4.59916 43.5C8.19916 39.9 11.8992 36.2 15.4992 32.6C15.7992 32.3 15.8992 32.2 15.9992 32.2C17.3992 31.8 18.9992 31.5 20.8992 31C20.8992 31 20.9992 31 21.0992 31C21.1992 31.1 21.2992 31.2 21.4992 31.3L21.1992 31.4C20.2992 31.8 19.3992 32.2 18.5992 32.6C17.9992 32.9 17.3992 33.3 16.9992 33.7C13.5992 37.1 10.1992 40.4 6.89916 43.8L4.29916 46.4L4.19916 46.5C4.09916 46.6 3.89916 46.8 3.79916 46.9C3.29916 47.5 3.29916 48.3 3.89916 48.9C4.49916 49.5 5.19916 49.6 5.89916 49.1C6.09916 49 6.19916 48.8 6.29916 48.7L7.99916 47C11.6992 43.3 15.3992 39.6 19.1992 35.8C19.3992 35.6 19.4992 35.5 19.5992 35.4C20.9992 34.8 22.3992 34.1 23.7992 33.5C23.8992 33.6 23.9992 33.7 24.0992 33.8L16.4992 41.3C13.4992 44.3 10.4992 47.2 7.59916 50.2C6.69916 51.1 6.89916 52 7.39916 52.5C7.69916 52.8 7.99916 53 8.39916 53C8.69916 53 9.19916 52.9 9.69916 52.4L26.0992 36L26.1992 35.9L26.2992 36C26.4992 36.2 26.5992 36.2 26.3992 36.6C26.0992 37.2 25.7992 37.9 25.4992 38.6C25.2992 39.1 25.0992 39.6 24.7992 40.1C24.5992 40.5 24.3992 40.8 24.1992 41C21.0992 44.1 17.8992 47.3 14.7992 50.4L11.4992 53.7L11.3992 53.8C11.1992 53.9 11.0992 54.1 10.8992 54.3C10.4992 54.9 10.4992 55.6 11.0992 56.2C11.5992 56.7 12.2992 56.8 12.9992 56.4C13.1992 56.3 13.3992 56.1 13.5992 55.9L14.6992 54.8C18.6992 50.8 22.7992 46.8 26.7992 42.7C27.0992 42.4 27.3992 42 27.5992 41.6C27.9992 40.7 28.3992 39.8 28.8992 38.8L29.0992 38.4C29.3992 38.6 29.4992 38.8 29.2992 39.4C29.0992 40.1 28.8992 40.9 28.6992 41.6C28.5992 42.2 28.3992 42.8 28.1992 43.5C28.0992 43.9 27.8992 44.2 27.5992 44.5C24.2992 47.9 20.8992 51.2 17.5992 54.5L14.7992 57.3C14.0992 58 13.9992 58.9 14.5992 59.6C14.8992 59.9 15.1992 60.1 15.5992 60.1C15.8992 60.1 16.3992 60 16.8992 59.5L17.5992 58.8C21.7992 54.6 25.9992 50.4 30.1992 46.2C30.4992 45.9 30.7992 45.4 30.8992 44.9C31.6992 41.6 32.6992 38.2 33.8992 34.8C34.5992 32.9 35.4992 30.8 37.3992 29.3C37.6992 29.1 37.8992 28.8 38.1992 28.5C38.2992 28.4 38.3992 28.3 38.4992 28.2C39.3992 27.3 39.3992 26.7 38.6992 25.8L38.7992 25.7L53.9992 10.5C55.7992 8.70002 57.5992 6.90002 59.3992 5.00002C60.3992 4.10002 60.3992 3.40002 59.4992 2.50002ZM32.0992 31.2C31.5992 32.6 31.0992 34 30.5992 35.4L30.4992 35.7L24.5992 29.8L24.7992 29.7C26.1992 29.2 27.6992 28.6 29.0992 28.1C30.0992 29.1 31.0992 30.1 32.0992 31.2ZM35.3992 26.9L33.7992 28.5L31.6992 26.4L33.2992 24.8L35.3992 26.9Z" fill="#3546AB"/>
</g>
<defs>
<clipPath id="clip0_534_517">
<rect width="60.2" height="60.2" fill="white"/>
</clipPath>
</defs>
</svg>
