<svg width="63" height="63" viewBox="0 0 63 63" fill="none" xmlns="http://www.w3.org/2000/svg">
<g clip-path="url(#clip0_534_572)">
<path d="M62.6 39.9V39.7C62.6 39.6 62.5 39.5 62.5 39.4C62.1 36.9 60.8 34.8 58.8 33.2C57.7 32.3 56.4 31.7 54.8 31.3V25.7C54.8 19.9 54.8 14.1 54.8 8.4C54.8 7.5 54.5 6.8 53.9 6.2C52.8 5.1 51.6 4 50.5 2.8C49.8 2.1 49.1 1.4 48.4 0.7C47.3 -0.4 46.1 -0.4 45.1 0.7C43.3 2.5 41.4 4.4 39.6 6.2C38.6 7.2 38.6 8.4 39.6 9.4C39.9 9.7 40.3 10.1 40.7 10.4C40.8 10.5 40.9 10.6 41 10.7L40.7 11C40.3 11.4 40 11.7 39.6 12C38.6 13 38.6 14.2 39.6 15.2C39.9 15.5 40.3 15.9 40.7 16.2L41 16.5L40.8 17C40.4 17.3 40.1 17.6 39.8 18C39.3 18.5 39 19.1 39 19.7C39 20.3 39.3 20.8 39.8 21.4C40.1 21.7 40.4 22 40.8 22.4L41.1 22.7L40.9 22.9C40.6 23.2 40.2 23.5 39.9 23.8C39.3 24.3 39 25.1 39 26C39 26.9 39 27.9 39 28.8C39 29.6 39 30.4 39 31.2C39 31.5 39 31.5 38.8 31.6C38.4 31.7 37.9 31.8 37.6 32C37.4 32.1 37.3 32.1 37 31.8C34.8 29.6 32.3 28 29.5 26.9H29.4C31.9 24.7 33.3 21.8 33.5 18.6C33.7 15.2 32.3 11.7 29.9 9.4C27.7 7.2 24.8 6 21.7 6H21.6C18.5 6 15.5 7.3 13.3 9.5C10.9 11.9 9.7 15.3 9.9 18.7C10.1 21.9 11.5 24.7 14 26.9C13.9 26.9 13.9 26.9 13.8 27C5.7 29.9 0.2 37.6 0 46C0 49.9 0 53.6 0 56.7C0 58.9 1.1 60.6 3 61.7C3.5 62 4 62.1 4.5 62.3C4.7 62.4 4.9 62.4 5.2 62.5H38H38.1C39.2 61.9 40.3 62.2 41.5 62.5L41.8 62.6H51.9C52.2 62.5 52.4 62.5 52.7 62.4C53.3 62.3 53.9 62.2 54.4 62C58.9 60.4 61.6 57.2 62.4 52.4C62.4 52.3 62.4 52.2 62.5 52.1V51.9L62.6 39.9ZM14 17.8C14 15.8 14.7 13.8 16.2 12.3C17.6 10.8 19.5 10 21.4 10C21.4 10 21.4 10 21.5 10C26 10 29.1 13.1 29.2 17.5C29.3 21.8 26.1 25.1 21.7 25.2C21.6 25.2 21.6 25.2 21.5 25.2C17.5 25.3 14.1 21.9 14 17.8ZM4.3 47C4.2 38.8 9.6 32 17.7 30C19.2 29.7 20.6 29.5 22 29.5C26.1 29.5 29.9 31 33.3 34.1L33.7 34.4C32.4 35.9 31.7 37.4 31.4 39.1C31.3 39.8 31.2 40.5 31.2 41.1C31.2 42.7 31.2 44.3 31.2 45.9C31.2 47.4 31.2 48.9 31.2 50.4C31.2 53.4 32.1 56.1 34 58.3C24.8 58.3 15.6 58.3 6.4 58.3C5.1 58.3 4.4 57.6 4.4 56.3C4.4 55.3 4.4 54.2 4.4 53.2C4.3 51.2 4.3 49.1 4.3 47ZM42.7 58.3C38.8 58.2 35.4 54.9 35.4 51C35.3 48 35.3 44.7 35.4 40.8C35.4 37.8 37.8 35.4 40.9 35.3C42.4 35.2 43.2 34.4 43.2 32.9C43.2 32.2 43.2 31.6 43.2 30.9C43.2 29.5 43.2 28.1 43.2 26.7C43.2 26.5 43.3 26.1 43.5 26C43.9 25.6 44.3 25.2 44.7 24.8C44.9 24.6 45.2 24.3 45.4 24.1C46.3 23.1 46.3 21.9 45.4 20.9C45.1 20.6 44.7 20.2 44.3 19.9L44 19.6L44.3 19.3C44.7 18.9 45 18.6 45.4 18.3C46.3 17.3 46.3 16.1 45.4 15.1C45.1 14.7 44.7 14.4 44.3 14L44 13.8L44.3 13.6C44.7 13.3 45 13 45.3 12.6C46.4 11.5 46.4 10.3 45.3 9.3C45 9 44.6 8.7 44.3 8.3L44.1 8.1L47 5.2C47 5.2 47 5.2 47.1 5.3L48.1 6.3C48.8 7 49.6 7.8 50.3 8.5C50.6 8.7 50.6 9 50.6 9.3C50.6 15.9 50.6 22.4 50.6 29V32.7C50.6 34.5 51.3 35.2 53 35.3C55.9 35.5 58.3 37.9 58.3 40.8C58.4 44.7 58.4 48 58.3 51C58.2 54.9 54.9 58.2 51 58.3C48.4 58.4 45.7 58.4 42.7 58.3Z" fill="#3546AB"/>
<path d="M46.8984 42.8C43.5984 42.8 40.8984 45.5001 40.8984 48.7001C40.8984 52.1 43.4984 54.7001 46.8984 54.7001C50.2984 54.7001 52.8984 52.1 52.8984 48.7001C52.8984 47.2001 52.2984 45.7 51.1984 44.5C49.9984 43.5 48.4984 42.8 46.8984 42.8ZM46.8984 50.6C46.3984 50.6 45.9984 50.4 45.5984 50.1C45.2984 49.8 45.0984 49.3001 45.0984 48.9001C45.0984 47.9001 45.8984 47.2001 46.8984 47.2001C47.3984 47.2001 47.7984 47.4001 48.1984 47.7001C48.4984 48.0001 48.6984 48.5 48.6984 49C48.5984 49.8 47.7984 50.6 46.8984 50.6Z" fill="#3546AB"/>
</g>
<defs>
<clipPath id="clip0_534_572">
<rect width="62.6" height="62.6" fill="white"/>
</clipPath>
</defs>
</svg>
