<svg width="54" height="64" viewBox="0 0 54 64" fill="none" xmlns="http://www.w3.org/2000/svg">
<g clip-path="url(#clip0_534_514)">
<path d="M53.6005 50.7C53.1005 47.3 51.4005 44.6 48.7005 42.7C47.3005 41.7 45.8005 41 44.3005 40.6C41.9005 40 39.5005 39.5 37.5005 39.1C35.4005 38.7 34.4005 37.3 34.8005 35.2C34.8005 35.2 34.8005 35.2 34.8005 35.1C38.0005 31.2 40.0005 26.6 40.7005 21.3V21.2C40.7005 21.2 40.8005 21.2 40.8005 21.1C41.7005 20.7 42.8005 20.2 43.7005 19.5C44.4005 19 44.7005 18.2 44.8005 17.4C44.8005 16.5 44.4005 15.7 43.7005 15.1C43.4005 14.8 43.1005 14.6 42.8005 14.5C42.6005 14.4 42.4005 14.3 42.1005 14.2C41.9005 14.1 41.7005 14 41.6005 14C41.6005 13.9 41.6005 13.6 41.6005 13.4C41.6005 13.1 41.6005 12.8 41.5005 12.6C40.6005 5.19999 34.0005 -0.300012 26.4005 -1.2462e-05C18.7005 0.299988 12.5005 6.29999 12.0005 13.9C12.0005 14 12.0005 14 12.0005 14C11.4005 14.2 10.9005 14.5 10.6005 14.8C9.60052 15.5 9.00052 16.4 9.00052 17.5C9.00052 18.5 9.50052 19.4 10.5005 20.1C11.2005 20.5 11.9005 20.8 12.5005 21.1C12.7005 21.2 12.9005 21.3 13.0005 21.3C13.6005 26.1 15.3005 30.4 18.2005 34.2C18.7005 34.9 18.9005 35.6 18.9005 36.5C18.8005 37.8 18.0005 38.8 16.6005 39.1L16.1005 39.2C13.7005 39.7 11.3005 40.2 8.90052 40.8C4.20052 42.2 1.30052 45.4 0.400521 50.2C-0.299479 54.1 -0.0994792 58.3 1.00052 62.5C1.30052 63.5 1.90052 64 2.90052 64C16.7005 64 30.5005 64 44.3005 64H51.9005L52.6005 63.9L52.9005 63.3C52.9005 63.2 53.0005 63.1 53.0005 62.9C54.0005 58.5 54.2005 54.5 53.6005 50.7ZM26.0005 4.79999V4.09999C26.6005 3.99999 27.3005 3.99999 27.9005 4.09999C27.9005 4.29999 27.9005 4.59999 27.9005 4.79999C27.9005 5.99999 27.9005 7.09999 27.9005 8.29999C27.9005 8.69999 27.4005 8.99999 26.9005 8.99999C26.4005 8.99999 26.0005 8.59999 26.0005 8.19999C26.0005 7.09999 26.0005 5.99999 26.0005 4.79999ZM14.8005 17.4C15.6005 17.1 16.0005 16.6 16.0005 15.7C16.0005 10.9 18.0005 7.49999 22.0005 5.29999C22.0005 5.39999 22.0005 5.59999 22.0005 5.69999C22.0005 6.59999 22.0005 7.49999 22.0005 8.39999C22.2005 10.9 24.3005 13 26.9005 13C29.5005 13 31.7005 11 31.8005 8.39999C32.0005 7.59999 32.0005 6.59999 32.0005 5.69999C32.0005 5.59999 32.0005 5.39999 32.0005 5.29999C33.1005 5.89999 34.1005 6.59999 34.9005 7.39999C36.9005 9.49999 37.9005 12.2 38.0005 15.6C38.0005 16.5 38.4005 17.1 39.3005 17.3C39.4005 17.3 39.5005 17.4 39.6005 17.4C39.5005 17.4 39.5005 17.4 39.4005 17.5C38.0005 17.9 36.7005 18.2 35.4005 18.4C30.3005 19.2 25.0005 19.2 19.7005 18.5C18.1005 18.3 16.6005 17.9 15.0005 17.6L14.4005 17.5C14.5005 17.5 14.7005 17.5 14.8005 17.4ZM45.2005 60H45.0005V53.1H41.0005V60H13.0005V53H9.00052V60H6.80052C6.00052 60 5.30052 60 4.50052 60C3.80052 56.4 3.80052 53.1 4.60052 50.1C5.30052 47.5 7.00052 45.7 9.80052 44.8C10.3005 44.7 10.7005 44.5 11.2005 44.4L18.8005 55.3L23.8005 49.6L27.0005 53.9L30.2005 49.6L35.2005 55.2L36.1005 54.1C36.2005 54 36.3005 53.8 36.4005 53.7L37.8005 51.7C39.5005 49.3 41.2005 46.9 42.8005 44.5C42.8005 44.5 42.8005 44.5 42.8005 44.4C46.2005 45.3 48.2005 46.9 49.1005 49.4C49.6005 50.6 49.7005 52.1 49.8005 53.4C50.0005 55.5 49.8005 57.7 49.4005 60C48.1005 60 46.7005 60 45.2005 60ZM36.7005 22.4C36.7005 22.5 36.6005 22.7 36.6005 22.8C35.6005 27 34.0005 30.3 31.6005 33C30.5005 34.2 29.5005 34.9 28.4005 35.3C27.1005 35.7 25.9005 35.5 24.6005 34.8C23.1005 33.9 21.8005 32.6 20.6005 30.5C19.1005 28 18.0005 25.3 17.4005 22.4C23.8005 23.3 30.2005 23.3 36.7005 22.4ZM22.8005 38.3C25.6005 39.9 28.4005 39.9 31.2005 38.4C31.4005 39.1 31.7005 39.8 32.1005 40.4L27.0005 47.1L21.9005 40.2C22.3005 39.6 22.6005 39 22.8005 38.3ZM34.8005 48.8L32.6005 46.3L34.5005 43.8C34.8005 43.4 35.1005 43.1 35.4005 42.7C36.5005 42.9 37.6005 43.1 38.6005 43.4L34.8005 48.8ZM19.2005 48.8L15.4005 43.4L18.7005 42.7L21.4005 46.3L19.2005 48.8Z" fill="#3546AB"/>
</g>
<defs>
<clipPath id="clip0_534_514">
<rect width="54" height="64" fill="white"/>
</clipPath>
</defs>
</svg>
