<svg width="64" height="45" viewBox="0 0 64 45" fill="none" xmlns="http://www.w3.org/2000/svg">
<g clip-path="url(#clip0_534_595)">
<path d="M63.9 8.9C63.2 7.7 62.1 7.6 61.3 7.5C58.2 7.5 55.2 7.5 52.1 7.5H48.5V5.7C48.5 4.5 48.5 3.3 48.5 2.1C48.5 0.9 47.7 0.1 46.5 0C46.3 0 46.2 0 46 0H2.6H2.5C2.4 0 2.2 0 2.1 0C0.8 0.1 0 0.9 0 2.2C0 12.1 0 22 0 32C0 33.3 0.9 34.2 2.2 34.2H12.4C28.7 34.2 45 34.2 61.4 34.2C62.2 34.2 63.3 34.1 64 32.8L64.1 32.7V9.1L63.9 8.9ZM51.5 19C51.5 20.6 52.3 21.4 53.9 21.4H59.9V30.1H48.6V11.7H51.5V14.1C51.5 15.7 51.5 17.3 51.5 19ZM59.9 11.7V17.4H55.6V11.7H59.9ZM44.5 4V30H4.1V4H44.5Z" fill="#3546AB"/>
<path d="M21.0016 35.2H17.0016V36.0999V36.9C17.0016 38.2 16.6016 39.2 15.8016 39.9C14.6016 41 13.3016 41.1999 11.9016 40.5999C10.5016 39.9999 9.70156 38.9 9.60156 37.2C9.60156 36.9 9.60156 36.5 9.60156 36.2V35.2H5.60156H1.60156V39.2H5.70156V38C6.00156 40.6 7.20156 42.4999 9.40156 43.7999C10.6016 44.4999 12.0016 44.9 13.3016 44.9C14.9016 44.9 16.5016 44.4 17.9016 43.4C20.4016 41.6 21.4016 38.9999 21.1016 35.5999L21.0016 35.2Z" fill="#3546AB"/>
<path d="M59.8003 35.2H55.8003V36.2C55.8003 36.5 55.8003 36.7999 55.8003 37.0999C55.7003 39.2999 54.2003 40.8 52.2003 40.9C52.2003 40.9 52.2003 40.9 52.1003 40.9C50.1003 40.9 48.5003 39.4 48.4003 37.5L48.3003 35.2H44.4003V35.7C44.1003 39.5 45.3003 42.3 48.2003 43.9C49.5003 44.6 50.8003 45 52.1003 45C53.6003 45 55.1003 44.5 56.6003 43.5C59.1003 41.8 60.1003 39.2 59.8003 35.7V35.2Z" fill="#3546AB"/>
<path d="M43.0992 35.2H22.1992V39.2H43.0992V35.2Z" fill="#3546AB"/>
<path d="M62.4 35.2H60V39.2H62.4V35.2Z" fill="#3546AB"/>
<path d="M17.0984 19.0999C17.5984 19.5999 18.0984 19.7999 18.6984 19.7999C19.1984 19.7999 19.6984 19.5999 20.0984 19.1999C20.8984 18.3999 20.7984 17.0999 19.8984 16.1999C19.5984 15.8999 19.2984 15.5999 18.9984 15.2999H20.5984C22.6984 15.2999 24.6984 15.2999 26.7984 15.2999C27.7984 15.2999 28.6984 14.5999 28.8984 13.6999C29.0984 12.7999 28.5984 11.7999 27.6984 11.4999C27.3984 11.3999 26.9984 11.2999 26.4984 11.2999C24.6984 11.2999 22.7984 11.2999 20.9984 11.2999H18.9984C19.3984 10.8999 19.7984 10.4999 20.1984 10.0999C20.8984 9.39994 20.8984 8.29994 20.3984 7.49994C19.8984 6.69994 18.7984 6.39994 17.8984 6.79994C17.5984 6.99994 17.2984 7.19994 17.0984 7.39994C15.4984 8.99994 13.9984 10.4999 12.4984 12.0999L11.9984 12.5999C11.8984 12.6999 11.7984 12.7999 11.6984 12.8999L11.3984 13.1999L13.2984 15.0999C14.4984 16.4999 15.7984 17.7999 17.0984 19.0999Z" fill="#3546AB"/>
<path d="M28.0002 16.1999C27.9002 16.8999 28.1002 17.4999 28.7002 18.0999L29.6002 18.9999H23.3002C22.7002 18.9999 22.2002 18.9999 21.6002 18.9999C20.6002 18.9999 19.8002 19.7999 19.7002 20.6999C19.6002 21.5999 20.1002 22.4999 20.9002 22.8999C21.2002 22.9999 21.5002 23.0999 22.0002 23.0999C24.1002 23.0999 26.1002 23.0999 28.2002 23.0999H29.5002L29.4002 23.1999C29.3002 23.2999 29.2002 23.3999 29.0002 23.5999C28.8002 23.7999 28.6002 23.9999 28.4002 24.1999C27.6002 24.9999 27.6002 26.1999 28.3002 26.9999C28.7002 27.3999 29.2002 27.6999 29.8002 27.6999C30.3002 27.6999 30.8002 27.4999 31.2002 27.0999C32.5002 25.6999 33.8002 24.3999 35.2002 22.9999L36.5002 21.5999L38.7002 22.2999L36.6002 20.4999C36.4002 20.2999 36.2002 20.1999 36.1002 19.9999C34.5002 18.3999 32.9002 16.8999 31.3002 15.2999C30.7002 14.6999 29.9002 14.4999 29.1002 14.7999C28.8002 14.6999 28.1002 15.0999 28.0002 16.1999Z" fill="#3546AB"/>
<path d="M58.1984 22.6H54.8984V26.6H58.1984V22.6Z" fill="#3546AB"/>
</g>
<defs>
<clipPath id="clip0_534_595">
<rect width="64" height="45" fill="white"/>
</clipPath>
</defs>
</svg>
