<svg width="22" height="22" viewBox="0 0 22 22" fill="none" xmlns="http://www.w3.org/2000/svg">
<g clip-path="url(#clip0)">
<path d="M21.5064 8.67272C20.8994 5.81096 19.2517 3.3828 16.9103 1.82184C14.5688 0.260879 11.8805 -0.259441 9.10548 0.174159C9.10548 0.174159 9.10548 0.174159 9.01876 0.174159C3.1218 1.2148 -0.867315 6.76488 0.173325 12.6618C0.260045 13.0954 0.346765 13.6158 0.520205 14.0494C1.12724 15.9572 0.953805 18.0385 0.086605 19.8596C-0.086835 20.2065 -0.000115036 20.5534 0.173325 20.8135C0.433485 21.0737 0.780365 21.1604 1.12724 21.0737L5.20308 20.1198C6.93749 21.1604 8.84533 21.6807 10.8399 21.6807C11.5336 21.6807 12.3141 21.594 13.0079 21.5073C15.8696 20.9002 18.2978 19.2526 19.8588 16.9111C21.5064 14.3962 22.0268 11.5345 21.5064 8.67272ZM18.3845 15.8705C17.0837 17.865 15.0024 19.2526 12.661 19.6862C10.3196 20.1198 7.89141 19.6862 5.89685 18.3854C5.72341 18.2986 5.54996 18.2119 5.37652 18.2119C5.2898 18.2119 5.20308 18.2119 5.11636 18.2119L2.34133 18.9924C2.77492 17.258 2.77492 15.3502 2.2546 13.529C2.16788 13.1822 2.08117 12.7486 1.99444 12.4017C1.12724 7.54536 4.42261 2.86248 9.27892 1.99528C9.27892 1.99528 9.27892 1.99528 9.36565 1.99528C11.6204 1.56168 13.9618 2.082 15.8696 3.3828C17.8642 4.6836 19.2517 6.76488 19.6853 9.10632C20.2056 11.4478 19.6853 13.7892 18.3845 15.8705Z" fill="#959AC5"/>
<path d="M14.4822 8.15137H7.19777C6.67745 8.15137 6.33057 8.58497 6.33057 9.01857C6.33057 9.53889 6.76417 9.88577 7.19777 9.88577H14.3955C14.9158 9.88577 15.2627 9.45217 15.2627 9.01857C15.3494 8.49825 14.9158 8.15137 14.4822 8.15137Z" fill="#959AC5"/>
<path d="M14.4822 11.707H7.19777C6.67745 11.707 6.33057 12.1406 6.33057 12.5742C6.33057 13.0946 6.76417 13.4414 7.19777 13.4414H14.3955C14.9158 13.4414 15.2627 13.0078 15.2627 12.5742C15.3494 12.1406 14.9158 11.707 14.4822 11.707Z" fill="#959AC5"/>
</g>
<defs>
<clipPath id="clip0">
<rect width="21.68" height="21.68" fill="white"/>
</clipPath>
</defs>
</svg>
