<svg width="63" height="58" viewBox="0 0 63 58" fill="none" xmlns="http://www.w3.org/2000/svg">
<g clip-path="url(#clip0_534_533)">
<path d="M15.3 3.8C16.4 3.8 17.2 3 17.2 2C17.2 1.5 17 1 16.7 0.6C16.4 0.2 15.9 0 15.4 0C14.9 0 14.4 0.2 14.1 0.6C13.7 1 13.5 1.5 13.5 2C13.5 2.9 14.3 3.8 15.3 3.8Z" fill="#3546AB"/>
<path d="M62.3 26.3C62.1 26 62.1 25.7 62.1 25.4C62.1 25.2 62.1 25.1 62 24.9C61.1 20.3 58.7 16.7 55.1 14.2C49.9 10.7 44.5 10.2 38.8 12.6C33.6 15 30.3 19 29 24.6C28.5 26.7 28.4 28.5 28.7 30.1C29.9 36.3 31.2 42.6 32.4 48.7C32.9 51 33.3 53.4 33.8 55.7C34.1 57.1 34.7 57.7 36.2 57.7C39.7 57.7 43.3 57.7 46.8 57.7C49.4 57.7 52 57.7 54.6 57.7C56 57.7 56.7 57.1 57 55.8L58.3 49.3C59.4 44 60.4 38.6 61.5 33.3C61.6 33 61.6 32.7 61.7 32.4C61.8 31.7 62 30.9 62.2 30.2L62.3 26.3ZM34.4 38.7C34.4 38.6 34.6 38.6 34.8 38.6C37.3 38.6 39.9 38.6 42.4 38.6H45.5C45.9 38.6 46.2 38.6 46.6 38.5C47.4 38.2 48 37.4 47.9 36.5C47.8 35.6 47.1 34.9 46.2 34.8C46 34.8 45.7 34.8 45.5 34.8H43C40.1 34.8 37.1 34.8 34.1 34.8C33.7 34.8 33.5 34.7 33.5 34.3C33.4 33.5 33.2 32.6 33 31.8C33 31.6 32.9 31.5 33 31.4C33 31.3 33.2 31.3 33.4 31.3C36.3 31.3 39.3 31.3 42.2 31.3H45H48.4C51.5 31.3 54.5 31.3 57.6 31.3C57.8 31.3 57.9 31.3 58 31.4C58 31.5 58 31.6 58 31.8C56.6 38.6 55.2 45.9 53.7 53.3C53.6 53.7 53.5 53.8 53.1 53.8C50.6 53.8 48.1 53.8 45.5 53.8C43 53.8 40.5 53.8 37.9 53.8C37.5 53.8 37.4 53.7 37.3 53.3C36.3 48.4 35.4 43.6 34.4 39C34.4 38.8 34.4 38.7 34.4 38.7ZM42.4 27.6C39.3 27.6 36.1 27.6 33 27.6C32.8 27.6 32.6 27.6 32.6 27.5C32.6 27.4 32.5 27.3 32.5 27.1C32.9 21.3 37.7 16.1 43.5 15.3C44.2 15.2 44.9 15.2 45.5 15.2C50.6 15.2 54.9 17.9 57.2 22.6C57.9 24 58.3 25.5 58.4 27.3C58.4 27.5 58.4 27.5 58.4 27.5C58.4 27.5 58.2 27.5 58.1 27.5C56.5 27.5 54.9 27.5 53.3 27.5L42.4 27.6Z" fill="#3546AB"/>
<path d="M22.7008 42.2001C22.4008 42.2001 22.3008 42.1001 22.2008 41.9001C21.8008 41.1001 21.2008 40.3 20.5008 39.8C20.3008 39.6 20.2008 39.4 20.2008 39.1C20.2008 37.4 20.2008 35.6001 20.2008 33.9001V32.5C20.2008 31.5 20.0008 31 19.6008 30.6C19.2008 30.2 18.7008 30.1 17.8008 30.1C17.7008 30.1 17.7008 30.1 17.6008 30.1C17.4008 30.1 17.3008 30.1 17.2008 30C17.1008 29.9 17.1008 29.8 17.1008 29.5C17.1008 23.3 17.1008 17.2 17.1008 11V7.80005V7.60005C17.1008 7.40005 17.1008 7.20005 17.1008 7.00005C17.0008 6.00005 16.2008 5.30005 15.3008 5.30005C15.3008 5.30005 15.3008 5.30005 15.2008 5.30005C14.7008 5.30005 14.2008 5.50005 13.9008 5.80005C13.5008 6.20005 13.3008 6.80005 13.3008 7.50005C13.3008 12.9 13.3008 18.4 13.3008 23.8V29.2001C13.3008 29.9001 13.3008 29.9 12.6008 29.9C11.0008 29.9 10.3008 30.6 10.3008 32.2001V32.7001C10.3008 34.7001 10.3008 36.8001 10.3008 38.9001C10.3008 39.2001 10.2008 39.5 10.0008 39.7001C9.30078 40.3 8.80078 40.9001 8.40078 41.7001C8.30078 42 8.10078 42.1 7.70078 42.1C7.70078 42.1 7.60078 42.1 7.50078 42.1C4.00078 42.1 0.900781 44.5 0.000781253 48C0.000781253 48.1 0.000781253 48.1001 0.000781253 48.2001C0.000781253 48.4001 0.000781253 48.5 -0.0992187 48.5H-0.199219V51V51.1H-0.0992187V51.2001V51.3C0.600781 55 3.90078 57.6 7.90078 57.6C8.00078 57.6 8.00078 57.6 8.10078 57.6C11.5008 57.5 14.9008 57.6 18.2008 57.6C19.6008 57.6 21.0008 57.6 22.3008 57.6C22.9008 57.6 23.5008 57.6 24.0008 57.5C26.0008 57.2001 27.8008 56.1001 29.0008 54.4001C30.2008 52.7001 30.7008 50.6001 30.4008 48.7001C29.9008 44.7001 26.8008 42.2001 22.7008 42.2001ZM16.5008 34.5C16.5008 34.8 16.5008 35.1 16.5008 35.5C16.5008 35.6 16.5008 35.7001 16.5008 35.7001V36.2001C16.5008 36.6 16.5008 37 16.5008 37.3C16.5008 37.5 16.5008 37.6 16.4008 37.6C16.4008 37.6 16.3008 37.7001 16.1008 37.7001C15.9008 37.7001 15.7008 37.7001 15.4008 37.7001C15.2008 37.7001 14.9008 37.7001 14.6008 37.7001C14.4008 37.7001 14.3008 37.7 14.3008 37.6C14.3008 37.6 14.2008 37.5 14.2008 37.4001C14.2008 36.3001 14.2008 35.2 14.2008 34.1C14.2008 34 14.2008 33.9 14.3008 33.8C14.4008 33.7 14.5008 33.7001 14.6008 33.7001C15.0008 33.7001 15.3008 33.7001 15.6008 33.7001C16.0008 33.7001 16.3008 33.7 16.4008 33.8C16.5008 33.9 16.5008 34.2001 16.5008 34.5ZM5.00078 47.1C6.00078 46.2 7.30078 45.8 8.70078 46.1C8.80078 46.1 8.80078 46.1001 8.90078 46.2001C9.20078 46.3 9.60078 46.4 9.90078 46.3C11.0008 46.1 11.3008 45.3 11.5008 44.6C11.9008 43.1 12.8008 42.2001 14.2008 41.8C16.2008 41.2001 18.3008 42.4001 19.0008 44.4001C19.0008 44.5 19.1008 44.6001 19.1008 44.7001C19.1008 44.8 19.2008 44.9001 19.2008 45C19.5008 46.1 20.5008 46.6 21.5008 46.3C22.7008 46 23.7008 46.1 24.6008 46.5C26.2008 47.3 27.1008 49.1001 26.7008 50.9001C26.3008 52.8001 24.7008 54 22.7008 54C21.0008 54 19.3008 54 17.6008 54C16.8008 54 16.1008 54 15.3008 54H13.2008C11.4008 54 9.60078 54 7.90078 54C5.80078 54 4.20078 52.8001 3.80078 50.9001C3.60078 49.4001 4.10078 48 5.00078 47.1Z" fill="#3546AB"/>
<path d="M51.2008 38.6C52.2008 38.6 53.1008 37.8001 53.1008 36.7001C53.1008 35.7001 52.3008 34.8 51.3008 34.8C50.8008 34.8 50.3008 35 49.9008 35.3C49.5008 35.6 49.3008 36.1 49.3008 36.6C49.3008 37.1 49.5008 37.6 49.9008 38C50.3008 38.4 50.7008 38.6 51.2008 38.6Z" fill="#3546AB"/>
</g>
<defs>
<clipPath id="clip0_534_533">
<rect width="62.3" height="57.7" fill="white"/>
</clipPath>
</defs>
</svg>
