<svg width="22" height="22" viewBox="0 0 22 22" fill="none" xmlns="http://www.w3.org/2000/svg">
<g clip-path="url(#clip0)">
<path d="M19.4135 5.71564C18.9207 5.91273 18.7236 6.504 19.0193 6.89818C19.6105 8.08073 19.9062 9.46036 19.9062 10.84C19.9062 15.8658 15.8658 19.9062 10.84 19.9062C5.81418 19.9062 1.77382 15.8658 1.77382 10.84C1.77382 5.81418 5.81418 1.77382 10.84 1.77382C12.9095 1.77382 14.8804 2.46364 16.4571 3.74473C16.8513 4.04036 17.4425 3.94182 17.7382 3.64618C18.0338 3.252 17.9353 2.66073 17.6396 2.36509C15.6687 0.788364 13.3036 0 10.84 0C4.82873 0 0 4.82873 0 10.84C0 16.8513 4.82873 21.68 10.84 21.68C16.8513 21.68 21.68 16.8513 21.68 10.84C21.68 9.16473 21.2858 7.588 20.596 6.10982C20.3989 5.71564 19.8076 5.51855 19.4135 5.71564Z" fill="#959AC5"/>
<path d="M10.84 4.64648C10.3473 4.64648 9.95309 5.04067 9.95309 5.53339V11.8403C9.95309 12.333 10.3473 12.7272 10.84 12.7272H15.3731C15.8658 12.7272 16.26 12.333 16.26 11.8403C16.26 11.3476 15.8658 10.9534 15.3731 10.9534H11.7269V5.53339C11.7269 5.04067 11.3327 4.64648 10.84 4.64648Z" fill="#959AC5"/>
</g>
<defs>
<clipPath id="clip0">
<rect width="21.68" height="21.68" fill="white"/>
</clipPath>
</defs>
</svg>
