<svg width="64" height="63" viewBox="0 0 64 63" fill="none" xmlns="http://www.w3.org/2000/svg">
<g clip-path="url(#clip0_534_582)">
<path d="M63.3 49C62.8 47.9 62 47.4001 60.6 47.4001C55.8 47.4001 51 47.4001 46.1 47.4001H41.4C40 47.4001 39.4 47.8 38.8 49.1L38.6 49.7001C38.4 50.2001 38.2 50.7 38 51.3V51.4001H37.9C35.4 51.4001 33 51.4001 30.5 51.4001H28.8H25.5L25 50.6C24.8 50 24.6 49.5001 24.3 48.9001C23.9 47.9001 23.1 47.3 22 47.3C18.3 47.3 14.5 47.3 10.8 47.3H2.4C0.9 47.3 0 48.2001 0 49.7001L0 50C0 52.8 0 55.1001 0 57.4001C0 59.7001 1.5 61.6 3.7 62.1C3.8 62.1 3.8 62.1 3.9 62.2001L59 62.3H59.1C60.7 61.9 61.7 61.2001 62.3 60.2001C62.6 59.8001 62.7 59.3001 62.9 58.9001C63 58.7001 63 58.5001 63.1 58.4001L63.2 49.3L63.3 49ZM58.2 57.8H52C36.5 57.8 20.9 57.8 5.4 57.8C5.1 57.8 4.8 57.7 4.6 57.6C4.6 57.6 4.5 57.4 4.5 57.3C4.5 55.8 4.5 54.3001 4.5 52.7001V51.8H8.8C12.7 51.8 16.6 51.8 20.6 51.8C20.8 51.8 20.8 51.8 20.8 52C21 52.5 21.2 53.1 21.4 53.6V53.7001C21.5 53.9001 21.6 54.1001 21.7 54.4001C22.1 55.4001 22.9 55.9001 23.9 55.9001C29 55.9001 34.1 55.9001 39.3 55.9001C40.4 55.9001 41.1 55.4001 41.5 54.4001C41.6 54.1001 41.7 53.8 41.8 53.5C42 53 42.2 52.4001 42.5 51.9001C47.5 51.9001 52.4 51.9001 57.8 51.9001H58.8V55.3C58.8 56 58.8 56.6 58.8 57.3C58.8 57.7 58.7 57.8 58.2 57.8Z" fill="#3546AB"/>
<path d="M6.50053 40.1C7.10053 40.1 7.60053 39.9 8.00053 39.5C8.50053 39 8.70053 38.3 8.70053 37.4V24.1C8.70053 23.2 8.70053 23.2 9.60053 23.2H53.6005C54.5005 23.2 54.5005 23.2 54.5005 24.1V37.4C54.5005 37.7 54.5005 37.9 54.5005 38.2C54.6005 39.2 55.3005 39.9 56.2005 40.1C56.9005 40.3 57.5005 40.1 58.1005 39.7C58.7005 39.3 59.0005 38.5 59.0005 37.7C59.0005 32.4 59.0005 29.1 59.0005 23.8C59.0005 20.8 56.9005 18.7 53.9005 18.7C53.3005 18.7 52.7005 18.7 52.1005 18.7H51.0005H50.3005V17.8C50.3005 17.2 50.3005 16.5 50.3005 15.9C50.3005 14.7 49.7005 13.9 48.5005 13.6C47.9005 13.4 47.3005 13.3 46.7005 13.2L46.1005 13C46.0005 13 45.9005 12.9 45.8005 12.6C45.7005 12.4 45.7005 12.2 45.8005 12.1L46.4005 11.2C46.6005 10.8 46.9005 10.5 47.1005 10.1C47.7005 9 47.6005 8 46.7005 7.1C45.5005 5.9 44.3005 4.7 43.2005 3.6C42.3005 2.7 41.3005 2.6 40.2005 3.3L39.2005 3.9C38.8005 4.1 38.5005 4.3 38.1005 4.5C38.1005 4.5 37.9005 4.5 37.6005 4.4C37.3005 4.3 37.2005 4.1 37.2005 4.1L36.8005 3C36.7005 2.6 36.6005 2.2 36.5005 1.8C36.2005 0.6 35.4005 0 34.2005 0C32.5005 0 30.9005 0 29.2005 0C27.9005 0 27.1005 0.6 26.8005 1.8C26.7005 2.1 26.6005 2.5 26.5005 2.8V2.9C26.4005 3.3 26.3005 3.6 26.2005 4C26.2005 4 26.1005 4.2 25.8005 4.3C25.5005 4.4 25.4005 4.4 25.3005 4.4C25.0005 4.2 24.7005 4.1 24.4005 3.9L24.2005 3.8C23.8005 3.6 23.5005 3.4 23.1005 3.2C22.1005 2.6 21.1005 2.7 20.2005 3.5C19.0005 4.7 17.8005 5.9 16.6005 7.1C15.7005 8 15.6005 9 16.2005 10C16.4005 10.4 16.7005 10.8 16.9005 11.2L17.4005 12C17.5005 12.1 17.5005 12.3 17.4005 12.5C17.3005 12.7 17.2005 12.9 17.0005 12.9L15.1005 13.4C13.4005 13.8 12.9005 14.5 12.9005 16.2V18.6H9.50053C6.30053 18.6 4.30053 20.6 4.30053 23.9V37.3C4.20053 39 5.10053 40.1 6.50053 40.1ZM22.2005 13.2C22.6005 12.3 22.6005 11.5 22.1005 10.7C21.8005 10.2 21.5005 9.8 21.3005 9.3L21.2005 9.1L21.3005 9C21.7005 8.6 22.1005 8.2 22.5005 7.8C23.0005 8.1 23.6005 8.4 24.1005 8.8C24.9005 9.3 25.7005 9.3 26.6005 8.9C27.4005 8.5 28.0005 8.3 28.6005 8.1C29.6005 7.8 30.2005 7.1 30.4005 6.1C30.5005 5.6 30.6005 5.2 30.7005 4.7L30.8005 4.4H30.9005C31.5005 4.4 32.0005 4.4 32.6005 4.4C32.8005 5 32.9005 5.6 33.0005 6.2V6.4C33.2005 7.2 33.7005 7.8 34.6005 8.1C35.5005 8.4 36.2005 8.7 36.8005 9C37.7005 9.4 38.4005 9.4 39.2005 8.9C39.4005 8.8 39.7005 8.6 39.9005 8.5C40.3005 8.3 40.6005 8.1 41.0005 7.9C41.3005 8.3 41.7005 8.7 42.3005 9.2C42.1005 9.5 41.9005 9.9 41.7005 10.2C41.6005 10.4 41.4005 10.6 41.3005 10.9C40.8005 11.6 40.8005 12.5 41.2005 13.3C41.5005 14 41.8005 14.7 42.1005 15.5C42.4005 16.4 43.0005 16.9 43.8005 17.1C44.4005 17.2 44.9005 17.4 45.5005 17.5L45.8005 17.6V18.7H39.6005C39.6005 16.1 38.5005 14.3 37.6005 13.3C36.2005 11.7 34.0005 10.7 32.0005 10.6C31.9005 10.6 31.9005 10.6 31.8005 10.6C29.7005 10.6 27.6005 11.5 26.1005 13.1C24.7005 14.6 23.9005 16.6 23.9005 18.7H17.6005C17.6005 18.3 17.6005 18 17.6005 17.6C18.3005 17.4 18.9005 17.3 19.5005 17.1C20.4005 16.9 21.0005 16.4 21.3005 15.5C21.5005 14.6 21.8005 13.9 22.2005 13.2ZM28.3005 18.2C28.4005 16.8 29.1005 15.8 30.3005 15.3C31.6005 14.7 32.7005 14.9 33.8005 15.8C34.7005 16.5 35.1005 17.5 35.0005 18.7H28.7005C28.6005 18.7 28.4005 18.7 28.3005 18.7C28.3005 18.5 28.3005 18.4 28.3005 18.2Z" fill="#3546AB"/>
<path d="M25.9018 36.9C25.0018 36.5 24.1018 36 23.2018 35.5L22.6018 35.2C22.3018 35.1 22.0018 34.9 21.8018 34.8L22.7018 34.4C23.8018 33.8 24.9018 33.3 26.0018 32.7C26.3018 32.6 26.7018 32.2 26.8018 31.7C26.8018 31 26.8018 30.3 26.8018 29.7V27.9L25.6018 28.4C25.4018 28.5 25.3018 28.5 25.1018 28.6C24.5018 28.9 23.8018 29.3 23.2018 29.6L22.8018 29.8C21.0018 30.7 19.2018 31.7 17.4018 32.5C16.1018 33.1 15.5018 34 15.7018 35.4C15.8018 36 16.0018 36.3 16.5018 36.6C17.7018 37.2 18.8018 37.8 19.9018 38.4L26.6018 41.9V40C26.6018 39.4 26.6018 38.8 26.6018 38.3C26.8018 37.3 26.1018 37 25.9018 36.9Z" fill="#3546AB"/>
<path d="M37.4016 36.9001C37.2016 37.0001 36.6016 37.3001 36.6016 37.9001C36.6016 38.6001 36.6016 39.2001 36.6016 39.9001V41.8L38.5016 40.9001C39.1016 40.6001 39.8016 40.3001 40.4016 39.9001L40.7016 39.8C42.4016 38.9 44.2016 38 46.0016 37.1C47.3016 36.5 47.9016 35.6001 47.7016 34.2001C47.6016 33.8001 47.5016 33.3 46.9016 33C45.6016 32.4 44.4016 31.7 43.1016 31.1L36.7016 27.8V29.6C36.7016 30.2 36.7016 30.8 36.7016 31.5C36.7016 32 37.0016 32.5001 37.4016 32.7001C38.1016 33.1001 38.9016 33.5 39.5016 33.8L40.4016 34.2001C40.8016 34.4001 41.2016 34.6 41.6016 34.8L40.5016 35.3C39.5016 35.8 38.4016 36.4001 37.4016 36.9001Z" fill="#3546AB"/>
<path d="M35.4 26.1C34.9 26.1 34.4 26.1 33.9 26.1H33.8C32.9 26.1 32.6 26.8 32.5 27.1C31.3 30.3 30 33.5 28.8 36.7L27.5 40.1C27.4 40.2 27.4 40.4 27.4 40.5L27 41.6H28.7C29.2 41.6 29.7 41.6 30.2 41.6H30.3C31.2 41.6 31.5 40.9 31.6 40.7C32.5 38.3 33.4 36 34.3 33.6L37.2 26.1H35.4Z" fill="#3546AB"/>
<path d="M56.7984 41.6C55.4984 41.6 54.4984 42.6 54.3984 43.9C54.3984 44.5 54.5984 45.2 55.0984 45.6C55.4984 46 56.0984 46.3 56.7984 46.3C58.0984 46.3 59.0984 45.3 59.1984 44C59.1984 43.4 58.9984 42.8 58.4984 42.3C58.0984 41.9 57.4984 41.6 56.7984 41.6Z" fill="#3546AB"/>
<path d="M6.4 46.3C7.1 46.3 7.7 46.1 8.1 45.7C8.5 45.3 8.8 44.7 8.8 44C8.8 43.4 8.6 42.8 8.1 42.3C7.7 41.8 7.1 41.6 6.4 41.6C5.1 41.6 4.1 42.6 4 43.9C4 44.5 4.2 45.1 4.6 45.6C5.2 46.1 5.8 46.3 6.4 46.3Z" fill="#3546AB"/>
</g>
<defs>
<clipPath id="clip0_534_582">
<rect width="63.3" height="62.3" fill="white"/>
</clipPath>
</defs>
</svg>
