<svg width="164" height="142" viewBox="0 0 164 142" fill="none" xmlns="http://www.w3.org/2000/svg">
<g clip-path="url(#clip0)">
<path d="M1.55802 92.8089C7.13403 148.053 95.202 146.252 136.366 136.349C162.77 130.047 164.41 117.362 163.918 90.2718C163.59 72.8393 164.984 26.7617 153.668 12.1937C136.202 -10.0675 120.622 3.84574 98.974 11.1298C71.34 20.5417 60.516 3.92758 34.194 4.41864C-4.50997 5.07338 -1.31198 64.2458 1.55802 92.8089Z" fill="url(#paint0_linear)"/>
<path opacity="0.2" d="M133.332 14.2395C132.676 13.994 132.02 13.9121 131.364 13.9121H131.446H131.282H41.574C37.884 13.9121 34.932 16.8585 34.932 20.5414V118.998H25.174C23.37 118.998 21.976 120.39 21.976 122.19V127.674C21.976 131.357 24.928 134.303 28.618 134.303H118.08H118.49C118.408 134.303 118.326 134.303 118.326 134.303C121.934 134.221 124.804 131.275 124.804 127.674V35.846H134.808C136.612 35.846 138.006 34.4547 138.006 32.6541V20.6232C137.924 17.6769 136.038 15.1398 133.332 14.2395Z" fill="#6583FE"/>
<path d="M120.13 14.2396V29.4623H134.726C136.53 29.4623 137.924 28.071 137.924 26.2705V14.2396C137.924 11.2932 136.038 8.75609 133.332 7.93766C132.676 7.69213 132.02 7.52844 131.282 7.52844H113.488C117.178 7.52844 120.13 10.5566 120.13 14.2396Z" fill="#58D7FF"/>
<path d="M131.446 7.52844C127.756 7.52844 124.804 10.4748 124.804 14.1577V121.29C124.804 124.973 121.852 127.919 118.162 127.919H34.932V14.1577C34.932 10.4748 37.884 7.52844 41.574 7.52844H131.446Z" fill="white"/>
<path d="M124.804 39.6105V14.2393C124.804 10.5563 127.756 7.60999 131.446 7.60999H41.574C37.884 7.60999 34.932 10.5563 34.932 14.2393V39.6924H124.804V39.6105Z" fill="white"/>
<path d="M118.49 128.001H28.618C24.928 128.001 21.976 125.055 21.976 121.372V115.888C21.976 114.088 23.37 112.697 25.174 112.697H108.65C110.454 112.697 111.848 114.088 111.848 115.888V121.372C111.848 124.973 114.8 128.001 118.49 128.001Z" fill="white"/>
<path d="M133.824 6.3826C133.086 6.13707 132.348 5.97339 131.528 5.97339H131.446H131.282H41.574C36.982 5.97339 33.292 9.65632 33.292 14.2395V101.811C33.292 102.712 34.03 103.448 34.932 103.448C35.834 103.448 36.572 102.712 36.572 101.811V14.2395C36.572 11.4569 38.868 9.16526 41.656 9.16526H124.968C123.902 10.5566 123.246 12.3571 123.246 14.2395V121.29C123.246 123.991 121.114 126.201 118.408 126.364C115.702 126.282 113.57 124.073 113.57 121.29V115.806C113.57 113.188 111.438 110.978 108.732 110.978H97.17C96.268 110.978 95.53 111.714 95.53 112.615C95.53 113.515 96.268 114.251 97.17 114.251H108.732C109.634 114.251 110.372 114.988 110.372 115.888V121.372C110.372 123.254 111.028 125.055 112.094 126.446H28.618C25.83 126.446 23.534 124.154 23.534 121.372V115.888C23.534 114.988 24.272 114.251 25.174 114.251H86.182C87.084 114.251 87.822 113.515 87.822 112.615C87.822 111.714 87.084 110.978 86.182 110.978H25.174C22.55 110.978 20.336 113.106 20.336 115.806V121.29C20.336 125.873 24.026 129.556 28.618 129.556H118.08H118.49C118.572 129.556 118.736 129.556 118.818 129.556C123.082 129.229 126.362 125.628 126.362 121.29V31.0173H134.726C137.35 31.0173 139.564 28.8894 139.564 26.1886V14.2395C139.564 10.6384 137.268 7.44656 133.824 6.3826ZM136.366 26.2704C136.366 27.1707 135.628 27.9073 134.726 27.9073H126.362V14.2395C126.362 11.4569 128.576 9.2471 131.364 9.16526C131.856 9.16526 132.348 9.2471 132.84 9.41079C134.89 10.0655 136.366 12.0298 136.366 14.2395V26.2704Z" fill="#3546AB"/>
<path d="M47.478 26.7615C48.8819 26.7615 50.02 25.6256 50.02 24.2244C50.02 22.8232 48.8819 21.6873 47.478 21.6873C46.0741 21.6873 44.936 22.8232 44.936 24.2244C44.936 25.6256 46.0741 26.7615 47.478 26.7615Z" fill="#3546AB"/>
<path d="M80.524 104.103H51.578C50.676 104.103 49.938 103.366 49.938 102.466V68.4194C49.938 67.5192 50.676 66.7826 51.578 66.7826H80.524V104.103Z" fill="#E0E2F1"/>
<path d="M80.524 66.7826H95.776V104.103H80.524V66.7826Z" fill="#E0E2F1"/>
<path d="M109.47 104.103H95.776V66.7826H109.47C110.372 66.7826 111.11 67.5192 111.11 68.4194V102.466C111.028 103.366 110.372 104.103 109.47 104.103Z" fill="#E0E2F1"/>
<path d="M105.37 96.3279C105.37 97.3918 104.468 98.2921 103.402 98.2921C102.336 98.2921 101.434 97.3918 101.434 96.3279C101.434 95.2639 102.336 94.3636 103.402 94.3636C104.468 94.3636 105.37 95.2639 105.37 96.3279Z" fill="#3546AB"/>
<path d="M88.15 91.581C89.2369 91.581 90.118 90.7016 90.118 89.6168C90.118 88.532 89.2369 87.6526 88.15 87.6526C87.0631 87.6526 86.182 88.532 86.182 89.6168C86.182 90.7016 87.0631 91.581 88.15 91.581Z" fill="#3546AB"/>
<path d="M88.15 84.8699C89.2369 84.8699 90.118 83.9905 90.118 82.9056C90.118 81.8208 89.2369 80.9414 88.15 80.9414C87.0631 80.9414 86.182 81.8208 86.182 82.9056C86.182 83.9905 87.0631 84.8699 88.15 84.8699Z" fill="#3546AB"/>
<path d="M105.37 76.1946C105.37 77.2585 104.468 78.1588 103.402 78.1588C102.336 78.1588 101.434 77.2585 101.434 76.1946C101.434 75.1306 102.336 74.2303 103.402 74.2303C104.468 74.2303 105.37 75.1306 105.37 76.1946Z" fill="#3546AB"/>
<path d="M71.094 97.9648H54.612C53.71 97.9648 52.972 97.2282 52.972 96.3279C52.972 95.4276 53.71 94.691 54.612 94.691H71.094C71.996 94.691 72.734 95.4276 72.734 96.3279C72.734 97.2282 71.996 97.9648 71.094 97.9648Z" fill="#3546AB"/>
<path d="M74.292 91.2537H54.612C53.71 91.2537 52.972 90.5171 52.972 89.6168C52.972 88.7166 53.71 87.98 54.612 87.98H74.292C75.194 87.98 75.932 88.7166 75.932 89.6168C75.932 90.5171 75.194 91.2537 74.292 91.2537Z" fill="#3546AB"/>
<path d="M71.094 84.5425H54.612C53.71 84.5425 52.972 83.8059 52.972 82.9057C52.972 82.0054 53.71 81.2688 54.612 81.2688H71.094C71.996 81.2688 72.734 82.0054 72.734 82.9057C72.734 83.8059 71.996 84.5425 71.094 84.5425Z" fill="#3546AB"/>
<path d="M63.14 77.8315H54.612C53.71 77.8315 52.972 77.0949 52.972 76.1946C52.972 75.2943 53.71 74.5577 54.612 74.5577H63.14C64.042 74.5577 64.78 75.2943 64.78 76.1946C64.698 77.0949 63.96 77.8315 63.14 77.8315Z" fill="#3546AB"/>
<path d="M75.768 33.9637H45.674C44.772 33.9637 44.034 33.2271 44.034 32.3268C44.034 31.4265 44.772 30.6899 45.674 30.6899H75.768C76.67 30.6899 77.408 31.4265 77.408 32.3268C77.408 33.2271 76.67 33.9637 75.768 33.9637Z" fill="#3546AB"/>
<path d="M88.97 59.9079H66.83C65.928 59.9079 65.19 59.1713 65.19 58.271C65.19 57.3707 65.928 56.6342 66.83 56.6342H88.888C89.79 56.6342 90.528 57.3707 90.528 58.271C90.528 59.1713 89.79 59.9079 88.97 59.9079Z" fill="#3546AB"/>
<path d="M72.898 54.3426H66.83C65.928 54.3426 65.19 53.606 65.19 52.7057C65.19 51.8054 65.928 51.0688 66.83 51.0688H72.898C73.8 51.0688 74.538 51.8054 74.538 52.7057C74.538 53.606 73.8 54.3426 72.898 54.3426Z" fill="#3546AB"/>
<path d="M60.844 50.9051C60.844 47.9588 58.466 45.5853 55.514 45.5853C52.562 45.5853 50.184 47.9588 50.184 50.9051C50.184 52.3783 50.758 53.6878 51.742 54.588C50.84 55.5702 50.184 56.8796 50.184 58.271C50.184 59.1712 50.922 59.9078 51.824 59.9078C52.726 59.9078 53.464 59.1712 53.464 58.271C53.464 57.1252 54.448 56.1431 55.596 56.1431C56.744 56.1431 57.728 57.1252 57.728 58.271C57.728 59.1712 58.466 59.9078 59.368 59.9078C60.27 59.9078 61.008 59.1712 61.008 58.271C61.008 56.7978 60.434 55.4883 59.45 54.588C60.27 53.6878 60.844 52.3783 60.844 50.9051ZM55.514 48.7772C56.662 48.7772 57.646 49.7593 57.646 50.9051C57.646 52.0509 56.662 53.033 55.514 53.033C54.366 53.033 53.382 52.0509 53.382 50.9051C53.382 49.7593 54.366 48.7772 55.514 48.7772Z" fill="#3546AB"/>
<path d="M101.434 54.3426C109.586 54.3426 116.194 47.747 116.194 39.6109C116.194 31.4748 109.586 24.8792 101.434 24.8792C93.2822 24.8792 86.674 31.4748 86.674 39.6109C86.674 47.747 93.2822 54.3426 101.434 54.3426Z" fill="#58D7FF"/>
<path d="M103.566 38.0558H103.074V34.7821H106.108C107.01 34.7821 107.748 34.0455 107.748 33.1452C107.748 32.245 107.01 31.5084 106.108 31.5084H103.074V30.69C103.074 29.7897 102.336 29.0531 101.434 29.0531C100.532 29.0531 99.7939 29.7897 99.7939 30.69V31.5084H99.3019C96.5959 31.5084 94.4639 33.6363 94.4639 36.3371C94.4639 39.0379 96.5959 41.1658 99.3019 41.1658H99.7939V44.4396H96.7599C95.8579 44.4396 95.1199 45.1761 95.1199 46.0764C95.1199 46.9767 95.8579 47.7133 96.7599 47.7133H99.7939V48.5317C99.7939 49.432 100.532 50.1686 101.434 50.1686C102.336 50.1686 103.074 49.432 103.074 48.5317V47.7133H103.566C106.272 47.7133 108.404 45.5854 108.404 42.8845C108.322 40.1837 106.19 38.0558 103.566 38.0558ZM99.3839 38.0558C98.4819 38.0558 97.7439 37.3192 97.7439 36.419C97.7439 35.5187 98.4819 34.7821 99.3839 34.7821H99.8759V38.0558H99.3839ZM103.566 44.4396H103.074V41.1658H103.566C104.468 41.1658 105.206 41.9024 105.206 42.8027C105.124 43.703 104.386 44.4396 103.566 44.4396Z" fill="#FCFCFF"/>
<path d="M137.924 47.6314C137.514 47.6314 137.104 47.4677 136.776 47.1403C136.12 46.4856 136.12 45.5034 136.776 44.8487L139.974 41.6568C140.63 41.0021 141.614 41.0021 142.27 41.6568C142.926 42.3116 142.926 43.2937 142.27 43.9484L139.072 47.1403C138.744 47.5495 138.334 47.6314 137.924 47.6314Z" fill="#3546AB"/>
<path d="M137.924 117.443C137.514 117.443 137.104 117.28 136.776 116.952C136.12 116.297 136.12 115.315 136.776 114.661L139.974 111.469C140.63 110.814 141.614 110.814 142.27 111.469C142.926 112.123 142.926 113.106 142.27 113.76L139.072 116.952C138.744 117.28 138.334 117.443 137.924 117.443Z" fill="#3546AB"/>
<path d="M16.4 51.478C15.498 51.478 14.76 50.7414 14.76 49.8411C14.76 48.7772 13.858 47.9587 12.874 47.9587C11.972 47.9587 11.234 47.2221 11.234 46.3219C11.234 45.4216 11.972 44.685 12.874 44.685C13.94 44.685 14.76 43.7847 14.76 42.8026C14.76 41.9024 15.498 41.1658 16.4 41.1658C17.302 41.1658 18.04 41.9024 18.04 42.8026C18.04 43.8666 18.942 44.685 19.926 44.685C20.828 44.685 21.566 45.4216 21.566 46.3219C21.566 47.2221 20.828 47.9587 19.926 47.9587C18.86 47.9587 18.04 48.859 18.04 49.8411C17.958 50.7414 17.22 51.478 16.4 51.478Z" fill="#3546AB"/>
<path d="M23.862 67.8465C22.96 67.8465 22.222 67.1099 22.222 66.2096C22.222 65.1457 21.32 64.3273 20.336 64.3273C19.434 64.3273 18.696 63.5907 18.696 62.6904C18.696 61.7901 19.434 61.0535 20.336 61.0535C21.402 61.0535 22.222 60.1533 22.222 59.1712C22.222 58.2709 22.96 57.5343 23.862 57.5343C24.764 57.5343 25.502 58.2709 25.502 59.1712C25.502 60.2351 26.404 61.0535 27.388 61.0535C28.29 61.0535 29.028 61.7901 29.028 62.6904C29.028 63.5907 28.29 64.3273 27.388 64.3273C26.322 64.3273 25.502 65.2275 25.502 66.2096C25.502 67.1099 24.764 67.8465 23.862 67.8465Z" fill="#3546AB"/>
<path d="M147.6 64.3273C146.698 64.3273 145.96 63.5908 145.96 62.6905C145.96 61.6265 145.058 60.8081 144.074 60.8081C143.172 60.8081 142.434 60.0715 142.434 59.1712C142.434 58.271 143.172 57.5344 144.074 57.5344C145.14 57.5344 145.96 56.6341 145.96 55.652C145.96 54.7517 146.698 54.0151 147.6 54.0151C148.502 54.0151 149.24 54.7517 149.24 55.652C149.24 56.716 150.142 57.5344 151.126 57.5344C152.028 57.5344 152.766 58.271 152.766 59.1712C152.766 60.0715 152.028 60.8081 151.126 60.8081C150.06 60.8081 149.24 61.7084 149.24 62.6905C149.24 63.5908 148.502 64.3273 147.6 64.3273Z" fill="#3546AB"/>
<path d="M80.524 103.612C79.622 103.612 78.884 102.875 78.884 101.975V68.9105C78.884 68.0103 79.622 67.2737 80.524 67.2737C81.426 67.2737 82.164 68.0103 82.164 68.9105V102.057C82.164 102.875 81.426 103.612 80.524 103.612Z" fill="#3546AB"/>
<path d="M95.776 103.612C94.874 103.612 94.136 102.875 94.136 101.975V68.9105C94.136 68.0103 94.874 67.2737 95.776 67.2737C96.678 67.2737 97.416 68.0103 97.416 68.9105V102.057C97.416 102.875 96.678 103.612 95.776 103.612Z" fill="#3546AB"/>
</g>
<defs>
<linearGradient id="paint0_linear" x1="8.83422" y1="113.608" x2="161.461" y2="25.3197" gradientUnits="userSpaceOnUse">
<stop stop-color="#EAFAF7" stop-opacity="0.3"/>
<stop offset="1" stop-color="#58D7FF" stop-opacity="0.5"/>
</linearGradient>
<clipPath id="clip0">
<rect width="164" height="141.588" fill="white" transform="translate(0 0.162598)"/>
</clipPath>
</defs>
</svg>
