<svg width="84" height="84" viewBox="0 0 84 84" fill="none" xmlns="http://www.w3.org/2000/svg">
<g clip-path="url(#clip0)">
<path d="M42 97.6221C72.719 97.6221 97.6217 72.7195 97.6217 42.0005C97.6217 11.2816 72.719 -13.6211 42 -13.6211C11.2811 -13.6211 -13.6216 11.2816 -13.6216 42.0005C-13.6216 72.7195 11.2811 97.6221 42 97.6221Z" fill="url(#paint0_linear)"/>
<path d="M54 36.9547H46.6945V27.9483C46.6945 25.2328 44.37 23.0151 41.5237 23.0151C38.6774 23.0151 36.3055 25.1875 36.3055 27.9483V37H29V27.9483C29 21.3858 34.5977 16 41.5237 16C48.4497 16 54 21.3405 54 27.9483V36.9547Z" fill="#3546AB"/>
<path d="M47.1536 65H36.7997C30.2702 65 25 59.8803 25 53.5372V37H59V53.5372C59 59.8803 53.6831 65 47.1536 65Z" fill="white"/>
<path d="M46 48.0909C46 45.8182 44.2222 44 42 44C39.7778 44 38 45.8182 38 48.0909C38 49.3182 38.5333 50.4091 39.3778 51.1818L38.3111 58H45.6444L44.5778 51.1818C45.4667 50.4545 46 49.3182 46 48.0909Z" fill="#58D7FF"/>
</g>
<defs>
<linearGradient id="paint0_linear" x1="72.0658" y1="-4.60137" x2="-3.85022" y2="97.6221" gradientUnits="userSpaceOnUse">
<stop stop-color="#58D7FF" stop-opacity="0.7"/>
<stop offset="1" stop-color="#58D7FF" stop-opacity="0"/>
</linearGradient>
<clipPath id="clip0">
<rect width="84" height="84" rx="42" fill="white"/>
</clipPath>
</defs>
</svg>
