<svg width="213" height="46" viewBox="0 0 213 46" fill="none" xmlns="http://www.w3.org/2000/svg">
<path d="M72.288 17.208V13.4H59.128V33H72.288V29.192H63.132V24.964H71.532V21.156H63.132V17.208H72.288ZM86.8556 17.6V19.756C85.7916 18.272 84.1676 17.264 81.9836 17.264C78.0356 17.264 74.9836 20.54 74.9836 25.3C74.9836 30.032 77.9796 33.336 82.0116 33.336C84.1676 33.336 85.7636 32.384 86.8276 30.928V33H90.8316L90.8596 17.6H86.8556ZM82.9076 29.528C80.6956 29.528 79.0156 27.848 79.0156 25.3C79.0156 22.78 80.6676 21.072 82.9076 21.072C85.1476 21.072 86.8556 22.78 86.8556 25.3C86.8556 27.848 85.1476 29.528 82.9076 29.528ZM101.563 33.336C105.371 33.336 108.423 31.656 108.423 28.212C108.423 25.132 105.959 24.292 101.563 23.284C99.3227 22.78 98.6227 22.64 98.6227 21.912C98.6227 21.072 99.6027 20.624 101.199 20.624C103.047 20.624 103.887 21.212 104.195 22.192H108.255C107.723 19.336 105.623 17.264 101.339 17.264C97.2787 17.264 94.5907 19.14 94.5907 22.388C94.5907 25.048 96.3827 26.028 100.751 27.064C103.075 27.624 104.279 27.708 104.279 28.744C104.279 29.584 103.439 30.004 101.675 30.004C99.1827 30.004 98.2587 29.164 97.9507 27.932H93.8907C94.4507 31.32 97.4467 33.336 101.563 33.336ZM121.904 17.6L118.068 26.616L114.26 17.6H110.004L115.94 30.956L111.908 40H116.164L126.188 17.6H121.904Z" fill="#0C145A"/>
<path d="M144.016 20.4L140.398 25.836L136.78 20.4H134.386V33H136.42V23.154L140.29 29.022H140.488L144.376 23.154V33H146.41V20.4H144.016ZM156.881 23.1V24.792C156.161 23.658 154.973 22.884 153.407 22.884C150.815 22.884 148.853 25.026 148.853 28.05C148.853 31.074 150.779 33.216 153.425 33.216C154.973 33.216 156.161 32.478 156.881 31.344V33H158.915V23.1H156.881ZM153.857 31.272C152.147 31.272 150.905 29.958 150.905 28.05C150.905 26.16 152.129 24.828 153.857 24.828C155.585 24.828 156.899 26.16 156.899 28.05C156.899 29.958 155.585 31.272 153.857 31.272ZM166.734 22.884C165.186 22.884 164.124 23.586 163.422 24.738V23.1H161.388V33H163.422V27.87C163.422 25.962 164.358 24.828 166.104 24.828C167.598 24.828 168.264 25.638 168.264 27.168V33H170.298V26.754C170.298 24.342 168.966 22.884 166.734 22.884ZM180.389 23.1V24.792C179.669 23.658 178.481 22.884 176.915 22.884C174.323 22.884 172.361 25.026 172.361 28.05C172.361 31.074 174.287 33.216 176.933 33.216C178.481 33.216 179.669 32.478 180.389 31.344V33H182.423V23.1H180.389ZM177.365 31.272C175.655 31.272 174.413 29.958 174.413 28.05C174.413 26.16 175.637 24.828 177.365 24.828C179.093 24.828 180.407 26.16 180.407 28.05C180.407 29.958 179.093 31.272 177.365 31.272ZM192.601 23.1V24.792C191.881 23.658 190.675 22.884 189.145 22.884C186.535 22.884 184.573 25.026 184.573 27.996C184.573 30.966 186.499 33.108 189.145 33.108C190.675 33.108 191.863 32.352 192.601 31.254V32.946C192.601 34.872 191.611 35.898 189.793 35.898C188.461 35.898 187.363 35.304 187.021 34.026H184.915C185.347 36.492 187.489 37.716 189.847 37.716C192.781 37.716 194.635 35.826 194.635 32.874V23.1H192.601ZM189.577 31.164C187.867 31.164 186.625 29.85 186.625 27.996C186.625 26.16 187.849 24.828 189.577 24.828C191.305 24.828 192.619 26.16 192.619 27.996C192.619 29.85 191.305 31.164 189.577 31.164ZM201.896 22.884C198.908 22.884 196.784 25.08 196.784 28.068C196.784 31.056 198.926 33.216 201.932 33.216C204.038 33.216 205.928 32.172 206.702 29.958H204.596C204.128 30.93 203.138 31.434 201.95 31.434C200.294 31.434 199.016 30.426 198.854 28.608H206.9C207.098 25.35 205.082 22.884 201.896 22.884ZM201.896 24.648C203.39 24.648 204.416 25.602 204.722 26.952H198.962C199.304 25.62 200.348 24.648 201.896 24.648Z" fill="#959AC5"/>
<g clip-path="url(#clip0)">
<path d="M13.0602 15.788L28.8068 0L22.566 1.73585C16.0359 3.51303 10.5391 6.61276 6.2408 10.9111L1.36389 15.788C2.97575 17.3998 5.08357 18.2264 7.19138 18.2264C9.34053 18.1851 11.4483 17.3998 13.0602 15.788Z" fill="#FB2B76"/>
<path d="M10.9111 39.7592L15.788 44.6361C17.3998 43.0243 18.2264 40.9165 18.2264 38.8086C18.2264 36.7008 17.3998 34.593 15.788 32.9811L0 17.1519L1.69452 23.434C3.51303 29.9227 6.61276 35.4196 10.9111 39.7592Z" fill="#3546AB"/>
<path d="M38.7673 27.8149C36.6595 27.8149 34.5517 28.6415 32.9398 30.2534L17.1519 46.0414L23.434 44.3468C29.9641 42.5697 35.4609 39.4699 39.7592 35.1716L44.6361 30.2534C43.8095 29.4268 42.9003 28.8482 41.9084 28.4349C40.9165 28.0216 39.8419 27.8149 38.7673 27.8149Z" fill="#48EEF9"/>
<path d="M30.212 13.1015L46 28.8895L44.3055 22.6074C42.5283 16.0773 39.4286 10.5804 35.1303 6.28212L30.212 1.40521C26.9883 4.62893 26.9883 9.87781 30.212 13.1015Z" fill="#3546AB"/>
</g>
<defs>
<clipPath id="clip0">
<rect width="46" height="46" fill="white"/>
</clipPath>
</defs>
</svg>
