<?xml version="1.0" encoding="utf-8"?>
<!-- Generator: Adobe Illustrator 22.0.0, SVG Export Plug-In . SVG Version: 6.00 Build 0)  -->
<svg version="1.1" id="Layer_1" xmlns="http://www.w3.org/2000/svg" xmlns:xlink="http://www.w3.org/1999/xlink" x="0px" y="0px"
	 viewBox="0 0 213 46" style="enable-background:new 0 0 213 46;" xml:space="preserve">
<style type="text/css">
	.st0{fill:#FFFFFF;}
	.st1{clip-path:url(#SVGID_2_);}
	.st2{fill:#FB2B76;}
	.st3{fill:#3546AB;}
	.st4{fill:#48EEF9;}
</style>
<path class="st0" d="M72.3,17.2v-3.8H59.1V33h13.2v-3.8h-9.2V25h8.4v-3.8h-8.4v-3.9H72.3z M86.9,17.6v2.2c-1.1-1.5-2.7-2.5-4.9-2.5
	c-3.9,0-7,3.3-7,8c0,4.7,3,8,7,8c2.2,0,3.8-1,4.8-2.4V33h4l0-15.4H86.9z M82.9,29.5c-2.2,0-3.9-1.7-3.9-4.2c0-2.5,1.7-4.2,3.9-4.2
	s3.9,1.7,3.9,4.2C86.9,27.8,85.1,29.5,82.9,29.5z M101.6,33.3c3.8,0,6.9-1.7,6.9-5.1c0-3.1-2.5-3.9-6.9-4.9
	c-2.2-0.5-2.9-0.6-2.9-1.4c0-0.8,1-1.3,2.6-1.3c1.8,0,2.7,0.6,3,1.6h4.1c-0.5-2.9-2.6-4.9-6.9-4.9c-4.1,0-6.7,1.9-6.7,5.1
	c0,2.7,1.8,3.6,6.2,4.7c2.3,0.6,3.5,0.6,3.5,1.7c0,0.8-0.8,1.3-2.6,1.3c-2.5,0-3.4-0.8-3.7-2.1h-4.1C94.5,31.3,97.4,33.3,101.6,33.3
	z M121.9,17.6l-3.8,9l-3.8-9H110l5.9,13.4l-4,9h4.3l10-22.4H121.9z"/>
<path class="st0" d="M144,20.4l-3.6,5.4l-3.6-5.4h-2.4V33h2v-9.8l3.9,5.9h0.2l3.9-5.9V33h2V20.4H144z M156.9,23.1v1.7
	c-0.7-1.1-1.9-1.9-3.5-1.9c-2.6,0-4.6,2.1-4.6,5.2s1.9,5.2,4.6,5.2c1.5,0,2.7-0.7,3.5-1.9V33h2v-9.9H156.9z M153.9,31.3
	c-1.7,0-3-1.3-3-3.2c0-1.9,1.2-3.2,3-3.2c1.7,0,3,1.3,3,3.2C156.9,30,155.6,31.3,153.9,31.3z M166.7,22.9c-1.5,0-2.6,0.7-3.3,1.9
	v-1.6h-2V33h2v-5.1c0-1.9,0.9-3,2.7-3c1.5,0,2.2,0.8,2.2,2.3V33h2v-6.2C170.3,24.3,169,22.9,166.7,22.9z M180.4,23.1v1.7
	c-0.7-1.1-1.9-1.9-3.5-1.9c-2.6,0-4.6,2.1-4.6,5.2s1.9,5.2,4.6,5.2c1.5,0,2.7-0.7,3.5-1.9V33h2v-9.9H180.4z M177.4,31.3
	c-1.7,0-3-1.3-3-3.2c0-1.9,1.2-3.2,3-3.2c1.7,0,3,1.3,3,3.2C180.4,30,179.1,31.3,177.4,31.3z M192.6,23.1v1.7
	c-0.7-1.1-1.9-1.9-3.5-1.9c-2.6,0-4.6,2.1-4.6,5.1s1.9,5.1,4.6,5.1c1.5,0,2.7-0.8,3.5-1.9v1.7c0,1.9-1,3-2.8,3
	c-1.3,0-2.4-0.6-2.8-1.9h-2.1c0.4,2.5,2.6,3.7,4.9,3.7c2.9,0,4.8-1.9,4.8-4.8v-9.8H192.6z M189.6,31.2c-1.7,0-3-1.3-3-3.2
	c0-1.8,1.2-3.2,3-3.2s3,1.3,3,3.2C192.6,29.9,191.3,31.2,189.6,31.2z M201.9,22.9c-3,0-5.1,2.2-5.1,5.2s2.1,5.1,5.1,5.1
	c2.1,0,4-1,4.8-3.3h-2.1c-0.5,1-1.5,1.5-2.6,1.5c-1.7,0-2.9-1-3.1-2.8h8C207.1,25.4,205.1,22.9,201.9,22.9z M201.9,24.6
	c1.5,0,2.5,1,2.8,2.3H199C199.3,25.6,200.3,24.6,201.9,24.6z"/>
<g>
	<defs>
		<rect id="SVGID_1_" width="46" height="46"/>
	</defs>
	<clipPath id="SVGID_2_">
		<use xlink:href="#SVGID_1_"  style="overflow:visible;"/>
	</clipPath>
	<g class="st1">
		<path class="st2" d="M13.1,15.8L28.8,0l-6.2,1.7c-6.5,1.8-12,4.9-16.3,9.2l-4.9,4.9c1.6,1.6,3.7,2.4,5.8,2.4
			C9.3,18.2,11.4,17.4,13.1,15.8z"/>
		<path class="st3" d="M10.9,39.8l4.9,4.9c1.6-1.6,2.4-3.7,2.4-5.8c0-2.1-0.8-4.2-2.4-5.8L0,17.2l1.7,6.3
			C3.5,29.9,6.6,35.4,10.9,39.8z"/>
		<path class="st4" d="M38.8,27.8c-2.1,0-4.2,0.8-5.8,2.4L17.2,46l6.3-1.7c6.5-1.8,12-4.9,16.3-9.2l4.9-4.9
			c-0.8-0.8-1.7-1.4-2.7-1.8C40.9,28,39.8,27.8,38.8,27.8z"/>
		<path class="st3" d="M30.2,13.1L46,28.9l-1.7-6.3c-1.8-6.5-4.9-12-9.2-16.3l-4.9-4.9C27,4.6,27,9.9,30.2,13.1z"/>
	</g>
</g>
</svg>
