<svg width="20" height="20" viewBox="0 0 20 20" fill="none" xmlns="http://www.w3.org/2000/svg">
<path d="M9.4 13.3C9.3 13.5 9.2 13.5 9.2 13.6C9.2 13.7 9.2 13.7 9.1 13.8C9.1 13.9 9.1 13.9 9.1 14C9.1 14.1 9.1 14.3 9.2 14.4C9.2 14.5 9.3 14.6 9.4 14.7C9.5 14.8 9.6 14.9 9.7 14.9C9.8 14.9 9.9 15 10.1 15C10.2 15 10.4 15 10.5 14.9C10.6 14.9 10.7 14.8 10.8 14.7C10.9 14.6 11 14.5 11 14.4C11 14.3 11.1 14.1 11.1 14C11.1 13.9 11.1 13.7 11 13.6C10.9 13.5 10.9 13.4 10.8 13.3C10.7 13.2 10.6 13.1 10.5 13.1C10.4 13.1 10.2 13 10.1 13C10 13 9.8 13 9.7 13.1C9.6 13.1 9.5 13.2 9.4 13.3ZM10.1 0C8.1 0 6.2 0.6 4.5 1.7C2.9 2.8 1.6 4.4 0.8 6.2C0 8 -0.2 10 0.2 12C0.6 13.9 1.5 15.7 2.9 17.1C4.3 18.5 6.1 19.5 8 19.8C9.9 20.2 12 20 13.8 19.2C15.6 18.4 17.2 17.2 18.3 15.5C19.4 13.8 20 11.9 20 9.9C20 8.6 19.7 7.3 19.2 6.1C18.7 4.9 18 3.8 17 2.9C16.1 2 15 1.2 13.8 0.7C12.7 0.3 11.4 0 10.1 0ZM10.1 18C8.5 18 7 17.5 5.7 16.7C4.4 15.8 3.4 14.6 2.8 13.1C2.2 11.6 2 10 2.3 8.5C2.6 7 3.4 5.5 4.5 4.4C5.6 3.3 7 2.5 8.6 2.2C10.2 1.9 11.8 2 13.2 2.7C14.7 3.3 15.9 4.3 16.8 5.7C17.7 7 18.1 8.6 18.1 10.1C18.1 12.2 17.3 14.3 15.8 15.8C14.3 17.3 12.2 18 10.1 18ZM10.1 5C9.6 5 9.1 5.1 8.6 5.4C8.1 5.7 7.8 6 7.5 6.5C7.4 6.6 7.4 6.7 7.4 6.9C7.4 7 7.4 7.2 7.4 7.3C7.4 7.4 7.5 7.6 7.6 7.7C7.7 7.8 7.8 7.9 7.9 8C8 8.1 8.1 8.1 8.3 8.1C8.4 8.1 8.6 8.1 8.7 8.1C8.8 8.1 9 8 9.1 7.9C9.2 7.8 9.3 7.7 9.4 7.6C9.5 7.4 9.6 7.3 9.8 7.2C10 7.1 10.1 7.1 10.3 7.1C10.6 7.1 10.8 7.2 11 7.4C11.2 7.6 11.3 7.8 11.3 8.1C11.3 8.4 11.2 8.6 11 8.8C10.8 9 10.6 9.1 10.3 9.1C10 9.1 9.8 9.2 9.6 9.4C9.4 9.6 9.3 9.8 9.3 10.1V11.1C9.3 11.4 9.4 11.6 9.6 11.8C9.8 12 10 12.1 10.3 12.1C10.6 12.1 10.8 12 11 11.8C11.2 11.6 11.3 11.4 11.3 11.1V10.9C12 10.7 12.5 10.2 12.9 9.6C13.3 9 13.4 8.3 13.3 7.6C13.2 6.9 12.8 6.3 12.3 5.8C11.5 5.3 10.8 5 10.1 5Z" fill="#0C145A"/>
</svg>
