<svg width="14" height="16" viewBox="0 0 14 16" fill="none" xmlns="http://www.w3.org/2000/svg">
<g clip-path="url(#clip0)">
<path d="M13.9 2.90002L12.9 1.90002C12.9 1.90002 12.9 1.90002 12.9 1.80002L11.2 0.100024C11.2 0.100024 11.2 0.100024 11.1 0.100024C10.9 2.44156e-05 10.6 2.44156e-05 10.5 0.100024C10.4 0.200024 10.3 0.600024 10.5 0.700024L12.2 2.40002L12.4 2.60002H2.5C1.1 2.80002 0 3.90002 0 5.30002V6.10002V7.30002C0 7.60002 0.2 7.80002 0.5 7.80002C0.8 7.80002 1 7.50002 1 7.30002V5.30002C1 4.50002 1.7 3.80002 2.5 3.80002H12.3L12.1 4.00002L10.4 5.70002C10.2 5.90002 10.2 6.20002 10.4 6.40002C10.6 6.60002 10.9 6.60002 11.1 6.40002L12.8 4.70002L13.9 3.60002C14 3.40002 14 3.10002 13.9 2.90002Z" fill="#959AC5"/>
<path d="M0.100024 12.7L1.10002 13.7C1.10002 13.7 1.10002 13.7 1.10002 13.8L2.80002 15.5C2.80002 15.5 2.80002 15.5 2.90002 15.5C3.10002 15.6 3.40002 15.6 3.50002 15.5C3.60002 15.4 3.70002 15 3.50002 14.9L1.90002 13L1.70002 12.8H11.5C12.9 12.8 14 11.7 14 10.3V9.49999V8.29999C14 7.99999 13.8 7.79999 13.5 7.79999C13.2 7.79999 13 7.99999 13 8.29999V10.3C13 11.1 12.3 11.8 11.5 11.8H1.70002L1.90002 11.6L3.60002 9.89999C3.80002 9.69999 3.80002 9.39999 3.60002 9.19999C3.40002 8.99999 3.20002 8.89999 3.00002 9.09999L1.30002 10.8L0.100024 12C2.44156e-05 12.1 2.44156e-05 12.5 0.100024 12.7Z" fill="#959AC5"/>
</g>
<defs>
<clipPath id="clip0">
<rect width="14" height="15.6" fill="white"/>
</clipPath>
</defs>
</svg>
