<svg width="901" height="611" viewBox="0 0 901 611" fill="none" xmlns="http://www.w3.org/2000/svg">
<g filter="url(#filter0_d)">
<path d="M80 80C80 71.1634 87.1634 64 96 64H805C813.837 64 821 71.1634 821 80V499C821 507.837 813.837 515 805 515H96C87.1635 515 80 507.837 80 499V80Z" fill="white" stroke="#58D7FF" stroke-width="4"/>
<rect x="121.5" y="342.5" width="657" height="59" rx="17.5" fill="#F9FBFD" fill-opacity="0.3" stroke="#D7D9E6"/>
<rect x="83" y="166" width="734" height="1" fill="#DADCF0"/>
<rect x="84" y="275" width="734" height="1" fill="#DADCF0"/>
<rect x="528" y="226" width="90" height="32" rx="16" fill="#FFF2F2"/>
<path d="M552.642 239.167V242.296H554.489C555.009 242.296 555.413 242.159 555.701 241.884C555.989 241.609 556.133 241.224 556.133 240.729C556.133 240.246 555.983 239.865 555.682 239.586C555.382 239.307 554.973 239.167 554.457 239.167H552.642ZM552.642 243.553V247H551.004V237.84H554.641C555.627 237.84 556.402 238.096 556.964 238.608C557.527 239.116 557.809 239.81 557.809 240.69C557.809 241.304 557.656 241.846 557.352 242.315C557.047 242.781 556.624 243.111 556.082 243.306L558.082 247H556.215L554.413 243.553H552.642ZM561.833 241.357C561.393 241.357 561.025 241.509 560.729 241.814C560.437 242.114 560.274 242.502 560.24 242.976H563.382C563.365 242.497 563.215 242.108 562.931 241.808C562.648 241.507 562.282 241.357 561.833 241.357ZM563.388 244.988H564.867C564.766 245.627 564.442 246.145 563.896 246.543C563.35 246.937 562.681 247.133 561.89 247.133C560.883 247.133 560.092 246.824 559.516 246.207C558.941 245.584 558.653 244.736 558.653 243.661C558.653 242.595 558.938 241.74 559.51 241.097C560.085 240.453 560.858 240.132 561.827 240.132C562.779 240.132 563.534 240.439 564.093 241.052C564.651 241.662 564.931 242.478 564.931 243.502V244.017H560.227V244.112C560.227 244.653 560.379 245.089 560.684 245.419C560.993 245.75 561.406 245.915 561.922 245.915C562.286 245.915 562.599 245.832 562.861 245.667C563.128 245.498 563.304 245.271 563.388 244.988ZM565.953 247V240.271H567.47V241.439H567.501C567.65 241.042 567.893 240.726 568.231 240.494C568.57 240.261 568.966 240.145 569.418 240.145C569.892 240.145 570.292 240.263 570.618 240.5C570.948 240.733 571.175 241.065 571.297 241.497H571.335C571.496 241.082 571.763 240.754 572.135 240.513C572.512 240.267 572.944 240.145 573.43 240.145C574.095 240.145 574.626 240.35 575.023 240.76C575.425 241.171 575.626 241.712 575.626 242.385V247H574.046V242.772C574.046 242.358 573.94 242.038 573.729 241.814C573.521 241.59 573.225 241.478 572.84 241.478C572.459 241.478 572.15 241.604 571.913 241.858C571.676 242.112 571.558 242.44 571.558 242.842V247H570.021V242.69C570.021 242.318 569.914 242.023 569.698 241.808C569.486 241.588 569.196 241.478 568.828 241.478C568.447 241.478 568.136 241.611 567.895 241.877C567.654 242.14 567.533 242.474 567.533 242.88V247H565.953ZM582.247 246.2C581.659 246.822 580.868 247.133 579.873 247.133C578.879 247.133 578.087 246.822 577.499 246.2C576.911 245.574 576.617 244.719 576.617 243.636C576.617 242.557 576.913 241.704 577.505 241.078C578.098 240.447 578.887 240.132 579.873 240.132C580.863 240.132 581.653 240.447 582.241 241.078C582.833 241.704 583.129 242.557 583.129 243.636C583.129 244.719 582.835 245.574 582.247 246.2ZM578.667 245.292C578.963 245.686 579.365 245.883 579.873 245.883C580.381 245.883 580.783 245.686 581.079 245.292C581.375 244.899 581.523 244.347 581.523 243.636C581.523 242.929 581.375 242.379 581.079 241.985C580.783 241.588 580.381 241.389 579.873 241.389C579.369 241.389 578.967 241.588 578.667 241.985C578.371 242.379 578.223 242.929 578.223 243.636C578.223 244.347 578.371 244.899 578.667 245.292ZM589.89 240.271L587.522 247H585.783L583.396 240.271H585.084L586.646 245.534H586.678L588.239 240.271H589.89ZM593.33 241.357C592.89 241.357 592.522 241.509 592.226 241.814C591.934 242.114 591.771 242.502 591.737 242.976H594.879C594.862 242.497 594.712 242.108 594.428 241.808C594.145 241.507 593.779 241.357 593.33 241.357ZM594.885 244.988H596.364C596.263 245.627 595.939 246.145 595.393 246.543C594.847 246.937 594.179 247.133 593.387 247.133C592.38 247.133 591.589 246.824 591.013 246.207C590.438 245.584 590.15 244.736 590.15 243.661C590.15 242.595 590.436 241.74 591.007 241.097C591.582 240.453 592.355 240.132 593.324 240.132C594.276 240.132 595.031 240.439 595.59 241.052C596.148 241.662 596.428 242.478 596.428 243.502V244.017H591.724V244.112C591.724 244.653 591.876 245.089 592.181 245.419C592.49 245.75 592.903 245.915 593.419 245.915C593.783 245.915 594.096 245.832 594.358 245.667C594.625 245.498 594.801 245.271 594.885 244.988Z" fill="#FF5B5B"/>
<rect x="224" y="432" width="93" height="38" rx="6" fill="#D7D9E6"/>
<path d="M251.57 451.1C251.57 454.026 253.712 456.084 256.526 456.084C258.696 456.084 260.46 454.936 261.118 452.92H258.864C258.402 453.872 257.562 454.334 256.512 454.334C254.804 454.334 253.586 453.074 253.586 451.1C253.586 449.112 254.804 447.866 256.512 447.866C257.562 447.866 258.402 448.328 258.864 449.266H261.118C260.46 447.264 258.696 446.102 256.526 446.102C253.712 446.102 251.57 448.174 251.57 451.1ZM262.792 456H264.752V445.64H262.792V456ZM274.179 452.122C274.179 449.672 272.429 448.118 270.189 448.118C267.949 448.118 266.199 449.672 266.199 452.122C266.199 454.558 267.893 456.126 270.133 456.126C272.387 456.126 274.179 454.558 274.179 452.122ZM268.187 452.122C268.187 450.568 269.125 449.826 270.161 449.826C271.197 449.826 272.163 450.568 272.163 452.122C272.163 453.662 271.169 454.418 270.133 454.418C269.083 454.418 268.187 453.662 268.187 452.122ZM281.636 453.788C281.58 450.946 277.282 451.828 277.282 450.414C277.282 449.966 277.66 449.672 278.388 449.672C279.158 449.672 279.634 450.078 279.69 450.68H281.566C281.454 449.14 280.32 448.118 278.444 448.118C276.526 448.118 275.378 449.154 275.378 450.442C275.378 453.284 279.76 452.402 279.76 453.788C279.76 454.236 279.34 454.586 278.57 454.586C277.786 454.586 277.24 454.138 277.17 453.55H275.196C275.28 454.992 276.638 456.126 278.584 456.126C280.474 456.126 281.636 455.118 281.636 453.788ZM286.577 449.728C287.585 449.728 288.397 450.372 288.425 451.394H284.743C284.897 450.33 285.639 449.728 286.577 449.728ZM290.259 453.564H288.145C287.893 454.082 287.431 454.502 286.591 454.502C285.611 454.502 284.827 453.858 284.729 452.71H290.399C290.441 452.458 290.455 452.206 290.455 451.954C290.455 449.644 288.873 448.118 286.633 448.118C284.337 448.118 282.741 449.672 282.741 452.122C282.741 454.558 284.379 456.126 286.633 456.126C288.551 456.126 289.839 454.992 290.259 453.564Z" fill="#464255"/>
<rect x="121" y="432" width="93" height="38" rx="6" fill="#3546AB"/>
<path d="M168.798 453.172C168.798 449.728 163.786 450.82 163.786 448.86C163.786 448.062 164.36 447.684 165.13 447.712C165.97 447.726 166.488 448.23 166.53 448.874H168.686C168.56 447.11 167.188 446.088 165.186 446.088C163.17 446.088 161.742 447.152 161.742 448.916C161.728 452.458 166.768 451.184 166.768 453.298C166.768 453.998 166.222 454.488 165.298 454.488C164.388 454.488 163.87 453.97 163.814 453.186H161.714C161.742 455.034 163.31 456.098 165.34 456.098C167.566 456.098 168.798 454.712 168.798 453.172ZM169.993 452.094C169.993 454.516 171.561 456.126 173.521 456.126C174.753 456.126 175.635 455.538 176.097 454.866V456H178.071V448.244H176.097V449.35C175.635 448.706 174.781 448.118 173.535 448.118C171.561 448.118 169.993 449.672 169.993 452.094ZM176.097 452.122C176.097 453.592 175.117 454.404 174.039 454.404C172.989 454.404 171.995 453.564 171.995 452.094C171.995 450.624 172.989 449.84 174.039 449.84C175.117 449.84 176.097 450.652 176.097 452.122ZM179.16 448.244L182.016 456H184.396L187.266 448.244H185.18L183.22 454.194L181.26 448.244H179.16ZM191.698 449.728C192.706 449.728 193.518 450.372 193.546 451.394H189.864C190.018 450.33 190.76 449.728 191.698 449.728ZM195.38 453.564H193.266C193.014 454.082 192.552 454.502 191.712 454.502C190.732 454.502 189.948 453.858 189.85 452.71H195.52C195.562 452.458 195.576 452.206 195.576 451.954C195.576 449.644 193.994 448.118 191.754 448.118C189.458 448.118 187.862 449.672 187.862 452.122C187.862 454.558 189.5 456.126 191.754 456.126C193.672 456.126 194.96 454.992 195.38 453.564Z" fill="white"/>
<path d="M150.608 445.511C150.336 445.207 149.957 445.024 149.552 445.002C149.147 444.981 148.751 445.123 148.45 445.397L141.244 454.325L138.628 451.635C138.487 451.487 138.318 451.369 138.132 451.288C137.945 451.207 137.745 451.165 137.542 451.163C137.339 451.161 137.137 451.2 136.95 451.278C136.762 451.355 136.591 451.47 136.448 451.615C136.304 451.76 136.191 451.933 136.114 452.123C136.037 452.313 135.998 452.516 136 452.722C136.002 452.927 136.044 453.13 136.124 453.318C136.204 453.507 136.321 453.677 136.467 453.82L140.108 457.548C140.385 457.827 140.757 457.989 141.149 457.999C141.54 458.01 141.92 457.868 142.211 457.603L150.495 447.693C150.796 447.419 150.977 447.035 150.998 446.626C151.019 446.217 150.879 445.816 150.608 445.511Z" fill="white"/>
<path d="M126.898 207L127.516 203.969H125.289L124.68 207H123.18L123.781 203.969H122L122.281 202.484H124.086L124.562 200.109H122.711L123 198.641H124.852L125.453 195.727H126.953L126.375 198.641H128.586L129.18 195.727H130.688L130.102 198.641H131.977L131.695 200.109H129.797L129.312 202.484H131.25L130.969 203.969H129.023L128.406 207H126.898ZM125.492 202.586H127.859L128.383 200.016H126.016L125.492 202.586Z" fill="#464255"/>
<path d="M127.852 321.188C126.237 321.188 124.958 320.667 124.016 319.625C123.078 318.583 122.609 317.161 122.609 315.359C122.609 313.568 123.081 312.151 124.023 311.109C124.971 310.062 126.247 309.539 127.852 309.539C129.164 309.539 130.271 309.914 131.172 310.664C132.073 311.409 132.586 312.385 132.711 313.594H130.727C130.596 312.885 130.266 312.318 129.734 311.891C129.208 311.464 128.581 311.25 127.852 311.25C126.883 311.25 126.109 311.622 125.531 312.367C124.958 313.107 124.672 314.104 124.672 315.359C124.672 316.625 124.958 317.628 125.531 318.367C126.104 319.107 126.88 319.477 127.859 319.477C128.604 319.477 129.229 319.286 129.734 318.906C130.245 318.521 130.578 317.99 130.734 317.312H132.711C132.534 318.521 132.013 319.469 131.148 320.156C130.284 320.844 129.185 321.188 127.852 321.188ZM137.039 319.664C137.596 319.664 138.065 319.5 138.445 319.172C138.831 318.839 139.023 318.424 139.023 317.93V317.297L137.109 317.414C136.641 317.445 136.276 317.562 136.016 317.766C135.76 317.964 135.633 318.227 135.633 318.555C135.633 318.893 135.76 319.164 136.016 319.367C136.276 319.565 136.617 319.664 137.039 319.664ZM136.453 321.133C135.646 321.133 134.982 320.901 134.461 320.438C133.945 319.974 133.688 319.372 133.688 318.633C133.688 317.898 133.958 317.318 134.5 316.891C135.047 316.464 135.826 316.219 136.836 316.156L139.023 316.031V315.438C139.023 315.005 138.885 314.669 138.609 314.43C138.339 314.19 137.961 314.07 137.477 314.07C137.023 314.07 136.654 314.172 136.367 314.375C136.081 314.578 135.906 314.854 135.844 315.203H134.039C134.081 314.417 134.417 313.779 135.047 313.289C135.682 312.794 136.518 312.547 137.555 312.547C138.581 312.547 139.401 312.797 140.016 313.297C140.635 313.797 140.945 314.464 140.945 315.297V321H139.07V319.68H139.031C138.797 320.122 138.443 320.477 137.969 320.742C137.495 321.003 136.99 321.133 136.453 321.133ZM143.055 310.781H145V312.719H146.562V314.219H145V318.523C145 318.862 145.081 319.112 145.242 319.273C145.404 319.435 145.656 319.516 146 319.516C146.229 319.516 146.414 319.503 146.555 319.477V320.961C146.32 321.013 145.984 321.039 145.547 321.039C144.651 321.039 144.01 320.867 143.625 320.523C143.245 320.18 143.055 319.604 143.055 318.797V314.219H141.867V312.719H143.055V310.781ZM151.305 314.055C150.763 314.055 150.31 314.242 149.945 314.617C149.586 314.987 149.385 315.464 149.344 316.047H153.211C153.19 315.458 153.005 314.979 152.656 314.609C152.307 314.24 151.857 314.055 151.305 314.055ZM153.219 318.523H155.039C154.914 319.31 154.516 319.948 153.844 320.438C153.172 320.922 152.349 321.164 151.375 321.164C150.135 321.164 149.161 320.784 148.453 320.023C147.745 319.258 147.391 318.214 147.391 316.891C147.391 315.578 147.742 314.526 148.445 313.734C149.154 312.943 150.104 312.547 151.297 312.547C152.469 312.547 153.398 312.924 154.086 313.68C154.773 314.43 155.117 315.435 155.117 316.695V317.328H149.328V317.445C149.328 318.112 149.516 318.648 149.891 319.055C150.271 319.461 150.779 319.664 151.414 319.664C151.862 319.664 152.247 319.562 152.57 319.359C152.898 319.151 153.115 318.872 153.219 318.523ZM160.031 319.461C160.656 319.461 161.154 319.227 161.523 318.758C161.893 318.284 162.078 317.643 162.078 316.836C162.078 316.029 161.891 315.385 161.516 314.906C161.146 314.422 160.651 314.18 160.031 314.18C159.417 314.18 158.927 314.419 158.562 314.898C158.203 315.378 158.023 316.023 158.023 316.836C158.023 317.654 158.203 318.297 158.562 318.766C158.927 319.229 159.417 319.461 160.031 319.461ZM160.023 324.125C159.008 324.125 158.159 323.891 157.477 323.422C156.799 322.958 156.411 322.359 156.312 321.625H158.242C158.346 321.943 158.565 322.198 158.898 322.391C159.232 322.589 159.628 322.688 160.086 322.688C160.711 322.688 161.198 322.526 161.547 322.203C161.901 321.885 162.078 321.458 162.078 320.922V319.523H162.031C161.812 319.977 161.471 320.339 161.008 320.609C160.549 320.875 160.026 321.008 159.438 321.008C158.406 321.008 157.581 320.633 156.961 319.883C156.341 319.128 156.031 318.109 156.031 316.828C156.031 315.521 156.341 314.487 156.961 313.727C157.581 312.961 158.419 312.578 159.477 312.578C160.06 312.578 160.581 312.719 161.039 313C161.497 313.276 161.846 313.656 162.086 314.141H162.117V312.719H164.023V320.867C164.023 321.857 163.659 322.646 162.93 323.234C162.201 323.828 161.232 324.125 160.023 324.125ZM172.195 320.016C171.471 320.781 170.497 321.164 169.273 321.164C168.049 321.164 167.076 320.781 166.352 320.016C165.628 319.245 165.266 318.193 165.266 316.859C165.266 315.531 165.63 314.482 166.359 313.711C167.089 312.935 168.06 312.547 169.273 312.547C170.492 312.547 171.464 312.935 172.188 313.711C172.917 314.482 173.281 315.531 173.281 316.859C173.281 318.193 172.919 319.245 172.195 320.016ZM167.789 318.898C168.154 319.383 168.648 319.625 169.273 319.625C169.898 319.625 170.393 319.383 170.758 318.898C171.122 318.414 171.305 317.734 171.305 316.859C171.305 315.99 171.122 315.312 170.758 314.828C170.393 314.339 169.898 314.094 169.273 314.094C168.654 314.094 168.159 314.339 167.789 314.828C167.424 315.312 167.242 315.99 167.242 316.859C167.242 317.734 167.424 318.414 167.789 318.898ZM174.531 321V312.719H176.398V314.164H176.438C176.578 313.659 176.82 313.268 177.164 312.992C177.513 312.716 177.932 312.578 178.422 312.578C178.594 312.578 178.797 312.604 179.031 312.656V314.414C178.839 314.341 178.576 314.305 178.242 314.305C177.69 314.305 177.258 314.471 176.945 314.805C176.633 315.138 176.477 315.596 176.477 316.18V321H174.531ZM180.953 324.078C180.531 324.078 180.276 324.068 180.188 324.047V322.508C180.276 322.529 180.464 322.539 180.75 322.539C181.151 322.539 181.464 322.456 181.688 322.289C181.911 322.122 182.078 321.849 182.188 321.469C182.188 321.464 182.206 321.388 182.242 321.242C182.284 321.096 182.302 321.018 182.297 321.008L179.352 312.719H181.477L183.43 319.344H183.461L185.414 312.719H187.461L184.469 321.328C184.115 322.354 183.677 323.068 183.156 323.469C182.635 323.875 181.901 324.078 180.953 324.078ZM193.734 321H191.789V309.727H193.539L199.133 317.625H199.203V309.727H201.141V321H199.406L193.805 313.094H193.734V321ZM205.758 319.664C206.315 319.664 206.784 319.5 207.164 319.172C207.549 318.839 207.742 318.424 207.742 317.93V317.297L205.828 317.414C205.359 317.445 204.995 317.562 204.734 317.766C204.479 317.964 204.352 318.227 204.352 318.555C204.352 318.893 204.479 319.164 204.734 319.367C204.995 319.565 205.336 319.664 205.758 319.664ZM205.172 321.133C204.365 321.133 203.701 320.901 203.18 320.438C202.664 319.974 202.406 319.372 202.406 318.633C202.406 317.898 202.677 317.318 203.219 316.891C203.766 316.464 204.544 316.219 205.555 316.156L207.742 316.031V315.438C207.742 315.005 207.604 314.669 207.328 314.43C207.057 314.19 206.68 314.07 206.195 314.07C205.742 314.07 205.372 314.172 205.086 314.375C204.799 314.578 204.625 314.854 204.562 315.203H202.758C202.799 314.417 203.135 313.779 203.766 313.289C204.401 312.794 205.237 312.547 206.273 312.547C207.299 312.547 208.12 312.797 208.734 313.297C209.354 313.797 209.664 314.464 209.664 315.297V321H207.789V319.68H207.75C207.516 320.122 207.161 320.477 206.688 320.742C206.214 321.003 205.708 321.133 205.172 321.133ZM211.234 321V312.719H213.102V314.156H213.141C213.323 313.667 213.622 313.279 214.039 312.992C214.456 312.706 214.943 312.562 215.5 312.562C216.083 312.562 216.576 312.708 216.977 313C217.383 313.286 217.661 313.695 217.812 314.227H217.859C218.057 313.716 218.385 313.312 218.844 313.016C219.307 312.714 219.839 312.562 220.438 312.562C221.255 312.562 221.909 312.815 222.398 313.32C222.893 313.826 223.141 314.492 223.141 315.32V321H221.195V315.797C221.195 315.286 221.065 314.893 220.805 314.617C220.549 314.341 220.185 314.203 219.711 314.203C219.242 314.203 218.862 314.359 218.57 314.672C218.279 314.984 218.133 315.388 218.133 315.883V321H216.242V315.695C216.242 315.237 216.109 314.875 215.844 314.609C215.583 314.339 215.227 314.203 214.773 314.203C214.305 314.203 213.922 314.367 213.625 314.695C213.328 315.018 213.18 315.43 213.18 315.93V321H211.234ZM228.273 314.055C227.732 314.055 227.279 314.242 226.914 314.617C226.555 314.987 226.354 315.464 226.312 316.047H230.18C230.159 315.458 229.974 314.979 229.625 314.609C229.276 314.24 228.826 314.055 228.273 314.055ZM230.188 318.523H232.008C231.883 319.31 231.484 319.948 230.812 320.438C230.141 320.922 229.318 321.164 228.344 321.164C227.104 321.164 226.13 320.784 225.422 320.023C224.714 319.258 224.359 318.214 224.359 316.891C224.359 315.578 224.711 314.526 225.414 313.734C226.122 312.943 227.073 312.547 228.266 312.547C229.438 312.547 230.367 312.924 231.055 313.68C231.742 314.43 232.086 315.435 232.086 316.695V317.328H226.297V317.445C226.297 318.112 226.484 318.648 226.859 319.055C227.24 319.461 227.747 319.664 228.383 319.664C228.831 319.664 229.216 319.562 229.539 319.359C229.867 319.151 230.083 318.872 230.188 318.523Z" fill="#464255"/>
<path d="M125.789 239V228.875H125.758C125.685 228.922 125.193 229.263 124.281 229.898C123.37 230.529 122.854 230.88 122.734 230.953V229.812C122.828 229.755 123.328 229.411 124.234 228.781C125.141 228.151 125.654 227.799 125.773 227.727H126.82V239H125.789Z" fill="#464255"/>
<path d="M241.898 230.883C241.904 229.924 242.247 229.13 242.93 228.5C243.617 227.865 244.477 227.547 245.508 227.547C246.492 227.547 247.323 227.844 248 228.438C248.677 229.031 249.016 229.76 249.016 230.625C249.016 231.24 248.844 231.836 248.5 232.414C248.161 232.987 247.523 233.76 246.586 234.734L243.445 238.016V238.047H249.305V239H241.953V238.25L245.938 234.039C246.745 233.19 247.281 232.542 247.547 232.094C247.818 231.646 247.953 231.177 247.953 230.688C247.953 230.073 247.714 229.552 247.234 229.125C246.755 228.698 246.169 228.484 245.477 228.484C244.753 228.484 244.148 228.714 243.664 229.172C243.185 229.625 242.94 230.195 242.93 230.883V230.891H241.898V230.883Z" fill="#464255"/>
<path d="M246.852 207.188C245.237 207.188 243.958 206.667 243.016 205.625C242.078 204.583 241.609 203.161 241.609 201.359C241.609 199.568 242.081 198.151 243.023 197.109C243.971 196.062 245.247 195.539 246.852 195.539C248.164 195.539 249.271 195.914 250.172 196.664C251.073 197.409 251.586 198.385 251.711 199.594H249.727C249.596 198.885 249.266 198.318 248.734 197.891C248.208 197.464 247.581 197.25 246.852 197.25C245.883 197.25 245.109 197.622 244.531 198.367C243.958 199.107 243.672 200.104 243.672 201.359C243.672 202.625 243.958 203.628 244.531 204.367C245.104 205.107 245.88 205.477 246.859 205.477C247.604 205.477 248.229 205.286 248.734 204.906C249.245 204.521 249.578 203.99 249.734 203.312H251.711C251.534 204.521 251.013 205.469 250.148 206.156C249.284 206.844 248.185 207.188 246.852 207.188ZM256.039 205.664C256.596 205.664 257.065 205.5 257.445 205.172C257.831 204.839 258.023 204.424 258.023 203.93V203.297L256.109 203.414C255.641 203.445 255.276 203.562 255.016 203.766C254.76 203.964 254.633 204.227 254.633 204.555C254.633 204.893 254.76 205.164 255.016 205.367C255.276 205.565 255.617 205.664 256.039 205.664ZM255.453 207.133C254.646 207.133 253.982 206.901 253.461 206.438C252.945 205.974 252.688 205.372 252.688 204.633C252.688 203.898 252.958 203.318 253.5 202.891C254.047 202.464 254.826 202.219 255.836 202.156L258.023 202.031V201.438C258.023 201.005 257.885 200.669 257.609 200.43C257.339 200.19 256.961 200.07 256.477 200.07C256.023 200.07 255.654 200.172 255.367 200.375C255.081 200.578 254.906 200.854 254.844 201.203H253.039C253.081 200.417 253.417 199.779 254.047 199.289C254.682 198.794 255.518 198.547 256.555 198.547C257.581 198.547 258.401 198.797 259.016 199.297C259.635 199.797 259.945 200.464 259.945 201.297V207H258.07V205.68H258.031C257.797 206.122 257.443 206.477 256.969 206.742C256.495 207.003 255.99 207.133 255.453 207.133ZM262.055 196.781H264V198.719H265.562V200.219H264V204.523C264 204.862 264.081 205.112 264.242 205.273C264.404 205.435 264.656 205.516 265 205.516C265.229 205.516 265.414 205.503 265.555 205.477V206.961C265.32 207.013 264.984 207.039 264.547 207.039C263.651 207.039 263.01 206.867 262.625 206.523C262.245 206.18 262.055 205.604 262.055 204.797V200.219H260.867V198.719H262.055V196.781ZM270.305 200.055C269.763 200.055 269.31 200.242 268.945 200.617C268.586 200.987 268.385 201.464 268.344 202.047H272.211C272.19 201.458 272.005 200.979 271.656 200.609C271.307 200.24 270.857 200.055 270.305 200.055ZM272.219 204.523H274.039C273.914 205.31 273.516 205.948 272.844 206.438C272.172 206.922 271.349 207.164 270.375 207.164C269.135 207.164 268.161 206.784 267.453 206.023C266.745 205.258 266.391 204.214 266.391 202.891C266.391 201.578 266.742 200.526 267.445 199.734C268.154 198.943 269.104 198.547 270.297 198.547C271.469 198.547 272.398 198.924 273.086 199.68C273.773 200.43 274.117 201.435 274.117 202.695V203.328H268.328V203.445C268.328 204.112 268.516 204.648 268.891 205.055C269.271 205.461 269.779 205.664 270.414 205.664C270.862 205.664 271.247 205.562 271.57 205.359C271.898 205.151 272.115 204.872 272.219 204.523ZM279.031 205.461C279.656 205.461 280.154 205.227 280.523 204.758C280.893 204.284 281.078 203.643 281.078 202.836C281.078 202.029 280.891 201.385 280.516 200.906C280.146 200.422 279.651 200.18 279.031 200.18C278.417 200.18 277.927 200.419 277.562 200.898C277.203 201.378 277.023 202.023 277.023 202.836C277.023 203.654 277.203 204.297 277.562 204.766C277.927 205.229 278.417 205.461 279.031 205.461ZM279.023 210.125C278.008 210.125 277.159 209.891 276.477 209.422C275.799 208.958 275.411 208.359 275.312 207.625H277.242C277.346 207.943 277.565 208.198 277.898 208.391C278.232 208.589 278.628 208.688 279.086 208.688C279.711 208.688 280.198 208.526 280.547 208.203C280.901 207.885 281.078 207.458 281.078 206.922V205.523H281.031C280.812 205.977 280.471 206.339 280.008 206.609C279.549 206.875 279.026 207.008 278.438 207.008C277.406 207.008 276.581 206.633 275.961 205.883C275.341 205.128 275.031 204.109 275.031 202.828C275.031 201.521 275.341 200.487 275.961 199.727C276.581 198.961 277.419 198.578 278.477 198.578C279.06 198.578 279.581 198.719 280.039 199C280.497 199.276 280.846 199.656 281.086 200.141H281.117V198.719H283.023V206.867C283.023 207.857 282.659 208.646 281.93 209.234C281.201 209.828 280.232 210.125 279.023 210.125ZM291.195 206.016C290.471 206.781 289.497 207.164 288.273 207.164C287.049 207.164 286.076 206.781 285.352 206.016C284.628 205.245 284.266 204.193 284.266 202.859C284.266 201.531 284.63 200.482 285.359 199.711C286.089 198.935 287.06 198.547 288.273 198.547C289.492 198.547 290.464 198.935 291.188 199.711C291.917 200.482 292.281 201.531 292.281 202.859C292.281 204.193 291.919 205.245 291.195 206.016ZM286.789 204.898C287.154 205.383 287.648 205.625 288.273 205.625C288.898 205.625 289.393 205.383 289.758 204.898C290.122 204.414 290.305 203.734 290.305 202.859C290.305 201.99 290.122 201.312 289.758 200.828C289.393 200.339 288.898 200.094 288.273 200.094C287.654 200.094 287.159 200.339 286.789 200.828C286.424 201.312 286.242 201.99 286.242 202.859C286.242 203.734 286.424 204.414 286.789 204.898ZM293.531 207V198.719H295.398V200.164H295.438C295.578 199.659 295.82 199.268 296.164 198.992C296.513 198.716 296.932 198.578 297.422 198.578C297.594 198.578 297.797 198.604 298.031 198.656V200.414C297.839 200.341 297.576 200.305 297.242 200.305C296.69 200.305 296.258 200.471 295.945 200.805C295.633 201.138 295.477 201.596 295.477 202.18V207H293.531ZM299.953 210.078C299.531 210.078 299.276 210.068 299.188 210.047V208.508C299.276 208.529 299.464 208.539 299.75 208.539C300.151 208.539 300.464 208.456 300.688 208.289C300.911 208.122 301.078 207.849 301.188 207.469C301.188 207.464 301.206 207.388 301.242 207.242C301.284 207.096 301.302 207.018 301.297 207.008L298.352 198.719H300.477L302.43 205.344H302.461L304.414 198.719H306.461L303.469 207.328C303.115 208.354 302.677 209.068 302.156 209.469C301.635 209.875 300.901 210.078 299.953 210.078ZM312.734 207H310.789V195.727H312.539L318.133 203.625H318.203V195.727H320.141V207H318.406L312.805 199.094H312.734V207ZM324.758 205.664C325.315 205.664 325.784 205.5 326.164 205.172C326.549 204.839 326.742 204.424 326.742 203.93V203.297L324.828 203.414C324.359 203.445 323.995 203.562 323.734 203.766C323.479 203.964 323.352 204.227 323.352 204.555C323.352 204.893 323.479 205.164 323.734 205.367C323.995 205.565 324.336 205.664 324.758 205.664ZM324.172 207.133C323.365 207.133 322.701 206.901 322.18 206.438C321.664 205.974 321.406 205.372 321.406 204.633C321.406 203.898 321.677 203.318 322.219 202.891C322.766 202.464 323.544 202.219 324.555 202.156L326.742 202.031V201.438C326.742 201.005 326.604 200.669 326.328 200.43C326.057 200.19 325.68 200.07 325.195 200.07C324.742 200.07 324.372 200.172 324.086 200.375C323.799 200.578 323.625 200.854 323.562 201.203H321.758C321.799 200.417 322.135 199.779 322.766 199.289C323.401 198.794 324.237 198.547 325.273 198.547C326.299 198.547 327.12 198.797 327.734 199.297C328.354 199.797 328.664 200.464 328.664 201.297V207H326.789V205.68H326.75C326.516 206.122 326.161 206.477 325.688 206.742C325.214 207.003 324.708 207.133 324.172 207.133ZM330.234 207V198.719H332.102V200.156H332.141C332.323 199.667 332.622 199.279 333.039 198.992C333.456 198.706 333.943 198.562 334.5 198.562C335.083 198.562 335.576 198.708 335.977 199C336.383 199.286 336.661 199.695 336.812 200.227H336.859C337.057 199.716 337.385 199.312 337.844 199.016C338.307 198.714 338.839 198.562 339.438 198.562C340.255 198.562 340.909 198.815 341.398 199.32C341.893 199.826 342.141 200.492 342.141 201.32V207H340.195V201.797C340.195 201.286 340.065 200.893 339.805 200.617C339.549 200.341 339.185 200.203 338.711 200.203C338.242 200.203 337.862 200.359 337.57 200.672C337.279 200.984 337.133 201.388 337.133 201.883V207H335.242V201.695C335.242 201.237 335.109 200.875 334.844 200.609C334.583 200.339 334.227 200.203 333.773 200.203C333.305 200.203 332.922 200.367 332.625 200.695C332.328 201.018 332.18 201.43 332.18 201.93V207H330.234ZM347.273 200.055C346.732 200.055 346.279 200.242 345.914 200.617C345.555 200.987 345.354 201.464 345.312 202.047H349.18C349.159 201.458 348.974 200.979 348.625 200.609C348.276 200.24 347.826 200.055 347.273 200.055ZM349.188 204.523H351.008C350.883 205.31 350.484 205.948 349.812 206.438C349.141 206.922 348.318 207.164 347.344 207.164C346.104 207.164 345.13 206.784 344.422 206.023C343.714 205.258 343.359 204.214 343.359 202.891C343.359 201.578 343.711 200.526 344.414 199.734C345.122 198.943 346.073 198.547 347.266 198.547C348.438 198.547 349.367 198.924 350.055 199.68C350.742 200.43 351.086 201.435 351.086 202.695V203.328H345.297V203.445C345.297 204.112 345.484 204.648 345.859 205.055C346.24 205.461 346.747 205.664 347.383 205.664C347.831 205.664 348.216 205.562 348.539 205.359C348.867 205.151 349.083 204.872 349.188 204.523Z" fill="#464255"/>
<path d="M543.359 207L542.398 204.086H538.25L537.289 207H535.211L539.211 195.727H541.484L545.484 207H543.359ZM540.297 197.719L538.719 202.531H541.922L540.352 197.719H540.297ZM553.531 201.672H551.695C551.612 201.208 551.414 200.836 551.102 200.555C550.789 200.268 550.383 200.125 549.883 200.125C549.268 200.125 548.779 200.37 548.414 200.859C548.049 201.344 547.867 202.01 547.867 202.859C547.867 203.719 548.049 204.391 548.414 204.875C548.779 205.354 549.273 205.594 549.898 205.594C550.388 205.594 550.789 205.464 551.102 205.203C551.414 204.938 551.615 204.568 551.703 204.094H553.539C553.461 205.021 553.089 205.766 552.422 206.328C551.76 206.885 550.911 207.164 549.875 207.164C548.656 207.164 547.688 206.781 546.969 206.016C546.25 205.245 545.891 204.193 545.891 202.859C545.891 201.542 546.25 200.495 546.969 199.719C547.688 198.938 548.651 198.547 549.859 198.547C550.922 198.547 551.781 198.844 552.438 199.438C553.099 200.026 553.464 200.771 553.531 201.672ZM555.242 196.781H557.188V198.719H558.75V200.219H557.188V204.523C557.188 204.862 557.268 205.112 557.43 205.273C557.591 205.435 557.844 205.516 558.188 205.516C558.417 205.516 558.602 205.503 558.742 205.477V206.961C558.508 207.013 558.172 207.039 557.734 207.039C556.839 207.039 556.198 206.867 555.812 206.523C555.432 206.18 555.242 205.604 555.242 204.797V200.219H554.055V198.719H555.242V196.781ZM560.125 207V198.719H562.07V207H560.125ZM561.859 197.328C561.651 197.531 561.396 197.633 561.094 197.633C560.792 197.633 560.536 197.531 560.328 197.328C560.12 197.12 560.016 196.87 560.016 196.578C560.016 196.281 560.12 196.031 560.328 195.828C560.536 195.62 560.792 195.516 561.094 195.516C561.396 195.516 561.651 195.62 561.859 195.828C562.073 196.031 562.18 196.281 562.18 196.578C562.18 196.87 562.073 197.12 561.859 197.328ZM570.289 206.016C569.565 206.781 568.591 207.164 567.367 207.164C566.143 207.164 565.169 206.781 564.445 206.016C563.721 205.245 563.359 204.193 563.359 202.859C563.359 201.531 563.724 200.482 564.453 199.711C565.182 198.935 566.154 198.547 567.367 198.547C568.586 198.547 569.557 198.935 570.281 199.711C571.01 200.482 571.375 201.531 571.375 202.859C571.375 204.193 571.013 205.245 570.289 206.016ZM565.883 204.898C566.247 205.383 566.742 205.625 567.367 205.625C567.992 205.625 568.487 205.383 568.852 204.898C569.216 204.414 569.398 203.734 569.398 202.859C569.398 201.99 569.216 201.312 568.852 200.828C568.487 200.339 567.992 200.094 567.367 200.094C566.747 200.094 566.253 200.339 565.883 200.828C565.518 201.312 565.336 201.99 565.336 202.859C565.336 203.734 565.518 204.414 565.883 204.898ZM572.625 207V198.719H574.492V200.141H574.531C574.76 199.641 575.094 199.253 575.531 198.977C575.974 198.701 576.508 198.562 577.133 198.562C578.039 198.562 578.742 198.836 579.242 199.383C579.747 199.93 580 200.685 580 201.648V207H578.055V202.039C578.055 201.445 577.914 200.992 577.633 200.68C577.357 200.367 576.945 200.211 576.398 200.211C575.841 200.211 575.396 200.393 575.062 200.758C574.734 201.122 574.57 201.604 574.57 202.203V207H572.625Z" fill="#464255"/>
<rect x="786" y="100.152" width="19" height="3" rx="1.5" transform="rotate(-45 786 100.152)" fill="black"/>
<rect x="788.121" y="86.7188" width="19" height="3" rx="1.5" transform="rotate(45 788.121 86.7188)" fill="black"/>
<path fill-rule="evenodd" clip-rule="evenodd" d="M685 438C684.448 438 684 438.448 684 439V441H682C681.448 441 681 441.448 681 442C681 442.552 681.448 443 682 443H684V445C684 445.552 684.448 446 685 446C685.552 446 686 445.552 686 445V443H688C688.552 443 689 442.552 689 442C689 441.448 688.552 441 688 441H686V439C686 438.448 685.552 438 685 438Z" fill="white"/>
<path d="M123.948 111.862H131.873C133.924 111.862 135.594 112.507 136.883 113.796C138.182 115.085 138.831 116.755 138.831 118.806C138.831 120.866 138.172 122.546 136.854 123.845C135.545 125.134 133.851 125.778 131.771 125.778H127.229V133H123.948V111.862ZM127.229 114.631V123.024H130.994C132.42 123.024 133.523 122.658 134.305 121.926C135.086 121.193 135.477 120.158 135.477 118.82C135.477 117.492 135.086 116.462 134.305 115.729C133.533 114.997 132.435 114.631 131.009 114.631H127.229ZM141.321 133V117.59H144.339V120.212H144.412C144.666 119.313 145.12 118.61 145.774 118.103C146.429 117.595 147.21 117.341 148.118 117.341C148.421 117.341 148.782 117.38 149.202 117.458V120.402C148.919 120.285 148.445 120.227 147.781 120.227C146.766 120.227 145.96 120.544 145.364 121.179C144.778 121.813 144.485 122.678 144.485 123.771V133H141.321ZM162.43 131.154C161.102 132.58 159.329 133.293 157.112 133.293C154.896 133.293 153.123 132.58 151.795 131.154C150.467 129.719 149.803 127.766 149.803 125.295C149.803 122.834 150.467 120.891 151.795 119.465C153.123 118.029 154.896 117.312 157.112 117.312C159.329 117.312 161.102 118.029 162.43 119.465C163.758 120.891 164.422 122.834 164.422 125.295C164.422 127.766 163.758 129.719 162.43 131.154ZM157.112 130.686C158.372 130.686 159.368 130.212 160.101 129.265C160.833 128.317 161.199 126.994 161.199 125.295C161.199 123.605 160.828 122.287 160.086 121.34C159.354 120.393 158.362 119.919 157.112 119.919C155.862 119.919 154.866 120.393 154.124 121.34C153.392 122.287 153.025 123.605 153.025 125.295C153.025 126.994 153.392 128.317 154.124 129.265C154.866 130.212 155.862 130.686 157.112 130.686ZM172.654 133.264C170.701 133.264 169.134 132.541 167.952 131.096C166.771 129.65 166.18 127.717 166.18 125.295C166.18 122.873 166.766 120.944 167.938 119.509C169.119 118.063 170.682 117.341 172.625 117.341C173.709 117.341 174.676 117.595 175.525 118.103C176.375 118.601 177.02 119.284 177.459 120.153H177.518V111.862H180.696V133H177.62V130.378H177.562C177.103 131.276 176.443 131.984 175.584 132.502C174.734 133.01 173.758 133.264 172.654 133.264ZM173.489 120.007C172.239 120.007 171.248 120.485 170.516 121.442C169.783 122.39 169.417 123.674 169.417 125.295C169.417 126.926 169.783 128.215 170.516 129.162C171.248 130.109 172.239 130.583 173.489 130.583C174.71 130.583 175.691 130.104 176.434 129.147C177.176 128.181 177.547 126.896 177.547 125.295C177.547 123.703 177.176 122.424 176.434 121.457C175.691 120.49 174.71 120.007 173.489 120.007ZM197.161 117.59V133H194.129V130.393H194.056C193.167 132.316 191.575 133.278 189.28 133.278C187.601 133.278 186.277 132.771 185.311 131.755C184.354 130.729 183.875 129.333 183.875 127.565V117.59H187.039V126.95C187.039 128.132 187.317 129.03 187.874 129.646C188.431 130.251 189.251 130.554 190.335 130.554C191.468 130.554 192.361 130.192 193.016 129.47C193.67 128.747 193.997 127.78 193.997 126.569V117.59H197.161ZM213.523 122.893H210.506C210.34 122.023 209.939 121.315 209.305 120.769C208.68 120.222 207.874 119.948 206.888 119.948C205.657 119.948 204.671 120.432 203.929 121.398C203.196 122.355 202.83 123.654 202.83 125.295C202.83 126.965 203.196 128.273 203.929 129.221C204.671 130.168 205.667 130.642 206.917 130.642C207.884 130.642 208.675 130.393 209.29 129.895C209.915 129.387 210.32 128.684 210.506 127.785H213.553C213.387 129.436 212.693 130.769 211.473 131.784C210.262 132.79 208.733 133.293 206.888 133.293C204.671 133.293 202.903 132.58 201.585 131.154C200.267 129.719 199.607 127.766 199.607 125.295C199.607 122.854 200.267 120.915 201.585 119.479C202.903 118.034 204.661 117.312 206.858 117.312C208.772 117.312 210.325 117.849 211.517 118.923C212.708 119.987 213.377 121.311 213.523 122.893ZM216.717 113.942H219.896V117.59H222.825V120.095H219.896V128.591C219.896 129.255 220.047 129.743 220.35 130.056C220.652 130.368 221.126 130.524 221.771 130.524C222.239 130.524 222.586 130.5 222.811 130.451V132.956C222.42 133.054 221.834 133.103 221.053 133.103C219.5 133.103 218.387 132.785 217.713 132.15C217.049 131.506 216.717 130.437 216.717 128.942V120.095H214.476V117.59H216.717V113.942ZM240.828 133.352C237.859 133.352 235.501 132.37 233.753 130.407C232.015 128.444 231.146 125.783 231.146 122.424C231.146 119.084 232.02 116.433 233.768 114.47C235.516 112.497 237.869 111.511 240.828 111.511C243.23 111.511 245.257 112.189 246.907 113.547C248.558 114.895 249.52 116.667 249.793 118.864H246.541C246.248 117.507 245.579 116.423 244.534 115.612C243.499 114.792 242.264 114.382 240.828 114.382C238.904 114.382 237.366 115.114 236.214 116.579C235.071 118.034 234.5 119.982 234.5 122.424C234.5 124.895 235.071 126.857 236.214 128.312C237.356 129.758 238.899 130.48 240.843 130.48C242.308 130.48 243.538 130.124 244.534 129.411C245.54 128.698 246.209 127.702 246.541 126.423H249.808C249.407 128.61 248.416 130.314 246.834 131.535C245.262 132.746 243.26 133.352 240.828 133.352ZM257.776 130.759C258.89 130.759 259.822 130.422 260.574 129.748C261.336 129.064 261.717 128.225 261.717 127.229V126.013L257.923 126.247C256.976 126.315 256.243 126.55 255.726 126.95C255.218 127.341 254.964 127.868 254.964 128.532C254.964 129.206 255.218 129.748 255.726 130.158C256.243 130.559 256.927 130.759 257.776 130.759ZM256.897 133.264C255.384 133.264 254.148 132.834 253.191 131.975C252.244 131.115 251.771 129.997 251.771 128.62C251.771 127.272 252.269 126.203 253.265 125.412C254.261 124.611 255.672 124.162 257.498 124.064L261.717 123.815V122.629C261.717 121.77 261.443 121.101 260.896 120.622C260.35 120.134 259.593 119.89 258.626 119.89C257.728 119.89 256.995 120.09 256.429 120.49C255.872 120.891 255.521 121.442 255.374 122.146H252.386C252.474 120.72 253.089 119.558 254.231 118.659C255.374 117.761 256.878 117.312 258.743 117.312C260.608 117.312 262.093 117.771 263.196 118.688C264.31 119.606 264.866 120.837 264.866 122.38V133H261.834V130.466H261.761C261.321 131.315 260.652 131.994 259.754 132.502C258.865 133.01 257.913 133.264 256.897 133.264ZM268.865 113.942H272.044V117.59H274.974V120.095H272.044V128.591C272.044 129.255 272.195 129.743 272.498 130.056C272.801 130.368 273.274 130.524 273.919 130.524C274.388 130.524 274.734 130.5 274.959 130.451V132.956C274.568 133.054 273.982 133.103 273.201 133.103C271.648 133.103 270.535 132.785 269.861 132.15C269.197 131.506 268.865 130.437 268.865 128.942V120.095H266.624V117.59H268.865V113.942ZM286.326 120.974C285.633 120.231 284.739 119.86 283.646 119.86C282.552 119.86 281.644 120.236 280.921 120.988C280.198 121.73 279.798 122.692 279.72 123.874H287.425C287.386 122.683 287.02 121.716 286.326 120.974ZM287.41 128.474H290.413C290.188 129.89 289.466 131.047 288.245 131.945C287.024 132.844 285.535 133.293 283.777 133.293C281.521 133.293 279.744 132.585 278.445 131.169C277.156 129.743 276.512 127.81 276.512 125.368C276.512 122.946 277.156 120.998 278.445 119.523C279.744 118.049 281.478 117.312 283.646 117.312C285.774 117.312 287.464 118.01 288.714 119.406C289.964 120.793 290.589 122.658 290.589 125.002V126.086H279.705V126.276C279.705 127.624 280.081 128.703 280.833 129.514C281.585 130.324 282.591 130.729 283.851 130.729C284.739 130.729 285.501 130.524 286.136 130.114C286.771 129.704 287.195 129.157 287.41 128.474ZM299.612 130.437C300.853 130.437 301.844 129.968 302.586 129.03C303.338 128.093 303.714 126.833 303.714 125.251C303.714 123.669 303.338 122.399 302.586 121.442C301.844 120.485 300.853 120.007 299.612 120.007C298.392 120.007 297.415 120.48 296.683 121.428C295.96 122.375 295.599 123.649 295.599 125.251C295.599 126.853 295.96 128.117 296.683 129.045C297.415 129.973 298.392 130.437 299.612 130.437ZM299.642 138.801C297.845 138.801 296.321 138.371 295.071 137.512C293.831 136.652 293.113 135.549 292.918 134.201H296.097C296.321 134.846 296.761 135.363 297.415 135.754C298.079 136.145 298.86 136.34 299.759 136.34C300.979 136.34 301.941 136.018 302.645 135.373C303.348 134.738 303.699 133.889 303.699 132.824V130.29H303.641C303.201 131.14 302.547 131.813 301.678 132.312C300.818 132.81 299.847 133.059 298.763 133.059C296.819 133.059 295.267 132.355 294.104 130.949C292.942 129.533 292.361 127.629 292.361 125.236C292.361 122.814 292.942 120.896 294.104 119.479C295.276 118.054 296.854 117.341 298.836 117.341C299.92 117.341 300.892 117.6 301.751 118.117C302.61 118.625 303.274 119.328 303.743 120.227H303.802V117.59H306.878V132.722C306.878 134.558 306.219 136.027 304.9 137.131C303.592 138.244 301.839 138.801 299.642 138.801ZM321.951 131.154C320.623 132.58 318.851 133.293 316.634 133.293C314.417 133.293 312.645 132.58 311.316 131.154C309.988 129.719 309.324 127.766 309.324 125.295C309.324 122.834 309.988 120.891 311.316 119.465C312.645 118.029 314.417 117.312 316.634 117.312C318.851 117.312 320.623 118.029 321.951 119.465C323.279 120.891 323.943 122.834 323.943 125.295C323.943 127.766 323.279 129.719 321.951 131.154ZM316.634 130.686C317.894 130.686 318.89 130.212 319.622 129.265C320.354 128.317 320.721 126.994 320.721 125.295C320.721 123.605 320.35 122.287 319.607 121.34C318.875 120.393 317.884 119.919 316.634 119.919C315.384 119.919 314.388 120.393 313.646 121.34C312.913 122.287 312.547 123.605 312.547 125.295C312.547 126.994 312.913 128.317 313.646 129.265C314.388 130.212 315.384 130.686 316.634 130.686ZM326.39 133V117.59H329.407V120.212H329.48C329.734 119.313 330.188 118.61 330.843 118.103C331.497 117.595 332.278 117.341 333.187 117.341C333.489 117.341 333.851 117.38 334.271 117.458V120.402C333.987 120.285 333.514 120.227 332.85 120.227C331.834 120.227 331.028 120.544 330.433 121.179C329.847 121.813 329.554 122.678 329.554 123.771V133H326.39ZM337.757 138.742C337.161 138.742 336.731 138.718 336.468 138.669V136.105C336.624 136.145 336.966 136.164 337.493 136.164C338.235 136.164 338.816 135.993 339.236 135.651C339.656 135.319 339.988 134.758 340.232 133.967C340.232 133.957 340.281 133.796 340.379 133.483L340.511 133.015L334.944 117.59H338.372L342.283 130.129H342.327L346.238 117.59H349.578L343.792 133.806C343.138 135.671 342.371 136.96 341.492 137.673C340.613 138.386 339.368 138.742 337.757 138.742Z" fill="#464255"/>
</g>
<defs>
<filter id="filter0_d" x="0" y="0" width="901" height="611" filterUnits="userSpaceOnUse" color-interpolation-filters="sRGB">
<feFlood flood-opacity="0" result="BackgroundImageFix"/>
<feColorMatrix in="SourceAlpha" type="matrix" values="0 0 0 0 0 0 0 0 0 0 0 0 0 0 0 0 0 0 127 0" result="hardAlpha"/>
<feOffset dy="16"/>
<feGaussianBlur stdDeviation="39"/>
<feComposite in2="hardAlpha" operator="out"/>
<feColorMatrix type="matrix" values="0 0 0 0 0 0 0 0 0 0 0 0 0 0 0 0 0 0 0.15 0"/>
<feBlend mode="normal" in2="BackgroundImageFix" result="effect1_dropShadow"/>
<feBlend mode="normal" in="SourceGraphic" in2="effect1_dropShadow" result="shape"/>
</filter>
</defs>
</svg>
