<svg width="901" height="611" viewBox="0 0 901 611" fill="none" xmlns="http://www.w3.org/2000/svg">
<g filter="url(#filter0_d)">
<path d="M80 80C80 71.1634 87.1634 64 96 64H805C813.837 64 821 71.1634 821 80V499C821 507.837 813.837 515 805 515H96C87.1635 515 80 507.837 80 499V80Z" fill="white" stroke="#58D7FF" stroke-width="4"/>
<rect x="121.5" y="342.5" width="657" height="59" rx="17.5" fill="#F9FBFD" fill-opacity="0.3" stroke="#D7D9E6"/>
<rect x="83" y="166" width="734" height="1" fill="#DADCF0"/>
<rect x="84" y="275" width="734" height="1" fill="#DADCF0"/>
<rect x="224" y="432" width="93" height="38" rx="6" fill="#D7D9E6"/>
<path d="M251.57 451.1C251.57 454.026 253.712 456.084 256.526 456.084C258.696 456.084 260.46 454.936 261.118 452.92H258.864C258.402 453.872 257.562 454.334 256.512 454.334C254.804 454.334 253.586 453.074 253.586 451.1C253.586 449.112 254.804 447.866 256.512 447.866C257.562 447.866 258.402 448.328 258.864 449.266H261.118C260.46 447.264 258.696 446.102 256.526 446.102C253.712 446.102 251.57 448.174 251.57 451.1ZM262.792 456H264.752V445.64H262.792V456ZM274.179 452.122C274.179 449.672 272.429 448.118 270.189 448.118C267.949 448.118 266.199 449.672 266.199 452.122C266.199 454.558 267.893 456.126 270.133 456.126C272.387 456.126 274.179 454.558 274.179 452.122ZM268.187 452.122C268.187 450.568 269.125 449.826 270.161 449.826C271.197 449.826 272.163 450.568 272.163 452.122C272.163 453.662 271.169 454.418 270.133 454.418C269.083 454.418 268.187 453.662 268.187 452.122ZM281.636 453.788C281.58 450.946 277.282 451.828 277.282 450.414C277.282 449.966 277.66 449.672 278.388 449.672C279.158 449.672 279.634 450.078 279.69 450.68H281.566C281.454 449.14 280.32 448.118 278.444 448.118C276.526 448.118 275.378 449.154 275.378 450.442C275.378 453.284 279.76 452.402 279.76 453.788C279.76 454.236 279.34 454.586 278.57 454.586C277.786 454.586 277.24 454.138 277.17 453.55H275.196C275.28 454.992 276.638 456.126 278.584 456.126C280.474 456.126 281.636 455.118 281.636 453.788ZM286.577 449.728C287.585 449.728 288.397 450.372 288.425 451.394H284.743C284.897 450.33 285.639 449.728 286.577 449.728ZM290.259 453.564H288.145C287.893 454.082 287.431 454.502 286.591 454.502C285.611 454.502 284.827 453.858 284.729 452.71H290.399C290.441 452.458 290.455 452.206 290.455 451.954C290.455 449.644 288.873 448.118 286.633 448.118C284.337 448.118 282.741 449.672 282.741 452.122C282.741 454.558 284.379 456.126 286.633 456.126C288.551 456.126 289.839 454.992 290.259 453.564Z" fill="#464255"/>
<rect x="121" y="432" width="93" height="38" rx="6" fill="#3546AB"/>
<path d="M168.798 453.172C168.798 449.728 163.786 450.82 163.786 448.86C163.786 448.062 164.36 447.684 165.13 447.712C165.97 447.726 166.488 448.23 166.53 448.874H168.686C168.56 447.11 167.188 446.088 165.186 446.088C163.17 446.088 161.742 447.152 161.742 448.916C161.728 452.458 166.768 451.184 166.768 453.298C166.768 453.998 166.222 454.488 165.298 454.488C164.388 454.488 163.87 453.97 163.814 453.186H161.714C161.742 455.034 163.31 456.098 165.34 456.098C167.566 456.098 168.798 454.712 168.798 453.172ZM169.993 452.094C169.993 454.516 171.561 456.126 173.521 456.126C174.753 456.126 175.635 455.538 176.097 454.866V456H178.071V448.244H176.097V449.35C175.635 448.706 174.781 448.118 173.535 448.118C171.561 448.118 169.993 449.672 169.993 452.094ZM176.097 452.122C176.097 453.592 175.117 454.404 174.039 454.404C172.989 454.404 171.995 453.564 171.995 452.094C171.995 450.624 172.989 449.84 174.039 449.84C175.117 449.84 176.097 450.652 176.097 452.122ZM179.16 448.244L182.016 456H184.396L187.266 448.244H185.18L183.22 454.194L181.26 448.244H179.16ZM191.698 449.728C192.706 449.728 193.518 450.372 193.546 451.394H189.864C190.018 450.33 190.76 449.728 191.698 449.728ZM195.38 453.564H193.266C193.014 454.082 192.552 454.502 191.712 454.502C190.732 454.502 189.948 453.858 189.85 452.71H195.52C195.562 452.458 195.576 452.206 195.576 451.954C195.576 449.644 193.994 448.118 191.754 448.118C189.458 448.118 187.862 449.672 187.862 452.122C187.862 454.558 189.5 456.126 191.754 456.126C193.672 456.126 194.96 454.992 195.38 453.564Z" fill="white"/>
<path d="M150.608 445.511C150.336 445.207 149.957 445.024 149.552 445.002C149.147 444.981 148.751 445.123 148.45 445.397L141.244 454.325L138.628 451.635C138.487 451.487 138.318 451.369 138.132 451.288C137.945 451.207 137.745 451.165 137.542 451.163C137.339 451.161 137.137 451.2 136.95 451.278C136.762 451.355 136.591 451.47 136.448 451.615C136.304 451.76 136.191 451.933 136.114 452.123C136.037 452.313 135.998 452.516 136 452.722C136.002 452.927 136.044 453.13 136.124 453.318C136.204 453.507 136.321 453.677 136.467 453.82L140.108 457.548C140.385 457.827 140.757 457.989 141.149 457.999C141.54 458.01 141.92 457.868 142.211 457.603L150.495 447.693C150.796 447.419 150.977 447.035 150.998 446.626C151.019 446.217 150.879 445.816 150.608 445.511Z" fill="white"/>
<path d="M126.898 207L127.516 203.969H125.289L124.68 207H123.18L123.781 203.969H122L122.281 202.484H124.086L124.562 200.109H122.711L123 198.641H124.852L125.453 195.727H126.953L126.375 198.641H128.586L129.18 195.727H130.688L130.102 198.641H131.977L131.695 200.109H129.797L129.312 202.484H131.25L130.969 203.969H129.023L128.406 207H126.898ZM125.492 202.586H127.859L128.383 200.016H126.016L125.492 202.586Z" fill="#464255"/>
<path d="M127.852 321.188C126.237 321.188 124.958 320.667 124.016 319.625C123.078 318.583 122.609 317.161 122.609 315.359C122.609 313.568 123.081 312.151 124.023 311.109C124.971 310.062 126.247 309.539 127.852 309.539C129.164 309.539 130.271 309.914 131.172 310.664C132.073 311.409 132.586 312.385 132.711 313.594H130.727C130.596 312.885 130.266 312.318 129.734 311.891C129.208 311.464 128.581 311.25 127.852 311.25C126.883 311.25 126.109 311.622 125.531 312.367C124.958 313.107 124.672 314.104 124.672 315.359C124.672 316.625 124.958 317.628 125.531 318.367C126.104 319.107 126.88 319.477 127.859 319.477C128.604 319.477 129.229 319.286 129.734 318.906C130.245 318.521 130.578 317.99 130.734 317.312H132.711C132.534 318.521 132.013 319.469 131.148 320.156C130.284 320.844 129.185 321.188 127.852 321.188ZM137.039 319.664C137.596 319.664 138.065 319.5 138.445 319.172C138.831 318.839 139.023 318.424 139.023 317.93V317.297L137.109 317.414C136.641 317.445 136.276 317.562 136.016 317.766C135.76 317.964 135.633 318.227 135.633 318.555C135.633 318.893 135.76 319.164 136.016 319.367C136.276 319.565 136.617 319.664 137.039 319.664ZM136.453 321.133C135.646 321.133 134.982 320.901 134.461 320.438C133.945 319.974 133.688 319.372 133.688 318.633C133.688 317.898 133.958 317.318 134.5 316.891C135.047 316.464 135.826 316.219 136.836 316.156L139.023 316.031V315.438C139.023 315.005 138.885 314.669 138.609 314.43C138.339 314.19 137.961 314.07 137.477 314.07C137.023 314.07 136.654 314.172 136.367 314.375C136.081 314.578 135.906 314.854 135.844 315.203H134.039C134.081 314.417 134.417 313.779 135.047 313.289C135.682 312.794 136.518 312.547 137.555 312.547C138.581 312.547 139.401 312.797 140.016 313.297C140.635 313.797 140.945 314.464 140.945 315.297V321H139.07V319.68H139.031C138.797 320.122 138.443 320.477 137.969 320.742C137.495 321.003 136.99 321.133 136.453 321.133ZM143.055 310.781H145V312.719H146.562V314.219H145V318.523C145 318.862 145.081 319.112 145.242 319.273C145.404 319.435 145.656 319.516 146 319.516C146.229 319.516 146.414 319.503 146.555 319.477V320.961C146.32 321.013 145.984 321.039 145.547 321.039C144.651 321.039 144.01 320.867 143.625 320.523C143.245 320.18 143.055 319.604 143.055 318.797V314.219H141.867V312.719H143.055V310.781ZM151.305 314.055C150.763 314.055 150.31 314.242 149.945 314.617C149.586 314.987 149.385 315.464 149.344 316.047H153.211C153.19 315.458 153.005 314.979 152.656 314.609C152.307 314.24 151.857 314.055 151.305 314.055ZM153.219 318.523H155.039C154.914 319.31 154.516 319.948 153.844 320.438C153.172 320.922 152.349 321.164 151.375 321.164C150.135 321.164 149.161 320.784 148.453 320.023C147.745 319.258 147.391 318.214 147.391 316.891C147.391 315.578 147.742 314.526 148.445 313.734C149.154 312.943 150.104 312.547 151.297 312.547C152.469 312.547 153.398 312.924 154.086 313.68C154.773 314.43 155.117 315.435 155.117 316.695V317.328H149.328V317.445C149.328 318.112 149.516 318.648 149.891 319.055C150.271 319.461 150.779 319.664 151.414 319.664C151.862 319.664 152.247 319.562 152.57 319.359C152.898 319.151 153.115 318.872 153.219 318.523ZM160.031 319.461C160.656 319.461 161.154 319.227 161.523 318.758C161.893 318.284 162.078 317.643 162.078 316.836C162.078 316.029 161.891 315.385 161.516 314.906C161.146 314.422 160.651 314.18 160.031 314.18C159.417 314.18 158.927 314.419 158.562 314.898C158.203 315.378 158.023 316.023 158.023 316.836C158.023 317.654 158.203 318.297 158.562 318.766C158.927 319.229 159.417 319.461 160.031 319.461ZM160.023 324.125C159.008 324.125 158.159 323.891 157.477 323.422C156.799 322.958 156.411 322.359 156.312 321.625H158.242C158.346 321.943 158.565 322.198 158.898 322.391C159.232 322.589 159.628 322.688 160.086 322.688C160.711 322.688 161.198 322.526 161.547 322.203C161.901 321.885 162.078 321.458 162.078 320.922V319.523H162.031C161.812 319.977 161.471 320.339 161.008 320.609C160.549 320.875 160.026 321.008 159.438 321.008C158.406 321.008 157.581 320.633 156.961 319.883C156.341 319.128 156.031 318.109 156.031 316.828C156.031 315.521 156.341 314.487 156.961 313.727C157.581 312.961 158.419 312.578 159.477 312.578C160.06 312.578 160.581 312.719 161.039 313C161.497 313.276 161.846 313.656 162.086 314.141H162.117V312.719H164.023V320.867C164.023 321.857 163.659 322.646 162.93 323.234C162.201 323.828 161.232 324.125 160.023 324.125ZM172.195 320.016C171.471 320.781 170.497 321.164 169.273 321.164C168.049 321.164 167.076 320.781 166.352 320.016C165.628 319.245 165.266 318.193 165.266 316.859C165.266 315.531 165.63 314.482 166.359 313.711C167.089 312.935 168.06 312.547 169.273 312.547C170.492 312.547 171.464 312.935 172.188 313.711C172.917 314.482 173.281 315.531 173.281 316.859C173.281 318.193 172.919 319.245 172.195 320.016ZM167.789 318.898C168.154 319.383 168.648 319.625 169.273 319.625C169.898 319.625 170.393 319.383 170.758 318.898C171.122 318.414 171.305 317.734 171.305 316.859C171.305 315.99 171.122 315.312 170.758 314.828C170.393 314.339 169.898 314.094 169.273 314.094C168.654 314.094 168.159 314.339 167.789 314.828C167.424 315.312 167.242 315.99 167.242 316.859C167.242 317.734 167.424 318.414 167.789 318.898ZM174.531 321V312.719H176.398V314.164H176.438C176.578 313.659 176.82 313.268 177.164 312.992C177.513 312.716 177.932 312.578 178.422 312.578C178.594 312.578 178.797 312.604 179.031 312.656V314.414C178.839 314.341 178.576 314.305 178.242 314.305C177.69 314.305 177.258 314.471 176.945 314.805C176.633 315.138 176.477 315.596 176.477 316.18V321H174.531ZM180.953 324.078C180.531 324.078 180.276 324.068 180.188 324.047V322.508C180.276 322.529 180.464 322.539 180.75 322.539C181.151 322.539 181.464 322.456 181.688 322.289C181.911 322.122 182.078 321.849 182.188 321.469C182.188 321.464 182.206 321.388 182.242 321.242C182.284 321.096 182.302 321.018 182.297 321.008L179.352 312.719H181.477L183.43 319.344H183.461L185.414 312.719H187.461L184.469 321.328C184.115 322.354 183.677 323.068 183.156 323.469C182.635 323.875 181.901 324.078 180.953 324.078ZM193.734 321H191.789V309.727H193.539L199.133 317.625H199.203V309.727H201.141V321H199.406L193.805 313.094H193.734V321ZM205.758 319.664C206.315 319.664 206.784 319.5 207.164 319.172C207.549 318.839 207.742 318.424 207.742 317.93V317.297L205.828 317.414C205.359 317.445 204.995 317.562 204.734 317.766C204.479 317.964 204.352 318.227 204.352 318.555C204.352 318.893 204.479 319.164 204.734 319.367C204.995 319.565 205.336 319.664 205.758 319.664ZM205.172 321.133C204.365 321.133 203.701 320.901 203.18 320.438C202.664 319.974 202.406 319.372 202.406 318.633C202.406 317.898 202.677 317.318 203.219 316.891C203.766 316.464 204.544 316.219 205.555 316.156L207.742 316.031V315.438C207.742 315.005 207.604 314.669 207.328 314.43C207.057 314.19 206.68 314.07 206.195 314.07C205.742 314.07 205.372 314.172 205.086 314.375C204.799 314.578 204.625 314.854 204.562 315.203H202.758C202.799 314.417 203.135 313.779 203.766 313.289C204.401 312.794 205.237 312.547 206.273 312.547C207.299 312.547 208.12 312.797 208.734 313.297C209.354 313.797 209.664 314.464 209.664 315.297V321H207.789V319.68H207.75C207.516 320.122 207.161 320.477 206.688 320.742C206.214 321.003 205.708 321.133 205.172 321.133ZM211.234 321V312.719H213.102V314.156H213.141C213.323 313.667 213.622 313.279 214.039 312.992C214.456 312.706 214.943 312.562 215.5 312.562C216.083 312.562 216.576 312.708 216.977 313C217.383 313.286 217.661 313.695 217.812 314.227H217.859C218.057 313.716 218.385 313.312 218.844 313.016C219.307 312.714 219.839 312.562 220.438 312.562C221.255 312.562 221.909 312.815 222.398 313.32C222.893 313.826 223.141 314.492 223.141 315.32V321H221.195V315.797C221.195 315.286 221.065 314.893 220.805 314.617C220.549 314.341 220.185 314.203 219.711 314.203C219.242 314.203 218.862 314.359 218.57 314.672C218.279 314.984 218.133 315.388 218.133 315.883V321H216.242V315.695C216.242 315.237 216.109 314.875 215.844 314.609C215.583 314.339 215.227 314.203 214.773 314.203C214.305 314.203 213.922 314.367 213.625 314.695C213.328 315.018 213.18 315.43 213.18 315.93V321H211.234ZM228.273 314.055C227.732 314.055 227.279 314.242 226.914 314.617C226.555 314.987 226.354 315.464 226.312 316.047H230.18C230.159 315.458 229.974 314.979 229.625 314.609C229.276 314.24 228.826 314.055 228.273 314.055ZM230.188 318.523H232.008C231.883 319.31 231.484 319.948 230.812 320.438C230.141 320.922 229.318 321.164 228.344 321.164C227.104 321.164 226.13 320.784 225.422 320.023C224.714 319.258 224.359 318.214 224.359 316.891C224.359 315.578 224.711 314.526 225.414 313.734C226.122 312.943 227.073 312.547 228.266 312.547C229.438 312.547 230.367 312.924 231.055 313.68C231.742 314.43 232.086 315.435 232.086 316.695V317.328H226.297V317.445C226.297 318.112 226.484 318.648 226.859 319.055C227.24 319.461 227.747 319.664 228.383 319.664C228.831 319.664 229.216 319.562 229.539 319.359C229.867 319.151 230.083 318.872 230.188 318.523Z" fill="#464255"/>
<path d="M243.109 251H242.055V239.727H243.109L249.719 249.141H249.773V239.727H250.828V251H249.797L243.164 241.578H243.109V251ZM258.766 250C258.089 250.755 257.193 251.133 256.078 251.133C254.964 251.133 254.068 250.755 253.391 250C252.714 249.24 252.375 248.219 252.375 246.938C252.375 245.656 252.714 244.638 253.391 243.883C254.073 243.122 254.969 242.742 256.078 242.742C257.193 242.742 258.089 243.122 258.766 243.883C259.443 244.638 259.781 245.656 259.781 246.938C259.781 248.219 259.443 249.24 258.766 250ZM254.148 249.344C254.628 249.927 255.271 250.219 256.078 250.219C256.885 250.219 257.529 249.927 258.008 249.344C258.492 248.76 258.734 247.958 258.734 246.938C258.734 245.917 258.492 245.115 258.008 244.531C257.529 243.948 256.885 243.656 256.078 243.656C255.271 243.656 254.628 243.948 254.148 244.531C253.669 245.115 253.43 245.917 253.43 246.938C253.43 247.958 253.669 248.76 254.148 249.344ZM264.883 240.844H265.914V242.875H267.516V243.734H265.914V248.953C265.914 249.37 266 249.674 266.172 249.867C266.344 250.055 266.617 250.148 266.992 250.148C267.284 250.148 267.471 250.138 267.555 250.117V251C267.409 251.031 267.154 251.047 266.789 251.047C266.107 251.047 265.617 250.891 265.32 250.578C265.029 250.26 264.883 249.734 264.883 249V243.734H263.672V242.875H264.883V240.844ZM271.367 250.242C272.081 250.242 272.682 250.021 273.172 249.578C273.661 249.135 273.906 248.591 273.906 247.945V247.047L271.5 247.211C270.859 247.253 270.367 247.409 270.023 247.68C269.68 247.945 269.508 248.302 269.508 248.75C269.508 249.193 269.68 249.552 270.023 249.828C270.367 250.104 270.815 250.242 271.367 250.242ZM271.156 251.133C270.354 251.133 269.703 250.914 269.203 250.477C268.708 250.034 268.461 249.458 268.461 248.75C268.461 248.052 268.711 247.5 269.211 247.094C269.716 246.688 270.438 246.453 271.375 246.391L273.906 246.234V245.531C273.906 244.943 273.729 244.484 273.375 244.156C273.021 243.823 272.529 243.656 271.898 243.656C271.305 243.656 270.82 243.794 270.445 244.07C270.076 244.346 269.846 244.732 269.758 245.227H268.758C268.815 244.487 269.128 243.888 269.695 243.43C270.268 242.971 271.01 242.742 271.922 242.742C272.849 242.742 273.583 242.984 274.125 243.469C274.667 243.953 274.938 244.609 274.938 245.438V251H273.953V249.453H273.93C273.706 249.958 273.339 250.365 272.828 250.672C272.318 250.979 271.76 251.133 271.156 251.133ZM276.508 245.047C276.508 244.375 276.779 243.823 277.32 243.391C277.867 242.958 278.57 242.742 279.43 242.742C280.258 242.742 280.943 242.966 281.484 243.414C282.031 243.857 282.331 244.435 282.383 245.148H281.391C281.328 244.664 281.12 244.284 280.766 244.008C280.417 243.732 279.961 243.594 279.398 243.594C278.846 243.594 278.396 243.727 278.047 243.992C277.703 244.253 277.531 244.586 277.531 244.992C277.531 245.326 277.656 245.599 277.906 245.812C278.156 246.021 278.552 246.193 279.094 246.328L280.297 246.617C281.109 246.82 281.685 247.086 282.023 247.414C282.362 247.742 282.531 248.198 282.531 248.781C282.531 249.469 282.24 250.034 281.656 250.477C281.073 250.914 280.323 251.133 279.406 251.133C278.536 251.133 277.812 250.911 277.234 250.469C276.661 250.026 276.341 249.445 276.273 248.727H277.305C277.378 249.211 277.604 249.591 277.984 249.867C278.37 250.143 278.865 250.281 279.469 250.281C280.078 250.281 280.568 250.151 280.938 249.891C281.307 249.63 281.492 249.286 281.492 248.859C281.492 248.505 281.378 248.227 281.148 248.023C280.924 247.815 280.542 247.646 280 247.516L278.68 247.188C277.945 247.005 277.398 246.74 277.039 246.391C276.685 246.036 276.508 245.589 276.508 245.047ZM285.031 246.719L289.047 242.875H290.328L286.68 246.383L290.398 251H289.188L285.938 247.016L285.031 247.852V251H283.992V239.727H285.031V246.719ZM301.297 245.445H300.281C300.167 244.919 299.904 244.49 299.492 244.156C299.086 243.823 298.576 243.656 297.961 243.656C297.164 243.656 296.526 243.953 296.047 244.547C295.573 245.141 295.336 245.938 295.336 246.938C295.336 247.948 295.576 248.747 296.055 249.336C296.534 249.924 297.172 250.219 297.969 250.219C298.573 250.219 299.078 250.062 299.484 249.75C299.896 249.438 300.161 249.016 300.281 248.484H301.305C301.19 249.266 300.826 249.904 300.211 250.398C299.602 250.888 298.852 251.133 297.961 251.133C296.846 251.133 295.953 250.758 295.281 250.008C294.615 249.253 294.281 248.229 294.281 246.938C294.281 245.661 294.615 244.643 295.281 243.883C295.953 243.122 296.844 242.742 297.953 242.742C298.875 242.742 299.635 243.003 300.234 243.523C300.839 244.044 301.193 244.685 301.297 245.445ZM305.211 250.242C305.924 250.242 306.526 250.021 307.016 249.578C307.505 249.135 307.75 248.591 307.75 247.945V247.047L305.344 247.211C304.703 247.253 304.211 247.409 303.867 247.68C303.523 247.945 303.352 248.302 303.352 248.75C303.352 249.193 303.523 249.552 303.867 249.828C304.211 250.104 304.659 250.242 305.211 250.242ZM305 251.133C304.198 251.133 303.547 250.914 303.047 250.477C302.552 250.034 302.305 249.458 302.305 248.75C302.305 248.052 302.555 247.5 303.055 247.094C303.56 246.688 304.281 246.453 305.219 246.391L307.75 246.234V245.531C307.75 244.943 307.573 244.484 307.219 244.156C306.865 243.823 306.372 243.656 305.742 243.656C305.148 243.656 304.664 243.794 304.289 244.07C303.919 244.346 303.69 244.732 303.602 245.227H302.602C302.659 244.487 302.971 243.888 303.539 243.43C304.112 242.971 304.854 242.742 305.766 242.742C306.693 242.742 307.427 242.984 307.969 243.469C308.51 243.953 308.781 244.609 308.781 245.438V251H307.797V249.453H307.773C307.549 249.958 307.182 250.365 306.672 250.672C306.161 250.979 305.604 251.133 305 251.133ZM310.961 240.844H311.992V242.875H313.594V243.734H311.992V248.953C311.992 249.37 312.078 249.674 312.25 249.867C312.422 250.055 312.695 250.148 313.07 250.148C313.362 250.148 313.549 250.138 313.633 250.117V251C313.487 251.031 313.232 251.047 312.867 251.047C312.185 251.047 311.695 250.891 311.398 250.578C311.107 250.26 310.961 249.734 310.961 249V243.734H309.75V242.875H310.961V240.844ZM317.992 243.648C317.268 243.648 316.672 243.901 316.203 244.406C315.74 244.906 315.487 245.56 315.445 246.367H320.461C320.451 245.56 320.219 244.906 319.766 244.406C319.312 243.901 318.721 243.648 317.992 243.648ZM320.398 248.695H321.422C321.297 249.409 320.927 249.995 320.312 250.453C319.703 250.906 318.956 251.133 318.07 251.133C316.93 251.133 316.029 250.76 315.367 250.016C314.706 249.266 314.375 248.247 314.375 246.961C314.375 245.695 314.706 244.677 315.367 243.906C316.029 243.13 316.909 242.742 318.008 242.742C319.081 242.742 319.935 243.107 320.57 243.836C321.206 244.565 321.523 245.536 321.523 246.75V247.188H315.438V247.25C315.438 248.167 315.677 248.893 316.156 249.43C316.635 249.961 317.281 250.227 318.094 250.227C318.693 250.227 319.198 250.086 319.609 249.805C320.021 249.523 320.284 249.154 320.398 248.695ZM326.117 250.164C326.898 250.164 327.529 249.867 328.008 249.273C328.492 248.674 328.734 247.888 328.734 246.914C328.734 245.94 328.492 245.154 328.008 244.555C327.529 243.956 326.898 243.656 326.117 243.656C325.352 243.656 324.734 243.956 324.266 244.555C323.797 245.148 323.562 245.938 323.562 246.922C323.562 247.901 323.797 248.688 324.266 249.281C324.734 249.87 325.352 250.164 326.117 250.164ZM326.219 254.008C325.344 254.008 324.596 253.794 323.977 253.367C323.362 252.94 322.997 252.401 322.883 251.75H323.953C324.089 252.156 324.362 252.484 324.773 252.734C325.19 252.99 325.688 253.117 326.266 253.117C327.021 253.117 327.62 252.914 328.062 252.508C328.51 252.107 328.734 251.573 328.734 250.906V249.273H328.711C328.487 249.81 328.125 250.245 327.625 250.578C327.13 250.911 326.565 251.078 325.93 251.078C324.898 251.078 324.068 250.698 323.438 249.938C322.812 249.177 322.5 248.169 322.5 246.914C322.5 245.654 322.815 244.643 323.445 243.883C324.076 243.122 324.911 242.742 325.953 242.742C326.589 242.742 327.154 242.911 327.648 243.25C328.148 243.583 328.521 244.031 328.766 244.594H328.789V242.875H329.773V250.867C329.773 251.815 329.451 252.576 328.805 253.148C328.164 253.721 327.302 254.008 326.219 254.008ZM337.547 250C336.87 250.755 335.974 251.133 334.859 251.133C333.745 251.133 332.849 250.755 332.172 250C331.495 249.24 331.156 248.219 331.156 246.938C331.156 245.656 331.495 244.638 332.172 243.883C332.854 243.122 333.75 242.742 334.859 242.742C335.974 242.742 336.87 243.122 337.547 243.883C338.224 244.638 338.562 245.656 338.562 246.938C338.562 248.219 338.224 249.24 337.547 250ZM332.93 249.344C333.409 249.927 334.052 250.219 334.859 250.219C335.667 250.219 336.31 249.927 336.789 249.344C337.273 248.76 337.516 247.958 337.516 246.938C337.516 245.917 337.273 245.115 336.789 244.531C336.31 243.948 335.667 243.656 334.859 243.656C334.052 243.656 333.409 243.948 332.93 244.531C332.451 245.115 332.211 245.917 332.211 246.938C332.211 247.958 332.451 248.76 332.93 249.344ZM339.938 251V242.875H340.914V244.32H340.938C341.089 243.826 341.344 243.44 341.703 243.164C342.062 242.883 342.492 242.742 342.992 242.742C343.19 242.742 343.404 242.771 343.633 242.828V243.844C343.466 243.766 343.208 243.727 342.859 243.727C342.286 243.727 341.828 243.93 341.484 244.336C341.141 244.742 340.969 245.276 340.969 245.938V251H339.938ZM345.328 253.938C345.141 253.938 344.969 253.922 344.812 253.891V253.008C344.938 253.039 345.102 253.055 345.305 253.055C345.674 253.055 345.971 252.951 346.195 252.742C346.424 252.534 346.63 252.174 346.812 251.664L347.031 251.055L343.984 242.875H345.094L347.562 249.969H347.586L350.062 242.875H351.148L347.953 251.492C347.599 252.445 347.24 253.091 346.875 253.43C346.51 253.768 345.995 253.938 345.328 253.938ZM355.867 251V243.734H354.734V242.875H355.867V241.844C355.867 240.417 356.56 239.703 357.945 239.703C358.216 239.703 358.466 239.724 358.695 239.766V240.617C358.503 240.581 358.302 240.562 358.094 240.562C357.297 240.562 356.898 240.997 356.898 241.867V242.875H358.648V243.734H356.906V251H355.867ZM365.516 250C364.839 250.755 363.943 251.133 362.828 251.133C361.714 251.133 360.818 250.755 360.141 250C359.464 249.24 359.125 248.219 359.125 246.938C359.125 245.656 359.464 244.638 360.141 243.883C360.823 243.122 361.719 242.742 362.828 242.742C363.943 242.742 364.839 243.122 365.516 243.883C366.193 244.638 366.531 245.656 366.531 246.938C366.531 248.219 366.193 249.24 365.516 250ZM360.898 249.344C361.378 249.927 362.021 250.219 362.828 250.219C363.635 250.219 364.279 249.927 364.758 249.344C365.242 248.76 365.484 247.958 365.484 246.938C365.484 245.917 365.242 245.115 364.758 244.531C364.279 243.948 363.635 243.656 362.828 243.656C362.021 243.656 361.378 243.948 360.898 244.531C360.419 245.115 360.18 245.917 360.18 246.938C360.18 247.958 360.419 248.76 360.898 249.344ZM374.422 242.875V251H373.445V249.492H373.422C373.203 249.997 372.857 250.398 372.383 250.695C371.914 250.987 371.362 251.133 370.727 251.133C369.846 251.133 369.148 250.867 368.633 250.336C368.117 249.799 367.859 249.073 367.859 248.156V242.875H368.898V247.977C368.898 248.695 369.081 249.247 369.445 249.633C369.815 250.018 370.341 250.211 371.023 250.211C371.732 250.211 372.302 249.982 372.734 249.523C373.172 249.065 373.391 248.456 373.391 247.695V242.875H374.422ZM376.203 251V242.875H377.18V244.375H377.203C377.417 243.87 377.755 243.471 378.219 243.18C378.688 242.888 379.242 242.742 379.883 242.742C380.773 242.742 381.474 243.01 381.984 243.547C382.5 244.083 382.758 244.812 382.758 245.734V251H381.727V245.898C381.727 245.19 381.539 244.641 381.164 244.25C380.794 243.859 380.268 243.664 379.586 243.664C378.883 243.664 378.315 243.896 377.883 244.359C377.451 244.823 377.234 245.432 377.234 246.188V251H376.203ZM387.57 251.133C386.539 251.133 385.701 250.747 385.055 249.977C384.414 249.206 384.094 248.193 384.094 246.938C384.094 245.677 384.411 244.664 385.047 243.898C385.688 243.128 386.521 242.742 387.547 242.742C388.188 242.742 388.755 242.909 389.25 243.242C389.75 243.57 390.109 244.005 390.328 244.547H390.352V239.727H391.391V251H390.406V249.281H390.383C390.148 249.839 389.781 250.286 389.281 250.625C388.781 250.964 388.211 251.133 387.57 251.133ZM387.75 243.656C386.969 243.656 386.341 243.956 385.867 244.555C385.393 245.154 385.156 245.948 385.156 246.938C385.156 247.927 385.393 248.721 385.867 249.32C386.341 249.919 386.969 250.219 387.75 250.219C388.526 250.219 389.154 249.917 389.633 249.312C390.117 248.708 390.359 247.917 390.359 246.938C390.359 245.958 390.117 245.167 389.633 244.562C389.154 243.958 388.526 243.656 387.75 243.656ZM394.664 250.859C394.523 251 394.352 251.07 394.148 251.07C393.945 251.07 393.771 251 393.625 250.859C393.484 250.719 393.414 250.547 393.414 250.344C393.414 250.135 393.484 249.961 393.625 249.82C393.771 249.68 393.945 249.609 394.148 249.609C394.352 249.609 394.523 249.68 394.664 249.82C394.805 249.961 394.875 250.135 394.875 250.344C394.875 250.547 394.805 250.719 394.664 250.859Z" fill="#464255"/>
<path d="M246.852 207.188C245.237 207.188 243.958 206.667 243.016 205.625C242.078 204.583 241.609 203.161 241.609 201.359C241.609 199.568 242.081 198.151 243.023 197.109C243.971 196.062 245.247 195.539 246.852 195.539C248.164 195.539 249.271 195.914 250.172 196.664C251.073 197.409 251.586 198.385 251.711 199.594H249.727C249.596 198.885 249.266 198.318 248.734 197.891C248.208 197.464 247.581 197.25 246.852 197.25C245.883 197.25 245.109 197.622 244.531 198.367C243.958 199.107 243.672 200.104 243.672 201.359C243.672 202.625 243.958 203.628 244.531 204.367C245.104 205.107 245.88 205.477 246.859 205.477C247.604 205.477 248.229 205.286 248.734 204.906C249.245 204.521 249.578 203.99 249.734 203.312H251.711C251.534 204.521 251.013 205.469 250.148 206.156C249.284 206.844 248.185 207.188 246.852 207.188ZM256.039 205.664C256.596 205.664 257.065 205.5 257.445 205.172C257.831 204.839 258.023 204.424 258.023 203.93V203.297L256.109 203.414C255.641 203.445 255.276 203.562 255.016 203.766C254.76 203.964 254.633 204.227 254.633 204.555C254.633 204.893 254.76 205.164 255.016 205.367C255.276 205.565 255.617 205.664 256.039 205.664ZM255.453 207.133C254.646 207.133 253.982 206.901 253.461 206.438C252.945 205.974 252.688 205.372 252.688 204.633C252.688 203.898 252.958 203.318 253.5 202.891C254.047 202.464 254.826 202.219 255.836 202.156L258.023 202.031V201.438C258.023 201.005 257.885 200.669 257.609 200.43C257.339 200.19 256.961 200.07 256.477 200.07C256.023 200.07 255.654 200.172 255.367 200.375C255.081 200.578 254.906 200.854 254.844 201.203H253.039C253.081 200.417 253.417 199.779 254.047 199.289C254.682 198.794 255.518 198.547 256.555 198.547C257.581 198.547 258.401 198.797 259.016 199.297C259.635 199.797 259.945 200.464 259.945 201.297V207H258.07V205.68H258.031C257.797 206.122 257.443 206.477 256.969 206.742C256.495 207.003 255.99 207.133 255.453 207.133ZM262.055 196.781H264V198.719H265.562V200.219H264V204.523C264 204.862 264.081 205.112 264.242 205.273C264.404 205.435 264.656 205.516 265 205.516C265.229 205.516 265.414 205.503 265.555 205.477V206.961C265.32 207.013 264.984 207.039 264.547 207.039C263.651 207.039 263.01 206.867 262.625 206.523C262.245 206.18 262.055 205.604 262.055 204.797V200.219H260.867V198.719H262.055V196.781ZM270.305 200.055C269.763 200.055 269.31 200.242 268.945 200.617C268.586 200.987 268.385 201.464 268.344 202.047H272.211C272.19 201.458 272.005 200.979 271.656 200.609C271.307 200.24 270.857 200.055 270.305 200.055ZM272.219 204.523H274.039C273.914 205.31 273.516 205.948 272.844 206.438C272.172 206.922 271.349 207.164 270.375 207.164C269.135 207.164 268.161 206.784 267.453 206.023C266.745 205.258 266.391 204.214 266.391 202.891C266.391 201.578 266.742 200.526 267.445 199.734C268.154 198.943 269.104 198.547 270.297 198.547C271.469 198.547 272.398 198.924 273.086 199.68C273.773 200.43 274.117 201.435 274.117 202.695V203.328H268.328V203.445C268.328 204.112 268.516 204.648 268.891 205.055C269.271 205.461 269.779 205.664 270.414 205.664C270.862 205.664 271.247 205.562 271.57 205.359C271.898 205.151 272.115 204.872 272.219 204.523ZM279.031 205.461C279.656 205.461 280.154 205.227 280.523 204.758C280.893 204.284 281.078 203.643 281.078 202.836C281.078 202.029 280.891 201.385 280.516 200.906C280.146 200.422 279.651 200.18 279.031 200.18C278.417 200.18 277.927 200.419 277.562 200.898C277.203 201.378 277.023 202.023 277.023 202.836C277.023 203.654 277.203 204.297 277.562 204.766C277.927 205.229 278.417 205.461 279.031 205.461ZM279.023 210.125C278.008 210.125 277.159 209.891 276.477 209.422C275.799 208.958 275.411 208.359 275.312 207.625H277.242C277.346 207.943 277.565 208.198 277.898 208.391C278.232 208.589 278.628 208.688 279.086 208.688C279.711 208.688 280.198 208.526 280.547 208.203C280.901 207.885 281.078 207.458 281.078 206.922V205.523H281.031C280.812 205.977 280.471 206.339 280.008 206.609C279.549 206.875 279.026 207.008 278.438 207.008C277.406 207.008 276.581 206.633 275.961 205.883C275.341 205.128 275.031 204.109 275.031 202.828C275.031 201.521 275.341 200.487 275.961 199.727C276.581 198.961 277.419 198.578 278.477 198.578C279.06 198.578 279.581 198.719 280.039 199C280.497 199.276 280.846 199.656 281.086 200.141H281.117V198.719H283.023V206.867C283.023 207.857 282.659 208.646 281.93 209.234C281.201 209.828 280.232 210.125 279.023 210.125ZM291.195 206.016C290.471 206.781 289.497 207.164 288.273 207.164C287.049 207.164 286.076 206.781 285.352 206.016C284.628 205.245 284.266 204.193 284.266 202.859C284.266 201.531 284.63 200.482 285.359 199.711C286.089 198.935 287.06 198.547 288.273 198.547C289.492 198.547 290.464 198.935 291.188 199.711C291.917 200.482 292.281 201.531 292.281 202.859C292.281 204.193 291.919 205.245 291.195 206.016ZM286.789 204.898C287.154 205.383 287.648 205.625 288.273 205.625C288.898 205.625 289.393 205.383 289.758 204.898C290.122 204.414 290.305 203.734 290.305 202.859C290.305 201.99 290.122 201.312 289.758 200.828C289.393 200.339 288.898 200.094 288.273 200.094C287.654 200.094 287.159 200.339 286.789 200.828C286.424 201.312 286.242 201.99 286.242 202.859C286.242 203.734 286.424 204.414 286.789 204.898ZM293.531 207V198.719H295.398V200.164H295.438C295.578 199.659 295.82 199.268 296.164 198.992C296.513 198.716 296.932 198.578 297.422 198.578C297.594 198.578 297.797 198.604 298.031 198.656V200.414C297.839 200.341 297.576 200.305 297.242 200.305C296.69 200.305 296.258 200.471 295.945 200.805C295.633 201.138 295.477 201.596 295.477 202.18V207H293.531ZM299.953 210.078C299.531 210.078 299.276 210.068 299.188 210.047V208.508C299.276 208.529 299.464 208.539 299.75 208.539C300.151 208.539 300.464 208.456 300.688 208.289C300.911 208.122 301.078 207.849 301.188 207.469C301.188 207.464 301.206 207.388 301.242 207.242C301.284 207.096 301.302 207.018 301.297 207.008L298.352 198.719H300.477L302.43 205.344H302.461L304.414 198.719H306.461L303.469 207.328C303.115 208.354 302.677 209.068 302.156 209.469C301.635 209.875 300.901 210.078 299.953 210.078ZM312.734 207H310.789V195.727H312.539L318.133 203.625H318.203V195.727H320.141V207H318.406L312.805 199.094H312.734V207ZM324.758 205.664C325.315 205.664 325.784 205.5 326.164 205.172C326.549 204.839 326.742 204.424 326.742 203.93V203.297L324.828 203.414C324.359 203.445 323.995 203.562 323.734 203.766C323.479 203.964 323.352 204.227 323.352 204.555C323.352 204.893 323.479 205.164 323.734 205.367C323.995 205.565 324.336 205.664 324.758 205.664ZM324.172 207.133C323.365 207.133 322.701 206.901 322.18 206.438C321.664 205.974 321.406 205.372 321.406 204.633C321.406 203.898 321.677 203.318 322.219 202.891C322.766 202.464 323.544 202.219 324.555 202.156L326.742 202.031V201.438C326.742 201.005 326.604 200.669 326.328 200.43C326.057 200.19 325.68 200.07 325.195 200.07C324.742 200.07 324.372 200.172 324.086 200.375C323.799 200.578 323.625 200.854 323.562 201.203H321.758C321.799 200.417 322.135 199.779 322.766 199.289C323.401 198.794 324.237 198.547 325.273 198.547C326.299 198.547 327.12 198.797 327.734 199.297C328.354 199.797 328.664 200.464 328.664 201.297V207H326.789V205.68H326.75C326.516 206.122 326.161 206.477 325.688 206.742C325.214 207.003 324.708 207.133 324.172 207.133ZM330.234 207V198.719H332.102V200.156H332.141C332.323 199.667 332.622 199.279 333.039 198.992C333.456 198.706 333.943 198.562 334.5 198.562C335.083 198.562 335.576 198.708 335.977 199C336.383 199.286 336.661 199.695 336.812 200.227H336.859C337.057 199.716 337.385 199.312 337.844 199.016C338.307 198.714 338.839 198.562 339.438 198.562C340.255 198.562 340.909 198.815 341.398 199.32C341.893 199.826 342.141 200.492 342.141 201.32V207H340.195V201.797C340.195 201.286 340.065 200.893 339.805 200.617C339.549 200.341 339.185 200.203 338.711 200.203C338.242 200.203 337.862 200.359 337.57 200.672C337.279 200.984 337.133 201.388 337.133 201.883V207H335.242V201.695C335.242 201.237 335.109 200.875 334.844 200.609C334.583 200.339 334.227 200.203 333.773 200.203C333.305 200.203 332.922 200.367 332.625 200.695C332.328 201.018 332.18 201.43 332.18 201.93V207H330.234ZM347.273 200.055C346.732 200.055 346.279 200.242 345.914 200.617C345.555 200.987 345.354 201.464 345.312 202.047H349.18C349.159 201.458 348.974 200.979 348.625 200.609C348.276 200.24 347.826 200.055 347.273 200.055ZM349.188 204.523H351.008C350.883 205.31 350.484 205.948 349.812 206.438C349.141 206.922 348.318 207.164 347.344 207.164C346.104 207.164 345.13 206.784 344.422 206.023C343.714 205.258 343.359 204.214 343.359 202.891C343.359 201.578 343.711 200.526 344.414 199.734C345.122 198.943 346.073 198.547 347.266 198.547C348.438 198.547 349.367 198.924 350.055 199.68C350.742 200.43 351.086 201.435 351.086 202.695V203.328H345.297V203.445C345.297 204.112 345.484 204.648 345.859 205.055C346.24 205.461 346.747 205.664 347.383 205.664C347.831 205.664 348.216 205.562 348.539 205.359C348.867 205.151 349.083 204.872 349.188 204.523Z" fill="#464255"/>
<path d="M636.359 207L635.398 204.086H631.25L630.289 207H628.211L632.211 195.727H634.484L638.484 207H636.359ZM633.297 197.719L631.719 202.531H634.922L633.352 197.719H633.297ZM646.531 201.672H644.695C644.612 201.208 644.414 200.836 644.102 200.555C643.789 200.268 643.383 200.125 642.883 200.125C642.268 200.125 641.779 200.37 641.414 200.859C641.049 201.344 640.867 202.01 640.867 202.859C640.867 203.719 641.049 204.391 641.414 204.875C641.779 205.354 642.273 205.594 642.898 205.594C643.388 205.594 643.789 205.464 644.102 205.203C644.414 204.938 644.615 204.568 644.703 204.094H646.539C646.461 205.021 646.089 205.766 645.422 206.328C644.76 206.885 643.911 207.164 642.875 207.164C641.656 207.164 640.688 206.781 639.969 206.016C639.25 205.245 638.891 204.193 638.891 202.859C638.891 201.542 639.25 200.495 639.969 199.719C640.688 198.938 641.651 198.547 642.859 198.547C643.922 198.547 644.781 198.844 645.438 199.438C646.099 200.026 646.464 200.771 646.531 201.672ZM648.242 196.781H650.188V198.719H651.75V200.219H650.188V204.523C650.188 204.862 650.268 205.112 650.43 205.273C650.591 205.435 650.844 205.516 651.188 205.516C651.417 205.516 651.602 205.503 651.742 205.477V206.961C651.508 207.013 651.172 207.039 650.734 207.039C649.839 207.039 649.198 206.867 648.812 206.523C648.432 206.18 648.242 205.604 648.242 204.797V200.219H647.055V198.719H648.242V196.781ZM653.125 207V198.719H655.07V207H653.125ZM654.859 197.328C654.651 197.531 654.396 197.633 654.094 197.633C653.792 197.633 653.536 197.531 653.328 197.328C653.12 197.12 653.016 196.87 653.016 196.578C653.016 196.281 653.12 196.031 653.328 195.828C653.536 195.62 653.792 195.516 654.094 195.516C654.396 195.516 654.651 195.62 654.859 195.828C655.073 196.031 655.18 196.281 655.18 196.578C655.18 196.87 655.073 197.12 654.859 197.328ZM663.289 206.016C662.565 206.781 661.591 207.164 660.367 207.164C659.143 207.164 658.169 206.781 657.445 206.016C656.721 205.245 656.359 204.193 656.359 202.859C656.359 201.531 656.724 200.482 657.453 199.711C658.182 198.935 659.154 198.547 660.367 198.547C661.586 198.547 662.557 198.935 663.281 199.711C664.01 200.482 664.375 201.531 664.375 202.859C664.375 204.193 664.013 205.245 663.289 206.016ZM658.883 204.898C659.247 205.383 659.742 205.625 660.367 205.625C660.992 205.625 661.487 205.383 661.852 204.898C662.216 204.414 662.398 203.734 662.398 202.859C662.398 201.99 662.216 201.312 661.852 200.828C661.487 200.339 660.992 200.094 660.367 200.094C659.747 200.094 659.253 200.339 658.883 200.828C658.518 201.312 658.336 201.99 658.336 202.859C658.336 203.734 658.518 204.414 658.883 204.898ZM665.625 207V198.719H667.492V200.141H667.531C667.76 199.641 668.094 199.253 668.531 198.977C668.974 198.701 669.508 198.562 670.133 198.562C671.039 198.562 671.742 198.836 672.242 199.383C672.747 199.93 673 200.685 673 201.648V207H671.055V202.039C671.055 201.445 670.914 200.992 670.633 200.68C670.357 200.367 669.945 200.211 669.398 200.211C668.841 200.211 668.396 200.393 668.062 200.758C667.734 201.122 667.57 201.604 667.57 202.203V207H665.625Z" fill="#464255"/>
<rect x="786" y="100.152" width="19" height="3" rx="1.5" transform="rotate(-45 786 100.152)" fill="black"/>
<rect x="788.121" y="86.7188" width="19" height="3" rx="1.5" transform="rotate(45 788.121 86.7188)" fill="black"/>
<path fill-rule="evenodd" clip-rule="evenodd" d="M685 438C684.448 438 684 438.448 684 439V441H682C681.448 441 681 441.448 681 442C681 442.552 681.448 443 682 443H684V445C684 445.552 684.448 446 685 446C685.552 446 686 445.552 686 445V443H688C688.552 443 689 442.552 689 442C689 441.448 688.552 441 688 441H686V439C686 438.448 685.552 438 685 438Z" fill="white"/>
<path d="M132.474 133H129.192V114.689H122.718V111.862H138.934V114.689H132.474V133ZM142.786 130.759C143.899 130.759 144.832 130.422 145.584 129.748C146.346 129.064 146.727 128.225 146.727 127.229V126.013L142.933 126.247C141.985 126.315 141.253 126.55 140.735 126.95C140.228 127.341 139.974 127.868 139.974 128.532C139.974 129.206 140.228 129.748 140.735 130.158C141.253 130.559 141.937 130.759 142.786 130.759ZM141.907 133.264C140.394 133.264 139.158 132.834 138.201 131.975C137.254 131.115 136.78 129.997 136.78 128.62C136.78 127.272 137.278 126.203 138.274 125.412C139.271 124.611 140.682 124.162 142.508 124.064L146.727 123.815V122.629C146.727 121.77 146.453 121.101 145.906 120.622C145.359 120.134 144.603 119.89 143.636 119.89C142.737 119.89 142.005 120.09 141.438 120.49C140.882 120.891 140.53 121.442 140.384 122.146H137.396C137.483 120.72 138.099 119.558 139.241 118.659C140.384 117.761 141.888 117.312 143.753 117.312C145.618 117.312 147.103 117.771 148.206 118.688C149.319 119.606 149.876 120.837 149.876 122.38V133H146.844V130.466H146.771C146.331 131.315 145.662 131.994 144.764 132.502C143.875 133.01 142.923 133.264 141.907 133.264ZM152.674 121.955C152.674 120.578 153.23 119.46 154.344 118.601C155.457 117.741 156.912 117.312 158.709 117.312C160.418 117.312 161.819 117.746 162.913 118.615C164.017 119.475 164.593 120.593 164.642 121.97H161.668C161.59 121.267 161.282 120.715 160.745 120.314C160.208 119.914 159.5 119.714 158.621 119.714C157.762 119.714 157.068 119.904 156.541 120.285C156.023 120.666 155.765 121.159 155.765 121.765C155.765 122.702 156.551 123.366 158.123 123.757L160.716 124.357C162.269 124.729 163.367 125.236 164.012 125.881C164.666 126.516 164.993 127.404 164.993 128.547C164.993 129.953 164.397 131.096 163.206 131.975C162.024 132.854 160.486 133.293 158.592 133.293C156.785 133.293 155.311 132.863 154.168 132.004C153.035 131.145 152.405 130.002 152.278 128.576H155.413C155.54 129.318 155.887 129.89 156.453 130.29C157.02 130.681 157.781 130.876 158.738 130.876C159.686 130.876 160.433 130.695 160.979 130.334C161.536 129.963 161.814 129.465 161.814 128.84C161.814 128.342 161.648 127.946 161.316 127.653C160.984 127.36 160.418 127.111 159.617 126.906L156.863 126.232C154.07 125.559 152.674 124.133 152.674 121.955ZM170.765 124.196L176.99 117.59H180.711L174.324 124.226L180.96 133H177.283L172.054 126.159L170.735 127.463V133H167.571V111.862H170.735V124.196H170.765ZM197.996 133.352C195.027 133.352 192.669 132.37 190.921 130.407C189.183 128.444 188.313 125.783 188.313 122.424C188.313 119.084 189.188 116.433 190.936 114.47C192.684 112.497 195.037 111.511 197.996 111.511C200.398 111.511 202.425 112.189 204.075 113.547C205.726 114.895 206.688 116.667 206.961 118.864H203.709C203.416 117.507 202.747 116.423 201.702 115.612C200.667 114.792 199.432 114.382 197.996 114.382C196.072 114.382 194.534 115.114 193.382 116.579C192.239 118.034 191.668 119.982 191.668 122.424C191.668 124.895 192.239 126.857 193.382 128.312C194.524 129.758 196.067 130.48 198.011 130.48C199.476 130.48 200.706 130.124 201.702 129.411C202.708 128.698 203.377 127.702 203.709 126.423H206.976C206.575 128.61 205.584 130.314 204.002 131.535C202.43 132.746 200.428 133.352 197.996 133.352ZM214.944 130.759C216.058 130.759 216.99 130.422 217.742 129.748C218.504 129.064 218.885 128.225 218.885 127.229V126.013L215.091 126.247C214.144 126.315 213.411 126.55 212.894 126.95C212.386 127.341 212.132 127.868 212.132 128.532C212.132 129.206 212.386 129.748 212.894 130.158C213.411 130.559 214.095 130.759 214.944 130.759ZM214.065 133.264C212.552 133.264 211.316 132.834 210.359 131.975C209.412 131.115 208.938 129.997 208.938 128.62C208.938 127.272 209.437 126.203 210.433 125.412C211.429 124.611 212.84 124.162 214.666 124.064L218.885 123.815V122.629C218.885 121.77 218.611 121.101 218.064 120.622C217.518 120.134 216.761 119.89 215.794 119.89C214.896 119.89 214.163 120.09 213.597 120.49C213.04 120.891 212.688 121.442 212.542 122.146H209.554C209.642 120.72 210.257 119.558 211.399 118.659C212.542 117.761 214.046 117.312 215.911 117.312C217.776 117.312 219.261 117.771 220.364 118.688C221.478 119.606 222.034 120.837 222.034 122.38V133H219.002V130.466H218.929C218.489 131.315 217.82 131.994 216.922 132.502C216.033 133.01 215.081 133.264 214.065 133.264ZM226.033 113.942H229.212V117.59H232.142V120.095H229.212V128.591C229.212 129.255 229.363 129.743 229.666 130.056C229.969 130.368 230.442 130.524 231.087 130.524C231.556 130.524 231.902 130.5 232.127 130.451V132.956C231.736 133.054 231.15 133.103 230.369 133.103C228.816 133.103 227.703 132.785 227.029 132.15C226.365 131.506 226.033 130.437 226.033 128.942V120.095H223.792V117.59H226.033V113.942ZM243.494 120.974C242.801 120.231 241.907 119.86 240.813 119.86C239.72 119.86 238.812 120.236 238.089 120.988C237.366 121.73 236.966 122.692 236.888 123.874H244.593C244.554 122.683 244.188 121.716 243.494 120.974ZM244.578 128.474H247.581C247.356 129.89 246.634 131.047 245.413 131.945C244.192 132.844 242.703 133.293 240.945 133.293C238.689 133.293 236.912 132.585 235.613 131.169C234.324 129.743 233.68 127.81 233.68 125.368C233.68 122.946 234.324 120.998 235.613 119.523C236.912 118.049 238.646 117.312 240.813 117.312C242.942 117.312 244.632 118.01 245.882 119.406C247.132 120.793 247.757 122.658 247.757 125.002V126.086H236.873V126.276C236.873 127.624 237.249 128.703 238.001 129.514C238.753 130.324 239.759 130.729 241.019 130.729C241.907 130.729 242.669 130.524 243.304 130.114C243.938 129.704 244.363 129.157 244.578 128.474ZM256.78 130.437C258.021 130.437 259.012 129.968 259.754 129.03C260.506 128.093 260.882 126.833 260.882 125.251C260.882 123.669 260.506 122.399 259.754 121.442C259.012 120.485 258.021 120.007 256.78 120.007C255.56 120.007 254.583 120.48 253.851 121.428C253.128 122.375 252.767 123.649 252.767 125.251C252.767 126.853 253.128 128.117 253.851 129.045C254.583 129.973 255.56 130.437 256.78 130.437ZM256.81 138.801C255.013 138.801 253.489 138.371 252.239 137.512C250.999 136.652 250.281 135.549 250.086 134.201H253.265C253.489 134.846 253.929 135.363 254.583 135.754C255.247 136.145 256.028 136.34 256.927 136.34C258.147 136.34 259.109 136.018 259.812 135.373C260.516 134.738 260.867 133.889 260.867 132.824V130.29H260.809C260.369 131.14 259.715 131.813 258.846 132.312C257.986 132.81 257.015 133.059 255.931 133.059C253.987 133.059 252.435 132.355 251.272 130.949C250.11 129.533 249.529 127.629 249.529 125.236C249.529 122.814 250.11 120.896 251.272 119.479C252.444 118.054 254.021 117.341 256.004 117.341C257.088 117.341 258.06 117.6 258.919 118.117C259.778 118.625 260.442 119.328 260.911 120.227H260.97V117.59H264.046V132.722C264.046 134.558 263.387 136.027 262.068 137.131C260.76 138.244 259.007 138.801 256.81 138.801ZM279.119 131.154C277.791 132.58 276.019 133.293 273.802 133.293C271.585 133.293 269.812 132.58 268.484 131.154C267.156 129.719 266.492 127.766 266.492 125.295C266.492 122.834 267.156 120.891 268.484 119.465C269.812 118.029 271.585 117.312 273.802 117.312C276.019 117.312 277.791 118.029 279.119 119.465C280.447 120.891 281.111 122.834 281.111 125.295C281.111 127.766 280.447 129.719 279.119 131.154ZM273.802 130.686C275.062 130.686 276.058 130.212 276.79 129.265C277.522 128.317 277.889 126.994 277.889 125.295C277.889 123.605 277.518 122.287 276.775 121.34C276.043 120.393 275.052 119.919 273.802 119.919C272.552 119.919 271.556 120.393 270.813 121.34C270.081 122.287 269.715 123.605 269.715 125.295C269.715 126.994 270.081 128.317 270.813 129.265C271.556 130.212 272.552 130.686 273.802 130.686ZM283.558 133V117.59H286.575V120.212H286.648C286.902 119.313 287.356 118.61 288.011 118.103C288.665 117.595 289.446 117.341 290.354 117.341C290.657 117.341 291.019 117.38 291.438 117.458V120.402C291.155 120.285 290.682 120.227 290.018 120.227C289.002 120.227 288.196 120.544 287.601 121.179C287.015 121.813 286.722 122.678 286.722 123.771V133H283.558ZM294.925 138.742C294.329 138.742 293.899 138.718 293.636 138.669V136.105C293.792 136.145 294.134 136.164 294.661 136.164C295.403 136.164 295.984 135.993 296.404 135.651C296.824 135.319 297.156 134.758 297.4 133.967C297.4 133.957 297.449 133.796 297.547 133.483L297.679 133.015L292.112 117.59H295.54L299.451 130.129H299.495L303.406 117.59H306.746L300.96 133.806C300.306 135.671 299.539 136.96 298.66 137.673C297.781 138.386 296.536 138.742 294.925 138.742Z" fill="#464255"/>
</g>
<defs>
<filter id="filter0_d" x="0" y="0" width="901" height="611" filterUnits="userSpaceOnUse" color-interpolation-filters="sRGB">
<feFlood flood-opacity="0" result="BackgroundImageFix"/>
<feColorMatrix in="SourceAlpha" type="matrix" values="0 0 0 0 0 0 0 0 0 0 0 0 0 0 0 0 0 0 127 0" result="hardAlpha"/>
<feOffset dy="16"/>
<feGaussianBlur stdDeviation="39"/>
<feComposite in2="hardAlpha" operator="out"/>
<feColorMatrix type="matrix" values="0 0 0 0 0 0 0 0 0 0 0 0 0 0 0 0 0 0 0.15 0"/>
<feBlend mode="normal" in2="BackgroundImageFix" result="effect1_dropShadow"/>
<feBlend mode="normal" in="SourceGraphic" in2="effect1_dropShadow" result="shape"/>
</filter>
</defs>
</svg>
