<svg width="901" height="724" viewBox="0 0 901 724" fill="none" xmlns="http://www.w3.org/2000/svg">
<g filter="url(#filter0_d)">
<path d="M80 80C80 71.1634 87.1634 64 96 64H805C813.837 64 821 71.1634 821 80V612C821 620.837 813.837 628 805 628H96C87.1635 628 80 620.837 80 612V80Z" fill="white" stroke="#58D7FF" stroke-width="4"/>
<rect x="121.5" y="462.5" width="657" height="59" rx="17.5" fill="#F9FBFD" fill-opacity="0.3" stroke="#D7D9E6"/>
<rect x="121.5" y="347.5" width="657" height="59" rx="17.5" fill="#F9FBFD" fill-opacity="0.3" stroke="#D7D9E6"/>
<path d="M753.007 379C753.151 378.999 753.289 378.937 753.392 378.829L758.847 373.002C758.946 372.892 759.001 372.745 759 372.592C758.999 372.439 758.941 372.293 758.84 372.185C758.739 372.077 758.602 372.016 758.459 372.014C758.316 372.013 758.178 372.072 758.076 372.178L753.007 377.593L747.938 372.178C747.887 372.122 747.827 372.078 747.761 372.047C747.694 372.017 747.623 372.001 747.55 372C747.478 371.999 747.406 372.014 747.339 372.043C747.272 372.073 747.211 372.116 747.16 372.171C747.109 372.225 747.068 372.29 747.041 372.362C747.013 372.434 746.999 372.51 747 372.588C747.001 372.665 747.016 372.742 747.044 372.813C747.073 372.884 747.114 372.948 747.167 373.002L752.621 378.829C752.724 378.937 752.862 378.999 753.007 379Z" fill="#464255" stroke="#AAABB5"/>
<rect x="83" y="166" width="734" height="1" fill="#DADCF0"/>
<rect x="84" y="275" width="734" height="1" fill="#DADCF0"/>
<rect x="648" y="226" width="90" height="32" rx="16" fill="#FFF2F2"/>
<path d="M672.642 239.167V242.296H674.489C675.009 242.296 675.413 242.159 675.701 241.884C675.989 241.609 676.133 241.224 676.133 240.729C676.133 240.246 675.983 239.865 675.682 239.586C675.382 239.307 674.973 239.167 674.457 239.167H672.642ZM672.642 243.553V247H671.004V237.84H674.641C675.627 237.84 676.402 238.096 676.964 238.608C677.527 239.116 677.809 239.81 677.809 240.69C677.809 241.304 677.656 241.846 677.352 242.315C677.047 242.781 676.624 243.111 676.082 243.306L678.082 247H676.215L674.413 243.553H672.642ZM681.833 241.357C681.393 241.357 681.025 241.509 680.729 241.814C680.437 242.114 680.274 242.502 680.24 242.976H683.382C683.365 242.497 683.215 242.108 682.931 241.808C682.648 241.507 682.282 241.357 681.833 241.357ZM683.388 244.988H684.867C684.766 245.627 684.442 246.145 683.896 246.543C683.35 246.937 682.681 247.133 681.89 247.133C680.883 247.133 680.092 246.824 679.516 246.207C678.941 245.584 678.653 244.736 678.653 243.661C678.653 242.595 678.938 241.74 679.51 241.097C680.085 240.453 680.858 240.132 681.827 240.132C682.779 240.132 683.534 240.439 684.093 241.052C684.651 241.662 684.931 242.478 684.931 243.502V244.017H680.227V244.112C680.227 244.653 680.379 245.089 680.684 245.419C680.993 245.75 681.406 245.915 681.922 245.915C682.286 245.915 682.599 245.832 682.861 245.667C683.128 245.498 683.304 245.271 683.388 244.988ZM685.953 247V240.271H687.47V241.439H687.501C687.65 241.042 687.893 240.726 688.231 240.494C688.57 240.261 688.966 240.145 689.418 240.145C689.892 240.145 690.292 240.263 690.618 240.5C690.948 240.733 691.175 241.065 691.297 241.497H691.335C691.496 241.082 691.763 240.754 692.135 240.513C692.512 240.267 692.944 240.145 693.43 240.145C694.095 240.145 694.626 240.35 695.023 240.76C695.425 241.171 695.626 241.712 695.626 242.385V247H694.046V242.772C694.046 242.358 693.94 242.038 693.729 241.814C693.521 241.59 693.225 241.478 692.84 241.478C692.459 241.478 692.15 241.604 691.913 241.858C691.676 242.112 691.558 242.44 691.558 242.842V247H690.021V242.69C690.021 242.318 689.914 242.023 689.698 241.808C689.486 241.588 689.196 241.478 688.828 241.478C688.447 241.478 688.136 241.611 687.895 241.877C687.654 242.14 687.533 242.474 687.533 242.88V247H685.953ZM702.247 246.2C701.659 246.822 700.868 247.133 699.873 247.133C698.879 247.133 698.087 246.822 697.499 246.2C696.911 245.574 696.617 244.719 696.617 243.636C696.617 242.557 696.913 241.704 697.505 241.078C698.098 240.447 698.887 240.132 699.873 240.132C700.863 240.132 701.653 240.447 702.241 241.078C702.833 241.704 703.129 242.557 703.129 243.636C703.129 244.719 702.835 245.574 702.247 246.2ZM698.667 245.292C698.963 245.686 699.365 245.883 699.873 245.883C700.381 245.883 700.783 245.686 701.079 245.292C701.375 244.899 701.523 244.347 701.523 243.636C701.523 242.929 701.375 242.379 701.079 241.985C700.783 241.588 700.381 241.389 699.873 241.389C699.369 241.389 698.967 241.588 698.667 241.985C698.371 242.379 698.223 242.929 698.223 243.636C698.223 244.347 698.371 244.899 698.667 245.292ZM709.89 240.271L707.522 247H705.783L703.396 240.271H705.084L706.646 245.534H706.678L708.239 240.271H709.89ZM713.33 241.357C712.89 241.357 712.522 241.509 712.226 241.814C711.934 242.114 711.771 242.502 711.737 242.976H714.879C714.862 242.497 714.712 242.108 714.428 241.808C714.145 241.507 713.779 241.357 713.33 241.357ZM714.885 244.988H716.364C716.263 245.627 715.939 246.145 715.393 246.543C714.847 246.937 714.179 247.133 713.387 247.133C712.38 247.133 711.589 246.824 711.013 246.207C710.438 245.584 710.15 244.736 710.15 243.661C710.15 242.595 710.436 241.74 711.007 241.097C711.582 240.453 712.355 240.132 713.324 240.132C714.276 240.132 715.031 240.439 715.59 241.052C716.148 241.662 716.428 242.478 716.428 243.502V244.017H711.724V244.112C711.724 244.653 711.876 245.089 712.181 245.419C712.49 245.75 712.903 245.915 713.419 245.915C713.783 245.915 714.096 245.832 714.358 245.667C714.625 245.498 714.801 245.271 714.885 244.988Z" fill="#FF5B5B"/>
<rect x="224" y="552" width="93" height="38" rx="6" fill="#D7D9E6"/>
<path d="M251.57 571.1C251.57 574.026 253.712 576.084 256.526 576.084C258.696 576.084 260.46 574.936 261.118 572.92H258.864C258.402 573.872 257.562 574.334 256.512 574.334C254.804 574.334 253.586 573.074 253.586 571.1C253.586 569.112 254.804 567.866 256.512 567.866C257.562 567.866 258.402 568.328 258.864 569.266H261.118C260.46 567.264 258.696 566.102 256.526 566.102C253.712 566.102 251.57 568.174 251.57 571.1ZM262.792 576H264.752V565.64H262.792V576ZM274.179 572.122C274.179 569.672 272.429 568.118 270.189 568.118C267.949 568.118 266.199 569.672 266.199 572.122C266.199 574.558 267.893 576.126 270.133 576.126C272.387 576.126 274.179 574.558 274.179 572.122ZM268.187 572.122C268.187 570.568 269.125 569.826 270.161 569.826C271.197 569.826 272.163 570.568 272.163 572.122C272.163 573.662 271.169 574.418 270.133 574.418C269.083 574.418 268.187 573.662 268.187 572.122ZM281.636 573.788C281.58 570.946 277.282 571.828 277.282 570.414C277.282 569.966 277.66 569.672 278.388 569.672C279.158 569.672 279.634 570.078 279.69 570.68H281.566C281.454 569.14 280.32 568.118 278.444 568.118C276.526 568.118 275.378 569.154 275.378 570.442C275.378 573.284 279.76 572.402 279.76 573.788C279.76 574.236 279.34 574.586 278.57 574.586C277.786 574.586 277.24 574.138 277.17 573.55H275.196C275.28 574.992 276.638 576.126 278.584 576.126C280.474 576.126 281.636 575.118 281.636 573.788ZM286.577 569.728C287.585 569.728 288.397 570.372 288.425 571.394H284.743C284.897 570.33 285.639 569.728 286.577 569.728ZM290.259 573.564H288.145C287.893 574.082 287.431 574.502 286.591 574.502C285.611 574.502 284.827 573.858 284.729 572.71H290.399C290.441 572.458 290.455 572.206 290.455 571.954C290.455 569.644 288.873 568.118 286.633 568.118C284.337 568.118 282.741 569.672 282.741 572.122C282.741 574.558 284.379 576.126 286.633 576.126C288.551 576.126 289.839 574.992 290.259 573.564Z" fill="#464255"/>
<rect x="121" y="552" width="93" height="38" rx="6" fill="#3546AB"/>
<path d="M168.798 573.172C168.798 569.728 163.786 570.82 163.786 568.86C163.786 568.062 164.36 567.684 165.13 567.712C165.97 567.726 166.488 568.23 166.53 568.874H168.686C168.56 567.11 167.188 566.088 165.186 566.088C163.17 566.088 161.742 567.152 161.742 568.916C161.728 572.458 166.768 571.184 166.768 573.298C166.768 573.998 166.222 574.488 165.298 574.488C164.388 574.488 163.87 573.97 163.814 573.186H161.714C161.742 575.034 163.31 576.098 165.34 576.098C167.566 576.098 168.798 574.712 168.798 573.172ZM169.993 572.094C169.993 574.516 171.561 576.126 173.521 576.126C174.753 576.126 175.635 575.538 176.097 574.866V576H178.071V568.244H176.097V569.35C175.635 568.706 174.781 568.118 173.535 568.118C171.561 568.118 169.993 569.672 169.993 572.094ZM176.097 572.122C176.097 573.592 175.117 574.404 174.039 574.404C172.989 574.404 171.995 573.564 171.995 572.094C171.995 570.624 172.989 569.84 174.039 569.84C175.117 569.84 176.097 570.652 176.097 572.122ZM179.16 568.244L182.016 576H184.396L187.266 568.244H185.18L183.22 574.194L181.26 568.244H179.16ZM191.698 569.728C192.706 569.728 193.518 570.372 193.546 571.394H189.864C190.018 570.33 190.76 569.728 191.698 569.728ZM195.38 573.564H193.266C193.014 574.082 192.552 574.502 191.712 574.502C190.732 574.502 189.948 573.858 189.85 572.71H195.52C195.562 572.458 195.576 572.206 195.576 571.954C195.576 569.644 193.994 568.118 191.754 568.118C189.458 568.118 187.862 569.672 187.862 572.122C187.862 574.558 189.5 576.126 191.754 576.126C193.672 576.126 194.96 574.992 195.38 573.564Z" fill="white"/>
<path d="M150.608 565.511C150.336 565.207 149.957 565.024 149.552 565.002C149.147 564.981 148.751 565.123 148.45 565.397L141.244 574.325L138.628 571.635C138.487 571.487 138.318 571.369 138.132 571.288C137.945 571.207 137.745 571.165 137.542 571.163C137.339 571.161 137.137 571.2 136.95 571.278C136.762 571.355 136.591 571.47 136.448 571.615C136.304 571.76 136.191 571.933 136.114 572.123C136.037 572.313 135.998 572.516 136 572.722C136.002 572.927 136.044 573.13 136.124 573.318C136.204 573.507 136.321 573.677 136.467 573.82L140.108 577.548C140.385 577.827 140.757 577.989 141.149 577.999C141.54 578.01 141.92 577.868 142.211 577.603L150.495 567.693C150.796 567.419 150.977 567.035 150.998 566.626C151.019 566.217 150.879 565.816 150.608 565.511Z" fill="white"/>
<path d="M126.898 207L127.516 203.969H125.289L124.68 207H123.18L123.781 203.969H122L122.281 202.484H124.086L124.562 200.109H122.711L123 198.641H124.852L125.453 195.727H126.953L126.375 198.641H128.586L129.18 195.727H130.688L130.102 198.641H131.977L131.695 200.109H129.797L129.312 202.484H131.25L130.969 203.969H129.023L128.406 207H126.898ZM125.492 202.586H127.859L128.383 200.016H126.016L125.492 202.586Z" fill="#464255"/>
<path d="M122.531 437.828H124.484C124.547 438.344 124.812 438.76 125.281 439.078C125.75 439.391 126.331 439.547 127.023 439.547C127.701 439.547 128.253 439.396 128.68 439.094C129.112 438.792 129.328 438.406 129.328 437.938C129.328 437.531 129.172 437.203 128.859 436.953C128.547 436.698 128.036 436.487 127.328 436.32L125.867 435.977C124.831 435.737 124.06 435.365 123.555 434.859C123.055 434.354 122.805 433.698 122.805 432.891C122.805 431.896 123.195 431.089 123.977 430.469C124.758 429.849 125.766 429.539 127 429.539C128.24 429.539 129.237 429.846 129.992 430.461C130.753 431.07 131.146 431.872 131.172 432.867H129.25C129.203 432.341 128.977 431.93 128.57 431.633C128.164 431.331 127.635 431.18 126.984 431.18C126.349 431.18 125.833 431.323 125.438 431.609C125.047 431.896 124.852 432.273 124.852 432.742C124.852 433.117 125.003 433.422 125.305 433.656C125.612 433.891 126.112 434.091 126.805 434.258L128.102 434.555C129.242 434.815 130.07 435.195 130.586 435.695C131.102 436.195 131.359 436.865 131.359 437.703C131.359 438.771 130.958 439.62 130.156 440.25C129.359 440.875 128.279 441.188 126.914 441.188C125.612 441.188 124.565 440.888 123.773 440.289C122.987 439.685 122.573 438.865 122.531 437.828ZM140.031 432.719V441H138.156V439.562H138.117C137.659 440.62 136.815 441.148 135.586 441.148C134.685 441.148 133.969 440.875 133.438 440.328C132.911 439.776 132.648 439.023 132.648 438.07V432.719H134.594V437.68C134.594 438.273 134.734 438.727 135.016 439.039C135.302 439.352 135.719 439.508 136.266 439.508C136.823 439.508 137.266 439.326 137.594 438.961C137.922 438.596 138.086 438.112 138.086 437.508V432.719H140.031ZM146.258 441.133C145.659 441.133 145.13 440.997 144.672 440.727C144.219 440.456 143.87 440.076 143.625 439.586H143.586V441H141.68V429.727H143.625V434.141H143.672C143.906 433.651 144.25 433.268 144.703 432.992C145.156 432.716 145.674 432.578 146.258 432.578C147.305 432.578 148.135 432.964 148.75 433.734C149.365 434.5 149.672 435.542 149.672 436.859C149.672 438.182 149.365 439.227 148.75 439.992C148.141 440.753 147.31 441.133 146.258 441.133ZM145.656 434.18C145.052 434.18 144.56 434.427 144.18 434.922C143.805 435.411 143.617 436.057 143.617 436.859C143.617 437.667 143.805 438.315 144.18 438.805C144.56 439.294 145.052 439.539 145.656 439.539C146.281 439.539 146.773 439.299 147.133 438.82C147.497 438.336 147.68 437.682 147.68 436.859C147.68 436.036 147.497 435.385 147.133 434.906C146.768 434.422 146.276 434.18 145.656 434.18ZM159.195 441.188C157.581 441.188 156.302 440.667 155.359 439.625C154.422 438.583 153.953 437.161 153.953 435.359C153.953 433.568 154.424 432.151 155.367 431.109C156.315 430.062 157.591 429.539 159.195 429.539C160.508 429.539 161.615 429.914 162.516 430.664C163.417 431.409 163.93 432.385 164.055 433.594H162.07C161.94 432.885 161.609 432.318 161.078 431.891C160.552 431.464 159.924 431.25 159.195 431.25C158.227 431.25 157.453 431.622 156.875 432.367C156.302 433.107 156.016 434.104 156.016 435.359C156.016 436.625 156.302 437.628 156.875 438.367C157.448 439.107 158.224 439.477 159.203 439.477C159.948 439.477 160.573 439.286 161.078 438.906C161.589 438.521 161.922 437.99 162.078 437.312H164.055C163.878 438.521 163.357 439.469 162.492 440.156C161.628 440.844 160.529 441.188 159.195 441.188ZM168.383 439.664C168.94 439.664 169.409 439.5 169.789 439.172C170.174 438.839 170.367 438.424 170.367 437.93V437.297L168.453 437.414C167.984 437.445 167.62 437.562 167.359 437.766C167.104 437.964 166.977 438.227 166.977 438.555C166.977 438.893 167.104 439.164 167.359 439.367C167.62 439.565 167.961 439.664 168.383 439.664ZM167.797 441.133C166.99 441.133 166.326 440.901 165.805 440.438C165.289 439.974 165.031 439.372 165.031 438.633C165.031 437.898 165.302 437.318 165.844 436.891C166.391 436.464 167.169 436.219 168.18 436.156L170.367 436.031V435.438C170.367 435.005 170.229 434.669 169.953 434.43C169.682 434.19 169.305 434.07 168.82 434.07C168.367 434.07 167.997 434.172 167.711 434.375C167.424 434.578 167.25 434.854 167.188 435.203H165.383C165.424 434.417 165.76 433.779 166.391 433.289C167.026 432.794 167.862 432.547 168.898 432.547C169.924 432.547 170.745 432.797 171.359 433.297C171.979 433.797 172.289 434.464 172.289 435.297V441H170.414V439.68H170.375C170.141 440.122 169.786 440.477 169.312 440.742C168.839 441.003 168.333 441.133 167.797 441.133ZM174.398 430.781H176.344V432.719H177.906V434.219H176.344V438.523C176.344 438.862 176.424 439.112 176.586 439.273C176.747 439.435 177 439.516 177.344 439.516C177.573 439.516 177.758 439.503 177.898 439.477V440.961C177.664 441.013 177.328 441.039 176.891 441.039C175.995 441.039 175.354 440.867 174.969 440.523C174.589 440.18 174.398 439.604 174.398 438.797V434.219H173.211V432.719H174.398V430.781ZM182.648 434.055C182.107 434.055 181.654 434.242 181.289 434.617C180.93 434.987 180.729 435.464 180.688 436.047H184.555C184.534 435.458 184.349 434.979 184 434.609C183.651 434.24 183.201 434.055 182.648 434.055ZM184.562 438.523H186.383C186.258 439.31 185.859 439.948 185.188 440.438C184.516 440.922 183.693 441.164 182.719 441.164C181.479 441.164 180.505 440.784 179.797 440.023C179.089 439.258 178.734 438.214 178.734 436.891C178.734 435.578 179.086 434.526 179.789 433.734C180.497 432.943 181.448 432.547 182.641 432.547C183.812 432.547 184.742 432.924 185.43 433.68C186.117 434.43 186.461 435.435 186.461 436.695V437.328H180.672V437.445C180.672 438.112 180.859 438.648 181.234 439.055C181.615 439.461 182.122 439.664 182.758 439.664C183.206 439.664 183.591 439.562 183.914 439.359C184.242 439.151 184.458 438.872 184.562 438.523ZM191.375 439.461C192 439.461 192.497 439.227 192.867 438.758C193.237 438.284 193.422 437.643 193.422 436.836C193.422 436.029 193.234 435.385 192.859 434.906C192.49 434.422 191.995 434.18 191.375 434.18C190.76 434.18 190.271 434.419 189.906 434.898C189.547 435.378 189.367 436.023 189.367 436.836C189.367 437.654 189.547 438.297 189.906 438.766C190.271 439.229 190.76 439.461 191.375 439.461ZM191.367 444.125C190.352 444.125 189.503 443.891 188.82 443.422C188.143 442.958 187.755 442.359 187.656 441.625H189.586C189.69 441.943 189.909 442.198 190.242 442.391C190.576 442.589 190.971 442.688 191.43 442.688C192.055 442.688 192.542 442.526 192.891 442.203C193.245 441.885 193.422 441.458 193.422 440.922V439.523H193.375C193.156 439.977 192.815 440.339 192.352 440.609C191.893 440.875 191.37 441.008 190.781 441.008C189.75 441.008 188.924 440.633 188.305 439.883C187.685 439.128 187.375 438.109 187.375 436.828C187.375 435.521 187.685 434.487 188.305 433.727C188.924 432.961 189.763 432.578 190.82 432.578C191.404 432.578 191.924 432.719 192.383 433C192.841 433.276 193.19 433.656 193.43 434.141H193.461V432.719H195.367V440.867C195.367 441.857 195.003 442.646 194.273 443.234C193.544 443.828 192.576 444.125 191.367 444.125ZM203.539 440.016C202.815 440.781 201.841 441.164 200.617 441.164C199.393 441.164 198.419 440.781 197.695 440.016C196.971 439.245 196.609 438.193 196.609 436.859C196.609 435.531 196.974 434.482 197.703 433.711C198.432 432.935 199.404 432.547 200.617 432.547C201.836 432.547 202.807 432.935 203.531 433.711C204.26 434.482 204.625 435.531 204.625 436.859C204.625 438.193 204.263 439.245 203.539 440.016ZM199.133 438.898C199.497 439.383 199.992 439.625 200.617 439.625C201.242 439.625 201.737 439.383 202.102 438.898C202.466 438.414 202.648 437.734 202.648 436.859C202.648 435.99 202.466 435.312 202.102 434.828C201.737 434.339 201.242 434.094 200.617 434.094C199.997 434.094 199.503 434.339 199.133 434.828C198.768 435.312 198.586 435.99 198.586 436.859C198.586 437.734 198.768 438.414 199.133 438.898ZM205.875 441V432.719H207.742V434.164H207.781C207.922 433.659 208.164 433.268 208.508 432.992C208.857 432.716 209.276 432.578 209.766 432.578C209.938 432.578 210.141 432.604 210.375 432.656V434.414C210.182 434.341 209.919 434.305 209.586 434.305C209.034 434.305 208.602 434.471 208.289 434.805C207.977 435.138 207.82 435.596 207.82 436.18V441H205.875ZM212.297 444.078C211.875 444.078 211.62 444.068 211.531 444.047V442.508C211.62 442.529 211.807 442.539 212.094 442.539C212.495 442.539 212.807 442.456 213.031 442.289C213.255 442.122 213.422 441.849 213.531 441.469C213.531 441.464 213.549 441.388 213.586 441.242C213.628 441.096 213.646 441.018 213.641 441.008L210.695 432.719H212.82L214.773 439.344H214.805L216.758 432.719H218.805L215.812 441.328C215.458 442.354 215.021 443.068 214.5 443.469C213.979 443.875 213.245 444.078 212.297 444.078ZM225.078 441H223.133V429.727H224.883L230.477 437.625H230.547V429.727H232.484V441H230.75L225.148 433.094H225.078V441ZM237.102 439.664C237.659 439.664 238.128 439.5 238.508 439.172C238.893 438.839 239.086 438.424 239.086 437.93V437.297L237.172 437.414C236.703 437.445 236.339 437.562 236.078 437.766C235.823 437.964 235.695 438.227 235.695 438.555C235.695 438.893 235.823 439.164 236.078 439.367C236.339 439.565 236.68 439.664 237.102 439.664ZM236.516 441.133C235.708 441.133 235.044 440.901 234.523 440.438C234.008 439.974 233.75 439.372 233.75 438.633C233.75 437.898 234.021 437.318 234.562 436.891C235.109 436.464 235.888 436.219 236.898 436.156L239.086 436.031V435.438C239.086 435.005 238.948 434.669 238.672 434.43C238.401 434.19 238.023 434.07 237.539 434.07C237.086 434.07 236.716 434.172 236.43 434.375C236.143 434.578 235.969 434.854 235.906 435.203H234.102C234.143 434.417 234.479 433.779 235.109 433.289C235.745 432.794 236.581 432.547 237.617 432.547C238.643 432.547 239.464 432.797 240.078 433.297C240.698 433.797 241.008 434.464 241.008 435.297V441H239.133V439.68H239.094C238.859 440.122 238.505 440.477 238.031 440.742C237.557 441.003 237.052 441.133 236.516 441.133ZM242.578 441V432.719H244.445V434.156H244.484C244.667 433.667 244.966 433.279 245.383 432.992C245.799 432.706 246.286 432.562 246.844 432.562C247.427 432.562 247.919 432.708 248.32 433C248.727 433.286 249.005 433.695 249.156 434.227H249.203C249.401 433.716 249.729 433.312 250.188 433.016C250.651 432.714 251.182 432.562 251.781 432.562C252.599 432.562 253.253 432.815 253.742 433.32C254.237 433.826 254.484 434.492 254.484 435.32V441H252.539V435.797C252.539 435.286 252.409 434.893 252.148 434.617C251.893 434.341 251.529 434.203 251.055 434.203C250.586 434.203 250.206 434.359 249.914 434.672C249.622 434.984 249.477 435.388 249.477 435.883V441H247.586V435.695C247.586 435.237 247.453 434.875 247.188 434.609C246.927 434.339 246.57 434.203 246.117 434.203C245.648 434.203 245.266 434.367 244.969 434.695C244.672 435.018 244.523 435.43 244.523 435.93V441H242.578ZM259.617 434.055C259.076 434.055 258.622 434.242 258.258 434.617C257.898 434.987 257.698 435.464 257.656 436.047H261.523C261.503 435.458 261.318 434.979 260.969 434.609C260.62 434.24 260.169 434.055 259.617 434.055ZM261.531 438.523H263.352C263.227 439.31 262.828 439.948 262.156 440.438C261.484 440.922 260.661 441.164 259.688 441.164C258.448 441.164 257.474 440.784 256.766 440.023C256.057 439.258 255.703 438.214 255.703 436.891C255.703 435.578 256.055 434.526 256.758 433.734C257.466 432.943 258.417 432.547 259.609 432.547C260.781 432.547 261.711 432.924 262.398 433.68C263.086 434.43 263.43 435.435 263.43 436.695V437.328H257.641V437.445C257.641 438.112 257.828 438.648 258.203 439.055C258.583 439.461 259.091 439.664 259.727 439.664C260.174 439.664 260.56 439.562 260.883 439.359C261.211 439.151 261.427 438.872 261.531 438.523Z" fill="#464255"/>
<path d="M127.852 326.188C126.237 326.188 124.958 325.667 124.016 324.625C123.078 323.583 122.609 322.161 122.609 320.359C122.609 318.568 123.081 317.151 124.023 316.109C124.971 315.062 126.247 314.539 127.852 314.539C129.164 314.539 130.271 314.914 131.172 315.664C132.073 316.409 132.586 317.385 132.711 318.594H130.727C130.596 317.885 130.266 317.318 129.734 316.891C129.208 316.464 128.581 316.25 127.852 316.25C126.883 316.25 126.109 316.622 125.531 317.367C124.958 318.107 124.672 319.104 124.672 320.359C124.672 321.625 124.958 322.628 125.531 323.367C126.104 324.107 126.88 324.477 127.859 324.477C128.604 324.477 129.229 324.286 129.734 323.906C130.245 323.521 130.578 322.99 130.734 322.312H132.711C132.534 323.521 132.013 324.469 131.148 325.156C130.284 325.844 129.185 326.188 127.852 326.188ZM137.039 324.664C137.596 324.664 138.065 324.5 138.445 324.172C138.831 323.839 139.023 323.424 139.023 322.93V322.297L137.109 322.414C136.641 322.445 136.276 322.562 136.016 322.766C135.76 322.964 135.633 323.227 135.633 323.555C135.633 323.893 135.76 324.164 136.016 324.367C136.276 324.565 136.617 324.664 137.039 324.664ZM136.453 326.133C135.646 326.133 134.982 325.901 134.461 325.438C133.945 324.974 133.688 324.372 133.688 323.633C133.688 322.898 133.958 322.318 134.5 321.891C135.047 321.464 135.826 321.219 136.836 321.156L139.023 321.031V320.438C139.023 320.005 138.885 319.669 138.609 319.43C138.339 319.19 137.961 319.07 137.477 319.07C137.023 319.07 136.654 319.172 136.367 319.375C136.081 319.578 135.906 319.854 135.844 320.203H134.039C134.081 319.417 134.417 318.779 135.047 318.289C135.682 317.794 136.518 317.547 137.555 317.547C138.581 317.547 139.401 317.797 140.016 318.297C140.635 318.797 140.945 319.464 140.945 320.297V326H139.07V324.68H139.031C138.797 325.122 138.443 325.477 137.969 325.742C137.495 326.003 136.99 326.133 136.453 326.133ZM143.055 315.781H145V317.719H146.562V319.219H145V323.523C145 323.862 145.081 324.112 145.242 324.273C145.404 324.435 145.656 324.516 146 324.516C146.229 324.516 146.414 324.503 146.555 324.477V325.961C146.32 326.013 145.984 326.039 145.547 326.039C144.651 326.039 144.01 325.867 143.625 325.523C143.245 325.18 143.055 324.604 143.055 323.797V319.219H141.867V317.719H143.055V315.781ZM151.305 319.055C150.763 319.055 150.31 319.242 149.945 319.617C149.586 319.987 149.385 320.464 149.344 321.047H153.211C153.19 320.458 153.005 319.979 152.656 319.609C152.307 319.24 151.857 319.055 151.305 319.055ZM153.219 323.523H155.039C154.914 324.31 154.516 324.948 153.844 325.438C153.172 325.922 152.349 326.164 151.375 326.164C150.135 326.164 149.161 325.784 148.453 325.023C147.745 324.258 147.391 323.214 147.391 321.891C147.391 320.578 147.742 319.526 148.445 318.734C149.154 317.943 150.104 317.547 151.297 317.547C152.469 317.547 153.398 317.924 154.086 318.68C154.773 319.43 155.117 320.435 155.117 321.695V322.328H149.328V322.445C149.328 323.112 149.516 323.648 149.891 324.055C150.271 324.461 150.779 324.664 151.414 324.664C151.862 324.664 152.247 324.562 152.57 324.359C152.898 324.151 153.115 323.872 153.219 323.523ZM160.031 324.461C160.656 324.461 161.154 324.227 161.523 323.758C161.893 323.284 162.078 322.643 162.078 321.836C162.078 321.029 161.891 320.385 161.516 319.906C161.146 319.422 160.651 319.18 160.031 319.18C159.417 319.18 158.927 319.419 158.562 319.898C158.203 320.378 158.023 321.023 158.023 321.836C158.023 322.654 158.203 323.297 158.562 323.766C158.927 324.229 159.417 324.461 160.031 324.461ZM160.023 329.125C159.008 329.125 158.159 328.891 157.477 328.422C156.799 327.958 156.411 327.359 156.312 326.625H158.242C158.346 326.943 158.565 327.198 158.898 327.391C159.232 327.589 159.628 327.688 160.086 327.688C160.711 327.688 161.198 327.526 161.547 327.203C161.901 326.885 162.078 326.458 162.078 325.922V324.523H162.031C161.812 324.977 161.471 325.339 161.008 325.609C160.549 325.875 160.026 326.008 159.438 326.008C158.406 326.008 157.581 325.633 156.961 324.883C156.341 324.128 156.031 323.109 156.031 321.828C156.031 320.521 156.341 319.487 156.961 318.727C157.581 317.961 158.419 317.578 159.477 317.578C160.06 317.578 160.581 317.719 161.039 318C161.497 318.276 161.846 318.656 162.086 319.141H162.117V317.719H164.023V325.867C164.023 326.857 163.659 327.646 162.93 328.234C162.201 328.828 161.232 329.125 160.023 329.125ZM172.195 325.016C171.471 325.781 170.497 326.164 169.273 326.164C168.049 326.164 167.076 325.781 166.352 325.016C165.628 324.245 165.266 323.193 165.266 321.859C165.266 320.531 165.63 319.482 166.359 318.711C167.089 317.935 168.06 317.547 169.273 317.547C170.492 317.547 171.464 317.935 172.188 318.711C172.917 319.482 173.281 320.531 173.281 321.859C173.281 323.193 172.919 324.245 172.195 325.016ZM167.789 323.898C168.154 324.383 168.648 324.625 169.273 324.625C169.898 324.625 170.393 324.383 170.758 323.898C171.122 323.414 171.305 322.734 171.305 321.859C171.305 320.99 171.122 320.312 170.758 319.828C170.393 319.339 169.898 319.094 169.273 319.094C168.654 319.094 168.159 319.339 167.789 319.828C167.424 320.312 167.242 320.99 167.242 321.859C167.242 322.734 167.424 323.414 167.789 323.898ZM174.531 326V317.719H176.398V319.164H176.438C176.578 318.659 176.82 318.268 177.164 317.992C177.513 317.716 177.932 317.578 178.422 317.578C178.594 317.578 178.797 317.604 179.031 317.656V319.414C178.839 319.341 178.576 319.305 178.242 319.305C177.69 319.305 177.258 319.471 176.945 319.805C176.633 320.138 176.477 320.596 176.477 321.18V326H174.531ZM180.953 329.078C180.531 329.078 180.276 329.068 180.188 329.047V327.508C180.276 327.529 180.464 327.539 180.75 327.539C181.151 327.539 181.464 327.456 181.688 327.289C181.911 327.122 182.078 326.849 182.188 326.469C182.188 326.464 182.206 326.388 182.242 326.242C182.284 326.096 182.302 326.018 182.297 326.008L179.352 317.719H181.477L183.43 324.344H183.461L185.414 317.719H187.461L184.469 326.328C184.115 327.354 183.677 328.068 183.156 328.469C182.635 328.875 181.901 329.078 180.953 329.078ZM193.734 326H191.789V314.727H193.539L199.133 322.625H199.203V314.727H201.141V326H199.406L193.805 318.094H193.734V326ZM205.758 324.664C206.315 324.664 206.784 324.5 207.164 324.172C207.549 323.839 207.742 323.424 207.742 322.93V322.297L205.828 322.414C205.359 322.445 204.995 322.562 204.734 322.766C204.479 322.964 204.352 323.227 204.352 323.555C204.352 323.893 204.479 324.164 204.734 324.367C204.995 324.565 205.336 324.664 205.758 324.664ZM205.172 326.133C204.365 326.133 203.701 325.901 203.18 325.438C202.664 324.974 202.406 324.372 202.406 323.633C202.406 322.898 202.677 322.318 203.219 321.891C203.766 321.464 204.544 321.219 205.555 321.156L207.742 321.031V320.438C207.742 320.005 207.604 319.669 207.328 319.43C207.057 319.19 206.68 319.07 206.195 319.07C205.742 319.07 205.372 319.172 205.086 319.375C204.799 319.578 204.625 319.854 204.562 320.203H202.758C202.799 319.417 203.135 318.779 203.766 318.289C204.401 317.794 205.237 317.547 206.273 317.547C207.299 317.547 208.12 317.797 208.734 318.297C209.354 318.797 209.664 319.464 209.664 320.297V326H207.789V324.68H207.75C207.516 325.122 207.161 325.477 206.688 325.742C206.214 326.003 205.708 326.133 205.172 326.133ZM211.234 326V317.719H213.102V319.156H213.141C213.323 318.667 213.622 318.279 214.039 317.992C214.456 317.706 214.943 317.562 215.5 317.562C216.083 317.562 216.576 317.708 216.977 318C217.383 318.286 217.661 318.695 217.812 319.227H217.859C218.057 318.716 218.385 318.312 218.844 318.016C219.307 317.714 219.839 317.562 220.438 317.562C221.255 317.562 221.909 317.815 222.398 318.32C222.893 318.826 223.141 319.492 223.141 320.32V326H221.195V320.797C221.195 320.286 221.065 319.893 220.805 319.617C220.549 319.341 220.185 319.203 219.711 319.203C219.242 319.203 218.862 319.359 218.57 319.672C218.279 319.984 218.133 320.388 218.133 320.883V326H216.242V320.695C216.242 320.237 216.109 319.875 215.844 319.609C215.583 319.339 215.227 319.203 214.773 319.203C214.305 319.203 213.922 319.367 213.625 319.695C213.328 320.018 213.18 320.43 213.18 320.93V326H211.234ZM228.273 319.055C227.732 319.055 227.279 319.242 226.914 319.617C226.555 319.987 226.354 320.464 226.312 321.047H230.18C230.159 320.458 229.974 319.979 229.625 319.609C229.276 319.24 228.826 319.055 228.273 319.055ZM230.188 323.523H232.008C231.883 324.31 231.484 324.948 230.812 325.438C230.141 325.922 229.318 326.164 228.344 326.164C227.104 326.164 226.13 325.784 225.422 325.023C224.714 324.258 224.359 323.214 224.359 321.891C224.359 320.578 224.711 319.526 225.414 318.734C226.122 317.943 227.073 317.547 228.266 317.547C229.438 317.547 230.367 317.924 231.055 318.68C231.742 319.43 232.086 320.435 232.086 321.695V322.328H226.297V322.445C226.297 323.112 226.484 323.648 226.859 324.055C227.24 324.461 227.747 324.664 228.383 324.664C228.831 324.664 229.216 324.562 229.539 324.359C229.867 324.151 230.083 323.872 230.188 323.523Z" fill="#464255"/>
<path d="M125.789 239V228.875H125.758C125.685 228.922 125.193 229.263 124.281 229.898C123.37 230.529 122.854 230.88 122.734 230.953V229.812C122.828 229.755 123.328 229.411 124.234 228.781C125.141 228.151 125.654 227.799 125.773 227.727H126.82V239H125.789Z" fill="#464255"/>
<path d="M246.719 239.18C245.146 239.18 243.898 238.659 242.977 237.617C242.06 236.57 241.602 235.154 241.602 233.367C241.602 231.581 242.062 230.164 242.984 229.117C243.906 228.07 245.151 227.547 246.719 227.547C248.292 227.547 249.539 228.07 250.461 229.117C251.383 230.164 251.844 231.581 251.844 233.367C251.844 234.477 251.656 235.456 251.281 236.305C250.911 237.148 250.38 237.815 249.688 238.305L251.156 240.32H249.953L248.82 238.773C248.185 239.044 247.484 239.18 246.719 239.18ZM246.719 238.188C247.25 238.188 247.745 238.099 248.203 237.922L246.742 235.914H247.945L249.062 237.445C249.604 237.044 250.018 236.495 250.305 235.797C250.596 235.094 250.742 234.284 250.742 233.367C250.742 231.888 250.38 230.714 249.656 229.844C248.932 228.974 247.953 228.539 246.719 228.539C245.484 228.539 244.505 228.974 243.781 229.844C243.057 230.714 242.695 231.888 242.695 233.367C242.695 234.841 243.057 236.013 243.781 236.883C244.51 237.753 245.49 238.188 246.719 238.188Z" fill="#464255"/>
<path d="M146.109 382H145.055V370.727H146.109L152.719 380.141H152.773V370.727H153.828V382H152.797L146.164 372.578H146.109V382Z" fill="#959AC5"/>
<path d="M453.109 239H452.055V227.727H453.109L459.719 237.141H459.773V227.727H460.828V239H459.797L453.164 229.578H453.109V239Z" fill="#464255"/>
<path d="M241.531 203.828H243.484C243.547 204.344 243.812 204.76 244.281 205.078C244.75 205.391 245.331 205.547 246.023 205.547C246.701 205.547 247.253 205.396 247.68 205.094C248.112 204.792 248.328 204.406 248.328 203.938C248.328 203.531 248.172 203.203 247.859 202.953C247.547 202.698 247.036 202.487 246.328 202.32L244.867 201.977C243.831 201.737 243.06 201.365 242.555 200.859C242.055 200.354 241.805 199.698 241.805 198.891C241.805 197.896 242.195 197.089 242.977 196.469C243.758 195.849 244.766 195.539 246 195.539C247.24 195.539 248.237 195.846 248.992 196.461C249.753 197.07 250.146 197.872 250.172 198.867H248.25C248.203 198.341 247.977 197.93 247.57 197.633C247.164 197.331 246.635 197.18 245.984 197.18C245.349 197.18 244.833 197.323 244.438 197.609C244.047 197.896 243.852 198.273 243.852 198.742C243.852 199.117 244.003 199.422 244.305 199.656C244.612 199.891 245.112 200.091 245.805 200.258L247.102 200.555C248.242 200.815 249.07 201.195 249.586 201.695C250.102 202.195 250.359 202.865 250.359 203.703C250.359 204.771 249.958 205.62 249.156 206.25C248.359 206.875 247.279 207.188 245.914 207.188C244.612 207.188 243.565 206.888 242.773 206.289C241.987 205.685 241.573 204.865 241.531 203.828ZM259.031 198.719V207H257.156V205.562H257.117C256.659 206.62 255.815 207.148 254.586 207.148C253.685 207.148 252.969 206.875 252.438 206.328C251.911 205.776 251.648 205.023 251.648 204.07V198.719H253.594V203.68C253.594 204.273 253.734 204.727 254.016 205.039C254.302 205.352 254.719 205.508 255.266 205.508C255.823 205.508 256.266 205.326 256.594 204.961C256.922 204.596 257.086 204.112 257.086 203.508V198.719H259.031ZM265.258 207.133C264.659 207.133 264.13 206.997 263.672 206.727C263.219 206.456 262.87 206.076 262.625 205.586H262.586V207H260.68V195.727H262.625V200.141H262.672C262.906 199.651 263.25 199.268 263.703 198.992C264.156 198.716 264.674 198.578 265.258 198.578C266.305 198.578 267.135 198.964 267.75 199.734C268.365 200.5 268.672 201.542 268.672 202.859C268.672 204.182 268.365 205.227 267.75 205.992C267.141 206.753 266.31 207.133 265.258 207.133ZM264.656 200.18C264.052 200.18 263.56 200.427 263.18 200.922C262.805 201.411 262.617 202.057 262.617 202.859C262.617 203.667 262.805 204.315 263.18 204.805C263.56 205.294 264.052 205.539 264.656 205.539C265.281 205.539 265.773 205.299 266.133 204.82C266.497 204.336 266.68 203.682 266.68 202.859C266.68 202.036 266.497 201.385 266.133 200.906C265.768 200.422 265.276 200.18 264.656 200.18ZM278.195 207.188C276.581 207.188 275.302 206.667 274.359 205.625C273.422 204.583 272.953 203.161 272.953 201.359C272.953 199.568 273.424 198.151 274.367 197.109C275.315 196.062 276.591 195.539 278.195 195.539C279.508 195.539 280.615 195.914 281.516 196.664C282.417 197.409 282.93 198.385 283.055 199.594H281.07C280.94 198.885 280.609 198.318 280.078 197.891C279.552 197.464 278.924 197.25 278.195 197.25C277.227 197.25 276.453 197.622 275.875 198.367C275.302 199.107 275.016 200.104 275.016 201.359C275.016 202.625 275.302 203.628 275.875 204.367C276.448 205.107 277.224 205.477 278.203 205.477C278.948 205.477 279.573 205.286 280.078 204.906C280.589 204.521 280.922 203.99 281.078 203.312H283.055C282.878 204.521 282.357 205.469 281.492 206.156C280.628 206.844 279.529 207.188 278.195 207.188ZM287.383 205.664C287.94 205.664 288.409 205.5 288.789 205.172C289.174 204.839 289.367 204.424 289.367 203.93V203.297L287.453 203.414C286.984 203.445 286.62 203.562 286.359 203.766C286.104 203.964 285.977 204.227 285.977 204.555C285.977 204.893 286.104 205.164 286.359 205.367C286.62 205.565 286.961 205.664 287.383 205.664ZM286.797 207.133C285.99 207.133 285.326 206.901 284.805 206.438C284.289 205.974 284.031 205.372 284.031 204.633C284.031 203.898 284.302 203.318 284.844 202.891C285.391 202.464 286.169 202.219 287.18 202.156L289.367 202.031V201.438C289.367 201.005 289.229 200.669 288.953 200.43C288.682 200.19 288.305 200.07 287.82 200.07C287.367 200.07 286.997 200.172 286.711 200.375C286.424 200.578 286.25 200.854 286.188 201.203H284.383C284.424 200.417 284.76 199.779 285.391 199.289C286.026 198.794 286.862 198.547 287.898 198.547C288.924 198.547 289.745 198.797 290.359 199.297C290.979 199.797 291.289 200.464 291.289 201.297V207H289.414V205.68H289.375C289.141 206.122 288.786 206.477 288.312 206.742C287.839 207.003 287.333 207.133 286.797 207.133ZM293.398 196.781H295.344V198.719H296.906V200.219H295.344V204.523C295.344 204.862 295.424 205.112 295.586 205.273C295.747 205.435 296 205.516 296.344 205.516C296.573 205.516 296.758 205.503 296.898 205.477V206.961C296.664 207.013 296.328 207.039 295.891 207.039C294.995 207.039 294.354 206.867 293.969 206.523C293.589 206.18 293.398 205.604 293.398 204.797V200.219H292.211V198.719H293.398V196.781ZM301.648 200.055C301.107 200.055 300.654 200.242 300.289 200.617C299.93 200.987 299.729 201.464 299.688 202.047H303.555C303.534 201.458 303.349 200.979 303 200.609C302.651 200.24 302.201 200.055 301.648 200.055ZM303.562 204.523H305.383C305.258 205.31 304.859 205.948 304.188 206.438C303.516 206.922 302.693 207.164 301.719 207.164C300.479 207.164 299.505 206.784 298.797 206.023C298.089 205.258 297.734 204.214 297.734 202.891C297.734 201.578 298.086 200.526 298.789 199.734C299.497 198.943 300.448 198.547 301.641 198.547C302.812 198.547 303.742 198.924 304.43 199.68C305.117 200.43 305.461 201.435 305.461 202.695V203.328H299.672V203.445C299.672 204.112 299.859 204.648 300.234 205.055C300.615 205.461 301.122 205.664 301.758 205.664C302.206 205.664 302.591 205.562 302.914 205.359C303.242 205.151 303.458 204.872 303.562 204.523ZM310.375 205.461C311 205.461 311.497 205.227 311.867 204.758C312.237 204.284 312.422 203.643 312.422 202.836C312.422 202.029 312.234 201.385 311.859 200.906C311.49 200.422 310.995 200.18 310.375 200.18C309.76 200.18 309.271 200.419 308.906 200.898C308.547 201.378 308.367 202.023 308.367 202.836C308.367 203.654 308.547 204.297 308.906 204.766C309.271 205.229 309.76 205.461 310.375 205.461ZM310.367 210.125C309.352 210.125 308.503 209.891 307.82 209.422C307.143 208.958 306.755 208.359 306.656 207.625H308.586C308.69 207.943 308.909 208.198 309.242 208.391C309.576 208.589 309.971 208.688 310.43 208.688C311.055 208.688 311.542 208.526 311.891 208.203C312.245 207.885 312.422 207.458 312.422 206.922V205.523H312.375C312.156 205.977 311.815 206.339 311.352 206.609C310.893 206.875 310.37 207.008 309.781 207.008C308.75 207.008 307.924 206.633 307.305 205.883C306.685 205.128 306.375 204.109 306.375 202.828C306.375 201.521 306.685 200.487 307.305 199.727C307.924 198.961 308.763 198.578 309.82 198.578C310.404 198.578 310.924 198.719 311.383 199C311.841 199.276 312.19 199.656 312.43 200.141H312.461V198.719H314.367V206.867C314.367 207.857 314.003 208.646 313.273 209.234C312.544 209.828 311.576 210.125 310.367 210.125ZM322.539 206.016C321.815 206.781 320.841 207.164 319.617 207.164C318.393 207.164 317.419 206.781 316.695 206.016C315.971 205.245 315.609 204.193 315.609 202.859C315.609 201.531 315.974 200.482 316.703 199.711C317.432 198.935 318.404 198.547 319.617 198.547C320.836 198.547 321.807 198.935 322.531 199.711C323.26 200.482 323.625 201.531 323.625 202.859C323.625 204.193 323.263 205.245 322.539 206.016ZM318.133 204.898C318.497 205.383 318.992 205.625 319.617 205.625C320.242 205.625 320.737 205.383 321.102 204.898C321.466 204.414 321.648 203.734 321.648 202.859C321.648 201.99 321.466 201.312 321.102 200.828C320.737 200.339 320.242 200.094 319.617 200.094C318.997 200.094 318.503 200.339 318.133 200.828C317.768 201.312 317.586 201.99 317.586 202.859C317.586 203.734 317.768 204.414 318.133 204.898ZM324.875 207V198.719H326.742V200.164H326.781C326.922 199.659 327.164 199.268 327.508 198.992C327.857 198.716 328.276 198.578 328.766 198.578C328.938 198.578 329.141 198.604 329.375 198.656V200.414C329.182 200.341 328.919 200.305 328.586 200.305C328.034 200.305 327.602 200.471 327.289 200.805C326.977 201.138 326.82 201.596 326.82 202.18V207H324.875ZM331.297 210.078C330.875 210.078 330.62 210.068 330.531 210.047V208.508C330.62 208.529 330.807 208.539 331.094 208.539C331.495 208.539 331.807 208.456 332.031 208.289C332.255 208.122 332.422 207.849 332.531 207.469C332.531 207.464 332.549 207.388 332.586 207.242C332.628 207.096 332.646 207.018 332.641 207.008L329.695 198.719H331.82L333.773 205.344H333.805L335.758 198.719H337.805L334.812 207.328C334.458 208.354 334.021 209.068 333.5 209.469C332.979 209.875 332.245 210.078 331.297 210.078Z" fill="#464255"/>
<path d="M456.852 207.188C455.237 207.188 453.958 206.667 453.016 205.625C452.078 204.583 451.609 203.161 451.609 201.359C451.609 199.568 452.081 198.151 453.023 197.109C453.971 196.062 455.247 195.539 456.852 195.539C458.164 195.539 459.271 195.914 460.172 196.664C461.073 197.409 461.586 198.385 461.711 199.594H459.727C459.596 198.885 459.266 198.318 458.734 197.891C458.208 197.464 457.581 197.25 456.852 197.25C455.883 197.25 455.109 197.622 454.531 198.367C453.958 199.107 453.672 200.104 453.672 201.359C453.672 202.625 453.958 203.628 454.531 204.367C455.104 205.107 455.88 205.477 456.859 205.477C457.604 205.477 458.229 205.286 458.734 204.906C459.245 204.521 459.578 203.99 459.734 203.312H461.711C461.534 204.521 461.013 205.469 460.148 206.156C459.284 206.844 458.185 207.188 456.852 207.188ZM466.039 205.664C466.596 205.664 467.065 205.5 467.445 205.172C467.831 204.839 468.023 204.424 468.023 203.93V203.297L466.109 203.414C465.641 203.445 465.276 203.562 465.016 203.766C464.76 203.964 464.633 204.227 464.633 204.555C464.633 204.893 464.76 205.164 465.016 205.367C465.276 205.565 465.617 205.664 466.039 205.664ZM465.453 207.133C464.646 207.133 463.982 206.901 463.461 206.438C462.945 205.974 462.688 205.372 462.688 204.633C462.688 203.898 462.958 203.318 463.5 202.891C464.047 202.464 464.826 202.219 465.836 202.156L468.023 202.031V201.438C468.023 201.005 467.885 200.669 467.609 200.43C467.339 200.19 466.961 200.07 466.477 200.07C466.023 200.07 465.654 200.172 465.367 200.375C465.081 200.578 464.906 200.854 464.844 201.203H463.039C463.081 200.417 463.417 199.779 464.047 199.289C464.682 198.794 465.518 198.547 466.555 198.547C467.581 198.547 468.401 198.797 469.016 199.297C469.635 199.797 469.945 200.464 469.945 201.297V207H468.07V205.68H468.031C467.797 206.122 467.443 206.477 466.969 206.742C466.495 207.003 465.99 207.133 465.453 207.133ZM472.055 196.781H474V198.719H475.562V200.219H474V204.523C474 204.862 474.081 205.112 474.242 205.273C474.404 205.435 474.656 205.516 475 205.516C475.229 205.516 475.414 205.503 475.555 205.477V206.961C475.32 207.013 474.984 207.039 474.547 207.039C473.651 207.039 473.01 206.867 472.625 206.523C472.245 206.18 472.055 205.604 472.055 204.797V200.219H470.867V198.719H472.055V196.781ZM480.305 200.055C479.763 200.055 479.31 200.242 478.945 200.617C478.586 200.987 478.385 201.464 478.344 202.047H482.211C482.19 201.458 482.005 200.979 481.656 200.609C481.307 200.24 480.857 200.055 480.305 200.055ZM482.219 204.523H484.039C483.914 205.31 483.516 205.948 482.844 206.438C482.172 206.922 481.349 207.164 480.375 207.164C479.135 207.164 478.161 206.784 477.453 206.023C476.745 205.258 476.391 204.214 476.391 202.891C476.391 201.578 476.742 200.526 477.445 199.734C478.154 198.943 479.104 198.547 480.297 198.547C481.469 198.547 482.398 198.924 483.086 199.68C483.773 200.43 484.117 201.435 484.117 202.695V203.328H478.328V203.445C478.328 204.112 478.516 204.648 478.891 205.055C479.271 205.461 479.779 205.664 480.414 205.664C480.862 205.664 481.247 205.562 481.57 205.359C481.898 205.151 482.115 204.872 482.219 204.523ZM489.031 205.461C489.656 205.461 490.154 205.227 490.523 204.758C490.893 204.284 491.078 203.643 491.078 202.836C491.078 202.029 490.891 201.385 490.516 200.906C490.146 200.422 489.651 200.18 489.031 200.18C488.417 200.18 487.927 200.419 487.562 200.898C487.203 201.378 487.023 202.023 487.023 202.836C487.023 203.654 487.203 204.297 487.562 204.766C487.927 205.229 488.417 205.461 489.031 205.461ZM489.023 210.125C488.008 210.125 487.159 209.891 486.477 209.422C485.799 208.958 485.411 208.359 485.312 207.625H487.242C487.346 207.943 487.565 208.198 487.898 208.391C488.232 208.589 488.628 208.688 489.086 208.688C489.711 208.688 490.198 208.526 490.547 208.203C490.901 207.885 491.078 207.458 491.078 206.922V205.523H491.031C490.812 205.977 490.471 206.339 490.008 206.609C489.549 206.875 489.026 207.008 488.438 207.008C487.406 207.008 486.581 206.633 485.961 205.883C485.341 205.128 485.031 204.109 485.031 202.828C485.031 201.521 485.341 200.487 485.961 199.727C486.581 198.961 487.419 198.578 488.477 198.578C489.06 198.578 489.581 198.719 490.039 199C490.497 199.276 490.846 199.656 491.086 200.141H491.117V198.719H493.023V206.867C493.023 207.857 492.659 208.646 491.93 209.234C491.201 209.828 490.232 210.125 489.023 210.125ZM501.195 206.016C500.471 206.781 499.497 207.164 498.273 207.164C497.049 207.164 496.076 206.781 495.352 206.016C494.628 205.245 494.266 204.193 494.266 202.859C494.266 201.531 494.63 200.482 495.359 199.711C496.089 198.935 497.06 198.547 498.273 198.547C499.492 198.547 500.464 198.935 501.188 199.711C501.917 200.482 502.281 201.531 502.281 202.859C502.281 204.193 501.919 205.245 501.195 206.016ZM496.789 204.898C497.154 205.383 497.648 205.625 498.273 205.625C498.898 205.625 499.393 205.383 499.758 204.898C500.122 204.414 500.305 203.734 500.305 202.859C500.305 201.99 500.122 201.312 499.758 200.828C499.393 200.339 498.898 200.094 498.273 200.094C497.654 200.094 497.159 200.339 496.789 200.828C496.424 201.312 496.242 201.99 496.242 202.859C496.242 203.734 496.424 204.414 496.789 204.898ZM503.531 207V198.719H505.398V200.164H505.438C505.578 199.659 505.82 199.268 506.164 198.992C506.513 198.716 506.932 198.578 507.422 198.578C507.594 198.578 507.797 198.604 508.031 198.656V200.414C507.839 200.341 507.576 200.305 507.242 200.305C506.69 200.305 506.258 200.471 505.945 200.805C505.633 201.138 505.477 201.596 505.477 202.18V207H503.531ZM509.953 210.078C509.531 210.078 509.276 210.068 509.188 210.047V208.508C509.276 208.529 509.464 208.539 509.75 208.539C510.151 208.539 510.464 208.456 510.688 208.289C510.911 208.122 511.078 207.849 511.188 207.469C511.188 207.464 511.206 207.388 511.242 207.242C511.284 207.096 511.302 207.018 511.297 207.008L508.352 198.719H510.477L512.43 205.344H512.461L514.414 198.719H516.461L513.469 207.328C513.115 208.354 512.677 209.068 512.156 209.469C511.635 209.875 510.901 210.078 509.953 210.078Z" fill="#464255"/>
<path d="M663.359 207L662.398 204.086H658.25L657.289 207H655.211L659.211 195.727H661.484L665.484 207H663.359ZM660.297 197.719L658.719 202.531H661.922L660.352 197.719H660.297ZM673.531 201.672H671.695C671.612 201.208 671.414 200.836 671.102 200.555C670.789 200.268 670.383 200.125 669.883 200.125C669.268 200.125 668.779 200.37 668.414 200.859C668.049 201.344 667.867 202.01 667.867 202.859C667.867 203.719 668.049 204.391 668.414 204.875C668.779 205.354 669.273 205.594 669.898 205.594C670.388 205.594 670.789 205.464 671.102 205.203C671.414 204.938 671.615 204.568 671.703 204.094H673.539C673.461 205.021 673.089 205.766 672.422 206.328C671.76 206.885 670.911 207.164 669.875 207.164C668.656 207.164 667.688 206.781 666.969 206.016C666.25 205.245 665.891 204.193 665.891 202.859C665.891 201.542 666.25 200.495 666.969 199.719C667.688 198.938 668.651 198.547 669.859 198.547C670.922 198.547 671.781 198.844 672.438 199.438C673.099 200.026 673.464 200.771 673.531 201.672ZM675.242 196.781H677.188V198.719H678.75V200.219H677.188V204.523C677.188 204.862 677.268 205.112 677.43 205.273C677.591 205.435 677.844 205.516 678.188 205.516C678.417 205.516 678.602 205.503 678.742 205.477V206.961C678.508 207.013 678.172 207.039 677.734 207.039C676.839 207.039 676.198 206.867 675.812 206.523C675.432 206.18 675.242 205.604 675.242 204.797V200.219H674.055V198.719H675.242V196.781ZM680.125 207V198.719H682.07V207H680.125ZM681.859 197.328C681.651 197.531 681.396 197.633 681.094 197.633C680.792 197.633 680.536 197.531 680.328 197.328C680.12 197.12 680.016 196.87 680.016 196.578C680.016 196.281 680.12 196.031 680.328 195.828C680.536 195.62 680.792 195.516 681.094 195.516C681.396 195.516 681.651 195.62 681.859 195.828C682.073 196.031 682.18 196.281 682.18 196.578C682.18 196.87 682.073 197.12 681.859 197.328ZM690.289 206.016C689.565 206.781 688.591 207.164 687.367 207.164C686.143 207.164 685.169 206.781 684.445 206.016C683.721 205.245 683.359 204.193 683.359 202.859C683.359 201.531 683.724 200.482 684.453 199.711C685.182 198.935 686.154 198.547 687.367 198.547C688.586 198.547 689.557 198.935 690.281 199.711C691.01 200.482 691.375 201.531 691.375 202.859C691.375 204.193 691.013 205.245 690.289 206.016ZM685.883 204.898C686.247 205.383 686.742 205.625 687.367 205.625C687.992 205.625 688.487 205.383 688.852 204.898C689.216 204.414 689.398 203.734 689.398 202.859C689.398 201.99 689.216 201.312 688.852 200.828C688.487 200.339 687.992 200.094 687.367 200.094C686.747 200.094 686.253 200.339 685.883 200.828C685.518 201.312 685.336 201.99 685.336 202.859C685.336 203.734 685.518 204.414 685.883 204.898ZM692.625 207V198.719H694.492V200.141H694.531C694.76 199.641 695.094 199.253 695.531 198.977C695.974 198.701 696.508 198.562 697.133 198.562C698.039 198.562 698.742 198.836 699.242 199.383C699.747 199.93 700 200.685 700 201.648V207H698.055V202.039C698.055 201.445 697.914 200.992 697.633 200.68C697.357 200.367 696.945 200.211 696.398 200.211C695.841 200.211 695.396 200.393 695.062 200.758C694.734 201.122 694.57 201.604 694.57 202.203V207H692.625Z" fill="#464255"/>
<rect x="786" y="100.152" width="19" height="3" rx="1.5" transform="rotate(-45 786 100.152)" fill="black"/>
<rect x="788.121" y="86.7188" width="19" height="3" rx="1.5" transform="rotate(45 788.121 86.7188)" fill="black"/>
<path fill-rule="evenodd" clip-rule="evenodd" d="M685 438C684.448 438 684 438.448 684 439V441H682C681.448 441 681 441.448 681 442C681 442.552 681.448 443 682 443H684V445C684 445.552 684.448 446 685 446C685.552 446 686 445.552 686 445V443H688C688.552 443 689 442.552 689 442C689 441.448 688.552 441 688 441H686V439C686 438.448 685.552 438 685 438Z" fill="white"/>
<path d="M123.948 111.862H131.873C133.924 111.862 135.594 112.507 136.883 113.796C138.182 115.085 138.831 116.755 138.831 118.806C138.831 120.866 138.172 122.546 136.854 123.845C135.545 125.134 133.851 125.778 131.771 125.778H127.229V133H123.948V111.862ZM127.229 114.631V123.024H130.994C132.42 123.024 133.523 122.658 134.305 121.926C135.086 121.193 135.477 120.158 135.477 118.82C135.477 117.492 135.086 116.462 134.305 115.729C133.533 114.997 132.435 114.631 131.009 114.631H127.229ZM141.321 133V117.59H144.339V120.212H144.412C144.666 119.313 145.12 118.61 145.774 118.103C146.429 117.595 147.21 117.341 148.118 117.341C148.421 117.341 148.782 117.38 149.202 117.458V120.402C148.919 120.285 148.445 120.227 147.781 120.227C146.766 120.227 145.96 120.544 145.364 121.179C144.778 121.813 144.485 122.678 144.485 123.771V133H141.321ZM162.43 131.154C161.102 132.58 159.329 133.293 157.112 133.293C154.896 133.293 153.123 132.58 151.795 131.154C150.467 129.719 149.803 127.766 149.803 125.295C149.803 122.834 150.467 120.891 151.795 119.465C153.123 118.029 154.896 117.312 157.112 117.312C159.329 117.312 161.102 118.029 162.43 119.465C163.758 120.891 164.422 122.834 164.422 125.295C164.422 127.766 163.758 129.719 162.43 131.154ZM157.112 130.686C158.372 130.686 159.368 130.212 160.101 129.265C160.833 128.317 161.199 126.994 161.199 125.295C161.199 123.605 160.828 122.287 160.086 121.34C159.354 120.393 158.362 119.919 157.112 119.919C155.862 119.919 154.866 120.393 154.124 121.34C153.392 122.287 153.025 123.605 153.025 125.295C153.025 126.994 153.392 128.317 154.124 129.265C154.866 130.212 155.862 130.686 157.112 130.686ZM172.654 133.264C170.701 133.264 169.134 132.541 167.952 131.096C166.771 129.65 166.18 127.717 166.18 125.295C166.18 122.873 166.766 120.944 167.938 119.509C169.119 118.063 170.682 117.341 172.625 117.341C173.709 117.341 174.676 117.595 175.525 118.103C176.375 118.601 177.02 119.284 177.459 120.153H177.518V111.862H180.696V133H177.62V130.378H177.562C177.103 131.276 176.443 131.984 175.584 132.502C174.734 133.01 173.758 133.264 172.654 133.264ZM173.489 120.007C172.239 120.007 171.248 120.485 170.516 121.442C169.783 122.39 169.417 123.674 169.417 125.295C169.417 126.926 169.783 128.215 170.516 129.162C171.248 130.109 172.239 130.583 173.489 130.583C174.71 130.583 175.691 130.104 176.434 129.147C177.176 128.181 177.547 126.896 177.547 125.295C177.547 123.703 177.176 122.424 176.434 121.457C175.691 120.49 174.71 120.007 173.489 120.007ZM197.161 117.59V133H194.129V130.393H194.056C193.167 132.316 191.575 133.278 189.28 133.278C187.601 133.278 186.277 132.771 185.311 131.755C184.354 130.729 183.875 129.333 183.875 127.565V117.59H187.039V126.95C187.039 128.132 187.317 129.03 187.874 129.646C188.431 130.251 189.251 130.554 190.335 130.554C191.468 130.554 192.361 130.192 193.016 129.47C193.67 128.747 193.997 127.78 193.997 126.569V117.59H197.161ZM213.523 122.893H210.506C210.34 122.023 209.939 121.315 209.305 120.769C208.68 120.222 207.874 119.948 206.888 119.948C205.657 119.948 204.671 120.432 203.929 121.398C203.196 122.355 202.83 123.654 202.83 125.295C202.83 126.965 203.196 128.273 203.929 129.221C204.671 130.168 205.667 130.642 206.917 130.642C207.884 130.642 208.675 130.393 209.29 129.895C209.915 129.387 210.32 128.684 210.506 127.785H213.553C213.387 129.436 212.693 130.769 211.473 131.784C210.262 132.79 208.733 133.293 206.888 133.293C204.671 133.293 202.903 132.58 201.585 131.154C200.267 129.719 199.607 127.766 199.607 125.295C199.607 122.854 200.267 120.915 201.585 119.479C202.903 118.034 204.661 117.312 206.858 117.312C208.772 117.312 210.325 117.849 211.517 118.923C212.708 119.987 213.377 121.311 213.523 122.893ZM216.717 113.942H219.896V117.59H222.825V120.095H219.896V128.591C219.896 129.255 220.047 129.743 220.35 130.056C220.652 130.368 221.126 130.524 221.771 130.524C222.239 130.524 222.586 130.5 222.811 130.451V132.956C222.42 133.054 221.834 133.103 221.053 133.103C219.5 133.103 218.387 132.785 217.713 132.15C217.049 131.506 216.717 130.437 216.717 128.942V120.095H214.476V117.59H216.717V113.942ZM230.97 127.111H234.207C234.324 128.156 234.847 128.996 235.774 129.631C236.702 130.266 237.864 130.583 239.261 130.583C240.589 130.583 241.683 130.275 242.542 129.66C243.411 129.045 243.846 128.264 243.846 127.316C243.846 126.496 243.538 125.827 242.923 125.31C242.308 124.782 241.316 124.353 239.949 124.021L237.21 123.361C235.267 122.893 233.831 122.194 232.903 121.267C231.985 120.339 231.526 119.138 231.526 117.663C231.526 115.847 232.239 114.367 233.665 113.225C235.101 112.082 236.951 111.511 239.217 111.511C241.443 111.511 243.26 112.082 244.666 113.225C246.072 114.357 246.8 115.837 246.849 117.663H243.655C243.558 116.618 243.104 115.793 242.293 115.188C241.492 114.582 240.452 114.279 239.173 114.279C237.903 114.279 236.868 114.572 236.067 115.158C235.276 115.744 234.881 116.506 234.881 117.443C234.881 118.186 235.179 118.796 235.774 119.274C236.37 119.743 237.352 120.148 238.719 120.49L241.048 121.062C243.216 121.569 244.778 122.287 245.735 123.215C246.702 124.133 247.186 125.368 247.186 126.921C247.186 128.894 246.453 130.461 244.988 131.623C243.523 132.775 241.536 133.352 239.026 133.352C236.673 133.352 234.764 132.79 233.299 131.667C231.844 130.534 231.067 129.016 230.97 127.111ZM262.962 117.59V133H259.93V130.393H259.856C258.968 132.316 257.376 133.278 255.081 133.278C253.401 133.278 252.078 132.771 251.111 131.755C250.154 130.729 249.676 129.333 249.676 127.565V117.59H252.84V126.95C252.84 128.132 253.118 129.03 253.675 129.646C254.231 130.251 255.052 130.554 256.136 130.554C257.269 130.554 258.162 130.192 258.816 129.47C259.471 128.747 259.798 127.78 259.798 126.569V117.59H262.962ZM274.3 133.264C273.187 133.264 272.205 133.01 271.355 132.502C270.506 131.994 269.837 131.286 269.349 130.378H269.29V133H266.214V111.862H269.378V120.212H269.451C269.92 119.313 270.574 118.61 271.414 118.103C272.264 117.595 273.23 117.341 274.314 117.341C276.258 117.341 277.811 118.059 278.973 119.494C280.145 120.93 280.73 122.863 280.73 125.295C280.73 127.736 280.149 129.675 278.987 131.11C277.825 132.546 276.263 133.264 274.3 133.264ZM273.45 120.007C272.239 120.007 271.253 120.495 270.491 121.472C269.739 122.438 269.363 123.713 269.363 125.295C269.363 126.887 269.739 128.166 270.491 129.133C271.253 130.1 272.239 130.583 273.45 130.583C274.69 130.583 275.672 130.109 276.395 129.162C277.117 128.215 277.479 126.926 277.479 125.295C277.479 123.674 277.117 122.39 276.395 121.442C275.672 120.485 274.69 120.007 273.45 120.007ZM298.602 133.352C295.633 133.352 293.274 132.37 291.526 130.407C289.788 128.444 288.919 125.783 288.919 122.424C288.919 119.084 289.793 116.433 291.541 114.47C293.289 112.497 295.643 111.511 298.602 111.511C301.004 111.511 303.03 112.189 304.681 113.547C306.331 114.895 307.293 116.667 307.566 118.864H304.314C304.021 117.507 303.353 116.423 302.308 115.612C301.272 114.792 300.037 114.382 298.602 114.382C296.678 114.382 295.14 115.114 293.987 116.579C292.845 118.034 292.273 119.982 292.273 122.424C292.273 124.895 292.845 126.857 293.987 128.312C295.13 129.758 296.673 130.48 298.616 130.48C300.081 130.48 301.312 130.124 302.308 129.411C303.313 128.698 303.982 127.702 304.314 126.423H307.581C307.181 128.61 306.189 130.314 304.607 131.535C303.035 132.746 301.033 133.352 298.602 133.352ZM315.55 130.759C316.663 130.759 317.596 130.422 318.348 129.748C319.109 129.064 319.49 128.225 319.49 127.229V126.013L315.696 126.247C314.749 126.315 314.017 126.55 313.499 126.95C312.991 127.341 312.737 127.868 312.737 128.532C312.737 129.206 312.991 129.748 313.499 130.158C314.017 130.559 314.7 130.759 315.55 130.759ZM314.671 133.264C313.157 133.264 311.922 132.834 310.965 131.975C310.018 131.115 309.544 129.997 309.544 128.62C309.544 127.272 310.042 126.203 311.038 125.412C312.034 124.611 313.445 124.162 315.271 124.064L319.49 123.815V122.629C319.49 121.77 319.217 121.101 318.67 120.622C318.123 120.134 317.366 119.89 316.399 119.89C315.501 119.89 314.769 120.09 314.202 120.49C313.646 120.891 313.294 121.442 313.147 122.146H310.159C310.247 120.72 310.862 119.558 312.005 118.659C313.147 117.761 314.651 117.312 316.517 117.312C318.382 117.312 319.866 117.771 320.97 118.688C322.083 119.606 322.64 120.837 322.64 122.38V133H319.607V130.466H319.534C319.095 131.315 318.426 131.994 317.527 132.502C316.639 133.01 315.687 133.264 314.671 133.264ZM326.639 113.942H329.817V117.59H332.747V120.095H329.817V128.591C329.817 129.255 329.969 129.743 330.271 130.056C330.574 130.368 331.048 130.524 331.692 130.524C332.161 130.524 332.508 130.5 332.732 130.451V132.956C332.342 133.054 331.756 133.103 330.975 133.103C329.422 133.103 328.309 132.785 327.635 132.15C326.971 131.506 326.639 130.437 326.639 128.942V120.095H324.397V117.59H326.639V113.942ZM344.1 120.974C343.406 120.231 342.513 119.86 341.419 119.86C340.325 119.86 339.417 120.236 338.694 120.988C337.972 121.73 337.571 122.692 337.493 123.874H345.198C345.159 122.683 344.793 121.716 344.1 120.974ZM345.184 128.474H348.187C347.962 129.89 347.239 131.047 346.019 131.945C344.798 132.844 343.309 133.293 341.551 133.293C339.295 133.293 337.518 132.585 336.219 131.169C334.93 129.743 334.285 127.81 334.285 125.368C334.285 122.946 334.93 120.998 336.219 119.523C337.518 118.049 339.251 117.312 341.419 117.312C343.548 117.312 345.237 118.01 346.487 119.406C347.737 120.793 348.362 122.658 348.362 125.002V126.086H337.479V126.276C337.479 127.624 337.854 128.703 338.606 129.514C339.358 130.324 340.364 130.729 341.624 130.729C342.513 130.729 343.274 130.524 343.909 130.114C344.544 129.704 344.969 129.157 345.184 128.474ZM357.386 130.437C358.626 130.437 359.617 129.968 360.359 129.03C361.111 128.093 361.487 126.833 361.487 125.251C361.487 123.669 361.111 122.399 360.359 121.442C359.617 120.485 358.626 120.007 357.386 120.007C356.165 120.007 355.188 120.48 354.456 121.428C353.733 122.375 353.372 123.649 353.372 125.251C353.372 126.853 353.733 128.117 354.456 129.045C355.188 129.973 356.165 130.437 357.386 130.437ZM357.415 138.801C355.618 138.801 354.095 138.371 352.845 137.512C351.604 136.652 350.887 135.549 350.691 134.201H353.87C354.095 134.846 354.534 135.363 355.188 135.754C355.853 136.145 356.634 136.34 357.532 136.34C358.753 136.34 359.715 136.018 360.418 135.373C361.121 134.738 361.473 133.889 361.473 132.824V130.29H361.414C360.975 131.14 360.32 131.813 359.451 132.312C358.592 132.81 357.62 133.059 356.536 133.059C354.593 133.059 353.04 132.355 351.878 130.949C350.716 129.533 350.135 127.629 350.135 125.236C350.135 122.814 350.716 120.896 351.878 119.479C353.05 118.054 354.627 117.341 356.609 117.341C357.693 117.341 358.665 117.6 359.524 118.117C360.384 118.625 361.048 119.328 361.517 120.227H361.575V117.59H364.651V132.722C364.651 134.558 363.992 136.027 362.674 137.131C361.365 138.244 359.612 138.801 357.415 138.801ZM379.725 131.154C378.396 132.58 376.624 133.293 374.407 133.293C372.19 133.293 370.418 132.58 369.09 131.154C367.762 129.719 367.098 127.766 367.098 125.295C367.098 122.834 367.762 120.891 369.09 119.465C370.418 118.029 372.19 117.312 374.407 117.312C376.624 117.312 378.396 118.029 379.725 119.465C381.053 120.891 381.717 122.834 381.717 125.295C381.717 127.766 381.053 129.719 379.725 131.154ZM374.407 130.686C375.667 130.686 376.663 130.212 377.396 129.265C378.128 128.317 378.494 126.994 378.494 125.295C378.494 123.605 378.123 122.287 377.381 121.34C376.648 120.393 375.657 119.919 374.407 119.919C373.157 119.919 372.161 120.393 371.419 121.34C370.687 122.287 370.32 123.605 370.32 125.295C370.32 126.994 370.687 128.317 371.419 129.265C372.161 130.212 373.157 130.686 374.407 130.686ZM384.163 133V117.59H387.181V120.212H387.254C387.508 119.313 387.962 118.61 388.616 118.103C389.271 117.595 390.052 117.341 390.96 117.341C391.263 117.341 391.624 117.38 392.044 117.458V120.402C391.761 120.285 391.287 120.227 390.623 120.227C389.607 120.227 388.802 120.544 388.206 121.179C387.62 121.813 387.327 122.678 387.327 123.771V133H384.163ZM395.53 138.742C394.935 138.742 394.505 138.718 394.241 138.669V136.105C394.397 136.145 394.739 136.164 395.267 136.164C396.009 136.164 396.59 135.993 397.01 135.651C397.43 135.319 397.762 134.758 398.006 133.967C398.006 133.957 398.055 133.796 398.152 133.483L398.284 133.015L392.718 117.59H396.146L400.057 130.129H400.101L404.012 117.59H407.352L401.565 133.806C400.911 135.671 400.145 136.96 399.266 137.673C398.387 138.386 397.142 138.742 395.53 138.742Z" fill="#464255"/>
</g>
<defs>
<filter id="filter0_d" x="0" y="0" width="901" height="724" filterUnits="userSpaceOnUse" color-interpolation-filters="sRGB">
<feFlood flood-opacity="0" result="BackgroundImageFix"/>
<feColorMatrix in="SourceAlpha" type="matrix" values="0 0 0 0 0 0 0 0 0 0 0 0 0 0 0 0 0 0 127 0" result="hardAlpha"/>
<feOffset dy="16"/>
<feGaussianBlur stdDeviation="39"/>
<feComposite in2="hardAlpha" operator="out"/>
<feColorMatrix type="matrix" values="0 0 0 0 0 0 0 0 0 0 0 0 0 0 0 0 0 0 0.15 0"/>
<feBlend mode="normal" in2="BackgroundImageFix" result="effect1_dropShadow"/>
<feBlend mode="normal" in="SourceGraphic" in2="effect1_dropShadow" result="shape"/>
</filter>
</defs>
</svg>
