<svg width="1022" height="715" viewBox="0 0 1022 715" fill="none" xmlns="http://www.w3.org/2000/svg">
<g filter="url(#filter0_d)">
<path d="M78 80C78 70.0589 86.0589 62 96 62H944V621H96C86.0589 621 78 612.941 78 603V80Z" fill="white"/>
<rect x="116" y="548" width="140" height="38" rx="6" fill="#3546AB"/>
<path d="M169.531 569.828H171.484C171.547 570.344 171.812 570.76 172.281 571.078C172.75 571.391 173.331 571.547 174.023 571.547C174.701 571.547 175.253 571.396 175.68 571.094C176.112 570.792 176.328 570.406 176.328 569.938C176.328 569.531 176.172 569.203 175.859 568.953C175.547 568.698 175.036 568.487 174.328 568.32L172.867 567.977C171.831 567.737 171.06 567.365 170.555 566.859C170.055 566.354 169.805 565.698 169.805 564.891C169.805 563.896 170.195 563.089 170.977 562.469C171.758 561.849 172.766 561.539 174 561.539C175.24 561.539 176.237 561.846 176.992 562.461C177.753 563.07 178.146 563.872 178.172 564.867H176.25C176.203 564.341 175.977 563.93 175.57 563.633C175.164 563.331 174.635 563.18 173.984 563.18C173.349 563.18 172.833 563.323 172.438 563.609C172.047 563.896 171.852 564.273 171.852 564.742C171.852 565.117 172.003 565.422 172.305 565.656C172.612 565.891 173.112 566.091 173.805 566.258L175.102 566.555C176.242 566.815 177.07 567.195 177.586 567.695C178.102 568.195 178.359 568.865 178.359 569.703C178.359 570.771 177.958 571.62 177.156 572.25C176.359 572.875 175.279 573.188 173.914 573.188C172.612 573.188 171.565 572.888 170.773 572.289C169.987 571.685 169.573 570.865 169.531 569.828ZM182.311 571.664C182.868 571.664 183.337 571.5 183.717 571.172C184.103 570.839 184.295 570.424 184.295 569.93V569.297L182.381 569.414C181.913 569.445 181.548 569.562 181.288 569.766C181.032 569.964 180.905 570.227 180.905 570.555C180.905 570.893 181.032 571.164 181.288 571.367C181.548 571.565 181.889 571.664 182.311 571.664ZM181.725 573.133C180.918 573.133 180.254 572.901 179.733 572.438C179.217 571.974 178.959 571.372 178.959 570.633C178.959 569.898 179.23 569.318 179.772 568.891C180.319 568.464 181.097 568.219 182.108 568.156L184.295 568.031V567.438C184.295 567.005 184.157 566.669 183.881 566.43C183.61 566.19 183.233 566.07 182.748 566.07C182.295 566.07 181.926 566.172 181.639 566.375C181.353 566.578 181.178 566.854 181.116 567.203H179.311C179.353 566.417 179.689 565.779 180.319 565.289C180.954 564.794 181.79 564.547 182.827 564.547C183.853 564.547 184.673 564.797 185.288 565.297C185.907 565.797 186.217 566.464 186.217 567.297V573H184.342V571.68H184.303C184.069 572.122 183.715 572.477 183.241 572.742C182.767 573.003 182.261 573.133 181.725 573.133ZM194.645 564.719L191.731 573H189.591L186.653 564.719H188.731L190.653 571.195H190.692L192.614 564.719H194.645ZM198.48 566.055C197.938 566.055 197.485 566.242 197.12 566.617C196.761 566.987 196.56 567.464 196.519 568.047H200.386C200.365 567.458 200.18 566.979 199.831 566.609C199.482 566.24 199.032 566.055 198.48 566.055ZM200.394 570.523H202.214C202.089 571.31 201.691 571.948 201.019 572.438C200.347 572.922 199.524 573.164 198.55 573.164C197.31 573.164 196.336 572.784 195.628 572.023C194.92 571.258 194.566 570.214 194.566 568.891C194.566 567.578 194.917 566.526 195.62 565.734C196.329 564.943 197.279 564.547 198.472 564.547C199.644 564.547 200.573 564.924 201.261 565.68C201.948 566.43 202.292 567.435 202.292 568.695V569.328H196.503V569.445C196.503 570.112 196.691 570.648 197.066 571.055C197.446 571.461 197.954 571.664 198.589 571.664C199.037 571.664 199.422 571.562 199.745 571.359C200.073 571.151 200.29 570.872 200.394 570.523Z" fill="white"/>
<rect x="113.5" y="167.5" width="565" height="59" rx="17.5" fill="white" fill-opacity="0.5" stroke="#3546AB"/>
<path d="M656.007 201C656.151 200.999 656.289 200.937 656.392 200.829L661.847 195.002C661.946 194.892 662.001 194.745 662 194.592C661.999 194.439 661.941 194.293 661.84 194.185C661.739 194.077 661.602 194.016 661.459 194.014C661.316 194.013 661.178 194.072 661.076 194.178L656.007 199.593L650.938 194.178C650.887 194.122 650.827 194.078 650.761 194.047C650.694 194.017 650.623 194.001 650.55 194C650.478 193.999 650.406 194.014 650.339 194.043C650.272 194.073 650.211 194.116 650.16 194.171C650.109 194.225 650.068 194.29 650.041 194.362C650.013 194.434 649.999 194.51 650 194.588C650.001 194.665 650.016 194.742 650.044 194.813C650.073 194.884 650.114 194.948 650.167 195.002L655.621 200.829C655.724 200.937 655.862 200.999 656.007 201Z" fill="#464255" stroke="#AAABB5"/>
<path d="M698.5 185C698.5 175.335 706.335 167.5 716 167.5H943.5V226.5H716C706.335 226.5 698.5 218.665 698.5 209V185Z" fill="#F9FBFD" fill-opacity="0.3" stroke="#D7D9E6"/>
<path d="M698.5 302C698.5 292.335 706.335 284.5 716 284.5H943.5V343.5H716C706.335 343.5 698.5 335.665 698.5 326V302Z" fill="#F9FBFD" fill-opacity="0.3" stroke="#D7D9E6"/>
<path d="M113.5 422C113.5 412.335 121.335 404.5 131 404.5H943.5V518.5H131C121.335 518.5 113.5 510.665 113.5 501V422Z" fill="#F9FBFD" fill-opacity="0.3" stroke="#D7D9E6"/>
<path d="M118.018 155.164C116.655 155.164 115.573 154.706 114.771 153.79C113.973 152.869 113.574 151.628 113.574 150.064C113.574 148.515 113.978 147.28 114.784 146.359C115.591 145.434 116.669 144.972 118.018 144.972C119.093 144.972 120.005 145.272 120.752 145.874C121.504 146.471 121.957 147.262 122.112 148.246H120.868C120.709 147.599 120.369 147.082 119.85 146.694C119.33 146.302 118.719 146.106 118.018 146.106C117.056 146.106 116.286 146.466 115.707 147.187C115.128 147.907 114.839 148.866 114.839 150.064C114.839 151.277 115.126 152.241 115.7 152.956C116.274 153.672 117.049 154.029 118.024 154.029C118.749 154.029 119.36 153.863 119.856 153.53C120.353 153.198 120.69 152.73 120.868 152.129H122.112C121.884 153.104 121.417 153.854 120.711 154.378C120.005 154.902 119.107 155.164 118.018 155.164ZM123.445 155V145.136H124.635V149.025H124.662C124.863 148.624 125.154 148.314 125.537 148.096C125.924 147.877 126.385 147.768 126.918 147.768C127.693 147.768 128.303 148.007 128.75 148.485C129.197 148.964 129.42 149.604 129.42 150.406V155H128.23V150.625C128.23 150.051 128.087 149.606 127.8 149.292C127.517 148.978 127.1 148.82 126.549 148.82C125.961 148.82 125.494 149.005 125.147 149.374C124.806 149.743 124.635 150.238 124.635 150.857V155H123.445ZM133.877 155.123C132.883 155.123 132.086 154.793 131.484 154.132C130.883 153.466 130.582 152.571 130.582 151.445C130.582 150.32 130.883 149.426 131.484 148.766C132.086 148.1 132.883 147.768 133.877 147.768C134.866 147.768 135.661 148.1 136.263 148.766C136.864 149.426 137.165 150.32 137.165 151.445C137.165 152.566 136.864 153.46 136.263 154.125C135.661 154.79 134.866 155.123 133.877 155.123ZM132.353 153.38C132.731 153.845 133.239 154.077 133.877 154.077C134.515 154.077 135.021 153.847 135.395 153.387C135.768 152.922 135.955 152.275 135.955 151.445C135.955 150.616 135.768 149.971 135.395 149.511C135.021 149.046 134.515 148.813 133.877 148.813C133.239 148.813 132.731 149.046 132.353 149.511C131.979 149.976 131.792 150.62 131.792 151.445C131.792 152.27 131.979 152.915 132.353 153.38ZM141.314 155.123C140.321 155.123 139.523 154.793 138.922 154.132C138.32 153.466 138.02 152.571 138.02 151.445C138.02 150.32 138.32 149.426 138.922 148.766C139.523 148.1 140.321 147.768 141.314 147.768C142.303 147.768 143.099 148.1 143.7 148.766C144.302 149.426 144.603 150.32 144.603 151.445C144.603 152.566 144.302 153.46 143.7 154.125C143.099 154.79 142.303 155.123 141.314 155.123ZM139.79 153.38C140.168 153.845 140.676 154.077 141.314 154.077C141.952 154.077 142.458 153.847 142.832 153.387C143.206 152.922 143.393 152.275 143.393 151.445C143.393 150.616 143.206 149.971 142.832 149.511C142.458 149.046 141.952 148.813 141.314 148.813C140.676 148.813 140.168 149.046 139.79 149.511C139.416 149.976 139.229 150.62 139.229 151.445C139.229 152.27 139.416 152.915 139.79 153.38ZM145.683 149.853C145.683 149.242 145.929 148.743 146.421 148.355C146.918 147.964 147.556 147.768 148.335 147.768C149.069 147.768 149.679 147.964 150.167 148.355C150.655 148.747 150.912 149.244 150.939 149.846H149.805C149.764 149.499 149.609 149.228 149.34 149.032C149.076 148.836 148.727 148.738 148.294 148.738C147.861 148.738 147.512 148.836 147.248 149.032C146.984 149.224 146.852 149.477 146.852 149.791C146.852 150.274 147.246 150.616 148.034 150.816L149.135 151.083C149.85 151.265 150.354 151.502 150.646 151.794C150.942 152.081 151.09 152.487 151.09 153.011C151.09 153.631 150.826 154.139 150.297 154.535C149.768 154.927 149.089 155.123 148.26 155.123C147.485 155.123 146.845 154.932 146.339 154.549C145.838 154.161 145.555 153.651 145.491 153.018H146.681C146.813 153.774 147.364 154.152 148.335 154.152C148.813 154.152 149.192 154.059 149.47 153.872C149.752 153.681 149.894 153.423 149.894 153.1C149.894 152.844 149.809 152.642 149.641 152.491C149.477 152.341 149.196 152.213 148.8 152.108L147.549 151.787C146.305 151.468 145.683 150.823 145.683 149.853ZM155.178 148.8C154.626 148.8 154.168 148.991 153.804 149.374C153.444 149.752 153.245 150.24 153.209 150.837H157.071C157.058 150.235 156.878 149.745 156.531 149.367C156.185 148.989 155.734 148.8 155.178 148.8ZM157.044 152.963H158.213C158.108 153.592 157.78 154.109 157.229 154.515C156.682 154.92 156.023 155.123 155.253 155.123C154.237 155.123 153.437 154.795 152.854 154.139C152.27 153.482 151.979 152.594 151.979 151.473C151.979 150.361 152.27 149.465 152.854 148.786C153.441 148.107 154.223 147.768 155.198 147.768C156.155 147.768 156.912 148.089 157.468 148.731C158.024 149.374 158.302 150.235 158.302 151.315V151.767H153.202V151.835C153.202 152.519 153.389 153.065 153.763 153.476C154.136 153.886 154.642 154.091 155.28 154.091C155.727 154.091 156.107 153.988 156.422 153.783C156.736 153.578 156.944 153.305 157.044 152.963ZM172.281 155H171.133V147.398H171.085L167.94 154.932H166.901L163.757 147.398H163.709V155H162.561V145.136H163.989L167.394 153.366H167.448L170.853 145.136H172.281V155ZM176.861 148.8C176.31 148.8 175.852 148.991 175.487 149.374C175.127 149.752 174.929 150.24 174.893 150.837H178.755C178.741 150.235 178.561 149.745 178.215 149.367C177.868 148.989 177.417 148.8 176.861 148.8ZM178.728 152.963H179.896C179.792 153.592 179.464 154.109 178.912 154.515C178.365 154.92 177.707 155.123 176.937 155.123C175.92 155.123 175.12 154.795 174.537 154.139C173.954 153.482 173.662 152.594 173.662 151.473C173.662 150.361 173.954 149.465 174.537 148.786C175.125 148.107 175.907 147.768 176.882 147.768C177.839 147.768 178.595 148.089 179.151 148.731C179.707 149.374 179.985 150.235 179.985 151.315V151.767H174.886V151.835C174.886 152.519 175.073 153.065 175.446 153.476C175.82 153.886 176.326 154.091 176.964 154.091C177.41 154.091 177.791 153.988 178.105 153.783C178.42 153.578 178.627 153.305 178.728 152.963ZM181.188 155V147.891H182.31V149.025H182.337C182.51 148.638 182.772 148.333 183.123 148.109C183.474 147.882 183.884 147.768 184.354 147.768C184.837 147.768 185.251 147.886 185.598 148.123C185.944 148.355 186.195 148.688 186.35 149.121H186.377C186.573 148.697 186.867 148.367 187.259 148.13C187.655 147.888 188.104 147.768 188.605 147.768C189.307 147.768 189.868 147.979 190.287 148.403C190.711 148.823 190.923 149.385 190.923 150.092V155H189.733V150.365C189.733 149.878 189.604 149.499 189.344 149.23C189.089 148.957 188.726 148.82 188.257 148.82C187.787 148.82 187.402 148.978 187.102 149.292C186.801 149.602 186.65 149.998 186.65 150.481V155H185.461V150.235C185.461 149.807 185.329 149.465 185.064 149.21C184.8 148.95 184.447 148.82 184.005 148.82C183.535 148.82 183.146 148.984 182.836 149.312C182.531 149.641 182.378 150.051 182.378 150.543V155H181.188ZM195.975 155.123C195.464 155.123 195.008 155.007 194.607 154.774C194.211 154.542 193.896 154.216 193.664 153.797H193.637V155H192.502V145.136H193.691V149.08H193.719C193.942 148.67 194.252 148.349 194.648 148.116C195.049 147.884 195.498 147.768 195.995 147.768C196.893 147.768 197.618 148.103 198.169 148.772C198.72 149.442 198.996 150.333 198.996 151.445C198.996 152.562 198.72 153.455 198.169 154.125C197.618 154.79 196.886 155.123 195.975 155.123ZM195.742 148.813C195.136 148.813 194.642 149.057 194.259 149.545C193.876 150.028 193.685 150.661 193.685 151.445C193.685 152.234 193.876 152.869 194.259 153.353C194.642 153.836 195.136 154.077 195.742 154.077C196.371 154.077 196.868 153.842 197.232 153.373C197.597 152.899 197.779 152.257 197.779 151.445C197.779 150.639 197.597 149.998 197.232 149.524C196.868 149.05 196.371 148.813 195.742 148.813ZM203.057 148.8C202.505 148.8 202.047 148.991 201.683 149.374C201.323 149.752 201.124 150.24 201.088 150.837H204.95C204.937 150.235 204.757 149.745 204.41 149.367C204.064 148.989 203.613 148.8 203.057 148.8ZM204.923 152.963H206.092C205.987 153.592 205.659 154.109 205.107 154.515C204.561 154.92 203.902 155.123 203.132 155.123C202.116 155.123 201.316 154.795 200.732 154.139C200.149 153.482 199.857 152.594 199.857 151.473C199.857 150.361 200.149 149.465 200.732 148.786C201.32 148.107 202.102 147.768 203.077 147.768C204.034 147.768 204.791 148.089 205.347 148.731C205.903 149.374 206.181 150.235 206.181 151.315V151.767H201.081V151.835C201.081 152.519 201.268 153.065 201.642 153.476C202.015 153.886 202.521 154.091 203.159 154.091C203.606 154.091 203.986 153.988 204.301 153.783C204.615 153.578 204.823 153.305 204.923 152.963ZM207.384 155V147.891H208.505V149.053H208.532C208.651 148.656 208.863 148.344 209.168 148.116C209.478 147.884 209.84 147.768 210.255 147.768C210.351 147.768 210.51 147.784 210.733 147.815V148.971C210.606 148.925 210.394 148.902 210.098 148.902C209.637 148.902 209.268 149.055 208.99 149.36C208.712 149.666 208.573 150.069 208.573 150.57V155H207.384Z" fill="#464255"/>
<path d="M113.485 269.286H114.723C114.782 269.819 115.042 270.248 115.502 270.571C115.967 270.895 116.552 271.057 117.259 271.057C117.924 271.057 118.473 270.899 118.906 270.585C119.344 270.266 119.562 269.865 119.562 269.382C119.562 268.967 119.41 268.625 119.104 268.356C118.804 268.088 118.321 267.867 117.655 267.693L116.391 267.365C115.479 267.133 114.814 266.809 114.395 266.395C113.975 265.975 113.766 265.431 113.766 264.761C113.766 263.94 114.089 263.271 114.736 262.751C115.388 262.231 116.227 261.972 117.252 261.972C118.232 261.972 119.043 262.236 119.686 262.765C120.328 263.289 120.663 263.963 120.69 264.788H119.46C119.405 264.259 119.177 263.842 118.776 263.537C118.375 263.232 117.854 263.079 117.211 263.079C116.573 263.079 116.051 263.229 115.646 263.53C115.244 263.831 115.044 264.223 115.044 264.706C115.044 265.08 115.19 265.387 115.481 265.629C115.778 265.866 116.261 266.071 116.931 266.244L117.963 266.518C118.984 266.773 119.717 267.112 120.164 267.536C120.611 267.96 120.834 268.525 120.834 269.231C120.834 270.134 120.501 270.849 119.836 271.378C119.175 271.902 118.277 272.164 117.143 272.164C116.094 272.164 115.238 271.902 114.572 271.378C113.907 270.854 113.545 270.157 113.485 269.286ZM124.936 265.8C124.384 265.8 123.926 265.991 123.562 266.374C123.201 266.752 123.003 267.24 122.967 267.837H126.829C126.815 267.235 126.635 266.745 126.289 266.367C125.943 265.989 125.492 265.8 124.936 265.8ZM126.802 269.963H127.971C127.866 270.592 127.538 271.109 126.986 271.515C126.439 271.92 125.781 272.123 125.011 272.123C123.994 272.123 123.195 271.795 122.611 271.139C122.028 270.482 121.736 269.594 121.736 268.473C121.736 267.361 122.028 266.465 122.611 265.786C123.199 265.107 123.981 264.768 124.956 264.768C125.913 264.768 126.67 265.089 127.226 265.731C127.782 266.374 128.06 267.235 128.06 268.315V268.767H122.96V268.835C122.96 269.519 123.147 270.065 123.521 270.476C123.894 270.886 124.4 271.091 125.038 271.091C125.485 271.091 125.865 270.988 126.18 270.783C126.494 270.578 126.701 270.305 126.802 269.963ZM129.324 272V262.136H130.514V272H129.324ZM134.971 265.8C134.419 265.8 133.961 265.991 133.597 266.374C133.237 266.752 133.038 267.24 133.002 267.837H136.864C136.851 267.235 136.671 266.745 136.324 266.367C135.978 265.989 135.527 265.8 134.971 265.8ZM136.837 269.963H138.006C137.901 270.592 137.573 271.109 137.021 271.515C136.475 271.92 135.816 272.123 135.046 272.123C134.03 272.123 133.23 271.795 132.646 271.139C132.063 270.482 131.771 269.594 131.771 268.473C131.771 267.361 132.063 266.465 132.646 265.786C133.234 265.107 134.016 264.768 134.991 264.768C135.948 264.768 136.705 265.089 137.261 265.731C137.817 266.374 138.095 267.235 138.095 268.315V268.767H132.995V268.835C132.995 269.519 133.182 270.065 133.556 270.476C133.929 270.886 134.435 271.091 135.073 271.091C135.52 271.091 135.9 270.988 136.215 270.783C136.529 270.578 136.737 270.305 136.837 269.963ZM145.204 267.222H144.042C143.951 266.812 143.748 266.474 143.434 266.21C143.124 265.946 142.72 265.813 142.224 265.813C141.604 265.813 141.105 266.053 140.727 266.531C140.348 267.005 140.159 267.643 140.159 268.445C140.159 269.261 140.348 269.904 140.727 270.373C141.109 270.842 141.613 271.077 142.237 271.077C142.716 271.077 143.11 270.959 143.42 270.722C143.734 270.48 143.944 270.143 144.049 269.71H145.218C145.127 270.421 144.805 271.002 144.254 271.453C143.707 271.9 143.033 272.123 142.23 272.123C141.237 272.123 140.442 271.795 139.845 271.139C139.248 270.478 138.949 269.58 138.949 268.445C138.949 267.329 139.248 266.438 139.845 265.772C140.442 265.103 141.232 264.768 142.217 264.768C143.064 264.768 143.753 265.007 144.281 265.485C144.814 265.964 145.122 266.543 145.204 267.222ZM146.694 263.175H147.884V264.891H149.265V265.868H147.884V270.093C147.884 270.416 147.954 270.656 148.096 270.811C148.237 270.961 148.46 271.036 148.766 271.036C148.957 271.036 149.121 271.025 149.258 271.002V272C149.103 272.036 148.852 272.055 148.506 272.055C147.854 272.055 147.389 271.909 147.111 271.617C146.833 271.326 146.694 270.838 146.694 270.154V265.868H145.635V264.891H146.694V263.175ZM153.592 262.136H156.907C158.37 262.136 159.512 262.571 160.332 263.441C161.152 264.307 161.562 265.515 161.562 267.064C161.562 268.618 161.152 269.831 160.332 270.701C159.516 271.567 158.375 272 156.907 272H153.592V262.136ZM154.822 263.243V270.893H156.825C157.942 270.893 158.801 270.564 159.402 269.908C160.004 269.247 160.305 268.304 160.305 267.078C160.305 265.843 160.004 264.895 159.402 264.234C158.805 263.574 157.946 263.243 156.825 263.243H154.822ZM168.747 264.891V272H167.619V270.845H167.592C167.15 271.697 166.398 272.123 165.336 272.123C164.566 272.123 163.962 271.891 163.524 271.426C163.091 270.956 162.875 270.316 162.875 269.505V264.891H164.064V269.293C164.064 270.478 164.611 271.07 165.705 271.07C166.279 271.07 166.73 270.89 167.059 270.53C167.391 270.166 167.558 269.678 167.558 269.067V264.891H168.747ZM170.292 272V264.891H171.413V266.053H171.44C171.559 265.656 171.771 265.344 172.076 265.116C172.386 264.884 172.748 264.768 173.163 264.768C173.259 264.768 173.418 264.784 173.642 264.815V265.971C173.514 265.925 173.302 265.902 173.006 265.902C172.546 265.902 172.176 266.055 171.898 266.36C171.62 266.666 171.481 267.069 171.481 267.57V272H170.292ZM176.82 271.111C177.381 271.111 177.85 270.938 178.229 270.592C178.611 270.241 178.803 269.81 178.803 269.3V268.719L176.902 268.835C176.424 268.867 176.052 268.983 175.788 269.184C175.528 269.384 175.398 269.653 175.398 269.99C175.398 270.327 175.528 270.599 175.788 270.804C176.048 271.009 176.392 271.111 176.82 271.111ZM176.554 272.123C175.847 272.123 175.275 271.927 174.838 271.535C174.405 271.143 174.188 270.628 174.188 269.99C174.188 269.38 174.412 268.892 174.858 268.527C175.31 268.163 175.945 267.958 176.766 267.912L178.803 267.796V267.201C178.803 266.768 178.666 266.429 178.393 266.183C178.119 265.937 177.736 265.813 177.244 265.813C176.793 265.813 176.426 265.914 176.144 266.114C175.861 266.31 175.681 266.586 175.604 266.941H174.455C174.496 266.308 174.77 265.788 175.275 265.383C175.786 264.973 176.451 264.768 177.271 264.768C178.105 264.768 178.766 264.977 179.254 265.396C179.746 265.816 179.992 266.379 179.992 267.085V272H178.864V270.776H178.837C178.623 271.182 178.308 271.508 177.894 271.754C177.479 272 177.032 272.123 176.554 272.123ZM181.886 263.175H183.075V264.891H184.456V265.868H183.075V270.093C183.075 270.416 183.146 270.656 183.287 270.811C183.428 270.961 183.652 271.036 183.957 271.036C184.148 271.036 184.312 271.025 184.449 271.002V272C184.294 272.036 184.044 272.055 183.697 272.055C183.046 272.055 182.581 271.909 182.303 271.617C182.025 271.326 181.886 270.838 181.886 270.154V265.868H180.826V264.891H181.886V263.175ZM185.789 272V264.891H186.979V272H185.789ZM186.384 263.694C186.183 263.694 186.01 263.621 185.864 263.476C185.718 263.33 185.646 263.157 185.646 262.956C185.646 262.751 185.718 262.578 185.864 262.437C186.01 262.291 186.183 262.218 186.384 262.218C186.589 262.218 186.764 262.291 186.91 262.437C187.056 262.578 187.129 262.751 187.129 262.956C187.129 263.157 187.056 263.33 186.91 263.476C186.764 263.621 186.589 263.694 186.384 263.694ZM191.531 272.123C190.538 272.123 189.74 271.793 189.139 271.132C188.537 270.466 188.236 269.571 188.236 268.445C188.236 267.32 188.537 266.426 189.139 265.766C189.74 265.1 190.538 264.768 191.531 264.768C192.52 264.768 193.315 265.1 193.917 265.766C194.519 266.426 194.819 267.32 194.819 268.445C194.819 269.566 194.519 270.46 193.917 271.125C193.315 271.79 192.52 272.123 191.531 272.123ZM190.007 270.38C190.385 270.845 190.893 271.077 191.531 271.077C192.169 271.077 192.675 270.847 193.049 270.387C193.423 269.922 193.609 269.275 193.609 268.445C193.609 267.616 193.423 266.971 193.049 266.511C192.675 266.046 192.169 265.813 191.531 265.813C190.893 265.813 190.385 266.046 190.007 266.511C189.633 266.976 189.446 267.62 189.446 268.445C189.446 269.27 189.633 269.915 190.007 270.38ZM196.022 272V264.891H197.144V266.025H197.171C197.376 265.629 197.67 265.321 198.053 265.103C198.436 264.879 198.894 264.768 199.427 264.768C200.201 264.768 200.805 265.002 201.238 265.472C201.671 265.937 201.888 266.575 201.888 267.386V272H200.698V267.598C200.698 267.019 200.562 266.579 200.288 266.278C200.015 265.973 199.607 265.82 199.064 265.82C198.504 265.82 198.055 266.003 197.718 266.367C197.381 266.732 197.212 267.215 197.212 267.816V272H196.022Z" fill="#464255"/>
<path d="M156.485 316.286H157.723C157.782 316.819 158.042 317.248 158.502 317.571C158.967 317.895 159.552 318.057 160.259 318.057C160.924 318.057 161.473 317.899 161.906 317.585C162.344 317.266 162.562 316.865 162.562 316.382C162.562 315.967 162.41 315.625 162.104 315.356C161.804 315.088 161.321 314.867 160.655 314.693L159.391 314.365C158.479 314.133 157.814 313.809 157.395 313.395C156.975 312.975 156.766 312.431 156.766 311.761C156.766 310.94 157.089 310.271 157.736 309.751C158.388 309.231 159.227 308.972 160.252 308.972C161.232 308.972 162.043 309.236 162.686 309.765C163.328 310.289 163.663 310.963 163.69 311.788H162.46C162.405 311.259 162.177 310.842 161.776 310.537C161.375 310.232 160.854 310.079 160.211 310.079C159.573 310.079 159.051 310.229 158.646 310.53C158.244 310.831 158.044 311.223 158.044 311.706C158.044 312.08 158.19 312.387 158.481 312.629C158.778 312.866 159.261 313.071 159.931 313.244L160.963 313.518C161.984 313.773 162.717 314.112 163.164 314.536C163.611 314.96 163.834 315.525 163.834 316.231C163.834 317.134 163.501 317.849 162.836 318.378C162.175 318.902 161.277 319.164 160.143 319.164C159.094 319.164 158.238 318.902 157.572 318.378C156.907 317.854 156.545 317.157 156.485 316.286ZM165.146 319V311.891H166.336V319H165.146ZM165.741 310.694C165.541 310.694 165.368 310.621 165.222 310.476C165.076 310.33 165.003 310.157 165.003 309.956C165.003 309.751 165.076 309.578 165.222 309.437C165.368 309.291 165.541 309.218 165.741 309.218C165.946 309.218 166.122 309.291 166.268 309.437C166.413 309.578 166.486 309.751 166.486 309.956C166.486 310.157 166.413 310.33 166.268 310.476C166.122 310.621 165.946 310.694 165.741 310.694ZM167.942 319V311.891H169.063V313.025H169.091C169.296 312.629 169.59 312.321 169.973 312.103C170.355 311.879 170.813 311.768 171.347 311.768C172.121 311.768 172.725 312.002 173.158 312.472C173.591 312.937 173.808 313.575 173.808 314.386V319H172.618V314.598C172.618 314.019 172.481 313.579 172.208 313.278C171.935 312.973 171.527 312.82 170.984 312.82C170.424 312.82 169.975 313.003 169.638 313.367C169.3 313.732 169.132 314.215 169.132 314.816V319H167.942ZM178.217 318.009C178.837 318.009 179.336 317.772 179.714 317.298C180.092 316.824 180.281 316.197 180.281 315.418C180.281 314.634 180.092 314.005 179.714 313.531C179.336 313.053 178.837 312.813 178.217 312.813C177.602 312.813 177.109 313.05 176.74 313.524C176.376 313.994 176.193 314.625 176.193 315.418C176.193 316.211 176.376 316.842 176.74 317.312C177.109 317.776 177.602 318.009 178.217 318.009ZM178.258 321.68C177.479 321.68 176.809 321.481 176.248 321.085C175.688 320.693 175.357 320.194 175.257 319.588H176.48C176.599 319.916 176.822 320.178 177.15 320.374C177.479 320.57 177.864 320.668 178.306 320.668C178.916 320.668 179.397 320.506 179.748 320.183C180.104 319.859 180.281 319.431 180.281 318.897V317.776H180.254C180.031 318.168 179.718 318.48 179.317 318.713C178.916 318.941 178.47 319.055 177.978 319.055C177.071 319.055 176.344 318.724 175.797 318.063C175.25 317.403 174.977 316.521 174.977 315.418C174.977 314.306 175.25 313.42 175.797 312.759C176.348 312.098 177.084 311.768 178.005 311.768C178.506 311.768 178.957 311.884 179.358 312.116C179.759 312.349 180.078 312.672 180.315 313.087H180.336V311.891H181.471V318.856C181.471 319.709 181.179 320.392 180.596 320.907C180.012 321.422 179.233 321.68 178.258 321.68ZM183.084 319V309.136H184.273V319H183.084ZM188.73 312.8C188.179 312.8 187.721 312.991 187.356 313.374C186.996 313.752 186.798 314.24 186.762 314.837H190.624C190.61 314.235 190.43 313.745 190.084 313.367C189.738 312.989 189.286 312.8 188.73 312.8ZM190.597 316.963H191.766C191.661 317.592 191.333 318.109 190.781 318.515C190.234 318.92 189.576 319.123 188.806 319.123C187.789 319.123 186.99 318.795 186.406 318.139C185.823 317.482 185.531 316.594 185.531 315.473C185.531 314.361 185.823 313.465 186.406 312.786C186.994 312.107 187.776 311.768 188.751 311.768C189.708 311.768 190.465 312.089 191.021 312.731C191.576 313.374 191.854 314.235 191.854 315.315V315.767H186.755V315.835C186.755 316.519 186.942 317.065 187.315 317.476C187.689 317.886 188.195 318.091 188.833 318.091C189.28 318.091 189.66 317.988 189.975 317.783C190.289 317.578 190.496 317.305 190.597 316.963Z" fill="#464255"/>
<path d="M293.678 319H292.529V311.398H292.481L289.337 318.932H288.298L285.153 311.398H285.105V319H283.957V309.136H285.386L288.79 317.366H288.845L292.249 309.136H293.678V319ZM301.245 311.891V319H300.117V317.845H300.09C299.648 318.697 298.896 319.123 297.834 319.123C297.064 319.123 296.46 318.891 296.022 318.426C295.59 317.956 295.373 317.316 295.373 316.505V311.891H296.562V316.293C296.562 317.478 297.109 318.07 298.203 318.07C298.777 318.07 299.229 317.89 299.557 317.53C299.889 317.166 300.056 316.678 300.056 316.067V311.891H301.245ZM302.852 319V309.136H304.041V319H302.852ZM306.03 310.175H307.22V311.891H308.601V312.868H307.22V317.093C307.22 317.416 307.29 317.656 307.432 317.811C307.573 317.961 307.796 318.036 308.102 318.036C308.293 318.036 308.457 318.025 308.594 318.002V319C308.439 319.036 308.188 319.055 307.842 319.055C307.19 319.055 306.725 318.909 306.447 318.617C306.169 318.326 306.03 317.838 306.03 317.154V312.868H304.971V311.891H306.03V310.175ZM309.934 319V311.891H311.123V319H309.934ZM310.528 310.694C310.328 310.694 310.155 310.621 310.009 310.476C309.863 310.33 309.79 310.157 309.79 309.956C309.79 309.751 309.863 309.578 310.009 309.437C310.155 309.291 310.328 309.218 310.528 309.218C310.733 309.218 310.909 309.291 311.055 309.437C311.201 309.578 311.273 309.751 311.273 309.956C311.273 310.157 311.201 310.33 311.055 310.476C310.909 310.621 310.733 310.694 310.528 310.694ZM316.182 311.768C317.093 311.768 317.827 312.103 318.383 312.772C318.943 313.442 319.224 314.333 319.224 315.445C319.224 316.553 318.946 317.444 318.39 318.118C317.834 318.788 317.107 319.123 316.209 319.123C315.708 319.123 315.259 319.009 314.862 318.781C314.466 318.553 314.16 318.241 313.946 317.845H313.919V321.372H312.729V311.891H313.857V313.094H313.885C314.108 312.684 314.42 312.36 314.821 312.123C315.222 311.886 315.676 311.768 316.182 311.768ZM315.949 318.077C316.583 318.077 317.084 317.84 317.453 317.366C317.822 316.892 318.007 316.252 318.007 315.445C318.007 314.639 317.822 313.998 317.453 313.524C317.084 313.05 316.583 312.813 315.949 312.813C315.339 312.813 314.846 313.055 314.473 313.538C314.099 314.021 313.912 314.657 313.912 315.445C313.912 316.238 314.099 316.876 314.473 317.359C314.846 317.838 315.339 318.077 315.949 318.077ZM320.488 319V309.136H321.678V319H320.488ZM326.135 312.8C325.583 312.8 325.125 312.991 324.761 313.374C324.401 313.752 324.202 314.24 324.166 314.837H328.028C328.015 314.235 327.835 313.745 327.488 313.367C327.142 312.989 326.691 312.8 326.135 312.8ZM328.001 316.963H329.17C329.065 317.592 328.737 318.109 328.186 318.515C327.639 318.92 326.98 319.123 326.21 319.123C325.194 319.123 324.394 318.795 323.811 318.139C323.227 317.482 322.936 316.594 322.936 315.473C322.936 314.361 323.227 313.465 323.811 312.786C324.398 312.107 325.18 311.768 326.155 311.768C327.112 311.768 327.869 312.089 328.425 312.731C328.981 313.374 329.259 314.235 329.259 315.315V315.767H324.159V315.835C324.159 316.519 324.346 317.065 324.72 317.476C325.093 317.886 325.599 318.091 326.237 318.091C326.684 318.091 327.064 317.988 327.379 317.783C327.693 317.578 327.901 317.305 328.001 316.963Z" fill="#464255"/>
<path d="M437.832 319H436.602V314.509H431.188V319H429.957V309.136H431.188V313.401H436.602V309.136H437.832V319ZM441.701 318.111C442.262 318.111 442.731 317.938 443.109 317.592C443.492 317.241 443.684 316.81 443.684 316.3V315.719L441.783 315.835C441.305 315.867 440.933 315.983 440.669 316.184C440.409 316.384 440.279 316.653 440.279 316.99C440.279 317.327 440.409 317.599 440.669 317.804C440.929 318.009 441.273 318.111 441.701 318.111ZM441.435 319.123C440.728 319.123 440.156 318.927 439.719 318.535C439.286 318.143 439.069 317.628 439.069 316.99C439.069 316.38 439.293 315.892 439.739 315.527C440.19 315.163 440.826 314.958 441.646 314.912L443.684 314.796V314.201C443.684 313.768 443.547 313.429 443.273 313.183C443 312.937 442.617 312.813 442.125 312.813C441.674 312.813 441.307 312.914 441.024 313.114C440.742 313.31 440.562 313.586 440.484 313.941H439.336C439.377 313.308 439.65 312.788 440.156 312.383C440.667 311.973 441.332 311.768 442.152 311.768C442.986 311.768 443.647 311.977 444.135 312.396C444.627 312.816 444.873 313.379 444.873 314.085V319H443.745V317.776H443.718C443.504 318.182 443.189 318.508 442.774 318.754C442.36 319 441.913 319.123 441.435 319.123ZM446.445 319V309.136H447.635V319H446.445ZM449.624 319V312.868H448.633V311.891H449.624V311.098C449.624 310.414 449.784 309.908 450.103 309.58C450.426 309.247 450.916 309.081 451.572 309.081C451.827 309.081 452.069 309.099 452.297 309.136V310.1C452.105 310.072 451.925 310.059 451.757 310.059C451.123 310.059 450.807 310.407 450.807 311.104V311.891H452.263V312.868H450.813V319H449.624ZM456.549 309.136H459.864C461.327 309.136 462.469 309.571 463.289 310.441C464.109 311.307 464.52 312.515 464.52 314.064C464.52 315.618 464.109 316.831 463.289 317.701C462.473 318.567 461.332 319 459.864 319H456.549V309.136ZM457.779 310.243V317.893H459.782C460.899 317.893 461.758 317.564 462.359 316.908C462.961 316.247 463.262 315.304 463.262 314.078C463.262 312.843 462.961 311.895 462.359 311.234C461.762 310.574 460.903 310.243 459.782 310.243H457.779ZM468.211 318.111C468.771 318.111 469.241 317.938 469.619 317.592C470.002 317.241 470.193 316.81 470.193 316.3V315.719L468.293 315.835C467.814 315.867 467.443 315.983 467.179 316.184C466.919 316.384 466.789 316.653 466.789 316.99C466.789 317.327 466.919 317.599 467.179 317.804C467.438 318.009 467.783 318.111 468.211 318.111ZM467.944 319.123C467.238 319.123 466.666 318.927 466.229 318.535C465.796 318.143 465.579 317.628 465.579 316.99C465.579 316.38 465.802 315.892 466.249 315.527C466.7 315.163 467.336 314.958 468.156 314.912L470.193 314.796V314.201C470.193 313.768 470.057 313.429 469.783 313.183C469.51 312.937 469.127 312.813 468.635 312.813C468.184 312.813 467.817 312.914 467.534 313.114C467.252 313.31 467.072 313.586 466.994 313.941H465.846C465.887 313.308 466.16 312.788 466.666 312.383C467.176 311.973 467.842 311.768 468.662 311.768C469.496 311.768 470.157 311.977 470.645 312.396C471.137 312.816 471.383 313.379 471.383 314.085V319H470.255V317.776H470.228C470.013 318.182 469.699 318.508 469.284 318.754C468.869 319 468.423 319.123 467.944 319.123ZM473.481 321.659C473.272 321.659 473.101 321.646 472.969 321.618V320.62C473.078 320.643 473.233 320.654 473.434 320.654C473.766 320.654 474.033 320.565 474.233 320.388C474.434 320.215 474.603 319.921 474.739 319.506L474.903 319.007L472.278 311.891H473.55L475.519 317.811H475.539L477.508 311.891H478.759L475.963 319.499C475.658 320.328 475.327 320.896 474.972 321.201C474.621 321.507 474.124 321.659 473.481 321.659Z" fill="#464255"/>
<path d="M704.945 153.893V155H698.957V145.136H700.188V153.893H704.945ZM708.76 148.8C708.208 148.8 707.75 148.991 707.386 149.374C707.026 149.752 706.827 150.24 706.791 150.837H710.653C710.64 150.235 710.46 149.745 710.113 149.367C709.767 148.989 709.316 148.8 708.76 148.8ZM710.626 152.963H711.795C711.69 153.592 711.362 154.109 710.811 154.515C710.264 154.92 709.605 155.123 708.835 155.123C707.819 155.123 707.019 154.795 706.436 154.139C705.852 153.482 705.561 152.594 705.561 151.473C705.561 150.361 705.852 149.465 706.436 148.786C707.023 148.107 707.805 147.768 708.78 147.768C709.737 147.768 710.494 148.089 711.05 148.731C711.606 149.374 711.884 150.235 711.884 151.315V151.767H706.784V151.835C706.784 152.519 706.971 153.065 707.345 153.476C707.718 153.886 708.224 154.091 708.862 154.091C709.309 154.091 709.689 153.988 710.004 153.783C710.318 153.578 710.526 153.305 710.626 152.963ZM715.432 154.111C715.992 154.111 716.462 153.938 716.84 153.592C717.223 153.241 717.414 152.81 717.414 152.3V151.719L715.514 151.835C715.035 151.867 714.664 151.983 714.399 152.184C714.14 152.384 714.01 152.653 714.01 152.99C714.01 153.327 714.14 153.599 714.399 153.804C714.659 154.009 715.003 154.111 715.432 154.111ZM715.165 155.123C714.459 155.123 713.887 154.927 713.449 154.535C713.016 154.143 712.8 153.628 712.8 152.99C712.8 152.38 713.023 151.892 713.47 151.527C713.921 151.163 714.557 150.958 715.377 150.912L717.414 150.796V150.201C717.414 149.768 717.277 149.429 717.004 149.183C716.73 148.937 716.348 148.813 715.855 148.813C715.404 148.813 715.037 148.914 714.755 149.114C714.472 149.31 714.292 149.586 714.215 149.941H713.066C713.107 149.308 713.381 148.788 713.887 148.383C714.397 147.973 715.062 147.768 715.883 147.768C716.717 147.768 717.378 147.977 717.865 148.396C718.357 148.816 718.604 149.379 718.604 150.085V155H717.476V153.776H717.448C717.234 154.182 716.92 154.508 716.505 154.754C716.09 155 715.644 155.123 715.165 155.123ZM725.945 147.891L723.334 155H722.117L719.499 147.891H720.75L722.712 153.735H722.739L724.708 147.891H725.945ZM729.527 148.8C728.976 148.8 728.518 148.991 728.153 149.374C727.793 149.752 727.595 150.24 727.559 150.837H731.421C731.407 150.235 731.227 149.745 730.881 149.367C730.535 148.989 730.083 148.8 729.527 148.8ZM731.394 152.963H732.562C732.458 153.592 732.13 154.109 731.578 154.515C731.031 154.92 730.373 155.123 729.603 155.123C728.586 155.123 727.786 154.795 727.203 154.139C726.62 153.482 726.328 152.594 726.328 151.473C726.328 150.361 726.62 149.465 727.203 148.786C727.791 148.107 728.573 147.768 729.548 147.768C730.505 147.768 731.261 148.089 731.817 148.731C732.373 149.374 732.651 150.235 732.651 151.315V151.767H727.552V151.835C727.552 152.519 727.739 153.065 728.112 153.476C728.486 153.886 728.992 154.091 729.63 154.091C730.076 154.091 730.457 153.988 730.771 153.783C731.086 153.578 731.293 153.305 731.394 152.963ZM740.636 155H739.405V146.243H736.295V145.136H743.746V146.243H740.636V155ZM743.808 157.659C743.598 157.659 743.427 157.646 743.295 157.618V156.62C743.404 156.643 743.559 156.654 743.76 156.654C744.092 156.654 744.359 156.565 744.56 156.388C744.76 156.215 744.929 155.921 745.065 155.506L745.229 155.007L742.604 147.891H743.876L745.845 153.811H745.865L747.834 147.891H749.085L746.289 155.499C745.984 156.328 745.653 156.896 745.298 157.201C744.947 157.507 744.45 157.659 743.808 157.659ZM753.48 147.768C754.392 147.768 755.126 148.103 755.682 148.772C756.242 149.442 756.522 150.333 756.522 151.445C756.522 152.553 756.244 153.444 755.688 154.118C755.132 154.788 754.406 155.123 753.508 155.123C753.007 155.123 752.558 155.009 752.161 154.781C751.765 154.553 751.459 154.241 751.245 153.845H751.218V157.372H750.028V147.891H751.156V149.094H751.184C751.407 148.684 751.719 148.36 752.12 148.123C752.521 147.886 752.975 147.768 753.48 147.768ZM753.248 154.077C753.882 154.077 754.383 153.84 754.752 153.366C755.121 152.892 755.306 152.252 755.306 151.445C755.306 150.639 755.121 149.998 754.752 149.524C754.383 149.05 753.882 148.813 753.248 148.813C752.637 148.813 752.145 149.055 751.771 149.538C751.398 150.021 751.211 150.657 751.211 151.445C751.211 152.238 751.398 152.876 751.771 153.359C752.145 153.838 752.637 154.077 753.248 154.077ZM760.576 148.8C760.025 148.8 759.567 148.991 759.202 149.374C758.842 149.752 758.644 150.24 758.607 150.837H762.47C762.456 150.235 762.276 149.745 761.93 149.367C761.583 148.989 761.132 148.8 760.576 148.8ZM762.442 152.963H763.611C763.507 153.592 763.178 154.109 762.627 154.515C762.08 154.92 761.422 155.123 760.651 155.123C759.635 155.123 758.835 154.795 758.252 154.139C757.669 153.482 757.377 152.594 757.377 151.473C757.377 150.361 757.669 149.465 758.252 148.786C758.84 148.107 759.621 147.768 760.597 147.768C761.554 147.768 762.31 148.089 762.866 148.731C763.422 149.374 763.7 150.235 763.7 151.315V151.767H758.601V151.835C758.601 152.519 758.787 153.065 759.161 153.476C759.535 153.886 760.041 154.091 760.679 154.091C761.125 154.091 761.506 153.988 761.82 153.783C762.135 153.578 762.342 153.305 762.442 152.963Z" fill="#464255"/>
<rect opacity="0.7" x="776" y="140" width="109" height="20" rx="10" fill="#3546AB"/>
<path d="M788.333 150.583H792.417V154.667C792.417 154.821 792.478 154.97 792.588 155.079C792.697 155.189 792.845 155.25 793 155.25C793.155 155.25 793.303 155.189 793.412 155.079C793.522 154.97 793.583 154.821 793.583 154.667V150.583H797.667C797.821 150.583 797.97 150.522 798.079 150.412C798.189 150.303 798.25 150.155 798.25 150C798.25 149.845 798.189 149.697 798.079 149.588C797.97 149.478 797.821 149.417 797.667 149.417H793.583V145.333C793.583 145.179 793.522 145.03 793.412 144.921C793.303 144.811 793.155 144.75 793 144.75C792.845 144.75 792.697 144.811 792.588 144.921C792.478 145.03 792.417 145.179 792.417 145.333V149.417H788.333C788.179 149.417 788.03 149.478 787.921 149.588C787.811 149.697 787.75 149.845 787.75 150C787.75 150.155 787.811 150.303 787.921 150.412C788.03 150.522 788.179 150.583 788.333 150.583Z" fill="white"/>
<path d="M809.225 153L808.624 151.179H806.031L805.431 153H804.132L806.632 145.954H808.053L810.553 153H809.225ZM807.311 147.199L806.324 150.207H808.326L807.345 147.199H807.311ZM812.955 153.083C812.301 153.083 811.778 152.842 811.388 152.36C811 151.879 810.807 151.228 810.807 150.407C810.807 149.59 811 148.941 811.388 148.459C811.778 147.977 812.301 147.736 812.955 147.736C813.32 147.736 813.642 147.823 813.922 147.995C814.205 148.168 814.417 148.4 814.557 148.693H814.586V145.954H815.802V153H814.61V152.116H814.591C814.448 152.412 814.231 152.648 813.941 152.824C813.655 152.997 813.326 153.083 812.955 153.083ZM813.321 148.737C812.931 148.737 812.621 148.889 812.394 149.191C812.166 149.491 812.052 149.898 812.052 150.412C812.052 150.93 812.164 151.338 812.389 151.638C812.617 151.937 812.927 152.087 813.321 152.087C813.705 152.087 814.013 151.936 814.244 151.633C814.475 151.33 814.591 150.923 814.591 150.412C814.591 149.904 814.475 149.499 814.244 149.196C814.013 148.89 813.705 148.737 813.321 148.737ZM818.756 153.083C818.102 153.083 817.579 152.842 817.188 152.36C816.801 151.879 816.607 151.228 816.607 150.407C816.607 149.59 816.801 148.941 817.188 148.459C817.579 147.977 818.102 147.736 818.756 147.736C819.12 147.736 819.443 147.823 819.723 147.995C820.006 148.168 820.217 148.4 820.357 148.693H820.387V145.954H821.603V153H820.411V152.116H820.392C820.248 152.412 820.032 152.648 819.742 152.824C819.456 152.997 819.127 153.083 818.756 153.083ZM819.122 148.737C818.731 148.737 818.422 148.889 818.194 149.191C817.966 149.491 817.853 149.898 817.853 150.412C817.853 150.93 817.965 151.338 818.189 151.638C818.417 151.937 818.728 152.087 819.122 152.087C819.506 152.087 819.814 151.936 820.045 151.633C820.276 151.33 820.392 150.923 820.392 150.412C820.392 149.904 820.276 149.499 820.045 149.196C819.814 148.89 819.506 148.737 819.122 148.737ZM829.205 151.936V153H824.747V145.954H826.007V151.936H829.205ZM832.12 148.659C831.782 148.659 831.498 148.776 831.271 149.011C831.046 149.242 830.921 149.54 830.895 149.904H833.312C833.299 149.536 833.183 149.237 832.965 149.006C832.747 148.775 832.465 148.659 832.12 148.659ZM833.316 151.452H834.454C834.376 151.944 834.127 152.342 833.707 152.648C833.287 152.951 832.773 153.103 832.164 153.103C831.389 153.103 830.781 152.865 830.338 152.39C829.895 151.911 829.674 151.258 829.674 150.432C829.674 149.611 829.894 148.954 830.333 148.459C830.776 147.964 831.37 147.717 832.115 147.717C832.848 147.717 833.429 147.953 833.858 148.425C834.288 148.894 834.503 149.522 834.503 150.31V150.705H830.885V150.778C830.885 151.195 831.002 151.53 831.236 151.784C831.474 152.038 831.791 152.165 832.188 152.165C832.468 152.165 832.709 152.102 832.911 151.975C833.116 151.844 833.251 151.67 833.316 151.452ZM837.179 152.165C837.527 152.165 837.82 152.062 838.058 151.857C838.299 151.649 838.419 151.39 838.419 151.081V150.686L837.223 150.759C836.93 150.778 836.702 150.852 836.539 150.979C836.38 151.102 836.3 151.267 836.3 151.472C836.3 151.683 836.38 151.853 836.539 151.979C836.702 152.103 836.915 152.165 837.179 152.165ZM836.812 153.083C836.308 153.083 835.893 152.938 835.567 152.648C835.245 152.359 835.084 151.983 835.084 151.521C835.084 151.062 835.253 150.699 835.592 150.432C835.934 150.165 836.42 150.012 837.052 149.973L838.419 149.895V149.523C838.419 149.253 838.333 149.043 838.16 148.894C837.991 148.744 837.755 148.669 837.452 148.669C837.169 148.669 836.938 148.732 836.759 148.859C836.58 148.986 836.471 149.159 836.432 149.377H835.304C835.33 148.885 835.54 148.487 835.934 148.181C836.331 147.871 836.853 147.717 837.501 147.717C838.142 147.717 838.655 147.873 839.039 148.186C839.426 148.498 839.62 148.915 839.62 149.436V153H838.448V152.175H838.424C838.277 152.451 838.056 152.673 837.76 152.839C837.464 153.002 837.148 153.083 836.812 153.083ZM845.138 147.824L843.316 153H841.979L840.143 147.824H841.441L842.643 151.872H842.667L843.868 147.824H845.138ZM847.784 148.659C847.446 148.659 847.162 148.776 846.935 149.011C846.71 149.242 846.585 149.54 846.559 149.904H848.976C848.963 149.536 848.847 149.237 848.629 149.006C848.411 148.775 848.129 148.659 847.784 148.659ZM848.98 151.452H850.118C850.04 151.944 849.791 152.342 849.371 152.648C848.951 152.951 848.437 153.103 847.828 153.103C847.053 153.103 846.445 152.865 846.002 152.39C845.559 151.911 845.338 151.258 845.338 150.432C845.338 149.611 845.558 148.954 845.997 148.459C846.44 147.964 847.034 147.717 847.779 147.717C848.512 147.717 849.093 147.953 849.522 148.425C849.952 148.894 850.167 149.522 850.167 150.31V150.705H846.549V150.778C846.549 151.195 846.666 151.53 846.9 151.784C847.138 152.038 847.455 152.165 847.853 152.165C848.132 152.165 848.373 152.102 848.575 151.975C848.78 151.844 848.915 151.67 848.98 151.452ZM856.056 153H854.801V147.019H852.691V145.954H858.16V147.019H856.056V153ZM858.678 154.924C858.414 154.924 858.255 154.917 858.199 154.904V153.942C858.255 153.955 858.372 153.962 858.551 153.962C858.801 153.962 858.997 153.91 859.137 153.806C859.277 153.701 859.381 153.531 859.449 153.293C859.449 153.29 859.461 153.243 859.483 153.151C859.509 153.06 859.521 153.011 859.518 153.005L857.677 147.824H859.005L860.226 151.965H860.245L861.466 147.824H862.745L860.875 153.205C860.654 153.846 860.38 154.292 860.055 154.543C859.729 154.797 859.27 154.924 858.678 154.924ZM866.168 147.736C866.826 147.736 867.348 147.976 867.735 148.454C868.123 148.933 868.316 149.585 868.316 150.412C868.316 151.236 868.124 151.887 867.74 152.365C867.356 152.844 866.839 153.083 866.188 153.083C865.816 153.083 865.489 153 865.206 152.834C864.923 152.665 864.71 152.434 864.566 152.141H864.542V154.704H863.326V147.824H864.513V148.718H864.537C864.687 148.412 864.903 148.173 865.187 148C865.47 147.824 865.797 147.736 866.168 147.736ZM865.797 152.087C866.191 152.087 866.502 151.937 866.729 151.638C866.957 151.335 867.071 150.926 867.071 150.412C867.071 149.901 866.956 149.494 866.725 149.191C866.497 148.889 866.188 148.737 865.797 148.737C865.419 148.737 865.115 148.89 864.884 149.196C864.653 149.502 864.535 149.908 864.532 150.412C864.535 150.92 864.653 151.327 864.884 151.633C865.115 151.936 865.419 152.087 865.797 152.087ZM871.329 148.659C870.991 148.659 870.707 148.776 870.479 149.011C870.255 149.242 870.13 149.54 870.104 149.904H872.521C872.507 149.536 872.392 149.237 872.174 149.006C871.956 148.775 871.674 148.659 871.329 148.659ZM872.525 151.452H873.663C873.585 151.944 873.336 152.342 872.916 152.648C872.496 152.951 871.982 153.103 871.373 153.103C870.598 153.103 869.99 152.865 869.547 152.39C869.104 151.911 868.883 151.258 868.883 150.432C868.883 149.611 869.103 148.954 869.542 148.459C869.985 147.964 870.579 147.717 871.324 147.717C872.057 147.717 872.638 147.953 873.067 148.425C873.497 148.894 873.712 149.522 873.712 150.31V150.705H870.094V150.778C870.094 151.195 870.211 151.53 870.445 151.784C870.683 152.038 871 152.165 871.397 152.165C871.677 152.165 871.918 152.102 872.12 151.975C872.325 151.844 872.46 151.67 872.525 151.452Z" fill="white"/>
<path d="M692.957 262.136H696.272C697.735 262.136 698.877 262.571 699.697 263.441C700.518 264.307 700.928 265.515 700.928 267.064C700.928 268.618 700.518 269.831 699.697 270.701C698.882 271.567 697.74 272 696.272 272H692.957V262.136ZM694.188 263.243V270.893H696.19C697.307 270.893 698.166 270.564 698.768 269.908C699.369 269.247 699.67 268.304 699.67 267.078C699.67 265.843 699.369 264.895 698.768 264.234C698.171 263.574 697.312 263.243 696.19 263.243H694.188ZM704.619 271.111C705.18 271.111 705.649 270.938 706.027 270.592C706.41 270.241 706.602 269.81 706.602 269.3V268.719L704.701 268.835C704.223 268.867 703.851 268.983 703.587 269.184C703.327 269.384 703.197 269.653 703.197 269.99C703.197 270.327 703.327 270.599 703.587 270.804C703.847 271.009 704.191 271.111 704.619 271.111ZM704.353 272.123C703.646 272.123 703.074 271.927 702.637 271.535C702.204 271.143 701.987 270.628 701.987 269.99C701.987 269.38 702.211 268.892 702.657 268.527C703.108 268.163 703.744 267.958 704.564 267.912L706.602 267.796V267.201C706.602 266.768 706.465 266.429 706.191 266.183C705.918 265.937 705.535 265.813 705.043 265.813C704.592 265.813 704.225 265.914 703.942 266.114C703.66 266.31 703.48 266.586 703.402 266.941H702.254C702.295 266.308 702.568 265.788 703.074 265.383C703.585 264.973 704.25 264.768 705.07 264.768C705.904 264.768 706.565 264.977 707.053 265.396C707.545 265.816 707.791 266.379 707.791 267.085V272H706.663V270.776H706.636C706.422 271.182 706.107 271.508 705.692 271.754C705.278 272 704.831 272.123 704.353 272.123ZM709.685 263.175H710.874V264.891H712.255V265.868H710.874V270.093C710.874 270.416 710.945 270.656 711.086 270.811C711.227 270.961 711.451 271.036 711.756 271.036C711.947 271.036 712.111 271.025 712.248 271.002V272C712.093 272.036 711.842 272.055 711.496 272.055C710.844 272.055 710.38 271.909 710.102 271.617C709.824 271.326 709.685 270.838 709.685 270.154V265.868H708.625V264.891H709.685V263.175ZM716.172 265.8C715.62 265.8 715.162 265.991 714.798 266.374C714.438 266.752 714.24 267.24 714.203 267.837H718.065C718.052 267.235 717.872 266.745 717.525 266.367C717.179 265.989 716.728 265.8 716.172 265.8ZM718.038 269.963H719.207C719.102 270.592 718.774 271.109 718.223 271.515C717.676 271.92 717.017 272.123 716.247 272.123C715.231 272.123 714.431 271.795 713.848 271.139C713.264 270.482 712.973 269.594 712.973 268.473C712.973 267.361 713.264 266.465 713.848 265.786C714.436 265.107 715.217 264.768 716.192 264.768C717.149 264.768 717.906 265.089 718.462 265.731C719.018 266.374 719.296 267.235 719.296 268.315V268.767H714.196V268.835C714.196 269.519 714.383 270.065 714.757 270.476C715.131 270.886 715.636 271.091 716.274 271.091C716.721 271.091 717.102 270.988 717.416 270.783C717.73 270.578 717.938 270.305 718.038 269.963Z" fill="#464255"/>
<path d="M115.188 373.229V377.01H117.546C118.179 377.01 118.667 376.846 119.009 376.518C119.355 376.189 119.528 375.722 119.528 375.116C119.528 374.524 119.348 374.061 118.988 373.729C118.628 373.396 118.129 373.229 117.491 373.229H115.188ZM115.188 378.097V382H113.957V372.136H117.655C118.608 372.136 119.369 372.405 119.938 372.942C120.513 373.476 120.8 374.187 120.8 375.075C120.8 375.763 120.624 376.358 120.273 376.859C119.923 377.361 119.437 377.709 118.817 377.905L121.101 382H119.658L117.546 378.097H115.188ZM125.018 375.8C124.466 375.8 124.008 375.991 123.644 376.374C123.284 376.752 123.085 377.24 123.049 377.837H126.911C126.897 377.235 126.717 376.745 126.371 376.367C126.025 375.989 125.574 375.8 125.018 375.8ZM126.884 379.963H128.053C127.948 380.592 127.62 381.109 127.068 381.515C126.521 381.92 125.863 382.123 125.093 382.123C124.076 382.123 123.277 381.795 122.693 381.139C122.11 380.482 121.818 379.594 121.818 378.473C121.818 377.361 122.11 376.465 122.693 375.786C123.281 375.107 124.063 374.768 125.038 374.768C125.995 374.768 126.752 375.089 127.308 375.731C127.864 376.374 128.142 377.235 128.142 378.315V378.767H123.042V378.835C123.042 379.519 123.229 380.065 123.603 380.476C123.976 380.886 124.482 381.091 125.12 381.091C125.567 381.091 125.947 380.988 126.262 380.783C126.576 380.578 126.784 380.305 126.884 379.963ZM131.689 381.111C132.25 381.111 132.719 380.938 133.098 380.592C133.48 380.241 133.672 379.81 133.672 379.3V378.719L131.771 378.835C131.293 378.867 130.922 378.983 130.657 379.184C130.397 379.384 130.268 379.653 130.268 379.99C130.268 380.327 130.397 380.599 130.657 380.804C130.917 381.009 131.261 381.111 131.689 381.111ZM131.423 382.123C130.716 382.123 130.145 381.927 129.707 381.535C129.274 381.143 129.058 380.628 129.058 379.99C129.058 379.38 129.281 378.892 129.728 378.527C130.179 378.163 130.814 377.958 131.635 377.912L133.672 377.796V377.201C133.672 376.768 133.535 376.429 133.262 376.183C132.988 375.937 132.605 375.813 132.113 375.813C131.662 375.813 131.295 375.914 131.013 376.114C130.73 376.31 130.55 376.586 130.473 376.941H129.324C129.365 376.308 129.639 375.788 130.145 375.383C130.655 374.973 131.32 374.768 132.141 374.768C132.975 374.768 133.635 374.977 134.123 375.396C134.615 375.816 134.861 376.379 134.861 377.085V382H133.733V380.776H133.706C133.492 381.182 133.177 381.508 132.763 381.754C132.348 382 131.901 382.123 131.423 382.123ZM136.249 376.853C136.249 376.242 136.495 375.743 136.987 375.355C137.484 374.964 138.122 374.768 138.901 374.768C139.635 374.768 140.246 374.964 140.733 375.355C141.221 375.747 141.479 376.244 141.506 376.846H140.371C140.33 376.499 140.175 376.228 139.906 376.032C139.642 375.836 139.293 375.738 138.86 375.738C138.427 375.738 138.079 375.836 137.814 376.032C137.55 376.224 137.418 376.477 137.418 376.791C137.418 377.274 137.812 377.616 138.601 377.816L139.701 378.083C140.417 378.265 140.92 378.502 141.212 378.794C141.508 379.081 141.656 379.487 141.656 380.011C141.656 380.631 141.392 381.139 140.863 381.535C140.335 381.927 139.656 382.123 138.826 382.123C138.051 382.123 137.411 381.932 136.905 381.549C136.404 381.161 136.121 380.651 136.058 380.018H137.247C137.379 380.774 137.931 381.152 138.901 381.152C139.38 381.152 139.758 381.059 140.036 380.872C140.319 380.681 140.46 380.423 140.46 380.1C140.46 379.844 140.376 379.642 140.207 379.491C140.043 379.341 139.763 379.213 139.366 379.108L138.115 378.787C136.871 378.468 136.249 377.823 136.249 376.853ZM145.84 382.123C144.846 382.123 144.049 381.793 143.447 381.132C142.846 380.466 142.545 379.571 142.545 378.445C142.545 377.32 142.846 376.426 143.447 375.766C144.049 375.1 144.846 374.768 145.84 374.768C146.829 374.768 147.624 375.1 148.226 375.766C148.827 376.426 149.128 377.32 149.128 378.445C149.128 379.566 148.827 380.46 148.226 381.125C147.624 381.79 146.829 382.123 145.84 382.123ZM144.315 380.38C144.694 380.845 145.202 381.077 145.84 381.077C146.478 381.077 146.984 380.847 147.357 380.387C147.731 379.922 147.918 379.275 147.918 378.445C147.918 377.616 147.731 376.971 147.357 376.511C146.984 376.046 146.478 375.813 145.84 375.813C145.202 375.813 144.694 376.046 144.315 376.511C143.942 376.976 143.755 377.62 143.755 378.445C143.755 379.27 143.942 379.915 144.315 380.38ZM150.331 382V374.891H151.452V376.025H151.479C151.685 375.629 151.979 375.321 152.361 375.103C152.744 374.879 153.202 374.768 153.735 374.768C154.51 374.768 155.114 375.002 155.547 375.472C155.98 375.937 156.196 376.575 156.196 377.386V382H155.007V377.598C155.007 377.019 154.87 376.579 154.597 376.278C154.323 375.973 153.915 375.82 153.373 375.82C152.812 375.82 152.364 376.003 152.026 376.367C151.689 376.732 151.521 377.215 151.521 377.816V382H150.331ZM160.968 382V375.868H159.977V374.891H160.968V374.098C160.968 373.414 161.127 372.908 161.446 372.58C161.77 372.247 162.26 372.081 162.916 372.081C163.171 372.081 163.413 372.099 163.641 372.136V373.1C163.449 373.072 163.269 373.059 163.101 373.059C162.467 373.059 162.15 373.407 162.15 374.104V374.891H163.606V375.868H162.157V382H160.968ZM167.441 382.123C166.448 382.123 165.65 381.793 165.049 381.132C164.447 380.466 164.146 379.571 164.146 378.445C164.146 377.32 164.447 376.426 165.049 375.766C165.65 375.1 166.448 374.768 167.441 374.768C168.43 374.768 169.226 375.1 169.827 375.766C170.429 376.426 170.729 377.32 170.729 378.445C170.729 379.566 170.429 380.46 169.827 381.125C169.226 381.79 168.43 382.123 167.441 382.123ZM165.917 380.38C166.295 380.845 166.803 381.077 167.441 381.077C168.079 381.077 168.585 380.847 168.959 380.387C169.333 379.922 169.52 379.275 169.52 378.445C169.52 377.616 169.333 376.971 168.959 376.511C168.585 376.046 168.079 375.813 167.441 375.813C166.803 375.813 166.295 376.046 165.917 376.511C165.543 376.976 165.356 377.62 165.356 378.445C165.356 379.27 165.543 379.915 165.917 380.38ZM171.933 382V374.891H173.054V376.053H173.081C173.2 375.656 173.411 375.344 173.717 375.116C174.027 374.884 174.389 374.768 174.804 374.768C174.899 374.768 175.059 374.784 175.282 374.815V375.971C175.155 375.925 174.943 375.902 174.646 375.902C174.186 375.902 173.817 376.055 173.539 376.36C173.261 376.666 173.122 377.069 173.122 377.57V382H171.933ZM181.469 381.111C182.029 381.111 182.499 380.938 182.877 380.592C183.26 380.241 183.451 379.81 183.451 379.3V378.719L181.551 378.835C181.072 378.867 180.701 378.983 180.437 379.184C180.177 379.384 180.047 379.653 180.047 379.99C180.047 380.327 180.177 380.599 180.437 380.804C180.696 381.009 181.04 381.111 181.469 381.111ZM181.202 382.123C180.496 382.123 179.924 381.927 179.486 381.535C179.053 381.143 178.837 380.628 178.837 379.99C178.837 379.38 179.06 378.892 179.507 378.527C179.958 378.163 180.594 377.958 181.414 377.912L183.451 377.796V377.201C183.451 376.768 183.314 376.429 183.041 376.183C182.768 375.937 182.385 375.813 181.893 375.813C181.441 375.813 181.075 375.914 180.792 376.114C180.509 376.31 180.329 376.586 180.252 376.941H179.104C179.145 376.308 179.418 375.788 179.924 375.383C180.434 374.973 181.1 374.768 181.92 374.768C182.754 374.768 183.415 374.977 183.902 375.396C184.395 375.816 184.641 376.379 184.641 377.085V382H183.513V380.776H183.485C183.271 381.182 182.957 381.508 182.542 381.754C182.127 382 181.681 382.123 181.202 382.123ZM189.686 382.123C189.175 382.123 188.719 382.007 188.318 381.774C187.922 381.542 187.607 381.216 187.375 380.797H187.348V382H186.213V372.136H187.402V376.08H187.43C187.653 375.67 187.963 375.349 188.359 375.116C188.76 374.884 189.209 374.768 189.706 374.768C190.604 374.768 191.328 375.103 191.88 375.772C192.431 376.442 192.707 377.333 192.707 378.445C192.707 379.562 192.431 380.455 191.88 381.125C191.328 381.79 190.597 382.123 189.686 382.123ZM189.453 375.813C188.847 375.813 188.353 376.057 187.97 376.545C187.587 377.028 187.396 377.661 187.396 378.445C187.396 379.234 187.587 379.869 187.97 380.353C188.353 380.836 188.847 381.077 189.453 381.077C190.082 381.077 190.579 380.842 190.943 380.373C191.308 379.899 191.49 379.257 191.49 378.445C191.49 377.639 191.308 376.998 190.943 376.524C190.579 376.05 190.082 375.813 189.453 375.813ZM193.794 376.853C193.794 376.242 194.04 375.743 194.532 375.355C195.029 374.964 195.667 374.768 196.446 374.768C197.18 374.768 197.791 374.964 198.278 375.355C198.766 375.747 199.023 376.244 199.051 376.846H197.916C197.875 376.499 197.72 376.228 197.451 376.032C197.187 375.836 196.838 375.738 196.405 375.738C195.972 375.738 195.624 375.836 195.359 376.032C195.095 376.224 194.963 376.477 194.963 376.791C194.963 377.274 195.357 377.616 196.146 377.816L197.246 378.083C197.962 378.265 198.465 378.502 198.757 378.794C199.053 379.081 199.201 379.487 199.201 380.011C199.201 380.631 198.937 381.139 198.408 381.535C197.88 381.927 197.201 382.123 196.371 382.123C195.596 382.123 194.956 381.932 194.45 381.549C193.949 381.161 193.666 380.651 193.603 380.018H194.792C194.924 380.774 195.476 381.152 196.446 381.152C196.925 381.152 197.303 381.059 197.581 380.872C197.864 380.681 198.005 380.423 198.005 380.1C198.005 379.844 197.921 379.642 197.752 379.491C197.588 379.341 197.308 379.213 196.911 379.108L195.66 378.787C194.416 378.468 193.794 377.823 193.794 376.853ZM203.289 375.8C202.738 375.8 202.28 375.991 201.915 376.374C201.555 376.752 201.357 377.24 201.32 377.837H205.183C205.169 377.235 204.989 376.745 204.643 376.367C204.296 375.989 203.845 375.8 203.289 375.8ZM205.155 379.963H206.324C206.219 380.592 205.891 381.109 205.34 381.515C204.793 381.92 204.134 382.123 203.364 382.123C202.348 382.123 201.548 381.795 200.965 381.139C200.382 380.482 200.09 379.594 200.09 378.473C200.09 377.361 200.382 376.465 200.965 375.786C201.553 375.107 202.334 374.768 203.31 374.768C204.267 374.768 205.023 375.089 205.579 375.731C206.135 376.374 206.413 377.235 206.413 378.315V378.767H201.313V378.835C201.313 379.519 201.5 380.065 201.874 380.476C202.248 380.886 202.754 381.091 203.392 381.091C203.838 381.091 204.219 380.988 204.533 380.783C204.848 380.578 205.055 380.305 205.155 379.963ZM207.616 382V374.891H208.737V376.025H208.765C208.97 375.629 209.264 375.321 209.646 375.103C210.029 374.879 210.487 374.768 211.021 374.768C211.795 374.768 212.399 375.002 212.832 375.472C213.265 375.937 213.481 376.575 213.481 377.386V382H212.292V377.598C212.292 377.019 212.155 376.579 211.882 376.278C211.608 375.973 211.201 375.82 210.658 375.82C210.098 375.82 209.649 376.003 209.312 376.367C208.974 376.732 208.806 377.215 208.806 377.816V382H207.616ZM220.905 377.222H219.743C219.652 376.812 219.449 376.474 219.135 376.21C218.825 375.946 218.422 375.813 217.925 375.813C217.305 375.813 216.806 376.053 216.428 376.531C216.049 377.005 215.86 377.643 215.86 378.445C215.86 379.261 216.049 379.904 216.428 380.373C216.811 380.842 217.314 381.077 217.938 381.077C218.417 381.077 218.811 380.959 219.121 380.722C219.436 380.48 219.645 380.143 219.75 379.71H220.919C220.828 380.421 220.507 381.002 219.955 381.453C219.408 381.9 218.734 382.123 217.932 382.123C216.938 382.123 216.143 381.795 215.546 381.139C214.949 380.478 214.65 379.58 214.65 378.445C214.65 377.329 214.949 376.438 215.546 375.772C216.143 375.103 216.934 374.768 217.918 374.768C218.766 374.768 219.454 375.007 219.982 375.485C220.516 375.964 220.823 376.543 220.905 377.222ZM224.863 375.8C224.312 375.8 223.854 375.991 223.489 376.374C223.129 376.752 222.931 377.24 222.895 377.837H226.757C226.743 377.235 226.563 376.745 226.217 376.367C225.87 375.989 225.419 375.8 224.863 375.8ZM226.729 379.963H227.898C227.794 380.592 227.465 381.109 226.914 381.515C226.367 381.92 225.709 382.123 224.938 382.123C223.922 382.123 223.122 381.795 222.539 381.139C221.956 380.482 221.664 379.594 221.664 378.473C221.664 377.361 221.956 376.465 222.539 375.786C223.127 375.107 223.909 374.768 224.884 374.768C225.841 374.768 226.597 375.089 227.153 375.731C227.709 376.374 227.987 377.235 227.987 378.315V378.767H222.888V378.835C222.888 379.519 223.075 380.065 223.448 380.476C223.822 380.886 224.328 381.091 224.966 381.091C225.412 381.091 225.793 380.988 226.107 380.783C226.422 380.578 226.629 380.305 226.729 379.963Z" fill="#464255"/>
<path opacity="0.4" d="M140.422 203L139.289 199.773H134.805L133.672 203H132.195L136.352 191.727H137.742L141.898 203H140.422ZM137.023 193.438L135.219 198.578H138.875L137.07 193.438H137.023ZM143.414 203V195.992H142.281V194.875H143.414V193.969C143.414 193.188 143.596 192.609 143.961 192.234C144.331 191.854 144.891 191.664 145.641 191.664C145.932 191.664 146.208 191.685 146.469 191.727V192.828C146.25 192.797 146.044 192.781 145.852 192.781C145.128 192.781 144.766 193.18 144.766 193.977V194.875H146.43V195.992H144.773V203H143.414ZM147.836 203V194.875H149.117V196.172H149.148C149.346 195.729 149.646 195.38 150.047 195.125C150.448 194.865 150.917 194.734 151.453 194.734C152.005 194.734 152.479 194.87 152.875 195.141C153.271 195.406 153.557 195.786 153.734 196.281H153.766C153.99 195.797 154.326 195.419 154.773 195.148C155.227 194.872 155.74 194.734 156.312 194.734C157.115 194.734 157.755 194.977 158.234 195.461C158.719 195.94 158.961 196.583 158.961 197.391V203H157.602V197.703C157.602 197.146 157.453 196.714 157.156 196.406C156.865 196.094 156.451 195.938 155.914 195.938C155.378 195.938 154.938 196.117 154.594 196.477C154.25 196.831 154.078 197.284 154.078 197.836V203H152.719V197.555C152.719 197.065 152.568 196.674 152.266 196.383C151.964 196.086 151.56 195.938 151.055 195.938C150.518 195.938 150.073 196.125 149.719 196.5C149.37 196.875 149.195 197.344 149.195 197.906V203H147.836ZM160.766 203V194.875H162.125V203H160.766ZM161.445 193.508C161.216 193.508 161.018 193.424 160.852 193.258C160.685 193.091 160.602 192.893 160.602 192.664C160.602 192.43 160.685 192.232 160.852 192.07C161.018 191.904 161.216 191.82 161.445 191.82C161.68 191.82 161.88 191.904 162.047 192.07C162.214 192.232 162.297 192.43 162.297 192.664C162.297 192.893 162.214 193.091 162.047 193.258C161.88 193.424 161.68 193.508 161.445 193.508ZM163.961 203V194.875H165.242V196.172H165.273C165.508 195.719 165.844 195.367 166.281 195.117C166.719 194.862 167.242 194.734 167.852 194.734C168.737 194.734 169.427 195.003 169.922 195.539C170.417 196.07 170.664 196.799 170.664 197.727V203H169.305V197.969C169.305 197.307 169.148 196.805 168.836 196.461C168.523 196.112 168.057 195.938 167.438 195.938C166.797 195.938 166.284 196.146 165.898 196.562C165.513 196.979 165.32 197.531 165.32 198.219V203H163.961Z" fill="#464255"/>
<path opacity="0.4" d="M720.734 203.188C719.177 203.188 717.94 202.664 717.023 201.617C716.112 200.565 715.656 199.146 715.656 197.359C715.656 195.589 716.117 194.177 717.039 193.125C717.961 192.068 719.193 191.539 720.734 191.539C721.964 191.539 723.005 191.883 723.859 192.57C724.719 193.253 725.237 194.156 725.414 195.281H723.992C723.81 194.542 723.422 193.951 722.828 193.508C722.234 193.06 721.536 192.836 720.734 192.836C719.635 192.836 718.755 193.247 718.094 194.07C717.432 194.893 717.102 195.99 717.102 197.359C717.102 198.745 717.43 199.846 718.086 200.664C718.742 201.482 719.628 201.891 720.742 201.891C721.57 201.891 722.268 201.701 722.836 201.32C723.404 200.94 723.789 200.406 723.992 199.719H725.414C725.154 200.833 724.62 201.69 723.812 202.289C723.005 202.888 721.979 203.188 720.734 203.188ZM729.547 201.984C730.188 201.984 730.724 201.786 731.156 201.391C731.594 200.99 731.812 200.497 731.812 199.914V199.25L729.641 199.383C729.094 199.419 728.669 199.552 728.367 199.781C728.07 200.01 727.922 200.318 727.922 200.703C727.922 201.089 728.07 201.398 728.367 201.633C728.664 201.867 729.057 201.984 729.547 201.984ZM729.242 203.141C728.435 203.141 727.781 202.917 727.281 202.469C726.786 202.021 726.539 201.432 726.539 200.703C726.539 200.005 726.794 199.448 727.305 199.031C727.82 198.615 728.547 198.38 729.484 198.328L731.812 198.195V197.516C731.812 197.021 731.656 196.633 731.344 196.352C731.031 196.07 730.594 195.93 730.031 195.93C729.516 195.93 729.096 196.044 728.773 196.273C728.451 196.497 728.245 196.812 728.156 197.219H726.844C726.891 196.495 727.203 195.901 727.781 195.438C728.365 194.969 729.125 194.734 730.062 194.734C731.016 194.734 731.771 194.974 732.328 195.453C732.891 195.932 733.172 196.576 733.172 197.383V203H731.883V201.602H731.852C731.607 202.065 731.247 202.438 730.773 202.719C730.299 203 729.789 203.141 729.242 203.141ZM734.758 197.117C734.758 196.419 735.039 195.849 735.602 195.406C736.169 194.958 736.898 194.734 737.789 194.734C738.628 194.734 739.326 194.958 739.883 195.406C740.44 195.854 740.734 196.422 740.766 197.109H739.469C739.422 196.714 739.245 196.404 738.938 196.18C738.635 195.956 738.237 195.844 737.742 195.844C737.247 195.844 736.849 195.956 736.547 196.18C736.245 196.398 736.094 196.688 736.094 197.047C736.094 197.599 736.544 197.99 737.445 198.219L738.703 198.523C739.521 198.732 740.096 199.003 740.43 199.336C740.768 199.664 740.938 200.128 740.938 200.727C740.938 201.435 740.635 202.016 740.031 202.469C739.427 202.917 738.651 203.141 737.703 203.141C736.818 203.141 736.086 202.922 735.508 202.484C734.935 202.042 734.612 201.458 734.539 200.734H735.898C736.049 201.599 736.68 202.031 737.789 202.031C738.336 202.031 738.768 201.924 739.086 201.711C739.409 201.492 739.57 201.198 739.57 200.828C739.57 200.536 739.474 200.305 739.281 200.133C739.094 199.961 738.773 199.815 738.32 199.695L736.891 199.328C735.469 198.964 734.758 198.227 734.758 197.117ZM749.023 194.875V203H747.734V201.68H747.703C747.198 202.654 746.339 203.141 745.125 203.141C744.245 203.141 743.555 202.875 743.055 202.344C742.56 201.807 742.312 201.076 742.312 200.148V194.875H743.672V199.906C743.672 201.26 744.297 201.938 745.547 201.938C746.203 201.938 746.719 201.732 747.094 201.32C747.474 200.904 747.664 200.346 747.664 199.648V194.875H749.023ZM753.469 201.984C754.109 201.984 754.646 201.786 755.078 201.391C755.516 200.99 755.734 200.497 755.734 199.914V199.25L753.562 199.383C753.016 199.419 752.591 199.552 752.289 199.781C751.992 200.01 751.844 200.318 751.844 200.703C751.844 201.089 751.992 201.398 752.289 201.633C752.586 201.867 752.979 201.984 753.469 201.984ZM753.164 203.141C752.357 203.141 751.703 202.917 751.203 202.469C750.708 202.021 750.461 201.432 750.461 200.703C750.461 200.005 750.716 199.448 751.227 199.031C751.742 198.615 752.469 198.38 753.406 198.328L755.734 198.195V197.516C755.734 197.021 755.578 196.633 755.266 196.352C754.953 196.07 754.516 195.93 753.953 195.93C753.438 195.93 753.018 196.044 752.695 196.273C752.372 196.497 752.167 196.812 752.078 197.219H750.766C750.812 196.495 751.125 195.901 751.703 195.438C752.286 194.969 753.047 194.734 753.984 194.734C754.938 194.734 755.693 194.974 756.25 195.453C756.812 195.932 757.094 196.576 757.094 197.383V203H755.805V201.602H755.773C755.529 202.065 755.169 202.438 754.695 202.719C754.221 203 753.711 203.141 753.164 203.141ZM758.891 203V191.727H760.25V203H758.891Z" fill="#464255"/>
<path opacity="0.4" d="M712.789 320V310.219H712.758L709.773 312.367V310.883L712.773 308.727H714.148V320H712.789ZM720.883 320.188C719.69 320.188 718.711 319.885 717.945 319.281C717.18 318.672 716.797 317.896 716.797 316.953C716.797 316.25 717.018 315.633 717.461 315.102C717.904 314.57 718.49 314.221 719.219 314.055V314.023C718.609 313.836 718.128 313.518 717.773 313.07C717.419 312.617 717.242 312.094 717.242 311.5C717.242 310.651 717.586 309.945 718.273 309.383C718.966 308.82 719.836 308.539 720.883 308.539C721.935 308.539 722.802 308.82 723.484 309.383C724.172 309.94 724.516 310.648 724.516 311.508C724.516 312.096 724.341 312.615 723.992 313.062C723.643 313.51 723.161 313.831 722.547 314.023V314.055C723.276 314.227 723.862 314.578 724.305 315.109C724.753 315.641 724.977 316.255 724.977 316.953C724.977 317.896 724.594 318.672 723.828 319.281C723.062 319.885 722.081 320.188 720.883 320.188ZM720.883 318.961C721.659 318.961 722.294 318.763 722.789 318.367C723.289 317.971 723.539 317.466 723.539 316.852C723.539 316.232 723.289 315.724 722.789 315.328C722.294 314.932 721.659 314.734 720.883 314.734C720.107 314.734 719.469 314.935 718.969 315.336C718.474 315.732 718.227 316.237 718.227 316.852C718.227 317.466 718.477 317.971 718.977 318.367C719.477 318.763 720.112 318.961 720.883 318.961ZM720.883 313.5C721.539 313.5 722.076 313.326 722.492 312.977C722.914 312.628 723.125 312.18 723.125 311.633C723.125 311.081 722.917 310.63 722.5 310.281C722.083 309.927 721.544 309.75 720.883 309.75C720.221 309.75 719.682 309.927 719.266 310.281C718.849 310.63 718.641 311.081 718.641 311.633C718.641 312.18 718.849 312.628 719.266 312.977C719.682 313.326 720.221 313.5 720.883 313.5ZM731.68 316.062H726.555V314.797H731.68V316.062ZM737.406 320.188C736.099 320.188 735.078 319.667 734.344 318.625C733.615 317.578 733.25 316.156 733.25 314.359C733.25 312.578 733.617 311.164 734.352 310.117C735.091 309.065 736.109 308.539 737.406 308.539C738.703 308.539 739.716 309.062 740.445 310.109C741.18 311.151 741.547 312.565 741.547 314.352C741.547 316.148 741.182 317.57 740.453 318.617C739.724 319.664 738.708 320.188 737.406 320.188ZM735.383 317.727C735.862 318.549 736.536 318.961 737.406 318.961C738.276 318.961 738.948 318.552 739.422 317.734C739.896 316.911 740.133 315.786 740.133 314.359C740.133 312.953 739.893 311.839 739.414 311.016C738.935 310.188 738.266 309.773 737.406 309.773C736.547 309.773 735.875 310.188 735.391 311.016C734.906 311.844 734.664 312.956 734.664 314.352C734.664 315.779 734.904 316.904 735.383 317.727ZM745.461 314.797V313.609H746.812C747.458 313.609 747.987 313.424 748.398 313.055C748.81 312.68 749.016 312.206 749.016 311.633C749.016 311.06 748.826 310.604 748.445 310.266C748.065 309.927 747.526 309.758 746.828 309.758C746.182 309.758 745.656 309.93 745.25 310.273C744.844 310.617 744.609 311.086 744.547 311.68H743.195C743.273 310.721 743.643 309.958 744.305 309.391C744.971 308.823 745.833 308.539 746.891 308.539C747.906 308.539 748.75 308.812 749.422 309.359C750.094 309.906 750.43 310.602 750.43 311.445C750.43 312.148 750.221 312.74 749.805 313.219C749.388 313.698 748.826 314 748.117 314.125V314.156C748.971 314.208 749.651 314.482 750.156 314.977C750.661 315.466 750.914 316.107 750.914 316.898C750.914 317.529 750.737 318.096 750.383 318.602C750.029 319.107 749.549 319.497 748.945 319.773C748.341 320.049 747.672 320.188 746.938 320.188C745.771 320.188 744.831 319.896 744.117 319.312C743.404 318.729 743.021 317.964 742.969 317.016H744.32C744.383 317.604 744.646 318.078 745.109 318.438C745.573 318.792 746.177 318.969 746.922 318.969C747.667 318.969 748.279 318.779 748.758 318.398C749.242 318.018 749.484 317.534 749.484 316.945C749.484 316.284 749.25 315.76 748.781 315.375C748.318 314.99 747.682 314.797 746.875 314.797H745.461ZM757.711 316.062H752.586V314.797H757.711V316.062ZM759.422 311.977C759.422 310.992 759.776 310.174 760.484 309.523C761.193 308.867 762.078 308.539 763.141 308.539C764.146 308.539 764.997 308.839 765.695 309.438C766.393 310.036 766.742 310.768 766.742 311.633C766.742 312.258 766.57 312.859 766.227 313.438C765.883 314.016 765.237 314.794 764.289 315.773L761.438 318.719V318.75H766.93V320H759.492V319.031L763.461 314.852C764.216 314.055 764.716 313.451 764.961 313.039C765.211 312.628 765.336 312.188 765.336 311.719C765.336 311.177 765.117 310.716 764.68 310.336C764.247 309.956 763.721 309.766 763.102 309.766C762.44 309.766 761.888 309.977 761.445 310.398C761.003 310.82 760.781 311.346 760.781 311.977V311.984H759.422V311.977ZM772.5 320.188C771.193 320.188 770.172 319.667 769.438 318.625C768.708 317.578 768.344 316.156 768.344 314.359C768.344 312.578 768.711 311.164 769.445 310.117C770.185 309.065 771.203 308.539 772.5 308.539C773.797 308.539 774.81 309.062 775.539 310.109C776.273 311.151 776.641 312.565 776.641 314.352C776.641 316.148 776.276 317.57 775.547 318.617C774.818 319.664 773.802 320.188 772.5 320.188ZM770.477 317.727C770.956 318.549 771.63 318.961 772.5 318.961C773.37 318.961 774.042 318.552 774.516 317.734C774.99 316.911 775.227 315.786 775.227 314.359C775.227 312.953 774.987 311.839 774.508 311.016C774.029 310.188 773.359 309.773 772.5 309.773C771.641 309.773 770.969 310.188 770.484 311.016C770 311.844 769.758 312.956 769.758 314.352C769.758 315.779 769.997 316.904 770.477 317.727ZM778.031 311.977C778.031 310.992 778.385 310.174 779.094 309.523C779.802 308.867 780.688 308.539 781.75 308.539C782.755 308.539 783.607 308.839 784.305 309.438C785.003 310.036 785.352 310.768 785.352 311.633C785.352 312.258 785.18 312.859 784.836 313.438C784.492 314.016 783.846 314.794 782.898 315.773L780.047 318.719V318.75H785.539V320H778.102V319.031L782.07 314.852C782.826 314.055 783.326 313.451 783.57 313.039C783.82 312.628 783.945 312.188 783.945 311.719C783.945 311.177 783.727 310.716 783.289 310.336C782.857 309.956 782.331 309.766 781.711 309.766C781.049 309.766 780.497 309.977 780.055 310.398C779.612 310.82 779.391 311.346 779.391 311.977V311.984H778.031V311.977ZM790.039 320V310.219H790.008L787.023 312.367V310.883L790.023 308.727H791.398V320H790.039Z" fill="#464255"/>
<path d="M122.431 92L121.271 88.5723H116.437L115.276 92H113.229L117.808 79.3174H119.935L124.514 92H122.431ZM118.827 81.4268L116.938 86.9902H120.77L118.88 81.4268H118.827ZM125.88 85.373C125.88 84.5469 126.214 83.876 126.882 83.3604C127.55 82.8447 128.423 82.5869 129.502 82.5869C130.527 82.5869 131.368 82.8477 132.024 83.3691C132.686 83.8848 133.032 84.5557 133.061 85.3818H131.277C131.23 84.96 131.046 84.6289 130.723 84.3887C130.401 84.1484 129.976 84.0283 129.449 84.0283C128.933 84.0283 128.517 84.1426 128.201 84.3711C127.89 84.5996 127.735 84.8955 127.735 85.2588C127.735 85.8213 128.207 86.2197 129.15 86.4541L130.706 86.8145C131.637 87.0371 132.296 87.3418 132.683 87.7285C133.076 88.1094 133.272 88.6426 133.272 89.3281C133.272 90.1719 132.915 90.8574 132.2 91.3848C131.491 91.9121 130.568 92.1758 129.431 92.1758C128.347 92.1758 127.462 91.918 126.777 91.4023C126.097 90.8867 125.719 90.2012 125.643 89.3457H127.524C127.6 89.791 127.808 90.1338 128.148 90.374C128.488 90.6084 128.945 90.7256 129.519 90.7256C130.087 90.7256 130.536 90.6172 130.864 90.4004C131.198 90.1777 131.365 89.8789 131.365 89.5039C131.365 89.2051 131.265 88.9678 131.066 88.792C130.867 88.6162 130.527 88.4668 130.046 88.3438L128.394 87.9395C126.718 87.5352 125.88 86.6797 125.88 85.373ZM134.982 85.373C134.982 84.5469 135.316 83.876 135.984 83.3604C136.652 82.8447 137.525 82.5869 138.603 82.5869C139.628 82.5869 140.469 82.8477 141.125 83.3691C141.787 83.8848 142.133 84.5557 142.162 85.3818H140.378C140.331 84.96 140.147 84.6289 139.824 84.3887C139.502 84.1484 139.077 84.0283 138.55 84.0283C138.034 84.0283 137.618 84.1426 137.302 84.3711C136.991 84.5996 136.836 84.8955 136.836 85.2588C136.836 85.8213 137.308 86.2197 138.251 86.4541L139.807 86.8145C140.738 87.0371 141.398 87.3418 141.784 87.7285C142.177 88.1094 142.373 88.6426 142.373 89.3281C142.373 90.1719 142.016 90.8574 141.301 91.3848C140.592 91.9121 139.669 92.1758 138.532 92.1758C137.448 92.1758 136.564 91.918 135.878 91.4023C135.198 90.8867 134.821 90.2012 134.744 89.3457H136.625C136.701 89.791 136.909 90.1338 137.249 90.374C137.589 90.6084 138.046 90.7256 138.62 90.7256C139.189 90.7256 139.637 90.6172 139.965 90.4004C140.299 90.1777 140.466 89.8789 140.466 89.5039C140.466 89.2051 140.366 88.9678 140.167 88.792C139.968 88.6162 139.628 88.4668 139.148 88.3438L137.495 87.9395C135.82 87.5352 134.982 86.6797 134.982 85.373ZM144.311 92V82.7539H146.21V92H144.311ZM146.043 81.084C145.826 81.2949 145.565 81.4004 145.261 81.4004C144.956 81.4004 144.695 81.2949 144.478 81.084C144.267 80.873 144.162 80.6182 144.162 80.3193C144.162 80.0146 144.267 79.7568 144.478 79.5459C144.695 79.335 144.956 79.2295 145.261 79.2295C145.571 79.2295 145.832 79.335 146.043 79.5459C146.26 79.7568 146.368 80.0146 146.368 80.3193C146.368 80.6182 146.26 80.873 146.043 81.084ZM152.49 90.4619C153.234 90.4619 153.829 90.1807 154.274 89.6182C154.725 89.0557 154.951 88.2998 154.951 87.3506C154.951 86.4014 154.725 85.6396 154.274 85.0654C153.829 84.4912 153.234 84.2041 152.49 84.2041C151.757 84.2041 151.171 84.4883 150.732 85.0566C150.298 85.625 150.081 86.3896 150.081 87.3506C150.081 88.3115 150.298 89.0703 150.732 89.627C151.171 90.1836 151.757 90.4619 152.49 90.4619ZM152.507 95.4805C151.429 95.4805 150.515 95.2227 149.765 94.707C149.021 94.1914 148.59 93.5293 148.473 92.7207H150.38C150.515 93.1074 150.779 93.418 151.171 93.6523C151.57 93.8867 152.038 94.0039 152.578 94.0039C153.31 94.0039 153.887 93.8105 154.309 93.4238C154.731 93.043 154.942 92.5332 154.942 91.8945V90.374H154.907C154.643 90.8838 154.25 91.2881 153.729 91.5869C153.213 91.8857 152.63 92.0352 151.98 92.0352C150.814 92.0352 149.882 91.6133 149.185 90.7695C148.488 89.9199 148.139 88.7773 148.139 87.3418C148.139 85.8887 148.488 84.7373 149.185 83.8877C149.888 83.0322 150.834 82.6045 152.024 82.6045C152.674 82.6045 153.257 82.7598 153.773 83.0703C154.288 83.375 154.687 83.7969 154.968 84.3359H155.003V82.7539H156.849V91.833C156.849 92.9346 156.454 93.8164 155.662 94.4785C154.877 95.1465 153.826 95.4805 152.507 95.4805ZM159.13 92V82.7539H160.94V84.3008H160.984C161.242 83.7617 161.617 83.3428 162.109 83.0439C162.602 82.7451 163.196 82.5957 163.894 82.5957C164.907 82.5957 165.695 82.9004 166.258 83.5098C166.82 84.1133 167.102 84.9482 167.102 86.0146V92H165.194V86.3838C165.194 85.6807 165.027 85.1475 164.693 84.7842C164.365 84.415 163.876 84.2305 163.226 84.2305C162.558 84.2305 162.024 84.4473 161.626 84.8809C161.228 85.3145 161.028 85.8916 161.028 86.6123V92H159.13ZM181.498 90.2949V92H173.623V79.3174H175.592V90.2949H181.498ZM188.604 84.7842C188.188 84.3389 187.652 84.1162 186.996 84.1162C186.34 84.1162 185.795 84.3418 185.361 84.793C184.928 85.2383 184.687 85.8154 184.64 86.5244H189.263C189.24 85.8096 189.02 85.2295 188.604 84.7842ZM189.255 89.2842H191.056C190.922 90.1338 190.488 90.8281 189.756 91.3672C189.023 91.9062 188.13 92.1758 187.075 92.1758C185.721 92.1758 184.655 91.751 183.876 90.9014C183.102 90.0459 182.716 88.8857 182.716 87.4209C182.716 85.9678 183.102 84.7988 183.876 83.9141C184.655 83.0293 185.695 82.5869 186.996 82.5869C188.273 82.5869 189.287 83.0059 190.037 83.8438C190.787 84.6758 191.162 85.7949 191.162 87.2012V87.8516H184.632V87.9658C184.632 88.7744 184.857 89.4219 185.308 89.9082C185.76 90.3945 186.363 90.6377 187.119 90.6377C187.652 90.6377 188.109 90.5146 188.49 90.2686C188.871 90.0225 189.126 89.6943 189.255 89.2842ZM196.273 90.6553C196.941 90.6553 197.5 90.4531 197.952 90.0488C198.409 89.6387 198.637 89.1348 198.637 88.5371V87.8076L196.361 87.9482C195.792 87.9893 195.353 88.1299 195.042 88.3701C194.738 88.6045 194.585 88.9209 194.585 89.3193C194.585 89.7236 194.738 90.0488 195.042 90.2949C195.353 90.5352 195.763 90.6553 196.273 90.6553ZM195.746 92.1582C194.837 92.1582 194.096 91.9004 193.522 91.3848C192.954 90.8691 192.669 90.1982 192.669 89.3721C192.669 88.5635 192.968 87.9219 193.566 87.4473C194.163 86.9668 195.01 86.6973 196.106 86.6387L198.637 86.4893V85.7773C198.637 85.2617 198.473 84.8604 198.145 84.5732C197.817 84.2803 197.363 84.1338 196.783 84.1338C196.244 84.1338 195.804 84.2539 195.464 84.4941C195.13 84.7344 194.919 85.0654 194.831 85.4873H193.038C193.091 84.6318 193.46 83.9346 194.146 83.3955C194.831 82.8564 195.734 82.5869 196.853 82.5869C197.972 82.5869 198.863 82.8623 199.525 83.4131C200.193 83.9639 200.527 84.7021 200.527 85.6279V92H198.707V90.4795H198.663C198.4 90.9893 197.998 91.3965 197.459 91.7012C196.926 92.0059 196.355 92.1582 195.746 92.1582ZM210.665 82.7539L207.352 92H205.312L201.981 82.7539H204.003L206.323 90.1455H206.358L208.679 82.7539H210.665ZM217.367 84.7842C216.951 84.3389 216.415 84.1162 215.758 84.1162C215.102 84.1162 214.557 84.3418 214.124 84.793C213.69 85.2383 213.45 85.8154 213.403 86.5244H218.026C218.003 85.8096 217.783 85.2295 217.367 84.7842ZM218.017 89.2842H219.819C219.684 90.1338 219.251 90.8281 218.518 91.3672C217.786 91.9062 216.892 92.1758 215.838 92.1758C214.484 92.1758 213.418 91.751 212.638 90.9014C211.865 90.0459 211.478 88.8857 211.478 87.4209C211.478 85.9678 211.865 84.7988 212.638 83.9141C213.418 83.0293 214.458 82.5869 215.758 82.5869C217.036 82.5869 218.049 83.0059 218.799 83.8438C219.549 84.6758 219.924 85.7949 219.924 87.2012V87.8516H213.394V87.9658C213.394 88.7744 213.62 89.4219 214.071 89.9082C214.522 90.3945 215.126 90.6377 215.881 90.6377C216.415 90.6377 216.872 90.5146 217.253 90.2686C217.633 90.0225 217.888 89.6943 218.017 89.2842Z" fill="#464255"/>
<rect x="78" y="112" width="837" height="1" fill="#E0E2F0"/>
<circle cx="131" cy="316" r="14.5" fill="white" stroke="#3546AB"/>
<circle cx="258" cy="316" r="14.5" fill="white" stroke="#D7D9E5"/>
<circle cx="404" cy="316" r="14.5" fill="white" stroke="#D7D9E5"/>
<circle cx="131" cy="316" r="8" fill="#3546AB"/>
<rect x="899" y="75" width="45" height="518" fill="white"/>
</g>
<defs>
<filter id="filter0_d" x="0" y="0" width="1022" height="715" filterUnits="userSpaceOnUse" color-interpolation-filters="sRGB">
<feFlood flood-opacity="0" result="BackgroundImageFix"/>
<feColorMatrix in="SourceAlpha" type="matrix" values="0 0 0 0 0 0 0 0 0 0 0 0 0 0 0 0 0 0 127 0" result="hardAlpha"/>
<feOffset dy="16"/>
<feGaussianBlur stdDeviation="39"/>
<feComposite in2="hardAlpha" operator="out"/>
<feColorMatrix type="matrix" values="0 0 0 0 0 0 0 0 0 0 0 0 0 0 0 0 0 0 0.15 0"/>
<feBlend mode="normal" in2="BackgroundImageFix" result="effect1_dropShadow"/>
<feBlend mode="normal" in="SourceGraphic" in2="effect1_dropShadow" result="shape"/>
</filter>
</defs>
</svg>
