<svg width="1027" height="626" viewBox="0 0 1027 626" fill="none" xmlns="http://www.w3.org/2000/svg">
<g filter="url(#filter0_d)">
<path d="M80 80C80 71.1635 87.1634 64 96 64H931C939.837 64 947 71.1634 947 80V514C947 522.837 939.837 530 931 530H96C87.1634 530 80 522.837 80 514V80Z" fill="white" stroke="#58D7FF" stroke-width="4"/>
<rect x="592" y="221" width="80" height="40" rx="20" fill="#E9EDF4"/>
<rect x="592" y="357" width="80" height="40" rx="20" fill="#FF5B5B"/>
<circle cx="613" cy="241" r="16" fill="white"/>
<circle cx="651" cy="377" r="16" fill="white"/>
<rect x="112" y="439" width="93" height="38" rx="6" fill="#3546AB"/>
<path d="M159.798 460.172C159.798 456.728 154.786 457.82 154.786 455.86C154.786 455.062 155.36 454.684 156.13 454.712C156.97 454.726 157.488 455.23 157.53 455.874H159.686C159.56 454.11 158.188 453.088 156.186 453.088C154.17 453.088 152.742 454.152 152.742 455.916C152.728 459.458 157.768 458.184 157.768 460.298C157.768 460.998 157.222 461.488 156.298 461.488C155.388 461.488 154.87 460.97 154.814 460.186H152.714C152.742 462.034 154.31 463.098 156.34 463.098C158.566 463.098 159.798 461.712 159.798 460.172ZM160.993 459.094C160.993 461.516 162.561 463.126 164.521 463.126C165.753 463.126 166.635 462.538 167.097 461.866V463H169.071V455.244H167.097V456.35C166.635 455.706 165.781 455.118 164.535 455.118C162.561 455.118 160.993 456.672 160.993 459.094ZM167.097 459.122C167.097 460.592 166.117 461.404 165.039 461.404C163.989 461.404 162.995 460.564 162.995 459.094C162.995 457.624 163.989 456.84 165.039 456.84C166.117 456.84 167.097 457.652 167.097 459.122ZM170.16 455.244L173.016 463H175.396L178.266 455.244H176.18L174.22 461.194L172.26 455.244H170.16ZM182.698 456.728C183.706 456.728 184.518 457.372 184.546 458.394H180.864C181.018 457.33 181.76 456.728 182.698 456.728ZM186.38 460.564H184.266C184.014 461.082 183.552 461.502 182.712 461.502C181.732 461.502 180.948 460.858 180.85 459.71H186.52C186.562 459.458 186.576 459.206 186.576 458.954C186.576 456.644 184.994 455.118 182.754 455.118C180.458 455.118 178.862 456.672 178.862 459.122C178.862 461.558 180.5 463.126 182.754 463.126C184.672 463.126 185.96 461.992 186.38 460.564Z" fill="white"/>
<path d="M141.608 452.511C141.336 452.207 140.957 452.024 140.552 452.002C140.147 451.981 139.751 452.123 139.45 452.397L132.244 461.325L129.628 458.635C129.487 458.487 129.318 458.369 129.132 458.288C128.945 458.207 128.745 458.165 128.542 458.163C128.339 458.161 128.137 458.2 127.95 458.278C127.762 458.355 127.591 458.47 127.448 458.615C127.304 458.76 127.191 458.933 127.114 459.123C127.037 459.313 126.998 459.516 127 459.722C127.002 459.927 127.044 460.13 127.124 460.318C127.204 460.507 127.321 460.677 127.467 460.82L131.108 464.548C131.385 464.827 131.757 464.989 132.149 464.999C132.54 465.01 132.92 464.868 133.211 464.603L141.495 454.693C141.796 454.419 141.977 454.035 141.998 453.626C142.019 453.217 141.879 452.816 141.608 452.511Z" fill="white"/>
<rect x="81" y="153" width="864" height="1" fill="#D7D9E5"/>
<rect x="112.5" y="209.5" width="219" height="55" rx="17.5" stroke="#D7D9E5"/>
<rect x="112.5" y="344.5" width="219" height="55" rx="17.5" stroke="#D7D9E5"/>
<rect x="352.5" y="209.5" width="219" height="55" rx="17.5" stroke="#D7D9E5"/>
<rect x="352.5" y="344.5" width="219" height="55" rx="17.5" stroke="#D7D9E5"/>
<rect x="691.5" y="344.5" width="219" height="55" rx="17.5" stroke="#D7D9E5"/>
<path d="M139.859 243.188C138.552 243.188 137.531 242.667 136.797 241.625C136.068 240.578 135.703 239.156 135.703 237.359C135.703 235.578 136.07 234.164 136.805 233.117C137.544 232.065 138.562 231.539 139.859 231.539C141.156 231.539 142.169 232.062 142.898 233.109C143.633 234.151 144 235.565 144 237.352C144 239.148 143.635 240.57 142.906 241.617C142.177 242.664 141.161 243.188 139.859 243.188ZM137.836 240.727C138.315 241.549 138.99 241.961 139.859 241.961C140.729 241.961 141.401 241.552 141.875 240.734C142.349 239.911 142.586 238.786 142.586 237.359C142.586 235.953 142.346 234.839 141.867 234.016C141.388 233.188 140.719 232.773 139.859 232.773C139 232.773 138.328 233.188 137.844 234.016C137.359 234.844 137.117 235.956 137.117 237.352C137.117 238.779 137.357 239.904 137.836 240.727ZM145.391 234.977C145.391 233.992 145.745 233.174 146.453 232.523C147.161 231.867 148.047 231.539 149.109 231.539C150.115 231.539 150.966 231.839 151.664 232.438C152.362 233.036 152.711 233.768 152.711 234.633C152.711 235.258 152.539 235.859 152.195 236.438C151.852 237.016 151.206 237.794 150.258 238.773L147.406 241.719V241.75H152.898V243H145.461V242.031L149.43 237.852C150.185 237.055 150.685 236.451 150.93 236.039C151.18 235.628 151.305 235.188 151.305 234.719C151.305 234.177 151.086 233.716 150.648 233.336C150.216 232.956 149.69 232.766 149.07 232.766C148.409 232.766 147.857 232.977 147.414 233.398C146.971 233.82 146.75 234.346 146.75 234.977V234.984H145.391V234.977ZM156.273 242.82C156.102 242.992 155.891 243.078 155.641 243.078C155.391 243.078 155.18 242.992 155.008 242.82C154.836 242.648 154.75 242.438 154.75 242.188C154.75 241.938 154.836 241.727 155.008 241.555C155.18 241.383 155.391 241.297 155.641 241.297C155.891 241.297 156.102 241.383 156.273 241.555C156.445 241.727 156.531 241.938 156.531 242.188C156.531 242.438 156.445 242.648 156.273 242.82ZM156.273 237.07C156.102 237.242 155.891 237.328 155.641 237.328C155.391 237.328 155.18 237.242 155.008 237.07C154.836 236.898 154.75 236.688 154.75 236.438C154.75 236.188 154.836 235.977 155.008 235.805C155.18 235.633 155.391 235.547 155.641 235.547C155.891 235.547 156.102 235.633 156.273 235.805C156.445 235.977 156.531 236.188 156.531 236.438C156.531 236.688 156.445 236.898 156.273 237.07ZM160.883 237.797V236.609H162.234C162.88 236.609 163.409 236.424 163.82 236.055C164.232 235.68 164.438 235.206 164.438 234.633C164.438 234.06 164.247 233.604 163.867 233.266C163.487 232.927 162.948 232.758 162.25 232.758C161.604 232.758 161.078 232.93 160.672 233.273C160.266 233.617 160.031 234.086 159.969 234.68H158.617C158.695 233.721 159.065 232.958 159.727 232.391C160.393 231.823 161.255 231.539 162.312 231.539C163.328 231.539 164.172 231.812 164.844 232.359C165.516 232.906 165.852 233.602 165.852 234.445C165.852 235.148 165.643 235.74 165.227 236.219C164.81 236.698 164.247 237 163.539 237.125V237.156C164.393 237.208 165.073 237.482 165.578 237.977C166.083 238.466 166.336 239.107 166.336 239.898C166.336 240.529 166.159 241.096 165.805 241.602C165.451 242.107 164.971 242.497 164.367 242.773C163.763 243.049 163.094 243.188 162.359 243.188C161.193 243.188 160.253 242.896 159.539 242.312C158.826 241.729 158.443 240.964 158.391 240.016H159.742C159.805 240.604 160.068 241.078 160.531 241.438C160.995 241.792 161.599 241.969 162.344 241.969C163.089 241.969 163.701 241.779 164.18 241.398C164.664 241.018 164.906 240.534 164.906 239.945C164.906 239.284 164.672 238.76 164.203 238.375C163.74 237.99 163.104 237.797 162.297 237.797H160.883ZM167.984 234.977C167.984 233.992 168.339 233.174 169.047 232.523C169.755 231.867 170.641 231.539 171.703 231.539C172.708 231.539 173.56 231.839 174.258 232.438C174.956 233.036 175.305 233.768 175.305 234.633C175.305 235.258 175.133 235.859 174.789 236.438C174.445 237.016 173.799 237.794 172.852 238.773L170 241.719V241.75H175.492V243H168.055V242.031L172.023 237.852C172.779 237.055 173.279 236.451 173.523 236.039C173.773 235.628 173.898 235.188 173.898 234.719C173.898 234.177 173.68 233.716 173.242 233.336C172.81 232.956 172.284 232.766 171.664 232.766C171.003 232.766 170.451 232.977 170.008 233.398C169.565 233.82 169.344 234.346 169.344 234.977V234.984H167.984V234.977ZM180.578 231.727H184.602C185.659 231.727 186.523 232.065 187.195 232.742C187.872 233.414 188.211 234.281 188.211 235.344C188.211 236.411 187.872 237.284 187.195 237.961C186.518 238.638 185.648 238.977 184.586 238.977H181.984V243H180.578V231.727ZM181.984 232.977V237.727H184.234C185.036 237.727 185.659 237.518 186.102 237.102C186.544 236.68 186.766 236.094 186.766 235.344C186.766 234.594 186.544 234.013 186.102 233.602C185.664 233.185 185.042 232.977 184.234 232.977H181.984ZM200.938 243H199.625V234.312H199.57L195.977 242.922H194.789L191.195 234.312H191.141V243H189.828V231.727H191.461L195.352 241.133H195.414L199.305 231.727H200.938V243Z" fill="#959AC5"/>
<path d="M138.789 378V368.219H138.758L135.773 370.367V368.883L138.773 366.727H140.148V378H138.789ZM142.938 369.977C142.938 368.992 143.292 368.174 144 367.523C144.708 366.867 145.594 366.539 146.656 366.539C147.661 366.539 148.513 366.839 149.211 367.438C149.909 368.036 150.258 368.768 150.258 369.633C150.258 370.258 150.086 370.859 149.742 371.438C149.398 372.016 148.753 372.794 147.805 373.773L144.953 376.719V376.75H150.445V378H143.008V377.031L146.977 372.852C147.732 372.055 148.232 371.451 148.477 371.039C148.727 370.628 148.852 370.188 148.852 369.719C148.852 369.177 148.633 368.716 148.195 368.336C147.763 367.956 147.237 367.766 146.617 367.766C145.956 367.766 145.404 367.977 144.961 368.398C144.518 368.82 144.297 369.346 144.297 369.977V369.984H142.938V369.977ZM153.82 377.82C153.648 377.992 153.438 378.078 153.188 378.078C152.938 378.078 152.727 377.992 152.555 377.82C152.383 377.648 152.297 377.438 152.297 377.188C152.297 376.938 152.383 376.727 152.555 376.555C152.727 376.383 152.938 376.297 153.188 376.297C153.438 376.297 153.648 376.383 153.82 376.555C153.992 376.727 154.078 376.938 154.078 377.188C154.078 377.438 153.992 377.648 153.82 377.82ZM153.82 372.07C153.648 372.242 153.438 372.328 153.188 372.328C152.938 372.328 152.727 372.242 152.555 372.07C152.383 371.898 152.297 371.688 152.297 371.438C152.297 371.188 152.383 370.977 152.555 370.805C152.727 370.633 152.938 370.547 153.188 370.547C153.438 370.547 153.648 370.633 153.82 370.805C153.992 370.977 154.078 371.188 154.078 371.438C154.078 371.688 153.992 371.898 153.82 372.07ZM160.078 378.188C158.771 378.188 157.75 377.667 157.016 376.625C156.286 375.578 155.922 374.156 155.922 372.359C155.922 370.578 156.289 369.164 157.023 368.117C157.763 367.065 158.781 366.539 160.078 366.539C161.375 366.539 162.388 367.062 163.117 368.109C163.852 369.151 164.219 370.565 164.219 372.352C164.219 374.148 163.854 375.57 163.125 376.617C162.396 377.664 161.38 378.188 160.078 378.188ZM158.055 375.727C158.534 376.549 159.208 376.961 160.078 376.961C160.948 376.961 161.62 376.552 162.094 375.734C162.568 374.911 162.805 373.786 162.805 372.359C162.805 370.953 162.565 369.839 162.086 369.016C161.607 368.188 160.938 367.773 160.078 367.773C159.219 367.773 158.547 368.188 158.062 369.016C157.578 369.844 157.336 370.956 157.336 372.352C157.336 373.779 157.576 374.904 158.055 375.727ZM169.781 378.188C168.474 378.188 167.453 377.667 166.719 376.625C165.99 375.578 165.625 374.156 165.625 372.359C165.625 370.578 165.992 369.164 166.727 368.117C167.466 367.065 168.484 366.539 169.781 366.539C171.078 366.539 172.091 367.062 172.82 368.109C173.555 369.151 173.922 370.565 173.922 372.352C173.922 374.148 173.557 375.57 172.828 376.617C172.099 377.664 171.083 378.188 169.781 378.188ZM167.758 375.727C168.237 376.549 168.911 376.961 169.781 376.961C170.651 376.961 171.323 376.552 171.797 375.734C172.271 374.911 172.508 373.786 172.508 372.359C172.508 370.953 172.268 369.839 171.789 369.016C171.31 368.188 170.641 367.773 169.781 367.773C168.922 367.773 168.25 368.188 167.766 369.016C167.281 369.844 167.039 370.956 167.039 372.352C167.039 373.779 167.279 374.904 167.758 375.727ZM186.328 378L185.195 374.773H180.711L179.578 378H178.102L182.258 366.727H183.648L187.805 378H186.328ZM182.93 368.438L181.125 373.578H184.781L182.977 368.438H182.93ZM200.203 378H198.891V369.312H198.836L195.242 377.922H194.055L190.461 369.312H190.406V378H189.094V366.727H190.727L194.617 376.133H194.68L198.57 366.727H200.203V378Z" fill="#959AC5"/>
<path d="M378.789 243V233.219H378.758L375.773 235.367V233.883L378.773 231.727H380.148V243H378.789ZM387.086 243.195C386.242 243.195 385.497 242.977 384.852 242.539C384.206 242.096 383.708 241.469 383.359 240.656C382.99 239.802 382.805 238.768 382.805 237.555C382.805 235.654 383.188 234.174 383.953 233.117C384.724 232.06 385.799 231.531 387.18 231.531C388.138 231.531 388.956 231.797 389.633 232.328C390.31 232.859 390.74 233.568 390.922 234.453H389.492C389.341 233.943 389.055 233.536 388.633 233.234C388.211 232.927 387.721 232.773 387.164 232.773C386.221 232.773 385.492 233.177 384.977 233.984C384.461 234.792 384.19 235.945 384.164 237.445H384.188C384.443 236.893 384.857 236.451 385.43 236.117C386.003 235.784 386.638 235.617 387.336 235.617C388.409 235.617 389.299 235.971 390.008 236.68C390.721 237.388 391.078 238.276 391.078 239.344C391.078 240.458 390.701 241.38 389.945 242.109C389.195 242.833 388.242 243.195 387.086 243.195ZM385.242 241.195C385.742 241.695 386.352 241.945 387.07 241.945C387.789 241.945 388.398 241.698 388.898 241.203C389.398 240.708 389.648 240.104 389.648 239.391C389.648 238.651 389.409 238.044 388.93 237.57C388.451 237.091 387.839 236.852 387.094 236.852C386.349 236.852 385.729 237.089 385.234 237.562C384.745 238.036 384.5 238.633 384.5 239.352C384.5 240.076 384.747 240.69 385.242 241.195ZM392.516 234.977C392.516 233.992 392.87 233.174 393.578 232.523C394.286 231.867 395.172 231.539 396.234 231.539C397.24 231.539 398.091 231.839 398.789 232.438C399.487 233.036 399.836 233.768 399.836 234.633C399.836 235.258 399.664 235.859 399.32 236.438C398.977 237.016 398.331 237.794 397.383 238.773L394.531 241.719V241.75H400.023V243H392.586V242.031L396.555 237.852C397.31 237.055 397.81 236.451 398.055 236.039C398.305 235.628 398.43 235.188 398.43 234.719C398.43 234.177 398.211 233.716 397.773 233.336C397.341 232.956 396.815 232.766 396.195 232.766C395.534 232.766 394.982 232.977 394.539 233.398C394.096 233.82 393.875 234.346 393.875 234.977V234.984H392.516V234.977ZM403.398 242.82C403.227 242.992 403.016 243.078 402.766 243.078C402.516 243.078 402.305 242.992 402.133 242.82C401.961 242.648 401.875 242.438 401.875 242.188C401.875 241.938 401.961 241.727 402.133 241.555C402.305 241.383 402.516 241.297 402.766 241.297C403.016 241.297 403.227 241.383 403.398 241.555C403.57 241.727 403.656 241.938 403.656 242.188C403.656 242.438 403.57 242.648 403.398 242.82ZM405.641 234.977C405.641 233.992 405.995 233.174 406.703 232.523C407.411 231.867 408.297 231.539 409.359 231.539C410.365 231.539 411.216 231.839 411.914 232.438C412.612 233.036 412.961 233.768 412.961 234.633C412.961 235.258 412.789 235.859 412.445 236.438C412.102 237.016 411.456 237.794 410.508 238.773L407.656 241.719V241.75H413.148V243H405.711V242.031L409.68 237.852C410.435 237.055 410.935 236.451 411.18 236.039C411.43 235.628 411.555 235.188 411.555 234.719C411.555 234.177 411.336 233.716 410.898 233.336C410.466 232.956 409.94 232.766 409.32 232.766C408.659 232.766 408.107 232.977 407.664 233.398C407.221 233.82 407 234.346 407 234.977V234.984H405.641V234.977ZM417.648 243V233.219H417.617L414.633 235.367V233.883L417.633 231.727H419.008V243H417.648ZM425.812 243.188C424.505 243.188 423.484 242.667 422.75 241.625C422.021 240.578 421.656 239.156 421.656 237.359C421.656 235.578 422.023 234.164 422.758 233.117C423.497 232.065 424.516 231.539 425.812 231.539C427.109 231.539 428.122 232.062 428.852 233.109C429.586 234.151 429.953 235.565 429.953 237.352C429.953 239.148 429.589 240.57 428.859 241.617C428.13 242.664 427.115 243.188 425.812 243.188ZM423.789 240.727C424.268 241.549 424.943 241.961 425.812 241.961C426.682 241.961 427.354 241.552 427.828 240.734C428.302 239.911 428.539 238.786 428.539 237.359C428.539 235.953 428.299 234.839 427.82 234.016C427.341 233.188 426.672 232.773 425.812 232.773C424.953 232.773 424.281 233.188 423.797 234.016C423.312 234.844 423.07 235.956 423.07 237.352C423.07 238.779 423.31 239.904 423.789 240.727ZM433.008 242.82C432.836 242.992 432.625 243.078 432.375 243.078C432.125 243.078 431.914 242.992 431.742 242.82C431.57 242.648 431.484 242.438 431.484 242.188C431.484 241.938 431.57 241.727 431.742 241.555C431.914 241.383 432.125 241.297 432.375 241.297C432.625 241.297 432.836 241.383 433.008 241.555C433.18 241.727 433.266 241.938 433.266 242.188C433.266 242.438 433.18 242.648 433.008 242.82ZM437.258 243V233.219H437.227L434.242 235.367V233.883L437.242 231.727H438.617V243H437.258ZM445.062 243.188C444.104 243.188 443.284 242.922 442.602 242.391C441.919 241.859 441.492 241.151 441.32 240.266H442.75C442.901 240.776 443.188 241.188 443.609 241.5C444.031 241.807 444.521 241.961 445.078 241.961C446.016 241.961 446.742 241.555 447.258 240.742C447.779 239.924 448.049 238.766 448.07 237.266H448.062H448.047C447.807 237.823 447.401 238.271 446.828 238.609C446.26 238.943 445.617 239.109 444.898 239.109C443.826 239.109 442.932 238.755 442.219 238.047C441.51 237.339 441.156 236.451 441.156 235.383C441.156 234.268 441.531 233.349 442.281 232.625C443.036 231.896 443.992 231.531 445.148 231.531C445.997 231.531 446.745 231.753 447.391 232.195C448.036 232.633 448.531 233.255 448.875 234.062C449.245 234.917 449.43 235.953 449.43 237.172C449.43 239.073 449.047 240.552 448.281 241.609C447.516 242.661 446.443 243.188 445.062 243.188ZM445.141 237.875C445.885 237.875 446.505 237.638 447 237.164C447.495 236.69 447.742 236.094 447.742 235.375C447.742 234.651 447.492 234.042 446.992 233.547C446.497 233.047 445.888 232.797 445.164 232.797C444.44 232.797 443.828 233.044 443.328 233.539C442.828 234.029 442.578 234.628 442.578 235.336C442.578 236.07 442.82 236.677 443.305 237.156C443.789 237.635 444.401 237.875 445.141 237.875ZM456.414 243V240.656H450.75V239.383C451.234 238.482 451.849 237.453 452.594 236.297C453.344 235.141 454.378 233.617 455.695 231.727H457.773V239.422H459.367V240.656H457.773V243H456.414ZM452.141 239.391V239.422H456.414V232.898H456.391C454.417 235.716 453 237.88 452.141 239.391ZM462.492 242.82C462.32 242.992 462.109 243.078 461.859 243.078C461.609 243.078 461.398 242.992 461.227 242.82C461.055 242.648 460.969 242.438 460.969 242.188C460.969 241.938 461.055 241.727 461.227 241.555C461.398 241.383 461.609 241.297 461.859 241.297C462.109 241.297 462.32 241.383 462.492 241.555C462.664 241.727 462.75 241.938 462.75 242.188C462.75 242.438 462.664 242.648 462.492 242.82ZM467.039 237.797V236.609H468.391C469.036 236.609 469.565 236.424 469.977 236.055C470.388 235.68 470.594 235.206 470.594 234.633C470.594 234.06 470.404 233.604 470.023 233.266C469.643 232.927 469.104 232.758 468.406 232.758C467.76 232.758 467.234 232.93 466.828 233.273C466.422 233.617 466.188 234.086 466.125 234.68H464.773C464.852 233.721 465.221 232.958 465.883 232.391C466.549 231.823 467.411 231.539 468.469 231.539C469.484 231.539 470.328 231.812 471 232.359C471.672 232.906 472.008 233.602 472.008 234.445C472.008 235.148 471.799 235.74 471.383 236.219C470.966 236.698 470.404 237 469.695 237.125V237.156C470.549 237.208 471.229 237.482 471.734 237.977C472.24 238.466 472.492 239.107 472.492 239.898C472.492 240.529 472.315 241.096 471.961 241.602C471.607 242.107 471.128 242.497 470.523 242.773C469.919 243.049 469.25 243.188 468.516 243.188C467.349 243.188 466.409 242.896 465.695 242.312C464.982 241.729 464.599 240.964 464.547 240.016H465.898C465.961 240.604 466.224 241.078 466.688 241.438C467.151 241.792 467.755 241.969 468.5 241.969C469.245 241.969 469.857 241.779 470.336 241.398C470.82 241.018 471.062 240.534 471.062 239.945C471.062 239.284 470.828 238.76 470.359 238.375C469.896 237.99 469.26 237.797 468.453 237.797H467.039ZM478.086 243.188C476.893 243.188 475.914 242.885 475.148 242.281C474.383 241.672 474 240.896 474 239.953C474 239.25 474.221 238.633 474.664 238.102C475.107 237.57 475.693 237.221 476.422 237.055V237.023C475.812 236.836 475.331 236.518 474.977 236.07C474.622 235.617 474.445 235.094 474.445 234.5C474.445 233.651 474.789 232.945 475.477 232.383C476.169 231.82 477.039 231.539 478.086 231.539C479.138 231.539 480.005 231.82 480.688 232.383C481.375 232.94 481.719 233.648 481.719 234.508C481.719 235.096 481.544 235.615 481.195 236.062C480.846 236.51 480.365 236.831 479.75 237.023V237.055C480.479 237.227 481.065 237.578 481.508 238.109C481.956 238.641 482.18 239.255 482.18 239.953C482.18 240.896 481.797 241.672 481.031 242.281C480.266 242.885 479.284 243.188 478.086 243.188ZM478.086 241.961C478.862 241.961 479.497 241.763 479.992 241.367C480.492 240.971 480.742 240.466 480.742 239.852C480.742 239.232 480.492 238.724 479.992 238.328C479.497 237.932 478.862 237.734 478.086 237.734C477.31 237.734 476.672 237.935 476.172 238.336C475.677 238.732 475.43 239.237 475.43 239.852C475.43 240.466 475.68 240.971 476.18 241.367C476.68 241.763 477.315 241.961 478.086 241.961ZM478.086 236.5C478.742 236.5 479.279 236.326 479.695 235.977C480.117 235.628 480.328 235.18 480.328 234.633C480.328 234.081 480.12 233.63 479.703 233.281C479.286 232.927 478.747 232.75 478.086 232.75C477.424 232.75 476.885 232.927 476.469 233.281C476.052 233.63 475.844 234.081 475.844 234.633C475.844 235.18 476.052 235.628 476.469 235.977C476.885 236.326 477.424 236.5 478.086 236.5Z" fill="#959AC5"/>
<path d="M378.789 378V368.219H378.758L375.773 370.367V368.883L378.773 366.727H380.148V378H378.789ZM387.086 378.195C386.242 378.195 385.497 377.977 384.852 377.539C384.206 377.096 383.708 376.469 383.359 375.656C382.99 374.802 382.805 373.768 382.805 372.555C382.805 370.654 383.188 369.174 383.953 368.117C384.724 367.06 385.799 366.531 387.18 366.531C388.138 366.531 388.956 366.797 389.633 367.328C390.31 367.859 390.74 368.568 390.922 369.453H389.492C389.341 368.943 389.055 368.536 388.633 368.234C388.211 367.927 387.721 367.773 387.164 367.773C386.221 367.773 385.492 368.177 384.977 368.984C384.461 369.792 384.19 370.945 384.164 372.445H384.188C384.443 371.893 384.857 371.451 385.43 371.117C386.003 370.784 386.638 370.617 387.336 370.617C388.409 370.617 389.299 370.971 390.008 371.68C390.721 372.388 391.078 373.276 391.078 374.344C391.078 375.458 390.701 376.38 389.945 377.109C389.195 377.833 388.242 378.195 387.086 378.195ZM385.242 376.195C385.742 376.695 386.352 376.945 387.07 376.945C387.789 376.945 388.398 376.698 388.898 376.203C389.398 375.708 389.648 375.104 389.648 374.391C389.648 373.651 389.409 373.044 388.93 372.57C388.451 372.091 387.839 371.852 387.094 371.852C386.349 371.852 385.729 372.089 385.234 372.562C384.745 373.036 384.5 373.633 384.5 374.352C384.5 375.076 384.747 375.69 385.242 376.195ZM392.516 369.977C392.516 368.992 392.87 368.174 393.578 367.523C394.286 366.867 395.172 366.539 396.234 366.539C397.24 366.539 398.091 366.839 398.789 367.438C399.487 368.036 399.836 368.768 399.836 369.633C399.836 370.258 399.664 370.859 399.32 371.438C398.977 372.016 398.331 372.794 397.383 373.773L394.531 376.719V376.75H400.023V378H392.586V377.031L396.555 372.852C397.31 372.055 397.81 371.451 398.055 371.039C398.305 370.628 398.43 370.188 398.43 369.719C398.43 369.177 398.211 368.716 397.773 368.336C397.341 367.956 396.815 367.766 396.195 367.766C395.534 367.766 394.982 367.977 394.539 368.398C394.096 368.82 393.875 369.346 393.875 369.977V369.984H392.516V369.977ZM403.398 377.82C403.227 377.992 403.016 378.078 402.766 378.078C402.516 378.078 402.305 377.992 402.133 377.82C401.961 377.648 401.875 377.438 401.875 377.188C401.875 376.938 401.961 376.727 402.133 376.555C402.305 376.383 402.516 376.297 402.766 376.297C403.016 376.297 403.227 376.383 403.398 376.555C403.57 376.727 403.656 376.938 403.656 377.188C403.656 377.438 403.57 377.648 403.398 377.82ZM405.641 369.977C405.641 368.992 405.995 368.174 406.703 367.523C407.411 366.867 408.297 366.539 409.359 366.539C410.365 366.539 411.216 366.839 411.914 367.438C412.612 368.036 412.961 368.768 412.961 369.633C412.961 370.258 412.789 370.859 412.445 371.438C412.102 372.016 411.456 372.794 410.508 373.773L407.656 376.719V376.75H413.148V378H405.711V377.031L409.68 372.852C410.435 372.055 410.935 371.451 411.18 371.039C411.43 370.628 411.555 370.188 411.555 369.719C411.555 369.177 411.336 368.716 410.898 368.336C410.466 367.956 409.94 367.766 409.32 367.766C408.659 367.766 408.107 367.977 407.664 368.398C407.221 368.82 407 369.346 407 369.977V369.984H405.641V369.977ZM417.648 378V368.219H417.617L414.633 370.367V368.883L417.633 366.727H419.008V378H417.648ZM425.812 378.188C424.505 378.188 423.484 377.667 422.75 376.625C422.021 375.578 421.656 374.156 421.656 372.359C421.656 370.578 422.023 369.164 422.758 368.117C423.497 367.065 424.516 366.539 425.812 366.539C427.109 366.539 428.122 367.062 428.852 368.109C429.586 369.151 429.953 370.565 429.953 372.352C429.953 374.148 429.589 375.57 428.859 376.617C428.13 377.664 427.115 378.188 425.812 378.188ZM423.789 375.727C424.268 376.549 424.943 376.961 425.812 376.961C426.682 376.961 427.354 376.552 427.828 375.734C428.302 374.911 428.539 373.786 428.539 372.359C428.539 370.953 428.299 369.839 427.82 369.016C427.341 368.188 426.672 367.773 425.812 367.773C424.953 367.773 424.281 368.188 423.797 369.016C423.312 369.844 423.07 370.956 423.07 372.352C423.07 373.779 423.31 374.904 423.789 375.727ZM433.008 377.82C432.836 377.992 432.625 378.078 432.375 378.078C432.125 378.078 431.914 377.992 431.742 377.82C431.57 377.648 431.484 377.438 431.484 377.188C431.484 376.938 431.57 376.727 431.742 376.555C431.914 376.383 432.125 376.297 432.375 376.297C432.625 376.297 432.836 376.383 433.008 376.555C433.18 376.727 433.266 376.938 433.266 377.188C433.266 377.438 433.18 377.648 433.008 377.82ZM437.258 378V368.219H437.227L434.242 370.367V368.883L437.242 366.727H438.617V378H437.258ZM445.062 378.188C444.104 378.188 443.284 377.922 442.602 377.391C441.919 376.859 441.492 376.151 441.32 375.266H442.75C442.901 375.776 443.188 376.188 443.609 376.5C444.031 376.807 444.521 376.961 445.078 376.961C446.016 376.961 446.742 376.555 447.258 375.742C447.779 374.924 448.049 373.766 448.07 372.266H448.062H448.047C447.807 372.823 447.401 373.271 446.828 373.609C446.26 373.943 445.617 374.109 444.898 374.109C443.826 374.109 442.932 373.755 442.219 373.047C441.51 372.339 441.156 371.451 441.156 370.383C441.156 369.268 441.531 368.349 442.281 367.625C443.036 366.896 443.992 366.531 445.148 366.531C445.997 366.531 446.745 366.753 447.391 367.195C448.036 367.633 448.531 368.255 448.875 369.062C449.245 369.917 449.43 370.953 449.43 372.172C449.43 374.073 449.047 375.552 448.281 376.609C447.516 377.661 446.443 378.188 445.062 378.188ZM445.141 372.875C445.885 372.875 446.505 372.638 447 372.164C447.495 371.69 447.742 371.094 447.742 370.375C447.742 369.651 447.492 369.042 446.992 368.547C446.497 368.047 445.888 367.797 445.164 367.797C444.44 367.797 443.828 368.044 443.328 368.539C442.828 369.029 442.578 369.628 442.578 370.336C442.578 371.07 442.82 371.677 443.305 372.156C443.789 372.635 444.401 372.875 445.141 372.875ZM456.414 378V375.656H450.75V374.383C451.234 373.482 451.849 372.453 452.594 371.297C453.344 370.141 454.378 368.617 455.695 366.727H457.773V374.422H459.367V375.656H457.773V378H456.414ZM452.141 374.391V374.422H456.414V367.898H456.391C454.417 370.716 453 372.88 452.141 374.391ZM462.492 377.82C462.32 377.992 462.109 378.078 461.859 378.078C461.609 378.078 461.398 377.992 461.227 377.82C461.055 377.648 460.969 377.438 460.969 377.188C460.969 376.938 461.055 376.727 461.227 376.555C461.398 376.383 461.609 376.297 461.859 376.297C462.109 376.297 462.32 376.383 462.492 376.555C462.664 376.727 462.75 376.938 462.75 377.188C462.75 377.438 462.664 377.648 462.492 377.82ZM467.039 372.797V371.609H468.391C469.036 371.609 469.565 371.424 469.977 371.055C470.388 370.68 470.594 370.206 470.594 369.633C470.594 369.06 470.404 368.604 470.023 368.266C469.643 367.927 469.104 367.758 468.406 367.758C467.76 367.758 467.234 367.93 466.828 368.273C466.422 368.617 466.188 369.086 466.125 369.68H464.773C464.852 368.721 465.221 367.958 465.883 367.391C466.549 366.823 467.411 366.539 468.469 366.539C469.484 366.539 470.328 366.812 471 367.359C471.672 367.906 472.008 368.602 472.008 369.445C472.008 370.148 471.799 370.74 471.383 371.219C470.966 371.698 470.404 372 469.695 372.125V372.156C470.549 372.208 471.229 372.482 471.734 372.977C472.24 373.466 472.492 374.107 472.492 374.898C472.492 375.529 472.315 376.096 471.961 376.602C471.607 377.107 471.128 377.497 470.523 377.773C469.919 378.049 469.25 378.188 468.516 378.188C467.349 378.188 466.409 377.896 465.695 377.312C464.982 376.729 464.599 375.964 464.547 375.016H465.898C465.961 375.604 466.224 376.078 466.688 376.438C467.151 376.792 467.755 376.969 468.5 376.969C469.245 376.969 469.857 376.779 470.336 376.398C470.82 376.018 471.062 375.534 471.062 374.945C471.062 374.284 470.828 373.76 470.359 373.375C469.896 372.99 469.26 372.797 468.453 372.797H467.039ZM478.086 378.188C476.893 378.188 475.914 377.885 475.148 377.281C474.383 376.672 474 375.896 474 374.953C474 374.25 474.221 373.633 474.664 373.102C475.107 372.57 475.693 372.221 476.422 372.055V372.023C475.812 371.836 475.331 371.518 474.977 371.07C474.622 370.617 474.445 370.094 474.445 369.5C474.445 368.651 474.789 367.945 475.477 367.383C476.169 366.82 477.039 366.539 478.086 366.539C479.138 366.539 480.005 366.82 480.688 367.383C481.375 367.94 481.719 368.648 481.719 369.508C481.719 370.096 481.544 370.615 481.195 371.062C480.846 371.51 480.365 371.831 479.75 372.023V372.055C480.479 372.227 481.065 372.578 481.508 373.109C481.956 373.641 482.18 374.255 482.18 374.953C482.18 375.896 481.797 376.672 481.031 377.281C480.266 377.885 479.284 378.188 478.086 378.188ZM478.086 376.961C478.862 376.961 479.497 376.763 479.992 376.367C480.492 375.971 480.742 375.466 480.742 374.852C480.742 374.232 480.492 373.724 479.992 373.328C479.497 372.932 478.862 372.734 478.086 372.734C477.31 372.734 476.672 372.935 476.172 373.336C475.677 373.732 475.43 374.237 475.43 374.852C475.43 375.466 475.68 375.971 476.18 376.367C476.68 376.763 477.315 376.961 478.086 376.961ZM478.086 371.5C478.742 371.5 479.279 371.326 479.695 370.977C480.117 370.628 480.328 370.18 480.328 369.633C480.328 369.081 480.12 368.63 479.703 368.281C479.286 367.927 478.747 367.75 478.086 367.75C477.424 367.75 476.885 367.927 476.469 368.281C476.052 368.63 475.844 369.081 475.844 369.633C475.844 370.18 476.052 370.628 476.469 370.977C476.885 371.326 477.424 371.5 478.086 371.5Z" fill="#959AC5"/>
<path d="M718.25 378.141C717.115 378.141 716.203 377.763 715.516 377.008C714.828 376.247 714.484 375.224 714.484 373.938C714.484 372.651 714.828 371.63 715.516 370.875C716.203 370.115 717.115 369.734 718.25 369.734C719.38 369.734 720.289 370.115 720.977 370.875C721.664 371.63 722.008 372.651 722.008 373.938C722.008 375.219 721.664 376.24 720.977 377C720.289 377.76 719.38 378.141 718.25 378.141ZM716.508 376.148C716.94 376.68 717.521 376.945 718.25 376.945C718.979 376.945 719.557 376.682 719.984 376.156C720.411 375.625 720.625 374.885 720.625 373.938C720.625 372.99 720.411 372.253 719.984 371.727C719.557 371.195 718.979 370.93 718.25 370.93C717.521 370.93 716.94 371.195 716.508 371.727C716.081 372.258 715.867 372.995 715.867 373.938C715.867 374.88 716.081 375.617 716.508 376.148ZM723.82 378V370.992H722.688V369.875H723.82V368.969C723.82 368.188 724.003 367.609 724.367 367.234C724.737 366.854 725.297 366.664 726.047 366.664C726.339 366.664 726.615 366.685 726.875 366.727V367.828C726.656 367.797 726.451 367.781 726.258 367.781C725.534 367.781 725.172 368.18 725.172 368.977V369.875H726.836V370.992H725.18V378H723.82ZM728.68 378V370.992H727.547V369.875H728.68V368.969C728.68 368.188 728.862 367.609 729.227 367.234C729.596 366.854 730.156 366.664 730.906 366.664C731.198 366.664 731.474 366.685 731.734 366.727V367.828C731.516 367.797 731.31 367.781 731.117 367.781C730.393 367.781 730.031 368.18 730.031 368.977V369.875H731.695V370.992H730.039V378H728.68ZM733.172 378V369.875H734.531V378H733.172ZM733.852 368.508C733.622 368.508 733.424 368.424 733.258 368.258C733.091 368.091 733.008 367.893 733.008 367.664C733.008 367.43 733.091 367.232 733.258 367.07C733.424 366.904 733.622 366.82 733.852 366.82C734.086 366.82 734.286 366.904 734.453 367.07C734.62 367.232 734.703 367.43 734.703 367.664C734.703 367.893 734.62 368.091 734.453 368.258C734.286 368.424 734.086 368.508 733.852 368.508ZM743.117 372.539H741.789C741.685 372.07 741.453 371.685 741.094 371.383C740.74 371.081 740.279 370.93 739.711 370.93C739.003 370.93 738.432 371.203 738 371.75C737.568 372.292 737.352 373.021 737.352 373.938C737.352 374.87 737.568 375.604 738 376.141C738.438 376.677 739.013 376.945 739.727 376.945C740.273 376.945 740.724 376.81 741.078 376.539C741.438 376.263 741.677 375.878 741.797 375.383H743.133C743.029 376.195 742.661 376.859 742.031 377.375C741.406 377.885 740.635 378.141 739.719 378.141C738.583 378.141 737.674 377.766 736.992 377.016C736.31 376.26 735.969 375.234 735.969 373.938C735.969 372.661 736.31 371.643 736.992 370.883C737.674 370.117 738.578 369.734 739.703 369.734C740.672 369.734 741.458 370.008 742.062 370.555C742.672 371.102 743.023 371.763 743.117 372.539ZM747.641 370.914C747.01 370.914 746.487 371.133 746.07 371.57C745.659 372.003 745.432 372.56 745.391 373.242H749.805C749.789 372.555 749.583 371.995 749.188 371.562C748.792 371.13 748.276 370.914 747.641 370.914ZM749.773 375.672H751.109C750.99 376.391 750.615 376.982 749.984 377.445C749.359 377.909 748.607 378.141 747.727 378.141C746.565 378.141 745.651 377.766 744.984 377.016C744.318 376.266 743.984 375.25 743.984 373.969C743.984 372.698 744.318 371.674 744.984 370.898C745.656 370.122 746.549 369.734 747.664 369.734C748.758 369.734 749.622 370.102 750.258 370.836C750.893 371.57 751.211 372.555 751.211 373.789V374.305H745.383V374.383C745.383 375.164 745.596 375.789 746.023 376.258C746.451 376.727 747.029 376.961 747.758 376.961C748.268 376.961 748.703 376.844 749.062 376.609C749.422 376.375 749.659 376.062 749.773 375.672Z" fill="#959AC5"/>
<path d="M117.852 196.188C116.237 196.188 114.958 195.667 114.016 194.625C113.078 193.583 112.609 192.161 112.609 190.359C112.609 188.568 113.081 187.151 114.023 186.109C114.971 185.062 116.247 184.539 117.852 184.539C119.164 184.539 120.271 184.914 121.172 185.664C122.073 186.409 122.586 187.385 122.711 188.594H120.727C120.596 187.885 120.266 187.318 119.734 186.891C119.208 186.464 118.581 186.25 117.852 186.25C116.883 186.25 116.109 186.622 115.531 187.367C114.958 188.107 114.672 189.104 114.672 190.359C114.672 191.625 114.958 192.628 115.531 193.367C116.104 194.107 116.88 194.477 117.859 194.477C118.604 194.477 119.229 194.286 119.734 193.906C120.245 193.521 120.578 192.99 120.734 192.312H122.711C122.534 193.521 122.013 194.469 121.148 195.156C120.284 195.844 119.185 196.188 117.852 196.188ZM124.102 196V184.727H126.047V196H124.102ZM134.289 195.016C133.565 195.781 132.591 196.164 131.367 196.164C130.143 196.164 129.169 195.781 128.445 195.016C127.721 194.245 127.359 193.193 127.359 191.859C127.359 190.531 127.724 189.482 128.453 188.711C129.182 187.935 130.154 187.547 131.367 187.547C132.586 187.547 133.557 187.935 134.281 188.711C135.01 189.482 135.375 190.531 135.375 191.859C135.375 193.193 135.013 194.245 134.289 195.016ZM129.883 193.898C130.247 194.383 130.742 194.625 131.367 194.625C131.992 194.625 132.487 194.383 132.852 193.898C133.216 193.414 133.398 192.734 133.398 191.859C133.398 190.99 133.216 190.312 132.852 189.828C132.487 189.339 131.992 189.094 131.367 189.094C130.747 189.094 130.253 189.339 129.883 189.828C129.518 190.312 129.336 190.99 129.336 191.859C129.336 192.734 129.518 193.414 129.883 193.898ZM143.922 190.672H142.086C142.003 190.208 141.805 189.836 141.492 189.555C141.18 189.268 140.773 189.125 140.273 189.125C139.659 189.125 139.169 189.37 138.805 189.859C138.44 190.344 138.258 191.01 138.258 191.859C138.258 192.719 138.44 193.391 138.805 193.875C139.169 194.354 139.664 194.594 140.289 194.594C140.779 194.594 141.18 194.464 141.492 194.203C141.805 193.938 142.005 193.568 142.094 193.094H143.93C143.852 194.021 143.479 194.766 142.812 195.328C142.151 195.885 141.302 196.164 140.266 196.164C139.047 196.164 138.078 195.781 137.359 195.016C136.641 194.245 136.281 193.193 136.281 191.859C136.281 190.542 136.641 189.495 137.359 188.719C138.078 187.938 139.042 187.547 140.25 187.547C141.312 187.547 142.172 187.844 142.828 188.438C143.49 189.026 143.854 189.771 143.922 190.672ZM147.117 191.172L150.234 187.719H152.477L149.164 191.281L152.617 196H150.367L147.75 192.461L147.094 193.125V196H145.148V184.727H147.094V191.172H147.117Z" fill="#464255"/>
<path d="M117.852 331.188C116.237 331.188 114.958 330.667 114.016 329.625C113.078 328.583 112.609 327.161 112.609 325.359C112.609 323.568 113.081 322.151 114.023 321.109C114.971 320.062 116.247 319.539 117.852 319.539C119.164 319.539 120.271 319.914 121.172 320.664C122.073 321.409 122.586 322.385 122.711 323.594H120.727C120.596 322.885 120.266 322.318 119.734 321.891C119.208 321.464 118.581 321.25 117.852 321.25C116.883 321.25 116.109 321.622 115.531 322.367C114.958 323.107 114.672 324.104 114.672 325.359C114.672 326.625 114.958 327.628 115.531 328.367C116.104 329.107 116.88 329.477 117.859 329.477C118.604 329.477 119.229 329.286 119.734 328.906C120.245 328.521 120.578 327.99 120.734 327.312H122.711C122.534 328.521 122.013 329.469 121.148 330.156C120.284 330.844 119.185 331.188 117.852 331.188ZM124.102 331V319.727H126.047V331H124.102ZM134.289 330.016C133.565 330.781 132.591 331.164 131.367 331.164C130.143 331.164 129.169 330.781 128.445 330.016C127.721 329.245 127.359 328.193 127.359 326.859C127.359 325.531 127.724 324.482 128.453 323.711C129.182 322.935 130.154 322.547 131.367 322.547C132.586 322.547 133.557 322.935 134.281 323.711C135.01 324.482 135.375 325.531 135.375 326.859C135.375 328.193 135.013 329.245 134.289 330.016ZM129.883 328.898C130.247 329.383 130.742 329.625 131.367 329.625C131.992 329.625 132.487 329.383 132.852 328.898C133.216 328.414 133.398 327.734 133.398 326.859C133.398 325.99 133.216 325.312 132.852 324.828C132.487 324.339 131.992 324.094 131.367 324.094C130.747 324.094 130.253 324.339 129.883 324.828C129.518 325.312 129.336 325.99 129.336 326.859C129.336 327.734 129.518 328.414 129.883 328.898ZM143.922 325.672H142.086C142.003 325.208 141.805 324.836 141.492 324.555C141.18 324.268 140.773 324.125 140.273 324.125C139.659 324.125 139.169 324.37 138.805 324.859C138.44 325.344 138.258 326.01 138.258 326.859C138.258 327.719 138.44 328.391 138.805 328.875C139.169 329.354 139.664 329.594 140.289 329.594C140.779 329.594 141.18 329.464 141.492 329.203C141.805 328.938 142.005 328.568 142.094 328.094H143.93C143.852 329.021 143.479 329.766 142.812 330.328C142.151 330.885 141.302 331.164 140.266 331.164C139.047 331.164 138.078 330.781 137.359 330.016C136.641 329.245 136.281 328.193 136.281 326.859C136.281 325.542 136.641 324.495 137.359 323.719C138.078 322.938 139.042 322.547 140.25 322.547C141.312 322.547 142.172 322.844 142.828 323.438C143.49 324.026 143.854 324.771 143.922 325.672ZM147.117 326.172L150.234 322.719H152.477L149.164 326.281L152.617 331H150.367L147.75 327.461L147.094 328.125V331H145.148V319.727H147.094V326.172H147.117ZM161.758 319.539C163.398 319.539 164.698 320.062 165.656 321.109C166.62 322.156 167.102 323.576 167.102 325.367C167.102 327.159 166.62 328.578 165.656 329.625C164.698 330.667 163.398 331.188 161.758 331.188C160.112 331.188 158.807 330.667 157.844 329.625C156.885 328.578 156.406 327.159 156.406 325.367C156.406 323.576 156.885 322.156 157.844 321.109C158.807 320.062 160.112 319.539 161.758 319.539ZM164.156 322.375C163.562 321.63 162.763 321.258 161.758 321.258C160.753 321.258 159.953 321.628 159.359 322.367C158.766 323.107 158.469 324.107 158.469 325.367C158.469 326.622 158.766 327.62 159.359 328.359C159.953 329.099 160.753 329.469 161.758 329.469C162.763 329.469 163.562 329.099 164.156 328.359C164.75 327.62 165.047 326.622 165.047 325.367C165.047 324.112 164.75 323.115 164.156 322.375ZM175.859 322.719V331H173.984V329.562H173.945C173.487 330.62 172.643 331.148 171.414 331.148C170.513 331.148 169.797 330.875 169.266 330.328C168.74 329.776 168.477 329.023 168.477 328.07V322.719H170.422V327.68C170.422 328.273 170.562 328.727 170.844 329.039C171.13 329.352 171.547 329.508 172.094 329.508C172.651 329.508 173.094 329.326 173.422 328.961C173.75 328.596 173.914 328.112 173.914 327.508V322.719H175.859ZM177.992 320.781H179.938V322.719H181.5V324.219H179.938V328.523C179.938 328.862 180.018 329.112 180.18 329.273C180.341 329.435 180.594 329.516 180.938 329.516C181.167 329.516 181.352 329.503 181.492 329.477V330.961C181.258 331.013 180.922 331.039 180.484 331.039C179.589 331.039 178.948 330.867 178.562 330.523C178.182 330.18 177.992 329.604 177.992 328.797V324.219H176.805V322.719H177.992V320.781Z" fill="#464255"/>
<path d="M355.008 196H352.992V184.727H355.008V196ZM356.992 184.727H361.375C362.5 184.727 363.414 185.076 364.117 185.773C364.82 186.466 365.172 187.375 365.172 188.5C365.172 189.62 364.81 190.529 364.086 191.227C363.367 191.924 362.435 192.273 361.289 192.273H359.008V196H356.992V184.727ZM359.008 186.375V190.648H360.836C361.56 190.648 362.122 190.461 362.523 190.086C362.924 189.711 363.125 189.182 363.125 188.5C363.125 187.823 362.924 187.299 362.523 186.93C362.128 186.56 361.568 186.375 360.844 186.375H359.008ZM374.711 196.188C373.096 196.188 371.818 195.667 370.875 194.625C369.938 193.583 369.469 192.161 369.469 190.359C369.469 188.568 369.94 187.151 370.883 186.109C371.831 185.062 373.107 184.539 374.711 184.539C376.023 184.539 377.13 184.914 378.031 185.664C378.932 186.409 379.445 187.385 379.57 188.594H377.586C377.456 187.885 377.125 187.318 376.594 186.891C376.068 186.464 375.44 186.25 374.711 186.25C373.742 186.25 372.969 186.622 372.391 187.367C371.818 188.107 371.531 189.104 371.531 190.359C371.531 191.625 371.818 192.628 372.391 193.367C372.964 194.107 373.74 194.477 374.719 194.477C375.464 194.477 376.089 194.286 376.594 193.906C377.104 193.521 377.438 192.99 377.594 192.312H379.57C379.393 193.521 378.872 194.469 378.008 195.156C377.143 195.844 376.044 196.188 374.711 196.188ZM380.961 196V184.727H382.906V196H380.961ZM391.148 195.016C390.424 195.781 389.451 196.164 388.227 196.164C387.003 196.164 386.029 195.781 385.305 195.016C384.581 194.245 384.219 193.193 384.219 191.859C384.219 190.531 384.583 189.482 385.312 188.711C386.042 187.935 387.013 187.547 388.227 187.547C389.445 187.547 390.417 187.935 391.141 188.711C391.87 189.482 392.234 190.531 392.234 191.859C392.234 193.193 391.872 194.245 391.148 195.016ZM386.742 193.898C387.107 194.383 387.602 194.625 388.227 194.625C388.852 194.625 389.346 194.383 389.711 193.898C390.076 193.414 390.258 192.734 390.258 191.859C390.258 190.99 390.076 190.312 389.711 189.828C389.346 189.339 388.852 189.094 388.227 189.094C387.607 189.094 387.112 189.339 386.742 189.828C386.378 190.312 386.195 190.99 386.195 191.859C386.195 192.734 386.378 193.414 386.742 193.898ZM400.781 190.672H398.945C398.862 190.208 398.664 189.836 398.352 189.555C398.039 189.268 397.633 189.125 397.133 189.125C396.518 189.125 396.029 189.37 395.664 189.859C395.299 190.344 395.117 191.01 395.117 191.859C395.117 192.719 395.299 193.391 395.664 193.875C396.029 194.354 396.523 194.594 397.148 194.594C397.638 194.594 398.039 194.464 398.352 194.203C398.664 193.938 398.865 193.568 398.953 193.094H400.789C400.711 194.021 400.339 194.766 399.672 195.328C399.01 195.885 398.161 196.164 397.125 196.164C395.906 196.164 394.938 195.781 394.219 195.016C393.5 194.245 393.141 193.193 393.141 191.859C393.141 190.542 393.5 189.495 394.219 188.719C394.938 187.938 395.901 187.547 397.109 187.547C398.172 187.547 399.031 187.844 399.688 188.438C400.349 189.026 400.714 189.771 400.781 190.672ZM403.977 191.172L407.094 187.719H409.336L406.023 191.281L409.477 196H407.227L404.609 192.461L403.953 193.125V196H402.008V184.727H403.953V191.172H403.977Z" fill="#464255"/>
<path d="M357.852 331.188C356.237 331.188 354.958 330.667 354.016 329.625C353.078 328.583 352.609 327.161 352.609 325.359C352.609 323.568 353.081 322.151 354.023 321.109C354.971 320.062 356.247 319.539 357.852 319.539C359.164 319.539 360.271 319.914 361.172 320.664C362.073 321.409 362.586 322.385 362.711 323.594H360.727C360.596 322.885 360.266 322.318 359.734 321.891C359.208 321.464 358.581 321.25 357.852 321.25C356.883 321.25 356.109 321.622 355.531 322.367C354.958 323.107 354.672 324.104 354.672 325.359C354.672 326.625 354.958 327.628 355.531 328.367C356.104 329.107 356.88 329.477 357.859 329.477C358.604 329.477 359.229 329.286 359.734 328.906C360.245 328.521 360.578 327.99 360.734 327.312H362.711C362.534 328.521 362.013 329.469 361.148 330.156C360.284 330.844 359.185 331.188 357.852 331.188ZM364.102 331V319.727H366.047V331H364.102ZM374.289 330.016C373.565 330.781 372.591 331.164 371.367 331.164C370.143 331.164 369.169 330.781 368.445 330.016C367.721 329.245 367.359 328.193 367.359 326.859C367.359 325.531 367.724 324.482 368.453 323.711C369.182 322.935 370.154 322.547 371.367 322.547C372.586 322.547 373.557 322.935 374.281 323.711C375.01 324.482 375.375 325.531 375.375 326.859C375.375 328.193 375.013 329.245 374.289 330.016ZM369.883 328.898C370.247 329.383 370.742 329.625 371.367 329.625C371.992 329.625 372.487 329.383 372.852 328.898C373.216 328.414 373.398 327.734 373.398 326.859C373.398 325.99 373.216 325.312 372.852 324.828C372.487 324.339 371.992 324.094 371.367 324.094C370.747 324.094 370.253 324.339 369.883 324.828C369.518 325.312 369.336 325.99 369.336 326.859C369.336 327.734 369.518 328.414 369.883 328.898ZM383.922 325.672H382.086C382.003 325.208 381.805 324.836 381.492 324.555C381.18 324.268 380.773 324.125 380.273 324.125C379.659 324.125 379.169 324.37 378.805 324.859C378.44 325.344 378.258 326.01 378.258 326.859C378.258 327.719 378.44 328.391 378.805 328.875C379.169 329.354 379.664 329.594 380.289 329.594C380.779 329.594 381.18 329.464 381.492 329.203C381.805 328.938 382.005 328.568 382.094 328.094H383.93C383.852 329.021 383.479 329.766 382.812 330.328C382.151 330.885 381.302 331.164 380.266 331.164C379.047 331.164 378.078 330.781 377.359 330.016C376.641 329.245 376.281 328.193 376.281 326.859C376.281 325.542 376.641 324.495 377.359 323.719C378.078 322.938 379.042 322.547 380.25 322.547C381.312 322.547 382.172 322.844 382.828 323.438C383.49 324.026 383.854 324.771 383.922 325.672ZM387.117 326.172L390.234 322.719H392.477L389.164 326.281L392.617 331H390.367L387.75 327.461L387.094 328.125V331H385.148V319.727H387.094V326.172H387.117ZM401.758 319.539C403.398 319.539 404.698 320.062 405.656 321.109C406.62 322.156 407.102 323.576 407.102 325.367C407.102 327.159 406.62 328.578 405.656 329.625C404.698 330.667 403.398 331.188 401.758 331.188C400.112 331.188 398.807 330.667 397.844 329.625C396.885 328.578 396.406 327.159 396.406 325.367C396.406 323.576 396.885 322.156 397.844 321.109C398.807 320.062 400.112 319.539 401.758 319.539ZM404.156 322.375C403.562 321.63 402.763 321.258 401.758 321.258C400.753 321.258 399.953 321.628 399.359 322.367C398.766 323.107 398.469 324.107 398.469 325.367C398.469 326.622 398.766 327.62 399.359 328.359C399.953 329.099 400.753 329.469 401.758 329.469C402.763 329.469 403.562 329.099 404.156 328.359C404.75 327.62 405.047 326.622 405.047 325.367C405.047 324.112 404.75 323.115 404.156 322.375ZM415.859 322.719V331H413.984V329.562H413.945C413.487 330.62 412.643 331.148 411.414 331.148C410.513 331.148 409.797 330.875 409.266 330.328C408.74 329.776 408.477 329.023 408.477 328.07V322.719H410.422V327.68C410.422 328.273 410.562 328.727 410.844 329.039C411.13 329.352 411.547 329.508 412.094 329.508C412.651 329.508 413.094 329.326 413.422 328.961C413.75 328.596 413.914 328.112 413.914 327.508V322.719H415.859ZM417.992 320.781H419.938V322.719H421.5V324.219H419.938V328.523C419.938 328.862 420.018 329.112 420.18 329.273C420.341 329.435 420.594 329.516 420.938 329.516C421.167 329.516 421.352 329.503 421.492 329.477V330.961C421.258 331.013 420.922 331.039 420.484 331.039C419.589 331.039 418.948 330.867 418.562 330.523C418.182 330.18 417.992 329.604 417.992 328.797V324.219H416.805V322.719H417.992V320.781ZM428.242 331H426.227V319.727H428.242V331ZM430.227 319.727H434.609C435.734 319.727 436.648 320.076 437.352 320.773C438.055 321.466 438.406 322.375 438.406 323.5C438.406 324.62 438.044 325.529 437.32 326.227C436.602 326.924 435.669 327.273 434.523 327.273H432.242V331H430.227V319.727ZM432.242 321.375V325.648H434.07C434.794 325.648 435.357 325.461 435.758 325.086C436.159 324.711 436.359 324.182 436.359 323.5C436.359 322.823 436.159 322.299 435.758 321.93C435.362 321.56 434.802 321.375 434.078 321.375H432.242Z" fill="#464255"/>
<path d="M698.562 322.844L696.258 331H694.359L691.336 319.727H693.43L695.383 328.266H695.445L697.711 319.727H699.492L701.758 328.266H701.82L703.773 319.727H705.867L702.844 331H700.945L698.641 322.844H698.562ZM712.68 330.016C711.956 330.781 710.982 331.164 709.758 331.164C708.534 331.164 707.56 330.781 706.836 330.016C706.112 329.245 705.75 328.193 705.75 326.859C705.75 325.531 706.115 324.482 706.844 323.711C707.573 322.935 708.544 322.547 709.758 322.547C710.977 322.547 711.948 322.935 712.672 323.711C713.401 324.482 713.766 325.531 713.766 326.859C713.766 328.193 713.404 329.245 712.68 330.016ZM708.273 328.898C708.638 329.383 709.133 329.625 709.758 329.625C710.383 329.625 710.878 329.383 711.242 328.898C711.607 328.414 711.789 327.734 711.789 326.859C711.789 325.99 711.607 325.312 711.242 324.828C710.878 324.339 710.383 324.094 709.758 324.094C709.138 324.094 708.643 324.339 708.273 324.828C707.909 325.312 707.727 325.99 707.727 326.859C707.727 327.734 707.909 328.414 708.273 328.898ZM715.016 331V322.719H716.883V324.164H716.922C717.062 323.659 717.305 323.268 717.648 322.992C717.997 322.716 718.417 322.578 718.906 322.578C719.078 322.578 719.281 322.604 719.516 322.656V324.414C719.323 324.341 719.06 324.305 718.727 324.305C718.174 324.305 717.742 324.471 717.43 324.805C717.117 325.138 716.961 325.596 716.961 326.18V331H715.016ZM722.539 326.172L725.656 322.719H727.898L724.586 326.281L728.039 331H725.789L723.172 327.461L722.516 328.125V331H720.57V319.727H722.516V326.172H722.539ZM732.555 331V324.219H731.422V322.742H732.555V322.008C732.555 321.195 732.758 320.599 733.164 320.219C733.576 319.833 734.227 319.641 735.117 319.641C735.518 319.641 735.867 319.669 736.164 319.727V321.086C735.945 321.055 735.74 321.039 735.547 321.039C734.828 321.039 734.469 321.38 734.469 322.062V322.742H736.125V324.219H734.5V331H732.555ZM737.406 331V322.719H739.273V324.164H739.312C739.453 323.659 739.695 323.268 740.039 322.992C740.388 322.716 740.807 322.578 741.297 322.578C741.469 322.578 741.672 322.604 741.906 322.656V324.414C741.714 324.341 741.451 324.305 741.117 324.305C740.565 324.305 740.133 324.471 739.82 324.805C739.508 325.138 739.352 325.596 739.352 326.18V331H737.406ZM749.18 330.016C748.456 330.781 747.482 331.164 746.258 331.164C745.034 331.164 744.06 330.781 743.336 330.016C742.612 329.245 742.25 328.193 742.25 326.859C742.25 325.531 742.615 324.482 743.344 323.711C744.073 322.935 745.044 322.547 746.258 322.547C747.477 322.547 748.448 322.935 749.172 323.711C749.901 324.482 750.266 325.531 750.266 326.859C750.266 328.193 749.904 329.245 749.18 330.016ZM744.773 328.898C745.138 329.383 745.633 329.625 746.258 329.625C746.883 329.625 747.378 329.383 747.742 328.898C748.107 328.414 748.289 327.734 748.289 326.859C748.289 325.99 748.107 325.312 747.742 324.828C747.378 324.339 746.883 324.094 746.258 324.094C745.638 324.094 745.143 324.339 744.773 324.828C744.409 325.312 744.227 325.99 744.227 326.859C744.227 327.734 744.409 328.414 744.773 328.898ZM751.516 331V322.719H753.383V324.156H753.422C753.604 323.667 753.904 323.279 754.32 322.992C754.737 322.706 755.224 322.562 755.781 322.562C756.365 322.562 756.857 322.708 757.258 323C757.664 323.286 757.943 323.695 758.094 324.227H758.141C758.339 323.716 758.667 323.312 759.125 323.016C759.589 322.714 760.12 322.562 760.719 322.562C761.536 322.562 762.19 322.815 762.68 323.32C763.174 323.826 763.422 324.492 763.422 325.32V331H761.477V325.797C761.477 325.286 761.346 324.893 761.086 324.617C760.831 324.341 760.466 324.203 759.992 324.203C759.523 324.203 759.143 324.359 758.852 324.672C758.56 324.984 758.414 325.388 758.414 325.883V331H756.523V325.695C756.523 325.237 756.391 324.875 756.125 324.609C755.865 324.339 755.508 324.203 755.055 324.203C754.586 324.203 754.203 324.367 753.906 324.695C753.609 325.018 753.461 325.43 753.461 325.93V331H751.516Z" fill="#464255"/>
<path d="M600.125 210.297V212H592.992V200.727H595.008V210.297H600.125ZM604.398 210.664C604.956 210.664 605.424 210.5 605.805 210.172C606.19 209.839 606.383 209.424 606.383 208.93V208.297L604.469 208.414C604 208.445 603.635 208.562 603.375 208.766C603.12 208.964 602.992 209.227 602.992 209.555C602.992 209.893 603.12 210.164 603.375 210.367C603.635 210.565 603.977 210.664 604.398 210.664ZM603.812 212.133C603.005 212.133 602.341 211.901 601.82 211.438C601.305 210.974 601.047 210.372 601.047 209.633C601.047 208.898 601.318 208.318 601.859 207.891C602.406 207.464 603.185 207.219 604.195 207.156L606.383 207.031V206.438C606.383 206.005 606.245 205.669 605.969 205.43C605.698 205.19 605.32 205.07 604.836 205.07C604.383 205.07 604.013 205.172 603.727 205.375C603.44 205.578 603.266 205.854 603.203 206.203H601.398C601.44 205.417 601.776 204.779 602.406 204.289C603.042 203.794 603.878 203.547 604.914 203.547C605.94 203.547 606.76 203.797 607.375 204.297C607.995 204.797 608.305 205.464 608.305 206.297V212H606.43V210.68H606.391C606.156 211.122 605.802 211.477 605.328 211.742C604.854 212.003 604.349 212.133 603.812 212.133ZM610.414 201.781H612.359V203.719H613.922V205.219H612.359V209.523C612.359 209.862 612.44 210.112 612.602 210.273C612.763 210.435 613.016 210.516 613.359 210.516C613.589 210.516 613.773 210.503 613.914 210.477V211.961C613.68 212.013 613.344 212.039 612.906 212.039C612.01 212.039 611.37 211.867 610.984 211.523C610.604 211.18 610.414 210.604 610.414 209.797V205.219H609.227V203.719H610.414V201.781ZM618.664 205.055C618.122 205.055 617.669 205.242 617.305 205.617C616.945 205.987 616.745 206.464 616.703 207.047H620.57C620.549 206.458 620.365 205.979 620.016 205.609C619.667 205.24 619.216 205.055 618.664 205.055ZM620.578 209.523H622.398C622.273 210.31 621.875 210.948 621.203 211.438C620.531 211.922 619.708 212.164 618.734 212.164C617.495 212.164 616.521 211.784 615.812 211.023C615.104 210.258 614.75 209.214 614.75 207.891C614.75 206.578 615.102 205.526 615.805 204.734C616.513 203.943 617.464 203.547 618.656 203.547C619.828 203.547 620.758 203.924 621.445 204.68C622.133 205.43 622.477 206.435 622.477 207.695V208.328H616.688V208.445C616.688 209.112 616.875 209.648 617.25 210.055C617.63 210.461 618.138 210.664 618.773 210.664C619.221 210.664 619.607 210.562 619.93 210.359C620.258 210.151 620.474 209.872 620.578 209.523Z" fill="#464255"/>
<path d="M602.5 348H600.492V343.109H595.008V348H592.992V336.727H595.008V341.414H600.492V336.727H602.5V348ZM607.117 346.664C607.674 346.664 608.143 346.5 608.523 346.172C608.909 345.839 609.102 345.424 609.102 344.93V344.297L607.188 344.414C606.719 344.445 606.354 344.562 606.094 344.766C605.839 344.964 605.711 345.227 605.711 345.555C605.711 345.893 605.839 346.164 606.094 346.367C606.354 346.565 606.695 346.664 607.117 346.664ZM606.531 348.133C605.724 348.133 605.06 347.901 604.539 347.438C604.023 346.974 603.766 346.372 603.766 345.633C603.766 344.898 604.036 344.318 604.578 343.891C605.125 343.464 605.904 343.219 606.914 343.156L609.102 343.031V342.438C609.102 342.005 608.964 341.669 608.688 341.43C608.417 341.19 608.039 341.07 607.555 341.07C607.102 341.07 606.732 341.172 606.445 341.375C606.159 341.578 605.984 341.854 605.922 342.203H604.117C604.159 341.417 604.495 340.779 605.125 340.289C605.76 339.794 606.596 339.547 607.633 339.547C608.659 339.547 609.479 339.797 610.094 340.297C610.714 340.797 611.023 341.464 611.023 342.297V348H609.148V346.68H609.109C608.875 347.122 608.521 347.477 608.047 347.742C607.573 348.003 607.068 348.133 606.531 348.133ZM612.648 348V336.727H614.594V348H612.648ZM616.789 348V341.219H615.656V339.742H616.789V339.008C616.789 338.195 616.992 337.599 617.398 337.219C617.81 336.833 618.461 336.641 619.352 336.641C619.753 336.641 620.102 336.669 620.398 336.727V338.086C620.18 338.055 619.974 338.039 619.781 338.039C619.062 338.039 618.703 338.38 618.703 339.062V339.742H620.359V341.219H618.734V348H616.789ZM627.938 348.133C626.891 348.133 626.055 347.747 625.43 346.977C624.81 346.206 624.5 345.164 624.5 343.852C624.5 342.544 624.81 341.505 625.43 340.734C626.055 339.964 626.891 339.578 627.938 339.578C628.521 339.578 629.036 339.716 629.484 339.992C629.938 340.268 630.276 340.641 630.5 341.109H630.547V336.727H632.492V348H630.586V346.586H630.555C630.326 347.06 629.979 347.438 629.516 347.719C629.057 347.995 628.531 348.133 627.938 348.133ZM628.523 341.18C627.898 341.18 627.404 341.422 627.039 341.906C626.674 342.385 626.492 343.036 626.492 343.859C626.492 344.688 626.672 345.341 627.031 345.82C627.396 346.299 627.893 346.539 628.523 346.539C629.138 346.539 629.63 346.297 630 345.812C630.37 345.328 630.555 344.677 630.555 343.859C630.555 343.047 630.37 342.398 630 341.914C629.63 341.424 629.138 341.18 628.523 341.18ZM637.148 346.664C637.706 346.664 638.174 346.5 638.555 346.172C638.94 345.839 639.133 345.424 639.133 344.93V344.297L637.219 344.414C636.75 344.445 636.385 344.562 636.125 344.766C635.87 344.964 635.742 345.227 635.742 345.555C635.742 345.893 635.87 346.164 636.125 346.367C636.385 346.565 636.727 346.664 637.148 346.664ZM636.562 348.133C635.755 348.133 635.091 347.901 634.57 347.438C634.055 346.974 633.797 346.372 633.797 345.633C633.797 344.898 634.068 344.318 634.609 343.891C635.156 343.464 635.935 343.219 636.945 343.156L639.133 343.031V342.438C639.133 342.005 638.995 341.669 638.719 341.43C638.448 341.19 638.07 341.07 637.586 341.07C637.133 341.07 636.763 341.172 636.477 341.375C636.19 341.578 636.016 341.854 635.953 342.203H634.148C634.19 341.417 634.526 340.779 635.156 340.289C635.792 339.794 636.628 339.547 637.664 339.547C638.69 339.547 639.51 339.797 640.125 340.297C640.745 340.797 641.055 341.464 641.055 342.297V348H639.18V346.68H639.141C638.906 347.122 638.552 347.477 638.078 347.742C637.604 348.003 637.099 348.133 636.562 348.133ZM643.516 351.078C643.094 351.078 642.839 351.068 642.75 351.047V349.508C642.839 349.529 643.026 349.539 643.312 349.539C643.714 349.539 644.026 349.456 644.25 349.289C644.474 349.122 644.641 348.849 644.75 348.469C644.75 348.464 644.768 348.388 644.805 348.242C644.846 348.096 644.865 348.018 644.859 348.008L641.914 339.719H644.039L645.992 346.344H646.023L647.977 339.719H650.023L647.031 348.328C646.677 349.354 646.24 350.068 645.719 350.469C645.198 350.875 644.464 351.078 643.516 351.078Z" fill="#464255"/>
<path fill-rule="evenodd" clip-rule="evenodd" d="M899.44 103.091C898.854 103.677 898.854 104.627 899.44 105.213C900.025 105.799 900.975 105.799 901.561 105.213L906.156 100.617L910.753 105.214C911.339 105.8 912.289 105.8 912.874 105.214C913.46 104.628 913.46 103.679 912.874 103.093L908.278 98.4961L912.875 93.899C913.46 93.3133 913.46 92.3635 912.875 91.7777C912.289 91.1919 911.339 91.1919 910.753 91.7777L906.156 96.3747L901.561 91.7792C900.975 91.1934 900.025 91.1934 899.439 91.7792C898.854 92.3649 898.854 93.3147 899.439 93.9005L904.035 98.4961L899.44 103.091Z" fill="black"/>
<path fill-rule="evenodd" clip-rule="evenodd" d="M645 437C644.448 437 644 437.448 644 438V440H642C641.448 440 641 440.448 641 441C641 441.552 641.448 442 642 442H644V444C644 444.552 644.448 445 645 445C645.552 445 646 444.552 646 444V442H648C648.552 442 649 441.552 649 441C649 440.448 648.552 440 648 440H646V438C646 437.448 645.552 437 645 437Z" fill="white"/>
<path d="M113.948 100.862H121.873C123.924 100.862 125.594 101.507 126.883 102.796C128.182 104.085 128.831 105.755 128.831 107.806C128.831 109.866 128.172 111.546 126.854 112.845C125.545 114.134 123.851 114.778 121.771 114.778H117.229V122H113.948V100.862ZM117.229 103.631V112.024H120.994C122.42 112.024 123.523 111.658 124.305 110.926C125.086 110.193 125.477 109.158 125.477 107.82C125.477 106.492 125.086 105.462 124.305 104.729C123.533 103.997 122.435 103.631 121.009 103.631H117.229ZM131.321 122V106.59H134.339V109.212H134.412C134.666 108.313 135.12 107.61 135.774 107.103C136.429 106.595 137.21 106.341 138.118 106.341C138.421 106.341 138.782 106.38 139.202 106.458V109.402C138.919 109.285 138.445 109.227 137.781 109.227C136.766 109.227 135.96 109.544 135.364 110.179C134.778 110.813 134.485 111.678 134.485 112.771V122H131.321ZM149.617 109.974C148.924 109.231 148.03 108.86 146.937 108.86C145.843 108.86 144.935 109.236 144.212 109.988C143.489 110.73 143.089 111.692 143.011 112.874H150.716C150.677 111.683 150.311 110.716 149.617 109.974ZM150.701 117.474H153.704C153.479 118.89 152.757 120.047 151.536 120.945C150.315 121.844 148.826 122.293 147.068 122.293C144.812 122.293 143.035 121.585 141.736 120.169C140.447 118.743 139.803 116.81 139.803 114.368C139.803 111.946 140.447 109.998 141.736 108.523C143.035 107.049 144.769 106.312 146.937 106.312C149.065 106.312 150.755 107.01 152.005 108.406C153.255 109.793 153.88 111.658 153.88 114.002V115.086H142.996V115.276C142.996 116.624 143.372 117.703 144.124 118.514C144.876 119.324 145.882 119.729 147.142 119.729C148.03 119.729 148.792 119.524 149.427 119.114C150.062 118.704 150.486 118.157 150.701 117.474ZM156.062 110.955C156.062 109.578 156.619 108.46 157.732 107.601C158.846 106.741 160.301 106.312 162.098 106.312C163.807 106.312 165.208 106.746 166.302 107.615C167.405 108.475 167.981 109.593 168.03 110.97H165.057C164.979 110.267 164.671 109.715 164.134 109.314C163.597 108.914 162.889 108.714 162.01 108.714C161.15 108.714 160.457 108.904 159.93 109.285C159.412 109.666 159.153 110.159 159.153 110.765C159.153 111.702 159.939 112.366 161.512 112.757L164.104 113.357C165.657 113.729 166.756 114.236 167.4 114.881C168.055 115.516 168.382 116.404 168.382 117.547C168.382 118.953 167.786 120.096 166.595 120.975C165.413 121.854 163.875 122.293 161.98 122.293C160.174 122.293 158.699 121.863 157.557 121.004C156.424 120.145 155.794 119.002 155.667 117.576H158.802C158.929 118.318 159.275 118.89 159.842 119.29C160.408 119.681 161.17 119.876 162.127 119.876C163.074 119.876 163.821 119.695 164.368 119.334C164.925 118.963 165.203 118.465 165.203 117.84C165.203 117.342 165.037 116.946 164.705 116.653C164.373 116.36 163.807 116.111 163.006 115.906L160.252 115.232C157.459 114.559 156.062 113.133 156.062 110.955ZM179.969 109.974C179.275 109.231 178.382 108.86 177.288 108.86C176.194 108.86 175.286 109.236 174.563 109.988C173.841 110.73 173.44 111.692 173.362 112.874H181.067C181.028 111.683 180.662 110.716 179.969 109.974ZM181.053 117.474H184.056C183.831 118.89 183.108 120.047 181.888 120.945C180.667 121.844 179.178 122.293 177.42 122.293C175.164 122.293 173.387 121.585 172.088 120.169C170.799 118.743 170.154 116.81 170.154 114.368C170.154 111.946 170.799 109.998 172.088 108.523C173.387 107.049 175.12 106.312 177.288 106.312C179.417 106.312 181.106 107.01 182.356 108.406C183.606 109.793 184.231 111.658 184.231 114.002V115.086H173.348V115.276C173.348 116.624 173.724 117.703 174.476 118.514C175.228 119.324 176.233 119.729 177.493 119.729C178.382 119.729 179.144 119.524 179.778 119.114C180.413 118.704 180.838 118.157 181.053 117.474ZM186.692 122V106.59H189.71V109.168H189.783C190.213 108.27 190.838 107.571 191.658 107.073C192.479 106.575 193.47 106.326 194.632 106.326C196.321 106.326 197.635 106.834 198.572 107.85C199.51 108.855 199.979 110.247 199.979 112.024V122H196.8V112.64C196.8 111.468 196.521 110.579 195.965 109.974C195.418 109.358 194.603 109.051 193.519 109.051C192.405 109.051 191.517 109.412 190.853 110.135C190.188 110.857 189.856 111.819 189.856 113.021V122H186.692ZM216.268 111.893H213.25C213.084 111.023 212.684 110.315 212.049 109.769C211.424 109.222 210.618 108.948 209.632 108.948C208.401 108.948 207.415 109.432 206.673 110.398C205.94 111.355 205.574 112.654 205.574 114.295C205.574 115.965 205.94 117.273 206.673 118.221C207.415 119.168 208.411 119.642 209.661 119.642C210.628 119.642 211.419 119.393 212.034 118.895C212.659 118.387 213.064 117.684 213.25 116.785H216.297C216.131 118.436 215.438 119.769 214.217 120.784C213.006 121.79 211.478 122.293 209.632 122.293C207.415 122.293 205.647 121.58 204.329 120.154C203.011 118.719 202.352 116.766 202.352 114.295C202.352 111.854 203.011 109.915 204.329 108.479C205.647 107.034 207.405 106.312 209.603 106.312C211.517 106.312 213.069 106.849 214.261 107.923C215.452 108.987 216.121 110.311 216.268 111.893ZM227.664 109.974C226.971 109.231 226.077 108.86 224.983 108.86C223.89 108.86 222.981 109.236 222.259 109.988C221.536 110.73 221.136 111.692 221.058 112.874H228.763C228.724 111.683 228.357 110.716 227.664 109.974ZM228.748 117.474H231.751C231.526 118.89 230.804 120.047 229.583 120.945C228.362 121.844 226.873 122.293 225.115 122.293C222.859 122.293 221.082 121.585 219.783 120.169C218.494 118.743 217.85 116.81 217.85 114.368C217.85 111.946 218.494 109.998 219.783 108.523C221.082 107.049 222.815 106.312 224.983 106.312C227.112 106.312 228.802 107.01 230.052 108.406C231.302 109.793 231.927 111.658 231.927 114.002V115.086H221.043V115.276C221.043 116.624 221.419 117.703 222.171 118.514C222.923 119.324 223.929 119.729 225.188 119.729C226.077 119.729 226.839 119.524 227.474 119.114C228.108 118.704 228.533 118.157 228.748 117.474ZM262.249 122H259.246V106.443H259.144L252.771 121.839H250.34L243.953 106.443H243.851V122H240.862V100.862H244.656L251.497 117.547H251.614L258.44 100.862H262.249V122ZM270.745 119.759C271.858 119.759 272.791 119.422 273.543 118.748C274.305 118.064 274.686 117.225 274.686 116.229V115.013L270.892 115.247C269.944 115.315 269.212 115.55 268.694 115.95C268.187 116.341 267.933 116.868 267.933 117.532C267.933 118.206 268.187 118.748 268.694 119.158C269.212 119.559 269.896 119.759 270.745 119.759ZM269.866 122.264C268.353 122.264 267.117 121.834 266.16 120.975C265.213 120.115 264.739 118.997 264.739 117.62C264.739 116.272 265.237 115.203 266.233 114.412C267.229 113.611 268.641 113.162 270.467 113.064L274.686 112.815V111.629C274.686 110.77 274.412 110.101 273.865 109.622C273.318 109.134 272.562 108.89 271.595 108.89C270.696 108.89 269.964 109.09 269.397 109.49C268.841 109.891 268.489 110.442 268.343 111.146H265.354C265.442 109.72 266.058 108.558 267.2 107.659C268.343 106.761 269.847 106.312 271.712 106.312C273.577 106.312 275.062 106.771 276.165 107.688C277.278 108.606 277.835 109.837 277.835 111.38V122H274.803V119.466H274.729C274.29 120.315 273.621 120.994 272.723 121.502C271.834 122.01 270.882 122.264 269.866 122.264ZM280.911 122V106.59H283.929V109.212H284.002C284.256 108.313 284.71 107.61 285.364 107.103C286.019 106.595 286.8 106.341 287.708 106.341C288.011 106.341 288.372 106.38 288.792 106.458V109.402C288.509 109.285 288.035 109.227 287.371 109.227C286.355 109.227 285.55 109.544 284.954 110.179C284.368 110.813 284.075 111.678 284.075 112.771V122H280.911ZM294.065 113.196L300.291 106.59H304.012L297.625 113.226L304.261 122H300.584L295.354 115.159L294.036 116.463V122H290.872V100.862H294.036V113.196H294.065Z" fill="#464255"/>
<rect x="325" y="102" width="73" height="20" rx="10" fill="#FFF2F2"/>
<path d="M342.516 107C339.499 107 337 109.451 337 112.484C337 115.517 339.499 118 342.516 118C345.533 118 348 115.501 348 112.484C348 109.467 345.549 107 342.516 107ZM343.16 115.423C343.16 115.784 342.877 116.067 342.516 116.067C342.154 116.067 341.871 115.784 341.871 115.423V112.154C341.871 111.793 342.154 111.51 342.516 111.51C342.877 111.51 343.16 111.793 343.16 112.154V115.423ZM342.516 110.221C342.154 110.221 341.871 109.939 341.871 109.577C341.871 109.216 342.154 108.933 342.516 108.933C342.877 108.933 343.16 109.216 343.16 109.577C343.16 109.939 342.877 110.221 342.516 110.221Z" fill="#FF5B5B"/>
<path d="M356.812 116L356.211 114.179H353.618L353.018 116H351.719L354.219 108.954H355.64L358.14 116H356.812ZM354.897 110.199L353.911 113.207H355.913L354.932 110.199H354.897ZM361.67 116.083C361.296 116.083 360.965 115.998 360.679 115.829C360.396 115.66 360.177 115.422 360.024 115.116H360V116H358.809V108.954H360.024V111.713H360.054C360.2 111.407 360.415 111.168 360.698 110.995C360.981 110.823 361.305 110.736 361.67 110.736C362.324 110.736 362.843 110.977 363.228 111.459C363.612 111.938 363.804 112.589 363.804 113.412C363.804 114.239 363.612 114.892 363.228 115.37C362.847 115.845 362.327 116.083 361.67 116.083ZM361.294 111.737C360.916 111.737 360.609 111.892 360.371 112.201C360.137 112.507 360.02 112.911 360.02 113.412C360.02 113.917 360.137 114.322 360.371 114.628C360.609 114.934 360.916 115.087 361.294 115.087C361.685 115.087 361.992 114.937 362.217 114.638C362.445 114.335 362.559 113.926 362.559 113.412C362.559 112.898 362.445 112.491 362.217 112.191C361.989 111.889 361.681 111.737 361.294 111.737ZM364.502 112.309C364.502 111.833 364.694 111.449 365.078 111.156C365.462 110.863 365.968 110.717 366.597 110.717C367.202 110.717 367.694 110.867 368.071 111.166C368.452 111.462 368.651 111.85 368.667 112.328H367.534C367.515 112.104 367.42 111.928 367.251 111.801C367.082 111.674 366.855 111.61 366.572 111.61C366.305 111.61 366.09 111.669 365.928 111.786C365.765 111.9 365.684 112.051 365.684 112.24C365.684 112.527 365.931 112.73 366.426 112.851L367.349 113.056C367.866 113.176 368.236 113.345 368.457 113.563C368.678 113.782 368.789 114.083 368.789 114.467C368.789 114.955 368.584 115.351 368.174 115.653C367.764 115.953 367.231 116.103 366.577 116.103C365.933 116.103 365.413 115.956 365.02 115.663C364.629 115.367 364.412 114.971 364.37 114.477H365.566C365.602 114.714 365.71 114.896 365.889 115.023C366.071 115.15 366.315 115.214 366.621 115.214C366.917 115.214 367.15 115.159 367.319 115.048C367.492 114.934 367.578 114.781 367.578 114.589C367.578 114.439 367.524 114.32 367.417 114.232C367.313 114.141 367.135 114.063 366.885 113.998L365.942 113.778C364.982 113.554 364.502 113.064 364.502 112.309ZM371.797 111.659C371.458 111.659 371.175 111.776 370.947 112.011C370.723 112.242 370.597 112.54 370.571 112.904H372.988C372.975 112.536 372.86 112.237 372.642 112.006C372.424 111.775 372.142 111.659 371.797 111.659ZM372.993 114.452H374.131C374.053 114.944 373.804 115.342 373.384 115.648C372.964 115.951 372.45 116.103 371.841 116.103C371.066 116.103 370.457 115.865 370.015 115.39C369.572 114.911 369.351 114.258 369.351 113.432C369.351 112.611 369.57 111.954 370.01 111.459C370.452 110.964 371.047 110.717 371.792 110.717C372.524 110.717 373.105 110.953 373.535 111.425C373.965 111.894 374.18 112.522 374.18 113.31V113.705H370.562V113.778C370.562 114.195 370.679 114.53 370.913 114.784C371.151 115.038 371.468 115.165 371.865 115.165C372.145 115.165 372.386 115.102 372.588 114.975C372.793 114.844 372.928 114.67 372.993 114.452ZM374.966 116V110.824H376.133V111.713H376.157C376.3 111.4 376.509 111.158 376.782 110.985C377.059 110.813 377.393 110.727 377.783 110.727C378.35 110.727 378.789 110.897 379.102 111.239C379.417 111.581 379.575 112.053 379.575 112.655V116H378.359V112.899C378.359 112.528 378.271 112.245 378.096 112.05C377.923 111.854 377.666 111.757 377.324 111.757C376.976 111.757 376.698 111.871 376.489 112.099C376.284 112.326 376.182 112.628 376.182 113.002V116H374.966ZM380.889 109.613H382.104V110.824H383.081V111.762H382.104V114.452C382.104 114.664 382.155 114.82 382.256 114.921C382.357 115.022 382.515 115.072 382.729 115.072C382.873 115.072 382.988 115.064 383.076 115.048V115.976C382.93 116.008 382.72 116.024 382.446 116.024C381.886 116.024 381.486 115.917 381.245 115.702C381.007 115.487 380.889 115.128 380.889 114.623V111.762H380.146V110.824H380.889V109.613Z" fill="#FF5B5B"/>
</g>
<defs>
<filter id="filter0_d" x="0" y="0" width="1027" height="626" filterUnits="userSpaceOnUse" color-interpolation-filters="sRGB">
<feFlood flood-opacity="0" result="BackgroundImageFix"/>
<feColorMatrix in="SourceAlpha" type="matrix" values="0 0 0 0 0 0 0 0 0 0 0 0 0 0 0 0 0 0 127 0" result="hardAlpha"/>
<feOffset dy="16"/>
<feGaussianBlur stdDeviation="39"/>
<feComposite in2="hardAlpha" operator="out"/>
<feColorMatrix type="matrix" values="0 0 0 0 0 0 0 0 0 0 0 0 0 0 0 0 0 0 0.15 0"/>
<feBlend mode="normal" in2="BackgroundImageFix" result="effect1_dropShadow"/>
<feBlend mode="normal" in="SourceGraphic" in2="effect1_dropShadow" result="shape"/>
</filter>
</defs>
</svg>
