<svg width="1133" height="717" viewBox="0 0 1133 717" fill="none" xmlns="http://www.w3.org/2000/svg">
<g filter="url(#filter0_d)">
<path d="M80 80C80 71.1634 87.1634 64 96 64H1037C1045.84 64 1053 71.1634 1053 80V605C1053 613.837 1045.84 621 1037 621H96C87.1634 621 80 613.837 80 605V80Z" fill="white" stroke="#58D7FF" stroke-width="4"/>
<rect x="900" y="226" width="40" height="40" rx="7" fill="#E9FAFF"/>
<path fill-rule="evenodd" clip-rule="evenodd" d="M925.155 237.064C925.256 237.106 925.348 237.167 925.426 237.245L928.754 240.573C928.832 240.65 928.894 240.742 928.936 240.843C928.978 240.945 929 241.053 929 241.163C929 241.273 928.978 241.382 928.936 241.483C928.894 241.585 928.832 241.677 928.754 241.754C928.677 241.832 928.585 241.894 928.483 241.936C928.382 241.978 928.273 242 928.163 242C928.053 242 927.945 241.978 927.843 241.936C927.742 241.894 927.65 241.832 927.573 241.754L924.245 238.426C924.088 238.269 924 238.057 924 237.835C924 237.614 924.088 237.401 924.245 237.245C924.401 237.088 924.614 237 924.835 237C924.945 237 925.054 237.022 925.155 237.064ZM915.443 255H911.889C911.653 255 911.427 254.906 911.26 254.74C911.094 254.573 911 254.347 911 254.111V250.557C910.999 250.44 911.022 250.324 911.066 250.216C911.11 250.108 911.175 250.009 911.258 249.926L921.921 239.263C922.004 239.18 922.102 239.113 922.21 239.068C922.318 239.023 922.435 239 922.552 239C922.669 239 922.785 239.023 922.894 239.068C923.002 239.113 923.1 239.18 923.183 239.263L926.737 242.817C926.82 242.9 926.887 242.998 926.932 243.106C926.977 243.215 927 243.331 927 243.448C927 243.565 926.977 243.682 926.932 243.79C926.887 243.898 926.82 243.996 926.737 244.079L916.074 254.742C915.991 254.825 915.892 254.89 915.784 254.934C915.676 254.978 915.56 255.001 915.443 255ZM922.552 241.147L912.777 250.921V253.223H915.079L924.853 243.448L922.552 241.147Z" fill="#58D7FF"/>
<rect x="960" y="226" width="40" height="40" rx="7" fill="#FFF1F1"/>
<path fill-rule="evenodd" clip-rule="evenodd" d="M986.874 241.561C987.46 240.975 987.46 240.025 986.874 239.439C986.289 238.854 985.339 238.854 984.753 239.439L980.485 243.707L976.218 239.44C975.632 238.854 974.682 238.854 974.097 239.44C973.511 240.025 973.511 240.975 974.097 241.561L978.364 245.828L973.439 250.753C972.854 251.339 972.854 252.289 973.439 252.874C974.025 253.46 974.975 253.46 975.561 252.874L980.485 247.95L985.41 252.875C985.996 253.46 986.946 253.46 987.532 252.875C988.117 252.289 988.117 251.339 987.532 250.753L982.607 245.828L986.874 241.561Z" fill="#FF5B5B"/>
<rect x="78" y="153" width="977" height="1" fill="#D7D9E5"/>
<rect x="119.5" y="223.5" width="362" height="354" rx="17.5" stroke="#D7D9E5"/>
<rect x="119" y="317" width="363" height="1" fill="#D7D9E5"/>
<rect x="120" y="318" width="361" height="157" fill="#F8F9FF"/>
<rect x="119" y="475" width="363" height="1" fill="#D7D9E5"/>
<path d="M301 455C333.033 455 359 429.033 359 397C359 364.967 333.033 339 301 339C268.967 339 243 364.967 243 397C243 429.033 268.967 455 301 455Z" fill="#58D7FF"/>
<path d="M301 450C330.271 450 354 426.271 354 397C354 367.729 330.271 344 301 344C271.729 344 248 367.729 248 397C248 426.271 271.729 450 301 450Z" fill="white"/>
<path d="M301.533 357.472C300.694 357.472 299.932 356.671 299.932 355.604V351.868C299.932 350.889 300.618 350 301.533 350C302.448 350 303.134 350.801 303.134 351.868V355.604C303.134 356.582 302.371 357.472 301.533 357.472Z" fill="#464255"/>
<path d="M300.542 437.6C301.38 437.6 302.143 438.4 302.143 439.468L302.143 443.203C302.143 444.182 301.456 445.071 300.542 445.071C299.627 445.071 298.94 444.271 298.94 443.203L298.94 439.468C298.94 438.489 299.703 437.6 300.542 437.6Z" fill="#464255"/>
<path d="M251.9 396.43C251.9 395.592 252.7 394.829 253.767 394.829L257.503 394.829C258.482 394.829 259.371 395.515 259.371 396.43C259.371 397.345 258.571 398.031 257.503 398.031L253.767 398.031C252.789 398.031 251.9 397.269 251.9 396.43Z" fill="#464255"/>
<path d="M342.626 396.43C342.626 395.592 343.427 394.829 344.494 394.829L348.23 394.829C349.208 394.829 350.098 395.515 350.098 396.43C350.098 397.345 349.297 398.031 348.23 398.031L344.494 398.031C343.516 398.031 342.626 397.269 342.626 396.43Z" fill="#464255"/>
<path d="M329.882 368.156C329.289 367.563 329.316 366.458 330.071 365.703L332.712 363.062C333.404 362.37 334.518 362.226 335.165 362.873C335.812 363.52 335.731 364.571 334.977 365.326L332.335 367.968C331.643 368.659 330.475 368.749 329.882 368.156Z" fill="#464255"/>
<path d="M272.192 426.915C272.785 427.508 272.758 428.613 272.003 429.368L269.362 432.01C268.67 432.701 267.556 432.845 266.909 432.198C266.262 431.551 266.343 430.5 267.098 429.745L269.739 427.104C270.431 426.412 271.599 426.322 272.192 426.915Z" fill="#464255"/>
<path d="M272.191 368.156C271.598 368.749 270.493 368.722 269.738 367.967L267.096 365.326C266.404 364.634 266.261 363.52 266.907 362.873C267.554 362.226 268.606 362.307 269.36 363.061L272.002 365.703C272.694 366.395 272.784 367.563 272.191 368.156Z" fill="#464255"/>
<path d="M329.882 426.915C330.475 426.322 331.58 426.349 332.334 427.104L334.976 429.746C335.668 430.437 335.812 431.552 335.165 432.199C334.518 432.845 333.467 432.765 332.712 432.01L330.07 429.368C329.378 428.676 329.289 427.508 329.882 426.915Z" fill="#464255"/>
<path d="M284.547 400.664C283.74 401.721 282.628 402.25 281.211 402.25C279.794 402.25 278.68 401.724 277.867 400.672C277.055 399.615 276.648 398.172 276.648 396.344C276.648 394.526 277.055 393.094 277.867 392.047C278.685 390.995 279.799 390.469 281.211 390.469C282.622 390.469 283.734 390.992 284.547 392.039C285.359 393.086 285.766 394.518 285.766 396.336C285.766 398.159 285.359 399.602 284.547 400.664ZM279.617 399.305C280.003 400.008 280.534 400.359 281.211 400.359C281.888 400.359 282.417 400.01 282.797 399.312C283.177 398.609 283.367 397.62 283.367 396.344C283.367 395.078 283.174 394.099 282.789 393.406C282.409 392.708 281.883 392.359 281.211 392.359C280.539 392.359 280.01 392.708 279.625 393.406C279.24 394.104 279.047 395.083 279.047 396.344C279.047 397.615 279.237 398.602 279.617 399.305ZM289.148 401.727C288.904 401.971 288.607 402.094 288.258 402.094C287.909 402.094 287.612 401.971 287.367 401.727C287.122 401.482 287 401.185 287 400.836C287 400.487 287.122 400.19 287.367 399.945C287.612 399.701 287.909 399.578 288.258 399.578C288.607 399.578 288.904 399.701 289.148 399.945C289.393 400.19 289.516 400.487 289.516 400.836C289.516 401.185 289.393 401.482 289.148 401.727ZM298.797 400.664C297.99 401.721 296.878 402.25 295.461 402.25C294.044 402.25 292.93 401.724 292.117 400.672C291.305 399.615 290.898 398.172 290.898 396.344C290.898 394.526 291.305 393.094 292.117 392.047C292.935 390.995 294.049 390.469 295.461 390.469C296.872 390.469 297.984 390.992 298.797 392.039C299.609 393.086 300.016 394.518 300.016 396.336C300.016 398.159 299.609 399.602 298.797 400.664ZM293.867 399.305C294.253 400.008 294.784 400.359 295.461 400.359C296.138 400.359 296.667 400.01 297.047 399.312C297.427 398.609 297.617 397.62 297.617 396.344C297.617 395.078 297.424 394.099 297.039 393.406C296.659 392.708 296.133 392.359 295.461 392.359C294.789 392.359 294.26 392.708 293.875 393.406C293.49 394.104 293.297 395.083 293.297 396.344C293.297 397.615 293.487 398.602 293.867 399.305ZM304.641 402V390.727H306.883V395.117H306.93C307.154 394.586 307.49 394.18 307.938 393.898C308.391 393.612 308.932 393.469 309.562 393.469C310.484 393.469 311.201 393.75 311.711 394.312C312.227 394.87 312.484 395.635 312.484 396.609V402H310.203V397.094C310.203 396.547 310.068 396.122 309.797 395.82C309.531 395.513 309.143 395.359 308.633 395.359C308.102 395.359 307.682 395.531 307.375 395.875C307.073 396.214 306.922 396.661 306.922 397.219V402H304.641ZM313.945 402V393.625H316.148V395.133H316.195C316.341 394.602 316.586 394.195 316.93 393.914C317.273 393.633 317.693 393.492 318.188 393.492C318.427 393.492 318.643 393.521 318.836 393.578V395.586C318.622 395.497 318.346 395.453 318.008 395.453C317.445 395.453 317.008 395.617 316.695 395.945C316.383 396.273 316.227 396.732 316.227 397.32V402H313.945ZM319.633 396.086C319.633 395.289 319.953 394.651 320.594 394.172C321.234 393.688 322.091 393.445 323.164 393.445C324.211 393.445 325.052 393.69 325.688 394.18C326.323 394.669 326.648 395.32 326.664 396.133H324.562C324.536 395.794 324.396 395.529 324.141 395.336C323.891 395.143 323.555 395.047 323.133 395.047C322.737 395.047 322.419 395.13 322.18 395.297C321.945 395.458 321.828 395.674 321.828 395.945C321.828 396.352 322.193 396.641 322.922 396.812L324.523 397.156C325.362 397.344 325.964 397.617 326.328 397.977C326.698 398.331 326.883 398.82 326.883 399.445C326.883 400.268 326.539 400.93 325.852 401.43C325.164 401.93 324.266 402.18 323.156 402.18C322.052 402.18 321.169 401.935 320.508 401.445C319.846 400.956 319.484 400.297 319.422 399.469H321.648C321.706 399.823 321.867 400.096 322.133 400.289C322.404 400.482 322.766 400.578 323.219 400.578C323.651 400.578 323.99 400.5 324.234 400.344C324.484 400.182 324.609 399.964 324.609 399.688C324.609 399.474 324.531 399.305 324.375 399.18C324.219 399.049 323.953 398.94 323.578 398.852L322.031 398.508C320.432 398.143 319.633 397.336 319.633 396.086Z" fill="#58D7FF"/>
<path d="M120.367 182.908H125.396C126.718 182.908 127.799 183.331 128.639 184.178C129.485 185.018 129.908 186.102 129.908 187.43C129.908 188.764 129.485 189.855 128.639 190.701C127.792 191.548 126.705 191.971 125.377 191.971H122.125V197H120.367V182.908ZM122.125 184.471V190.408H124.938C125.94 190.408 126.718 190.148 127.271 189.627C127.825 189.1 128.102 188.367 128.102 187.43C128.102 186.492 127.825 185.766 127.271 185.252C126.725 184.731 125.947 184.471 124.938 184.471H122.125ZM131.666 197V186.844H133.268V188.504H133.307C133.476 187.938 133.779 187.492 134.215 187.166C134.658 186.834 135.175 186.668 135.768 186.668C135.904 186.668 136.132 186.691 136.451 186.736V188.387C136.269 188.322 135.966 188.289 135.543 188.289C134.885 188.289 134.358 188.507 133.961 188.943C133.564 189.38 133.365 189.956 133.365 190.672V197H131.666ZM141.422 188.143C140.634 188.143 139.98 188.416 139.459 188.963C138.945 189.503 138.661 190.2 138.609 191.053H144.127C144.107 190.193 143.85 189.493 143.355 188.953C142.861 188.413 142.216 188.143 141.422 188.143ZM144.088 194.09H145.758C145.608 194.988 145.139 195.727 144.352 196.307C143.57 196.886 142.63 197.176 141.529 197.176C140.077 197.176 138.935 196.707 138.102 195.77C137.268 194.832 136.852 193.562 136.852 191.961C136.852 190.372 137.268 189.093 138.102 188.123C138.941 187.153 140.058 186.668 141.451 186.668C142.818 186.668 143.899 187.127 144.693 188.045C145.488 188.963 145.885 190.193 145.885 191.736V192.381H138.6V192.479C138.6 193.455 138.867 194.236 139.4 194.822C139.934 195.408 140.657 195.701 141.568 195.701C142.206 195.701 142.75 195.555 143.199 195.262C143.648 194.969 143.945 194.578 144.088 194.09ZM147.428 189.646C147.428 188.774 147.779 188.061 148.482 187.508C149.192 186.948 150.104 186.668 151.217 186.668C152.265 186.668 153.137 186.948 153.834 187.508C154.531 188.068 154.898 188.777 154.938 189.637H153.316C153.258 189.142 153.036 188.755 152.652 188.475C152.275 188.195 151.777 188.055 151.158 188.055C150.54 188.055 150.042 188.195 149.664 188.475C149.286 188.748 149.098 189.109 149.098 189.559C149.098 190.249 149.661 190.737 150.787 191.023L152.359 191.404C153.382 191.665 154.101 192.003 154.518 192.42C154.941 192.83 155.152 193.41 155.152 194.158C155.152 195.044 154.775 195.77 154.02 196.336C153.264 196.896 152.294 197.176 151.109 197.176C150.003 197.176 149.088 196.902 148.365 196.355C147.649 195.802 147.245 195.073 147.154 194.168H148.854C149.042 195.249 149.83 195.789 151.217 195.789C151.9 195.789 152.441 195.656 152.838 195.389C153.242 195.115 153.443 194.747 153.443 194.285C153.443 193.921 153.323 193.631 153.082 193.416C152.848 193.201 152.447 193.019 151.881 192.869L150.094 192.41C148.316 191.954 147.428 191.033 147.428 189.646ZM160.992 188.143C160.204 188.143 159.55 188.416 159.029 188.963C158.515 189.503 158.232 190.2 158.18 191.053H163.697C163.678 190.193 163.421 189.493 162.926 188.953C162.431 188.413 161.786 188.143 160.992 188.143ZM163.658 194.09H165.328C165.178 194.988 164.71 195.727 163.922 196.307C163.141 196.886 162.2 197.176 161.1 197.176C159.648 197.176 158.505 196.707 157.672 195.77C156.839 194.832 156.422 193.562 156.422 191.961C156.422 190.372 156.839 189.093 157.672 188.123C158.512 187.153 159.628 186.668 161.021 186.668C162.389 186.668 163.469 187.127 164.264 188.045C165.058 188.963 165.455 190.193 165.455 191.736V192.381H158.17V192.479C158.17 193.455 158.437 194.236 158.971 194.822C159.505 195.408 160.227 195.701 161.139 195.701C161.777 195.701 162.32 195.555 162.77 195.262C163.219 194.969 163.515 194.578 163.658 194.09ZM167.174 197V186.844H168.775V188.465H168.814C169.107 187.898 169.527 187.459 170.074 187.146C170.621 186.827 171.275 186.668 172.037 186.668C173.144 186.668 174.007 187.003 174.625 187.674C175.243 188.338 175.553 189.249 175.553 190.408V197H173.854V190.711C173.854 189.884 173.658 189.256 173.268 188.826C172.877 188.39 172.294 188.172 171.52 188.172C170.719 188.172 170.077 188.432 169.596 188.953C169.114 189.474 168.873 190.164 168.873 191.023V197H167.174ZM186.158 190.174H184.498C184.368 189.588 184.078 189.106 183.629 188.729C183.186 188.351 182.61 188.162 181.9 188.162C181.015 188.162 180.302 188.504 179.762 189.188C179.221 189.865 178.951 190.776 178.951 191.922C178.951 193.087 179.221 194.005 179.762 194.676C180.309 195.346 181.028 195.682 181.92 195.682C182.604 195.682 183.167 195.512 183.609 195.174C184.059 194.829 184.358 194.347 184.508 193.729H186.178C186.048 194.744 185.589 195.574 184.801 196.219C184.02 196.857 183.056 197.176 181.91 197.176C180.491 197.176 179.355 196.707 178.502 195.77C177.649 194.826 177.223 193.543 177.223 191.922C177.223 190.327 177.649 189.054 178.502 188.104C179.355 187.146 180.484 186.668 181.891 186.668C183.102 186.668 184.085 187.01 184.84 187.693C185.602 188.377 186.041 189.204 186.158 190.174ZM191.812 188.143C191.025 188.143 190.37 188.416 189.85 188.963C189.335 189.503 189.052 190.2 189 191.053H194.518C194.498 190.193 194.241 189.493 193.746 188.953C193.251 188.413 192.607 188.143 191.812 188.143ZM194.479 194.09H196.148C195.999 194.988 195.53 195.727 194.742 196.307C193.961 196.886 193.02 197.176 191.92 197.176C190.468 197.176 189.326 196.707 188.492 195.77C187.659 194.832 187.242 193.562 187.242 191.961C187.242 190.372 187.659 189.093 188.492 188.123C189.332 187.153 190.449 186.668 191.842 186.668C193.209 186.668 194.29 187.127 195.084 188.045C195.878 188.963 196.275 190.193 196.275 191.736V192.381H188.99V192.479C188.99 193.455 189.257 194.236 189.791 194.822C190.325 195.408 191.048 195.701 191.959 195.701C192.597 195.701 193.141 195.555 193.59 195.262C194.039 194.969 194.335 194.578 194.479 194.09Z" fill="#464255"/>
<path d="M219.859 197.188C218.552 197.188 217.531 196.667 216.797 195.625C216.068 194.578 215.703 193.156 215.703 191.359C215.703 189.578 216.07 188.164 216.805 187.117C217.544 186.065 218.562 185.539 219.859 185.539C221.156 185.539 222.169 186.062 222.898 187.109C223.633 188.151 224 189.565 224 191.352C224 193.148 223.635 194.57 222.906 195.617C222.177 196.664 221.161 197.188 219.859 197.188ZM217.836 194.727C218.315 195.549 218.99 195.961 219.859 195.961C220.729 195.961 221.401 195.552 221.875 194.734C222.349 193.911 222.586 192.786 222.586 191.359C222.586 189.953 222.346 188.839 221.867 188.016C221.388 187.188 220.719 186.773 219.859 186.773C219 186.773 218.328 187.188 217.844 188.016C217.359 188.844 217.117 189.956 217.117 191.352C217.117 192.779 217.357 193.904 217.836 194.727ZM228.336 197V187.219H228.305L225.32 189.367V187.883L228.32 185.727H229.695V197H228.336ZM237.633 193.062H232.508V191.797H237.633V193.062ZM243.359 197.188C242.052 197.188 241.031 196.667 240.297 195.625C239.568 194.578 239.203 193.156 239.203 191.359C239.203 189.578 239.57 188.164 240.305 187.117C241.044 186.065 242.062 185.539 243.359 185.539C244.656 185.539 245.669 186.062 246.398 187.109C247.133 188.151 247.5 189.565 247.5 191.352C247.5 193.148 247.135 194.57 246.406 195.617C245.677 196.664 244.661 197.188 243.359 197.188ZM241.336 194.727C241.815 195.549 242.49 195.961 243.359 195.961C244.229 195.961 244.901 195.552 245.375 194.734C245.849 193.911 246.086 192.786 246.086 191.359C246.086 189.953 245.846 188.839 245.367 188.016C244.888 187.188 244.219 186.773 243.359 186.773C242.5 186.773 241.828 187.188 241.344 188.016C240.859 188.844 240.617 189.956 240.617 191.352C240.617 192.779 240.857 193.904 241.336 194.727ZM254.477 197V194.656H248.812V193.383C249.297 192.482 249.911 191.453 250.656 190.297C251.406 189.141 252.44 187.617 253.758 185.727H255.836V193.422H257.43V194.656H255.836V197H254.477ZM250.203 193.391V193.422H254.477V186.898H254.453C252.479 189.716 251.062 191.88 250.203 193.391ZM263.883 193.062H258.758V191.797H263.883V193.062ZM265.594 188.977C265.594 187.992 265.948 187.174 266.656 186.523C267.365 185.867 268.25 185.539 269.312 185.539C270.318 185.539 271.169 185.839 271.867 186.438C272.565 187.036 272.914 187.768 272.914 188.633C272.914 189.258 272.742 189.859 272.398 190.438C272.055 191.016 271.409 191.794 270.461 192.773L267.609 195.719V195.75H273.102V197H265.664V196.031L269.633 191.852C270.388 191.055 270.888 190.451 271.133 190.039C271.383 189.628 271.508 189.188 271.508 188.719C271.508 188.177 271.289 187.716 270.852 187.336C270.419 186.956 269.893 186.766 269.273 186.766C268.612 186.766 268.06 186.977 267.617 187.398C267.174 187.82 266.953 188.346 266.953 188.977V188.984H265.594V188.977ZM278.672 197.188C277.365 197.188 276.344 196.667 275.609 195.625C274.88 194.578 274.516 193.156 274.516 191.359C274.516 189.578 274.883 188.164 275.617 187.117C276.357 186.065 277.375 185.539 278.672 185.539C279.969 185.539 280.982 186.062 281.711 187.109C282.445 188.151 282.812 189.565 282.812 191.352C282.812 193.148 282.448 194.57 281.719 195.617C280.99 196.664 279.974 197.188 278.672 197.188ZM276.648 194.727C277.128 195.549 277.802 195.961 278.672 195.961C279.542 195.961 280.214 195.552 280.688 194.734C281.161 193.911 281.398 192.786 281.398 191.359C281.398 189.953 281.159 188.839 280.68 188.016C280.201 187.188 279.531 186.773 278.672 186.773C277.812 186.773 277.141 187.188 276.656 188.016C276.172 188.844 275.93 189.956 275.93 191.352C275.93 192.779 276.169 193.904 276.648 194.727ZM284.203 188.977C284.203 187.992 284.557 187.174 285.266 186.523C285.974 185.867 286.859 185.539 287.922 185.539C288.927 185.539 289.779 185.839 290.477 186.438C291.174 187.036 291.523 187.768 291.523 188.633C291.523 189.258 291.352 189.859 291.008 190.438C290.664 191.016 290.018 191.794 289.07 192.773L286.219 195.719V195.75H291.711V197H284.273V196.031L288.242 191.852C288.997 191.055 289.497 190.451 289.742 190.039C289.992 189.628 290.117 189.188 290.117 188.719C290.117 188.177 289.898 187.716 289.461 187.336C289.029 186.956 288.503 186.766 287.883 186.766C287.221 186.766 286.669 186.977 286.227 187.398C285.784 187.82 285.562 188.346 285.562 188.977V188.984H284.203V188.977ZM296.211 197V187.219H296.18L293.195 189.367V187.883L296.195 185.727H297.57V197H296.211Z" fill="#959AC5"/>
<path d="M652.734 230.188C651.177 230.188 649.94 229.664 649.023 228.617C648.112 227.565 647.656 226.146 647.656 224.359C647.656 222.589 648.117 221.177 649.039 220.125C649.961 219.068 651.193 218.539 652.734 218.539C653.964 218.539 655.005 218.883 655.859 219.57C656.719 220.253 657.237 221.156 657.414 222.281H655.992C655.81 221.542 655.422 220.951 654.828 220.508C654.234 220.06 653.536 219.836 652.734 219.836C651.635 219.836 650.755 220.247 650.094 221.07C649.432 221.893 649.102 222.99 649.102 224.359C649.102 225.745 649.43 226.846 650.086 227.664C650.742 228.482 651.628 228.891 652.742 228.891C653.57 228.891 654.268 228.701 654.836 228.32C655.404 227.94 655.789 227.406 655.992 226.719H657.414C657.154 227.833 656.62 228.69 655.812 229.289C655.005 229.888 653.979 230.188 652.734 230.188ZM658.938 230V218.727H660.297V230H658.938ZM665.5 230.141C664.365 230.141 663.453 229.763 662.766 229.008C662.078 228.247 661.734 227.224 661.734 225.938C661.734 224.651 662.078 223.63 662.766 222.875C663.453 222.115 664.365 221.734 665.5 221.734C666.63 221.734 667.539 222.115 668.227 222.875C668.914 223.63 669.258 224.651 669.258 225.938C669.258 227.219 668.914 228.24 668.227 229C667.539 229.76 666.63 230.141 665.5 230.141ZM663.758 228.148C664.19 228.68 664.771 228.945 665.5 228.945C666.229 228.945 666.807 228.682 667.234 228.156C667.661 227.625 667.875 226.885 667.875 225.938C667.875 224.99 667.661 224.253 667.234 223.727C666.807 223.195 666.229 222.93 665.5 222.93C664.771 222.93 664.19 223.195 663.758 223.727C663.331 224.258 663.117 224.995 663.117 225.938C663.117 226.88 663.331 227.617 663.758 228.148ZM677.383 224.539H676.055C675.951 224.07 675.719 223.685 675.359 223.383C675.005 223.081 674.544 222.93 673.977 222.93C673.268 222.93 672.698 223.203 672.266 223.75C671.833 224.292 671.617 225.021 671.617 225.938C671.617 226.87 671.833 227.604 672.266 228.141C672.703 228.677 673.279 228.945 673.992 228.945C674.539 228.945 674.99 228.81 675.344 228.539C675.703 228.263 675.943 227.878 676.062 227.383H677.398C677.294 228.195 676.927 228.859 676.297 229.375C675.672 229.885 674.901 230.141 673.984 230.141C672.849 230.141 671.94 229.766 671.258 229.016C670.576 228.26 670.234 227.234 670.234 225.938C670.234 224.661 670.576 223.643 671.258 222.883C671.94 222.117 672.844 221.734 673.969 221.734C674.938 221.734 675.724 222.008 676.328 222.555C676.938 223.102 677.289 223.763 677.383 224.539ZM680.078 225.484L683.672 221.875H685.32L681.797 225.383L685.43 230H683.852L680.836 226.219L680.078 226.938V230H678.719V218.727H680.078V225.484Z" fill="#464255"/>
<path d="M651.859 250.188C650.552 250.188 649.531 249.667 648.797 248.625C648.068 247.578 647.703 246.156 647.703 244.359C647.703 242.578 648.07 241.164 648.805 240.117C649.544 239.065 650.562 238.539 651.859 238.539C653.156 238.539 654.169 239.062 654.898 240.109C655.633 241.151 656 242.565 656 244.352C656 246.148 655.635 247.57 654.906 248.617C654.177 249.664 653.161 250.188 651.859 250.188ZM649.836 247.727C650.315 248.549 650.99 248.961 651.859 248.961C652.729 248.961 653.401 248.552 653.875 247.734C654.349 246.911 654.586 245.786 654.586 244.359C654.586 242.953 654.346 241.839 653.867 241.016C653.388 240.188 652.719 239.773 651.859 239.773C651 239.773 650.328 240.188 649.844 241.016C649.359 241.844 649.117 242.956 649.117 244.352C649.117 245.779 649.357 246.904 649.836 247.727ZM659.914 244.797V243.609H661.266C661.911 243.609 662.44 243.424 662.852 243.055C663.263 242.68 663.469 242.206 663.469 241.633C663.469 241.06 663.279 240.604 662.898 240.266C662.518 239.927 661.979 239.758 661.281 239.758C660.635 239.758 660.109 239.93 659.703 240.273C659.297 240.617 659.062 241.086 659 241.68H657.648C657.727 240.721 658.096 239.958 658.758 239.391C659.424 238.823 660.286 238.539 661.344 238.539C662.359 238.539 663.203 238.812 663.875 239.359C664.547 239.906 664.883 240.602 664.883 241.445C664.883 242.148 664.674 242.74 664.258 243.219C663.841 243.698 663.279 244 662.57 244.125V244.156C663.424 244.208 664.104 244.482 664.609 244.977C665.115 245.466 665.367 246.107 665.367 246.898C665.367 247.529 665.19 248.096 664.836 248.602C664.482 249.107 664.003 249.497 663.398 249.773C662.794 250.049 662.125 250.188 661.391 250.188C660.224 250.188 659.284 249.896 658.57 249.312C657.857 248.729 657.474 247.964 657.422 247.016H658.773C658.836 247.604 659.099 248.078 659.562 248.438C660.026 248.792 660.63 248.969 661.375 248.969C662.12 248.969 662.732 248.779 663.211 248.398C663.695 248.018 663.938 247.534 663.938 246.945C663.938 246.284 663.703 245.76 663.234 245.375C662.771 244.99 662.135 244.797 661.328 244.797H659.914ZM668.836 249.82C668.664 249.992 668.453 250.078 668.203 250.078C667.953 250.078 667.742 249.992 667.57 249.82C667.398 249.648 667.312 249.438 667.312 249.188C667.312 248.938 667.398 248.727 667.57 248.555C667.742 248.383 667.953 248.297 668.203 248.297C668.453 248.297 668.664 248.383 668.836 248.555C669.008 248.727 669.094 248.938 669.094 249.188C669.094 249.438 669.008 249.648 668.836 249.82ZM668.836 244.07C668.664 244.242 668.453 244.328 668.203 244.328C667.953 244.328 667.742 244.242 667.57 244.07C667.398 243.898 667.312 243.688 667.312 243.438C667.312 243.188 667.398 242.977 667.57 242.805C667.742 242.633 667.953 242.547 668.203 242.547C668.453 242.547 668.664 242.633 668.836 242.805C669.008 242.977 669.094 243.188 669.094 243.438C669.094 243.688 669.008 243.898 668.836 244.07ZM673.445 244.797V243.609H674.797C675.443 243.609 675.971 243.424 676.383 243.055C676.794 242.68 677 242.206 677 241.633C677 241.06 676.81 240.604 676.43 240.266C676.049 239.927 675.51 239.758 674.812 239.758C674.167 239.758 673.641 239.93 673.234 240.273C672.828 240.617 672.594 241.086 672.531 241.68H671.18C671.258 240.721 671.628 239.958 672.289 239.391C672.956 238.823 673.818 238.539 674.875 238.539C675.891 238.539 676.734 238.812 677.406 239.359C678.078 239.906 678.414 240.602 678.414 241.445C678.414 242.148 678.206 242.74 677.789 243.219C677.372 243.698 676.81 244 676.102 244.125V244.156C676.956 244.208 677.635 244.482 678.141 244.977C678.646 245.466 678.898 246.107 678.898 246.898C678.898 247.529 678.721 248.096 678.367 248.602C678.013 249.107 677.534 249.497 676.93 249.773C676.326 250.049 675.656 250.188 674.922 250.188C673.755 250.188 672.815 249.896 672.102 249.312C671.388 248.729 671.005 247.964 670.953 247.016H672.305C672.367 247.604 672.63 248.078 673.094 248.438C673.557 248.792 674.161 248.969 674.906 248.969C675.651 248.969 676.263 248.779 676.742 248.398C677.227 248.018 677.469 247.534 677.469 246.945C677.469 246.284 677.234 245.76 676.766 245.375C676.302 244.99 675.667 244.797 674.859 244.797H673.445ZM684.562 250.188C683.255 250.188 682.234 249.667 681.5 248.625C680.771 247.578 680.406 246.156 680.406 244.359C680.406 242.578 680.773 241.164 681.508 240.117C682.247 239.065 683.266 238.539 684.562 238.539C685.859 238.539 686.872 239.062 687.602 240.109C688.336 241.151 688.703 242.565 688.703 244.352C688.703 246.148 688.339 247.57 687.609 248.617C686.88 249.664 685.865 250.188 684.562 250.188ZM682.539 247.727C683.018 248.549 683.693 248.961 684.562 248.961C685.432 248.961 686.104 248.552 686.578 247.734C687.052 246.911 687.289 245.786 687.289 244.359C687.289 242.953 687.049 241.839 686.57 241.016C686.091 240.188 685.422 239.773 684.562 239.773C683.703 239.773 683.031 240.188 682.547 241.016C682.062 241.844 681.82 242.956 681.82 244.352C681.82 245.779 682.06 246.904 682.539 247.727ZM693.781 238.727H697.805C698.862 238.727 699.727 239.065 700.398 239.742C701.076 240.414 701.414 241.281 701.414 242.344C701.414 243.411 701.076 244.284 700.398 244.961C699.721 245.638 698.852 245.977 697.789 245.977H695.188V250H693.781V238.727ZM695.188 239.977V244.727H697.438C698.24 244.727 698.862 244.518 699.305 244.102C699.747 243.68 699.969 243.094 699.969 242.344C699.969 241.594 699.747 241.013 699.305 240.602C698.867 240.185 698.245 239.977 697.438 239.977H695.188ZM714.141 250H712.828V241.312H712.773L709.18 249.922H707.992L704.398 241.312H704.344V250H703.031V238.727H704.664L708.555 248.133H708.617L712.508 238.727H714.141V250Z" fill="#959AC5"/>
<circle cx="589" cy="226" r="8" fill="#58D7FF"/>
<circle cx="589" cy="288" r="8" fill="#58D7FF"/>
<rect x="588" y="234" width="1" height="46" fill="#DEDFED"/>
<rect x="588" y="296" width="1" height="46" fill="#DEDFED"/>
<path d="M652.734 292.188C651.177 292.188 649.94 291.664 649.023 290.617C648.112 289.565 647.656 288.146 647.656 286.359C647.656 284.589 648.117 283.177 649.039 282.125C649.961 281.068 651.193 280.539 652.734 280.539C653.964 280.539 655.005 280.883 655.859 281.57C656.719 282.253 657.237 283.156 657.414 284.281H655.992C655.81 283.542 655.422 282.951 654.828 282.508C654.234 282.06 653.536 281.836 652.734 281.836C651.635 281.836 650.755 282.247 650.094 283.07C649.432 283.893 649.102 284.99 649.102 286.359C649.102 287.745 649.43 288.846 650.086 289.664C650.742 290.482 651.628 290.891 652.742 290.891C653.57 290.891 654.268 290.701 654.836 290.32C655.404 289.94 655.789 289.406 655.992 288.719H657.414C657.154 289.833 656.62 290.69 655.812 291.289C655.005 291.888 653.979 292.188 652.734 292.188ZM658.938 292V280.727H660.297V292H658.938ZM665.5 292.141C664.365 292.141 663.453 291.763 662.766 291.008C662.078 290.247 661.734 289.224 661.734 287.938C661.734 286.651 662.078 285.63 662.766 284.875C663.453 284.115 664.365 283.734 665.5 283.734C666.63 283.734 667.539 284.115 668.227 284.875C668.914 285.63 669.258 286.651 669.258 287.938C669.258 289.219 668.914 290.24 668.227 291C667.539 291.76 666.63 292.141 665.5 292.141ZM663.758 290.148C664.19 290.68 664.771 290.945 665.5 290.945C666.229 290.945 666.807 290.682 667.234 290.156C667.661 289.625 667.875 288.885 667.875 287.938C667.875 286.99 667.661 286.253 667.234 285.727C666.807 285.195 666.229 284.93 665.5 284.93C664.771 284.93 664.19 285.195 663.758 285.727C663.331 286.258 663.117 286.995 663.117 287.938C663.117 288.88 663.331 289.617 663.758 290.148ZM677.383 286.539H676.055C675.951 286.07 675.719 285.685 675.359 285.383C675.005 285.081 674.544 284.93 673.977 284.93C673.268 284.93 672.698 285.203 672.266 285.75C671.833 286.292 671.617 287.021 671.617 287.938C671.617 288.87 671.833 289.604 672.266 290.141C672.703 290.677 673.279 290.945 673.992 290.945C674.539 290.945 674.99 290.81 675.344 290.539C675.703 290.263 675.943 289.878 676.062 289.383H677.398C677.294 290.195 676.927 290.859 676.297 291.375C675.672 291.885 674.901 292.141 673.984 292.141C672.849 292.141 671.94 291.766 671.258 291.016C670.576 290.26 670.234 289.234 670.234 287.938C670.234 286.661 670.576 285.643 671.258 284.883C671.94 284.117 672.844 283.734 673.969 283.734C674.938 283.734 675.724 284.008 676.328 284.555C676.938 285.102 677.289 285.763 677.383 286.539ZM680.078 287.484L683.672 283.875H685.32L681.797 287.383L685.43 292H683.852L680.836 288.219L680.078 288.938V292H678.719V280.727H680.078V287.484ZM690.867 282.109C691.799 281.062 693.065 280.539 694.664 280.539C696.263 280.539 697.529 281.062 698.461 282.109C699.393 283.156 699.859 284.576 699.859 286.367C699.859 288.159 699.393 289.578 698.461 290.625C697.529 291.667 696.263 292.188 694.664 292.188C693.065 292.188 691.799 291.667 690.867 290.625C689.935 289.578 689.469 288.159 689.469 286.367C689.469 284.576 689.935 283.156 690.867 282.109ZM697.398 283.062C696.727 282.245 695.815 281.836 694.664 281.836C693.513 281.836 692.599 282.245 691.922 283.062C691.25 283.875 690.914 284.977 690.914 286.367C690.914 287.753 691.25 288.854 691.922 289.672C692.599 290.484 693.513 290.891 694.664 290.891C695.815 290.891 696.727 290.484 697.398 289.672C698.076 288.854 698.414 287.753 698.414 286.367C698.414 284.977 698.076 283.875 697.398 283.062ZM708.07 283.875V292H706.781V290.68H706.75C706.245 291.654 705.385 292.141 704.172 292.141C703.292 292.141 702.602 291.875 702.102 291.344C701.607 290.807 701.359 290.076 701.359 289.148V283.875H702.719V288.906C702.719 290.26 703.344 290.938 704.594 290.938C705.25 290.938 705.766 290.732 706.141 290.32C706.521 289.904 706.711 289.346 706.711 288.648V283.875H708.07ZM710.273 281.914H711.633V283.875H713.211V284.992H711.633V289.82C711.633 290.19 711.714 290.464 711.875 290.641C712.036 290.812 712.292 290.898 712.641 290.898C712.859 290.898 713.047 290.885 713.203 290.859V292C713.026 292.042 712.74 292.062 712.344 292.062C711.599 292.062 711.068 291.896 710.75 291.562C710.432 291.229 710.273 290.672 710.273 289.891V284.992H709.062V283.875H710.273V281.914Z" fill="#464255"/>
<path d="M651.859 312.188C650.552 312.188 649.531 311.667 648.797 310.625C648.068 309.578 647.703 308.156 647.703 306.359C647.703 304.578 648.07 303.164 648.805 302.117C649.544 301.065 650.562 300.539 651.859 300.539C653.156 300.539 654.169 301.062 654.898 302.109C655.633 303.151 656 304.565 656 306.352C656 308.148 655.635 309.57 654.906 310.617C654.177 311.664 653.161 312.188 651.859 312.188ZM649.836 309.727C650.315 310.549 650.99 310.961 651.859 310.961C652.729 310.961 653.401 310.552 653.875 309.734C654.349 308.911 654.586 307.786 654.586 306.359C654.586 304.953 654.346 303.839 653.867 303.016C653.388 302.188 652.719 301.773 651.859 301.773C651 301.773 650.328 302.188 649.844 303.016C649.359 303.844 649.117 304.956 649.117 306.352C649.117 307.779 649.357 308.904 649.836 309.727ZM659.914 306.797V305.609H661.266C661.911 305.609 662.44 305.424 662.852 305.055C663.263 304.68 663.469 304.206 663.469 303.633C663.469 303.06 663.279 302.604 662.898 302.266C662.518 301.927 661.979 301.758 661.281 301.758C660.635 301.758 660.109 301.93 659.703 302.273C659.297 302.617 659.062 303.086 659 303.68H657.648C657.727 302.721 658.096 301.958 658.758 301.391C659.424 300.823 660.286 300.539 661.344 300.539C662.359 300.539 663.203 300.812 663.875 301.359C664.547 301.906 664.883 302.602 664.883 303.445C664.883 304.148 664.674 304.74 664.258 305.219C663.841 305.698 663.279 306 662.57 306.125V306.156C663.424 306.208 664.104 306.482 664.609 306.977C665.115 307.466 665.367 308.107 665.367 308.898C665.367 309.529 665.19 310.096 664.836 310.602C664.482 311.107 664.003 311.497 663.398 311.773C662.794 312.049 662.125 312.188 661.391 312.188C660.224 312.188 659.284 311.896 658.57 311.312C657.857 310.729 657.474 309.964 657.422 309.016H658.773C658.836 309.604 659.099 310.078 659.562 310.438C660.026 310.792 660.63 310.969 661.375 310.969C662.12 310.969 662.732 310.779 663.211 310.398C663.695 310.018 663.938 309.534 663.938 308.945C663.938 308.284 663.703 307.76 663.234 307.375C662.771 306.99 662.135 306.797 661.328 306.797H659.914ZM668.836 311.82C668.664 311.992 668.453 312.078 668.203 312.078C667.953 312.078 667.742 311.992 667.57 311.82C667.398 311.648 667.312 311.438 667.312 311.188C667.312 310.938 667.398 310.727 667.57 310.555C667.742 310.383 667.953 310.297 668.203 310.297C668.453 310.297 668.664 310.383 668.836 310.555C669.008 310.727 669.094 310.938 669.094 311.188C669.094 311.438 669.008 311.648 668.836 311.82ZM668.836 306.07C668.664 306.242 668.453 306.328 668.203 306.328C667.953 306.328 667.742 306.242 667.57 306.07C667.398 305.898 667.312 305.688 667.312 305.438C667.312 305.188 667.398 304.977 667.57 304.805C667.742 304.633 667.953 304.547 668.203 304.547C668.453 304.547 668.664 304.633 668.836 304.805C669.008 304.977 669.094 305.188 669.094 305.438C669.094 305.688 669.008 305.898 668.836 306.07ZM673.445 306.797V305.609H674.797C675.443 305.609 675.971 305.424 676.383 305.055C676.794 304.68 677 304.206 677 303.633C677 303.06 676.81 302.604 676.43 302.266C676.049 301.927 675.51 301.758 674.812 301.758C674.167 301.758 673.641 301.93 673.234 302.273C672.828 302.617 672.594 303.086 672.531 303.68H671.18C671.258 302.721 671.628 301.958 672.289 301.391C672.956 300.823 673.818 300.539 674.875 300.539C675.891 300.539 676.734 300.812 677.406 301.359C678.078 301.906 678.414 302.602 678.414 303.445C678.414 304.148 678.206 304.74 677.789 305.219C677.372 305.698 676.81 306 676.102 306.125V306.156C676.956 306.208 677.635 306.482 678.141 306.977C678.646 307.466 678.898 308.107 678.898 308.898C678.898 309.529 678.721 310.096 678.367 310.602C678.013 311.107 677.534 311.497 676.93 311.773C676.326 312.049 675.656 312.188 674.922 312.188C673.755 312.188 672.815 311.896 672.102 311.312C671.388 310.729 671.005 309.964 670.953 309.016H672.305C672.367 309.604 672.63 310.078 673.094 310.438C673.557 310.792 674.161 310.969 674.906 310.969C675.651 310.969 676.263 310.779 676.742 310.398C677.227 310.018 677.469 309.534 677.469 308.945C677.469 308.284 677.234 307.76 676.766 307.375C676.302 306.99 675.667 306.797 674.859 306.797H673.445ZM684.562 312.188C683.255 312.188 682.234 311.667 681.5 310.625C680.771 309.578 680.406 308.156 680.406 306.359C680.406 304.578 680.773 303.164 681.508 302.117C682.247 301.065 683.266 300.539 684.562 300.539C685.859 300.539 686.872 301.062 687.602 302.109C688.336 303.151 688.703 304.565 688.703 306.352C688.703 308.148 688.339 309.57 687.609 310.617C686.88 311.664 685.865 312.188 684.562 312.188ZM682.539 309.727C683.018 310.549 683.693 310.961 684.562 310.961C685.432 310.961 686.104 310.552 686.578 309.734C687.052 308.911 687.289 307.786 687.289 306.359C687.289 304.953 687.049 303.839 686.57 303.016C686.091 302.188 685.422 301.773 684.562 301.773C683.703 301.773 683.031 302.188 682.547 303.016C682.062 303.844 681.82 304.956 681.82 306.352C681.82 307.779 682.06 308.904 682.539 309.727ZM693.781 300.727H697.805C698.862 300.727 699.727 301.065 700.398 301.742C701.076 302.414 701.414 303.281 701.414 304.344C701.414 305.411 701.076 306.284 700.398 306.961C699.721 307.638 698.852 307.977 697.789 307.977H695.188V312H693.781V300.727ZM695.188 301.977V306.727H697.438C698.24 306.727 698.862 306.518 699.305 306.102C699.747 305.68 699.969 305.094 699.969 304.344C699.969 303.594 699.747 303.013 699.305 302.602C698.867 302.185 698.245 301.977 697.438 301.977H695.188ZM714.141 312H712.828V303.312H712.773L709.18 311.922H707.992L704.398 303.312H704.344V312H703.031V300.727H704.664L708.555 310.133H708.617L712.508 300.727H714.141V312Z" fill="#959AC5"/>
<path d="M157.734 265.188C156.177 265.188 154.94 264.664 154.023 263.617C153.112 262.565 152.656 261.146 152.656 259.359C152.656 257.589 153.117 256.177 154.039 255.125C154.961 254.068 156.193 253.539 157.734 253.539C158.964 253.539 160.005 253.883 160.859 254.57C161.719 255.253 162.237 256.156 162.414 257.281H160.992C160.81 256.542 160.422 255.951 159.828 255.508C159.234 255.06 158.536 254.836 157.734 254.836C156.635 254.836 155.755 255.247 155.094 256.07C154.432 256.893 154.102 257.99 154.102 259.359C154.102 260.745 154.43 261.846 155.086 262.664C155.742 263.482 156.628 263.891 157.742 263.891C158.57 263.891 159.268 263.701 159.836 263.32C160.404 262.94 160.789 262.406 160.992 261.719H162.414C162.154 262.833 161.62 263.69 160.812 264.289C160.005 264.888 158.979 265.188 157.734 265.188ZM163.938 265V253.727H165.297V265H163.938ZM170.5 265.141C169.365 265.141 168.453 264.763 167.766 264.008C167.078 263.247 166.734 262.224 166.734 260.938C166.734 259.651 167.078 258.63 167.766 257.875C168.453 257.115 169.365 256.734 170.5 256.734C171.63 256.734 172.539 257.115 173.227 257.875C173.914 258.63 174.258 259.651 174.258 260.938C174.258 262.219 173.914 263.24 173.227 264C172.539 264.76 171.63 265.141 170.5 265.141ZM168.758 263.148C169.19 263.68 169.771 263.945 170.5 263.945C171.229 263.945 171.807 263.682 172.234 263.156C172.661 262.625 172.875 261.885 172.875 260.938C172.875 259.99 172.661 259.253 172.234 258.727C171.807 258.195 171.229 257.93 170.5 257.93C169.771 257.93 169.19 258.195 168.758 258.727C168.331 259.258 168.117 259.995 168.117 260.938C168.117 261.88 168.331 262.617 168.758 263.148ZM182.383 259.539H181.055C180.951 259.07 180.719 258.685 180.359 258.383C180.005 258.081 179.544 257.93 178.977 257.93C178.268 257.93 177.698 258.203 177.266 258.75C176.833 259.292 176.617 260.021 176.617 260.938C176.617 261.87 176.833 262.604 177.266 263.141C177.703 263.677 178.279 263.945 178.992 263.945C179.539 263.945 179.99 263.81 180.344 263.539C180.703 263.263 180.943 262.878 181.062 262.383H182.398C182.294 263.195 181.927 263.859 181.297 264.375C180.672 264.885 179.901 265.141 178.984 265.141C177.849 265.141 176.94 264.766 176.258 264.016C175.576 263.26 175.234 262.234 175.234 260.938C175.234 259.661 175.576 258.643 176.258 257.883C176.94 257.117 177.844 256.734 178.969 256.734C179.938 256.734 180.724 257.008 181.328 257.555C181.938 258.102 182.289 258.763 182.383 259.539ZM185.078 260.484L188.672 256.875H190.32L186.797 260.383L190.43 265H188.852L185.836 261.219L185.078 261.938V265H183.719V253.727H185.078V260.484ZM156.859 295.188C155.552 295.188 154.531 294.667 153.797 293.625C153.068 292.578 152.703 291.156 152.703 289.359C152.703 287.578 153.07 286.164 153.805 285.117C154.544 284.065 155.562 283.539 156.859 283.539C158.156 283.539 159.169 284.062 159.898 285.109C160.633 286.151 161 287.565 161 289.352C161 291.148 160.635 292.57 159.906 293.617C159.177 294.664 158.161 295.188 156.859 295.188ZM154.836 292.727C155.315 293.549 155.99 293.961 156.859 293.961C157.729 293.961 158.401 293.552 158.875 292.734C159.349 291.911 159.586 290.786 159.586 289.359C159.586 287.953 159.346 286.839 158.867 286.016C158.388 285.188 157.719 284.773 156.859 284.773C156 284.773 155.328 285.188 154.844 286.016C154.359 286.844 154.117 287.956 154.117 289.352C154.117 290.779 154.357 291.904 154.836 292.727ZM164.914 289.797V288.609H166.266C166.911 288.609 167.44 288.424 167.852 288.055C168.263 287.68 168.469 287.206 168.469 286.633C168.469 286.06 168.279 285.604 167.898 285.266C167.518 284.927 166.979 284.758 166.281 284.758C165.635 284.758 165.109 284.93 164.703 285.273C164.297 285.617 164.062 286.086 164 286.68H162.648C162.727 285.721 163.096 284.958 163.758 284.391C164.424 283.823 165.286 283.539 166.344 283.539C167.359 283.539 168.203 283.812 168.875 284.359C169.547 284.906 169.883 285.602 169.883 286.445C169.883 287.148 169.674 287.74 169.258 288.219C168.841 288.698 168.279 289 167.57 289.125V289.156C168.424 289.208 169.104 289.482 169.609 289.977C170.115 290.466 170.367 291.107 170.367 291.898C170.367 292.529 170.19 293.096 169.836 293.602C169.482 294.107 169.003 294.497 168.398 294.773C167.794 295.049 167.125 295.188 166.391 295.188C165.224 295.188 164.284 294.896 163.57 294.312C162.857 293.729 162.474 292.964 162.422 292.016H163.773C163.836 292.604 164.099 293.078 164.562 293.438C165.026 293.792 165.63 293.969 166.375 293.969C167.12 293.969 167.732 293.779 168.211 293.398C168.695 293.018 168.938 292.534 168.938 291.945C168.938 291.284 168.703 290.76 168.234 290.375C167.771 289.99 167.135 289.797 166.328 289.797H164.914ZM173.836 294.82C173.664 294.992 173.453 295.078 173.203 295.078C172.953 295.078 172.742 294.992 172.57 294.82C172.398 294.648 172.312 294.438 172.312 294.188C172.312 293.938 172.398 293.727 172.57 293.555C172.742 293.383 172.953 293.297 173.203 293.297C173.453 293.297 173.664 293.383 173.836 293.555C174.008 293.727 174.094 293.938 174.094 294.188C174.094 294.438 174.008 294.648 173.836 294.82ZM173.836 289.07C173.664 289.242 173.453 289.328 173.203 289.328C172.953 289.328 172.742 289.242 172.57 289.07C172.398 288.898 172.312 288.688 172.312 288.438C172.312 288.188 172.398 287.977 172.57 287.805C172.742 287.633 172.953 287.547 173.203 287.547C173.453 287.547 173.664 287.633 173.836 287.805C174.008 287.977 174.094 288.188 174.094 288.438C174.094 288.688 174.008 288.898 173.836 289.07ZM178.445 289.797V288.609H179.797C180.443 288.609 180.971 288.424 181.383 288.055C181.794 287.68 182 287.206 182 286.633C182 286.06 181.81 285.604 181.43 285.266C181.049 284.927 180.51 284.758 179.812 284.758C179.167 284.758 178.641 284.93 178.234 285.273C177.828 285.617 177.594 286.086 177.531 286.68H176.18C176.258 285.721 176.628 284.958 177.289 284.391C177.956 283.823 178.818 283.539 179.875 283.539C180.891 283.539 181.734 283.812 182.406 284.359C183.078 284.906 183.414 285.602 183.414 286.445C183.414 287.148 183.206 287.74 182.789 288.219C182.372 288.698 181.81 289 181.102 289.125V289.156C181.956 289.208 182.635 289.482 183.141 289.977C183.646 290.466 183.898 291.107 183.898 291.898C183.898 292.529 183.721 293.096 183.367 293.602C183.013 294.107 182.534 294.497 181.93 294.773C181.326 295.049 180.656 295.188 179.922 295.188C178.755 295.188 177.815 294.896 177.102 294.312C176.388 293.729 176.005 292.964 175.953 292.016H177.305C177.367 292.604 177.63 293.078 178.094 293.438C178.557 293.792 179.161 293.969 179.906 293.969C180.651 293.969 181.263 293.779 181.742 293.398C182.227 293.018 182.469 292.534 182.469 291.945C182.469 291.284 182.234 290.76 181.766 290.375C181.302 289.99 180.667 289.797 179.859 289.797H178.445ZM189.562 295.188C188.255 295.188 187.234 294.667 186.5 293.625C185.771 292.578 185.406 291.156 185.406 289.359C185.406 287.578 185.773 286.164 186.508 285.117C187.247 284.065 188.266 283.539 189.562 283.539C190.859 283.539 191.872 284.062 192.602 285.109C193.336 286.151 193.703 287.565 193.703 289.352C193.703 291.148 193.339 292.57 192.609 293.617C191.88 294.664 190.865 295.188 189.562 295.188ZM187.539 292.727C188.018 293.549 188.693 293.961 189.562 293.961C190.432 293.961 191.104 293.552 191.578 292.734C192.052 291.911 192.289 290.786 192.289 289.359C192.289 287.953 192.049 286.839 191.57 286.016C191.091 285.188 190.422 284.773 189.562 284.773C188.703 284.773 188.031 285.188 187.547 286.016C187.062 286.844 186.82 287.956 186.82 289.352C186.82 290.779 187.06 291.904 187.539 292.727ZM198.781 283.727H202.805C203.862 283.727 204.727 284.065 205.398 284.742C206.076 285.414 206.414 286.281 206.414 287.344C206.414 288.411 206.076 289.284 205.398 289.961C204.721 290.638 203.852 290.977 202.789 290.977H200.188V295H198.781V283.727ZM200.188 284.977V289.727H202.438C203.24 289.727 203.862 289.518 204.305 289.102C204.747 288.68 204.969 288.094 204.969 287.344C204.969 286.594 204.747 286.013 204.305 285.602C203.867 285.185 203.245 284.977 202.438 284.977H200.188ZM219.141 295H217.828V286.312H217.773L214.18 294.922H212.992L209.398 286.312H209.344V295H208.031V283.727H209.664L213.555 293.133H213.617L217.508 283.727H219.141V295Z" fill="#959AC5"/>
<path d="M157.734 508.188C156.177 508.188 154.94 507.664 154.023 506.617C153.112 505.565 152.656 504.146 152.656 502.359C152.656 500.589 153.117 499.177 154.039 498.125C154.961 497.068 156.193 496.539 157.734 496.539C158.964 496.539 160.005 496.883 160.859 497.57C161.719 498.253 162.237 499.156 162.414 500.281H160.992C160.81 499.542 160.422 498.951 159.828 498.508C159.234 498.06 158.536 497.836 157.734 497.836C156.635 497.836 155.755 498.247 155.094 499.07C154.432 499.893 154.102 500.99 154.102 502.359C154.102 503.745 154.43 504.846 155.086 505.664C155.742 506.482 156.628 506.891 157.742 506.891C158.57 506.891 159.268 506.701 159.836 506.32C160.404 505.94 160.789 505.406 160.992 504.719H162.414C162.154 505.833 161.62 506.69 160.812 507.289C160.005 507.888 158.979 508.188 157.734 508.188ZM163.938 508V496.727H165.297V508H163.938ZM170.5 508.141C169.365 508.141 168.453 507.763 167.766 507.008C167.078 506.247 166.734 505.224 166.734 503.938C166.734 502.651 167.078 501.63 167.766 500.875C168.453 500.115 169.365 499.734 170.5 499.734C171.63 499.734 172.539 500.115 173.227 500.875C173.914 501.63 174.258 502.651 174.258 503.938C174.258 505.219 173.914 506.24 173.227 507C172.539 507.76 171.63 508.141 170.5 508.141ZM168.758 506.148C169.19 506.68 169.771 506.945 170.5 506.945C171.229 506.945 171.807 506.682 172.234 506.156C172.661 505.625 172.875 504.885 172.875 503.938C172.875 502.99 172.661 502.253 172.234 501.727C171.807 501.195 171.229 500.93 170.5 500.93C169.771 500.93 169.19 501.195 168.758 501.727C168.331 502.258 168.117 502.995 168.117 503.938C168.117 504.88 168.331 505.617 168.758 506.148ZM182.383 502.539H181.055C180.951 502.07 180.719 501.685 180.359 501.383C180.005 501.081 179.544 500.93 178.977 500.93C178.268 500.93 177.698 501.203 177.266 501.75C176.833 502.292 176.617 503.021 176.617 503.938C176.617 504.87 176.833 505.604 177.266 506.141C177.703 506.677 178.279 506.945 178.992 506.945C179.539 506.945 179.99 506.81 180.344 506.539C180.703 506.263 180.943 505.878 181.062 505.383H182.398C182.294 506.195 181.927 506.859 181.297 507.375C180.672 507.885 179.901 508.141 178.984 508.141C177.849 508.141 176.94 507.766 176.258 507.016C175.576 506.26 175.234 505.234 175.234 503.938C175.234 502.661 175.576 501.643 176.258 500.883C176.94 500.117 177.844 499.734 178.969 499.734C179.938 499.734 180.724 500.008 181.328 500.555C181.938 501.102 182.289 501.763 182.383 502.539ZM185.078 503.484L188.672 499.875H190.32L186.797 503.383L190.43 508H188.852L185.836 504.219L185.078 504.938V508H183.719V496.727H185.078V503.484ZM156.859 538.188C155.552 538.188 154.531 537.667 153.797 536.625C153.068 535.578 152.703 534.156 152.703 532.359C152.703 530.578 153.07 529.164 153.805 528.117C154.544 527.065 155.562 526.539 156.859 526.539C158.156 526.539 159.169 527.062 159.898 528.109C160.633 529.151 161 530.565 161 532.352C161 534.148 160.635 535.57 159.906 536.617C159.177 537.664 158.161 538.188 156.859 538.188ZM154.836 535.727C155.315 536.549 155.99 536.961 156.859 536.961C157.729 536.961 158.401 536.552 158.875 535.734C159.349 534.911 159.586 533.786 159.586 532.359C159.586 530.953 159.346 529.839 158.867 529.016C158.388 528.188 157.719 527.773 156.859 527.773C156 527.773 155.328 528.188 154.844 529.016C154.359 529.844 154.117 530.956 154.117 532.352C154.117 533.779 154.357 534.904 154.836 535.727ZM164.914 532.797V531.609H166.266C166.911 531.609 167.44 531.424 167.852 531.055C168.263 530.68 168.469 530.206 168.469 529.633C168.469 529.06 168.279 528.604 167.898 528.266C167.518 527.927 166.979 527.758 166.281 527.758C165.635 527.758 165.109 527.93 164.703 528.273C164.297 528.617 164.062 529.086 164 529.68H162.648C162.727 528.721 163.096 527.958 163.758 527.391C164.424 526.823 165.286 526.539 166.344 526.539C167.359 526.539 168.203 526.812 168.875 527.359C169.547 527.906 169.883 528.602 169.883 529.445C169.883 530.148 169.674 530.74 169.258 531.219C168.841 531.698 168.279 532 167.57 532.125V532.156C168.424 532.208 169.104 532.482 169.609 532.977C170.115 533.466 170.367 534.107 170.367 534.898C170.367 535.529 170.19 536.096 169.836 536.602C169.482 537.107 169.003 537.497 168.398 537.773C167.794 538.049 167.125 538.188 166.391 538.188C165.224 538.188 164.284 537.896 163.57 537.312C162.857 536.729 162.474 535.964 162.422 535.016H163.773C163.836 535.604 164.099 536.078 164.562 536.438C165.026 536.792 165.63 536.969 166.375 536.969C167.12 536.969 167.732 536.779 168.211 536.398C168.695 536.018 168.938 535.534 168.938 534.945C168.938 534.284 168.703 533.76 168.234 533.375C167.771 532.99 167.135 532.797 166.328 532.797H164.914ZM173.836 537.82C173.664 537.992 173.453 538.078 173.203 538.078C172.953 538.078 172.742 537.992 172.57 537.82C172.398 537.648 172.312 537.438 172.312 537.188C172.312 536.938 172.398 536.727 172.57 536.555C172.742 536.383 172.953 536.297 173.203 536.297C173.453 536.297 173.664 536.383 173.836 536.555C174.008 536.727 174.094 536.938 174.094 537.188C174.094 537.438 174.008 537.648 173.836 537.82ZM173.836 532.07C173.664 532.242 173.453 532.328 173.203 532.328C172.953 532.328 172.742 532.242 172.57 532.07C172.398 531.898 172.312 531.688 172.312 531.438C172.312 531.188 172.398 530.977 172.57 530.805C172.742 530.633 172.953 530.547 173.203 530.547C173.453 530.547 173.664 530.633 173.836 530.805C174.008 530.977 174.094 531.188 174.094 531.438C174.094 531.688 174.008 531.898 173.836 532.07ZM178.445 532.797V531.609H179.797C180.443 531.609 180.971 531.424 181.383 531.055C181.794 530.68 182 530.206 182 529.633C182 529.06 181.81 528.604 181.43 528.266C181.049 527.927 180.51 527.758 179.812 527.758C179.167 527.758 178.641 527.93 178.234 528.273C177.828 528.617 177.594 529.086 177.531 529.68H176.18C176.258 528.721 176.628 527.958 177.289 527.391C177.956 526.823 178.818 526.539 179.875 526.539C180.891 526.539 181.734 526.812 182.406 527.359C183.078 527.906 183.414 528.602 183.414 529.445C183.414 530.148 183.206 530.74 182.789 531.219C182.372 531.698 181.81 532 181.102 532.125V532.156C181.956 532.208 182.635 532.482 183.141 532.977C183.646 533.466 183.898 534.107 183.898 534.898C183.898 535.529 183.721 536.096 183.367 536.602C183.013 537.107 182.534 537.497 181.93 537.773C181.326 538.049 180.656 538.188 179.922 538.188C178.755 538.188 177.815 537.896 177.102 537.312C176.388 536.729 176.005 535.964 175.953 535.016H177.305C177.367 535.604 177.63 536.078 178.094 536.438C178.557 536.792 179.161 536.969 179.906 536.969C180.651 536.969 181.263 536.779 181.742 536.398C182.227 536.018 182.469 535.534 182.469 534.945C182.469 534.284 182.234 533.76 181.766 533.375C181.302 532.99 180.667 532.797 179.859 532.797H178.445ZM189.562 538.188C188.255 538.188 187.234 537.667 186.5 536.625C185.771 535.578 185.406 534.156 185.406 532.359C185.406 530.578 185.773 529.164 186.508 528.117C187.247 527.065 188.266 526.539 189.562 526.539C190.859 526.539 191.872 527.062 192.602 528.109C193.336 529.151 193.703 530.565 193.703 532.352C193.703 534.148 193.339 535.57 192.609 536.617C191.88 537.664 190.865 538.188 189.562 538.188ZM187.539 535.727C188.018 536.549 188.693 536.961 189.562 536.961C190.432 536.961 191.104 536.552 191.578 535.734C192.052 534.911 192.289 533.786 192.289 532.359C192.289 530.953 192.049 529.839 191.57 529.016C191.091 528.188 190.422 527.773 189.562 527.773C188.703 527.773 188.031 528.188 187.547 529.016C187.062 529.844 186.82 530.956 186.82 532.352C186.82 533.779 187.06 534.904 187.539 535.727ZM198.781 526.727H202.805C203.862 526.727 204.727 527.065 205.398 527.742C206.076 528.414 206.414 529.281 206.414 530.344C206.414 531.411 206.076 532.284 205.398 532.961C204.721 533.638 203.852 533.977 202.789 533.977H200.188V538H198.781V526.727ZM200.188 527.977V532.727H202.438C203.24 532.727 203.862 532.518 204.305 532.102C204.747 531.68 204.969 531.094 204.969 530.344C204.969 529.594 204.747 529.013 204.305 528.602C203.867 528.185 203.245 527.977 202.438 527.977H200.188ZM219.141 538H217.828V529.312H217.773L214.18 537.922H212.992L209.398 529.312H209.344V538H208.031V526.727H209.664L213.555 536.133H213.617L217.508 526.727H219.141V538Z" fill="#959AC5"/>
<path d="M620.359 196L619.398 193.086H615.25L614.289 196H612.211L616.211 184.727H618.484L622.484 196H620.359ZM617.297 186.719L615.719 191.531H618.922L617.352 186.719H617.297ZM630.531 190.672H628.695C628.612 190.208 628.414 189.836 628.102 189.555C627.789 189.268 627.383 189.125 626.883 189.125C626.268 189.125 625.779 189.37 625.414 189.859C625.049 190.344 624.867 191.01 624.867 191.859C624.867 192.719 625.049 193.391 625.414 193.875C625.779 194.354 626.273 194.594 626.898 194.594C627.388 194.594 627.789 194.464 628.102 194.203C628.414 193.938 628.615 193.568 628.703 193.094H630.539C630.461 194.021 630.089 194.766 629.422 195.328C628.76 195.885 627.911 196.164 626.875 196.164C625.656 196.164 624.688 195.781 623.969 195.016C623.25 194.245 622.891 193.193 622.891 191.859C622.891 190.542 623.25 189.495 623.969 188.719C624.688 187.938 625.651 187.547 626.859 187.547C627.922 187.547 628.781 187.844 629.438 188.438C630.099 189.026 630.464 189.771 630.531 190.672ZM632.242 185.781H634.188V187.719H635.75V189.219H634.188V193.523C634.188 193.862 634.268 194.112 634.43 194.273C634.591 194.435 634.844 194.516 635.188 194.516C635.417 194.516 635.602 194.503 635.742 194.477V195.961C635.508 196.013 635.172 196.039 634.734 196.039C633.839 196.039 633.198 195.867 632.812 195.523C632.432 195.18 632.242 194.604 632.242 193.797V189.219H631.055V187.719H632.242V185.781ZM637.125 196V187.719H639.07V196H637.125ZM638.859 186.328C638.651 186.531 638.396 186.633 638.094 186.633C637.792 186.633 637.536 186.531 637.328 186.328C637.12 186.12 637.016 185.87 637.016 185.578C637.016 185.281 637.12 185.031 637.328 184.828C637.536 184.62 637.792 184.516 638.094 184.516C638.396 184.516 638.651 184.62 638.859 184.828C639.073 185.031 639.18 185.281 639.18 185.578C639.18 185.87 639.073 186.12 638.859 186.328ZM647.992 187.719L645.078 196H642.938L640 187.719H642.078L644 194.195H644.039L645.961 187.719H647.992ZM648.938 196V187.719H650.883V196H648.938ZM650.672 186.328C650.464 186.531 650.208 186.633 649.906 186.633C649.604 186.633 649.349 186.531 649.141 186.328C648.932 186.12 648.828 185.87 648.828 185.578C648.828 185.281 648.932 185.031 649.141 184.828C649.349 184.62 649.604 184.516 649.906 184.516C650.208 184.516 650.464 184.62 650.672 184.828C650.885 185.031 650.992 185.281 650.992 185.578C650.992 185.87 650.885 186.12 650.672 186.328ZM653.055 185.781H655V187.719H656.562V189.219H655V193.523C655 193.862 655.081 194.112 655.242 194.273C655.404 194.435 655.656 194.516 656 194.516C656.229 194.516 656.414 194.503 656.555 194.477V195.961C656.32 196.013 655.984 196.039 655.547 196.039C654.651 196.039 654.01 195.867 653.625 195.523C653.245 195.18 653.055 194.604 653.055 193.797V189.219H651.867V187.719H653.055V185.781ZM658.812 199.078C658.391 199.078 658.135 199.068 658.047 199.047V197.508C658.135 197.529 658.323 197.539 658.609 197.539C659.01 197.539 659.323 197.456 659.547 197.289C659.771 197.122 659.938 196.849 660.047 196.469C660.047 196.464 660.065 196.388 660.102 196.242C660.143 196.096 660.161 196.018 660.156 196.008L657.211 187.719H659.336L661.289 194.344H661.32L663.273 187.719H665.32L662.328 196.328C661.974 197.354 661.536 198.068 661.016 198.469C660.495 198.875 659.76 199.078 658.812 199.078Z" fill="#464255"/>
<path d="M911.422 196L910.289 192.773H905.805L904.672 196H903.195L907.352 184.727H908.742L912.898 196H911.422ZM908.023 186.438L906.219 191.578H909.875L908.07 186.438H908.023ZM918.516 196.188C916.958 196.188 915.721 195.664 914.805 194.617C913.893 193.565 913.438 192.146 913.438 190.359C913.438 188.589 913.898 187.177 914.82 186.125C915.742 185.068 916.974 184.539 918.516 184.539C919.745 184.539 920.786 184.883 921.641 185.57C922.5 186.253 923.018 187.156 923.195 188.281H921.773C921.591 187.542 921.203 186.951 920.609 186.508C920.016 186.06 919.318 185.836 918.516 185.836C917.417 185.836 916.536 186.247 915.875 187.07C915.214 187.893 914.883 188.99 914.883 190.359C914.883 191.745 915.211 192.846 915.867 193.664C916.523 194.482 917.409 194.891 918.523 194.891C919.352 194.891 920.049 194.701 920.617 194.32C921.185 193.94 921.57 193.406 921.773 192.719H923.195C922.935 193.833 922.401 194.69 921.594 195.289C920.786 195.888 919.76 196.188 918.516 196.188ZM928.57 196H927.164V185.992H923.609V184.727H932.125V185.992H928.57V196ZM935.016 196H933.609V184.727H935.016V196ZM938.164 186.109C939.096 185.062 940.362 184.539 941.961 184.539C943.56 184.539 944.826 185.062 945.758 186.109C946.69 187.156 947.156 188.576 947.156 190.367C947.156 192.159 946.69 193.578 945.758 194.625C944.826 195.667 943.56 196.188 941.961 196.188C940.362 196.188 939.096 195.667 938.164 194.625C937.232 193.578 936.766 192.159 936.766 190.367C936.766 188.576 937.232 187.156 938.164 186.109ZM944.695 187.062C944.023 186.245 943.112 185.836 941.961 185.836C940.81 185.836 939.896 186.245 939.219 187.062C938.547 187.875 938.211 188.977 938.211 190.367C938.211 191.753 938.547 192.854 939.219 193.672C939.896 194.484 940.81 194.891 941.961 194.891C943.112 194.891 944.023 194.484 944.695 193.672C945.372 192.854 945.711 191.753 945.711 190.367C945.711 188.977 945.372 187.875 944.695 187.062ZM950.297 196H948.906V184.727H950.273L956.445 193.578H956.516V184.727H957.906V196H956.539L950.367 187.18H950.297V196Z" fill="#464255"/>
<path fill-rule="evenodd" clip-rule="evenodd" d="M1006.72 108.092C1006.13 108.678 1006.13 109.627 1006.72 110.213C1007.3 110.799 1008.25 110.799 1008.84 110.213L1013.43 105.618L1018.03 110.215C1018.62 110.8 1019.57 110.8 1020.15 110.215C1020.74 109.629 1020.74 108.679 1020.15 108.093L1015.55 103.497L1020.15 98.8995C1020.74 98.3137 1020.74 97.364 1020.15 96.7782C1019.57 96.1924 1018.62 96.1924 1018.03 96.7782L1013.43 101.375L1008.84 96.7796C1008.25 96.1939 1007.3 96.1939 1006.72 96.7796C1006.13 97.3654 1006.13 98.3152 1006.72 98.901L1011.31 103.497L1006.72 108.092Z" fill="black"/>
<path fill-rule="evenodd" clip-rule="evenodd" d="M662 437C661.448 437 661 437.448 661 438V440H659C658.448 440 658 440.448 658 441C658 441.552 658.448 442 659 442H661V444C661 444.552 661.448 445 662 445C662.552 445 663 444.552 663 444V442H665C665.552 442 666 441.552 666 441C666 440.448 665.552 440 665 440H663V438C663 437.448 662.552 437 662 437Z" fill="white"/>
<path d="M120.948 100.862H128.873C130.924 100.862 132.594 101.507 133.883 102.796C135.182 104.085 135.831 105.755 135.831 107.806C135.831 109.866 135.172 111.546 133.854 112.845C132.545 114.134 130.851 114.778 128.771 114.778H124.229V122H120.948V100.862ZM124.229 103.631V112.024H127.994C129.42 112.024 130.523 111.658 131.305 110.926C132.086 110.193 132.477 109.158 132.477 107.82C132.477 106.492 132.086 105.462 131.305 104.729C130.533 103.997 129.435 103.631 128.009 103.631H124.229ZM138.321 122V106.59H141.339V109.212H141.412C141.666 108.313 142.12 107.61 142.774 107.103C143.429 106.595 144.21 106.341 145.118 106.341C145.421 106.341 145.782 106.38 146.202 106.458V109.402C145.919 109.285 145.445 109.227 144.781 109.227C143.766 109.227 142.96 109.544 142.364 110.179C141.778 110.813 141.485 111.678 141.485 112.771V122H138.321ZM156.617 109.974C155.924 109.231 155.03 108.86 153.937 108.86C152.843 108.86 151.935 109.236 151.212 109.988C150.489 110.73 150.089 111.692 150.011 112.874H157.716C157.677 111.683 157.311 110.716 156.617 109.974ZM157.701 117.474H160.704C160.479 118.89 159.757 120.047 158.536 120.945C157.315 121.844 155.826 122.293 154.068 122.293C151.812 122.293 150.035 121.585 148.736 120.169C147.447 118.743 146.803 116.81 146.803 114.368C146.803 111.946 147.447 109.998 148.736 108.523C150.035 107.049 151.769 106.312 153.937 106.312C156.065 106.312 157.755 107.01 159.005 108.406C160.255 109.793 160.88 111.658 160.88 114.002V115.086H149.996V115.276C149.996 116.624 150.372 117.703 151.124 118.514C151.876 119.324 152.882 119.729 154.142 119.729C155.03 119.729 155.792 119.524 156.427 119.114C157.062 118.704 157.486 118.157 157.701 117.474ZM163.062 110.955C163.062 109.578 163.619 108.46 164.732 107.601C165.846 106.741 167.301 106.312 169.098 106.312C170.807 106.312 172.208 106.746 173.302 107.615C174.405 108.475 174.981 109.593 175.03 110.97H172.057C171.979 110.267 171.671 109.715 171.134 109.314C170.597 108.914 169.889 108.714 169.01 108.714C168.15 108.714 167.457 108.904 166.93 109.285C166.412 109.666 166.153 110.159 166.153 110.765C166.153 111.702 166.939 112.366 168.512 112.757L171.104 113.357C172.657 113.729 173.756 114.236 174.4 114.881C175.055 115.516 175.382 116.404 175.382 117.547C175.382 118.953 174.786 120.096 173.595 120.975C172.413 121.854 170.875 122.293 168.98 122.293C167.174 122.293 165.699 121.863 164.557 121.004C163.424 120.145 162.794 119.002 162.667 117.576H165.802C165.929 118.318 166.275 118.89 166.842 119.29C167.408 119.681 168.17 119.876 169.127 119.876C170.074 119.876 170.821 119.695 171.368 119.334C171.925 118.963 172.203 118.465 172.203 117.84C172.203 117.342 172.037 116.946 171.705 116.653C171.373 116.36 170.807 116.111 170.006 115.906L167.252 115.232C164.459 114.559 163.062 113.133 163.062 110.955ZM186.969 109.974C186.275 109.231 185.382 108.86 184.288 108.86C183.194 108.86 182.286 109.236 181.563 109.988C180.841 110.73 180.44 111.692 180.362 112.874H188.067C188.028 111.683 187.662 110.716 186.969 109.974ZM188.053 117.474H191.056C190.831 118.89 190.108 120.047 188.888 120.945C187.667 121.844 186.178 122.293 184.42 122.293C182.164 122.293 180.387 121.585 179.088 120.169C177.799 118.743 177.154 116.81 177.154 114.368C177.154 111.946 177.799 109.998 179.088 108.523C180.387 107.049 182.12 106.312 184.288 106.312C186.417 106.312 188.106 107.01 189.356 108.406C190.606 109.793 191.231 111.658 191.231 114.002V115.086H180.348V115.276C180.348 116.624 180.724 117.703 181.476 118.514C182.228 119.324 183.233 119.729 184.493 119.729C185.382 119.729 186.144 119.524 186.778 119.114C187.413 118.704 187.838 118.157 188.053 117.474ZM193.692 122V106.59H196.71V109.168H196.783C197.213 108.27 197.838 107.571 198.658 107.073C199.479 106.575 200.47 106.326 201.632 106.326C203.321 106.326 204.635 106.834 205.572 107.85C206.51 108.855 206.979 110.247 206.979 112.024V122H203.8V112.64C203.8 111.468 203.521 110.579 202.965 109.974C202.418 109.358 201.603 109.051 200.519 109.051C199.405 109.051 198.517 109.412 197.853 110.135C197.188 110.857 196.856 111.819 196.856 113.021V122H193.692ZM223.268 111.893H220.25C220.084 111.023 219.684 110.315 219.049 109.769C218.424 109.222 217.618 108.948 216.632 108.948C215.401 108.948 214.415 109.432 213.673 110.398C212.94 111.355 212.574 112.654 212.574 114.295C212.574 115.965 212.94 117.273 213.673 118.221C214.415 119.168 215.411 119.642 216.661 119.642C217.628 119.642 218.419 119.393 219.034 118.895C219.659 118.387 220.064 117.684 220.25 116.785H223.297C223.131 118.436 222.438 119.769 221.217 120.784C220.006 121.79 218.478 122.293 216.632 122.293C214.415 122.293 212.647 121.58 211.329 120.154C210.011 118.719 209.352 116.766 209.352 114.295C209.352 111.854 210.011 109.915 211.329 108.479C212.647 107.034 214.405 106.312 216.603 106.312C218.517 106.312 220.069 106.849 221.261 107.923C222.452 108.987 223.121 110.311 223.268 111.893ZM234.664 109.974C233.971 109.231 233.077 108.86 231.983 108.86C230.89 108.86 229.981 109.236 229.259 109.988C228.536 110.73 228.136 111.692 228.058 112.874H235.763C235.724 111.683 235.357 110.716 234.664 109.974ZM235.748 117.474H238.751C238.526 118.89 237.804 120.047 236.583 120.945C235.362 121.844 233.873 122.293 232.115 122.293C229.859 122.293 228.082 121.585 226.783 120.169C225.494 118.743 224.85 116.81 224.85 114.368C224.85 111.946 225.494 109.998 226.783 108.523C228.082 107.049 229.815 106.312 231.983 106.312C234.112 106.312 235.802 107.01 237.052 108.406C238.302 109.793 238.927 111.658 238.927 114.002V115.086H228.043V115.276C228.043 116.624 228.419 117.703 229.171 118.514C229.923 119.324 230.929 119.729 232.188 119.729C233.077 119.729 233.839 119.524 234.474 119.114C235.108 118.704 235.533 118.157 235.748 117.474ZM247.862 100.862H255.318C258.463 100.862 260.914 101.785 262.672 103.631C264.439 105.477 265.323 108.064 265.323 111.395C265.323 114.734 264.444 117.337 262.687 119.202C260.929 121.067 258.473 122 255.318 122H247.862V100.862ZM251.144 103.689V119.158H255.011C257.257 119.158 258.976 118.494 260.167 117.166C261.368 115.838 261.969 113.924 261.969 111.424C261.969 108.934 261.368 107.024 260.167 105.696C258.966 104.358 257.247 103.689 255.011 103.689H251.144ZM277.203 109.974C276.51 109.231 275.616 108.86 274.522 108.86C273.429 108.86 272.521 109.236 271.798 109.988C271.075 110.73 270.675 111.692 270.597 112.874H278.302C278.263 111.683 277.896 110.716 277.203 109.974ZM278.287 117.474H281.29C281.065 118.89 280.343 120.047 279.122 120.945C277.901 121.844 276.412 122.293 274.654 122.293C272.398 122.293 270.621 121.585 269.322 120.169C268.033 118.743 267.389 116.81 267.389 114.368C267.389 111.946 268.033 109.998 269.322 108.523C270.621 107.049 272.354 106.312 274.522 106.312C276.651 106.312 278.341 107.01 279.591 108.406C280.841 109.793 281.466 111.658 281.466 114.002V115.086H270.582V115.276C270.582 116.624 270.958 117.703 271.71 118.514C272.462 119.324 273.468 119.729 274.728 119.729C275.616 119.729 276.378 119.524 277.013 119.114C277.647 118.704 278.072 118.157 278.287 117.474ZM284.85 102.942H288.028V106.59H290.958V109.095H288.028V117.591C288.028 118.255 288.18 118.743 288.482 119.056C288.785 119.368 289.259 119.524 289.903 119.524C290.372 119.524 290.719 119.5 290.943 119.451V121.956C290.553 122.054 289.967 122.103 289.186 122.103C287.633 122.103 286.52 121.785 285.846 121.15C285.182 120.506 284.85 119.437 284.85 117.942V109.095H282.608V106.59H284.85V102.942ZM298.722 119.759C299.835 119.759 300.768 119.422 301.52 118.748C302.281 118.064 302.662 117.225 302.662 116.229V115.013L298.868 115.247C297.921 115.315 297.188 115.55 296.671 115.95C296.163 116.341 295.909 116.868 295.909 117.532C295.909 118.206 296.163 118.748 296.671 119.158C297.188 119.559 297.872 119.759 298.722 119.759ZM297.843 122.264C296.329 122.264 295.094 121.834 294.137 120.975C293.189 120.115 292.716 118.997 292.716 117.62C292.716 116.272 293.214 115.203 294.21 114.412C295.206 113.611 296.617 113.162 298.443 113.064L302.662 112.815V111.629C302.662 110.77 302.389 110.101 301.842 109.622C301.295 109.134 300.538 108.89 299.571 108.89C298.673 108.89 297.94 109.09 297.374 109.49C296.817 109.891 296.466 110.442 296.319 111.146H293.331C293.419 109.72 294.034 108.558 295.177 107.659C296.319 106.761 297.823 106.312 299.688 106.312C301.554 106.312 303.038 106.771 304.142 107.688C305.255 108.606 305.812 109.837 305.812 111.38V122H302.779V119.466H302.706C302.267 120.315 301.598 120.994 300.699 121.502C299.811 122.01 298.858 122.264 297.843 122.264ZM308.99 122V106.59H312.154V122H308.99ZM311.876 103.807C311.515 104.158 311.08 104.334 310.572 104.334C310.064 104.334 309.63 104.158 309.269 103.807C308.917 103.455 308.741 103.03 308.741 102.532C308.741 102.024 308.917 101.595 309.269 101.243C309.63 100.892 310.064 100.716 310.572 100.716C311.09 100.716 311.524 100.892 311.876 101.243C312.237 101.595 312.418 102.024 312.418 102.532C312.418 103.03 312.237 103.455 311.876 103.807ZM315.509 122V100.862H318.673V122H315.509ZM321.646 110.955C321.646 109.578 322.203 108.46 323.316 107.601C324.43 106.741 325.885 106.312 327.682 106.312C329.391 106.312 330.792 106.746 331.886 107.615C332.989 108.475 333.565 109.593 333.614 110.97H330.641C330.562 110.267 330.255 109.715 329.718 109.314C329.181 108.914 328.473 108.714 327.594 108.714C326.734 108.714 326.041 108.904 325.514 109.285C324.996 109.666 324.737 110.159 324.737 110.765C324.737 111.702 325.523 112.366 327.096 112.757L329.688 113.357C331.241 113.729 332.34 114.236 332.984 114.881C333.639 115.516 333.966 116.404 333.966 117.547C333.966 118.953 333.37 120.096 332.179 120.975C330.997 121.854 329.459 122.293 327.564 122.293C325.758 122.293 324.283 121.863 323.141 121.004C322.008 120.145 321.378 119.002 321.251 117.576H324.386C324.513 118.318 324.859 118.89 325.426 119.29C325.992 119.681 326.754 119.876 327.711 119.876C328.658 119.876 329.405 119.695 329.952 119.334C330.509 118.963 330.787 118.465 330.787 117.84C330.787 117.342 330.621 116.946 330.289 116.653C329.957 116.36 329.391 116.111 328.59 115.906L325.836 115.232C323.043 114.559 321.646 113.133 321.646 110.955Z" fill="#464255"/>
</g>
<defs>
<filter id="filter0_d" x="0" y="0" width="1133" height="717" filterUnits="userSpaceOnUse" color-interpolation-filters="sRGB">
<feFlood flood-opacity="0" result="BackgroundImageFix"/>
<feColorMatrix in="SourceAlpha" type="matrix" values="0 0 0 0 0 0 0 0 0 0 0 0 0 0 0 0 0 0 127 0" result="hardAlpha"/>
<feOffset dy="16"/>
<feGaussianBlur stdDeviation="39"/>
<feComposite in2="hardAlpha" operator="out"/>
<feColorMatrix type="matrix" values="0 0 0 0 0 0 0 0 0 0 0 0 0 0 0 0 0 0 0.15 0"/>
<feBlend mode="normal" in2="BackgroundImageFix" result="effect1_dropShadow"/>
<feBlend mode="normal" in="SourceGraphic" in2="effect1_dropShadow" result="shape"/>
</filter>
</defs>
</svg>
