<svg width="16" height="16" viewBox="0 0 16 16" fill="none" xmlns="http://www.w3.org/2000/svg">
<path d="M0 6.73479C0 8.52096 0.709556 10.234 1.97257 11.497C3.23559 12.76 4.94861 13.4696 6.73479 13.4696C8.23046 13.4714 9.68332 12.9703 10.8598 12.0469L14.5556 15.751C14.6338 15.8299 14.7269 15.8925 14.8295 15.9353C14.9321 15.978 15.0421 16 15.1533 16C15.2644 16 15.3744 15.978 15.477 15.9353C15.5796 15.8925 15.6727 15.8299 15.751 15.751C15.8299 15.6727 15.8925 15.5796 15.9353 15.477C15.978 15.3744 16 15.2644 16 15.1533C16 15.0421 15.978 14.9321 15.9353 14.8295C15.8925 14.7269 15.8299 14.6338 15.751 14.5556L12.0469 10.8598C12.9703 9.68332 13.4714 8.23046 13.4696 6.73479C13.4696 4.94861 12.76 3.23559 11.497 1.97257C10.234 0.709556 8.52096 0 6.73479 0C4.94861 0 3.23559 0.709556 1.97257 1.97257C0.709556 3.23559 0 4.94861 0 6.73479ZM6.73479 1.6837C7.7338 1.6837 8.71037 1.97994 9.54102 2.53496C10.3717 3.08998 11.0191 3.87885 11.4014 4.80182C11.7837 5.72478 11.8837 6.74039 11.6888 7.72021C11.4939 8.70002 11.0129 9.60004 10.3064 10.3064C9.60004 11.0129 8.70002 11.4939 7.72021 11.6888C6.74039 11.8837 5.72478 11.7837 4.80182 11.4014C3.87885 11.0191 3.08998 10.3717 2.53496 9.54102C1.97994 8.71037 1.6837 7.7338 1.6837 6.73479C1.6837 5.39515 2.21586 4.11039 3.16313 3.16313C4.11039 2.21586 5.39515 1.6837 6.73479 1.6837Z" fill="#58D7FF"/>
</svg>
