<svg width="28" height="28" viewBox="0 0 28 28" fill="none" xmlns="http://www.w3.org/2000/svg">
<path d="M2.3333 11.6666C2.3333 14.142 3.31663 16.5159 5.06697 18.2663C6.81731 20.0166 9.19128 20.9999 11.6666 20.9999C13.7394 21.0025 15.7528 20.3081 17.3833 19.0283L22.505 24.1616C22.6134 24.271 22.7425 24.3578 22.8846 24.417C23.0268 24.4762 23.1793 24.5067 23.3333 24.5067C23.4873 24.5067 23.6398 24.4762 23.782 24.417C23.9241 24.3578 24.0532 24.271 24.1616 24.1616C24.271 24.0532 24.3578 23.9241 24.417 23.782C24.4762 23.6398 24.5067 23.4873 24.5067 23.3333C24.5067 23.1793 24.4762 23.0268 24.417 22.8846C24.3578 22.7424 24.271 22.6134 24.1616 22.5049L19.0283 17.3833C20.3081 15.7528 21.0025 13.7394 21 11.6666C21 9.19126 20.0166 6.81729 18.2663 5.06695C16.516 3.31661 14.142 2.33328 11.6666 2.33328C9.19128 2.33328 6.81731 3.31661 5.06697 5.06695C3.31663 6.81729 2.3333 9.19126 2.3333 11.6666ZM11.6666 4.66662C13.0511 4.66662 14.4045 5.07716 15.5556 5.84633C16.7068 6.6155 17.604 7.70875 18.1338 8.98783C18.6636 10.2669 18.8022 11.6744 18.5321 13.0322C18.262 14.3901 17.5953 15.6374 16.6164 16.6164C15.6374 17.5953 14.3901 18.262 13.0323 18.5321C11.6744 18.8022 10.2669 18.6636 8.98785 18.1338C7.70876 17.604 6.61551 16.7067 5.84634 15.5556C5.07717 14.4045 4.66663 13.0511 4.66663 11.6666C4.66663 9.8101 5.40413 8.02962 6.71688 6.71687C8.02964 5.40411 9.81011 4.66662 11.6666 4.66662Z" fill="#BABDD9"/>
</svg>
