<svg width="25" height="25" viewBox="0 0 25 25" fill="none" xmlns="http://www.w3.org/2000/svg">
<path d="M23.9662 0C23.7782 0 23.6842 0 23.4962 0.093985L16.9173 3.38346L9.3985 0H9.30451H9.21053C9.02256 0 8.92857 0 8.83459 0H8.7406H8.64662L0.56391 3.57143C0.281955 3.7594 0 4.13534 0 4.51128V23.9662C0 24.3421 0.18797 24.6241 0.469925 24.812C0.75188 25 1.12782 25 1.40977 24.906L8.92857 21.5226L16.4474 24.906C16.4474 24.906 16.5414 24.906 16.4474 24.906C16.5414 25 16.7293 25 16.8233 25C16.9173 25 17.1053 25 17.1992 24.906L24.3421 21.3346C24.718 21.1466 24.906 20.7707 24.906 20.3947V1.03383C25 0.469925 24.5301 0 23.9662 0ZM22.9323 2.63158V19.7368L17.8571 22.2744V5.16917L22.9323 2.63158ZM15.8835 5.16917V22.3684L9.96241 19.7368V2.53759L15.8835 5.16917ZM7.98872 2.53759V19.7368L2.06767 22.3684V5.16917L7.98872 2.53759Z" fill="#BABDD9"/>
</svg>
