<svg width="22" height="24" viewBox="0 0 22 24" fill="none" xmlns="http://www.w3.org/2000/svg">
<path d="M0.5 8.33305V22.3331C0.5 22.6425 0.622916 22.9392 0.841709 23.158C1.0605 23.3768 1.35725 23.4997 1.66667 23.4997H7.5C7.80942 23.4997 8.10616 23.3768 8.32496 23.158C8.54375 22.9392 8.66667 22.6425 8.66667 22.3331V14.1664H13.3333V22.3331C13.3333 22.6425 13.4562 22.9392 13.675 23.158C13.8938 23.3768 14.1906 23.4997 14.5 23.4997H20.3333C20.6428 23.4997 20.9395 23.3768 21.1583 23.158C21.3771 22.9392 21.5 22.6425 21.5 22.3331V8.33305C21.5 8.15193 21.4578 7.9733 21.3768 7.8113C21.2958 7.6493 21.1782 7.50839 21.0333 7.39972L11.7 0.399715C11.4981 0.248256 11.2524 0.166382 11 0.166382C10.7476 0.166382 10.5019 0.248256 10.3 0.399715L0.966667 7.39972C0.821771 7.50839 0.704167 7.6493 0.623168 7.8113C0.542169 7.9733 0.5 8.15193 0.5 8.33305ZM2.83333 8.91638L11 2.79138L19.1667 8.91638V21.1664H15.6667V12.9997C15.6667 12.6903 15.5437 12.3936 15.325 12.1748C15.1062 11.956 14.8094 11.8331 14.5 11.8331H7.5C7.19058 11.8331 6.89383 11.956 6.67504 12.1748C6.45625 12.3936 6.33333 12.6903 6.33333 12.9997V21.1664H2.83333V8.91638Z" fill="#BABDD9"/>
</svg>
