<svg width="28" height="28" viewBox="0 0 28 28" fill="none" xmlns="http://www.w3.org/2000/svg">
<path d="M24.5 22.1663H5.83333V3.49967C5.83333 3.19026 5.71042 2.89351 5.49162 2.67472C5.27283 2.45592 4.97609 2.33301 4.66667 2.33301C4.35725 2.33301 4.0605 2.45592 3.84171 2.67472C3.62292 2.89351 3.5 3.19026 3.5 3.49967V23.333C3.5 23.6424 3.62292 23.9392 3.84171 24.158C4.0605 24.3768 4.35725 24.4997 4.66667 24.4997H24.5C24.8094 24.4997 25.1062 24.3768 25.325 24.158C25.5438 23.9392 25.6667 23.6424 25.6667 23.333C25.6667 23.0236 25.5438 22.7268 25.325 22.5081C25.1062 22.2893 24.8094 22.1663 24.5 22.1663Z" fill="#BABDD9"/>
<path d="M8.16669 12.8337V18.667C8.16669 18.9764 8.2896 19.2732 8.5084 19.4919C8.72719 19.7107 9.02393 19.8337 9.33335 19.8337C9.64277 19.8337 9.93952 19.7107 10.1583 19.4919C10.3771 19.2732 10.5 18.9764 10.5 18.667V12.8337C10.5 12.5242 10.3771 12.2275 10.1583 12.0087C9.93952 11.7899 9.64277 11.667 9.33335 11.667C9.02393 11.667 8.72719 11.7899 8.5084 12.0087C8.2896 12.2275 8.16669 12.5242 8.16669 12.8337Z" fill="#BABDD9"/>
<path d="M12.8333 6.99967V18.6663C12.8333 18.9758 12.9562 19.2725 13.175 19.4913C13.3938 19.7101 13.6906 19.833 14 19.833C14.3094 19.833 14.6061 19.7101 14.8249 19.4913C15.0437 19.2725 15.1666 18.9758 15.1666 18.6663V6.99967C15.1666 6.69026 15.0437 6.39351 14.8249 6.17472C14.6061 5.95592 14.3094 5.83301 14 5.83301C13.6906 5.83301 13.3938 5.95592 13.175 6.17472C12.9562 6.39351 12.8333 6.69026 12.8333 6.99967Z" fill="#BABDD9"/>
<path d="M17.5 9.33366V18.667C17.5 18.9764 17.6229 19.2732 17.8417 19.4919C18.0605 19.7107 18.3572 19.8337 18.6667 19.8337C18.9761 19.8337 19.2728 19.7107 19.4916 19.4919C19.7104 19.2732 19.8333 18.9764 19.8333 18.667V9.33366C19.8333 9.02424 19.7104 8.72749 19.4916 8.5087C19.2728 8.28991 18.9761 8.16699 18.6667 8.16699C18.3572 8.16699 18.0605 8.28991 17.8417 8.5087C17.6229 8.72749 17.5 9.02424 17.5 9.33366Z" fill="#BABDD9"/>
<path d="M22.1667 3.49967V18.6663C22.1667 18.9758 22.2896 19.2725 22.5084 19.4913C22.7272 19.7101 23.0239 19.833 23.3334 19.833C23.6428 19.833 23.9395 19.7101 24.1583 19.4913C24.3771 19.2725 24.5 18.9758 24.5 18.6663V3.49967C24.5 3.19026 24.3771 2.89351 24.1583 2.67472C23.9395 2.45592 23.6428 2.33301 23.3334 2.33301C23.0239 2.33301 22.7272 2.45592 22.5084 2.67472C22.2896 2.89351 22.1667 3.19026 22.1667 3.49967Z" fill="#BABDD9"/>
</svg>
