<svg width="21" height="26" viewBox="0 0 21 26" fill="none" xmlns="http://www.w3.org/2000/svg">
<g clip-path="url(#clip0)">
<path d="M5.2002 17.7H9.1002C9.7002 17.7 10.1002 17.3 10.1002 16.7V12.8C10.1002 12.2 9.7002 11.8 9.1002 11.8H5.2002C4.6002 11.8 4.2002 12.2 4.2002 12.8V16.7C4.2002 17.2 4.6002 17.7 5.2002 17.7ZM6.2002 15.7V13.8H8.1002V15.7H6.2002Z" fill="#BABDD9"/>
<path d="M12.2998 13.8H16.4998C17.0998 13.8 17.4998 13.4 17.4998 12.8C17.4998 12.2 17.0998 11.8 16.4998 11.8H12.2998C11.6998 11.8 11.2998 12.2 11.2998 12.8C11.2998 13.4 11.7998 13.8 12.2998 13.8Z" fill="#BABDD9"/>
<path d="M12.2998 17.7H14.9998C15.5998 17.7 15.9998 17.3 15.9998 16.7C15.9998 16.1 15.5998 15.7 14.9998 15.7H12.2998C11.6998 15.7 11.2998 16.1 11.2998 16.7C11.2998 17.2 11.7998 17.7 12.2998 17.7Z" fill="#BABDD9"/>
<path d="M5.2002 21.8H15.0002C15.6002 21.8 16.0002 21.4 16.0002 20.8C16.0002 20.2 15.6002 19.8 15.0002 19.8H5.2002C4.6002 19.8 4.2002 20.2 4.2002 20.8C4.2002 21.3 4.6002 21.8 5.2002 21.8Z" fill="#BABDD9"/>
<path d="M18.8 4.1H15C14.5 2.1 12.7 0.5 10.6 0.5C8.5 0.5 6.6 2 6.2 4.1H2.2C1 4.1 0 5.1 0 6.3V23.5C0 24.7 1 25.7 2.2 25.7H18.8C20 25.7 21 24.7 21 23.5V6.3C21 5.1 20 4.1 18.8 4.1ZM5.7 7.2V6.1H7C7.5 6.1 8 5.7 8 5.1C7.9 3.7 9.1 2.5 10.5 2.5C11.9 2.5 13.1 3.6 13.1 5.1C13.1 5.7 13.5 6.1 14.1 6.1H15.4V7.2H5.7ZM4.7 9.2H16.3C16.9 9.2 17.3 8.8 17.3 8.2V6.1H18.8C18.9 6.1 19 6.2 19 6.3V23.5C19 23.6 18.9 23.7 18.8 23.7H2.2C2.1 23.7 2 23.6 2 23.5V6.3C2 6.2 2.1 6.1 2.2 6.1H3.7V8.2C3.7 8.7 4.1 9.2 4.7 9.2Z" fill="#BABDD9"/>
</g>
<defs>
<clipPath id="clip0">
<rect width="21" height="25.2" fill="white" transform="translate(0 0.5)"/>
</clipPath>
</defs>
</svg>
