<svg width="22" height="23" viewBox="0 0 22 23" fill="none" xmlns="http://www.w3.org/2000/svg">
<g clip-path="url(#clip0)">
<path d="M13.3 20.6H3.8C2.7 20.6 1.9 19.7 1.9 18.7V6.2C1.9 5.1 2.8 4.3 3.8 4.3H6.8V4.8C6.8 6.4 8.1 7.7 9.7 7.7C11.3 7.7 12.6 6.4 12.6 4.8V4.3H15.6C16.7 4.3 17.5 5.2 17.5 6.2V11.2C17.5 11.7 17.9 12.2 18.5 12.2C19.1 12.2 19.5 11.8 19.5 11.2V6.2C19.5 4.1 17.8 2.4 15.7 2.4H12.7V1C12.7 0.5 12.3 0 11.7 0H7.8C7.3 0 6.8 0.4 6.8 1V2.4H3.8C1.7 2.4 0 4.1 0 6.2V18.7C0 20.8 1.7 22.5 3.8 22.5H13.2C13.7 22.5 14.2 22.1 14.2 21.5C14.2 20.9 13.8 20.6 13.3 20.6ZM8.8 1.9H10.7V4.8C10.7 5.3 10.3 5.8 9.7 5.8C9.2 5.8 8.7 5.4 8.7 4.8V1.9H8.8ZM21.2 17.6L15.9 12.3C15.8 12.2 15.7 12.1 15.5 12.1L11.7 11C11.4 10.9 11 11 10.8 11.2C10.5 11.4 10.5 11.8 10.5 12.1L11.6 16C11.6 16.2 11.7 16.3 11.8 16.4L17 21.7C17.6 22.3 18.3 22.5 19 22.5C19.7 22.5 20.5 22.2 21 21.7C22.3 20.6 22.3 18.8 21.2 17.6ZM12.8 13.3L14.7 13.9L18.2 17.5L16.8 18.9L13.3 15.4L12.8 13.3ZM19.8 20.3C19.4 20.7 18.8 20.7 18.4 20.3L18.2 20.1L19.6 18.7L19.8 18.9C20.2 19.4 20.2 20 19.8 20.3Z" fill="#BABDD9"/>
</g>
<defs>
<clipPath id="clip0">
<rect width="22" height="22.5" fill="white"/>
</clipPath>
</defs>
</svg>
