<svg width="28" height="28" viewBox="0 0 28 28" fill="none" xmlns="http://www.w3.org/2000/svg">
<path d="M18.165 13.6148C19.1633 12.763 19.8764 11.6256 20.2082 10.3559C20.54 9.08623 20.4745 7.74536 20.0206 6.51406C19.5666 5.28276 18.7461 4.22024 17.6696 3.46975C16.593 2.71926 15.3123 2.31689 14 2.31689C12.6877 2.31689 11.4069 2.71926 10.3304 3.46975C9.25386 4.22024 8.43332 5.28276 7.9794 6.51406C7.52548 7.74536 7.46 9.08623 7.79179 10.3559C8.12358 11.6256 8.8367 12.763 9.83498 13.6148C7.63029 14.4574 5.73301 15.9489 4.39367 17.8923C3.05433 19.8356 2.33592 22.1396 2.33331 24.4998C2.33331 24.8092 2.45623 25.106 2.67502 25.3247C2.89381 25.5435 3.19056 25.6665 3.49998 25.6665C3.8094 25.6665 4.10615 25.5435 4.32494 25.3247C4.54373 25.106 4.66665 24.8092 4.66665 24.4998C4.66665 22.0244 5.64998 19.6505 7.40032 17.9001C9.15066 16.1498 11.5246 15.1665 14 15.1665C16.4753 15.1665 18.8493 16.1498 20.5996 17.9001C22.35 19.6505 23.3333 22.0244 23.3333 24.4998C23.3333 24.8092 23.4562 25.106 23.675 25.3247C23.8938 25.5435 24.1906 25.6665 24.5 25.6665C24.8094 25.6665 25.1061 25.5435 25.3249 25.3247C25.5437 25.106 25.6667 24.8092 25.6667 24.4998C25.664 22.1396 24.9456 19.8356 23.6063 17.8923C22.267 15.9489 20.3697 14.4574 18.165 13.6148ZM14 12.8331C13.1924 12.8331 12.4029 12.5936 11.7314 12.145C11.0599 11.6963 10.5365 11.0585 10.2275 10.3124C9.91841 9.56628 9.83755 8.74526 9.99511 7.95317C10.1527 7.16108 10.5416 6.4335 11.1126 5.86244C11.6837 5.29137 12.4113 4.90247 13.2034 4.74492C13.9955 4.58736 14.8165 4.66822 15.5626 4.97728C16.3087 5.28634 16.9465 5.80971 17.3952 6.48121C17.8438 7.15271 18.0833 7.94218 18.0833 8.74979C18.0833 9.83276 17.6531 10.8714 16.8873 11.6371C16.1216 12.4029 15.0829 12.8331 14 12.8331Z" fill="#BABDD9"/>
</svg>
