<svg width="22" height="23" viewBox="0 0 22 23" fill="none" xmlns="http://www.w3.org/2000/svg">
<g clip-path="url(#clip0)">
<path d="M18.909 16.2906C19.4802 15.6259 19.7953 14.7876 19.8 13.9205C19.8 12.9249 19.3944 11.9702 18.6724 11.2663C17.9503 10.5624 16.9711 10.1669 15.95 10.1669H15.642C16.5492 9.11589 17.0477 7.78696 17.05 6.41334C17.0526 5.42299 16.7993 4.44795 16.3136 3.57814C15.8279 2.70834 15.1254 1.97176 14.2709 1.43634C13.4163 0.900917 12.4372 0.583892 11.4239 0.514499C10.4106 0.445106 9.39572 0.625577 8.47279 1.03927C7.54986 1.45297 6.74863 2.08656 6.14298 2.88164C5.53733 3.67671 5.14677 4.60766 5.00731 5.58863C4.86785 6.56961 4.98398 7.56903 5.34499 8.49473C5.706 9.42043 6.30027 10.2426 7.073 10.8854C4.99429 11.66 3.20543 13.031 1.94262 14.8174C0.679812 16.6039 0.00245816 18.7217 0 20.8913C0 21.1758 0.115892 21.4485 0.322183 21.6497C0.528472 21.8508 0.808262 21.9638 1.1 21.9638C1.39174 21.9638 1.67153 21.8508 1.87782 21.6497C2.08411 21.4485 2.2 21.1758 2.2 20.8913C2.2 18.6159 3.12714 16.4337 4.77746 14.8247C6.42778 13.2157 8.66609 12.3118 11 12.3118H12.485C12.1628 12.951 12.039 13.668 12.1289 14.3748C12.2188 15.0816 12.5184 15.7474 12.991 16.2906C12.0539 16.8016 11.2735 17.547 10.7301 18.4499C10.1868 19.3529 9.90028 20.3807 9.9 21.4276C9.9 21.712 10.0159 21.9848 10.2222 22.1859C10.4285 22.387 10.7083 22.5 11 22.5C11.2917 22.5 11.5715 22.387 11.7778 22.1859C11.9841 21.9848 12.1 21.712 12.1 21.4276C12.1 20.4321 12.5056 19.4773 13.2276 18.7734C13.9497 18.0695 14.9289 17.674 15.95 17.674C16.9711 17.674 17.9503 18.0695 18.6724 18.7734C19.3944 19.4773 19.8 20.4321 19.8 21.4276C19.8 21.712 19.9159 21.9848 20.1222 22.1859C20.3285 22.387 20.6083 22.5 20.9 22.5C21.1917 22.5 21.4715 22.387 21.6778 22.1859C21.8841 21.9848 22 21.712 22 21.4276C21.9997 20.3807 21.7132 19.3529 21.1699 18.4499C20.6265 17.547 19.8461 16.8016 18.909 16.2906ZM11 10.1669C10.2385 10.1669 9.49418 9.94676 8.86105 9.53431C8.22793 9.12186 7.73446 8.53564 7.44306 7.84977C7.15167 7.16389 7.07542 6.40918 7.22398 5.68106C7.37253 4.95294 7.73921 4.28412 8.27764 3.75918C8.81607 3.23424 9.50208 2.87675 10.2489 2.73191C10.9957 2.58708 11.7698 2.66142 12.4733 2.94551C13.1768 3.22961 13.7781 3.71071 14.2012 4.32798C14.6242 4.94525 14.85 5.67096 14.85 6.41334C14.85 7.40885 14.4444 8.36358 13.7224 9.06751C13.0003 9.77143 12.0211 10.1669 11 10.1669ZM15.95 15.5291C15.5124 15.5291 15.0927 15.3596 14.7833 15.0579C14.4738 14.7563 14.3 14.3471 14.3 13.9205C14.3029 13.4947 14.4776 13.0871 14.7865 12.7861C15.0953 12.485 15.5133 12.3146 15.95 12.3118C16.3876 12.3118 16.8073 12.4813 17.1167 12.783C17.4262 13.0846 17.6 13.4938 17.6 13.9205C17.6 14.3471 17.4262 14.7563 17.1167 15.0579C16.8073 15.3596 16.3876 15.5291 15.95 15.5291Z" fill="#BABDD9"/>
</g>
<defs>
<clipPath id="clip0">
<rect width="22" height="22" fill="white" transform="translate(0 0.5)"/>
</clipPath>
</defs>
</svg>
