<svg width="27" height="27" viewBox="0 0 27 27" fill="none" xmlns="http://www.w3.org/2000/svg">
<g clip-path="url(#clip0)">
<path d="M12.9 17.7002C12.1 17.7002 11.4 18.4002 11.4 19.2002C11.4 20.0002 12.1 20.7002 12.9 20.7002C13.7 20.7002 14.4 20.0002 14.4 19.2002C14.4 18.4002 13.7 17.7002 12.9 17.7002Z" fill="#BABDD9"/>
<path d="M13.1 7.2002C10.6 7.2002 9.40002 8.7002 9.40002 9.7002C9.40002 10.5002 10 10.9002 10.6 10.9002C11.1 10.9002 11.3 10.6002 11.5 10.3002C11.8 9.9002 12 9.5002 13 9.5002C13.3 9.5002 14.5 9.6002 14.5 10.6002C14.5 11.3002 13.9 11.8002 13.3 12.2002C13.2 12.3002 13 12.4002 12.9 12.5002C12.3 13.0002 11.6 13.8002 11.6 15.3002C11.6 16.3002 11.9 16.6002 12.7 16.6002C13.7 16.6002 13.9 16.1002 13.9 15.7002C13.9 14.8002 13.9 14.3002 14.8 13.6002C16.5 12.3002 16.9 11.0002 16.9 10.2002C17.1 8.5002 15.5 7.2002 13.1 7.2002Z" fill="#BABDD9"/>
<path d="M13.3 0C6 0 0 6 0 13.3V25.4C0 26 0.5 26.6 1.2 26.6H13.3C20.6 26.6 26.6 20.6 26.6 13.3C26.6 6 20.6 0 13.3 0ZM13.3 24.3H2.3V13.3C2.3 7.3 7.2 2.3 13.3 2.3C19.4 2.3 24.3 7.2 24.3 13.3C24.3 19.4 19.4 24.3 13.3 24.3Z" fill="#BABDD9"/>
</g>
<defs>
<clipPath id="clip0">
<rect width="26.6" height="26.6" fill="white"/>
</clipPath>
</defs>
</svg>
