<svg width="27" height="28" viewBox="0 0 27 28" fill="none" xmlns="http://www.w3.org/2000/svg">
<g clip-path="url(#clip0)">
<path d="M13.4506 19.9724C16.8132 19.9724 19.4835 17.329 19.4835 14.0003C19.4835 10.6717 16.8132 8.02832 13.4506 8.02832C10.0879 8.02832 7.4176 10.6717 7.4176 14.0003C7.4176 17.329 10.1868 19.9724 13.4506 19.9724ZM9.69233 14.0003C9.69233 11.9444 11.3736 10.2801 13.4506 10.2801C15.5275 10.2801 17.2088 11.9444 17.2088 14.0003C17.2088 16.0563 15.5275 17.7206 13.4506 17.7206C11.3736 17.7206 9.69233 16.0563 9.69233 14.0003Z" fill="#BABDD9"/>
<path d="M26.3077 16.5455L24.7253 15.1748C24.7253 14.7832 24.8242 14.3916 24.8242 14C24.8242 13.6084 24.8242 13.2168 24.7253 12.8252L26.2088 11.4545C27 10.7692 27.1978 9.59441 26.6044 8.71329L24.7253 5.38462C24.3297 4.6993 23.5385 4.20979 22.7472 4.20979C22.5494 4.20979 22.2527 4.20979 22.0549 4.30769L20.0769 4.8951C19.3846 4.40559 18.6923 4.01399 18 3.72028L17.5055 1.76224C17.3077 0.783217 16.3187 0 15.3297 0H11.4725C10.3846 0 9.4945 0.783217 9.29669 1.76224L8.90109 3.72028C8.20878 4.11189 7.51647 4.5035 6.82417 4.99301L4.84614 4.40559C4.64834 4.30769 4.45054 4.20979 4.15384 4.20979C3.36263 4.20979 2.57142 4.6014 2.17581 5.28671L0.296693 8.61538C-0.197812 9.4965 -1.02073e-05 10.6713 0.692298 11.3566L2.17581 12.7273C2.17581 13.1189 2.07691 13.5105 2.07691 13.9021C2.07691 14.2937 2.07691 14.6853 2.17581 15.0769L0.692298 16.4476C-0.0989113 17.1329 -0.296714 18.3077 0.296693 19.1888L2.17581 22.4196C2.57142 23.1049 3.36263 23.5944 4.15384 23.5944C4.35164 23.5944 4.64834 23.5944 4.84614 23.4965L6.82417 22.9091C7.51647 23.4965 8.20878 23.8881 8.90109 24.1818L9.39559 26.1399C9.5934 27.1189 10.5824 27.9021 11.5714 27.9021H15.4286C16.5165 27.9021 17.4066 27.1189 17.6044 26.1399L18.0989 24.1818C18.7912 23.8881 19.4835 23.4965 20.1758 23.007L22.1538 23.5944C22.3516 23.6923 22.6483 23.6923 22.8461 23.6923C23.6374 23.6923 24.4286 23.3007 24.8242 22.6154L26.7033 19.2867C27.1978 18.4056 27 17.2308 26.3077 16.5455ZM4.25274 16.4476C4.54944 16.1538 4.64834 15.8601 4.64834 15.4685C4.54944 14.979 4.54944 14.4895 4.54944 14C4.54944 13.5105 4.54944 13.021 4.64834 12.5315C4.74724 12.1399 4.54944 11.7483 4.25274 11.5524L2.27472 9.79021L4.15384 6.46154L6.62636 7.24476C6.72527 7.24476 6.82417 7.34266 6.92307 7.34266C7.21977 7.34266 7.41757 7.24475 7.61537 7.04895C8.40658 6.46154 9.19779 5.97203 10.0879 5.58042C10.4835 5.48252 10.6813 5.18881 10.7802 4.7972L11.3736 2.25175H15.2308L15.8242 4.7972C15.9231 5.18881 16.2198 5.48252 16.5165 5.58042C17.4066 5.87413 18.1978 6.36364 18.989 7.04895C19.1868 7.24475 19.4835 7.34266 19.6813 7.34266C19.7802 7.34266 19.8791 7.34266 19.978 7.24476L22.5494 6.46154L24.7253 9.79021L22.7472 11.5524C22.4505 11.8462 22.3516 12.1399 22.3516 12.5315C22.4505 13.021 22.4505 13.5105 22.4505 14C22.4505 14.4895 22.4505 14.979 22.3516 15.4685C22.2527 15.8601 22.4505 16.2517 22.7472 16.4476L24.7253 18.2098L22.7472 21.5385L20.2747 20.7552C20.1758 20.7552 20.0769 20.6573 19.978 20.6573C19.6813 20.6573 19.4835 20.7552 19.2857 20.951C18.4945 21.5385 17.7033 22.028 16.8132 22.4196C16.4176 22.5175 16.2198 22.8112 16.1209 23.2028L15.5275 25.7483H11.6703L11.0769 23.2028C10.978 22.8112 10.6813 22.5175 10.3846 22.4196C9.4945 22.1259 8.70329 21.6364 7.91208 20.951C7.71428 20.7552 7.41757 20.6573 7.21977 20.6573C7.12087 20.6573 7.02197 20.6573 6.82417 20.7552L4.25274 21.5385L2.37362 18.3077L4.25274 16.4476Z" fill="#BABDD9"/>
</g>
<defs>
<clipPath id="clip0">
<rect width="27" height="28" fill="white"/>
</clipPath>
</defs>
</svg>
