<svg width="22" height="22" viewBox="0 0 22 22" fill="none" xmlns="http://www.w3.org/2000/svg">
<path d="M11.11 0C8.91 0 6.82 0.66 4.95 1.87C3.19 3.08 1.76 4.84 0.88 6.82C0 8.8 -0.22 11 0.22 13.2C0.66 15.29 1.65 17.27 3.19 18.81C4.73 20.35 6.71 21.45 8.8 21.78C10.89 22.22 13.2 22 15.18 21.12C17.16 20.24 18.92 18.92 20.13 17.05C21.34 15.18 22 13.09 22 10.89C22 9.46 21.67 8.03 21.12 6.71C20.57 5.39 19.8 4.18 18.7 3.19C17.71 2.2 16.5 1.32 15.18 0.77C13.97 0.33 12.54 0 11.11 0ZM11.11 19.8C9.35 19.8 7.7 19.25 6.27 18.37C4.84 17.38 3.74 16.06 3.08 14.41C2.42 12.76 2.2 11 2.53 9.35C2.86 7.7 3.74 6.05 4.95 4.84C6.16 3.63 7.7 2.75 9.46 2.42C11.22 2.09 12.98 2.2 14.52 2.97C16.17 3.63 17.49 4.73 18.48 6.27C19.47 7.7 19.91 9.46 19.91 11.11C19.91 13.42 19.03 15.73 17.38 17.38C15.73 19.03 13.42 19.8 11.11 19.8ZM14.52 11.66L12.21 10.34V5.5C12.21 5.17 12.1 4.95 11.88 4.73C11.66 4.51 11.44 4.4 11.11 4.4C10.78 4.4 10.56 4.51 10.34 4.73C10.12 4.95 10.01 5.17 10.01 5.5V11V11.11C10.01 11.22 10.01 11.22 10.01 11.33C10.01 11.44 10.01 11.44 10.12 11.55C10.12 11.66 10.23 11.66 10.23 11.77L10.45 11.88L10.56 11.99L13.42 13.64C13.64 13.75 13.75 13.75 13.97 13.75C14.19 13.75 14.41 13.64 14.63 13.53C14.85 13.42 14.96 13.2 15.07 12.98C15.18 12.76 15.07 12.54 15.07 12.21C14.85 11.99 14.74 11.77 14.52 11.66Z" fill="#BABDD9"/>
</svg>
