<svg width="27" height="23" viewBox="0 0 27 23" fill="none" xmlns="http://www.w3.org/2000/svg">
<path fill-rule="evenodd" clip-rule="evenodd" d="M4.90225 3.67668H25.7368C25.9291 3.66996 26.1203 3.70862 26.2949 3.78953C26.4695 3.87044 26.6226 3.99133 26.7417 4.1424C26.8563 4.28969 26.9358 4.4612 26.974 4.64386C27.0122 4.82652 27.0082 5.0155 26.9623 5.19638L25.173 12.2556C24.9004 13.3114 24.2836 14.2461 23.4202 14.912C22.5568 15.5779 21.496 15.9369 20.4056 15.9323H6.12781C5.15269 15.9323 4.21751 15.5449 3.528 14.8554C2.83849 14.1659 2.45112 13.2307 2.45112 12.2556V3.67668C2.45112 3.35164 2.322 3.03992 2.09216 2.81008C1.86233 2.58024 1.5506 2.45112 1.22556 2.45112C0.900522 2.45112 0.588796 2.322 0.358959 2.09216C0.129121 1.86233 0 1.5506 0 1.22556C0 0.900522 0.129121 0.588796 0.358959 0.358959C0.588796 0.129121 0.900522 0 1.22556 0C2.20068 0 3.13586 0.387364 3.82537 1.07688C4.51488 1.76639 4.90225 2.70157 4.90225 3.67668ZM21.8988 12.9826C22.3448 12.6436 22.6612 12.1622 22.7954 11.6183L24.1681 6.12781H4.90225V12.2556C4.90225 12.5807 5.03137 12.8924 5.2612 13.1222C5.49104 13.3521 5.80277 13.4812 6.12781 13.4812H20.3443C20.9042 13.4975 21.4529 13.3215 21.8988 12.9826ZM7.35341 22.0624C8.70712 22.0624 9.80453 20.965 9.80453 19.6113C9.80453 18.2576 8.70712 17.1602 7.35341 17.1602C5.99969 17.1602 4.90228 18.2576 4.90228 19.6113C4.90228 20.965 5.99969 22.0624 7.35341 22.0624ZM19.609 22.0624C20.9627 22.0624 22.0601 20.965 22.0601 19.6113C22.0601 18.2576 20.9627 17.1602 19.609 17.1602C18.2553 17.1602 17.1579 18.2576 17.1579 19.6113C17.1579 20.965 18.2553 22.0624 19.609 22.0624Z" fill="#BABDD9"/>
</svg>
