<svg width="12" height="12" viewBox="0 0 12 12" fill="none" xmlns="http://www.w3.org/2000/svg">
<g clip-path="url(#clip0)">
<path d="M10.2522 1.74915C7.90437 -0.598675 4.12176 -0.598675 1.77393 1.74915C-0.573895 4.09698 -0.573895 7.87959 1.77393 10.2274C4.12176 12.5752 7.90437 12.5752 10.2522 10.2274C12.5739 7.90567 12.5739 4.09698 10.2522 1.74915ZM6.78263 8.61002C6.78263 9.0535 6.4435 9.39263 6.00002 9.39263C5.55654 9.39263 5.21741 9.0535 5.21741 8.61002V5.47959C5.21741 5.03611 5.55654 4.69698 6.00002 4.69698C6.4435 4.69698 6.78263 5.03611 6.78263 5.47959V8.61002ZM5.97393 4.14915C5.53045 4.14915 5.21741 3.83611 5.2435 3.4448C5.2435 3.02741 5.53045 2.71437 6.00002 2.71437C6.46958 2.71437 6.75654 3.02741 6.75654 3.4448C6.75654 3.81002 6.4435 4.14915 5.97393 4.14915Z" fill="black"/>
</g>
<defs>
<clipPath id="clip0">
<rect width="12" height="12" fill="white"/>
</clipPath>
</defs>
</svg>
