<svg width="24" height="24" viewBox="0 0 24 24" fill="none" xmlns="http://www.w3.org/2000/svg">
<g clip-path="url(#clip0)">
<path d="M24 6.9V4.9C24 2.2 21.7 0 19 0H4.9C2.2 0 0 2.2 0 4.9V19C0 21.7 2.2 23.9 4.9 23.9H19C21.7 23.9 23.9 21.7 23.9 19V18C23.9 17.4 23.4 16.9 22.8 16.9C22.2 16.9 21.7 17.4 21.7 18V19C21.7 20.5 20.5 21.7 19 21.7H4.9C3.4 21.7 2.2 20.5 2.2 19V4.9C2.2 3.4 3.4 2.2 4.9 2.2H19C20.5 2.2 21.7 3.4 21.7 4.9V6.8C21.7 7.4 22.2 7.9 22.8 7.9C23.4 7.9 24 7.5 24 6.9Z" fill="white"/>
<path d="M23.2999 12.4C23.2999 12.3 23.2999 12.2 23.1999 12.1V12C23.0999 11.9 23.0999 11.8 22.9999 11.7L18.7999 7.50001C18.3999 7.10001 17.6999 7.10001 17.1999 7.50001C16.7999 7.90001 16.7999 8.60001 17.1999 9.10001L19.4999 11.5H9.9999C9.3999 11.5 8.8999 12 8.8999 12.6C8.8999 13.2 9.3999 13.7 9.9999 13.7H19.5999L17.0999 16.3C16.6999 16.7 16.6999 17.4 17.0999 17.9C17.2999 18.1 17.5999 18.2 17.8999 18.2C18.1999 18.2 18.4999 18.1 18.6999 17.9L22.9999 13.4C23.0999 13.3 23.1999 13.2 23.1999 13.1C23.1999 13.1 23.1999 13.1 23.1999 13C23.1999 12.9 23.2999 12.8 23.2999 12.7C23.2999 12.5 23.2999 12.4 23.2999 12.4Z" fill="white"/>
</g>
<defs>
<clipPath id="clip0">
<rect width="24" height="23.9" fill="white"/>
</clipPath>
</defs>
</svg>
