<?xml version="1.0" encoding="utf-8"?>
<!-- Generator: Adobe Illustrator 22.0.0, SVG Export Plug-In . SVG Version: 6.00 Build 0)  -->
<svg version="1.1" id="Layer_1" xmlns="http://www.w3.org/2000/svg" xmlns:xlink="http://www.w3.org/1999/xlink" x="0px" y="0px"
	 viewBox="0 0 22 22" style="enable-background:new 0 0 22 22;" xml:space="preserve">
<style type="text/css">
	.st0{fill:#FFFFFF;}
</style>
<path class="st0" d="M18.9,15.8c0.6-0.7,0.9-1.5,0.9-2.4c0-1-0.4-2-1.1-2.7C18,10.1,17,9.7,15.9,9.7h-0.3C16.5,8.6,17,7.3,17,5.9
	c0-1-0.3-2-0.7-2.8c-0.5-0.9-1.2-1.6-2-2.1c-0.9-0.5-1.8-0.9-2.8-0.9s-2,0.1-3,0.5C7.5,1,6.7,1.6,6.1,2.4C5.5,3.2,5.1,4.1,5,5.1
	c-0.1,1,0,2,0.3,2.9c0.4,0.9,1,1.7,1.7,2.4c-2.1,0.8-3.9,2.1-5.1,3.9C0.7,16.1,0,18.2,0,20.4c0,0.3,0.1,0.6,0.3,0.8
	c0.2,0.2,0.5,0.3,0.8,0.3c0.3,0,0.6-0.1,0.8-0.3c0.2-0.2,0.3-0.5,0.3-0.8c0-2.3,0.9-4.5,2.6-6.1s3.9-2.5,6.2-2.5h1.5
	c-0.3,0.6-0.4,1.4-0.4,2.1c0.1,0.7,0.4,1.4,0.9,1.9c-0.9,0.5-1.7,1.3-2.3,2.2c-0.5,0.9-0.8,1.9-0.8,3c0,0.3,0.1,0.6,0.3,0.8
	c0.2,0.2,0.5,0.3,0.8,0.3s0.6-0.1,0.8-0.3c0.2-0.2,0.3-0.5,0.3-0.8c0-1,0.4-2,1.1-2.7c0.7-0.7,1.7-1.1,2.7-1.1s2,0.4,2.7,1.1
	c0.7,0.7,1.1,1.7,1.1,2.7c0,0.3,0.1,0.6,0.3,0.8s0.5,0.3,0.8,0.3s0.6-0.1,0.8-0.3c0.2-0.2,0.3-0.5,0.3-0.8c0-1-0.3-2.1-0.8-3
	C20.6,17,19.8,16.3,18.9,15.8z M11,9.7c-0.8,0-1.5-0.2-2.1-0.6C8.2,8.6,7.7,8,7.4,7.3C7.2,6.7,7.1,5.9,7.2,5.2
	c0.1-0.7,0.5-1.4,1.1-1.9c0.5-0.5,1.2-0.9,2-1c0.7-0.1,1.5-0.1,2.2,0.2c0.7,0.3,1.3,0.8,1.7,1.4c0.4,0.6,0.6,1.3,0.6,2.1
	c0,1-0.4,2-1.1,2.7C13,9.3,12,9.7,11,9.7z M15.9,15c-0.4,0-0.9-0.2-1.2-0.5c-0.3-0.3-0.5-0.7-0.5-1.1c0-0.4,0.2-0.8,0.5-1.1
	c0.3-0.3,0.7-0.5,1.2-0.5c0.4,0,0.9,0.2,1.2,0.5c0.3,0.3,0.5,0.7,0.5,1.1c0,0.4-0.2,0.8-0.5,1.1C16.8,14.9,16.4,15,15.9,15z"/>
</svg>
