<?xml version="1.0" encoding="utf-8"?>
<!-- Generator: Adobe Illustrator 22.0.0, SVG Export Plug-In . SVG Version: 6.00 Build 0)  -->
<svg version="1.1" id="Layer_1" xmlns="http://www.w3.org/2000/svg" xmlns:xlink="http://www.w3.org/1999/xlink" x="0px" y="0px"
	 viewBox="0 0 28 28" style="enable-background:new 0 0 28 28;" xml:space="preserve">
<style type="text/css">
	.st0{fill:#E1E9F4;}
</style>
<path class="st0" d="M18.2,13.6c1-0.9,1.7-2,2-3.3c0.3-1.3,0.3-2.6-0.2-3.8c-0.5-1.2-1.3-2.3-2.4-3c-1.1-0.8-2.4-1.2-3.7-1.2
	s-2.6,0.4-3.7,1.2C9.3,4.2,8.4,5.3,8,6.5c-0.5,1.2-0.5,2.6-0.2,3.8c0.3,1.3,1,2.4,2,3.3c-2.2,0.8-4.1,2.3-5.4,4.3
	c-1.3,1.9-2.1,4.2-2.1,6.6c0,0.3,0.1,0.6,0.3,0.8c0.2,0.2,0.5,0.3,0.8,0.3s0.6-0.1,0.8-0.3c0.2-0.2,0.3-0.5,0.3-0.8
	c0-2.5,1-4.8,2.7-6.6c1.8-1.8,4.1-2.7,6.6-2.7c2.5,0,4.8,1,6.6,2.7c1.8,1.8,2.7,4.1,2.7,6.6c0,0.3,0.1,0.6,0.3,0.8
	c0.2,0.2,0.5,0.3,0.8,0.3c0.3,0,0.6-0.1,0.8-0.3c0.2-0.2,0.3-0.5,0.3-0.8c0-2.4-0.7-4.7-2.1-6.6C22.3,15.9,20.4,14.5,18.2,13.6z
	 M14,12.8c-0.8,0-1.6-0.2-2.3-0.7c-0.7-0.4-1.2-1.1-1.5-1.8C9.9,9.6,9.8,8.7,10,8c0.2-0.8,0.5-1.5,1.1-2.1c0.6-0.6,1.3-1,2.1-1.1
	C14,4.6,14.8,4.7,15.6,5s1.4,0.8,1.8,1.5c0.4,0.7,0.7,1.5,0.7,2.3c0,1.1-0.4,2.1-1.2,2.9C16.1,12.4,15.1,12.8,14,12.8z"/>
</svg>
