<svg width="26" height="26" viewBox="0 0 26 26" fill="none" xmlns="http://www.w3.org/2000/svg">
<path d="M13 0C9.62 0 6.5 1.3 4.03 3.64V1.3C4.03 0.91 3.9 0.65 3.64 0.39C3.38 0.13 3.12 0 2.73 0C2.34 0 2.08 0.13 1.82 0.39C1.56 0.65 1.43 0.91 1.43 1.3V7.15C1.43 7.54 1.56 7.8 1.82 8.06C2.08 8.32 2.34 8.45 2.73 8.45H8.58C8.97 8.45 9.23 8.32 9.49 8.06C9.75 7.8 9.88 7.54 9.88 7.15C9.88 6.76 9.75 6.5 9.49 6.24C9.23 5.98 8.97 5.85 8.58 5.85H5.46C7.15 4.16 9.36 2.99 11.7 2.73C14.04 2.47 16.51 2.99 18.59 4.29C20.67 5.59 22.1 7.54 22.88 9.88C23.66 12.22 23.53 14.69 22.62 16.9C21.71 19.11 20.02 21.06 17.94 22.1C15.86 23.27 13.39 23.66 10.92 23.14C8.58 22.62 6.37 21.45 4.94 19.5C3.38 17.68 2.6 15.34 2.6 12.87C2.6 12.48 2.47 12.22 2.21 11.96C1.95 11.7 1.69 11.57 1.3 11.57C0.91 11.57 0.65 11.7 0.39 11.96C0.13 12.22 0 12.48 0 12.87C0 15.47 0.78 17.94 2.21 20.15C3.64 22.23 5.72 23.92 8.06 24.96C10.4 26 13 26.26 15.6 25.74C18.07 25.22 20.41 24.05 22.23 22.23C24.05 20.41 25.35 18.07 25.74 15.6C26.26 13.13 26 10.4 24.96 8.06C23.92 5.72 22.36 3.64 20.15 2.21C18.07 0.78 15.6 0 13 0ZM13 7.8C12.61 7.8 12.35 7.93 12.09 8.19C11.83 8.45 11.7 8.71 11.7 9.1V13C11.7 13.39 11.83 13.65 12.09 13.91C12.35 14.17 12.61 14.3 13 14.3H15.6C15.99 14.3 16.25 14.17 16.51 13.91C16.77 13.65 16.9 13.39 16.9 13C16.9 12.61 16.77 12.35 16.51 12.09C16.25 11.83 15.99 11.7 15.6 11.7H14.3V9.1C14.3 8.71 14.17 8.45 13.91 8.19C13.65 7.93 13.39 7.8 13 7.8Z" fill="#FAFAFF"/>
</svg>
