<svg width="23" height="23" viewBox="0 0 23 23" fill="none" xmlns="http://www.w3.org/2000/svg">
<g clip-path="url(#clip0)">
<path d="M2.76 5.382C4.232 5.382 5.474 4.186 5.474 2.668C5.474 1.15 4.232 0 2.76 0C1.288 0 0.046 1.196 0.046 2.714C0.046 4.232 1.242 5.382 2.76 5.382ZM2.76 1.794C3.266 1.794 3.68 2.208 3.68 2.714C3.68 3.22 3.266 3.634 2.76 3.634C2.254 3.634 1.84 3.22 1.84 2.714C1.84 2.208 2.254 1.794 2.76 1.794ZM22.08 10.718C22.586 10.718 23 10.304 23 9.798V8.97C23 7.498 21.804 6.256 20.286 6.256H19.872C19.55 6.256 19.228 6.44 19.09 6.716L16.836 11.04H15.088V8.924C15.088 7.452 13.892 6.21 12.374 6.21H10.58C9.108 6.21 7.866 7.406 7.866 8.924V11.04H6.118L3.864 6.762C3.726 6.486 3.404 6.302 3.082 6.302H2.714C1.242 6.302 0 7.498 0 9.016V14.306C0 15.456 0.736 16.422 1.748 16.836C1.886 16.928 2.024 16.974 2.208 16.974C2.3 16.974 2.346 17.02 2.438 17.02C2.806 17.112 3.082 17.48 3.082 17.894V22.08C3.082 22.586 3.496 23 4.002 23C4.508 23 4.922 22.586 4.922 22.08V17.802C4.922 17.526 4.876 17.204 4.784 16.928H6.716V20.24C6.716 21.712 7.912 22.954 9.43 22.954H13.708C15.18 22.954 16.422 21.758 16.422 20.24V16.928H18.308C18.216 17.204 18.17 17.48 18.17 17.802V22.08C18.17 22.586 18.584 23 19.09 23C19.596 23 20.01 22.586 20.01 22.08V17.802C20.01 17.388 20.286 17.02 20.654 16.928C20.746 16.928 20.792 16.928 20.884 16.882C21.068 16.882 21.206 16.836 21.344 16.744C22.356 16.376 23.092 15.364 23.092 14.214C23.092 13.708 22.678 13.294 22.172 13.294C21.666 13.294 21.252 13.708 21.252 14.214C21.252 14.628 20.976 14.996 20.608 15.088C20.516 15.088 20.47 15.088 20.378 15.134H16.422V12.788H17.434C17.756 12.788 18.078 12.604 18.216 12.328L20.47 8.05C20.884 8.096 21.252 8.51 21.252 8.924V9.752C21.206 10.304 21.62 10.718 22.08 10.718ZM9.706 8.924C9.706 8.418 10.12 8.004 10.626 8.004H12.42C12.926 8.004 13.34 8.418 13.34 8.924V11.04H9.752V8.924H9.706ZM2.714 15.18C2.714 15.18 2.668 15.18 2.714 15.18C2.622 15.18 2.576 15.134 2.484 15.134C2.116 15.042 1.84 14.674 1.84 14.26V8.97C1.84 8.51 2.162 8.142 2.622 8.096L4.876 12.374C5.014 12.65 5.336 12.834 5.658 12.834H6.716V15.18H2.714ZM14.536 20.286C14.536 20.792 14.122 21.206 13.616 21.206H9.338C8.832 21.206 8.418 20.792 8.418 20.286V12.834H14.49V20.286H14.536ZM20.24 5.382C21.712 5.382 22.954 4.186 22.954 2.668C22.954 1.15 21.758 0 20.24 0C18.722 0 17.526 1.196 17.526 2.714C17.526 4.232 18.768 5.382 20.24 5.382ZM20.24 1.794C20.746 1.794 21.16 2.208 21.16 2.714C21.16 3.22 20.746 3.634 20.24 3.634C19.734 3.634 19.32 3.22 19.32 2.714C19.32 2.208 19.78 1.794 20.24 1.794ZM11.5 5.382C12.972 5.382 14.214 4.186 14.214 2.668C14.214 1.15 12.972 0 11.5 0C10.028 0 8.786 1.196 8.786 2.714C8.786 4.232 10.028 5.382 11.5 5.382ZM11.5 1.794C12.006 1.794 12.42 2.208 12.42 2.714C12.42 3.22 12.006 3.634 11.5 3.634C10.994 3.634 10.58 3.22 10.58 2.714C10.58 2.208 10.994 1.794 11.5 1.794Z" fill="white"/>
</g>
<defs>
<clipPath id="clip0">
<rect width="23" height="23" fill="white"/>
</clipPath>
</defs>
</svg>
