<svg width="24" height="24" viewBox="0 0 24 24" fill="none" xmlns="http://www.w3.org/2000/svg">
<path d="M12 0C5.4359 0 0 5.4359 0 12C0 18.6667 5.4359 24 12 24C18.6667 24 24 18.5641 24 12C24 5.4359 18.6667 0 12 0ZM12 21.8462C6.5641 21.8462 2.15385 17.4359 2.15385 12C2.15385 6.5641 6.5641 2.15385 12 2.15385C17.4359 2.15385 21.8462 6.5641 21.8462 12C21.8462 17.4359 17.4359 21.8462 12 21.8462Z" fill="white"/>
<path d="M15.3847 11.6923H12.5129V7.48715C12.5129 6.87177 12.0001 6.35895 11.3847 6.35895C10.7693 6.35895 10.2565 6.87177 10.2565 7.48715V12.8205C10.2565 13.4359 10.7693 13.9487 11.3847 13.9487H15.3847C16.0001 13.9487 16.5129 13.4359 16.5129 12.8205C16.4103 12.1025 16.0001 11.6923 15.3847 11.6923Z" fill="white"/>
</svg>
