<svg width="28" height="28" viewBox="0 0 28 28" fill="none" xmlns="http://www.w3.org/2000/svg">
<path d="M14.7584 2.61331C14.5471 2.43259 14.2781 2.33329 14.0001 2.33331H5.83338C5.52396 2.33331 5.22722 2.45623 5.00843 2.67502C4.78963 2.89381 4.66672 3.19056 4.66672 3.49998V24.5C4.66672 24.8094 4.78963 25.1061 5.00843 25.3249C5.22722 25.5437 5.52396 25.6666 5.83338 25.6666H22.1667C22.4761 25.6666 22.7729 25.5437 22.9917 25.3249C23.2105 25.1061 23.3334 24.8094 23.3334 24.5V10.5C23.3334 10.3315 23.2969 10.1649 23.2264 10.0119C23.1559 9.85882 23.0531 9.72285 22.9251 9.61331L14.7584 2.61331ZM15.1667 6.03165L19.0167 9.33331H15.1667V6.03165ZM21 23.3333H7.00005V4.66665H12.8334V10.5C12.8334 10.8094 12.9563 11.1061 13.1751 11.3249C13.3939 11.5437 13.6906 11.6666 14.0001 11.6666H21V23.3333Z" fill="white"/>
</svg>
