<svg width="23" height="14" viewBox="0 0 23 14" fill="none" xmlns="http://www.w3.org/2000/svg">
<g clip-path="url(#clip0)">
<path d="M12.6998 5.39999C13.0998 5.39999 13.3998 5.09999 13.3998 4.69999C13.3998 4.29999 12.9998 3.99999 12.6998 3.99999H11.9998C11.9998 3.59999 11.6998 3.29999 11.2998 3.29999C10.8998 3.29999 10.5998 3.59999 10.5998 3.99999H9.9998C9.5998 3.99999 9.2998 4.29999 9.2998 4.69999V6.69999C9.2998 7.09999 9.5998 7.39999 9.9998 7.39999H11.9998V7.99999H9.9998C9.5998 7.99999 9.2998 8.29999 9.2998 8.69999C9.2998 9.09999 9.5998 9.39999 9.9998 9.39999H10.6998C10.6998 9.79999 10.9998 10.1 11.3998 10.1C11.7998 10.1 12.0998 9.79999 12.0998 9.39999H12.7998C13.1998 9.39999 13.4998 9.09999 13.4998 8.69999V6.69999C13.2998 6.29999 12.9998 5.99999 12.6998 5.99999H10.6998V5.39999H12.6998Z" fill="white"/>
<path d="M21.8 0H0.9C0.4 0 0 0.4 0 0.9V12.5C0 12.9 0.3 13.3 0.8 13.4H21.9C22.3 13.3 22.6 13 22.6 12.5V0.9C22.7 0.4 22.3 0 21.8 0ZM20.9 1.8V2.5C20.6 2.3 20.4 2.1 20.2 1.8H20.9ZM20.9 4.4V9C19.6 9.3 18.6 10.3 18.3 11.6H4.4C4 10.3 3 9.3 1.8 9V4.4C3 4 4 3 4.4 1.8H18.3C18.6 3 19.6 4 20.9 4.4ZM1.8 2.5V1.8H2.5C2.3 2.1 2.1 2.3 1.8 2.5ZM2.5 11.6H1.8V10.9C2.1 11.1 2.3 11.3 2.5 11.6ZM20.9 10.9V11.6H20.2C20.4 11.3 20.6 11.1 20.9 10.9Z" fill="white"/>
</g>
<defs>
<clipPath id="clip0">
<rect width="22.7" height="13.4" fill="white"/>
</clipPath>
</defs>
</svg>
