<svg width="25" height="20" viewBox="0 0 25 20" fill="none" xmlns="http://www.w3.org/2000/svg">
<path d="M24.6774 2.41935C23.7903 2.82258 22.8226 3.06452 21.7742 3.22581C22.8226 2.58065 23.629 1.6129 24.0323 0.403226C23.0645 0.967742 22.0161 1.37097 20.8065 1.6129C19.9194 0.645161 18.5484 0 17.0968 0C14.2742 0 12.0968 2.25806 12.0968 5.08065C12.0968 5.48387 12.0968 5.8871 12.1774 6.20968C7.98387 6.04839 4.27419 4.03226 1.77419 0.967742C1.37097 1.69355 1.04839 2.58064 1.04839 3.54839C1.12903 5.24194 2.01613 6.77419 3.30645 7.66129C2.5 7.66129 1.69355 7.41935 1.04839 7.01613C1.04839 7.01613 1.04839 7.01613 1.04839 7.09677C1.04839 9.51613 2.82258 11.6129 5.08065 12.0161C4.67742 12.0968 4.19355 12.1774 3.79032 12.1774C3.46774 12.1774 3.14516 12.1774 2.82258 12.0968C3.46774 14.1129 5.32258 15.5645 7.5 15.6452C5.80645 17.0161 3.62903 17.8226 1.20968 17.8226C0.806452 17.8226 0.403226 17.8226 0 17.7419C2.25806 19.1935 4.91936 20 7.74194 20C17.0161 20 22.0968 12.3387 22.0968 5.64516C22.0968 5.40323 22.0968 5.24194 22.0968 5C23.1452 4.27419 23.9516 3.3871 24.6774 2.41935Z" fill="#757AA5"/>
</svg>
