<?xml version="1.0" encoding="utf-8"?>
<!-- Generator: Adobe Illustrator 22.0.0, SVG Export Plug-In . SVG Version: 6.00 Build 0)  -->
<svg version="1.1" id="Layer_1" xmlns="http://www.w3.org/2000/svg" xmlns:xlink="http://www.w3.org/1999/xlink" x="0px" y="0px"
	 viewBox="0 0 13 12" style="enable-background:new 0 0 13 12;" xml:space="preserve">
<style type="text/css">
	.st0{fill:#959AC5;}
</style>
<path class="st0" d="M7,9.8C6.9,9.9,6.7,10,6.5,10S6.1,9.9,6,9.8C5.8,9.7,5.7,9.5,5.7,9.3V2.3L3.3,4.5C3.1,4.6,3,4.7,2.8,4.7
	S2.4,4.6,2.2,4.5C2.1,4.3,2,4.2,2,4c0-0.2,0.1-0.3,0.2-0.5L6,0.2C6,0.1,6.1,0.1,6.2,0.1C6.3,0,6.4,0,6.5,0s0.2,0,0.3,0.1
	S7,0.1,7,0.2l3.7,3.3c0.1,0.1,0.1,0.1,0.2,0.2C11,3.8,11,3.9,11,4c0,0.1,0,0.2-0.1,0.3c0,0.1-0.1,0.2-0.2,0.2
	c-0.1,0.1-0.2,0.1-0.2,0.1c-0.1,0-0.2,0.1-0.3,0.1c-0.1,0-0.2,0-0.3-0.1c-0.1,0-0.2-0.1-0.2-0.1L7.2,2.3v7.1C7.2,9.5,7.2,9.7,7,9.8z
	 M0.2,11.1C0.3,11.1,0.5,11,0.6,11h11.7c0.2,0,0.3,0.1,0.5,0.1c0.1,0.1,0.2,0.2,0.2,0.4s-0.1,0.3-0.2,0.4c-0.1,0.1-0.3,0.1-0.5,0.1
	H0.6c-0.2,0-0.3-0.1-0.5-0.1C0.1,11.8,0,11.6,0,11.5S0.1,11.2,0.2,11.1z"/>
</svg>
