<svg width="17" height="16" viewBox="0 0 17 16" fill="none" xmlns="http://www.w3.org/2000/svg">
<path fill-rule="evenodd" clip-rule="evenodd" d="M9.02925 12.7463C8.88872 12.9087 8.69811 13 8.49936 13C8.30061 13 8.11 12.9087 7.96947 12.7463C7.82893 12.5838 7.74998 12.3634 7.74998 12.1337V2.95921L5.28451 5.81811C5.1434 5.98124 4.95201 6.07289 4.75245 6.07289C4.55289 6.07289 4.3615 5.98124 4.22039 5.81811C4.07928 5.65498 4 5.43372 4 5.20301C4 4.97231 4.07928 4.75105 4.22039 4.58792L7.9673 0.256259C8.03696 0.17506 8.11985 0.110609 8.21117 0.0666269C8.30248 0.0226444 8.40043 0 8.49936 0C8.59829 0 8.69624 0.0226444 8.78756 0.0666269C8.87887 0.110609 8.96176 0.17506 9.03142 0.256259L12.7783 4.58792C12.8486 4.66846 12.9043 4.76427 12.9424 4.86984C12.9804 4.97541 13 5.08865 13 5.20301C13 5.31738 12.9804 5.43061 12.9424 5.53618C12.9043 5.64176 12.8486 5.73757 12.7783 5.81811C12.7087 5.89931 12.6258 5.96376 12.5345 6.00774C12.4431 6.05172 12.3452 6.07437 12.2463 6.07437C12.1473 6.07437 12.0494 6.05172 11.9581 6.00774C11.8668 5.96376 11.7839 5.89931 11.7142 5.81811L9.24874 2.95921V12.1337C9.24874 12.3634 9.16979 12.5838 9.02925 12.7463ZM0.248959 14.2929C0.408365 14.1054 0.624566 14 0.85 14H16.15C16.3754 14 16.5916 14.1054 16.751 14.2929C16.9104 14.4804 17 14.7348 17 15C17 15.2652 16.9104 15.5196 16.751 15.7071C16.5916 15.8946 16.3754 16 16.15 16H0.85C0.624566 16 0.408365 15.8946 0.248959 15.7071C0.0895533 15.5196 0 15.2652 0 15C0 14.7348 0.0895533 14.4804 0.248959 14.2929Z" fill="#464255"/>
</svg>
