<svg width="28" height="28" viewBox="0 0 28 28" fill="none" xmlns="http://www.w3.org/2000/svg">
<path d="M11.6667 5.83333C11.6667 7.12199 12.7114 8.16666 14 8.16666C15.2887 8.16666 16.3334 7.12199 16.3334 5.83333C16.3334 4.54467 15.2887 3.5 14 3.5C12.7114 3.5 11.6667 4.54467 11.6667 5.83333Z" fill="#BABDD9"/>
<path d="M11.6667 14.0003C11.6667 15.289 12.7114 16.3337 14 16.3337C15.2887 16.3337 16.3334 15.289 16.3334 14.0003C16.3334 12.7117 15.2887 11.667 14 11.667C12.7114 11.667 11.6667 12.7117 11.6667 14.0003Z" fill="#BABDD9"/>
<path d="M11.6667 22.1663C11.6667 23.455 12.7114 24.4997 14 24.4997C15.2887 24.4997 16.3334 23.455 16.3334 22.1663C16.3334 20.8777 15.2887 19.833 14 19.833C12.7114 19.833 11.6667 20.8777 11.6667 22.1663Z" fill="#BABDD9"/>
</svg>
