<svg width="15" height="15" viewBox="0 0 15 15" fill="none" xmlns="http://www.w3.org/2000/svg">
<g clip-path="url(#clip0)">
<path d="M13.8875 12.9052L11.292 10.3097C12.2741 9.04698 12.7651 7.43355 12.6248 5.82012C12.4845 4.20668 11.783 2.73355 10.5204 1.61116C9.32782 0.558922 7.71439 -0.0724208 6.10096 -0.00227155C4.48752 0.0678777 2.94424 0.699221 1.82185 1.82161C0.699465 2.944 -0.00202741 4.48728 -0.00202741 6.10071C-0.0721767 7.71415 0.559167 9.25743 1.61141 10.5201C2.66364 11.7127 4.20693 12.4843 5.82036 12.6246C7.43379 12.7649 9.04723 12.2738 10.3099 11.2918L12.9054 13.8873C12.9756 13.9574 13.0457 14.0276 13.1159 14.0276C13.186 14.0276 13.3263 14.0977 13.3965 14.0977C13.4666 14.0977 13.6069 14.0977 13.6771 14.0276C13.7472 13.9574 13.8174 13.9574 13.8875 13.8873C14.0278 13.747 14.098 13.6067 14.098 13.3962C14.098 13.1858 14.0278 13.0455 13.8875 12.9052ZM6.38156 11.2918C5.39947 11.2918 4.48752 11.0112 3.64573 10.45C2.80394 9.88877 2.24275 9.11713 1.82185 8.27534C1.47111 7.3634 1.33081 6.38131 1.54126 5.39922C1.7517 4.48728 2.1726 3.57534 2.87409 2.87385C3.57558 2.17236 4.41738 1.68131 5.39947 1.54101C6.38155 1.33056 7.36364 1.47086 8.20544 1.82161C9.04723 2.17236 9.88902 2.8037 10.3801 3.64549C10.8711 4.48728 11.2219 5.39922 11.2219 6.38131C11.2219 7.71415 10.7308 8.90668 9.81887 9.81863C8.90693 10.8007 7.71439 11.2918 6.38156 11.2918Z" fill="white"/>
</g>
<defs>
<clipPath id="clip0">
<rect width="14.1" height="14.1" fill="white"/>
</clipPath>
</defs>
</svg>
