<svg width="16" height="16" viewBox="0 0 16 16" fill="none" xmlns="http://www.w3.org/2000/svg">
<path d="M8 0C3.56923 0 0 3.56923 0 8C0 12.4308 3.56923 16 8 16C12.4308 16 16 12.4308 16 8C16 3.56923 12.4308 0 8 0ZM8 14.8308C4.24615 14.8308 1.16923 11.7538 1.16923 8C1.16923 4.24615 4.24615 1.16923 8 1.16923C11.7538 1.16923 14.8308 4.24615 14.8308 8C14.8308 11.7538 11.7538 14.8308 8 14.8308Z" fill="#464255"/>
<path d="M10.7079 7.99904H8.18484V4.49135C8.18484 4.18365 7.93869 3.9375 7.63099 3.9375C7.3233 3.9375 7.07715 4.18365 7.07715 4.49135V8.55288C7.07715 8.86058 7.3233 9.10673 7.63099 9.10673H10.7695C11.0771 9.10673 11.3233 8.86058 11.3233 8.55288C11.3233 8.24519 11.0771 7.99904 10.7079 7.99904Z" fill="#464255"/>
</svg>
